G04 Layer_Physical_Order=2*
G04 Layer_Color=36540*
%FSLAX24Y24*%
%MOIN*%
G70*
G01*
G75*
%ADD20C,0.0157*%
%ADD25O,0.1575X0.0709*%
%ADD26O,0.1772X0.0709*%
%ADD28C,0.0591*%
%ADD32C,0.0554*%
%ADD33C,0.0945*%
%ADD35O,0.0709X0.0472*%
%ADD38C,0.0315*%
%ADD39C,0.0236*%
%ADD40C,0.0100*%
%ADD41C,0.0394*%
%ADD42C,0.0315*%
G36*
X-151Y151D02*
X-39219D01*
Y48175D01*
X-151D01*
Y151D01*
D02*
G37*
%LPC*%
G36*
X-2310Y15739D02*
X-2403Y15727D01*
X-2489Y15691D01*
X-2563Y15634D01*
X-2620Y15560D01*
X-2655Y15474D01*
X-2667Y15382D01*
X-2655Y15289D01*
X-2620Y15203D01*
X-2563Y15129D01*
X-2489Y15072D01*
X-2403Y15036D01*
X-2310Y15024D01*
X-2218Y15036D01*
X-2131Y15072D01*
X-2057Y15129D01*
X-2001Y15203D01*
X-1965Y15289D01*
X-1953Y15382D01*
X-1965Y15474D01*
X-2001Y15560D01*
X-2057Y15634D01*
X-2131Y15691D01*
X-2218Y15727D01*
X-2310Y15739D01*
D02*
G37*
G36*
X-7200Y15462D02*
X-7269Y15449D01*
X-7328Y15409D01*
X-7367Y15351D01*
X-7381Y15282D01*
X-7367Y15213D01*
X-7328Y15154D01*
X-7269Y15115D01*
X-7200Y15101D01*
X-7131Y15115D01*
X-7072Y15154D01*
X-7033Y15213D01*
X-7019Y15282D01*
X-7033Y15351D01*
X-7072Y15409D01*
X-7131Y15449D01*
X-7200Y15462D01*
D02*
G37*
G36*
X-30630Y14852D02*
X-30715Y14836D01*
X-30786Y14788D01*
X-30834Y14716D01*
X-30851Y14632D01*
X-30834Y14547D01*
X-30786Y14476D01*
X-30715Y14428D01*
X-30630Y14411D01*
X-30546Y14428D01*
X-30474Y14476D01*
X-30426Y14547D01*
X-30409Y14632D01*
X-30426Y14716D01*
X-30474Y14788D01*
X-30546Y14836D01*
X-30630Y14852D01*
D02*
G37*
G36*
X-1015Y15741D02*
X-1605D01*
X-1651Y15722D01*
X-1669Y15677D01*
Y15086D01*
X-1651Y15041D01*
X-1605Y15022D01*
X-1015D01*
X-970Y15041D01*
X-951Y15086D01*
Y15677D01*
X-970Y15722D01*
X-1015Y15741D01*
D02*
G37*
G36*
X-8140Y16072D02*
X-8209Y16059D01*
X-8268Y16019D01*
X-8307Y15961D01*
X-8321Y15892D01*
X-8307Y15823D01*
X-8268Y15764D01*
X-8209Y15725D01*
X-8140Y15711D01*
X-8071Y15725D01*
X-8012Y15764D01*
X-7973Y15823D01*
X-7959Y15892D01*
X-7973Y15961D01*
X-8012Y16019D01*
X-8071Y16059D01*
X-8140Y16072D01*
D02*
G37*
G36*
X-5720Y16248D02*
X-5789Y16234D01*
X-5848Y16195D01*
X-5887Y16136D01*
X-5901Y16067D01*
X-5887Y15998D01*
X-5848Y15939D01*
X-5789Y15900D01*
X-5720Y15886D01*
X-5651Y15900D01*
X-5592Y15939D01*
X-5553Y15998D01*
X-5539Y16067D01*
X-5553Y16136D01*
X-5592Y16195D01*
X-5651Y16234D01*
X-5720Y16248D01*
D02*
G37*
G36*
X-32610Y15642D02*
X-32695Y15626D01*
X-32766Y15578D01*
X-32814Y15506D01*
X-32831Y15422D01*
X-32814Y15337D01*
X-32766Y15266D01*
X-32695Y15218D01*
X-32610Y15201D01*
X-32526Y15218D01*
X-32454Y15266D01*
X-32406Y15337D01*
X-32389Y15422D01*
X-32406Y15506D01*
X-32454Y15578D01*
X-32526Y15626D01*
X-32610Y15642D01*
D02*
G37*
G36*
X-32555Y17395D02*
X-32632Y17385D01*
X-32704Y17355D01*
X-32765Y17307D01*
X-32813Y17246D01*
X-32843Y17174D01*
X-32852Y17101D01*
X-33372Y16581D01*
X-33372Y16581D01*
X-34513Y15439D01*
X-34965D01*
Y15609D01*
X-34915Y15636D01*
X-34880Y15612D01*
X-34795Y15596D01*
X-34711Y15612D01*
X-34639Y15660D01*
X-34591Y15732D01*
X-34575Y15816D01*
X-34591Y15901D01*
X-34639Y15972D01*
X-34711Y16020D01*
X-34795Y16037D01*
X-34880Y16020D01*
X-34915Y15997D01*
X-34965Y16024D01*
Y16689D01*
X-34975Y16766D01*
X-35005Y16838D01*
X-35052Y16900D01*
X-35114Y16947D01*
X-35186Y16977D01*
X-35263Y16987D01*
X-35340Y16977D01*
X-35412Y16947D01*
X-35473Y16900D01*
X-35521Y16838D01*
X-35550Y16766D01*
X-35561Y16689D01*
Y15244D01*
X-35550Y15167D01*
X-35521Y15095D01*
X-35473Y15034D01*
X-35371Y14931D01*
X-35309Y14884D01*
X-35237Y14854D01*
X-35160Y14844D01*
X-34390D01*
X-34313Y14854D01*
X-34241Y14884D01*
X-34179Y14931D01*
X-33038Y16072D01*
X-30971D01*
X-30894Y16083D01*
X-30823Y16112D01*
X-30761Y16160D01*
X-30713Y16221D01*
X-30684Y16293D01*
X-30674Y16370D01*
X-30684Y16447D01*
X-30713Y16519D01*
X-30761Y16581D01*
X-30823Y16628D01*
X-30894Y16658D01*
X-30971Y16668D01*
X-32377D01*
X-32396Y16714D01*
X-32344Y16766D01*
X-32297Y16828D01*
X-32267Y16900D01*
X-32257Y16977D01*
Y17097D01*
X-32267Y17174D01*
X-32297Y17246D01*
X-32344Y17307D01*
X-32406Y17355D01*
X-32478Y17385D01*
X-32555Y17395D01*
D02*
G37*
G36*
X-32470Y14682D02*
X-32555Y14666D01*
X-32626Y14618D01*
X-32674Y14546D01*
X-32691Y14462D01*
X-32674Y14377D01*
X-32626Y14306D01*
X-32555Y14258D01*
X-32470Y14241D01*
X-32386Y14258D01*
X-32314Y14306D01*
X-32266Y14377D01*
X-32249Y14462D01*
X-32266Y14546D01*
X-32314Y14618D01*
X-32386Y14666D01*
X-32470Y14682D01*
D02*
G37*
G36*
X-3180Y13182D02*
X-3265Y13166D01*
X-3336Y13118D01*
X-3384Y13046D01*
X-3401Y12962D01*
X-3384Y12877D01*
X-3336Y12806D01*
X-3265Y12758D01*
X-3180Y12741D01*
X-3096Y12758D01*
X-3024Y12806D01*
X-2976Y12877D01*
X-2959Y12962D01*
X-2976Y13046D01*
X-3024Y13118D01*
X-3096Y13166D01*
X-3180Y13182D01*
D02*
G37*
G36*
X-1310Y13739D02*
X-1403Y13727D01*
X-1489Y13691D01*
X-1563Y13634D01*
X-1620Y13560D01*
X-1655Y13474D01*
X-1667Y13382D01*
X-1655Y13289D01*
X-1620Y13203D01*
X-1563Y13129D01*
X-1489Y13072D01*
X-1403Y13036D01*
X-1310Y13024D01*
X-1218Y13036D01*
X-1131Y13072D01*
X-1057Y13129D01*
X-1001Y13203D01*
X-965Y13289D01*
X-953Y13382D01*
X-965Y13474D01*
X-1001Y13560D01*
X-1057Y13634D01*
X-1131Y13691D01*
X-1218Y13727D01*
X-1310Y13739D01*
D02*
G37*
G36*
X-28815Y13097D02*
X-28900Y13080D01*
X-28972Y13032D01*
X-29019Y12961D01*
X-29036Y12876D01*
X-29019Y12792D01*
X-28972Y12720D01*
X-28900Y12672D01*
X-28815Y12656D01*
X-28731Y12672D01*
X-28659Y12720D01*
X-28611Y12792D01*
X-28595Y12876D01*
X-28611Y12961D01*
X-28659Y13032D01*
X-28731Y13080D01*
X-28815Y13097D01*
D02*
G37*
G36*
X-6432Y13070D02*
X-6501Y13057D01*
X-6560Y13018D01*
X-6599Y12959D01*
X-6613Y12890D01*
X-6599Y12821D01*
X-6560Y12762D01*
X-6501Y12723D01*
X-6432Y12709D01*
X-6363Y12723D01*
X-6304Y12762D01*
X-6265Y12821D01*
X-6251Y12890D01*
X-6265Y12959D01*
X-6304Y13018D01*
X-6363Y13057D01*
X-6432Y13070D01*
D02*
G37*
G36*
X-1310Y14739D02*
X-1403Y14727D01*
X-1489Y14691D01*
X-1563Y14634D01*
X-1620Y14560D01*
X-1655Y14474D01*
X-1667Y14382D01*
X-1655Y14289D01*
X-1620Y14203D01*
X-1563Y14129D01*
X-1489Y14072D01*
X-1403Y14036D01*
X-1310Y14024D01*
X-1218Y14036D01*
X-1131Y14072D01*
X-1057Y14129D01*
X-1001Y14203D01*
X-965Y14289D01*
X-953Y14382D01*
X-965Y14474D01*
X-1001Y14560D01*
X-1057Y14634D01*
X-1131Y14691D01*
X-1218Y14727D01*
X-1310Y14739D01*
D02*
G37*
G36*
X-7190Y14422D02*
X-7259Y14409D01*
X-7318Y14369D01*
X-7357Y14311D01*
X-7371Y14242D01*
X-7357Y14173D01*
X-7318Y14114D01*
X-7259Y14075D01*
X-7190Y14061D01*
X-7121Y14075D01*
X-7062Y14114D01*
X-7023Y14173D01*
X-7009Y14242D01*
X-7023Y14311D01*
X-7062Y14369D01*
X-7121Y14409D01*
X-7190Y14422D01*
D02*
G37*
G36*
X-7121Y13832D02*
X-7190Y13818D01*
X-7248Y13779D01*
X-7288Y13720D01*
X-7301Y13651D01*
X-7288Y13582D01*
X-7248Y13523D01*
X-7190Y13484D01*
X-7121Y13470D01*
X-7052Y13484D01*
X-6993Y13523D01*
X-6954Y13582D01*
X-6940Y13651D01*
X-6954Y13720D01*
X-6993Y13779D01*
X-7052Y13818D01*
X-7121Y13832D01*
D02*
G37*
G36*
X-2310Y14739D02*
X-2403Y14727D01*
X-2489Y14691D01*
X-2563Y14634D01*
X-2620Y14560D01*
X-2655Y14474D01*
X-2667Y14382D01*
X-2655Y14289D01*
X-2620Y14203D01*
X-2563Y14129D01*
X-2489Y14072D01*
X-2403Y14036D01*
X-2310Y14024D01*
X-2218Y14036D01*
X-2131Y14072D01*
X-2057Y14129D01*
X-2001Y14203D01*
X-1965Y14289D01*
X-1953Y14382D01*
X-1965Y14474D01*
X-2001Y14560D01*
X-2057Y14634D01*
X-2131Y14691D01*
X-2218Y14727D01*
X-2310Y14739D01*
D02*
G37*
G36*
X-36535Y16548D02*
X-36619Y16531D01*
X-36691Y16483D01*
X-36739Y16411D01*
X-36755Y16327D01*
X-36739Y16243D01*
X-36691Y16171D01*
X-36619Y16123D01*
X-36535Y16106D01*
X-36450Y16123D01*
X-36379Y16171D01*
X-36331Y16243D01*
X-36314Y16327D01*
X-36331Y16411D01*
X-36379Y16483D01*
X-36450Y16531D01*
X-36535Y16548D01*
D02*
G37*
G36*
X-7030Y21492D02*
X-7115Y21476D01*
X-7186Y21428D01*
X-7234Y21356D01*
X-7251Y21272D01*
X-7234Y21187D01*
X-7186Y21116D01*
X-7115Y21068D01*
X-7030Y21051D01*
X-6946Y21068D01*
X-6874Y21116D01*
X-6826Y21187D01*
X-6809Y21272D01*
X-6826Y21356D01*
X-6874Y21428D01*
X-6946Y21476D01*
X-7030Y21492D01*
D02*
G37*
G36*
X-6100Y22822D02*
X-6185Y22806D01*
X-6256Y22758D01*
X-6304Y22686D01*
X-6321Y22602D01*
X-6304Y22517D01*
X-6256Y22446D01*
X-6185Y22398D01*
X-6100Y22381D01*
X-6016Y22398D01*
X-5944Y22446D01*
X-5896Y22517D01*
X-5879Y22602D01*
X-5896Y22686D01*
X-5944Y22758D01*
X-6016Y22806D01*
X-6100Y22822D01*
D02*
G37*
G36*
X-4250Y21052D02*
X-4335Y21036D01*
X-4406Y20988D01*
X-4454Y20916D01*
X-4471Y20832D01*
X-4454Y20747D01*
X-4406Y20676D01*
X-4335Y20628D01*
X-4250Y20611D01*
X-4166Y20628D01*
X-4094Y20676D01*
X-4046Y20747D01*
X-4029Y20832D01*
X-4046Y20916D01*
X-4094Y20988D01*
X-4166Y21036D01*
X-4250Y21052D01*
D02*
G37*
G36*
X-5450Y21252D02*
X-5535Y21236D01*
X-5606Y21188D01*
X-5654Y21116D01*
X-5671Y21032D01*
X-5654Y20947D01*
X-5606Y20876D01*
X-5535Y20828D01*
X-5450Y20811D01*
X-5366Y20828D01*
X-5294Y20876D01*
X-5246Y20947D01*
X-5229Y21032D01*
X-5246Y21116D01*
X-5294Y21188D01*
X-5366Y21236D01*
X-5450Y21252D01*
D02*
G37*
G36*
X-4880Y23402D02*
X-4965Y23386D01*
X-5036Y23338D01*
X-5084Y23266D01*
X-5101Y23182D01*
X-5084Y23097D01*
X-5036Y23026D01*
X-4965Y22978D01*
X-4880Y22961D01*
X-4796Y22978D01*
X-4724Y23026D01*
X-4676Y23097D01*
X-4659Y23182D01*
X-4676Y23266D01*
X-4724Y23338D01*
X-4796Y23386D01*
X-4880Y23402D01*
D02*
G37*
G36*
X-6425Y23608D02*
X-6509Y23591D01*
X-6581Y23543D01*
X-6629Y23471D01*
X-6646Y23387D01*
X-6629Y23302D01*
X-6581Y23231D01*
X-6509Y23183D01*
X-6425Y23166D01*
X-6341Y23183D01*
X-6269Y23231D01*
X-6221Y23302D01*
X-6204Y23387D01*
X-6221Y23471D01*
X-6269Y23543D01*
X-6341Y23591D01*
X-6425Y23608D01*
D02*
G37*
G36*
X-8130Y22942D02*
X-8215Y22926D01*
X-8286Y22878D01*
X-8334Y22806D01*
X-8351Y22722D01*
X-8334Y22637D01*
X-8286Y22566D01*
X-8215Y22518D01*
X-8130Y22501D01*
X-8046Y22518D01*
X-7974Y22566D01*
X-7926Y22637D01*
X-7909Y22722D01*
X-7926Y22806D01*
X-7974Y22878D01*
X-8046Y22926D01*
X-8130Y22942D01*
D02*
G37*
G36*
X-9580Y23322D02*
X-9665Y23306D01*
X-9736Y23258D01*
X-9784Y23186D01*
X-9801Y23102D01*
X-9784Y23017D01*
X-9736Y22946D01*
X-9665Y22898D01*
X-9580Y22881D01*
X-9496Y22898D01*
X-9424Y22946D01*
X-9376Y23017D01*
X-9359Y23102D01*
X-9376Y23186D01*
X-9424Y23258D01*
X-9496Y23306D01*
X-9580Y23322D01*
D02*
G37*
G36*
X-7240Y20982D02*
X-7325Y20966D01*
X-7396Y20918D01*
X-7444Y20846D01*
X-7461Y20762D01*
X-7444Y20677D01*
X-7396Y20606D01*
X-7325Y20558D01*
X-7240Y20541D01*
X-7156Y20558D01*
X-7084Y20606D01*
X-7036Y20677D01*
X-7019Y20762D01*
X-7036Y20846D01*
X-7084Y20918D01*
X-7156Y20966D01*
X-7240Y20982D01*
D02*
G37*
G36*
X-33855Y18487D02*
X-33940Y18471D01*
X-34011Y18423D01*
X-34059Y18351D01*
X-34076Y18267D01*
X-34059Y18182D01*
X-34011Y18111D01*
X-33940Y18063D01*
X-33855Y18046D01*
X-33771Y18063D01*
X-33699Y18111D01*
X-33651Y18182D01*
X-33634Y18267D01*
X-33651Y18351D01*
X-33699Y18423D01*
X-33771Y18471D01*
X-33855Y18487D01*
D02*
G37*
G36*
X-30530Y20732D02*
X-30615Y20716D01*
X-30686Y20668D01*
X-30734Y20596D01*
X-30751Y20512D01*
X-30734Y20427D01*
X-30686Y20356D01*
X-30615Y20308D01*
X-30581Y20301D01*
X-30573Y20287D01*
X-30564Y20247D01*
X-30604Y20186D01*
X-30621Y20102D01*
X-30604Y20017D01*
X-30556Y19946D01*
X-30485Y19898D01*
X-30430Y19887D01*
X-30404Y19836D01*
X-30404Y19835D01*
X-30421Y19752D01*
X-30404Y19667D01*
X-30356Y19596D01*
X-30285Y19548D01*
X-30200Y19531D01*
X-30149Y19541D01*
X-30109Y19508D01*
X-30104Y19500D01*
X-30091Y19436D01*
X-30052Y19378D01*
X-29994Y19339D01*
X-29924Y19325D01*
X-29855Y19339D01*
X-29797Y19378D01*
X-29758Y19436D01*
X-29744Y19505D01*
X-29758Y19575D01*
X-29797Y19633D01*
X-29855Y19672D01*
X-29924Y19686D01*
X-29942Y19683D01*
X-29985Y19725D01*
X-29979Y19752D01*
X-29996Y19836D01*
X-30044Y19908D01*
X-30116Y19956D01*
X-30170Y19966D01*
X-30196Y20017D01*
X-30196Y20019D01*
X-30179Y20102D01*
X-30196Y20186D01*
X-30244Y20258D01*
X-30316Y20306D01*
X-30349Y20312D01*
X-30357Y20327D01*
X-30366Y20367D01*
X-30326Y20427D01*
X-30309Y20512D01*
X-30326Y20596D01*
X-30374Y20668D01*
X-30446Y20716D01*
X-30530Y20732D01*
D02*
G37*
G36*
X-33855Y17535D02*
X-33940Y17518D01*
X-34011Y17470D01*
X-34059Y17398D01*
X-34076Y17314D01*
X-34059Y17229D01*
X-34011Y17158D01*
X-34000Y17150D01*
Y17100D01*
X-34011Y17093D01*
X-34059Y17021D01*
X-34076Y16937D01*
X-34059Y16852D01*
X-34011Y16781D01*
X-33940Y16733D01*
X-33855Y16716D01*
X-33771Y16733D01*
X-33699Y16781D01*
X-33651Y16852D01*
X-33634Y16937D01*
X-33651Y17021D01*
X-33699Y17093D01*
X-33710Y17100D01*
Y17150D01*
X-33699Y17158D01*
X-33651Y17229D01*
X-33634Y17314D01*
X-33651Y17398D01*
X-33699Y17470D01*
X-33771Y17518D01*
X-33855Y17535D01*
D02*
G37*
G36*
X-2323Y17495D02*
X-2407Y17478D01*
X-2479Y17430D01*
X-2527Y17359D01*
X-2544Y17274D01*
X-2527Y17190D01*
X-2479Y17118D01*
X-2407Y17070D01*
X-2323Y17054D01*
X-2238Y17070D01*
X-2167Y17118D01*
X-2119Y17190D01*
X-2102Y17274D01*
X-2119Y17359D01*
X-2167Y17430D01*
X-2238Y17478D01*
X-2323Y17495D01*
D02*
G37*
G36*
X-29310Y20582D02*
X-29379Y20569D01*
X-29438Y20529D01*
X-29477Y20471D01*
X-29491Y20402D01*
X-29477Y20333D01*
X-29438Y20274D01*
X-29379Y20235D01*
X-29310Y20221D01*
X-29241Y20235D01*
X-29182Y20274D01*
X-29143Y20333D01*
X-29129Y20402D01*
X-29143Y20471D01*
X-29182Y20529D01*
X-29241Y20569D01*
X-29310Y20582D01*
D02*
G37*
G36*
X-34116Y20862D02*
X-34200Y20846D01*
X-34272Y20798D01*
X-34320Y20726D01*
X-34337Y20642D01*
X-34320Y20557D01*
X-34272Y20486D01*
X-34200Y20438D01*
X-34116Y20421D01*
X-34031Y20438D01*
X-33960Y20486D01*
X-33912Y20557D01*
X-33895Y20642D01*
X-33912Y20726D01*
X-33960Y20798D01*
X-34031Y20846D01*
X-34116Y20862D01*
D02*
G37*
G36*
X-5150Y19940D02*
X-5235Y19924D01*
X-5306Y19876D01*
X-5354Y19804D01*
X-5371Y19720D01*
X-5354Y19635D01*
X-5306Y19564D01*
X-5235Y19516D01*
X-5150Y19499D01*
X-5066Y19516D01*
X-4994Y19564D01*
X-4946Y19635D01*
X-4929Y19720D01*
X-4946Y19804D01*
X-4994Y19876D01*
X-5066Y19924D01*
X-5150Y19940D01*
D02*
G37*
G36*
X-5490Y20602D02*
X-5575Y20586D01*
X-5646Y20538D01*
X-5694Y20466D01*
X-5711Y20382D01*
X-5694Y20297D01*
X-5646Y20226D01*
X-5575Y20178D01*
X-5490Y20161D01*
X-5406Y20178D01*
X-5334Y20226D01*
X-5286Y20297D01*
X-5269Y20382D01*
X-5286Y20466D01*
X-5334Y20538D01*
X-5406Y20586D01*
X-5490Y20602D01*
D02*
G37*
G36*
X-13330Y4922D02*
X-13415Y4906D01*
X-13455Y4879D01*
X-13496Y4906D01*
X-13580Y4922D01*
X-13665Y4906D01*
X-13705Y4879D01*
X-13746Y4906D01*
X-13830Y4922D01*
X-13915Y4906D01*
X-13986Y4858D01*
X-14034Y4786D01*
X-14051Y4702D01*
X-14034Y4617D01*
X-14007Y4577D01*
X-14034Y4536D01*
X-14051Y4452D01*
X-14034Y4367D01*
X-13986Y4296D01*
X-13915Y4248D01*
X-13830Y4231D01*
X-13746Y4248D01*
X-13705Y4275D01*
X-13665Y4248D01*
X-13580Y4231D01*
X-13496Y4248D01*
X-13455Y4275D01*
X-13415Y4248D01*
X-13330Y4231D01*
X-13246Y4248D01*
X-13174Y4296D01*
X-13126Y4367D01*
X-13109Y4452D01*
X-13126Y4536D01*
X-13153Y4577D01*
X-13126Y4617D01*
X-13109Y4702D01*
X-13126Y4786D01*
X-13174Y4858D01*
X-13246Y4906D01*
X-13330Y4922D01*
D02*
G37*
G36*
X-4540Y5402D02*
X-4625Y5386D01*
X-4696Y5338D01*
X-4744Y5266D01*
X-4761Y5182D01*
X-4744Y5097D01*
X-4696Y5026D01*
X-4625Y4978D01*
X-4540Y4961D01*
X-4456Y4978D01*
X-4384Y5026D01*
X-4336Y5097D01*
X-4319Y5182D01*
X-4336Y5266D01*
X-4384Y5338D01*
X-4456Y5386D01*
X-4540Y5402D01*
D02*
G37*
G36*
X-16217Y4196D02*
X-16301Y4179D01*
X-16373Y4131D01*
X-16421Y4059D01*
X-16438Y3975D01*
X-16421Y3890D01*
X-16373Y3819D01*
X-16301Y3771D01*
X-16217Y3754D01*
X-16132Y3771D01*
X-16061Y3819D01*
X-16013Y3890D01*
X-15996Y3975D01*
X-16013Y4059D01*
X-16061Y4131D01*
X-16132Y4179D01*
X-16217Y4196D01*
D02*
G37*
G36*
X-17040Y4952D02*
X-17125Y4936D01*
X-17196Y4888D01*
X-17244Y4816D01*
X-17261Y4732D01*
X-17244Y4647D01*
X-17196Y4576D01*
X-17125Y4528D01*
X-17040Y4511D01*
X-16956Y4528D01*
X-16884Y4576D01*
X-16836Y4647D01*
X-16819Y4732D01*
X-16836Y4816D01*
X-16884Y4888D01*
X-16956Y4936D01*
X-17040Y4952D01*
D02*
G37*
G36*
X-4200Y5842D02*
X-4285Y5826D01*
X-4356Y5778D01*
X-4404Y5706D01*
X-4421Y5622D01*
X-4404Y5537D01*
X-4356Y5466D01*
X-4285Y5418D01*
X-4200Y5401D01*
X-4116Y5418D01*
X-4044Y5466D01*
X-3996Y5537D01*
X-3979Y5622D01*
X-3996Y5706D01*
X-4044Y5778D01*
X-4116Y5826D01*
X-4200Y5842D01*
D02*
G37*
G36*
X-3210Y6722D02*
X-3295Y6706D01*
X-3366Y6658D01*
X-3414Y6586D01*
X-3431Y6502D01*
X-3414Y6417D01*
X-3366Y6346D01*
X-3295Y6298D01*
X-3210Y6281D01*
X-3126Y6298D01*
X-3054Y6346D01*
X-3006Y6417D01*
X-2989Y6502D01*
X-3006Y6586D01*
X-3054Y6658D01*
X-3126Y6706D01*
X-3210Y6722D01*
D02*
G37*
G36*
X-33972Y5037D02*
X-33975Y5036D01*
X-33978Y5037D01*
X-34103Y5025D01*
X-34109Y5022D01*
X-34116Y5022D01*
X-34236Y4986D01*
X-34241Y4982D01*
X-34248Y4981D01*
X-34359Y4922D01*
X-34363Y4917D01*
X-34369Y4915D01*
X-34467Y4835D01*
X-34470Y4829D01*
X-34476Y4826D01*
X-34556Y4728D01*
X-34557Y4722D01*
X-34563Y4718D01*
X-34622Y4607D01*
X-34623Y4600D01*
X-34627Y4595D01*
X-34663Y4475D01*
X-34663Y4468D01*
X-34666Y4462D01*
X-34678Y4337D01*
X-34676Y4331D01*
X-34678Y4324D01*
X-34666Y4199D01*
X-34663Y4193D01*
X-34663Y4187D01*
X-34627Y4066D01*
X-34623Y4061D01*
X-34622Y4055D01*
X-34563Y3943D01*
X-34557Y3939D01*
X-34556Y3933D01*
X-34476Y3836D01*
X-34470Y3832D01*
X-34467Y3827D01*
X-34369Y3747D01*
X-34363Y3745D01*
X-34359Y3740D01*
X-34248Y3680D01*
X-34241Y3680D01*
X-34236Y3676D01*
X-34116Y3639D01*
X-34109Y3640D01*
X-34103Y3637D01*
X-33978Y3624D01*
X-33975Y3625D01*
X-33972Y3624D01*
X-33969Y3625D01*
X-33965Y3624D01*
X-33840Y3637D01*
X-33834Y3640D01*
X-33828Y3639D01*
X-33707Y3676D01*
X-33702Y3680D01*
X-33696Y3680D01*
X-33584Y3740D01*
X-33580Y3745D01*
X-33574Y3747D01*
X-33477Y3827D01*
X-33473Y3832D01*
X-33468Y3836D01*
X-33388Y3933D01*
X-33386Y3939D01*
X-33381Y3943D01*
X-33321Y4055D01*
X-33321Y4061D01*
X-33317Y4066D01*
X-33280Y4187D01*
X-33281Y4193D01*
X-33278Y4199D01*
X-33265Y4324D01*
X-33267Y4331D01*
X-33265Y4337D01*
X-33278Y4462D01*
X-33281Y4468D01*
X-33280Y4475D01*
X-33317Y4595D01*
X-33321Y4600D01*
X-33321Y4607D01*
X-33381Y4718D01*
X-33386Y4722D01*
X-33388Y4728D01*
X-33468Y4826D01*
X-33473Y4829D01*
X-33477Y4835D01*
X-33574Y4915D01*
X-33580Y4917D01*
X-33584Y4922D01*
X-33696Y4981D01*
X-33702Y4982D01*
X-33707Y4986D01*
X-33828Y5022D01*
X-33834Y5022D01*
X-33840Y5025D01*
X-33965Y5037D01*
X-33969Y5036D01*
X-33972Y5037D01*
D02*
G37*
G36*
X-29472D02*
X-29475Y5036D01*
X-29478Y5037D01*
X-29603Y5025D01*
X-29609Y5022D01*
X-29616Y5022D01*
X-29736Y4986D01*
X-29741Y4982D01*
X-29748Y4981D01*
X-29859Y4922D01*
X-29863Y4917D01*
X-29869Y4915D01*
X-29967Y4835D01*
X-29970Y4829D01*
X-29976Y4826D01*
X-30056Y4728D01*
X-30057Y4722D01*
X-30063Y4718D01*
X-30122Y4607D01*
X-30123Y4600D01*
X-30127Y4595D01*
X-30163Y4475D01*
X-30163Y4468D01*
X-30166Y4462D01*
X-30178Y4337D01*
X-30176Y4331D01*
X-30178Y4324D01*
X-30166Y4199D01*
X-30163Y4193D01*
X-30163Y4187D01*
X-30127Y4066D01*
X-30123Y4061D01*
X-30122Y4055D01*
X-30063Y3943D01*
X-30057Y3939D01*
X-30056Y3933D01*
X-29976Y3836D01*
X-29970Y3832D01*
X-29967Y3827D01*
X-29869Y3747D01*
X-29863Y3745D01*
X-29859Y3740D01*
X-29748Y3680D01*
X-29741Y3680D01*
X-29736Y3676D01*
X-29616Y3639D01*
X-29609Y3640D01*
X-29603Y3637D01*
X-29478Y3624D01*
X-29475Y3625D01*
X-29472Y3624D01*
X-29469Y3625D01*
X-29465Y3624D01*
X-29340Y3637D01*
X-29334Y3640D01*
X-29328Y3639D01*
X-29207Y3676D01*
X-29202Y3680D01*
X-29196Y3680D01*
X-29084Y3740D01*
X-29080Y3745D01*
X-29074Y3747D01*
X-28977Y3827D01*
X-28973Y3832D01*
X-28968Y3836D01*
X-28888Y3933D01*
X-28886Y3939D01*
X-28881Y3943D01*
X-28821Y4055D01*
X-28821Y4061D01*
X-28817Y4066D01*
X-28780Y4187D01*
X-28781Y4193D01*
X-28778Y4199D01*
X-28765Y4324D01*
X-28767Y4331D01*
X-28765Y4337D01*
X-28778Y4462D01*
X-28781Y4468D01*
X-28780Y4475D01*
X-28817Y4595D01*
X-28821Y4600D01*
X-28821Y4607D01*
X-28881Y4718D01*
X-28886Y4722D01*
X-28888Y4728D01*
X-28968Y4826D01*
X-28973Y4829D01*
X-28977Y4835D01*
X-29074Y4915D01*
X-29080Y4917D01*
X-29084Y4922D01*
X-29196Y4981D01*
X-29202Y4982D01*
X-29207Y4986D01*
X-29328Y5022D01*
X-29334Y5022D01*
X-29340Y5025D01*
X-29465Y5037D01*
X-29469Y5036D01*
X-29472Y5037D01*
D02*
G37*
G36*
X-13420Y3254D02*
X-13505Y3237D01*
X-13545Y3210D01*
X-13586Y3237D01*
X-13670Y3254D01*
X-13755Y3237D01*
X-13826Y3189D01*
X-13874Y3117D01*
X-13891Y3033D01*
X-13874Y2948D01*
X-13847Y2908D01*
X-13874Y2867D01*
X-13891Y2783D01*
X-13874Y2698D01*
X-13826Y2627D01*
X-13755Y2579D01*
X-13670Y2562D01*
X-13586Y2579D01*
X-13545Y2606D01*
X-13505Y2579D01*
X-13420Y2562D01*
X-13336Y2579D01*
X-13264Y2627D01*
X-13216Y2698D01*
X-13199Y2783D01*
X-13216Y2867D01*
X-13243Y2908D01*
X-13216Y2948D01*
X-13199Y3033D01*
X-13216Y3117D01*
X-13264Y3189D01*
X-13336Y3237D01*
X-13420Y3254D01*
D02*
G37*
G36*
X-29231Y2739D02*
X-29319Y2727D01*
X-29400Y2694D01*
X-29470Y2640D01*
X-29523Y2570D01*
X-29557Y2489D01*
X-29569Y2402D01*
X-29557Y2314D01*
X-29523Y2233D01*
X-29470Y2163D01*
X-29400Y2110D01*
X-29319Y2076D01*
X-29231Y2064D01*
X-29144Y2076D01*
X-29063Y2110D01*
X-28993Y2163D01*
X-28940Y2233D01*
X-28906Y2314D01*
X-28894Y2402D01*
X-28906Y2489D01*
X-28940Y2570D01*
X-28993Y2640D01*
X-29063Y2694D01*
X-29144Y2727D01*
X-29231Y2739D01*
D02*
G37*
G36*
X-34212Y3337D02*
X-34299Y3326D01*
X-34380Y3292D01*
X-34450Y3238D01*
X-34504Y3169D01*
X-34537Y3087D01*
X-34549Y3000D01*
X-34537Y2913D01*
X-34504Y2831D01*
X-34450Y2762D01*
X-34380Y2708D01*
X-34299Y2674D01*
X-34212Y2663D01*
X-34125Y2674D01*
X-34043Y2708D01*
X-33973Y2762D01*
X-33920Y2831D01*
X-33886Y2913D01*
X-33875Y3000D01*
X-33886Y3087D01*
X-33920Y3169D01*
X-33973Y3238D01*
X-34043Y3292D01*
X-34125Y3326D01*
X-34212Y3337D01*
D02*
G37*
G36*
X-17200Y2492D02*
X-17285Y2476D01*
X-17356Y2428D01*
X-17404Y2356D01*
X-17421Y2272D01*
X-17404Y2187D01*
X-17356Y2116D01*
X-17285Y2068D01*
X-17200Y2051D01*
X-17116Y2068D01*
X-17044Y2116D01*
X-16996Y2187D01*
X-16979Y2272D01*
X-16996Y2356D01*
X-17044Y2428D01*
X-17116Y2476D01*
X-17200Y2492D01*
D02*
G37*
G36*
X-33212Y2739D02*
X-33299Y2727D01*
X-33380Y2694D01*
X-33450Y2640D01*
X-33504Y2570D01*
X-33537Y2489D01*
X-33549Y2402D01*
X-33537Y2314D01*
X-33504Y2233D01*
X-33450Y2163D01*
X-33380Y2110D01*
X-33299Y2076D01*
X-33212Y2064D01*
X-33125Y2076D01*
X-33043Y2110D01*
X-32973Y2163D01*
X-32920Y2233D01*
X-32886Y2314D01*
X-32875Y2402D01*
X-32886Y2489D01*
X-32920Y2570D01*
X-32973Y2640D01*
X-33043Y2694D01*
X-33125Y2727D01*
X-33212Y2739D01*
D02*
G37*
G36*
X-1969Y2675D02*
X-1972Y2674D01*
X-1975Y2675D01*
X-2100Y2663D01*
X-2106Y2660D01*
X-2112Y2660D01*
X-2233Y2624D01*
X-2238Y2619D01*
X-2245Y2619D01*
X-2356Y2559D01*
X-2360Y2554D01*
X-2366Y2552D01*
X-2464Y2472D01*
X-2467Y2467D01*
X-2472Y2464D01*
X-2552Y2366D01*
X-2554Y2360D01*
X-2559Y2356D01*
X-2619Y2245D01*
X-2619Y2238D01*
X-2624Y2233D01*
X-2660Y2112D01*
X-2660Y2106D01*
X-2663Y2100D01*
X-2675Y1975D01*
X-2673Y1969D01*
X-2675Y1962D01*
X-2663Y1837D01*
X-2660Y1831D01*
X-2660Y1825D01*
X-2624Y1704D01*
X-2619Y1699D01*
X-2619Y1692D01*
X-2559Y1581D01*
X-2554Y1577D01*
X-2552Y1571D01*
X-2472Y1473D01*
X-2467Y1470D01*
X-2464Y1465D01*
X-2366Y1385D01*
X-2360Y1383D01*
X-2356Y1378D01*
X-2245Y1318D01*
X-2238Y1318D01*
X-2233Y1313D01*
X-2112Y1277D01*
X-2106Y1277D01*
X-2100Y1274D01*
X-1975Y1262D01*
X-1972Y1263D01*
X-1969Y1262D01*
X-1965Y1263D01*
X-1962Y1262D01*
X-1837Y1274D01*
X-1831Y1277D01*
X-1825Y1277D01*
X-1704Y1313D01*
X-1699Y1318D01*
X-1692Y1318D01*
X-1581Y1378D01*
X-1577Y1383D01*
X-1571Y1385D01*
X-1473Y1465D01*
X-1470Y1470D01*
X-1465Y1473D01*
X-1385Y1571D01*
X-1383Y1577D01*
X-1378Y1581D01*
X-1318Y1692D01*
X-1318Y1699D01*
X-1313Y1704D01*
X-1277Y1825D01*
X-1277Y1831D01*
X-1274Y1837D01*
X-1262Y1962D01*
X-1264Y1969D01*
X-1262Y1975D01*
X-1274Y2100D01*
X-1277Y2106D01*
X-1277Y2112D01*
X-1313Y2233D01*
X-1318Y2238D01*
X-1318Y2245D01*
X-1378Y2356D01*
X-1383Y2360D01*
X-1385Y2366D01*
X-1465Y2464D01*
X-1470Y2467D01*
X-1473Y2472D01*
X-1571Y2552D01*
X-1577Y2554D01*
X-1581Y2559D01*
X-1692Y2619D01*
X-1699Y2619D01*
X-1704Y2624D01*
X-1825Y2660D01*
X-1831Y2660D01*
X-1837Y2663D01*
X-1962Y2675D01*
X-1965Y2674D01*
X-1969Y2675D01*
D02*
G37*
G36*
X-15220Y3244D02*
X-15305Y3227D01*
X-15345Y3200D01*
X-15386Y3227D01*
X-15470Y3244D01*
X-15555Y3227D01*
X-15626Y3179D01*
X-15674Y3107D01*
X-15691Y3023D01*
X-15674Y2938D01*
X-15647Y2898D01*
X-15674Y2857D01*
X-15691Y2773D01*
X-15674Y2688D01*
X-15626Y2617D01*
X-15555Y2569D01*
X-15470Y2552D01*
X-15386Y2569D01*
X-15345Y2596D01*
X-15305Y2569D01*
X-15220Y2552D01*
X-15136Y2569D01*
X-15064Y2617D01*
X-15016Y2688D01*
X-14999Y2773D01*
X-15016Y2857D01*
X-15043Y2898D01*
X-15016Y2938D01*
X-14999Y3023D01*
X-15016Y3107D01*
X-15064Y3179D01*
X-15136Y3227D01*
X-15220Y3244D01*
D02*
G37*
G36*
X-30231Y3337D02*
X-30319Y3326D01*
X-30400Y3292D01*
X-30470Y3238D01*
X-30523Y3169D01*
X-30557Y3087D01*
X-30569Y3000D01*
X-30557Y2913D01*
X-30523Y2831D01*
X-30470Y2762D01*
X-30400Y2708D01*
X-30319Y2674D01*
X-30231Y2663D01*
X-30144Y2674D01*
X-30063Y2708D01*
X-29993Y2762D01*
X-29940Y2831D01*
X-29906Y2913D01*
X-29894Y3000D01*
X-29906Y3087D01*
X-29940Y3169D01*
X-29993Y3238D01*
X-30063Y3292D01*
X-30144Y3326D01*
X-30231Y3337D01*
D02*
G37*
G36*
X-37402Y2675D02*
X-37405Y2674D01*
X-37408Y2675D01*
X-37533Y2663D01*
X-37539Y2660D01*
X-37546Y2660D01*
X-37666Y2624D01*
X-37671Y2619D01*
X-37678Y2619D01*
X-37789Y2559D01*
X-37793Y2554D01*
X-37799Y2552D01*
X-37897Y2472D01*
X-37900Y2467D01*
X-37906Y2464D01*
X-37985Y2366D01*
X-37987Y2360D01*
X-37992Y2356D01*
X-38052Y2245D01*
X-38053Y2238D01*
X-38057Y2233D01*
X-38093Y2112D01*
X-38093Y2106D01*
X-38096Y2100D01*
X-38108Y1975D01*
X-38106Y1969D01*
X-38108Y1962D01*
X-38096Y1837D01*
X-38093Y1831D01*
X-38093Y1825D01*
X-38057Y1704D01*
X-38053Y1699D01*
X-38052Y1692D01*
X-37992Y1581D01*
X-37987Y1577D01*
X-37985Y1571D01*
X-37906Y1473D01*
X-37900Y1470D01*
X-37897Y1465D01*
X-37799Y1385D01*
X-37793Y1383D01*
X-37789Y1378D01*
X-37678Y1318D01*
X-37671Y1318D01*
X-37666Y1313D01*
X-37546Y1277D01*
X-37539Y1277D01*
X-37533Y1274D01*
X-37408Y1262D01*
X-37405Y1263D01*
X-37402Y1262D01*
X-37399Y1263D01*
X-37395Y1262D01*
X-37270Y1274D01*
X-37264Y1277D01*
X-37258Y1277D01*
X-37137Y1313D01*
X-37132Y1318D01*
X-37125Y1318D01*
X-37014Y1378D01*
X-37010Y1383D01*
X-37004Y1385D01*
X-36906Y1465D01*
X-36903Y1470D01*
X-36898Y1473D01*
X-36818Y1571D01*
X-36816Y1577D01*
X-36811Y1581D01*
X-36751Y1692D01*
X-36751Y1699D01*
X-36746Y1704D01*
X-36710Y1825D01*
X-36711Y1831D01*
X-36707Y1837D01*
X-36695Y1962D01*
X-36697Y1969D01*
X-36695Y1975D01*
X-36707Y2100D01*
X-36711Y2106D01*
X-36710Y2112D01*
X-36746Y2233D01*
X-36751Y2238D01*
X-36751Y2245D01*
X-36811Y2356D01*
X-36816Y2360D01*
X-36818Y2366D01*
X-36898Y2464D01*
X-36903Y2467D01*
X-36906Y2472D01*
X-37004Y2552D01*
X-37010Y2554D01*
X-37014Y2559D01*
X-37125Y2619D01*
X-37132Y2619D01*
X-37137Y2624D01*
X-37258Y2660D01*
X-37264Y2660D01*
X-37270Y2663D01*
X-37395Y2675D01*
X-37399Y2674D01*
X-37402Y2675D01*
D02*
G37*
G36*
X-6809Y6852D02*
X-6894Y6835D01*
X-6966Y6787D01*
X-7013Y6716D01*
X-7030Y6631D01*
X-7013Y6547D01*
X-6966Y6475D01*
X-6894Y6427D01*
X-6809Y6410D01*
X-6725Y6427D01*
X-6653Y6475D01*
X-6605Y6547D01*
X-6589Y6631D01*
X-6605Y6716D01*
X-6653Y6787D01*
X-6725Y6835D01*
X-6809Y6852D01*
D02*
G37*
G36*
X-29700Y8031D02*
X-29769Y8017D01*
X-29828Y7978D01*
X-29867Y7919D01*
X-29881Y7850D01*
X-29867Y7781D01*
X-29828Y7722D01*
X-29769Y7683D01*
X-29700Y7669D01*
X-29631Y7683D01*
X-29572Y7722D01*
X-29533Y7781D01*
X-29519Y7850D01*
X-29533Y7919D01*
X-29572Y7978D01*
X-29631Y8017D01*
X-29700Y8031D01*
D02*
G37*
G36*
X-31620Y8652D02*
X-31689Y8639D01*
X-31748Y8599D01*
X-31787Y8541D01*
X-31801Y8472D01*
X-31787Y8403D01*
X-31748Y8344D01*
X-31689Y8305D01*
X-31620Y8291D01*
X-31551Y8305D01*
X-31492Y8344D01*
X-31453Y8403D01*
X-31439Y8472D01*
X-31453Y8541D01*
X-31492Y8599D01*
X-31551Y8639D01*
X-31620Y8652D01*
D02*
G37*
G36*
X-30470Y8166D02*
X-30557Y8154D01*
X-30639Y8120D01*
X-30709Y8067D01*
X-30763Y7996D01*
X-30797Y7915D01*
X-30809Y7827D01*
X-30797Y7739D01*
X-30763Y7657D01*
X-30709Y7587D01*
X-30639Y7533D01*
X-30557Y7499D01*
X-30470Y7488D01*
X-30382Y7499D01*
X-30300Y7533D01*
X-30230Y7587D01*
X-30176Y7657D01*
X-30142Y7739D01*
X-30131Y7827D01*
X-30142Y7915D01*
X-30176Y7996D01*
X-30230Y8067D01*
X-30300Y8120D01*
X-30382Y8154D01*
X-30470Y8166D01*
D02*
G37*
G36*
X-6900Y8002D02*
X-6985Y7986D01*
X-7056Y7938D01*
X-7104Y7866D01*
X-7121Y7782D01*
X-7104Y7697D01*
X-7056Y7626D01*
X-6985Y7578D01*
X-6900Y7561D01*
X-6816Y7578D01*
X-6744Y7626D01*
X-6696Y7697D01*
X-6679Y7782D01*
X-6696Y7866D01*
X-6744Y7938D01*
X-6816Y7986D01*
X-6900Y8002D01*
D02*
G37*
G36*
X-32500Y11607D02*
X-32585Y11590D01*
X-32656Y11542D01*
X-32704Y11471D01*
X-32721Y11386D01*
X-32704Y11302D01*
X-32656Y11230D01*
X-32585Y11182D01*
X-32500Y11166D01*
X-32416Y11182D01*
X-32344Y11230D01*
X-32296Y11302D01*
X-32279Y11386D01*
X-32296Y11471D01*
X-32344Y11542D01*
X-32416Y11590D01*
X-32500Y11607D01*
D02*
G37*
G36*
X-33070Y13749D02*
X-33147Y13739D01*
X-33219Y13710D01*
X-33281Y13662D01*
X-33396Y13547D01*
X-33443Y13486D01*
X-33473Y13414D01*
X-33483Y13337D01*
Y11147D01*
X-33473Y11070D01*
X-33443Y10998D01*
X-33396Y10936D01*
X-33334Y10889D01*
X-33262Y10859D01*
X-33185Y10849D01*
X-33108Y10859D01*
X-33036Y10889D01*
X-32974Y10936D01*
X-32927Y10998D01*
X-32897Y11070D01*
X-32887Y11147D01*
Y12838D01*
X-32841Y12858D01*
X-32683Y12699D01*
X-32629Y12658D01*
X-32567Y12632D01*
X-32500Y12624D01*
X-31308D01*
Y12432D01*
X-31299Y12365D01*
X-31274Y12303D01*
X-31233Y12249D01*
X-30828Y11845D01*
Y11646D01*
X-30872Y11622D01*
X-30886Y11631D01*
X-30970Y11648D01*
X-31055Y11631D01*
X-31126Y11583D01*
X-31174Y11511D01*
X-31191Y11427D01*
X-31174Y11343D01*
X-31126Y11271D01*
X-31055Y11223D01*
X-30970Y11206D01*
X-30936Y11213D01*
X-30897Y11170D01*
X-30890Y11115D01*
X-30864Y11052D01*
X-30823Y10999D01*
X-30769Y10958D01*
X-30707Y10932D01*
X-30640Y10923D01*
X-30574Y10932D01*
X-30511Y10958D01*
X-30458Y10999D01*
X-30388Y11069D01*
X-30347Y11123D01*
X-30321Y11185D01*
X-30312Y11252D01*
Y11952D01*
X-30321Y12018D01*
X-30347Y12081D01*
X-30388Y12134D01*
X-30792Y12539D01*
Y12659D01*
X-30742Y12686D01*
X-30715Y12668D01*
X-30630Y12651D01*
X-30546Y12668D01*
X-30474Y12716D01*
X-30426Y12787D01*
X-30409Y12872D01*
X-30426Y12956D01*
X-30474Y13028D01*
X-30546Y13076D01*
X-30630Y13092D01*
X-30715Y13076D01*
X-30781Y13031D01*
X-30788Y13028D01*
X-30843Y13032D01*
X-30868Y13064D01*
X-30921Y13105D01*
X-30983Y13131D01*
X-31050Y13140D01*
X-32393D01*
X-32783Y13529D01*
X-32812Y13601D01*
X-32859Y13662D01*
X-32921Y13710D01*
X-32993Y13739D01*
X-33070Y13749D01*
D02*
G37*
G36*
X-6475Y10947D02*
X-6560Y10930D01*
X-6632Y10882D01*
X-6679Y10811D01*
X-6696Y10726D01*
X-6679Y10642D01*
X-6632Y10570D01*
X-6560Y10522D01*
X-6475Y10506D01*
X-6391Y10522D01*
X-6319Y10570D01*
X-6271Y10642D01*
X-6255Y10726D01*
X-6271Y10811D01*
X-6319Y10882D01*
X-6391Y10930D01*
X-6475Y10947D01*
D02*
G37*
G36*
X-30040Y11343D02*
X-30125Y11326D01*
X-30197Y11278D01*
X-30244Y11206D01*
X-30261Y11122D01*
X-30244Y11037D01*
X-30197Y10966D01*
X-30125Y10918D01*
X-30040Y10901D01*
X-29956Y10918D01*
X-29884Y10966D01*
X-29836Y11037D01*
X-29820Y11122D01*
X-29836Y11206D01*
X-29884Y11278D01*
X-29956Y11326D01*
X-30040Y11343D01*
D02*
G37*
G36*
X-31474Y8166D02*
X-31561Y8154D01*
X-31643Y8120D01*
X-31713Y8067D01*
X-31767Y7996D01*
X-31801Y7915D01*
X-31813Y7827D01*
X-31801Y7739D01*
X-31767Y7657D01*
X-31713Y7587D01*
X-31643Y7533D01*
X-31561Y7499D01*
X-31474Y7488D01*
X-31386Y7499D01*
X-31304Y7533D01*
X-31234Y7587D01*
X-31180Y7657D01*
X-31146Y7739D01*
X-31135Y7827D01*
X-31146Y7915D01*
X-31180Y7996D01*
X-31234Y8067D01*
X-31304Y8120D01*
X-31386Y8154D01*
X-31474Y8166D01*
D02*
G37*
G36*
X-31974Y7166D02*
X-32061Y7154D01*
X-32143Y7120D01*
X-32213Y7067D01*
X-32267Y6996D01*
X-32301Y6915D01*
X-32313Y6827D01*
X-32301Y6739D01*
X-32267Y6657D01*
X-32213Y6587D01*
X-32143Y6533D01*
X-32061Y6499D01*
X-31974Y6488D01*
X-31886Y6499D01*
X-31804Y6533D01*
X-31734Y6587D01*
X-31680Y6657D01*
X-31646Y6739D01*
X-31635Y6827D01*
X-31646Y6915D01*
X-31680Y6996D01*
X-31734Y7067D01*
X-31804Y7120D01*
X-31886Y7154D01*
X-31974Y7166D01*
D02*
G37*
G36*
X-30970D02*
X-31057Y7154D01*
X-31139Y7120D01*
X-31209Y7067D01*
X-31263Y6996D01*
X-31297Y6915D01*
X-31309Y6827D01*
X-31297Y6739D01*
X-31263Y6657D01*
X-31209Y6587D01*
X-31139Y6533D01*
X-31057Y6499D01*
X-30970Y6488D01*
X-30882Y6499D01*
X-30800Y6533D01*
X-30730Y6587D01*
X-30676Y6657D01*
X-30642Y6739D01*
X-30631Y6827D01*
X-30642Y6915D01*
X-30676Y6996D01*
X-30730Y7067D01*
X-30800Y7120D01*
X-30882Y7154D01*
X-30970Y7166D01*
D02*
G37*
G36*
X-29693Y7168D02*
X-30247D01*
X-30292Y7149D01*
X-30311Y7104D01*
Y6550D01*
X-30292Y6504D01*
X-30247Y6486D01*
X-29693D01*
X-29647Y6504D01*
X-29629Y6550D01*
Y7104D01*
X-29647Y7149D01*
X-29693Y7168D01*
D02*
G37*
G36*
X-32974Y7166D02*
X-33061Y7154D01*
X-33143Y7120D01*
X-33213Y7067D01*
X-33267Y6996D01*
X-33301Y6915D01*
X-33313Y6827D01*
X-33301Y6739D01*
X-33267Y6657D01*
X-33213Y6587D01*
X-33143Y6533D01*
X-33061Y6499D01*
X-32974Y6488D01*
X-32886Y6499D01*
X-32804Y6533D01*
X-32734Y6587D01*
X-32680Y6657D01*
X-32646Y6739D01*
X-32634Y6827D01*
X-32646Y6915D01*
X-32680Y6996D01*
X-32734Y7067D01*
X-32804Y7120D01*
X-32886Y7154D01*
X-32974Y7166D01*
D02*
G37*
G36*
X-10970Y23172D02*
X-28450Y23172D01*
X-28450Y6065D01*
X-28492Y6037D01*
X-28522Y6049D01*
X-28661Y6068D01*
X-28799Y6049D01*
X-28929Y5996D01*
X-29015Y5929D01*
X-34428D01*
X-34485Y5973D01*
Y6494D01*
X-33489Y7490D01*
X-33474Y7488D01*
X-33386Y7499D01*
X-33304Y7533D01*
X-33234Y7587D01*
X-33180Y7657D01*
X-33146Y7739D01*
X-33135Y7827D01*
X-33146Y7915D01*
X-33180Y7996D01*
X-33186Y8005D01*
X-33216Y8076D01*
X-33263Y8137D01*
X-33325Y8185D01*
X-33397Y8214D01*
X-33474Y8225D01*
X-33551Y8214D01*
X-33623Y8185D01*
X-33684Y8137D01*
X-34993Y6828D01*
X-35041Y6767D01*
X-35070Y6695D01*
X-35080Y6618D01*
Y5973D01*
X-35162Y5911D01*
X-35247Y5800D01*
X-35300Y5670D01*
X-35319Y5531D01*
X-35300Y5393D01*
X-35247Y5263D01*
X-35162Y5152D01*
X-35051Y5067D01*
X-34921Y5014D01*
X-34783Y4995D01*
X-34644Y5014D01*
X-34515Y5067D01*
X-34404Y5152D01*
X-34318Y5263D01*
X-34289Y5334D01*
X-29154D01*
X-29125Y5263D01*
X-29040Y5152D01*
X-28929Y5067D01*
X-28799Y5014D01*
X-28661Y4995D01*
X-28522Y5014D01*
X-28393Y5067D01*
X-28282Y5152D01*
X-28196Y5263D01*
X-28151Y5373D01*
X-27347D01*
X-22733Y759D01*
X-22679Y718D01*
X-22617Y692D01*
X-22550Y684D01*
X-8680D01*
X-8613Y692D01*
X-8551Y718D01*
X-8498Y759D01*
X-5842Y3415D01*
X-5540D01*
X-5473Y3424D01*
X-5411Y3450D01*
X-5358Y3491D01*
X-5334Y3522D01*
X-4856D01*
X-4812Y3464D01*
X-4750Y3416D01*
X-4678Y3387D01*
X-4601Y3377D01*
X-4365D01*
X-4288Y3387D01*
X-4216Y3416D01*
X-4155Y3464D01*
X-4110Y3522D01*
X-3889D01*
X-3889Y3522D01*
X-3831Y3533D01*
X-3782Y3566D01*
X-3323Y4025D01*
X-3290Y4074D01*
X-3279Y4132D01*
X-3279Y4132D01*
Y4254D01*
X-3252D01*
X-3175Y4264D01*
X-3103Y4294D01*
X-3041Y4341D01*
X-2994Y4403D01*
X-2964Y4475D01*
X-2954Y4552D01*
X-2964Y4629D01*
X-2994Y4701D01*
X-3041Y4762D01*
X-3103Y4810D01*
X-3175Y4839D01*
X-3252Y4849D01*
X-3488D01*
X-3565Y4839D01*
X-3637Y4810D01*
X-3699Y4762D01*
X-3746Y4701D01*
X-3776Y4629D01*
X-3786Y4552D01*
X-3776Y4475D01*
X-3746Y4403D01*
X-3699Y4341D01*
X-3637Y4294D01*
X-3581Y4271D01*
Y4194D01*
X-3951Y3824D01*
X-4108D01*
X-4155Y3885D01*
X-4216Y3932D01*
X-4288Y3962D01*
X-4365Y3972D01*
X-4601D01*
X-4678Y3962D01*
X-4750Y3932D01*
X-4812Y3885D01*
X-4858Y3824D01*
X-5334D01*
X-5334Y3825D01*
Y4287D01*
X-5319Y4294D01*
X-5257Y4341D01*
X-5210Y4403D01*
X-5180Y4475D01*
X-5170Y4552D01*
X-5180Y4629D01*
X-5210Y4701D01*
X-5257Y4762D01*
X-5319Y4810D01*
X-5390Y4839D01*
X-5467Y4849D01*
X-5704D01*
X-5781Y4839D01*
X-5853Y4810D01*
X-5914Y4762D01*
X-5962Y4701D01*
X-5991Y4629D01*
X-6002Y4552D01*
X-5991Y4475D01*
X-5962Y4403D01*
X-5914Y4341D01*
X-5853Y4294D01*
X-5781Y4264D01*
X-5704Y4254D01*
X-5637D01*
Y3931D01*
X-5949D01*
X-6015Y3922D01*
X-6078Y3897D01*
X-6131Y3856D01*
X-8787Y1200D01*
X-22443D01*
X-27025Y5782D01*
X-27005Y5832D01*
X-22675D01*
X-22658Y5782D01*
X-22688Y5759D01*
X-22754Y5672D01*
X-22796Y5572D01*
X-22810Y5464D01*
X-22796Y5356D01*
X-22754Y5255D01*
X-22688Y5169D01*
X-22601Y5103D01*
X-22501Y5061D01*
X-22393Y5047D01*
X-21330D01*
X-21222Y5061D01*
X-21121Y5103D01*
X-21035Y5169D01*
X-20969Y5255D01*
X-20927Y5356D01*
X-20913Y5464D01*
X-20927Y5572D01*
X-20969Y5672D01*
X-21035Y5759D01*
X-21065Y5782D01*
X-21048Y5832D01*
X-10970D01*
X-10970Y23172D01*
D02*
G37*
G36*
X-32474Y8166D02*
X-32561Y8154D01*
X-32643Y8120D01*
X-32713Y8067D01*
X-32767Y7996D01*
X-32801Y7915D01*
X-32813Y7827D01*
X-32801Y7739D01*
X-32767Y7657D01*
X-32713Y7587D01*
X-32643Y7533D01*
X-32561Y7499D01*
X-32474Y7488D01*
X-32386Y7499D01*
X-32304Y7533D01*
X-32234Y7587D01*
X-32180Y7657D01*
X-32146Y7739D01*
X-32134Y7827D01*
X-32146Y7915D01*
X-32180Y7996D01*
X-32234Y8067D01*
X-32304Y8120D01*
X-32386Y8154D01*
X-32474Y8166D01*
D02*
G37*
G36*
X-1870Y6972D02*
X-1955Y6956D01*
X-2026Y6908D01*
X-2074Y6836D01*
X-2091Y6752D01*
X-2074Y6667D01*
X-2026Y6596D01*
X-1955Y6548D01*
X-1870Y6531D01*
X-1786Y6548D01*
X-1714Y6596D01*
X-1666Y6667D01*
X-1649Y6752D01*
X-1666Y6836D01*
X-1714Y6908D01*
X-1786Y6956D01*
X-1870Y6972D01*
D02*
G37*
G36*
X-4810Y7452D02*
X-4895Y7436D01*
X-4966Y7388D01*
X-5014Y7316D01*
X-5031Y7232D01*
X-5014Y7147D01*
X-4966Y7076D01*
X-4895Y7028D01*
X-4810Y7011D01*
X-4726Y7028D01*
X-4654Y7076D01*
X-4606Y7147D01*
X-4589Y7232D01*
X-4606Y7316D01*
X-4654Y7388D01*
X-4726Y7436D01*
X-4810Y7452D01*
D02*
G37*
G36*
X-30315Y25161D02*
X-30433Y25146D01*
X-30543Y25100D01*
X-30638Y25028D01*
X-30710Y24933D01*
X-30756Y24823D01*
X-30772Y24705D01*
X-30756Y24587D01*
X-30710Y24476D01*
X-30638Y24382D01*
X-30543Y24309D01*
X-30433Y24264D01*
X-30315Y24248D01*
X-30197Y24264D01*
X-30087Y24309D01*
X-29992Y24382D01*
X-29919Y24476D01*
X-29874Y24587D01*
X-29858Y24705D01*
X-29874Y24823D01*
X-29919Y24933D01*
X-29992Y25028D01*
X-30087Y25100D01*
X-30197Y25146D01*
X-30315Y25161D01*
D02*
G37*
G36*
X-1890Y35772D02*
X-1975Y35756D01*
X-2046Y35708D01*
X-2094Y35636D01*
X-2111Y35552D01*
X-2094Y35467D01*
X-2046Y35396D01*
X-1975Y35348D01*
X-1890Y35331D01*
X-1806Y35348D01*
X-1734Y35396D01*
X-1686Y35467D01*
X-1669Y35552D01*
X-1686Y35636D01*
X-1734Y35708D01*
X-1806Y35756D01*
X-1890Y35772D01*
D02*
G37*
G36*
X-2720Y36162D02*
X-2805Y36146D01*
X-2876Y36098D01*
X-2924Y36026D01*
X-2941Y35942D01*
X-2924Y35857D01*
X-2876Y35786D01*
X-2805Y35738D01*
X-2720Y35721D01*
X-2636Y35738D01*
X-2564Y35786D01*
X-2516Y35857D01*
X-2499Y35942D01*
X-2516Y36026D01*
X-2564Y36098D01*
X-2636Y36146D01*
X-2720Y36162D01*
D02*
G37*
G36*
X-6370Y35332D02*
X-6455Y35316D01*
X-6526Y35268D01*
X-6574Y35196D01*
X-6580Y35167D01*
X-6633Y35156D01*
X-6634Y35158D01*
X-6706Y35206D01*
X-6790Y35222D01*
X-6875Y35206D01*
X-6946Y35158D01*
X-6967Y35127D01*
X-7027D01*
X-7034Y35138D01*
X-7106Y35186D01*
X-7190Y35202D01*
X-7275Y35186D01*
X-7346Y35138D01*
X-7394Y35066D01*
X-7411Y34982D01*
X-7394Y34897D01*
X-7346Y34826D01*
X-7275Y34778D01*
X-7190Y34761D01*
X-7106Y34778D01*
X-7034Y34826D01*
X-7013Y34856D01*
X-6953D01*
X-6946Y34846D01*
X-6875Y34798D01*
X-6790Y34781D01*
X-6706Y34798D01*
X-6634Y34846D01*
X-6586Y34917D01*
X-6580Y34946D01*
X-6527Y34957D01*
X-6526Y34956D01*
X-6455Y34908D01*
X-6370Y34891D01*
X-6286Y34908D01*
X-6245Y34935D01*
X-6194Y34929D01*
X-6186Y34919D01*
X-6145Y34857D01*
X-6073Y34809D01*
X-5989Y34792D01*
X-5904Y34809D01*
X-5833Y34857D01*
X-5785Y34928D01*
X-5768Y35013D01*
X-5785Y35097D01*
X-5833Y35169D01*
X-5904Y35217D01*
X-5989Y35234D01*
X-6073Y35217D01*
X-6114Y35190D01*
X-6165Y35196D01*
X-6173Y35206D01*
X-6214Y35268D01*
X-6286Y35316D01*
X-6370Y35332D01*
D02*
G37*
G36*
X-2890Y35612D02*
X-2975Y35596D01*
X-3046Y35548D01*
X-3094Y35476D01*
X-3111Y35392D01*
X-3094Y35307D01*
X-3046Y35236D01*
X-2975Y35188D01*
X-2890Y35171D01*
X-2806Y35188D01*
X-2734Y35236D01*
X-2686Y35307D01*
X-2669Y35392D01*
X-2686Y35476D01*
X-2734Y35548D01*
X-2806Y35596D01*
X-2890Y35612D01*
D02*
G37*
G36*
X-11680Y36492D02*
X-11765Y36476D01*
X-11836Y36428D01*
X-11884Y36356D01*
X-11901Y36272D01*
X-11884Y36187D01*
X-11836Y36116D01*
X-11765Y36068D01*
X-11680Y36051D01*
X-11596Y36068D01*
X-11524Y36116D01*
X-11476Y36187D01*
X-11459Y36272D01*
X-11476Y36356D01*
X-11524Y36428D01*
X-11596Y36476D01*
X-11680Y36492D01*
D02*
G37*
G36*
X-660Y36612D02*
X-745Y36596D01*
X-816Y36548D01*
X-864Y36476D01*
X-881Y36392D01*
X-864Y36307D01*
X-816Y36236D01*
X-745Y36188D01*
X-660Y36171D01*
X-576Y36188D01*
X-504Y36236D01*
X-456Y36307D01*
X-439Y36392D01*
X-456Y36476D01*
X-504Y36548D01*
X-576Y36596D01*
X-660Y36612D01*
D02*
G37*
G36*
X-8110Y36172D02*
X-8195Y36156D01*
X-8266Y36108D01*
X-8314Y36036D01*
X-8331Y35952D01*
X-8314Y35867D01*
X-8266Y35796D01*
X-8195Y35748D01*
X-8110Y35731D01*
X-8026Y35748D01*
X-7954Y35796D01*
X-7906Y35867D01*
X-7889Y35952D01*
X-7906Y36036D01*
X-7954Y36108D01*
X-8026Y36156D01*
X-8110Y36172D01*
D02*
G37*
G36*
X-4040Y36352D02*
X-4125Y36336D01*
X-4196Y36288D01*
X-4244Y36216D01*
X-4261Y36132D01*
X-4244Y36047D01*
X-4196Y35976D01*
X-4125Y35928D01*
X-4040Y35911D01*
X-3956Y35928D01*
X-3884Y35976D01*
X-3836Y36047D01*
X-3819Y36132D01*
X-3836Y36216D01*
X-3884Y36288D01*
X-3956Y36336D01*
X-4040Y36352D01*
D02*
G37*
G36*
X-4350Y35242D02*
X-4435Y35226D01*
X-4506Y35178D01*
X-4554Y35106D01*
X-4571Y35022D01*
X-4554Y34937D01*
X-4506Y34866D01*
X-4435Y34818D01*
X-4350Y34801D01*
X-4266Y34818D01*
X-4194Y34866D01*
X-4146Y34937D01*
X-4129Y35022D01*
X-4146Y35106D01*
X-4194Y35178D01*
X-4266Y35226D01*
X-4350Y35242D01*
D02*
G37*
G36*
X-2530Y34129D02*
X-2623Y34117D01*
X-2709Y34081D01*
X-2783Y34024D01*
X-2840Y33950D01*
X-2875Y33864D01*
X-2887Y33772D01*
X-2875Y33679D01*
X-2840Y33593D01*
X-2783Y33519D01*
X-2709Y33462D01*
X-2623Y33426D01*
X-2530Y33414D01*
X-2438Y33426D01*
X-2351Y33462D01*
X-2277Y33519D01*
X-2221Y33593D01*
X-2185Y33679D01*
X-2173Y33772D01*
X-2185Y33864D01*
X-2221Y33950D01*
X-2277Y34024D01*
X-2351Y34081D01*
X-2438Y34117D01*
X-2530Y34129D01*
D02*
G37*
G36*
X-9160Y33912D02*
X-9245Y33896D01*
X-9316Y33848D01*
X-9364Y33776D01*
X-9381Y33692D01*
X-9364Y33607D01*
X-9316Y33536D01*
X-9245Y33488D01*
X-9160Y33471D01*
X-9076Y33488D01*
X-9004Y33536D01*
X-8956Y33607D01*
X-8939Y33692D01*
X-8956Y33776D01*
X-9004Y33848D01*
X-9076Y33896D01*
X-9160Y33912D01*
D02*
G37*
G36*
X-4235Y34131D02*
X-4825D01*
X-4871Y34112D01*
X-4889Y34067D01*
Y33476D01*
X-4871Y33431D01*
X-4825Y33412D01*
X-4235D01*
X-4190Y33431D01*
X-4171Y33476D01*
Y34067D01*
X-4190Y34112D01*
X-4235Y34131D01*
D02*
G37*
G36*
X-3530Y34129D02*
X-3623Y34117D01*
X-3709Y34081D01*
X-3783Y34024D01*
X-3840Y33950D01*
X-3875Y33864D01*
X-3887Y33772D01*
X-3875Y33679D01*
X-3840Y33593D01*
X-3783Y33519D01*
X-3709Y33462D01*
X-3623Y33426D01*
X-3530Y33414D01*
X-3438Y33426D01*
X-3351Y33462D01*
X-3277Y33519D01*
X-3221Y33593D01*
X-3185Y33679D01*
X-3173Y33772D01*
X-3185Y33864D01*
X-3221Y33950D01*
X-3277Y34024D01*
X-3351Y34081D01*
X-3438Y34117D01*
X-3530Y34129D01*
D02*
G37*
G36*
X-7850Y35192D02*
X-7935Y35176D01*
X-8006Y35128D01*
X-8054Y35056D01*
X-8071Y34972D01*
X-8054Y34887D01*
X-8006Y34816D01*
X-7935Y34768D01*
X-7850Y34751D01*
X-7766Y34768D01*
X-7694Y34816D01*
X-7646Y34887D01*
X-7629Y34972D01*
X-7646Y35056D01*
X-7694Y35128D01*
X-7766Y35176D01*
X-7850Y35192D01*
D02*
G37*
G36*
X-23780Y35222D02*
X-23865Y35206D01*
X-23936Y35158D01*
X-23984Y35086D01*
X-24001Y35002D01*
X-23984Y34917D01*
X-23936Y34846D01*
X-23865Y34798D01*
X-23780Y34781D01*
X-23696Y34798D01*
X-23624Y34846D01*
X-23576Y34917D01*
X-23559Y35002D01*
X-23576Y35086D01*
X-23624Y35158D01*
X-23696Y35206D01*
X-23780Y35222D01*
D02*
G37*
G36*
X-14320Y34212D02*
X-14405Y34196D01*
X-14476Y34148D01*
X-14524Y34076D01*
X-14541Y33992D01*
X-14524Y33907D01*
X-14476Y33836D01*
X-14405Y33788D01*
X-14320Y33771D01*
X-14236Y33788D01*
X-14164Y33836D01*
X-14116Y33907D01*
X-14099Y33992D01*
X-14116Y34076D01*
X-14164Y34148D01*
X-14236Y34196D01*
X-14320Y34212D01*
D02*
G37*
G36*
X-18110Y35044D02*
X-18195Y35027D01*
X-18266Y34979D01*
X-18314Y34907D01*
X-18331Y34823D01*
X-18314Y34738D01*
X-18266Y34667D01*
X-18195Y34619D01*
X-18110Y34602D01*
X-18026Y34619D01*
X-17954Y34667D01*
X-17906Y34738D01*
X-17889Y34823D01*
X-17906Y34907D01*
X-17954Y34979D01*
X-18026Y35027D01*
X-18110Y35044D01*
D02*
G37*
G36*
X-11070Y36652D02*
X-11155Y36636D01*
X-11226Y36588D01*
X-11274Y36516D01*
X-11291Y36432D01*
X-11274Y36347D01*
X-11226Y36276D01*
X-11155Y36228D01*
X-11070Y36211D01*
X-10986Y36228D01*
X-10914Y36276D01*
X-10866Y36347D01*
X-10849Y36432D01*
X-10866Y36516D01*
X-10914Y36588D01*
X-10986Y36636D01*
X-11070Y36652D01*
D02*
G37*
G36*
X-24490Y43409D02*
X-24575Y43392D01*
X-24646Y43344D01*
X-24694Y43272D01*
X-24711Y43188D01*
X-24694Y43103D01*
X-24646Y43032D01*
X-24575Y42984D01*
X-24490Y42967D01*
X-24406Y42984D01*
X-24334Y43032D01*
X-24286Y43103D01*
X-24269Y43188D01*
X-24286Y43272D01*
X-24334Y43344D01*
X-24406Y43392D01*
X-24490Y43409D01*
D02*
G37*
G36*
X-8550Y44542D02*
X-8635Y44526D01*
X-8706Y44478D01*
X-8754Y44406D01*
X-8771Y44322D01*
X-8754Y44237D01*
X-8706Y44166D01*
X-8635Y44118D01*
X-8550Y44101D01*
X-8466Y44118D01*
X-8394Y44166D01*
X-8346Y44237D01*
X-8329Y44322D01*
X-8346Y44406D01*
X-8394Y44478D01*
X-8466Y44526D01*
X-8550Y44542D01*
D02*
G37*
G36*
X-15650Y42652D02*
X-15735Y42636D01*
X-15806Y42588D01*
X-15854Y42516D01*
X-15871Y42432D01*
X-15854Y42347D01*
X-15806Y42276D01*
X-15735Y42228D01*
X-15650Y42211D01*
X-15566Y42228D01*
X-15494Y42276D01*
X-15446Y42347D01*
X-15429Y42432D01*
X-15446Y42516D01*
X-15494Y42588D01*
X-15566Y42636D01*
X-15650Y42652D01*
D02*
G37*
G36*
X-12180Y42732D02*
X-12265Y42716D01*
X-12336Y42668D01*
X-12384Y42596D01*
X-12401Y42512D01*
X-12384Y42427D01*
X-12336Y42356D01*
X-12265Y42308D01*
X-12180Y42291D01*
X-12096Y42308D01*
X-12024Y42356D01*
X-11976Y42427D01*
X-11959Y42512D01*
X-11976Y42596D01*
X-12024Y42668D01*
X-12096Y42716D01*
X-12180Y42732D01*
D02*
G37*
G36*
X-37402Y47065D02*
X-37405Y47064D01*
X-37408Y47065D01*
X-37533Y47052D01*
X-37539Y47049D01*
X-37546Y47050D01*
X-37666Y47013D01*
X-37671Y47009D01*
X-37678Y47009D01*
X-37789Y46949D01*
X-37793Y46944D01*
X-37799Y46942D01*
X-37897Y46862D01*
X-37900Y46856D01*
X-37906Y46853D01*
X-37985Y46756D01*
X-37987Y46750D01*
X-37992Y46746D01*
X-38052Y46634D01*
X-38053Y46628D01*
X-38057Y46623D01*
X-38093Y46502D01*
X-38093Y46496D01*
X-38096Y46490D01*
X-38108Y46365D01*
X-38106Y46358D01*
X-38108Y46352D01*
X-38096Y46227D01*
X-38093Y46221D01*
X-38093Y46214D01*
X-38057Y46094D01*
X-38053Y46089D01*
X-38052Y46082D01*
X-37992Y45971D01*
X-37987Y45967D01*
X-37985Y45961D01*
X-37906Y45863D01*
X-37900Y45860D01*
X-37897Y45854D01*
X-37799Y45774D01*
X-37793Y45772D01*
X-37789Y45767D01*
X-37678Y45708D01*
X-37671Y45707D01*
X-37666Y45703D01*
X-37546Y45667D01*
X-37539Y45667D01*
X-37533Y45664D01*
X-37408Y45652D01*
X-37405Y45653D01*
X-37402Y45651D01*
X-37399Y45653D01*
X-37395Y45652D01*
X-37270Y45664D01*
X-37264Y45667D01*
X-37258Y45667D01*
X-37137Y45703D01*
X-37132Y45707D01*
X-37125Y45708D01*
X-37014Y45767D01*
X-37010Y45772D01*
X-37004Y45774D01*
X-36906Y45854D01*
X-36903Y45860D01*
X-36898Y45863D01*
X-36818Y45961D01*
X-36816Y45967D01*
X-36811Y45971D01*
X-36751Y46082D01*
X-36751Y46089D01*
X-36746Y46094D01*
X-36710Y46214D01*
X-36711Y46221D01*
X-36707Y46227D01*
X-36695Y46352D01*
X-36697Y46358D01*
X-36695Y46365D01*
X-36707Y46490D01*
X-36711Y46496D01*
X-36710Y46502D01*
X-36746Y46623D01*
X-36751Y46628D01*
X-36751Y46634D01*
X-36811Y46746D01*
X-36816Y46750D01*
X-36818Y46756D01*
X-36898Y46853D01*
X-36903Y46856D01*
X-36906Y46862D01*
X-37004Y46942D01*
X-37010Y46944D01*
X-37014Y46949D01*
X-37125Y47009D01*
X-37132Y47009D01*
X-37137Y47013D01*
X-37258Y47050D01*
X-37264Y47049D01*
X-37270Y47052D01*
X-37395Y47065D01*
X-37399Y47064D01*
X-37402Y47065D01*
D02*
G37*
G36*
X-1969D02*
X-1972Y47064D01*
X-1975Y47065D01*
X-2100Y47052D01*
X-2106Y47049D01*
X-2112Y47050D01*
X-2233Y47013D01*
X-2238Y47009D01*
X-2245Y47009D01*
X-2356Y46949D01*
X-2360Y46944D01*
X-2366Y46942D01*
X-2464Y46862D01*
X-2467Y46856D01*
X-2472Y46853D01*
X-2552Y46756D01*
X-2554Y46750D01*
X-2559Y46746D01*
X-2619Y46634D01*
X-2619Y46628D01*
X-2624Y46623D01*
X-2660Y46502D01*
X-2660Y46496D01*
X-2663Y46490D01*
X-2675Y46365D01*
X-2673Y46358D01*
X-2675Y46352D01*
X-2663Y46227D01*
X-2660Y46221D01*
X-2660Y46214D01*
X-2624Y46094D01*
X-2619Y46089D01*
X-2619Y46082D01*
X-2559Y45971D01*
X-2554Y45967D01*
X-2552Y45961D01*
X-2472Y45863D01*
X-2467Y45860D01*
X-2464Y45854D01*
X-2366Y45774D01*
X-2360Y45772D01*
X-2356Y45767D01*
X-2245Y45708D01*
X-2238Y45707D01*
X-2233Y45703D01*
X-2112Y45667D01*
X-2106Y45667D01*
X-2100Y45664D01*
X-1975Y45652D01*
X-1972Y45653D01*
X-1969Y45651D01*
X-1965Y45653D01*
X-1962Y45652D01*
X-1837Y45664D01*
X-1831Y45667D01*
X-1825Y45667D01*
X-1704Y45703D01*
X-1699Y45707D01*
X-1692Y45708D01*
X-1581Y45767D01*
X-1577Y45772D01*
X-1571Y45774D01*
X-1473Y45854D01*
X-1470Y45860D01*
X-1465Y45863D01*
X-1385Y45961D01*
X-1383Y45967D01*
X-1378Y45971D01*
X-1318Y46082D01*
X-1318Y46089D01*
X-1313Y46094D01*
X-1277Y46214D01*
X-1277Y46221D01*
X-1274Y46227D01*
X-1262Y46352D01*
X-1264Y46358D01*
X-1262Y46365D01*
X-1274Y46490D01*
X-1277Y46496D01*
X-1277Y46502D01*
X-1313Y46623D01*
X-1318Y46628D01*
X-1318Y46634D01*
X-1378Y46746D01*
X-1383Y46750D01*
X-1385Y46756D01*
X-1465Y46853D01*
X-1470Y46856D01*
X-1473Y46862D01*
X-1571Y46942D01*
X-1577Y46944D01*
X-1581Y46949D01*
X-1692Y47009D01*
X-1699Y47009D01*
X-1704Y47013D01*
X-1825Y47050D01*
X-1831Y47049D01*
X-1837Y47052D01*
X-1962Y47065D01*
X-1965Y47064D01*
X-1969Y47065D01*
D02*
G37*
G36*
X-32480Y45186D02*
X-32484Y45185D01*
X-32489Y45186D01*
X-32617Y45169D01*
X-32625Y45164D01*
X-32633D01*
X-32753Y45115D01*
X-32759Y45109D01*
X-32767Y45107D01*
X-32870Y45028D01*
X-32875Y45020D01*
X-32882Y45016D01*
X-32961Y44913D01*
X-32963Y44905D01*
X-32969Y44899D01*
X-33019Y44779D01*
Y44770D01*
X-33023Y44763D01*
X-33040Y44634D01*
X-33038Y44626D01*
X-33040Y44618D01*
X-33023Y44489D01*
X-33019Y44482D01*
Y44473D01*
X-32969Y44353D01*
X-32963Y44347D01*
X-32961Y44339D01*
X-32882Y44236D01*
X-32875Y44232D01*
X-32870Y44224D01*
X-32767Y44145D01*
X-32759Y44143D01*
X-32753Y44137D01*
X-32633Y44087D01*
X-32625D01*
X-32617Y44083D01*
X-32489Y44066D01*
X-32484Y44067D01*
X-32480Y44066D01*
X-32476Y44067D01*
X-32472Y44066D01*
X-32343Y44083D01*
X-32336Y44087D01*
X-32327D01*
X-32208Y44137D01*
X-32202Y44143D01*
X-32193Y44145D01*
X-32090Y44224D01*
X-32086Y44232D01*
X-32079Y44236D01*
X-32000Y44339D01*
X-31997Y44347D01*
X-31991Y44353D01*
X-31942Y44473D01*
Y44482D01*
X-31937Y44489D01*
X-31921Y44618D01*
X-31923Y44626D01*
X-31921Y44634D01*
X-31937Y44763D01*
X-31942Y44770D01*
Y44779D01*
X-31991Y44899D01*
X-31997Y44905D01*
X-32000Y44913D01*
X-32079Y45016D01*
X-32086Y45020D01*
X-32090Y45028D01*
X-32193Y45107D01*
X-32202Y45109D01*
X-32208Y45115D01*
X-32327Y45164D01*
X-32336D01*
X-32343Y45169D01*
X-32472Y45186D01*
X-32476Y45185D01*
X-32480Y45186D01*
D02*
G37*
G36*
X-6890D02*
X-6894Y45185D01*
X-6898Y45186D01*
X-7027Y45169D01*
X-7034Y45164D01*
X-7043D01*
X-7162Y45115D01*
X-7169Y45109D01*
X-7177Y45107D01*
X-7280Y45028D01*
X-7284Y45020D01*
X-7291Y45016D01*
X-7370Y44913D01*
X-7373Y44905D01*
X-7379Y44899D01*
X-7428Y44779D01*
Y44770D01*
X-7433Y44763D01*
X-7450Y44634D01*
X-7447Y44626D01*
X-7450Y44618D01*
X-7433Y44489D01*
X-7428Y44482D01*
Y44473D01*
X-7379Y44353D01*
X-7373Y44347D01*
X-7370Y44339D01*
X-7291Y44236D01*
X-7284Y44232D01*
X-7280Y44224D01*
X-7177Y44145D01*
X-7169Y44143D01*
X-7162Y44137D01*
X-7043Y44087D01*
X-7034D01*
X-7027Y44083D01*
X-6898Y44066D01*
X-6894Y44067D01*
X-6890Y44066D01*
X-6886Y44067D01*
X-6881Y44066D01*
X-6753Y44083D01*
X-6745Y44087D01*
X-6737D01*
X-6617Y44137D01*
X-6611Y44143D01*
X-6603Y44145D01*
X-6500Y44224D01*
X-6496Y44232D01*
X-6488Y44236D01*
X-6409Y44339D01*
X-6407Y44347D01*
X-6401Y44353D01*
X-6351Y44473D01*
Y44482D01*
X-6347Y44489D01*
X-6330Y44618D01*
X-6332Y44626D01*
X-6330Y44634D01*
X-6347Y44763D01*
X-6351Y44770D01*
Y44779D01*
X-6401Y44899D01*
X-6407Y44905D01*
X-6409Y44913D01*
X-6488Y45016D01*
X-6496Y45020D01*
X-6500Y45028D01*
X-6603Y45107D01*
X-6611Y45109D01*
X-6617Y45115D01*
X-6737Y45164D01*
X-6745D01*
X-6753Y45169D01*
X-6881Y45186D01*
X-6886Y45185D01*
X-6890Y45186D01*
D02*
G37*
G36*
X-16580Y42542D02*
X-16665Y42526D01*
X-16736Y42478D01*
X-16784Y42406D01*
X-16801Y42322D01*
X-16784Y42237D01*
X-16736Y42166D01*
X-16665Y42118D01*
X-16580Y42101D01*
X-16496Y42118D01*
X-16424Y42166D01*
X-16376Y42237D01*
X-16359Y42322D01*
X-16376Y42406D01*
X-16424Y42478D01*
X-16496Y42526D01*
X-16580Y42542D01*
D02*
G37*
G36*
X-12574Y39199D02*
X-12658Y39182D01*
X-12730Y39134D01*
X-12778Y39062D01*
X-12795Y38978D01*
X-12778Y38893D01*
X-12730Y38822D01*
X-12658Y38774D01*
X-12574Y38757D01*
X-12489Y38774D01*
X-12418Y38822D01*
X-12370Y38893D01*
X-12353Y38978D01*
X-12370Y39062D01*
X-12418Y39134D01*
X-12489Y39182D01*
X-12574Y39199D01*
D02*
G37*
G36*
X-16490Y39552D02*
X-16575Y39536D01*
X-16646Y39488D01*
X-16694Y39416D01*
X-16707Y39349D01*
X-16712Y39345D01*
X-16753Y39328D01*
X-16759Y39328D01*
X-16816Y39366D01*
X-16900Y39382D01*
X-16985Y39366D01*
X-17056Y39318D01*
X-17104Y39246D01*
X-17121Y39162D01*
X-17104Y39077D01*
X-17056Y39006D01*
X-16985Y38958D01*
X-16900Y38941D01*
X-16816Y38958D01*
X-16744Y39006D01*
X-16696Y39077D01*
X-16683Y39144D01*
X-16678Y39148D01*
X-16637Y39165D01*
X-16631Y39166D01*
X-16575Y39128D01*
X-16490Y39111D01*
X-16406Y39128D01*
X-16334Y39176D01*
X-16286Y39247D01*
X-16269Y39332D01*
X-16286Y39416D01*
X-16334Y39488D01*
X-16406Y39536D01*
X-16490Y39552D01*
D02*
G37*
G36*
X-34862Y38369D02*
X-34990Y38357D01*
X-35112Y38320D01*
X-35225Y38259D01*
X-35324Y38178D01*
X-35405Y38079D01*
X-35465Y37966D01*
X-35502Y37844D01*
X-35515Y37717D01*
X-35502Y37589D01*
X-35465Y37467D01*
X-35405Y37354D01*
X-35324Y37255D01*
X-35225Y37174D01*
X-35112Y37113D01*
X-34990Y37076D01*
X-34862Y37064D01*
X-34735Y37076D01*
X-34612Y37113D01*
X-34500Y37174D01*
X-34401Y37255D01*
X-34319Y37354D01*
X-34259Y37467D01*
X-34222Y37589D01*
X-34209Y37717D01*
X-34222Y37844D01*
X-34259Y37966D01*
X-34319Y38079D01*
X-34401Y38178D01*
X-34500Y38259D01*
X-34612Y38320D01*
X-34735Y38357D01*
X-34862Y38369D01*
D02*
G37*
G36*
X-19690Y38612D02*
X-19775Y38596D01*
X-19846Y38548D01*
X-19894Y38476D01*
X-19911Y38392D01*
X-19894Y38307D01*
X-19846Y38236D01*
X-19775Y38188D01*
X-19690Y38171D01*
X-19606Y38188D01*
X-19534Y38236D01*
X-19486Y38307D01*
X-19469Y38392D01*
X-19486Y38476D01*
X-19534Y38548D01*
X-19606Y38596D01*
X-19690Y38612D01*
D02*
G37*
G36*
X-4350Y42217D02*
X-4435Y42200D01*
X-4506Y42152D01*
X-4554Y42081D01*
X-4571Y41996D01*
X-4554Y41912D01*
X-4506Y41840D01*
X-4435Y41792D01*
X-4350Y41775D01*
X-4266Y41792D01*
X-4194Y41840D01*
X-4146Y41912D01*
X-4129Y41996D01*
X-4146Y42081D01*
X-4194Y42152D01*
X-4266Y42200D01*
X-4350Y42217D01*
D02*
G37*
G36*
X-14360Y42402D02*
X-14445Y42386D01*
X-14516Y42338D01*
X-14564Y42266D01*
X-14581Y42182D01*
X-14564Y42097D01*
X-14516Y42026D01*
X-14445Y41978D01*
X-14360Y41961D01*
X-14276Y41978D01*
X-14204Y42026D01*
X-14156Y42097D01*
X-14139Y42182D01*
X-14156Y42266D01*
X-14204Y42338D01*
X-14276Y42386D01*
X-14360Y42402D01*
D02*
G37*
G36*
X-34862Y41716D02*
X-34990Y41703D01*
X-35112Y41666D01*
X-35225Y41606D01*
X-35324Y41525D01*
X-35405Y41426D01*
X-35465Y41313D01*
X-35502Y41190D01*
X-35515Y41063D01*
X-35502Y40936D01*
X-35465Y40813D01*
X-35405Y40700D01*
X-35324Y40601D01*
X-35225Y40520D01*
X-35112Y40460D01*
X-34990Y40423D01*
X-34862Y40410D01*
X-34735Y40423D01*
X-34612Y40460D01*
X-34500Y40520D01*
X-34401Y40601D01*
X-34319Y40700D01*
X-34259Y40813D01*
X-34222Y40936D01*
X-34209Y41063D01*
X-34222Y41190D01*
X-34259Y41313D01*
X-34319Y41426D01*
X-34401Y41525D01*
X-34500Y41606D01*
X-34612Y41666D01*
X-34735Y41703D01*
X-34862Y41716D01*
D02*
G37*
G36*
X-14900Y42142D02*
X-14985Y42126D01*
X-15056Y42078D01*
X-15104Y42006D01*
X-15121Y41922D01*
X-15104Y41837D01*
X-15056Y41766D01*
X-14985Y41718D01*
X-14900Y41701D01*
X-14816Y41718D01*
X-14744Y41766D01*
X-14696Y41837D01*
X-14679Y41922D01*
X-14696Y42006D01*
X-14744Y42078D01*
X-14816Y42126D01*
X-14900Y42142D01*
D02*
G37*
G36*
X-7180Y33782D02*
X-7265Y33766D01*
X-7336Y33718D01*
X-7384Y33646D01*
X-7401Y33562D01*
X-7384Y33477D01*
X-7336Y33406D01*
X-7265Y33358D01*
X-7180Y33341D01*
X-7096Y33358D01*
X-7024Y33406D01*
X-6976Y33477D01*
X-6959Y33562D01*
X-6976Y33646D01*
X-7024Y33718D01*
X-7096Y33766D01*
X-7180Y33782D01*
D02*
G37*
G36*
X-14961Y26297D02*
X-14964Y26296D01*
X-14967Y26297D01*
X-15092Y26285D01*
X-15098Y26282D01*
X-15105Y26282D01*
X-15225Y26246D01*
X-15230Y26241D01*
X-15237Y26241D01*
X-15348Y26181D01*
X-15352Y26176D01*
X-15358Y26174D01*
X-15456Y26095D01*
X-15459Y26089D01*
X-15465Y26086D01*
X-15545Y25988D01*
X-15546Y25982D01*
X-15552Y25978D01*
X-15611Y25867D01*
X-15612Y25860D01*
X-15616Y25855D01*
X-15652Y25735D01*
X-15652Y25728D01*
X-15655Y25722D01*
X-15667Y25597D01*
X-15665Y25591D01*
X-15667Y25584D01*
X-15655Y25459D01*
X-15652Y25453D01*
X-15652Y25447D01*
X-15616Y25326D01*
X-15612Y25321D01*
X-15611Y25314D01*
X-15552Y25203D01*
X-15546Y25199D01*
X-15545Y25193D01*
X-15465Y25095D01*
X-15459Y25092D01*
X-15456Y25087D01*
X-15358Y25007D01*
X-15352Y25005D01*
X-15348Y25000D01*
X-15237Y24940D01*
X-15230Y24940D01*
X-15225Y24935D01*
X-15105Y24899D01*
X-15098Y24900D01*
X-15092Y24896D01*
X-14967Y24884D01*
X-14964Y24885D01*
X-14961Y24884D01*
X-14958Y24885D01*
X-14954Y24884D01*
X-14829Y24896D01*
X-14823Y24900D01*
X-14817Y24899D01*
X-14696Y24935D01*
X-14691Y24940D01*
X-14684Y24940D01*
X-14573Y25000D01*
X-14569Y25005D01*
X-14563Y25007D01*
X-14466Y25087D01*
X-14462Y25092D01*
X-14457Y25095D01*
X-14377Y25193D01*
X-14375Y25199D01*
X-14370Y25203D01*
X-14310Y25314D01*
X-14310Y25321D01*
X-14306Y25326D01*
X-14269Y25447D01*
X-14270Y25453D01*
X-14267Y25459D01*
X-14254Y25584D01*
X-14256Y25591D01*
X-14254Y25597D01*
X-14267Y25722D01*
X-14270Y25728D01*
X-14269Y25735D01*
X-14306Y25855D01*
X-14310Y25860D01*
X-14310Y25867D01*
X-14370Y25978D01*
X-14375Y25982D01*
X-14377Y25988D01*
X-14457Y26086D01*
X-14462Y26089D01*
X-14466Y26095D01*
X-14563Y26174D01*
X-14569Y26176D01*
X-14573Y26181D01*
X-14684Y26241D01*
X-14691Y26241D01*
X-14696Y26246D01*
X-14817Y26282D01*
X-14823Y26282D01*
X-14829Y26285D01*
X-14954Y26297D01*
X-14958Y26296D01*
X-14961Y26297D01*
D02*
G37*
G36*
X-17765Y27288D02*
X-17850Y27271D01*
X-17921Y27223D01*
X-17969Y27151D01*
X-17986Y27067D01*
X-17969Y26982D01*
X-17921Y26911D01*
X-17850Y26863D01*
X-17765Y26846D01*
X-17681Y26863D01*
X-17609Y26911D01*
X-17561Y26982D01*
X-17545Y27067D01*
X-17561Y27151D01*
X-17609Y27223D01*
X-17681Y27271D01*
X-17765Y27288D01*
D02*
G37*
G36*
X-9055Y27130D02*
X-9173Y27114D01*
X-9283Y27069D01*
X-9378Y26996D01*
X-9451Y26902D01*
X-9496Y26791D01*
X-9512Y26673D01*
X-9496Y26555D01*
X-9451Y26445D01*
X-9378Y26350D01*
X-9283Y26278D01*
X-9173Y26232D01*
X-9055Y26217D01*
X-8937Y26232D01*
X-8827Y26278D01*
X-8732Y26350D01*
X-8660Y26445D01*
X-8614Y26555D01*
X-8598Y26673D01*
X-8614Y26791D01*
X-8660Y26902D01*
X-8732Y26996D01*
X-8827Y27069D01*
X-8937Y27114D01*
X-9055Y27130D01*
D02*
G37*
G36*
X-24409Y26297D02*
X-24413Y26296D01*
X-24416Y26297D01*
X-24541Y26285D01*
X-24547Y26282D01*
X-24553Y26282D01*
X-24674Y26246D01*
X-24679Y26241D01*
X-24686Y26241D01*
X-24797Y26181D01*
X-24801Y26176D01*
X-24807Y26174D01*
X-24905Y26095D01*
X-24908Y26089D01*
X-24913Y26086D01*
X-24993Y25988D01*
X-24995Y25982D01*
X-25000Y25978D01*
X-25060Y25867D01*
X-25060Y25860D01*
X-25065Y25855D01*
X-25101Y25735D01*
X-25100Y25728D01*
X-25104Y25722D01*
X-25116Y25597D01*
X-25114Y25591D01*
X-25116Y25584D01*
X-25104Y25459D01*
X-25100Y25453D01*
X-25101Y25447D01*
X-25065Y25326D01*
X-25060Y25321D01*
X-25060Y25314D01*
X-25000Y25203D01*
X-24995Y25199D01*
X-24993Y25193D01*
X-24913Y25095D01*
X-24908Y25092D01*
X-24905Y25087D01*
X-24807Y25007D01*
X-24801Y25005D01*
X-24797Y25000D01*
X-24686Y24940D01*
X-24679Y24940D01*
X-24674Y24935D01*
X-24553Y24899D01*
X-24547Y24900D01*
X-24541Y24896D01*
X-24416Y24884D01*
X-24413Y24885D01*
X-24409Y24884D01*
X-24406Y24885D01*
X-24403Y24884D01*
X-24278Y24896D01*
X-24272Y24900D01*
X-24265Y24899D01*
X-24145Y24935D01*
X-24140Y24940D01*
X-24133Y24940D01*
X-24022Y25000D01*
X-24018Y25005D01*
X-24012Y25007D01*
X-23914Y25087D01*
X-23911Y25092D01*
X-23905Y25095D01*
X-23826Y25193D01*
X-23824Y25199D01*
X-23819Y25203D01*
X-23759Y25314D01*
X-23759Y25321D01*
X-23754Y25326D01*
X-23718Y25447D01*
X-23718Y25453D01*
X-23715Y25459D01*
X-23703Y25584D01*
X-23705Y25591D01*
X-23703Y25597D01*
X-23715Y25722D01*
X-23718Y25728D01*
X-23718Y25735D01*
X-23754Y25855D01*
X-23759Y25860D01*
X-23759Y25867D01*
X-23819Y25978D01*
X-23824Y25982D01*
X-23826Y25988D01*
X-23905Y26086D01*
X-23911Y26089D01*
X-23914Y26095D01*
X-24012Y26174D01*
X-24018Y26176D01*
X-24022Y26181D01*
X-24133Y26241D01*
X-24140Y26241D01*
X-24145Y26246D01*
X-24265Y26282D01*
X-24272Y26282D01*
X-24278Y26285D01*
X-24403Y26297D01*
X-24406Y26296D01*
X-24409Y26297D01*
D02*
G37*
G36*
X-29773Y29405D02*
X-29857Y29388D01*
X-29929Y29340D01*
X-29977Y29269D01*
X-29994Y29184D01*
X-29977Y29100D01*
X-29929Y29028D01*
X-29857Y28980D01*
X-29773Y28964D01*
X-29688Y28980D01*
X-29617Y29028D01*
X-29569Y29100D01*
X-29552Y29184D01*
X-29569Y29269D01*
X-29617Y29340D01*
X-29688Y29388D01*
X-29773Y29405D01*
D02*
G37*
G36*
X-27333Y29405D02*
X-27417Y29388D01*
X-27489Y29340D01*
X-27537Y29269D01*
X-27554Y29184D01*
X-27537Y29100D01*
X-27489Y29028D01*
X-27417Y28980D01*
X-27333Y28964D01*
X-27248Y28980D01*
X-27177Y29028D01*
X-27129Y29100D01*
X-27112Y29184D01*
X-27129Y29269D01*
X-27177Y29340D01*
X-27248Y29388D01*
X-27333Y29405D01*
D02*
G37*
G36*
X-25940Y27642D02*
X-26025Y27626D01*
X-26096Y27578D01*
X-26144Y27506D01*
X-26161Y27422D01*
X-26144Y27337D01*
X-26096Y27266D01*
X-26025Y27218D01*
X-25940Y27201D01*
X-25856Y27218D01*
X-25784Y27266D01*
X-25736Y27337D01*
X-25719Y27422D01*
X-25736Y27506D01*
X-25784Y27578D01*
X-25856Y27626D01*
X-25940Y27642D01*
D02*
G37*
G36*
X-25620Y28762D02*
X-25705Y28746D01*
X-25776Y28698D01*
X-25824Y28626D01*
X-25841Y28542D01*
X-25824Y28457D01*
X-25776Y28386D01*
X-25705Y28338D01*
X-25620Y28321D01*
X-25536Y28338D01*
X-25464Y28386D01*
X-25416Y28457D01*
X-25399Y28542D01*
X-25416Y28626D01*
X-25464Y28698D01*
X-25536Y28746D01*
X-25620Y28762D01*
D02*
G37*
G36*
X-11024Y27130D02*
X-11142Y27114D01*
X-11252Y27069D01*
X-11347Y26996D01*
X-11419Y26902D01*
X-11465Y26791D01*
X-11480Y26673D01*
X-11465Y26555D01*
X-11419Y26445D01*
X-11347Y26350D01*
X-11252Y26278D01*
X-11142Y26232D01*
X-11024Y26217D01*
X-10905Y26232D01*
X-10795Y26278D01*
X-10701Y26350D01*
X-10628Y26445D01*
X-10583Y26555D01*
X-10567Y26673D01*
X-10583Y26791D01*
X-10628Y26902D01*
X-10701Y26996D01*
X-10795Y27069D01*
X-10905Y27114D01*
X-11024Y27130D01*
D02*
G37*
G36*
X-9055Y25161D02*
X-9173Y25146D01*
X-9283Y25100D01*
X-9378Y25028D01*
X-9451Y24933D01*
X-9496Y24823D01*
X-9512Y24705D01*
X-9496Y24587D01*
X-9451Y24476D01*
X-9378Y24382D01*
X-9283Y24309D01*
X-9173Y24264D01*
X-9055Y24248D01*
X-8937Y24264D01*
X-8827Y24309D01*
X-8732Y24382D01*
X-8660Y24476D01*
X-8614Y24587D01*
X-8598Y24705D01*
X-8614Y24823D01*
X-8660Y24933D01*
X-8732Y25028D01*
X-8827Y25100D01*
X-8937Y25146D01*
X-9055Y25161D01*
D02*
G37*
G36*
X-6070Y24822D02*
X-6155Y24806D01*
X-6226Y24758D01*
X-6274Y24686D01*
X-6291Y24602D01*
X-6274Y24517D01*
X-6226Y24446D01*
X-6155Y24398D01*
X-6070Y24381D01*
X-5986Y24398D01*
X-5914Y24446D01*
X-5866Y24517D01*
X-5849Y24602D01*
X-5866Y24686D01*
X-5914Y24758D01*
X-5986Y24806D01*
X-6070Y24822D01*
D02*
G37*
G36*
X-28346Y25161D02*
X-28465Y25146D01*
X-28575Y25100D01*
X-28669Y25028D01*
X-28742Y24933D01*
X-28788Y24823D01*
X-28803Y24705D01*
X-28788Y24587D01*
X-28742Y24476D01*
X-28669Y24382D01*
X-28575Y24309D01*
X-28465Y24264D01*
X-28346Y24248D01*
X-28228Y24264D01*
X-28118Y24309D01*
X-28024Y24382D01*
X-27951Y24476D01*
X-27905Y24587D01*
X-27890Y24705D01*
X-27905Y24823D01*
X-27951Y24933D01*
X-28024Y25028D01*
X-28118Y25100D01*
X-28228Y25146D01*
X-28346Y25161D01*
D02*
G37*
G36*
X-11024D02*
X-11142Y25146D01*
X-11252Y25100D01*
X-11347Y25028D01*
X-11419Y24933D01*
X-11465Y24823D01*
X-11480Y24705D01*
X-11465Y24587D01*
X-11419Y24476D01*
X-11347Y24382D01*
X-11252Y24309D01*
X-11142Y24264D01*
X-11024Y24248D01*
X-10905Y24264D01*
X-10795Y24309D01*
X-10701Y24382D01*
X-10628Y24476D01*
X-10583Y24587D01*
X-10567Y24705D01*
X-10583Y24823D01*
X-10628Y24933D01*
X-10701Y25028D01*
X-10795Y25100D01*
X-10905Y25146D01*
X-11024Y25161D01*
D02*
G37*
G36*
X-30315Y27130D02*
X-30433Y27114D01*
X-30543Y27069D01*
X-30638Y26996D01*
X-30710Y26902D01*
X-30756Y26791D01*
X-30772Y26673D01*
X-30756Y26555D01*
X-30710Y26445D01*
X-30638Y26350D01*
X-30543Y26278D01*
X-30433Y26232D01*
X-30315Y26217D01*
X-30197Y26232D01*
X-30087Y26278D01*
X-29992Y26350D01*
X-29919Y26445D01*
X-29874Y26555D01*
X-29858Y26673D01*
X-29874Y26791D01*
X-29919Y26902D01*
X-29992Y26996D01*
X-30087Y27069D01*
X-30197Y27114D01*
X-30315Y27130D01*
D02*
G37*
G36*
X-28346D02*
X-28465Y27114D01*
X-28575Y27069D01*
X-28669Y26996D01*
X-28742Y26902D01*
X-28788Y26791D01*
X-28803Y26673D01*
X-28788Y26555D01*
X-28742Y26445D01*
X-28669Y26350D01*
X-28575Y26278D01*
X-28465Y26232D01*
X-28346Y26217D01*
X-28228Y26232D01*
X-28118Y26278D01*
X-28024Y26350D01*
X-27951Y26445D01*
X-27905Y26555D01*
X-27890Y26673D01*
X-27905Y26791D01*
X-27951Y26902D01*
X-28024Y26996D01*
X-28118Y27069D01*
X-28228Y27114D01*
X-28346Y27130D01*
D02*
G37*
G36*
X-4830Y25172D02*
X-4915Y25156D01*
X-4986Y25108D01*
X-5034Y25036D01*
X-5051Y24952D01*
X-5034Y24867D01*
X-4986Y24796D01*
X-4915Y24748D01*
X-4830Y24731D01*
X-4746Y24748D01*
X-4674Y24796D01*
X-4626Y24867D01*
X-4609Y24952D01*
X-4626Y25036D01*
X-4674Y25108D01*
X-4746Y25156D01*
X-4830Y25172D01*
D02*
G37*
G36*
X-21820Y26652D02*
X-21905Y26636D01*
X-21976Y26588D01*
X-22024Y26516D01*
X-22041Y26432D01*
X-22024Y26347D01*
X-21976Y26276D01*
X-21905Y26228D01*
X-21820Y26211D01*
X-21736Y26228D01*
X-21664Y26276D01*
X-21616Y26347D01*
X-21599Y26432D01*
X-21616Y26516D01*
X-21664Y26588D01*
X-21736Y26636D01*
X-21820Y26652D01*
D02*
G37*
G36*
X-26840Y29982D02*
X-26925Y29966D01*
X-26996Y29918D01*
X-27044Y29846D01*
X-27061Y29762D01*
X-27044Y29677D01*
X-26996Y29606D01*
X-26925Y29558D01*
X-26840Y29541D01*
X-26756Y29558D01*
X-26684Y29606D01*
X-26636Y29677D01*
X-26619Y29762D01*
X-26636Y29846D01*
X-26684Y29918D01*
X-26756Y29966D01*
X-26840Y29982D01*
D02*
G37*
G36*
X-18504Y33487D02*
X-18596Y33475D01*
X-18683Y33439D01*
X-18757Y33383D01*
X-18813Y33309D01*
X-18849Y33222D01*
X-18861Y33130D01*
X-18849Y33037D01*
X-18813Y32951D01*
X-18757Y32877D01*
X-18683Y32820D01*
X-18596Y32785D01*
X-18504Y32773D01*
X-18411Y32785D01*
X-18325Y32820D01*
X-18251Y32877D01*
X-18194Y32951D01*
X-18159Y33037D01*
X-18147Y33130D01*
X-18159Y33222D01*
X-18194Y33309D01*
X-18251Y33383D01*
X-18325Y33439D01*
X-18411Y33475D01*
X-18504Y33487D01*
D02*
G37*
G36*
X-17717D02*
X-17809Y33475D01*
X-17895Y33439D01*
X-17969Y33383D01*
X-18026Y33309D01*
X-18062Y33222D01*
X-18074Y33130D01*
X-18062Y33037D01*
X-18026Y32951D01*
X-17969Y32877D01*
X-17895Y32820D01*
X-17809Y32785D01*
X-17717Y32773D01*
X-17624Y32785D01*
X-17538Y32820D01*
X-17464Y32877D01*
X-17407Y32951D01*
X-17371Y33037D01*
X-17359Y33130D01*
X-17371Y33222D01*
X-17407Y33309D01*
X-17464Y33383D01*
X-17538Y33439D01*
X-17624Y33475D01*
X-17717Y33487D01*
D02*
G37*
G36*
X-20866D02*
X-20959Y33475D01*
X-21045Y33439D01*
X-21119Y33383D01*
X-21176Y33309D01*
X-21211Y33222D01*
X-21224Y33130D01*
X-21211Y33037D01*
X-21176Y32951D01*
X-21119Y32877D01*
X-21045Y32820D01*
X-20959Y32785D01*
X-20866Y32773D01*
X-20774Y32785D01*
X-20687Y32820D01*
X-20613Y32877D01*
X-20557Y32951D01*
X-20521Y33037D01*
X-20509Y33130D01*
X-20521Y33222D01*
X-20557Y33309D01*
X-20613Y33383D01*
X-20687Y33439D01*
X-20774Y33475D01*
X-20866Y33487D01*
D02*
G37*
G36*
X-20079D02*
X-20171Y33475D01*
X-20257Y33439D01*
X-20331Y33383D01*
X-20388Y33309D01*
X-20424Y33222D01*
X-20436Y33130D01*
X-20424Y33037D01*
X-20388Y32951D01*
X-20331Y32877D01*
X-20257Y32820D01*
X-20171Y32785D01*
X-20079Y32773D01*
X-19986Y32785D01*
X-19900Y32820D01*
X-19826Y32877D01*
X-19769Y32951D01*
X-19734Y33037D01*
X-19721Y33130D01*
X-19734Y33222D01*
X-19769Y33309D01*
X-19826Y33383D01*
X-19900Y33439D01*
X-19986Y33475D01*
X-20079Y33487D01*
D02*
G37*
G36*
X-28950Y33662D02*
X-29035Y33646D01*
X-29106Y33598D01*
X-29154Y33526D01*
X-29171Y33442D01*
X-29154Y33357D01*
X-29106Y33286D01*
X-29035Y33238D01*
X-28950Y33221D01*
X-28866Y33238D01*
X-28794Y33286D01*
X-28746Y33357D01*
X-28729Y33442D01*
X-28746Y33526D01*
X-28794Y33598D01*
X-28866Y33646D01*
X-28950Y33662D01*
D02*
G37*
G36*
X-13020Y33772D02*
X-13105Y33756D01*
X-13176Y33708D01*
X-13224Y33636D01*
X-13241Y33552D01*
X-13224Y33467D01*
X-13176Y33396D01*
X-13105Y33348D01*
X-13020Y33331D01*
X-12936Y33348D01*
X-12864Y33396D01*
X-12816Y33467D01*
X-12799Y33552D01*
X-12816Y33636D01*
X-12864Y33708D01*
X-12936Y33756D01*
X-13020Y33772D01*
D02*
G37*
G36*
X-16929Y33487D02*
X-17022Y33475D01*
X-17108Y33439D01*
X-17182Y33383D01*
X-17239Y33309D01*
X-17274Y33222D01*
X-17287Y33130D01*
X-17274Y33037D01*
X-17239Y32951D01*
X-17182Y32877D01*
X-17108Y32820D01*
X-17022Y32785D01*
X-16929Y32773D01*
X-16837Y32785D01*
X-16750Y32820D01*
X-16676Y32877D01*
X-16620Y32951D01*
X-16584Y33037D01*
X-16572Y33130D01*
X-16584Y33222D01*
X-16620Y33309D01*
X-16676Y33383D01*
X-16750Y33439D01*
X-16837Y33475D01*
X-16929Y33487D01*
D02*
G37*
G36*
X-12450Y33232D02*
X-12535Y33216D01*
X-12606Y33168D01*
X-12654Y33096D01*
X-12671Y33012D01*
X-12654Y32927D01*
X-12606Y32856D01*
X-12535Y32808D01*
X-12450Y32791D01*
X-12366Y32808D01*
X-12294Y32856D01*
X-12246Y32927D01*
X-12229Y33012D01*
X-12246Y33096D01*
X-12294Y33168D01*
X-12366Y33216D01*
X-12450Y33232D01*
D02*
G37*
G36*
X-21654Y33487D02*
X-21746Y33475D01*
X-21832Y33439D01*
X-21906Y33383D01*
X-21963Y33309D01*
X-21999Y33222D01*
X-22011Y33130D01*
X-21999Y33037D01*
X-21963Y32951D01*
X-21906Y32877D01*
X-21832Y32820D01*
X-21746Y32785D01*
X-21654Y32773D01*
X-21561Y32785D01*
X-21475Y32820D01*
X-21401Y32877D01*
X-21344Y32951D01*
X-21308Y33037D01*
X-21296Y33130D01*
X-21308Y33222D01*
X-21344Y33309D01*
X-21401Y33383D01*
X-21475Y33439D01*
X-21561Y33475D01*
X-21654Y33487D01*
D02*
G37*
G36*
X-32480Y32155D02*
X-32484Y32153D01*
X-32489Y32154D01*
X-32617Y32137D01*
X-32625Y32133D01*
X-32633D01*
X-32753Y32083D01*
X-32759Y32077D01*
X-32767Y32075D01*
X-32870Y31996D01*
X-32875Y31989D01*
X-32882Y31984D01*
X-32961Y31882D01*
X-32963Y31873D01*
X-32969Y31867D01*
X-33019Y31747D01*
Y31739D01*
X-33023Y31731D01*
X-33040Y31603D01*
X-33038Y31594D01*
X-33040Y31586D01*
X-33023Y31458D01*
X-33019Y31450D01*
Y31442D01*
X-32969Y31322D01*
X-32963Y31316D01*
X-32961Y31307D01*
X-32882Y31205D01*
X-32875Y31200D01*
X-32870Y31193D01*
X-32767Y31114D01*
X-32759Y31112D01*
X-32753Y31106D01*
X-32633Y31056D01*
X-32625D01*
X-32617Y31052D01*
X-32489Y31035D01*
X-32484Y31036D01*
X-32480Y31034D01*
X-32476Y31036D01*
X-32472Y31035D01*
X-32343Y31052D01*
X-32336Y31056D01*
X-32327D01*
X-32208Y31106D01*
X-32202Y31112D01*
X-32193Y31114D01*
X-32090Y31193D01*
X-32086Y31200D01*
X-32079Y31205D01*
X-32000Y31307D01*
X-31997Y31316D01*
X-31991Y31322D01*
X-31942Y31442D01*
Y31450D01*
X-31937Y31458D01*
X-31921Y31586D01*
X-31923Y31594D01*
X-31921Y31603D01*
X-31937Y31731D01*
X-31942Y31739D01*
Y31747D01*
X-31991Y31867D01*
X-31997Y31873D01*
X-32000Y31882D01*
X-32079Y31984D01*
X-32086Y31989D01*
X-32090Y31996D01*
X-32193Y32075D01*
X-32202Y32077D01*
X-32208Y32083D01*
X-32327Y32133D01*
X-32336D01*
X-32343Y32137D01*
X-32472Y32154D01*
X-32476Y32153D01*
X-32480Y32155D01*
D02*
G37*
G36*
X-6890D02*
X-6894Y32153D01*
X-6898Y32154D01*
X-7027Y32137D01*
X-7034Y32133D01*
X-7043D01*
X-7162Y32083D01*
X-7169Y32077D01*
X-7177Y32075D01*
X-7280Y31996D01*
X-7284Y31989D01*
X-7291Y31984D01*
X-7370Y31882D01*
X-7373Y31873D01*
X-7379Y31867D01*
X-7428Y31747D01*
Y31739D01*
X-7433Y31731D01*
X-7450Y31603D01*
X-7447Y31594D01*
X-7450Y31586D01*
X-7433Y31458D01*
X-7428Y31450D01*
Y31442D01*
X-7379Y31322D01*
X-7373Y31316D01*
X-7370Y31307D01*
X-7291Y31205D01*
X-7284Y31200D01*
X-7280Y31193D01*
X-7177Y31114D01*
X-7169Y31112D01*
X-7162Y31106D01*
X-7043Y31056D01*
X-7034D01*
X-7027Y31052D01*
X-6898Y31035D01*
X-6894Y31036D01*
X-6890Y31034D01*
X-6886Y31036D01*
X-6881Y31035D01*
X-6753Y31052D01*
X-6745Y31056D01*
X-6737D01*
X-6617Y31106D01*
X-6611Y31112D01*
X-6603Y31114D01*
X-6500Y31193D01*
X-6496Y31200D01*
X-6488Y31205D01*
X-6409Y31307D01*
X-6407Y31316D01*
X-6401Y31322D01*
X-6351Y31442D01*
Y31450D01*
X-6347Y31458D01*
X-6330Y31586D01*
X-6332Y31594D01*
X-6330Y31603D01*
X-6347Y31731D01*
X-6351Y31739D01*
Y31747D01*
X-6401Y31867D01*
X-6407Y31873D01*
X-6409Y31882D01*
X-6488Y31984D01*
X-6496Y31989D01*
X-6500Y31996D01*
X-6603Y32075D01*
X-6611Y32077D01*
X-6617Y32083D01*
X-6737Y32133D01*
X-6745D01*
X-6753Y32137D01*
X-6881Y32154D01*
X-6886Y32153D01*
X-6890Y32155D01*
D02*
G37*
G36*
X-9850Y31742D02*
X-9935Y31726D01*
X-10006Y31678D01*
X-10054Y31606D01*
X-10071Y31522D01*
X-10054Y31437D01*
X-10006Y31366D01*
X-9935Y31318D01*
X-9850Y31301D01*
X-9766Y31318D01*
X-9694Y31366D01*
X-9646Y31437D01*
X-9629Y31522D01*
X-9646Y31606D01*
X-9694Y31678D01*
X-9766Y31726D01*
X-9850Y31742D01*
D02*
G37*
G36*
X-13400Y32332D02*
X-13485Y32316D01*
X-13556Y32268D01*
X-13604Y32196D01*
X-13621Y32112D01*
X-13604Y32027D01*
X-13556Y31956D01*
X-13485Y31908D01*
X-13400Y31891D01*
X-13316Y31908D01*
X-13244Y31956D01*
X-13196Y32027D01*
X-13179Y32112D01*
X-13196Y32196D01*
X-13244Y32268D01*
X-13316Y32316D01*
X-13400Y32332D01*
D02*
G37*
G36*
X-7270Y33042D02*
X-7355Y33026D01*
X-7426Y32978D01*
X-7474Y32906D01*
X-7491Y32822D01*
X-7474Y32737D01*
X-7426Y32666D01*
X-7355Y32618D01*
X-7270Y32601D01*
X-7186Y32618D01*
X-7114Y32666D01*
X-7066Y32737D01*
X-7049Y32822D01*
X-7066Y32906D01*
X-7114Y32978D01*
X-7186Y33026D01*
X-7270Y33042D01*
D02*
G37*
G36*
X-22441Y33487D02*
X-22533Y33475D01*
X-22620Y33439D01*
X-22694Y33383D01*
X-22750Y33309D01*
X-22786Y33222D01*
X-22798Y33130D01*
X-22786Y33037D01*
X-22750Y32951D01*
X-22694Y32877D01*
X-22620Y32820D01*
X-22533Y32785D01*
X-22441Y32773D01*
X-22348Y32785D01*
X-22262Y32820D01*
X-22188Y32877D01*
X-22131Y32951D01*
X-22096Y33037D01*
X-22084Y33130D01*
X-22096Y33222D01*
X-22131Y33309D01*
X-22188Y33383D01*
X-22262Y33439D01*
X-22348Y33475D01*
X-22441Y33487D01*
D02*
G37*
G36*
X-4530Y33129D02*
X-4623Y33117D01*
X-4709Y33081D01*
X-4783Y33024D01*
X-4840Y32950D01*
X-4875Y32864D01*
X-4887Y32772D01*
X-4875Y32679D01*
X-4840Y32593D01*
X-4783Y32519D01*
X-4709Y32462D01*
X-4623Y32426D01*
X-4530Y32414D01*
X-4438Y32426D01*
X-4351Y32462D01*
X-4277Y32519D01*
X-4221Y32593D01*
X-4185Y32679D01*
X-4173Y32772D01*
X-4185Y32864D01*
X-4221Y32950D01*
X-4277Y33024D01*
X-4351Y33081D01*
X-4438Y33117D01*
X-4530Y33129D01*
D02*
G37*
G36*
X-3530D02*
X-3623Y33117D01*
X-3709Y33081D01*
X-3783Y33024D01*
X-3840Y32950D01*
X-3875Y32864D01*
X-3887Y32772D01*
X-3875Y32679D01*
X-3840Y32593D01*
X-3783Y32519D01*
X-3709Y32462D01*
X-3623Y32426D01*
X-3530Y32414D01*
X-3438Y32426D01*
X-3351Y32462D01*
X-3277Y32519D01*
X-3221Y32593D01*
X-3185Y32679D01*
X-3173Y32772D01*
X-3185Y32864D01*
X-3221Y32950D01*
X-3277Y33024D01*
X-3351Y33081D01*
X-3438Y33117D01*
X-3530Y33129D01*
D02*
G37*
%LPD*%
D20*
X-12756Y14468D02*
X-10709D01*
D25*
X-21861Y3102D02*
D03*
D26*
Y5464D02*
D03*
D28*
X-19291Y33130D02*
D03*
X-2530Y32772D02*
D03*
X-2310Y13382D02*
D03*
D32*
X-33474Y7827D02*
D03*
D33*
X-28661Y5531D02*
D03*
X-34783D02*
D03*
D35*
X-5586Y4552D02*
D03*
X-4483Y3674D02*
D03*
X-3370Y4552D02*
D03*
D38*
X-29200Y25700D02*
D03*
X-5200Y35300D02*
D03*
X-7300Y22800D02*
D03*
Y28300D02*
D03*
Y25700D02*
D03*
X-1300Y11500D02*
D03*
Y10500D02*
D03*
X-25591Y29528D02*
D03*
X-20866Y38976D02*
D03*
X-25197Y34646D02*
D03*
X-25591Y31890D02*
D03*
X-27165D02*
D03*
X-10870Y23372D02*
D03*
X-11870D02*
D03*
X-12870D02*
D03*
X-13870D02*
D03*
X-14870D02*
D03*
X-15870D02*
D03*
X-16870D02*
D03*
X-17870D02*
D03*
X-18870D02*
D03*
X-19870D02*
D03*
X-20870D02*
D03*
X-21870D02*
D03*
X-22870D02*
D03*
X-23870D02*
D03*
X-24870D02*
D03*
X-25870D02*
D03*
X-26870D02*
D03*
X-27870D02*
D03*
X-28870Y16772D02*
D03*
Y15772D02*
D03*
Y14772D02*
D03*
Y13772D02*
D03*
Y11772D02*
D03*
Y10772D02*
D03*
Y9772D02*
D03*
Y8772D02*
D03*
Y7772D02*
D03*
Y6772D02*
D03*
X-27390Y5132D02*
D03*
X-26220Y5272D02*
D03*
X-25370D02*
D03*
X-23370D02*
D03*
X-24370D02*
D03*
X-18370D02*
D03*
X-17370D02*
D03*
X-13370D02*
D03*
X-12370D02*
D03*
X-11370D02*
D03*
X-10370D02*
D03*
Y8272D02*
D03*
Y9272D02*
D03*
Y11272D02*
D03*
Y23272D02*
D03*
Y22272D02*
D03*
Y21272D02*
D03*
Y20272D02*
D03*
Y19272D02*
D03*
Y18272D02*
D03*
X-8270Y13002D02*
D03*
X-7080Y16942D02*
D03*
X-15470Y2773D02*
D03*
X-15220Y3023D02*
D03*
Y2773D02*
D03*
X-15470Y3023D02*
D03*
X-13670Y3033D02*
D03*
X-13420Y2783D02*
D03*
Y3033D02*
D03*
X-13670Y2783D02*
D03*
X-31050Y12882D02*
D03*
X-33070Y13452D02*
D03*
X-30640Y11181D02*
D03*
X-33185Y11147D02*
D03*
X-35263Y16689D02*
D03*
X-34630Y15142D02*
D03*
X-32555Y17097D02*
D03*
X-30971Y16370D02*
D03*
X-13830Y4452D02*
D03*
X-13580Y4702D02*
D03*
Y4452D02*
D03*
X-13830Y4702D02*
D03*
X-13330Y4452D02*
D03*
Y4702D02*
D03*
X-33185Y38937D02*
D03*
X-9005Y45376D02*
D03*
X-5301Y14537D02*
D03*
X-5695D02*
D03*
X-6088D02*
D03*
Y14143D02*
D03*
Y13750D02*
D03*
X-5695D02*
D03*
X-5301D02*
D03*
Y14143D02*
D03*
X-5695D02*
D03*
D39*
X-10709Y14468D02*
D03*
X-12756D02*
D03*
D40*
X-5486Y3728D02*
Y4552D01*
X-3430Y4132D02*
Y4552D01*
X-4543Y3673D02*
X-4443D01*
X-4642D02*
X-4593D01*
X-4543D01*
X-3889D02*
X-3430Y4132D01*
X-4443Y3673D02*
X-4383D01*
X-4327D01*
X-3889D01*
X-5540D02*
X-5486Y3728D01*
X-5540Y3673D02*
X-4642D01*
D41*
X-34783Y6618D02*
X-33474Y7927D01*
X-34783Y5631D02*
X-28661D01*
X-33185Y11147D02*
Y13337D01*
X-33070Y13452D01*
X-35263Y15244D02*
Y16689D01*
Y15244D02*
X-35160Y15142D01*
X-34630D01*
X-32555Y16977D02*
Y17097D01*
X-34630Y15142D02*
X-34390D01*
X-33161Y16370D02*
X-30971D01*
X-34390Y15142D02*
X-33161Y16370D01*
X-32555Y16977D01*
X-34783Y5631D02*
Y6618D01*
D42*
X-28661Y5631D02*
X-27240D01*
X-32500Y12882D02*
X-31050D01*
X-33070Y13452D02*
X-32500Y12882D01*
X-30640Y11181D02*
X-30570Y11252D01*
Y11952D01*
X-31050Y12432D02*
X-30570Y11952D01*
X-31050Y12432D02*
Y12882D01*
X-27240Y5631D02*
X-22550Y942D01*
X-8680D01*
X-5949Y3673D01*
X-5540D01*
M02*
