G04 Layer_Color=8388736*
%FSLAX24Y24*%
%MOIN*%
G70*
G01*
G75*
%ADD70R,0.0474X0.0395*%
%ADD71R,0.0395X0.0474*%
%ADD72C,0.0787*%
%ADD73R,0.0592X0.1419*%
%ADD74R,0.0690X0.0690*%
%ADD75R,0.1360X0.1360*%
%ADD76R,0.0411X0.0182*%
%ADD77R,0.0182X0.0411*%
%ADD78R,0.1655X0.0730*%
%ADD79C,0.1360*%
%ADD80C,0.0039*%
%ADD81O,0.1655X0.0789*%
%ADD82O,0.1852X0.0789*%
%ADD83C,0.1261*%
%ADD84C,0.0671*%
%ADD85C,0.1064*%
%ADD86C,0.0867*%
%ADD87R,0.0634X0.0634*%
%ADD88C,0.0634*%
%ADD89C,0.1025*%
%ADD90C,0.0630*%
%ADD91O,0.0789X0.0552*%
%ADD92R,0.0671X0.0671*%
%ADD93R,0.0671X0.0671*%
D70*
X-8991Y14747D02*
D03*
Y15417D02*
D03*
Y13527D02*
D03*
Y14197D02*
D03*
X-7080Y16416D02*
D03*
Y15747D02*
D03*
X-7740Y16586D02*
D03*
X-7740Y15917D02*
D03*
X-10276Y14193D02*
D03*
Y13524D02*
D03*
X-9661Y14197D02*
D03*
Y13527D02*
D03*
X-8400Y14196D02*
D03*
Y13527D02*
D03*
X-10276Y15413D02*
D03*
Y14744D02*
D03*
X-9661Y15417D02*
D03*
Y14747D02*
D03*
X-8400Y15416D02*
D03*
Y14747D02*
D03*
X-5400Y16416D02*
D03*
Y15747D02*
D03*
X-6060Y15742D02*
D03*
X-6060Y16411D02*
D03*
X-7760Y14602D02*
D03*
X-7760Y15271D02*
D03*
X-7770Y14051D02*
D03*
X-7770Y13382D02*
D03*
D71*
X-10846Y13760D02*
D03*
X-11516Y13760D02*
D03*
X-10846Y15138D02*
D03*
X-11516Y15138D02*
D03*
X-6175Y12682D02*
D03*
X-6845Y12682D02*
D03*
X-5565Y9902D02*
D03*
X-6235D02*
D03*
X-4855Y9892D02*
D03*
X-4185D02*
D03*
X-9661Y12967D02*
D03*
X-8992D02*
D03*
X-9666Y15982D02*
D03*
X-8997D02*
D03*
X-8995Y16582D02*
D03*
X-8325D02*
D03*
X-8105Y12682D02*
D03*
X-7435D02*
D03*
D72*
X-787Y787D02*
D03*
X-38583Y47539D02*
D03*
X-38583Y787D02*
D03*
D73*
X-21398Y25799D02*
D03*
X-17972D02*
D03*
D74*
X-36919Y9563D02*
D03*
Y11433D02*
D03*
X-33789D02*
D03*
Y9563D02*
D03*
D75*
X-5695Y14143D02*
D03*
D76*
X-4730Y14832D02*
D03*
Y14635D02*
D03*
Y14439D02*
D03*
Y14242D02*
D03*
Y14045D02*
D03*
Y13848D02*
D03*
Y13651D02*
D03*
Y13454D02*
D03*
X-6659D02*
D03*
Y13651D02*
D03*
Y13848D02*
D03*
Y14045D02*
D03*
Y14242D02*
D03*
Y14439D02*
D03*
Y14635D02*
D03*
Y14832D02*
D03*
D77*
X-5006Y13179D02*
D03*
X-5203D02*
D03*
X-5399D02*
D03*
X-5596D02*
D03*
X-5793D02*
D03*
X-5990D02*
D03*
X-6187D02*
D03*
X-6384D02*
D03*
Y15108D02*
D03*
X-6187D02*
D03*
X-5990D02*
D03*
X-5793D02*
D03*
X-5596D02*
D03*
X-5399D02*
D03*
X-5203D02*
D03*
X-5006D02*
D03*
D78*
X-3281Y11377D02*
D03*
X-7328D02*
D03*
D79*
X-14961Y25591D02*
D03*
X-24409D02*
D03*
X-1969Y46358D02*
D03*
X-37402D02*
D03*
Y1969D02*
D03*
X-1969D02*
D03*
X-29472Y4331D02*
D03*
X-33972D02*
D03*
D80*
X-22294Y3102D02*
D03*
X-22186D02*
D03*
X-22029D02*
D03*
X-21861D02*
D03*
X-21733D02*
D03*
X-21586D02*
D03*
X-21428D02*
D03*
X-22393Y5464D02*
D03*
X-22235D02*
D03*
X-22107D02*
D03*
X-21989D02*
D03*
X-21861Y5464D02*
D03*
X-21714Y5464D02*
D03*
X-21586D02*
D03*
X-21458D02*
D03*
X-21330D02*
D03*
X-3528Y4552D02*
D03*
X-5486D02*
D03*
X-5696D02*
D03*
X-5546D02*
D03*
X-5646D02*
D03*
X-5429D02*
D03*
X-5744D02*
D03*
X-4383Y3673D02*
D03*
X-4593D02*
D03*
X-4443D02*
D03*
X-4543D02*
D03*
X-4327D02*
D03*
X-4642D02*
D03*
X-3214Y4552D02*
D03*
X-3430D02*
D03*
X-3330D02*
D03*
X-3480D02*
D03*
X-3270D02*
D03*
D81*
X-21861Y3102D02*
D03*
D82*
Y5464D02*
D03*
D83*
X-34862Y37717D02*
D03*
Y41063D02*
D03*
D84*
X-16929Y33130D02*
D03*
X-17717D02*
D03*
X-18504D02*
D03*
X-19291D02*
D03*
X-20079D02*
D03*
X-20866D02*
D03*
X-21654D02*
D03*
X-22441D02*
D03*
X-4530Y32772D02*
D03*
X-3530Y33772D02*
D03*
Y32772D02*
D03*
X-2530Y33772D02*
D03*
Y32772D02*
D03*
X-2310Y15382D02*
D03*
X-1310Y14382D02*
D03*
X-2310D02*
D03*
X-1310Y13382D02*
D03*
X-2310D02*
D03*
D85*
X-32480Y44626D02*
D03*
X-6890D02*
D03*
Y31594D02*
D03*
X-32480D02*
D03*
D86*
X-28346Y26673D02*
D03*
Y24705D02*
D03*
X-30315D02*
D03*
Y26673D02*
D03*
X-9055D02*
D03*
Y24705D02*
D03*
X-11024D02*
D03*
Y26673D02*
D03*
D87*
X-29970Y6827D02*
D03*
D88*
X-30470Y7827D02*
D03*
X-30970Y6827D02*
D03*
X-31474Y7827D02*
D03*
X-31974Y6827D02*
D03*
X-32474Y7827D02*
D03*
X-32974Y6827D02*
D03*
X-33474Y7827D02*
D03*
D89*
X-28661Y5531D02*
D03*
X-34783D02*
D03*
D90*
X-30231Y3000D02*
D03*
X-29231Y2402D02*
D03*
X-34212Y3000D02*
D03*
X-33212Y2402D02*
D03*
D91*
X-5586Y4552D02*
D03*
X-4483Y3674D02*
D03*
X-3370Y4552D02*
D03*
D92*
X-4530Y33772D02*
D03*
D93*
X-1310Y15382D02*
D03*
M02*
