G04 Layer_Physical_Order=3*
G04 Layer_Color=16440176*
%FSLAX24Y24*%
%MOIN*%
G70*
G01*
G75*
%ADD25O,0.1575X0.0709*%
%ADD26O,0.1772X0.0709*%
%ADD27C,0.1181*%
%ADD28C,0.0591*%
%ADD30C,0.0787*%
%ADD34C,0.0550*%
%ADD35O,0.0709X0.0472*%
%ADD38C,0.0315*%
%ADD39C,0.0236*%
%ADD40C,0.0100*%
%ADD41C,0.0394*%
%ADD42C,0.0315*%
G36*
X-151Y151D02*
X-39219D01*
Y48175D01*
X-151D01*
Y151D01*
D02*
G37*
%LPC*%
G36*
X-28870Y11992D02*
X-28955Y11976D01*
X-29026Y11928D01*
X-29074Y11856D01*
X-29091Y11772D01*
X-29074Y11687D01*
X-29026Y11616D01*
X-28955Y11568D01*
X-28870Y11551D01*
X-28786Y11568D01*
X-28714Y11616D01*
X-28666Y11687D01*
X-28649Y11772D01*
X-28666Y11856D01*
X-28714Y11928D01*
X-28786Y11976D01*
X-28870Y11992D01*
D02*
G37*
G36*
X-6432Y13070D02*
X-6501Y13057D01*
X-6560Y13018D01*
X-6599Y12959D01*
X-6613Y12890D01*
X-6599Y12821D01*
X-6560Y12762D01*
X-6501Y12723D01*
X-6432Y12709D01*
X-6363Y12723D01*
X-6304Y12762D01*
X-6265Y12821D01*
X-6251Y12890D01*
X-6265Y12959D01*
X-6304Y13018D01*
X-6363Y13057D01*
X-6432Y13070D01*
D02*
G37*
G36*
X-1300Y11721D02*
X-1384Y11704D01*
X-1456Y11656D01*
X-1504Y11584D01*
X-1521Y11500D01*
X-1504Y11416D01*
X-1456Y11344D01*
X-1384Y11296D01*
X-1300Y11279D01*
X-1216Y11296D01*
X-1144Y11344D01*
X-1096Y11416D01*
X-1079Y11500D01*
X-1096Y11584D01*
X-1144Y11656D01*
X-1216Y11704D01*
X-1300Y11721D01*
D02*
G37*
G36*
X-10370Y11492D02*
X-10455Y11476D01*
X-10526Y11428D01*
X-10574Y11356D01*
X-10591Y11272D01*
X-10574Y11187D01*
X-10526Y11116D01*
X-10455Y11068D01*
X-10370Y11051D01*
X-10286Y11068D01*
X-10214Y11116D01*
X-10166Y11187D01*
X-10149Y11272D01*
X-10166Y11356D01*
X-10214Y11428D01*
X-10286Y11476D01*
X-10370Y11492D01*
D02*
G37*
G36*
X-32500Y11607D02*
X-32585Y11590D01*
X-32656Y11542D01*
X-32704Y11471D01*
X-32721Y11386D01*
X-32704Y11302D01*
X-32656Y11230D01*
X-32585Y11182D01*
X-32500Y11166D01*
X-32416Y11182D01*
X-32344Y11230D01*
X-32296Y11302D01*
X-32279Y11386D01*
X-32296Y11471D01*
X-32344Y11542D01*
X-32416Y11590D01*
X-32500Y11607D01*
D02*
G37*
G36*
X-1310Y13739D02*
X-1403Y13727D01*
X-1489Y13691D01*
X-1563Y13634D01*
X-1620Y13560D01*
X-1655Y13474D01*
X-1667Y13382D01*
X-1655Y13289D01*
X-1620Y13203D01*
X-1563Y13129D01*
X-1489Y13072D01*
X-1403Y13036D01*
X-1310Y13024D01*
X-1218Y13036D01*
X-1131Y13072D01*
X-1057Y13129D01*
X-1001Y13203D01*
X-965Y13289D01*
X-953Y13382D01*
X-965Y13474D01*
X-1001Y13560D01*
X-1057Y13634D01*
X-1131Y13691D01*
X-1218Y13727D01*
X-1310Y13739D01*
D02*
G37*
G36*
X-33855Y18564D02*
X-33932Y18554D01*
X-34004Y18525D01*
X-34066Y18477D01*
X-34113Y18416D01*
X-34143Y18344D01*
X-34153Y18267D01*
Y17314D01*
Y16937D01*
Y16160D01*
X-34199Y16114D01*
X-34795D01*
X-34873Y16104D01*
X-34944Y16074D01*
X-35006Y16027D01*
X-35053Y15965D01*
X-35083Y15893D01*
X-35093Y15816D01*
X-35083Y15739D01*
X-35053Y15667D01*
X-35006Y15606D01*
X-34944Y15558D01*
X-34873Y15529D01*
X-34795Y15518D01*
X-34075D01*
X-33998Y15529D01*
X-33927Y15558D01*
X-33865Y15606D01*
X-33732Y15739D01*
X-33348D01*
X-32908Y15298D01*
Y14602D01*
X-32898Y14525D01*
X-32868Y14453D01*
X-32821Y14391D01*
X-32681Y14251D01*
X-32619Y14204D01*
X-32547Y14174D01*
X-32470Y14164D01*
X-32470Y14164D01*
X-30928D01*
Y13116D01*
X-30978Y13088D01*
X-31050Y13102D01*
X-31135Y13086D01*
X-31206Y13038D01*
X-31254Y12966D01*
X-31271Y12882D01*
X-31254Y12797D01*
X-31206Y12726D01*
X-31135Y12678D01*
X-31050Y12661D01*
X-30966Y12678D01*
X-30931Y12701D01*
X-30890Y12722D01*
X-30863Y12691D01*
X-30841Y12661D01*
X-30779Y12614D01*
X-30707Y12584D01*
X-30630Y12574D01*
X-30595Y12578D01*
X-30299D01*
Y11122D01*
X-30290Y11055D01*
X-30264Y10993D01*
X-30223Y10939D01*
X-30169Y10898D01*
X-30107Y10873D01*
X-30040Y10864D01*
X-29974Y10873D01*
X-29911Y10898D01*
X-29858Y10939D01*
X-29817Y10993D01*
X-29791Y11055D01*
X-29782Y11122D01*
Y12578D01*
X-28815D01*
X-28738Y12589D01*
X-28667Y12618D01*
X-28605Y12666D01*
X-28558Y12727D01*
X-28528Y12799D01*
X-28518Y12876D01*
X-28528Y12953D01*
X-28558Y13025D01*
X-28605Y13087D01*
X-28667Y13134D01*
X-28738Y13164D01*
X-28815Y13174D01*
X-30332D01*
Y14632D01*
X-30334Y14648D01*
X-30334Y14665D01*
X-30340Y14687D01*
X-30342Y14709D01*
X-30349Y14724D01*
X-30353Y14741D01*
X-30364Y14760D01*
X-30372Y14781D01*
X-30382Y14794D01*
X-30391Y14809D01*
X-30406Y14825D01*
X-30419Y14842D01*
X-30433Y14853D01*
X-30445Y14865D01*
X-30464Y14876D01*
X-30481Y14890D01*
X-30497Y14896D01*
X-30511Y14905D01*
X-30533Y14911D01*
X-30553Y14919D01*
X-30570Y14922D01*
X-30586Y14926D01*
X-30608Y14927D01*
X-30630Y14929D01*
X-30647Y14927D01*
X-30664Y14928D01*
X-30685Y14922D01*
X-30707Y14919D01*
X-30723Y14913D01*
X-30739Y14909D01*
X-30758Y14898D01*
X-30779Y14890D01*
X-30792Y14879D01*
X-30807Y14871D01*
X-30958Y14759D01*
X-32312D01*
Y15422D01*
X-32322Y15499D01*
X-32352Y15571D01*
X-32399Y15632D01*
X-32399Y15632D01*
X-33014Y16247D01*
X-33076Y16295D01*
X-33148Y16324D01*
X-33225Y16334D01*
X-33557D01*
Y16937D01*
Y17314D01*
Y18267D01*
X-33567Y18344D01*
X-33597Y18416D01*
X-33644Y18477D01*
X-33706Y18525D01*
X-33778Y18554D01*
X-33855Y18564D01*
D02*
G37*
G36*
X-2310Y13739D02*
X-2403Y13727D01*
X-2489Y13691D01*
X-2563Y13634D01*
X-2620Y13560D01*
X-2655Y13474D01*
X-2667Y13382D01*
X-2655Y13289D01*
X-2620Y13203D01*
X-2563Y13129D01*
X-2489Y13072D01*
X-2403Y13036D01*
X-2310Y13024D01*
X-2218Y13036D01*
X-2131Y13072D01*
X-2057Y13129D01*
X-2001Y13203D01*
X-1965Y13289D01*
X-1953Y13382D01*
X-1965Y13474D01*
X-2001Y13560D01*
X-2057Y13634D01*
X-2131Y13691D01*
X-2218Y13727D01*
X-2310Y13739D01*
D02*
G37*
G36*
X-3180Y13182D02*
X-3265Y13166D01*
X-3336Y13118D01*
X-3384Y13046D01*
X-3401Y12962D01*
X-3384Y12877D01*
X-3336Y12806D01*
X-3265Y12758D01*
X-3180Y12741D01*
X-3096Y12758D01*
X-3024Y12806D01*
X-2976Y12877D01*
X-2959Y12962D01*
X-2976Y13046D01*
X-3024Y13118D01*
X-3096Y13166D01*
X-3180Y13182D01*
D02*
G37*
G36*
X-8270Y13222D02*
X-8355Y13206D01*
X-8426Y13158D01*
X-8474Y13086D01*
X-8491Y13002D01*
X-8474Y12917D01*
X-8426Y12846D01*
X-8355Y12798D01*
X-8270Y12781D01*
X-8186Y12798D01*
X-8114Y12846D01*
X-8066Y12917D01*
X-8049Y13002D01*
X-8066Y13086D01*
X-8114Y13158D01*
X-8186Y13206D01*
X-8270Y13222D01*
D02*
G37*
G36*
X-28870Y8992D02*
X-28955Y8976D01*
X-29026Y8928D01*
X-29074Y8856D01*
X-29091Y8772D01*
X-29074Y8687D01*
X-29026Y8616D01*
X-28955Y8568D01*
X-28870Y8551D01*
X-28786Y8568D01*
X-28714Y8616D01*
X-28666Y8687D01*
X-28649Y8772D01*
X-28666Y8856D01*
X-28714Y8928D01*
X-28786Y8976D01*
X-28870Y8992D01*
D02*
G37*
G36*
X-10370Y9492D02*
X-10455Y9476D01*
X-10526Y9428D01*
X-10574Y9356D01*
X-10591Y9272D01*
X-10574Y9187D01*
X-10526Y9116D01*
X-10455Y9068D01*
X-10370Y9051D01*
X-10286Y9068D01*
X-10214Y9116D01*
X-10166Y9187D01*
X-10149Y9272D01*
X-10166Y9356D01*
X-10214Y9428D01*
X-10286Y9476D01*
X-10370Y9492D01*
D02*
G37*
G36*
X-31620Y8652D02*
X-31689Y8639D01*
X-31748Y8599D01*
X-31787Y8541D01*
X-31801Y8472D01*
X-31787Y8403D01*
X-31748Y8344D01*
X-31689Y8305D01*
X-31620Y8291D01*
X-31551Y8305D01*
X-31492Y8344D01*
X-31453Y8403D01*
X-31439Y8472D01*
X-31453Y8541D01*
X-31492Y8599D01*
X-31551Y8639D01*
X-31620Y8652D01*
D02*
G37*
G36*
X-29700Y8031D02*
X-29769Y8017D01*
X-29828Y7978D01*
X-29867Y7919D01*
X-29881Y7850D01*
X-29867Y7781D01*
X-29828Y7722D01*
X-29769Y7683D01*
X-29700Y7669D01*
X-29631Y7683D01*
X-29572Y7722D01*
X-29533Y7781D01*
X-29519Y7850D01*
X-29533Y7919D01*
X-29572Y7978D01*
X-29631Y8017D01*
X-29700Y8031D01*
D02*
G37*
G36*
X-10370Y8492D02*
X-10455Y8476D01*
X-10526Y8428D01*
X-10574Y8356D01*
X-10591Y8272D01*
X-10574Y8187D01*
X-10526Y8116D01*
X-10455Y8068D01*
X-10370Y8051D01*
X-10286Y8068D01*
X-10214Y8116D01*
X-10166Y8187D01*
X-10149Y8272D01*
X-10166Y8356D01*
X-10214Y8428D01*
X-10286Y8476D01*
X-10370Y8492D01*
D02*
G37*
G36*
X-33185Y11367D02*
X-33270Y11351D01*
X-33341Y11303D01*
X-33389Y11231D01*
X-33406Y11147D01*
X-33389Y11062D01*
X-33341Y10991D01*
X-33270Y10943D01*
X-33185Y10926D01*
X-33101Y10943D01*
X-33029Y10991D01*
X-32981Y11062D01*
X-32964Y11147D01*
X-32981Y11231D01*
X-33029Y11303D01*
X-33101Y11351D01*
X-33185Y11367D01*
D02*
G37*
G36*
X-30970Y11648D02*
X-31055Y11631D01*
X-31126Y11583D01*
X-31174Y11511D01*
X-31191Y11427D01*
X-31174Y11343D01*
X-31126Y11271D01*
X-31055Y11223D01*
X-30970Y11206D01*
X-30905Y11219D01*
X-30861Y11184D01*
X-30861Y11181D01*
X-30844Y11097D01*
X-30797Y11025D01*
X-30725Y10977D01*
X-30640Y10961D01*
X-30556Y10977D01*
X-30484Y11025D01*
X-30436Y11097D01*
X-30420Y11181D01*
X-30436Y11266D01*
X-30484Y11337D01*
X-30556Y11385D01*
X-30640Y11402D01*
X-30706Y11389D01*
X-30750Y11424D01*
X-30749Y11427D01*
X-30766Y11511D01*
X-30814Y11583D01*
X-30886Y11631D01*
X-30970Y11648D01*
D02*
G37*
G36*
X-28870Y10992D02*
X-28955Y10976D01*
X-29026Y10928D01*
X-29074Y10856D01*
X-29091Y10772D01*
X-29074Y10687D01*
X-29026Y10616D01*
X-28955Y10568D01*
X-28870Y10551D01*
X-28786Y10568D01*
X-28714Y10616D01*
X-28666Y10687D01*
X-28649Y10772D01*
X-28666Y10856D01*
X-28714Y10928D01*
X-28786Y10976D01*
X-28870Y10992D01*
D02*
G37*
G36*
Y9992D02*
X-28955Y9976D01*
X-29026Y9928D01*
X-29074Y9856D01*
X-29091Y9772D01*
X-29074Y9687D01*
X-29026Y9616D01*
X-28955Y9568D01*
X-28870Y9551D01*
X-28786Y9568D01*
X-28714Y9616D01*
X-28666Y9687D01*
X-28649Y9772D01*
X-28666Y9856D01*
X-28714Y9928D01*
X-28786Y9976D01*
X-28870Y9992D01*
D02*
G37*
G36*
X-1300Y10721D02*
X-1384Y10704D01*
X-1456Y10656D01*
X-1504Y10584D01*
X-1521Y10500D01*
X-1504Y10416D01*
X-1456Y10344D01*
X-1384Y10296D01*
X-1300Y10279D01*
X-1216Y10296D01*
X-1144Y10344D01*
X-1096Y10416D01*
X-1079Y10500D01*
X-1096Y10584D01*
X-1144Y10656D01*
X-1216Y10704D01*
X-1300Y10721D01*
D02*
G37*
G36*
X-33070Y13672D02*
X-33155Y13656D01*
X-33226Y13608D01*
X-33274Y13536D01*
X-33291Y13452D01*
X-33274Y13367D01*
X-33226Y13296D01*
X-33155Y13248D01*
X-33070Y13231D01*
X-32986Y13248D01*
X-32914Y13296D01*
X-32866Y13367D01*
X-32849Y13452D01*
X-32866Y13536D01*
X-32914Y13608D01*
X-32986Y13656D01*
X-33070Y13672D01*
D02*
G37*
G36*
X-28870Y16992D02*
X-28955Y16976D01*
X-29026Y16928D01*
X-29074Y16856D01*
X-29091Y16772D01*
X-29074Y16687D01*
X-29026Y16616D01*
X-28955Y16568D01*
X-28870Y16551D01*
X-28786Y16568D01*
X-28714Y16616D01*
X-28666Y16687D01*
X-28649Y16772D01*
X-28666Y16856D01*
X-28714Y16928D01*
X-28786Y16976D01*
X-28870Y16992D01*
D02*
G37*
G36*
X-7080Y17162D02*
X-7165Y17146D01*
X-7236Y17098D01*
X-7284Y17026D01*
X-7301Y16942D01*
X-7284Y16857D01*
X-7236Y16786D01*
X-7165Y16738D01*
X-7080Y16721D01*
X-6996Y16738D01*
X-6924Y16786D01*
X-6876Y16857D01*
X-6859Y16942D01*
X-6876Y17026D01*
X-6924Y17098D01*
X-6996Y17146D01*
X-7080Y17162D01*
D02*
G37*
G36*
X-35263Y16910D02*
X-35347Y16893D01*
X-35419Y16845D01*
X-35467Y16773D01*
X-35484Y16689D01*
X-35467Y16604D01*
X-35419Y16533D01*
X-35347Y16485D01*
X-35263Y16468D01*
X-35178Y16485D01*
X-35107Y16533D01*
X-35059Y16604D01*
X-35042Y16689D01*
X-35059Y16773D01*
X-35107Y16845D01*
X-35178Y16893D01*
X-35263Y16910D01*
D02*
G37*
G36*
X-8140Y16072D02*
X-8209Y16059D01*
X-8268Y16019D01*
X-8307Y15961D01*
X-8321Y15892D01*
X-8307Y15823D01*
X-8268Y15764D01*
X-8209Y15725D01*
X-8140Y15711D01*
X-8071Y15725D01*
X-8012Y15764D01*
X-7973Y15823D01*
X-7959Y15892D01*
X-7973Y15961D01*
X-8012Y16019D01*
X-8071Y16059D01*
X-8140Y16072D01*
D02*
G37*
G36*
X-30971Y16591D02*
X-31056Y16574D01*
X-31128Y16526D01*
X-31175Y16455D01*
X-31192Y16370D01*
X-31175Y16286D01*
X-31128Y16214D01*
X-31056Y16166D01*
X-30971Y16150D01*
X-30887Y16166D01*
X-30815Y16214D01*
X-30767Y16286D01*
X-30751Y16370D01*
X-30767Y16455D01*
X-30815Y16526D01*
X-30887Y16574D01*
X-30971Y16591D01*
D02*
G37*
G36*
X-30530Y20732D02*
X-30615Y20716D01*
X-30686Y20668D01*
X-30734Y20596D01*
X-30751Y20512D01*
X-30734Y20427D01*
X-30686Y20356D01*
X-30615Y20308D01*
X-30581Y20301D01*
X-30573Y20287D01*
X-30564Y20247D01*
X-30604Y20186D01*
X-30621Y20102D01*
X-30604Y20017D01*
X-30556Y19946D01*
X-30485Y19898D01*
X-30430Y19887D01*
X-30404Y19836D01*
X-30404Y19835D01*
X-30421Y19752D01*
X-30404Y19667D01*
X-30356Y19596D01*
X-30285Y19548D01*
X-30200Y19531D01*
X-30149Y19541D01*
X-30109Y19508D01*
X-30104Y19500D01*
X-30091Y19436D01*
X-30052Y19378D01*
X-29994Y19339D01*
X-29924Y19325D01*
X-29855Y19339D01*
X-29797Y19378D01*
X-29758Y19436D01*
X-29744Y19505D01*
X-29758Y19575D01*
X-29797Y19633D01*
X-29855Y19672D01*
X-29924Y19686D01*
X-29942Y19683D01*
X-29985Y19725D01*
X-29979Y19752D01*
X-29996Y19836D01*
X-30044Y19908D01*
X-30116Y19956D01*
X-30170Y19966D01*
X-30196Y20017D01*
X-30196Y20019D01*
X-30179Y20102D01*
X-30196Y20186D01*
X-30244Y20258D01*
X-30316Y20306D01*
X-30349Y20312D01*
X-30357Y20327D01*
X-30366Y20367D01*
X-30326Y20427D01*
X-30309Y20512D01*
X-30326Y20596D01*
X-30374Y20668D01*
X-30446Y20716D01*
X-30530Y20732D01*
D02*
G37*
G36*
X-10370Y20492D02*
X-10455Y20476D01*
X-10526Y20428D01*
X-10574Y20356D01*
X-10591Y20272D01*
X-10574Y20187D01*
X-10526Y20116D01*
X-10455Y20068D01*
X-10370Y20051D01*
X-10286Y20068D01*
X-10214Y20116D01*
X-10166Y20187D01*
X-10149Y20272D01*
X-10166Y20356D01*
X-10214Y20428D01*
X-10286Y20476D01*
X-10370Y20492D01*
D02*
G37*
G36*
Y19492D02*
X-10455Y19476D01*
X-10526Y19428D01*
X-10574Y19356D01*
X-10591Y19272D01*
X-10574Y19187D01*
X-10526Y19116D01*
X-10455Y19068D01*
X-10370Y19051D01*
X-10286Y19068D01*
X-10214Y19116D01*
X-10166Y19187D01*
X-10149Y19272D01*
X-10166Y19356D01*
X-10214Y19428D01*
X-10286Y19476D01*
X-10370Y19492D01*
D02*
G37*
G36*
X-32555Y17318D02*
X-32639Y17301D01*
X-32711Y17253D01*
X-32759Y17181D01*
X-32776Y17097D01*
X-32759Y17012D01*
X-32711Y16941D01*
X-32639Y16893D01*
X-32555Y16876D01*
X-32470Y16893D01*
X-32399Y16941D01*
X-32351Y17012D01*
X-32334Y17097D01*
X-32351Y17181D01*
X-32399Y17253D01*
X-32470Y17301D01*
X-32555Y17318D01*
D02*
G37*
G36*
X-10370Y18492D02*
X-10455Y18476D01*
X-10526Y18428D01*
X-10574Y18356D01*
X-10591Y18272D01*
X-10574Y18187D01*
X-10526Y18116D01*
X-10455Y18068D01*
X-10370Y18051D01*
X-10286Y18068D01*
X-10214Y18116D01*
X-10166Y18187D01*
X-10149Y18272D01*
X-10166Y18356D01*
X-10214Y18428D01*
X-10286Y18476D01*
X-10370Y18492D01*
D02*
G37*
G36*
X-10709Y14649D02*
X-10778Y14635D01*
X-10836Y14596D01*
X-10876Y14538D01*
X-10889Y14468D01*
X-10876Y14399D01*
X-10836Y14341D01*
X-10778Y14302D01*
X-10709Y14288D01*
X-10640Y14302D01*
X-10581Y14341D01*
X-10542Y14399D01*
X-10528Y14468D01*
X-10542Y14538D01*
X-10581Y14596D01*
X-10640Y14635D01*
X-10709Y14649D01*
D02*
G37*
G36*
X-28870Y14992D02*
X-28955Y14976D01*
X-29026Y14928D01*
X-29074Y14856D01*
X-29091Y14772D01*
X-29074Y14687D01*
X-29026Y14616D01*
X-28955Y14568D01*
X-28870Y14551D01*
X-28786Y14568D01*
X-28714Y14616D01*
X-28666Y14687D01*
X-28649Y14772D01*
X-28666Y14856D01*
X-28714Y14928D01*
X-28786Y14976D01*
X-28870Y14992D01*
D02*
G37*
G36*
X-1310Y14739D02*
X-1403Y14727D01*
X-1489Y14691D01*
X-1563Y14634D01*
X-1620Y14560D01*
X-1655Y14474D01*
X-1667Y14382D01*
X-1655Y14289D01*
X-1620Y14203D01*
X-1563Y14129D01*
X-1489Y14072D01*
X-1403Y14036D01*
X-1310Y14024D01*
X-1218Y14036D01*
X-1131Y14072D01*
X-1057Y14129D01*
X-1001Y14203D01*
X-965Y14289D01*
X-953Y14382D01*
X-965Y14474D01*
X-1001Y14560D01*
X-1057Y14634D01*
X-1131Y14691D01*
X-1218Y14727D01*
X-1310Y14739D01*
D02*
G37*
G36*
X-28870Y13992D02*
X-28955Y13976D01*
X-29026Y13928D01*
X-29074Y13856D01*
X-29091Y13772D01*
X-29074Y13687D01*
X-29026Y13616D01*
X-28955Y13568D01*
X-28870Y13551D01*
X-28786Y13568D01*
X-28714Y13616D01*
X-28666Y13687D01*
X-28649Y13772D01*
X-28666Y13856D01*
X-28714Y13928D01*
X-28786Y13976D01*
X-28870Y13992D01*
D02*
G37*
G36*
X-2310Y14739D02*
X-2403Y14727D01*
X-2489Y14691D01*
X-2563Y14634D01*
X-2620Y14560D01*
X-2655Y14474D01*
X-2667Y14382D01*
X-2655Y14289D01*
X-2620Y14203D01*
X-2563Y14129D01*
X-2489Y14072D01*
X-2403Y14036D01*
X-2310Y14024D01*
X-2218Y14036D01*
X-2131Y14072D01*
X-2057Y14129D01*
X-2001Y14203D01*
X-1965Y14289D01*
X-1953Y14382D01*
X-1965Y14474D01*
X-2001Y14560D01*
X-2057Y14634D01*
X-2131Y14691D01*
X-2218Y14727D01*
X-2310Y14739D01*
D02*
G37*
G36*
Y15739D02*
X-2403Y15727D01*
X-2489Y15691D01*
X-2563Y15634D01*
X-2620Y15560D01*
X-2655Y15474D01*
X-2667Y15382D01*
X-2655Y15289D01*
X-2620Y15203D01*
X-2563Y15129D01*
X-2489Y15072D01*
X-2403Y15036D01*
X-2310Y15024D01*
X-2218Y15036D01*
X-2131Y15072D01*
X-2057Y15129D01*
X-2001Y15203D01*
X-1965Y15289D01*
X-1953Y15382D01*
X-1965Y15474D01*
X-2001Y15560D01*
X-2057Y15634D01*
X-2131Y15691D01*
X-2218Y15727D01*
X-2310Y15739D01*
D02*
G37*
G36*
X-28870Y15992D02*
X-28955Y15976D01*
X-29026Y15928D01*
X-29074Y15856D01*
X-29091Y15772D01*
X-29074Y15687D01*
X-29026Y15616D01*
X-28955Y15568D01*
X-28870Y15551D01*
X-28786Y15568D01*
X-28714Y15616D01*
X-28666Y15687D01*
X-28649Y15772D01*
X-28666Y15856D01*
X-28714Y15928D01*
X-28786Y15976D01*
X-28870Y15992D01*
D02*
G37*
G36*
X-1015Y15741D02*
X-1605D01*
X-1651Y15722D01*
X-1669Y15677D01*
Y15086D01*
X-1651Y15041D01*
X-1605Y15022D01*
X-1015D01*
X-970Y15041D01*
X-951Y15086D01*
Y15677D01*
X-970Y15722D01*
X-1015Y15741D01*
D02*
G37*
G36*
X-5301Y14758D02*
X-5385Y14741D01*
X-5457Y14693D01*
X-5473Y14670D01*
X-5523D01*
X-5539Y14693D01*
X-5610Y14741D01*
X-5695Y14758D01*
X-5779Y14741D01*
X-5851Y14693D01*
X-5867Y14670D01*
X-5917D01*
X-5932Y14693D01*
X-6004Y14741D01*
X-6088Y14758D01*
X-6173Y14741D01*
X-6244Y14693D01*
X-6292Y14621D01*
X-6309Y14537D01*
X-6292Y14452D01*
X-6244Y14381D01*
X-6221Y14365D01*
Y14315D01*
X-6244Y14299D01*
X-6292Y14228D01*
X-6309Y14143D01*
X-6292Y14059D01*
X-6244Y13987D01*
X-6221Y13971D01*
Y13921D01*
X-6244Y13906D01*
X-6292Y13834D01*
X-6309Y13750D01*
X-6292Y13665D01*
X-6244Y13593D01*
X-6173Y13546D01*
X-6088Y13529D01*
X-6004Y13546D01*
X-5932Y13593D01*
X-5917Y13617D01*
X-5867D01*
X-5851Y13593D01*
X-5779Y13546D01*
X-5695Y13529D01*
X-5610Y13546D01*
X-5539Y13593D01*
X-5523Y13617D01*
X-5473D01*
X-5457Y13593D01*
X-5385Y13546D01*
X-5301Y13529D01*
X-5216Y13546D01*
X-5145Y13593D01*
X-5097Y13665D01*
X-5080Y13750D01*
X-5097Y13834D01*
X-5145Y13906D01*
X-5168Y13921D01*
Y13971D01*
X-5145Y13987D01*
X-5097Y14059D01*
X-5080Y14143D01*
X-5097Y14228D01*
X-5145Y14299D01*
X-5168Y14315D01*
Y14365D01*
X-5145Y14381D01*
X-5097Y14452D01*
X-5080Y14537D01*
X-5097Y14621D01*
X-5145Y14693D01*
X-5216Y14741D01*
X-5301Y14758D01*
D02*
G37*
G36*
X-34630Y15362D02*
X-34715Y15346D01*
X-34786Y15298D01*
X-34834Y15226D01*
X-34851Y15142D01*
X-34834Y15057D01*
X-34786Y14986D01*
X-34715Y14938D01*
X-34630Y14921D01*
X-34546Y14938D01*
X-34474Y14986D01*
X-34426Y15057D01*
X-34409Y15142D01*
X-34426Y15226D01*
X-34474Y15298D01*
X-34546Y15346D01*
X-34630Y15362D01*
D02*
G37*
G36*
X-6900Y8002D02*
X-6985Y7986D01*
X-7056Y7938D01*
X-7104Y7866D01*
X-7121Y7782D01*
X-7104Y7697D01*
X-7056Y7626D01*
X-6985Y7578D01*
X-6900Y7561D01*
X-6816Y7578D01*
X-6744Y7626D01*
X-6696Y7697D01*
X-6679Y7782D01*
X-6696Y7866D01*
X-6744Y7938D01*
X-6816Y7986D01*
X-6900Y8002D01*
D02*
G37*
G36*
X-27390Y5352D02*
X-27475Y5336D01*
X-27546Y5288D01*
X-27594Y5216D01*
X-27611Y5132D01*
X-27594Y5047D01*
X-27546Y4976D01*
X-27475Y4928D01*
X-27390Y4911D01*
X-27306Y4928D01*
X-27234Y4976D01*
X-27186Y5047D01*
X-27169Y5132D01*
X-27186Y5216D01*
X-27234Y5288D01*
X-27306Y5336D01*
X-27390Y5352D01*
D02*
G37*
G36*
X-4540Y5402D02*
X-4625Y5386D01*
X-4696Y5338D01*
X-4744Y5266D01*
X-4761Y5182D01*
X-4744Y5097D01*
X-4696Y5026D01*
X-4625Y4978D01*
X-4540Y4961D01*
X-4456Y4978D01*
X-4384Y5026D01*
X-4336Y5097D01*
X-4319Y5182D01*
X-4336Y5266D01*
X-4384Y5338D01*
X-4456Y5386D01*
X-4540Y5402D01*
D02*
G37*
G36*
X-17040Y4952D02*
X-17125Y4936D01*
X-17196Y4888D01*
X-17244Y4816D01*
X-17261Y4732D01*
X-17244Y4647D01*
X-17196Y4576D01*
X-17125Y4528D01*
X-17040Y4511D01*
X-16956Y4528D01*
X-16884Y4576D01*
X-16836Y4647D01*
X-16819Y4732D01*
X-16836Y4816D01*
X-16884Y4888D01*
X-16956Y4936D01*
X-17040Y4952D01*
D02*
G37*
G36*
X-5467Y4849D02*
X-5704D01*
X-5781Y4839D01*
X-5853Y4810D01*
X-5914Y4762D01*
X-5962Y4701D01*
X-5991Y4629D01*
X-6002Y4552D01*
X-5991Y4475D01*
X-5962Y4403D01*
X-5914Y4341D01*
X-5853Y4294D01*
X-5781Y4264D01*
X-5704Y4254D01*
X-5467D01*
X-5390Y4264D01*
X-5319Y4294D01*
X-5257Y4341D01*
X-5210Y4403D01*
X-5180Y4475D01*
X-5170Y4552D01*
X-5180Y4629D01*
X-5210Y4701D01*
X-5257Y4762D01*
X-5319Y4810D01*
X-5390Y4839D01*
X-5467Y4849D01*
D02*
G37*
G36*
X-3252D02*
X-3488D01*
X-3565Y4839D01*
X-3637Y4810D01*
X-3699Y4762D01*
X-3746Y4701D01*
X-3776Y4629D01*
X-3786Y4552D01*
X-3776Y4475D01*
X-3746Y4403D01*
X-3699Y4341D01*
X-3637Y4294D01*
X-3565Y4264D01*
X-3488Y4254D01*
X-3252D01*
X-3175Y4264D01*
X-3103Y4294D01*
X-3041Y4341D01*
X-2994Y4403D01*
X-2964Y4475D01*
X-2954Y4552D01*
X-2964Y4629D01*
X-2994Y4701D01*
X-3041Y4762D01*
X-3103Y4810D01*
X-3175Y4839D01*
X-3252Y4849D01*
D02*
G37*
G36*
X-26220Y5492D02*
X-26305Y5476D01*
X-26376Y5428D01*
X-26424Y5356D01*
X-26441Y5272D01*
X-26424Y5187D01*
X-26376Y5116D01*
X-26305Y5068D01*
X-26220Y5051D01*
X-26136Y5068D01*
X-26064Y5116D01*
X-26016Y5187D01*
X-25999Y5272D01*
X-26016Y5356D01*
X-26064Y5428D01*
X-26136Y5476D01*
X-26220Y5492D01*
D02*
G37*
G36*
X-25370D02*
X-25455Y5476D01*
X-25526Y5428D01*
X-25574Y5356D01*
X-25591Y5272D01*
X-25574Y5187D01*
X-25526Y5116D01*
X-25455Y5068D01*
X-25370Y5051D01*
X-25286Y5068D01*
X-25214Y5116D01*
X-25166Y5187D01*
X-25149Y5272D01*
X-25166Y5356D01*
X-25214Y5428D01*
X-25286Y5476D01*
X-25370Y5492D01*
D02*
G37*
G36*
X-29472Y5037D02*
X-29475Y5036D01*
X-29478Y5037D01*
X-29603Y5025D01*
X-29609Y5022D01*
X-29616Y5022D01*
X-29736Y4986D01*
X-29741Y4982D01*
X-29748Y4981D01*
X-29859Y4922D01*
X-29863Y4917D01*
X-29869Y4915D01*
X-29967Y4835D01*
X-29970Y4829D01*
X-29976Y4826D01*
X-30056Y4728D01*
X-30057Y4722D01*
X-30063Y4718D01*
X-30122Y4607D01*
X-30123Y4600D01*
X-30127Y4595D01*
X-30163Y4475D01*
X-30163Y4468D01*
X-30166Y4462D01*
X-30178Y4337D01*
X-30176Y4331D01*
X-30178Y4324D01*
X-30166Y4199D01*
X-30163Y4193D01*
X-30163Y4187D01*
X-30127Y4066D01*
X-30123Y4061D01*
X-30122Y4055D01*
X-30063Y3943D01*
X-30057Y3939D01*
X-30056Y3933D01*
X-29976Y3836D01*
X-29970Y3832D01*
X-29967Y3827D01*
X-29869Y3747D01*
X-29863Y3745D01*
X-29859Y3740D01*
X-29748Y3680D01*
X-29741Y3680D01*
X-29736Y3676D01*
X-29616Y3639D01*
X-29609Y3640D01*
X-29603Y3637D01*
X-29478Y3624D01*
X-29475Y3625D01*
X-29472Y3624D01*
X-29469Y3625D01*
X-29465Y3624D01*
X-29340Y3637D01*
X-29334Y3640D01*
X-29328Y3639D01*
X-29207Y3676D01*
X-29202Y3680D01*
X-29196Y3680D01*
X-29084Y3740D01*
X-29080Y3745D01*
X-29074Y3747D01*
X-28977Y3827D01*
X-28973Y3832D01*
X-28968Y3836D01*
X-28888Y3933D01*
X-28886Y3939D01*
X-28881Y3943D01*
X-28821Y4055D01*
X-28821Y4061D01*
X-28817Y4066D01*
X-28780Y4187D01*
X-28781Y4193D01*
X-28778Y4199D01*
X-28765Y4324D01*
X-28767Y4331D01*
X-28765Y4337D01*
X-28778Y4462D01*
X-28781Y4468D01*
X-28780Y4475D01*
X-28817Y4595D01*
X-28821Y4600D01*
X-28821Y4607D01*
X-28881Y4718D01*
X-28886Y4722D01*
X-28888Y4728D01*
X-28968Y4826D01*
X-28973Y4829D01*
X-28977Y4835D01*
X-29074Y4915D01*
X-29080Y4917D01*
X-29084Y4922D01*
X-29196Y4981D01*
X-29202Y4982D01*
X-29207Y4986D01*
X-29328Y5022D01*
X-29334Y5022D01*
X-29340Y5025D01*
X-29465Y5037D01*
X-29469Y5036D01*
X-29472Y5037D01*
D02*
G37*
G36*
X-34783Y6068D02*
X-34921Y6049D01*
X-35051Y5996D01*
X-35162Y5911D01*
X-35247Y5800D01*
X-35300Y5670D01*
X-35319Y5531D01*
X-35300Y5393D01*
X-35247Y5263D01*
X-35162Y5152D01*
X-35051Y5067D01*
X-34921Y5014D01*
X-34783Y4995D01*
X-34644Y5014D01*
X-34515Y5067D01*
X-34404Y5152D01*
X-34318Y5263D01*
X-34265Y5393D01*
X-34247Y5531D01*
X-34265Y5670D01*
X-34318Y5800D01*
X-34404Y5911D01*
X-34515Y5996D01*
X-34644Y6049D01*
X-34783Y6068D01*
D02*
G37*
G36*
X-33972Y5037D02*
X-33975Y5036D01*
X-33978Y5037D01*
X-34103Y5025D01*
X-34109Y5022D01*
X-34116Y5022D01*
X-34236Y4986D01*
X-34241Y4982D01*
X-34248Y4981D01*
X-34359Y4922D01*
X-34363Y4917D01*
X-34369Y4915D01*
X-34467Y4835D01*
X-34470Y4829D01*
X-34476Y4826D01*
X-34556Y4728D01*
X-34557Y4722D01*
X-34563Y4718D01*
X-34622Y4607D01*
X-34623Y4600D01*
X-34627Y4595D01*
X-34663Y4475D01*
X-34663Y4468D01*
X-34666Y4462D01*
X-34678Y4337D01*
X-34676Y4331D01*
X-34678Y4324D01*
X-34666Y4199D01*
X-34663Y4193D01*
X-34663Y4187D01*
X-34627Y4066D01*
X-34623Y4061D01*
X-34622Y4055D01*
X-34563Y3943D01*
X-34557Y3939D01*
X-34556Y3933D01*
X-34476Y3836D01*
X-34470Y3832D01*
X-34467Y3827D01*
X-34369Y3747D01*
X-34363Y3745D01*
X-34359Y3740D01*
X-34248Y3680D01*
X-34241Y3680D01*
X-34236Y3676D01*
X-34116Y3639D01*
X-34109Y3640D01*
X-34103Y3637D01*
X-33978Y3624D01*
X-33975Y3625D01*
X-33972Y3624D01*
X-33969Y3625D01*
X-33965Y3624D01*
X-33840Y3637D01*
X-33834Y3640D01*
X-33828Y3639D01*
X-33707Y3676D01*
X-33702Y3680D01*
X-33696Y3680D01*
X-33584Y3740D01*
X-33580Y3745D01*
X-33574Y3747D01*
X-33477Y3827D01*
X-33473Y3832D01*
X-33468Y3836D01*
X-33388Y3933D01*
X-33386Y3939D01*
X-33381Y3943D01*
X-33321Y4055D01*
X-33321Y4061D01*
X-33317Y4066D01*
X-33280Y4187D01*
X-33281Y4193D01*
X-33278Y4199D01*
X-33265Y4324D01*
X-33267Y4331D01*
X-33265Y4337D01*
X-33278Y4462D01*
X-33281Y4468D01*
X-33280Y4475D01*
X-33317Y4595D01*
X-33321Y4600D01*
X-33321Y4607D01*
X-33381Y4718D01*
X-33386Y4722D01*
X-33388Y4728D01*
X-33468Y4826D01*
X-33473Y4829D01*
X-33477Y4835D01*
X-33574Y4915D01*
X-33580Y4917D01*
X-33584Y4922D01*
X-33696Y4981D01*
X-33702Y4982D01*
X-33707Y4986D01*
X-33828Y5022D01*
X-33834Y5022D01*
X-33840Y5025D01*
X-33965Y5037D01*
X-33969Y5036D01*
X-33972Y5037D01*
D02*
G37*
G36*
X-37402Y2675D02*
X-37405Y2674D01*
X-37408Y2675D01*
X-37533Y2663D01*
X-37539Y2660D01*
X-37546Y2660D01*
X-37666Y2624D01*
X-37671Y2619D01*
X-37678Y2619D01*
X-37789Y2559D01*
X-37793Y2554D01*
X-37799Y2552D01*
X-37897Y2472D01*
X-37900Y2467D01*
X-37906Y2464D01*
X-37985Y2366D01*
X-37987Y2360D01*
X-37992Y2356D01*
X-38052Y2245D01*
X-38053Y2238D01*
X-38057Y2233D01*
X-38093Y2112D01*
X-38093Y2106D01*
X-38096Y2100D01*
X-38108Y1975D01*
X-38106Y1969D01*
X-38108Y1962D01*
X-38096Y1837D01*
X-38093Y1831D01*
X-38093Y1825D01*
X-38057Y1704D01*
X-38053Y1699D01*
X-38052Y1692D01*
X-37992Y1581D01*
X-37987Y1577D01*
X-37985Y1571D01*
X-37906Y1473D01*
X-37900Y1470D01*
X-37897Y1465D01*
X-37799Y1385D01*
X-37793Y1383D01*
X-37789Y1378D01*
X-37678Y1318D01*
X-37671Y1318D01*
X-37666Y1313D01*
X-37546Y1277D01*
X-37539Y1277D01*
X-37533Y1274D01*
X-37408Y1262D01*
X-37405Y1263D01*
X-37402Y1262D01*
X-37399Y1263D01*
X-37395Y1262D01*
X-37270Y1274D01*
X-37264Y1277D01*
X-37258Y1277D01*
X-37137Y1313D01*
X-37132Y1318D01*
X-37125Y1318D01*
X-37014Y1378D01*
X-37010Y1383D01*
X-37004Y1385D01*
X-36906Y1465D01*
X-36903Y1470D01*
X-36898Y1473D01*
X-36818Y1571D01*
X-36816Y1577D01*
X-36811Y1581D01*
X-36751Y1692D01*
X-36751Y1699D01*
X-36746Y1704D01*
X-36710Y1825D01*
X-36711Y1831D01*
X-36707Y1837D01*
X-36695Y1962D01*
X-36697Y1969D01*
X-36695Y1975D01*
X-36707Y2100D01*
X-36711Y2106D01*
X-36710Y2112D01*
X-36746Y2233D01*
X-36751Y2238D01*
X-36751Y2245D01*
X-36811Y2356D01*
X-36816Y2360D01*
X-36818Y2366D01*
X-36898Y2464D01*
X-36903Y2467D01*
X-36906Y2472D01*
X-37004Y2552D01*
X-37010Y2554D01*
X-37014Y2559D01*
X-37125Y2619D01*
X-37132Y2619D01*
X-37137Y2624D01*
X-37258Y2660D01*
X-37264Y2660D01*
X-37270Y2663D01*
X-37395Y2675D01*
X-37399Y2674D01*
X-37402Y2675D01*
D02*
G37*
G36*
X-1969D02*
X-1972Y2674D01*
X-1975Y2675D01*
X-2100Y2663D01*
X-2106Y2660D01*
X-2112Y2660D01*
X-2233Y2624D01*
X-2238Y2619D01*
X-2245Y2619D01*
X-2356Y2559D01*
X-2360Y2554D01*
X-2366Y2552D01*
X-2464Y2472D01*
X-2467Y2467D01*
X-2472Y2464D01*
X-2552Y2366D01*
X-2554Y2360D01*
X-2559Y2356D01*
X-2619Y2245D01*
X-2619Y2238D01*
X-2624Y2233D01*
X-2660Y2112D01*
X-2660Y2106D01*
X-2663Y2100D01*
X-2675Y1975D01*
X-2673Y1969D01*
X-2675Y1962D01*
X-2663Y1837D01*
X-2660Y1831D01*
X-2660Y1825D01*
X-2624Y1704D01*
X-2619Y1699D01*
X-2619Y1692D01*
X-2559Y1581D01*
X-2554Y1577D01*
X-2552Y1571D01*
X-2472Y1473D01*
X-2467Y1470D01*
X-2464Y1465D01*
X-2366Y1385D01*
X-2360Y1383D01*
X-2356Y1378D01*
X-2245Y1318D01*
X-2238Y1318D01*
X-2233Y1313D01*
X-2112Y1277D01*
X-2106Y1277D01*
X-2100Y1274D01*
X-1975Y1262D01*
X-1972Y1263D01*
X-1969Y1262D01*
X-1965Y1263D01*
X-1962Y1262D01*
X-1837Y1274D01*
X-1831Y1277D01*
X-1825Y1277D01*
X-1704Y1313D01*
X-1699Y1318D01*
X-1692Y1318D01*
X-1581Y1378D01*
X-1577Y1383D01*
X-1571Y1385D01*
X-1473Y1465D01*
X-1470Y1470D01*
X-1465Y1473D01*
X-1385Y1571D01*
X-1383Y1577D01*
X-1378Y1581D01*
X-1318Y1692D01*
X-1318Y1699D01*
X-1313Y1704D01*
X-1277Y1825D01*
X-1277Y1831D01*
X-1274Y1837D01*
X-1262Y1962D01*
X-1264Y1969D01*
X-1262Y1975D01*
X-1274Y2100D01*
X-1277Y2106D01*
X-1277Y2112D01*
X-1313Y2233D01*
X-1318Y2238D01*
X-1318Y2245D01*
X-1378Y2356D01*
X-1383Y2360D01*
X-1385Y2366D01*
X-1465Y2464D01*
X-1470Y2467D01*
X-1473Y2472D01*
X-1571Y2552D01*
X-1577Y2554D01*
X-1581Y2559D01*
X-1692Y2619D01*
X-1699Y2619D01*
X-1704Y2624D01*
X-1825Y2660D01*
X-1831Y2660D01*
X-1837Y2663D01*
X-1962Y2675D01*
X-1965Y2674D01*
X-1969Y2675D01*
D02*
G37*
G36*
X-30231Y3337D02*
X-30319Y3326D01*
X-30400Y3292D01*
X-30470Y3238D01*
X-30523Y3169D01*
X-30557Y3087D01*
X-30569Y3000D01*
X-30557Y2913D01*
X-30523Y2831D01*
X-30470Y2762D01*
X-30400Y2708D01*
X-30319Y2674D01*
X-30231Y2663D01*
X-30144Y2674D01*
X-30063Y2708D01*
X-29993Y2762D01*
X-29940Y2831D01*
X-29906Y2913D01*
X-29894Y3000D01*
X-29906Y3087D01*
X-29940Y3169D01*
X-29993Y3238D01*
X-30063Y3292D01*
X-30144Y3326D01*
X-30231Y3337D01*
D02*
G37*
G36*
X-17200Y2492D02*
X-17285Y2476D01*
X-17356Y2428D01*
X-17404Y2356D01*
X-17421Y2272D01*
X-17404Y2187D01*
X-17356Y2116D01*
X-17285Y2068D01*
X-17200Y2051D01*
X-17116Y2068D01*
X-17044Y2116D01*
X-16996Y2187D01*
X-16979Y2272D01*
X-16996Y2356D01*
X-17044Y2428D01*
X-17116Y2476D01*
X-17200Y2492D01*
D02*
G37*
G36*
X-33212Y2739D02*
X-33299Y2727D01*
X-33380Y2694D01*
X-33450Y2640D01*
X-33504Y2570D01*
X-33537Y2489D01*
X-33549Y2402D01*
X-33537Y2314D01*
X-33504Y2233D01*
X-33450Y2163D01*
X-33380Y2110D01*
X-33299Y2076D01*
X-33212Y2064D01*
X-33125Y2076D01*
X-33043Y2110D01*
X-32973Y2163D01*
X-32920Y2233D01*
X-32886Y2314D01*
X-32875Y2402D01*
X-32886Y2489D01*
X-32920Y2570D01*
X-32973Y2640D01*
X-33043Y2694D01*
X-33125Y2727D01*
X-33212Y2739D01*
D02*
G37*
G36*
X-4365Y3972D02*
X-4601D01*
X-4678Y3962D01*
X-4750Y3932D01*
X-4812Y3885D01*
X-4859Y3823D01*
X-4889Y3751D01*
X-4899Y3674D01*
X-4889Y3597D01*
X-4859Y3525D01*
X-4812Y3464D01*
X-4750Y3416D01*
X-4678Y3387D01*
X-4601Y3377D01*
X-4365D01*
X-4288Y3387D01*
X-4216Y3416D01*
X-4155Y3464D01*
X-4107Y3525D01*
X-4077Y3597D01*
X-4067Y3674D01*
X-4077Y3751D01*
X-4107Y3823D01*
X-4155Y3885D01*
X-4216Y3932D01*
X-4288Y3962D01*
X-4365Y3972D01*
D02*
G37*
G36*
X-16217Y4196D02*
X-16301Y4179D01*
X-16373Y4131D01*
X-16421Y4059D01*
X-16438Y3975D01*
X-16421Y3890D01*
X-16373Y3819D01*
X-16301Y3771D01*
X-16217Y3754D01*
X-16132Y3771D01*
X-16061Y3819D01*
X-16013Y3890D01*
X-15996Y3975D01*
X-16013Y4059D01*
X-16061Y4131D01*
X-16132Y4179D01*
X-16217Y4196D01*
D02*
G37*
G36*
X-13420Y3254D02*
X-13505Y3237D01*
X-13545Y3210D01*
X-13586Y3237D01*
X-13670Y3254D01*
X-13755Y3237D01*
X-13826Y3189D01*
X-13874Y3117D01*
X-13891Y3033D01*
X-13874Y2948D01*
X-13847Y2908D01*
X-13874Y2867D01*
X-13891Y2783D01*
X-13874Y2698D01*
X-13826Y2627D01*
X-13755Y2579D01*
X-13670Y2562D01*
X-13586Y2579D01*
X-13545Y2606D01*
X-13505Y2579D01*
X-13420Y2562D01*
X-13336Y2579D01*
X-13264Y2627D01*
X-13216Y2698D01*
X-13199Y2783D01*
X-13216Y2867D01*
X-13243Y2908D01*
X-13216Y2948D01*
X-13199Y3033D01*
X-13216Y3117D01*
X-13264Y3189D01*
X-13336Y3237D01*
X-13420Y3254D01*
D02*
G37*
G36*
X-21428Y3519D02*
X-22294D01*
X-22402Y3504D01*
X-22503Y3463D01*
X-22589Y3396D01*
X-22656Y3310D01*
X-22697Y3209D01*
X-22711Y3102D01*
X-22697Y2994D01*
X-22656Y2893D01*
X-22589Y2807D01*
X-22503Y2740D01*
X-22402Y2699D01*
X-22294Y2685D01*
X-21428D01*
X-21320Y2699D01*
X-21220Y2740D01*
X-21134Y2807D01*
X-21067Y2893D01*
X-21026Y2994D01*
X-21011Y3102D01*
X-21026Y3209D01*
X-21067Y3310D01*
X-21134Y3396D01*
X-21220Y3463D01*
X-21320Y3504D01*
X-21428Y3519D01*
D02*
G37*
G36*
X-15220Y3244D02*
X-15305Y3227D01*
X-15345Y3200D01*
X-15386Y3227D01*
X-15470Y3244D01*
X-15555Y3227D01*
X-15626Y3179D01*
X-15674Y3107D01*
X-15691Y3023D01*
X-15674Y2938D01*
X-15647Y2898D01*
X-15674Y2857D01*
X-15691Y2773D01*
X-15674Y2688D01*
X-15626Y2617D01*
X-15555Y2569D01*
X-15470Y2552D01*
X-15386Y2569D01*
X-15345Y2596D01*
X-15305Y2569D01*
X-15220Y2552D01*
X-15136Y2569D01*
X-15064Y2617D01*
X-15016Y2688D01*
X-14999Y2773D01*
X-15016Y2857D01*
X-15043Y2898D01*
X-15016Y2938D01*
X-14999Y3023D01*
X-15016Y3107D01*
X-15064Y3179D01*
X-15136Y3227D01*
X-15220Y3244D01*
D02*
G37*
G36*
X-24370Y5492D02*
X-24455Y5476D01*
X-24526Y5428D01*
X-24574Y5356D01*
X-24591Y5272D01*
X-24574Y5187D01*
X-24526Y5116D01*
X-24455Y5068D01*
X-24370Y5051D01*
X-24286Y5068D01*
X-24214Y5116D01*
X-24166Y5187D01*
X-24149Y5272D01*
X-24166Y5356D01*
X-24214Y5428D01*
X-24286Y5476D01*
X-24370Y5492D01*
D02*
G37*
G36*
X-28870Y6992D02*
X-28955Y6976D01*
X-29026Y6928D01*
X-29074Y6856D01*
X-29091Y6772D01*
X-29074Y6687D01*
X-29026Y6616D01*
X-28955Y6568D01*
X-28870Y6551D01*
X-28786Y6568D01*
X-28714Y6616D01*
X-28666Y6687D01*
X-28649Y6772D01*
X-28666Y6856D01*
X-28714Y6928D01*
X-28786Y6976D01*
X-28870Y6992D01*
D02*
G37*
G36*
X-4810Y7452D02*
X-4895Y7436D01*
X-4966Y7388D01*
X-5014Y7316D01*
X-5031Y7232D01*
X-5014Y7147D01*
X-4966Y7076D01*
X-4895Y7028D01*
X-4810Y7011D01*
X-4726Y7028D01*
X-4654Y7076D01*
X-4606Y7147D01*
X-4589Y7232D01*
X-4606Y7316D01*
X-4654Y7388D01*
X-4726Y7436D01*
X-4810Y7452D01*
D02*
G37*
G36*
X-30970Y7166D02*
X-31057Y7154D01*
X-31139Y7120D01*
X-31209Y7067D01*
X-31263Y6996D01*
X-31297Y6915D01*
X-31309Y6827D01*
X-31297Y6739D01*
X-31263Y6657D01*
X-31209Y6587D01*
X-31139Y6533D01*
X-31057Y6499D01*
X-30970Y6488D01*
X-30882Y6499D01*
X-30800Y6533D01*
X-30730Y6587D01*
X-30676Y6657D01*
X-30642Y6739D01*
X-30631Y6827D01*
X-30642Y6915D01*
X-30676Y6996D01*
X-30730Y7067D01*
X-30800Y7120D01*
X-30882Y7154D01*
X-30970Y7166D01*
D02*
G37*
G36*
X-32974D02*
X-33061Y7154D01*
X-33143Y7120D01*
X-33213Y7067D01*
X-33267Y6996D01*
X-33301Y6915D01*
X-33313Y6827D01*
X-33301Y6739D01*
X-33267Y6657D01*
X-33213Y6587D01*
X-33143Y6533D01*
X-33061Y6499D01*
X-32974Y6488D01*
X-32886Y6499D01*
X-32804Y6533D01*
X-32734Y6587D01*
X-32680Y6657D01*
X-32646Y6739D01*
X-32634Y6827D01*
X-32646Y6915D01*
X-32680Y6996D01*
X-32734Y7067D01*
X-32804Y7120D01*
X-32886Y7154D01*
X-32974Y7166D01*
D02*
G37*
G36*
X-31974D02*
X-32061Y7154D01*
X-32143Y7120D01*
X-32213Y7067D01*
X-32267Y6996D01*
X-32301Y6915D01*
X-32313Y6827D01*
X-32301Y6739D01*
X-32267Y6657D01*
X-32213Y6587D01*
X-32143Y6533D01*
X-32061Y6499D01*
X-31974Y6488D01*
X-31886Y6499D01*
X-31804Y6533D01*
X-31734Y6587D01*
X-31680Y6657D01*
X-31646Y6739D01*
X-31635Y6827D01*
X-31646Y6915D01*
X-31680Y6996D01*
X-31734Y7067D01*
X-31804Y7120D01*
X-31886Y7154D01*
X-31974Y7166D01*
D02*
G37*
G36*
X-30470Y8166D02*
X-30557Y8154D01*
X-30639Y8120D01*
X-30709Y8067D01*
X-30763Y7996D01*
X-30797Y7915D01*
X-30809Y7827D01*
X-30797Y7739D01*
X-30763Y7657D01*
X-30709Y7587D01*
X-30639Y7533D01*
X-30557Y7499D01*
X-30470Y7488D01*
X-30382Y7499D01*
X-30300Y7533D01*
X-30230Y7587D01*
X-30176Y7657D01*
X-30142Y7739D01*
X-30131Y7827D01*
X-30142Y7915D01*
X-30176Y7996D01*
X-30230Y8067D01*
X-30300Y8120D01*
X-30382Y8154D01*
X-30470Y8166D01*
D02*
G37*
G36*
X-28870Y7992D02*
X-28955Y7976D01*
X-29026Y7928D01*
X-29074Y7856D01*
X-29091Y7772D01*
X-29074Y7687D01*
X-29026Y7616D01*
X-28955Y7568D01*
X-28870Y7551D01*
X-28786Y7568D01*
X-28714Y7616D01*
X-28666Y7687D01*
X-28649Y7772D01*
X-28666Y7856D01*
X-28714Y7928D01*
X-28786Y7976D01*
X-28870Y7992D01*
D02*
G37*
G36*
X-31474Y8166D02*
X-31561Y8154D01*
X-31643Y8120D01*
X-31713Y8067D01*
X-31767Y7996D01*
X-31801Y7915D01*
X-31813Y7827D01*
X-31801Y7739D01*
X-31767Y7657D01*
X-31713Y7587D01*
X-31643Y7533D01*
X-31561Y7499D01*
X-31474Y7488D01*
X-31386Y7499D01*
X-31304Y7533D01*
X-31234Y7587D01*
X-31180Y7657D01*
X-31146Y7739D01*
X-31135Y7827D01*
X-31146Y7915D01*
X-31180Y7996D01*
X-31234Y8067D01*
X-31304Y8120D01*
X-31386Y8154D01*
X-31474Y8166D01*
D02*
G37*
G36*
X-33474D02*
X-33561Y8154D01*
X-33643Y8120D01*
X-33713Y8067D01*
X-33767Y7996D01*
X-33801Y7915D01*
X-33813Y7827D01*
X-33801Y7739D01*
X-33767Y7657D01*
X-33713Y7587D01*
X-33643Y7533D01*
X-33561Y7499D01*
X-33474Y7488D01*
X-33386Y7499D01*
X-33304Y7533D01*
X-33234Y7587D01*
X-33180Y7657D01*
X-33146Y7739D01*
X-33135Y7827D01*
X-33146Y7915D01*
X-33180Y7996D01*
X-33234Y8067D01*
X-33304Y8120D01*
X-33386Y8154D01*
X-33474Y8166D01*
D02*
G37*
G36*
X-32474D02*
X-32561Y8154D01*
X-32643Y8120D01*
X-32713Y8067D01*
X-32767Y7996D01*
X-32801Y7915D01*
X-32813Y7827D01*
X-32801Y7739D01*
X-32767Y7657D01*
X-32713Y7587D01*
X-32643Y7533D01*
X-32561Y7499D01*
X-32474Y7488D01*
X-32386Y7499D01*
X-32304Y7533D01*
X-32234Y7587D01*
X-32180Y7657D01*
X-32146Y7739D01*
X-32134Y7827D01*
X-32146Y7915D01*
X-32180Y7996D01*
X-32234Y8067D01*
X-32304Y8120D01*
X-32386Y8154D01*
X-32474Y8166D01*
D02*
G37*
G36*
X-13370Y5492D02*
X-13455Y5476D01*
X-13526Y5428D01*
X-13574Y5356D01*
X-13591Y5272D01*
X-13574Y5187D01*
X-13526Y5116D01*
X-13455Y5068D01*
X-13370Y5051D01*
X-13286Y5068D01*
X-13214Y5116D01*
X-13166Y5187D01*
X-13149Y5272D01*
X-13166Y5356D01*
X-13214Y5428D01*
X-13286Y5476D01*
X-13370Y5492D01*
D02*
G37*
G36*
X-12370D02*
X-12455Y5476D01*
X-12526Y5428D01*
X-12574Y5356D01*
X-12591Y5272D01*
X-12574Y5187D01*
X-12526Y5116D01*
X-12455Y5068D01*
X-12370Y5051D01*
X-12286Y5068D01*
X-12214Y5116D01*
X-12166Y5187D01*
X-12149Y5272D01*
X-12166Y5356D01*
X-12214Y5428D01*
X-12286Y5476D01*
X-12370Y5492D01*
D02*
G37*
G36*
X-17370D02*
X-17455Y5476D01*
X-17526Y5428D01*
X-17574Y5356D01*
X-17591Y5272D01*
X-17574Y5187D01*
X-17526Y5116D01*
X-17455Y5068D01*
X-17370Y5051D01*
X-17286Y5068D01*
X-17214Y5116D01*
X-17166Y5187D01*
X-17149Y5272D01*
X-17166Y5356D01*
X-17214Y5428D01*
X-17286Y5476D01*
X-17370Y5492D01*
D02*
G37*
G36*
X-23370D02*
X-23455Y5476D01*
X-23526Y5428D01*
X-23574Y5356D01*
X-23591Y5272D01*
X-23574Y5187D01*
X-23526Y5116D01*
X-23455Y5068D01*
X-23370Y5051D01*
X-23286Y5068D01*
X-23214Y5116D01*
X-23166Y5187D01*
X-23149Y5272D01*
X-23166Y5356D01*
X-23214Y5428D01*
X-23286Y5476D01*
X-23370Y5492D01*
D02*
G37*
G36*
X-18370D02*
X-18455Y5476D01*
X-18526Y5428D01*
X-18574Y5356D01*
X-18591Y5272D01*
X-18574Y5187D01*
X-18526Y5116D01*
X-18455Y5068D01*
X-18370Y5051D01*
X-18286Y5068D01*
X-18214Y5116D01*
X-18166Y5187D01*
X-18149Y5272D01*
X-18166Y5356D01*
X-18214Y5428D01*
X-18286Y5476D01*
X-18370Y5492D01*
D02*
G37*
G36*
X-3210Y6722D02*
X-3295Y6706D01*
X-3366Y6658D01*
X-3414Y6586D01*
X-3431Y6502D01*
X-3414Y6417D01*
X-3366Y6346D01*
X-3295Y6298D01*
X-3210Y6281D01*
X-3126Y6298D01*
X-3054Y6346D01*
X-3006Y6417D01*
X-2989Y6502D01*
X-3006Y6586D01*
X-3054Y6658D01*
X-3126Y6706D01*
X-3210Y6722D01*
D02*
G37*
G36*
X-29693Y7168D02*
X-30247D01*
X-30292Y7149D01*
X-30311Y7104D01*
Y6550D01*
X-30292Y6504D01*
X-30247Y6486D01*
X-29693D01*
X-29647Y6504D01*
X-29629Y6550D01*
Y7104D01*
X-29647Y7149D01*
X-29693Y7168D01*
D02*
G37*
G36*
X-4200Y5842D02*
X-4285Y5826D01*
X-4356Y5778D01*
X-4404Y5706D01*
X-4421Y5622D01*
X-4404Y5537D01*
X-4356Y5466D01*
X-4285Y5418D01*
X-4200Y5401D01*
X-4116Y5418D01*
X-4044Y5466D01*
X-3996Y5537D01*
X-3979Y5622D01*
X-3996Y5706D01*
X-4044Y5778D01*
X-4116Y5826D01*
X-4200Y5842D01*
D02*
G37*
G36*
X-11370Y5492D02*
X-11455Y5476D01*
X-11526Y5428D01*
X-11574Y5356D01*
X-11591Y5272D01*
X-11574Y5187D01*
X-11526Y5116D01*
X-11455Y5068D01*
X-11370Y5051D01*
X-11286Y5068D01*
X-11214Y5116D01*
X-11166Y5187D01*
X-11149Y5272D01*
X-11166Y5356D01*
X-11214Y5428D01*
X-11286Y5476D01*
X-11370Y5492D01*
D02*
G37*
G36*
X-10370D02*
X-10455Y5476D01*
X-10526Y5428D01*
X-10574Y5356D01*
X-10591Y5272D01*
X-10574Y5187D01*
X-10526Y5116D01*
X-10455Y5068D01*
X-10370Y5051D01*
X-10286Y5068D01*
X-10214Y5116D01*
X-10166Y5187D01*
X-10149Y5272D01*
X-10166Y5356D01*
X-10214Y5428D01*
X-10286Y5476D01*
X-10370Y5492D01*
D02*
G37*
G36*
X-5490Y20602D02*
X-5575Y20586D01*
X-5646Y20538D01*
X-5694Y20466D01*
X-5711Y20382D01*
X-5694Y20297D01*
X-5646Y20226D01*
X-5575Y20178D01*
X-5490Y20161D01*
X-5406Y20178D01*
X-5334Y20226D01*
X-5286Y20297D01*
X-5269Y20382D01*
X-5286Y20466D01*
X-5334Y20538D01*
X-5406Y20586D01*
X-5490Y20602D01*
D02*
G37*
G36*
X-9160Y33912D02*
X-9245Y33896D01*
X-9316Y33848D01*
X-9364Y33776D01*
X-9381Y33692D01*
X-9364Y33607D01*
X-9316Y33536D01*
X-9245Y33488D01*
X-9160Y33471D01*
X-9076Y33488D01*
X-9004Y33536D01*
X-8956Y33607D01*
X-8939Y33692D01*
X-8956Y33776D01*
X-9004Y33848D01*
X-9076Y33896D01*
X-9160Y33912D01*
D02*
G37*
G36*
X-14320Y34212D02*
X-14405Y34196D01*
X-14476Y34148D01*
X-14524Y34076D01*
X-14541Y33992D01*
X-14524Y33907D01*
X-14476Y33836D01*
X-14405Y33788D01*
X-14320Y33771D01*
X-14236Y33788D01*
X-14164Y33836D01*
X-14116Y33907D01*
X-14099Y33992D01*
X-14116Y34076D01*
X-14164Y34148D01*
X-14236Y34196D01*
X-14320Y34212D01*
D02*
G37*
G36*
X-2530Y34129D02*
X-2623Y34117D01*
X-2709Y34081D01*
X-2783Y34024D01*
X-2840Y33950D01*
X-2875Y33864D01*
X-2887Y33772D01*
X-2875Y33679D01*
X-2840Y33593D01*
X-2783Y33519D01*
X-2709Y33462D01*
X-2623Y33426D01*
X-2530Y33414D01*
X-2438Y33426D01*
X-2351Y33462D01*
X-2277Y33519D01*
X-2221Y33593D01*
X-2185Y33679D01*
X-2173Y33772D01*
X-2185Y33864D01*
X-2221Y33950D01*
X-2277Y34024D01*
X-2351Y34081D01*
X-2438Y34117D01*
X-2530Y34129D01*
D02*
G37*
G36*
X-4235Y34131D02*
X-4825D01*
X-4871Y34112D01*
X-4889Y34067D01*
Y33476D01*
X-4871Y33431D01*
X-4825Y33412D01*
X-4235D01*
X-4190Y33431D01*
X-4171Y33476D01*
Y34067D01*
X-4190Y34112D01*
X-4235Y34131D01*
D02*
G37*
G36*
X-3530Y34129D02*
X-3623Y34117D01*
X-3709Y34081D01*
X-3783Y34024D01*
X-3840Y33950D01*
X-3875Y33864D01*
X-3887Y33772D01*
X-3875Y33679D01*
X-3840Y33593D01*
X-3783Y33519D01*
X-3709Y33462D01*
X-3623Y33426D01*
X-3530Y33414D01*
X-3438Y33426D01*
X-3351Y33462D01*
X-3277Y33519D01*
X-3221Y33593D01*
X-3185Y33679D01*
X-3173Y33772D01*
X-3185Y33864D01*
X-3221Y33950D01*
X-3277Y34024D01*
X-3351Y34081D01*
X-3438Y34117D01*
X-3530Y34129D01*
D02*
G37*
G36*
X-4350Y35242D02*
X-4435Y35226D01*
X-4506Y35178D01*
X-4554Y35106D01*
X-4571Y35022D01*
X-4554Y34937D01*
X-4506Y34866D01*
X-4435Y34818D01*
X-4350Y34801D01*
X-4266Y34818D01*
X-4194Y34866D01*
X-4146Y34937D01*
X-4129Y35022D01*
X-4146Y35106D01*
X-4194Y35178D01*
X-4266Y35226D01*
X-4350Y35242D01*
D02*
G37*
G36*
X-5200Y35521D02*
X-5284Y35504D01*
X-5356Y35456D01*
X-5404Y35384D01*
X-5421Y35300D01*
X-5404Y35216D01*
X-5356Y35144D01*
X-5284Y35096D01*
X-5200Y35079D01*
X-5116Y35096D01*
X-5044Y35144D01*
X-4996Y35216D01*
X-4979Y35300D01*
X-4996Y35384D01*
X-5044Y35456D01*
X-5116Y35504D01*
X-5200Y35521D01*
D02*
G37*
G36*
X-23780Y35222D02*
X-23865Y35206D01*
X-23936Y35158D01*
X-23984Y35086D01*
X-24001Y35002D01*
X-23984Y34917D01*
X-23936Y34846D01*
X-23865Y34798D01*
X-23780Y34781D01*
X-23696Y34798D01*
X-23624Y34846D01*
X-23576Y34917D01*
X-23559Y35002D01*
X-23576Y35086D01*
X-23624Y35158D01*
X-23696Y35206D01*
X-23780Y35222D01*
D02*
G37*
G36*
X-25197Y34866D02*
X-25281Y34850D01*
X-25353Y34802D01*
X-25401Y34730D01*
X-25418Y34646D01*
X-25401Y34561D01*
X-25353Y34490D01*
X-25281Y34442D01*
X-25197Y34425D01*
X-25112Y34442D01*
X-25041Y34490D01*
X-24993Y34561D01*
X-24976Y34646D01*
X-24993Y34730D01*
X-25041Y34802D01*
X-25112Y34850D01*
X-25197Y34866D01*
D02*
G37*
G36*
X-7850Y35192D02*
X-7935Y35176D01*
X-8006Y35128D01*
X-8054Y35056D01*
X-8071Y34972D01*
X-8054Y34887D01*
X-8006Y34816D01*
X-7935Y34768D01*
X-7850Y34751D01*
X-7766Y34768D01*
X-7694Y34816D01*
X-7646Y34887D01*
X-7629Y34972D01*
X-7646Y35056D01*
X-7694Y35128D01*
X-7766Y35176D01*
X-7850Y35192D01*
D02*
G37*
G36*
X-7180Y33782D02*
X-7265Y33766D01*
X-7336Y33718D01*
X-7384Y33646D01*
X-7401Y33562D01*
X-7384Y33477D01*
X-7336Y33406D01*
X-7265Y33358D01*
X-7180Y33341D01*
X-7096Y33358D01*
X-7024Y33406D01*
X-6976Y33477D01*
X-6959Y33562D01*
X-6976Y33646D01*
X-7024Y33718D01*
X-7096Y33766D01*
X-7180Y33782D01*
D02*
G37*
G36*
X-19291Y33487D02*
X-19384Y33475D01*
X-19470Y33439D01*
X-19544Y33383D01*
X-19601Y33309D01*
X-19637Y33222D01*
X-19649Y33130D01*
X-19637Y33037D01*
X-19601Y32951D01*
X-19544Y32877D01*
X-19470Y32820D01*
X-19384Y32785D01*
X-19291Y32773D01*
X-19199Y32785D01*
X-19113Y32820D01*
X-19039Y32877D01*
X-18982Y32951D01*
X-18946Y33037D01*
X-18934Y33130D01*
X-18946Y33222D01*
X-18982Y33309D01*
X-19039Y33383D01*
X-19113Y33439D01*
X-19199Y33475D01*
X-19291Y33487D01*
D02*
G37*
G36*
X-18504D02*
X-18596Y33475D01*
X-18683Y33439D01*
X-18757Y33383D01*
X-18813Y33309D01*
X-18849Y33222D01*
X-18861Y33130D01*
X-18849Y33037D01*
X-18813Y32951D01*
X-18757Y32877D01*
X-18683Y32820D01*
X-18596Y32785D01*
X-18504Y32773D01*
X-18411Y32785D01*
X-18325Y32820D01*
X-18251Y32877D01*
X-18194Y32951D01*
X-18159Y33037D01*
X-18147Y33130D01*
X-18159Y33222D01*
X-18194Y33309D01*
X-18251Y33383D01*
X-18325Y33439D01*
X-18411Y33475D01*
X-18504Y33487D01*
D02*
G37*
G36*
X-20866D02*
X-20959Y33475D01*
X-21045Y33439D01*
X-21119Y33383D01*
X-21176Y33309D01*
X-21211Y33222D01*
X-21224Y33130D01*
X-21211Y33037D01*
X-21176Y32951D01*
X-21119Y32877D01*
X-21045Y32820D01*
X-20959Y32785D01*
X-20866Y32773D01*
X-20774Y32785D01*
X-20687Y32820D01*
X-20613Y32877D01*
X-20557Y32951D01*
X-20521Y33037D01*
X-20509Y33130D01*
X-20521Y33222D01*
X-20557Y33309D01*
X-20613Y33383D01*
X-20687Y33439D01*
X-20774Y33475D01*
X-20866Y33487D01*
D02*
G37*
G36*
X-22441D02*
X-22533Y33475D01*
X-22620Y33439D01*
X-22694Y33383D01*
X-22750Y33309D01*
X-22786Y33222D01*
X-22798Y33130D01*
X-22786Y33037D01*
X-22750Y32951D01*
X-22694Y32877D01*
X-22620Y32820D01*
X-22533Y32785D01*
X-22441Y32773D01*
X-22348Y32785D01*
X-22262Y32820D01*
X-22188Y32877D01*
X-22131Y32951D01*
X-22096Y33037D01*
X-22084Y33130D01*
X-22096Y33222D01*
X-22131Y33309D01*
X-22188Y33383D01*
X-22262Y33439D01*
X-22348Y33475D01*
X-22441Y33487D01*
D02*
G37*
G36*
X-21654D02*
X-21746Y33475D01*
X-21832Y33439D01*
X-21906Y33383D01*
X-21963Y33309D01*
X-21999Y33222D01*
X-22011Y33130D01*
X-21999Y33037D01*
X-21963Y32951D01*
X-21906Y32877D01*
X-21832Y32820D01*
X-21746Y32785D01*
X-21654Y32773D01*
X-21561Y32785D01*
X-21475Y32820D01*
X-21401Y32877D01*
X-21344Y32951D01*
X-21308Y33037D01*
X-21296Y33130D01*
X-21308Y33222D01*
X-21344Y33309D01*
X-21401Y33383D01*
X-21475Y33439D01*
X-21561Y33475D01*
X-21654Y33487D01*
D02*
G37*
G36*
X-28950Y33662D02*
X-29035Y33646D01*
X-29106Y33598D01*
X-29154Y33526D01*
X-29171Y33442D01*
X-29154Y33357D01*
X-29106Y33286D01*
X-29035Y33238D01*
X-28950Y33221D01*
X-28866Y33238D01*
X-28794Y33286D01*
X-28746Y33357D01*
X-28729Y33442D01*
X-28746Y33526D01*
X-28794Y33598D01*
X-28866Y33646D01*
X-28950Y33662D01*
D02*
G37*
G36*
X-13020Y33772D02*
X-13105Y33756D01*
X-13176Y33708D01*
X-13224Y33636D01*
X-13241Y33552D01*
X-13224Y33467D01*
X-13176Y33396D01*
X-13105Y33348D01*
X-13020Y33331D01*
X-12936Y33348D01*
X-12864Y33396D01*
X-12816Y33467D01*
X-12799Y33552D01*
X-12816Y33636D01*
X-12864Y33708D01*
X-12936Y33756D01*
X-13020Y33772D01*
D02*
G37*
G36*
X-12450Y33232D02*
X-12535Y33216D01*
X-12606Y33168D01*
X-12654Y33096D01*
X-12671Y33012D01*
X-12654Y32927D01*
X-12606Y32856D01*
X-12535Y32808D01*
X-12450Y32791D01*
X-12366Y32808D01*
X-12294Y32856D01*
X-12246Y32927D01*
X-12229Y33012D01*
X-12246Y33096D01*
X-12294Y33168D01*
X-12366Y33216D01*
X-12450Y33232D01*
D02*
G37*
G36*
X-17717Y33487D02*
X-17809Y33475D01*
X-17895Y33439D01*
X-17969Y33383D01*
X-18026Y33309D01*
X-18062Y33222D01*
X-18074Y33130D01*
X-18062Y33037D01*
X-18026Y32951D01*
X-17969Y32877D01*
X-17895Y32820D01*
X-17809Y32785D01*
X-17717Y32773D01*
X-17624Y32785D01*
X-17538Y32820D01*
X-17464Y32877D01*
X-17407Y32951D01*
X-17371Y33037D01*
X-17359Y33130D01*
X-17371Y33222D01*
X-17407Y33309D01*
X-17464Y33383D01*
X-17538Y33439D01*
X-17624Y33475D01*
X-17717Y33487D01*
D02*
G37*
G36*
X-16929D02*
X-17022Y33475D01*
X-17108Y33439D01*
X-17182Y33383D01*
X-17239Y33309D01*
X-17274Y33222D01*
X-17287Y33130D01*
X-17274Y33037D01*
X-17239Y32951D01*
X-17182Y32877D01*
X-17108Y32820D01*
X-17022Y32785D01*
X-16929Y32773D01*
X-16837Y32785D01*
X-16750Y32820D01*
X-16676Y32877D01*
X-16620Y32951D01*
X-16584Y33037D01*
X-16572Y33130D01*
X-16584Y33222D01*
X-16620Y33309D01*
X-16676Y33383D01*
X-16750Y33439D01*
X-16837Y33475D01*
X-16929Y33487D01*
D02*
G37*
G36*
X-15650Y42652D02*
X-15735Y42636D01*
X-15806Y42588D01*
X-15854Y42516D01*
X-15871Y42432D01*
X-15854Y42347D01*
X-15806Y42276D01*
X-15735Y42228D01*
X-15650Y42211D01*
X-15566Y42228D01*
X-15494Y42276D01*
X-15446Y42347D01*
X-15429Y42432D01*
X-15446Y42516D01*
X-15494Y42588D01*
X-15566Y42636D01*
X-15650Y42652D01*
D02*
G37*
G36*
X-12180Y42732D02*
X-12265Y42716D01*
X-12336Y42668D01*
X-12384Y42596D01*
X-12401Y42512D01*
X-12384Y42427D01*
X-12336Y42356D01*
X-12265Y42308D01*
X-12180Y42291D01*
X-12096Y42308D01*
X-12024Y42356D01*
X-11976Y42427D01*
X-11959Y42512D01*
X-11976Y42596D01*
X-12024Y42668D01*
X-12096Y42716D01*
X-12180Y42732D01*
D02*
G37*
G36*
X-16580Y42542D02*
X-16665Y42526D01*
X-16736Y42478D01*
X-16784Y42406D01*
X-16801Y42322D01*
X-16784Y42237D01*
X-16736Y42166D01*
X-16665Y42118D01*
X-16580Y42101D01*
X-16496Y42118D01*
X-16424Y42166D01*
X-16376Y42237D01*
X-16359Y42322D01*
X-16376Y42406D01*
X-16424Y42478D01*
X-16496Y42526D01*
X-16580Y42542D01*
D02*
G37*
G36*
X-14900Y42142D02*
X-14985Y42126D01*
X-15056Y42078D01*
X-15104Y42006D01*
X-15121Y41922D01*
X-15104Y41837D01*
X-15056Y41766D01*
X-14985Y41718D01*
X-14900Y41701D01*
X-14816Y41718D01*
X-14744Y41766D01*
X-14696Y41837D01*
X-14679Y41922D01*
X-14696Y42006D01*
X-14744Y42078D01*
X-14816Y42126D01*
X-14900Y42142D01*
D02*
G37*
G36*
X-14360Y42402D02*
X-14445Y42386D01*
X-14516Y42338D01*
X-14564Y42266D01*
X-14581Y42182D01*
X-14564Y42097D01*
X-14516Y42026D01*
X-14445Y41978D01*
X-14360Y41961D01*
X-14276Y41978D01*
X-14204Y42026D01*
X-14156Y42097D01*
X-14139Y42182D01*
X-14156Y42266D01*
X-14204Y42338D01*
X-14276Y42386D01*
X-14360Y42402D01*
D02*
G37*
G36*
X-37402Y47065D02*
X-37405Y47064D01*
X-37408Y47065D01*
X-37533Y47052D01*
X-37539Y47049D01*
X-37546Y47050D01*
X-37666Y47013D01*
X-37671Y47009D01*
X-37678Y47009D01*
X-37789Y46949D01*
X-37793Y46944D01*
X-37799Y46942D01*
X-37897Y46862D01*
X-37900Y46856D01*
X-37906Y46853D01*
X-37985Y46756D01*
X-37987Y46750D01*
X-37992Y46746D01*
X-38052Y46634D01*
X-38053Y46628D01*
X-38057Y46623D01*
X-38093Y46502D01*
X-38093Y46496D01*
X-38096Y46490D01*
X-38108Y46365D01*
X-38106Y46358D01*
X-38108Y46352D01*
X-38096Y46227D01*
X-38093Y46221D01*
X-38093Y46214D01*
X-38057Y46094D01*
X-38053Y46089D01*
X-38052Y46082D01*
X-37992Y45971D01*
X-37987Y45967D01*
X-37985Y45961D01*
X-37906Y45863D01*
X-37900Y45860D01*
X-37897Y45854D01*
X-37799Y45774D01*
X-37793Y45772D01*
X-37789Y45767D01*
X-37678Y45708D01*
X-37671Y45707D01*
X-37666Y45703D01*
X-37546Y45667D01*
X-37539Y45667D01*
X-37533Y45664D01*
X-37408Y45652D01*
X-37405Y45653D01*
X-37402Y45651D01*
X-37399Y45653D01*
X-37395Y45652D01*
X-37270Y45664D01*
X-37264Y45667D01*
X-37258Y45667D01*
X-37137Y45703D01*
X-37132Y45707D01*
X-37125Y45708D01*
X-37014Y45767D01*
X-37010Y45772D01*
X-37004Y45774D01*
X-36906Y45854D01*
X-36903Y45860D01*
X-36898Y45863D01*
X-36818Y45961D01*
X-36816Y45967D01*
X-36811Y45971D01*
X-36751Y46082D01*
X-36751Y46089D01*
X-36746Y46094D01*
X-36710Y46214D01*
X-36711Y46221D01*
X-36707Y46227D01*
X-36695Y46352D01*
X-36697Y46358D01*
X-36695Y46365D01*
X-36707Y46490D01*
X-36711Y46496D01*
X-36710Y46502D01*
X-36746Y46623D01*
X-36751Y46628D01*
X-36751Y46634D01*
X-36811Y46746D01*
X-36816Y46750D01*
X-36818Y46756D01*
X-36898Y46853D01*
X-36903Y46856D01*
X-36906Y46862D01*
X-37004Y46942D01*
X-37010Y46944D01*
X-37014Y46949D01*
X-37125Y47009D01*
X-37132Y47009D01*
X-37137Y47013D01*
X-37258Y47050D01*
X-37264Y47049D01*
X-37270Y47052D01*
X-37395Y47065D01*
X-37399Y47064D01*
X-37402Y47065D01*
D02*
G37*
G36*
X-1969D02*
X-1972Y47064D01*
X-1975Y47065D01*
X-2100Y47052D01*
X-2106Y47049D01*
X-2112Y47050D01*
X-2233Y47013D01*
X-2238Y47009D01*
X-2245Y47009D01*
X-2356Y46949D01*
X-2360Y46944D01*
X-2366Y46942D01*
X-2464Y46862D01*
X-2467Y46856D01*
X-2472Y46853D01*
X-2552Y46756D01*
X-2554Y46750D01*
X-2559Y46746D01*
X-2619Y46634D01*
X-2619Y46628D01*
X-2624Y46623D01*
X-2660Y46502D01*
X-2660Y46496D01*
X-2663Y46490D01*
X-2675Y46365D01*
X-2673Y46358D01*
X-2675Y46352D01*
X-2663Y46227D01*
X-2660Y46221D01*
X-2660Y46214D01*
X-2624Y46094D01*
X-2619Y46089D01*
X-2619Y46082D01*
X-2559Y45971D01*
X-2554Y45967D01*
X-2552Y45961D01*
X-2472Y45863D01*
X-2467Y45860D01*
X-2464Y45854D01*
X-2366Y45774D01*
X-2360Y45772D01*
X-2356Y45767D01*
X-2245Y45708D01*
X-2238Y45707D01*
X-2233Y45703D01*
X-2112Y45667D01*
X-2106Y45667D01*
X-2100Y45664D01*
X-1975Y45652D01*
X-1972Y45653D01*
X-1969Y45651D01*
X-1965Y45653D01*
X-1962Y45652D01*
X-1837Y45664D01*
X-1831Y45667D01*
X-1825Y45667D01*
X-1704Y45703D01*
X-1699Y45707D01*
X-1692Y45708D01*
X-1581Y45767D01*
X-1577Y45772D01*
X-1571Y45774D01*
X-1473Y45854D01*
X-1470Y45860D01*
X-1465Y45863D01*
X-1385Y45961D01*
X-1383Y45967D01*
X-1378Y45971D01*
X-1318Y46082D01*
X-1318Y46089D01*
X-1313Y46094D01*
X-1277Y46214D01*
X-1277Y46221D01*
X-1274Y46227D01*
X-1262Y46352D01*
X-1264Y46358D01*
X-1262Y46365D01*
X-1274Y46490D01*
X-1277Y46496D01*
X-1277Y46502D01*
X-1313Y46623D01*
X-1318Y46628D01*
X-1318Y46634D01*
X-1378Y46746D01*
X-1383Y46750D01*
X-1385Y46756D01*
X-1465Y46853D01*
X-1470Y46856D01*
X-1473Y46862D01*
X-1571Y46942D01*
X-1577Y46944D01*
X-1581Y46949D01*
X-1692Y47009D01*
X-1699Y47009D01*
X-1704Y47013D01*
X-1825Y47050D01*
X-1831Y47049D01*
X-1837Y47052D01*
X-1962Y47065D01*
X-1965Y47064D01*
X-1969Y47065D01*
D02*
G37*
G36*
X-6890Y45186D02*
X-6894Y45185D01*
X-6898Y45186D01*
X-7027Y45169D01*
X-7034Y45164D01*
X-7043D01*
X-7162Y45115D01*
X-7169Y45109D01*
X-7177Y45107D01*
X-7280Y45028D01*
X-7284Y45020D01*
X-7291Y45016D01*
X-7370Y44913D01*
X-7373Y44905D01*
X-7379Y44899D01*
X-7428Y44779D01*
Y44770D01*
X-7433Y44763D01*
X-7450Y44634D01*
X-7447Y44626D01*
X-7450Y44618D01*
X-7433Y44489D01*
X-7428Y44482D01*
Y44473D01*
X-7379Y44353D01*
X-7373Y44347D01*
X-7370Y44339D01*
X-7291Y44236D01*
X-7284Y44232D01*
X-7280Y44224D01*
X-7177Y44145D01*
X-7169Y44143D01*
X-7162Y44137D01*
X-7043Y44087D01*
X-7034D01*
X-7027Y44083D01*
X-6898Y44066D01*
X-6894Y44067D01*
X-6890Y44066D01*
X-6886Y44067D01*
X-6881Y44066D01*
X-6753Y44083D01*
X-6745Y44087D01*
X-6737D01*
X-6617Y44137D01*
X-6611Y44143D01*
X-6603Y44145D01*
X-6500Y44224D01*
X-6496Y44232D01*
X-6488Y44236D01*
X-6409Y44339D01*
X-6407Y44347D01*
X-6401Y44353D01*
X-6351Y44473D01*
Y44482D01*
X-6347Y44489D01*
X-6330Y44618D01*
X-6332Y44626D01*
X-6330Y44634D01*
X-6347Y44763D01*
X-6351Y44770D01*
Y44779D01*
X-6401Y44899D01*
X-6407Y44905D01*
X-6409Y44913D01*
X-6488Y45016D01*
X-6496Y45020D01*
X-6500Y45028D01*
X-6603Y45107D01*
X-6611Y45109D01*
X-6617Y45115D01*
X-6737Y45164D01*
X-6745D01*
X-6753Y45169D01*
X-6881Y45186D01*
X-6886Y45185D01*
X-6890Y45186D01*
D02*
G37*
G36*
X-9005Y45597D02*
X-9089Y45580D01*
X-9161Y45532D01*
X-9209Y45461D01*
X-9226Y45376D01*
X-9209Y45292D01*
X-9161Y45220D01*
X-9089Y45172D01*
X-9005Y45156D01*
X-8920Y45172D01*
X-8849Y45220D01*
X-8801Y45292D01*
X-8784Y45376D01*
X-8801Y45461D01*
X-8849Y45532D01*
X-8920Y45580D01*
X-9005Y45597D01*
D02*
G37*
G36*
X-32480Y45186D02*
X-32484Y45185D01*
X-32489Y45186D01*
X-32617Y45169D01*
X-32625Y45164D01*
X-32633D01*
X-32753Y45115D01*
X-32759Y45109D01*
X-32767Y45107D01*
X-32870Y45028D01*
X-32875Y45020D01*
X-32882Y45016D01*
X-32961Y44913D01*
X-32963Y44905D01*
X-32969Y44899D01*
X-33019Y44779D01*
Y44770D01*
X-33023Y44763D01*
X-33040Y44634D01*
X-33038Y44626D01*
X-33040Y44618D01*
X-33023Y44489D01*
X-33019Y44482D01*
Y44473D01*
X-32969Y44353D01*
X-32963Y44347D01*
X-32961Y44339D01*
X-32882Y44236D01*
X-32875Y44232D01*
X-32870Y44224D01*
X-32767Y44145D01*
X-32759Y44143D01*
X-32753Y44137D01*
X-32633Y44087D01*
X-32625D01*
X-32617Y44083D01*
X-32489Y44066D01*
X-32484Y44067D01*
X-32480Y44066D01*
X-32476Y44067D01*
X-32472Y44066D01*
X-32343Y44083D01*
X-32336Y44087D01*
X-32327D01*
X-32208Y44137D01*
X-32202Y44143D01*
X-32193Y44145D01*
X-32090Y44224D01*
X-32086Y44232D01*
X-32079Y44236D01*
X-32000Y44339D01*
X-31997Y44347D01*
X-31991Y44353D01*
X-31942Y44473D01*
Y44482D01*
X-31937Y44489D01*
X-31921Y44618D01*
X-31923Y44626D01*
X-31921Y44634D01*
X-31937Y44763D01*
X-31942Y44770D01*
Y44779D01*
X-31991Y44899D01*
X-31997Y44905D01*
X-32000Y44913D01*
X-32079Y45016D01*
X-32086Y45020D01*
X-32090Y45028D01*
X-32193Y45107D01*
X-32202Y45109D01*
X-32208Y45115D01*
X-32327Y45164D01*
X-32336D01*
X-32343Y45169D01*
X-32472Y45186D01*
X-32476Y45185D01*
X-32480Y45186D01*
D02*
G37*
G36*
X-34862Y41716D02*
X-34990Y41703D01*
X-35112Y41666D01*
X-35225Y41606D01*
X-35324Y41525D01*
X-35405Y41426D01*
X-35465Y41313D01*
X-35502Y41190D01*
X-35515Y41063D01*
X-35502Y40936D01*
X-35465Y40813D01*
X-35405Y40700D01*
X-35324Y40601D01*
X-35225Y40520D01*
X-35112Y40460D01*
X-34990Y40423D01*
X-34862Y40410D01*
X-34735Y40423D01*
X-34612Y40460D01*
X-34500Y40520D01*
X-34401Y40601D01*
X-34319Y40700D01*
X-34259Y40813D01*
X-34222Y40936D01*
X-34209Y41063D01*
X-34222Y41190D01*
X-34259Y41313D01*
X-34319Y41426D01*
X-34401Y41525D01*
X-34500Y41606D01*
X-34612Y41666D01*
X-34735Y41703D01*
X-34862Y41716D01*
D02*
G37*
G36*
X-2720Y36162D02*
X-2805Y36146D01*
X-2876Y36098D01*
X-2924Y36026D01*
X-2941Y35942D01*
X-2924Y35857D01*
X-2876Y35786D01*
X-2805Y35738D01*
X-2720Y35721D01*
X-2636Y35738D01*
X-2564Y35786D01*
X-2516Y35857D01*
X-2499Y35942D01*
X-2516Y36026D01*
X-2564Y36098D01*
X-2636Y36146D01*
X-2720Y36162D01*
D02*
G37*
G36*
X-660Y36612D02*
X-745Y36596D01*
X-816Y36548D01*
X-864Y36476D01*
X-881Y36392D01*
X-864Y36307D01*
X-816Y36236D01*
X-745Y36188D01*
X-660Y36171D01*
X-576Y36188D01*
X-504Y36236D01*
X-456Y36307D01*
X-439Y36392D01*
X-456Y36476D01*
X-504Y36548D01*
X-576Y36596D01*
X-660Y36612D01*
D02*
G37*
G36*
X-1890Y35772D02*
X-1975Y35756D01*
X-2046Y35708D01*
X-2094Y35636D01*
X-2111Y35552D01*
X-2094Y35467D01*
X-2046Y35396D01*
X-1975Y35348D01*
X-1890Y35331D01*
X-1806Y35348D01*
X-1734Y35396D01*
X-1686Y35467D01*
X-1669Y35552D01*
X-1686Y35636D01*
X-1734Y35708D01*
X-1806Y35756D01*
X-1890Y35772D01*
D02*
G37*
G36*
X-6370Y35332D02*
X-6455Y35316D01*
X-6526Y35268D01*
X-6574Y35196D01*
X-6580Y35167D01*
X-6633Y35156D01*
X-6634Y35158D01*
X-6706Y35206D01*
X-6790Y35222D01*
X-6875Y35206D01*
X-6946Y35158D01*
X-6967Y35127D01*
X-7027D01*
X-7034Y35138D01*
X-7106Y35186D01*
X-7190Y35202D01*
X-7275Y35186D01*
X-7346Y35138D01*
X-7394Y35066D01*
X-7411Y34982D01*
X-7394Y34897D01*
X-7346Y34826D01*
X-7275Y34778D01*
X-7190Y34761D01*
X-7106Y34778D01*
X-7034Y34826D01*
X-7013Y34856D01*
X-6953D01*
X-6946Y34846D01*
X-6875Y34798D01*
X-6790Y34781D01*
X-6706Y34798D01*
X-6634Y34846D01*
X-6586Y34917D01*
X-6580Y34946D01*
X-6527Y34957D01*
X-6526Y34956D01*
X-6455Y34908D01*
X-6370Y34891D01*
X-6286Y34908D01*
X-6245Y34935D01*
X-6194Y34929D01*
X-6186Y34919D01*
X-6145Y34857D01*
X-6073Y34809D01*
X-5989Y34792D01*
X-5904Y34809D01*
X-5833Y34857D01*
X-5785Y34928D01*
X-5768Y35013D01*
X-5785Y35097D01*
X-5833Y35169D01*
X-5904Y35217D01*
X-5989Y35234D01*
X-6073Y35217D01*
X-6114Y35190D01*
X-6165Y35196D01*
X-6173Y35206D01*
X-6214Y35268D01*
X-6286Y35316D01*
X-6370Y35332D01*
D02*
G37*
G36*
X-2890Y35612D02*
X-2975Y35596D01*
X-3046Y35548D01*
X-3094Y35476D01*
X-3111Y35392D01*
X-3094Y35307D01*
X-3046Y35236D01*
X-2975Y35188D01*
X-2890Y35171D01*
X-2806Y35188D01*
X-2734Y35236D01*
X-2686Y35307D01*
X-2669Y35392D01*
X-2686Y35476D01*
X-2734Y35548D01*
X-2806Y35596D01*
X-2890Y35612D01*
D02*
G37*
G36*
X-20866Y39197D02*
X-20951Y39180D01*
X-21022Y39132D01*
X-21070Y39061D01*
X-21087Y38976D01*
X-21070Y38892D01*
X-21022Y38820D01*
X-20951Y38772D01*
X-20866Y38756D01*
X-20782Y38772D01*
X-20710Y38820D01*
X-20662Y38892D01*
X-20645Y38976D01*
X-20662Y39061D01*
X-20710Y39132D01*
X-20782Y39180D01*
X-20866Y39197D01*
D02*
G37*
G36*
X-16490Y39552D02*
X-16575Y39536D01*
X-16646Y39488D01*
X-16694Y39416D01*
X-16707Y39349D01*
X-16712Y39345D01*
X-16753Y39328D01*
X-16759Y39328D01*
X-16816Y39366D01*
X-16900Y39382D01*
X-16985Y39366D01*
X-17056Y39318D01*
X-17104Y39246D01*
X-17121Y39162D01*
X-17104Y39077D01*
X-17056Y39006D01*
X-16985Y38958D01*
X-16900Y38941D01*
X-16816Y38958D01*
X-16744Y39006D01*
X-16696Y39077D01*
X-16683Y39144D01*
X-16678Y39148D01*
X-16637Y39165D01*
X-16631Y39166D01*
X-16575Y39128D01*
X-16490Y39111D01*
X-16406Y39128D01*
X-16334Y39176D01*
X-16286Y39247D01*
X-16269Y39332D01*
X-16286Y39416D01*
X-16334Y39488D01*
X-16406Y39536D01*
X-16490Y39552D01*
D02*
G37*
G36*
X-33185Y39158D02*
X-33269Y39141D01*
X-33341Y39093D01*
X-33389Y39021D01*
X-33405Y38937D01*
X-33389Y38853D01*
X-33341Y38781D01*
X-33269Y38733D01*
X-33185Y38716D01*
X-33100Y38733D01*
X-33029Y38781D01*
X-32981Y38853D01*
X-32964Y38937D01*
X-32981Y39021D01*
X-33029Y39093D01*
X-33100Y39141D01*
X-33185Y39158D01*
D02*
G37*
G36*
X-11070Y36652D02*
X-11155Y36636D01*
X-11226Y36588D01*
X-11274Y36516D01*
X-11291Y36432D01*
X-11274Y36347D01*
X-11226Y36276D01*
X-11155Y36228D01*
X-11070Y36211D01*
X-10986Y36228D01*
X-10914Y36276D01*
X-10866Y36347D01*
X-10849Y36432D01*
X-10866Y36516D01*
X-10914Y36588D01*
X-10986Y36636D01*
X-11070Y36652D01*
D02*
G37*
G36*
X-19690Y38612D02*
X-19775Y38596D01*
X-19846Y38548D01*
X-19894Y38476D01*
X-19911Y38392D01*
X-19894Y38307D01*
X-19846Y38236D01*
X-19775Y38188D01*
X-19690Y38171D01*
X-19606Y38188D01*
X-19534Y38236D01*
X-19486Y38307D01*
X-19469Y38392D01*
X-19486Y38476D01*
X-19534Y38548D01*
X-19606Y38596D01*
X-19690Y38612D01*
D02*
G37*
G36*
X-10870Y23592D02*
X-10955Y23576D01*
X-11026Y23528D01*
X-11074Y23456D01*
X-11091Y23372D01*
X-11074Y23287D01*
X-11030Y23222D01*
X-11037Y23196D01*
X-11051Y23172D01*
X-11696D01*
X-11710Y23222D01*
X-11666Y23287D01*
X-11649Y23372D01*
X-11666Y23456D01*
X-11714Y23528D01*
X-11786Y23576D01*
X-11870Y23592D01*
X-11955Y23576D01*
X-12026Y23528D01*
X-12074Y23456D01*
X-12091Y23372D01*
X-12074Y23287D01*
X-12030Y23222D01*
X-12044Y23172D01*
X-12696D01*
X-12710Y23222D01*
X-12666Y23287D01*
X-12649Y23372D01*
X-12666Y23456D01*
X-12714Y23528D01*
X-12786Y23576D01*
X-12870Y23592D01*
X-12955Y23576D01*
X-13026Y23528D01*
X-13074Y23456D01*
X-13091Y23372D01*
X-13074Y23287D01*
X-13030Y23222D01*
X-13044Y23172D01*
X-13696Y23172D01*
X-13710Y23222D01*
X-13666Y23287D01*
X-13649Y23372D01*
X-13666Y23456D01*
X-13714Y23528D01*
X-13786Y23576D01*
X-13870Y23592D01*
X-13955Y23576D01*
X-14026Y23528D01*
X-14074Y23456D01*
X-14091Y23372D01*
X-14074Y23287D01*
X-14030Y23222D01*
X-14044Y23172D01*
X-14697D01*
X-14710Y23222D01*
X-14666Y23287D01*
X-14649Y23372D01*
X-14666Y23456D01*
X-14714Y23528D01*
X-14786Y23576D01*
X-14870Y23592D01*
X-14955Y23576D01*
X-15026Y23528D01*
X-15074Y23456D01*
X-15091Y23372D01*
X-15074Y23287D01*
X-15030Y23222D01*
X-15044Y23172D01*
X-15697D01*
X-15710Y23222D01*
X-15666Y23287D01*
X-15649Y23372D01*
X-15666Y23456D01*
X-15714Y23528D01*
X-15786Y23576D01*
X-15870Y23592D01*
X-15955Y23576D01*
X-16026Y23528D01*
X-16074Y23456D01*
X-16091Y23372D01*
X-16074Y23287D01*
X-16030Y23222D01*
X-16044Y23172D01*
X-16696D01*
X-16710Y23222D01*
X-16666Y23287D01*
X-16649Y23372D01*
X-16666Y23456D01*
X-16714Y23528D01*
X-16786Y23576D01*
X-16870Y23592D01*
X-16955Y23576D01*
X-17026Y23528D01*
X-17074Y23456D01*
X-17091Y23372D01*
X-17074Y23287D01*
X-17030Y23222D01*
X-17044Y23172D01*
X-17696Y23172D01*
X-17710Y23222D01*
X-17666Y23287D01*
X-17649Y23372D01*
X-17666Y23456D01*
X-17714Y23528D01*
X-17786Y23576D01*
X-17870Y23592D01*
X-17955Y23576D01*
X-18026Y23528D01*
X-18074Y23456D01*
X-18091Y23372D01*
X-18074Y23287D01*
X-18030Y23222D01*
X-18044Y23172D01*
X-18697D01*
X-18710Y23222D01*
X-18666Y23287D01*
X-18649Y23372D01*
X-18666Y23456D01*
X-18714Y23528D01*
X-18786Y23576D01*
X-18870Y23592D01*
X-18955Y23576D01*
X-19026Y23528D01*
X-19074Y23456D01*
X-19091Y23372D01*
X-19074Y23287D01*
X-19030Y23222D01*
X-19044Y23172D01*
X-19697D01*
X-19710Y23222D01*
X-19666Y23287D01*
X-19649Y23372D01*
X-19666Y23456D01*
X-19714Y23528D01*
X-19786Y23576D01*
X-19870Y23592D01*
X-19955Y23576D01*
X-20026Y23528D01*
X-20074Y23456D01*
X-20091Y23372D01*
X-20074Y23287D01*
X-20030Y23222D01*
X-20044Y23172D01*
X-20696D01*
X-20710Y23222D01*
X-20666Y23287D01*
X-20649Y23372D01*
X-20666Y23456D01*
X-20714Y23528D01*
X-20786Y23576D01*
X-20870Y23592D01*
X-20955Y23576D01*
X-21026Y23528D01*
X-21074Y23456D01*
X-21091Y23372D01*
X-21074Y23287D01*
X-21030Y23222D01*
X-21044Y23172D01*
X-21697D01*
X-21710Y23222D01*
X-21666Y23287D01*
X-21649Y23372D01*
X-21666Y23456D01*
X-21714Y23528D01*
X-21786Y23576D01*
X-21870Y23592D01*
X-21955Y23576D01*
X-22026Y23528D01*
X-22074Y23456D01*
X-22091Y23372D01*
X-22074Y23287D01*
X-22030Y23222D01*
X-22044Y23172D01*
X-22696D01*
X-22710Y23222D01*
X-22666Y23287D01*
X-22649Y23372D01*
X-22666Y23456D01*
X-22714Y23528D01*
X-22786Y23576D01*
X-22870Y23592D01*
X-22955Y23576D01*
X-23026Y23528D01*
X-23074Y23456D01*
X-23091Y23372D01*
X-23074Y23287D01*
X-23030Y23222D01*
X-23044Y23172D01*
X-23696D01*
X-23710Y23222D01*
X-23666Y23287D01*
X-23649Y23372D01*
X-23666Y23456D01*
X-23714Y23528D01*
X-23786Y23576D01*
X-23870Y23592D01*
X-23955Y23576D01*
X-24026Y23528D01*
X-24074Y23456D01*
X-24091Y23372D01*
X-24074Y23287D01*
X-24030Y23222D01*
X-24044Y23172D01*
X-24697D01*
X-24710Y23222D01*
X-24666Y23287D01*
X-24649Y23372D01*
X-24666Y23456D01*
X-24714Y23528D01*
X-24786Y23576D01*
X-24870Y23592D01*
X-24955Y23576D01*
X-25026Y23528D01*
X-25074Y23456D01*
X-25091Y23372D01*
X-25074Y23287D01*
X-25030Y23222D01*
X-25044Y23172D01*
X-25696D01*
X-25710Y23222D01*
X-25666Y23287D01*
X-25649Y23372D01*
X-25666Y23456D01*
X-25714Y23528D01*
X-25786Y23576D01*
X-25870Y23592D01*
X-25955Y23576D01*
X-26026Y23528D01*
X-26074Y23456D01*
X-26091Y23372D01*
X-26074Y23287D01*
X-26030Y23222D01*
X-26044Y23172D01*
X-26697Y23172D01*
X-26710Y23222D01*
X-26666Y23287D01*
X-26649Y23372D01*
X-26666Y23456D01*
X-26714Y23528D01*
X-26786Y23576D01*
X-26870Y23592D01*
X-26955Y23576D01*
X-27026Y23528D01*
X-27074Y23456D01*
X-27091Y23372D01*
X-27074Y23287D01*
X-27030Y23222D01*
X-27044Y23172D01*
X-27696D01*
X-27710Y23222D01*
X-27666Y23287D01*
X-27649Y23372D01*
X-27666Y23456D01*
X-27714Y23528D01*
X-27786Y23576D01*
X-27870Y23592D01*
X-27955Y23576D01*
X-28026Y23528D01*
X-28074Y23456D01*
X-28091Y23372D01*
X-28074Y23287D01*
X-28030Y23222D01*
X-28044Y23172D01*
X-28450D01*
X-28450Y6065D01*
X-28492Y6037D01*
X-28522Y6049D01*
X-28661Y6068D01*
X-28799Y6049D01*
X-28929Y5996D01*
X-29040Y5911D01*
X-29125Y5800D01*
X-29178Y5670D01*
X-29197Y5531D01*
X-29178Y5393D01*
X-29125Y5263D01*
X-29040Y5152D01*
X-28929Y5067D01*
X-28799Y5014D01*
X-28661Y4995D01*
X-28522Y5014D01*
X-28393Y5067D01*
X-28282Y5152D01*
X-28196Y5263D01*
X-28143Y5393D01*
X-28125Y5531D01*
X-28143Y5670D01*
X-28189Y5782D01*
X-28163Y5832D01*
X-22675D01*
X-22658Y5782D01*
X-22688Y5759D01*
X-22754Y5672D01*
X-22796Y5572D01*
X-22810Y5464D01*
X-22796Y5356D01*
X-22754Y5255D01*
X-22688Y5169D01*
X-22601Y5103D01*
X-22501Y5061D01*
X-22393Y5047D01*
X-21330D01*
X-21222Y5061D01*
X-21121Y5103D01*
X-21035Y5169D01*
X-20969Y5255D01*
X-20927Y5356D01*
X-20913Y5464D01*
X-20927Y5572D01*
X-20969Y5672D01*
X-21035Y5759D01*
X-21065Y5782D01*
X-21048Y5832D01*
X-10970D01*
X-10970Y23122D01*
X-10920Y23161D01*
X-10870Y23151D01*
X-10786Y23168D01*
X-10714Y23216D01*
X-10666Y23287D01*
X-10649Y23372D01*
X-10666Y23456D01*
X-10714Y23528D01*
X-10786Y23576D01*
X-10870Y23592D01*
D02*
G37*
G36*
X-30315Y25161D02*
X-30433Y25146D01*
X-30543Y25100D01*
X-30638Y25028D01*
X-30710Y24933D01*
X-30756Y24823D01*
X-30772Y24705D01*
X-30756Y24587D01*
X-30710Y24476D01*
X-30638Y24382D01*
X-30543Y24309D01*
X-30433Y24264D01*
X-30315Y24248D01*
X-30197Y24264D01*
X-30087Y24309D01*
X-29992Y24382D01*
X-29919Y24476D01*
X-29874Y24587D01*
X-29858Y24705D01*
X-29874Y24823D01*
X-29919Y24933D01*
X-29992Y25028D01*
X-30087Y25100D01*
X-30197Y25146D01*
X-30315Y25161D01*
D02*
G37*
G36*
X-6425Y23608D02*
X-6509Y23591D01*
X-6581Y23543D01*
X-6629Y23471D01*
X-6646Y23387D01*
X-6629Y23302D01*
X-6581Y23231D01*
X-6509Y23183D01*
X-6425Y23166D01*
X-6341Y23183D01*
X-6269Y23231D01*
X-6221Y23302D01*
X-6204Y23387D01*
X-6221Y23471D01*
X-6269Y23543D01*
X-6341Y23591D01*
X-6425Y23608D01*
D02*
G37*
G36*
X-4880Y23402D02*
X-4965Y23386D01*
X-5036Y23338D01*
X-5084Y23266D01*
X-5101Y23182D01*
X-5084Y23097D01*
X-5036Y23026D01*
X-4965Y22978D01*
X-4880Y22961D01*
X-4796Y22978D01*
X-4724Y23026D01*
X-4676Y23097D01*
X-4659Y23182D01*
X-4676Y23266D01*
X-4724Y23338D01*
X-4796Y23386D01*
X-4880Y23402D01*
D02*
G37*
G36*
X-10370Y23492D02*
X-10455Y23476D01*
X-10526Y23428D01*
X-10574Y23356D01*
X-10591Y23272D01*
X-10574Y23187D01*
X-10526Y23116D01*
X-10455Y23068D01*
X-10370Y23051D01*
X-10286Y23068D01*
X-10214Y23116D01*
X-10166Y23187D01*
X-10149Y23272D01*
X-10166Y23356D01*
X-10214Y23428D01*
X-10286Y23476D01*
X-10370Y23492D01*
D02*
G37*
G36*
X-29200Y25921D02*
X-29284Y25904D01*
X-29356Y25856D01*
X-29404Y25784D01*
X-29421Y25700D01*
X-29404Y25616D01*
X-29356Y25544D01*
X-29284Y25496D01*
X-29200Y25479D01*
X-29116Y25496D01*
X-29044Y25544D01*
X-28996Y25616D01*
X-28979Y25700D01*
X-28996Y25784D01*
X-29044Y25856D01*
X-29116Y25904D01*
X-29200Y25921D01*
D02*
G37*
G36*
X-7300D02*
X-7384Y25904D01*
X-7456Y25856D01*
X-7504Y25784D01*
X-7521Y25700D01*
X-7504Y25616D01*
X-7456Y25544D01*
X-7384Y25496D01*
X-7300Y25479D01*
X-7216Y25496D01*
X-7144Y25544D01*
X-7096Y25616D01*
X-7079Y25700D01*
X-7096Y25784D01*
X-7144Y25856D01*
X-7216Y25904D01*
X-7300Y25921D01*
D02*
G37*
G36*
X-4830Y25172D02*
X-4915Y25156D01*
X-4986Y25108D01*
X-5034Y25036D01*
X-5051Y24952D01*
X-5034Y24867D01*
X-4986Y24796D01*
X-4915Y24748D01*
X-4830Y24731D01*
X-4746Y24748D01*
X-4674Y24796D01*
X-4626Y24867D01*
X-4609Y24952D01*
X-4626Y25036D01*
X-4674Y25108D01*
X-4746Y25156D01*
X-4830Y25172D01*
D02*
G37*
G36*
X-11024Y25161D02*
X-11142Y25146D01*
X-11252Y25100D01*
X-11347Y25028D01*
X-11419Y24933D01*
X-11465Y24823D01*
X-11480Y24705D01*
X-11465Y24587D01*
X-11419Y24476D01*
X-11347Y24382D01*
X-11252Y24309D01*
X-11142Y24264D01*
X-11024Y24248D01*
X-10905Y24264D01*
X-10795Y24309D01*
X-10701Y24382D01*
X-10628Y24476D01*
X-10583Y24587D01*
X-10567Y24705D01*
X-10583Y24823D01*
X-10628Y24933D01*
X-10701Y25028D01*
X-10795Y25100D01*
X-10905Y25146D01*
X-11024Y25161D01*
D02*
G37*
G36*
X-6070Y24822D02*
X-6155Y24806D01*
X-6226Y24758D01*
X-6274Y24686D01*
X-6291Y24602D01*
X-6274Y24517D01*
X-6226Y24446D01*
X-6155Y24398D01*
X-6070Y24381D01*
X-5986Y24398D01*
X-5914Y24446D01*
X-5866Y24517D01*
X-5849Y24602D01*
X-5866Y24686D01*
X-5914Y24758D01*
X-5986Y24806D01*
X-6070Y24822D01*
D02*
G37*
G36*
X-9580Y23322D02*
X-9665Y23306D01*
X-9736Y23258D01*
X-9784Y23186D01*
X-9801Y23102D01*
X-9784Y23017D01*
X-9736Y22946D01*
X-9665Y22898D01*
X-9580Y22881D01*
X-9496Y22898D01*
X-9424Y22946D01*
X-9376Y23017D01*
X-9359Y23102D01*
X-9376Y23186D01*
X-9424Y23258D01*
X-9496Y23306D01*
X-9580Y23322D01*
D02*
G37*
G36*
X-5450Y21252D02*
X-5535Y21236D01*
X-5606Y21188D01*
X-5654Y21116D01*
X-5671Y21032D01*
X-5654Y20947D01*
X-5606Y20876D01*
X-5535Y20828D01*
X-5450Y20811D01*
X-5366Y20828D01*
X-5294Y20876D01*
X-5246Y20947D01*
X-5229Y21032D01*
X-5246Y21116D01*
X-5294Y21188D01*
X-5366Y21236D01*
X-5450Y21252D01*
D02*
G37*
G36*
X-10370Y21492D02*
X-10455Y21476D01*
X-10526Y21428D01*
X-10574Y21356D01*
X-10591Y21272D01*
X-10574Y21187D01*
X-10526Y21116D01*
X-10455Y21068D01*
X-10370Y21051D01*
X-10286Y21068D01*
X-10214Y21116D01*
X-10166Y21187D01*
X-10149Y21272D01*
X-10166Y21356D01*
X-10214Y21428D01*
X-10286Y21476D01*
X-10370Y21492D01*
D02*
G37*
G36*
X-4250Y21052D02*
X-4335Y21036D01*
X-4406Y20988D01*
X-4454Y20916D01*
X-4471Y20832D01*
X-4454Y20747D01*
X-4406Y20676D01*
X-4335Y20628D01*
X-4250Y20611D01*
X-4166Y20628D01*
X-4094Y20676D01*
X-4046Y20747D01*
X-4029Y20832D01*
X-4046Y20916D01*
X-4094Y20988D01*
X-4166Y21036D01*
X-4250Y21052D01*
D02*
G37*
G36*
X-29310Y20582D02*
X-29379Y20569D01*
X-29438Y20529D01*
X-29477Y20471D01*
X-29491Y20402D01*
X-29477Y20333D01*
X-29438Y20274D01*
X-29379Y20235D01*
X-29310Y20221D01*
X-29241Y20235D01*
X-29182Y20274D01*
X-29143Y20333D01*
X-29129Y20402D01*
X-29143Y20471D01*
X-29182Y20529D01*
X-29241Y20569D01*
X-29310Y20582D01*
D02*
G37*
G36*
X-7240Y20982D02*
X-7325Y20966D01*
X-7396Y20918D01*
X-7444Y20846D01*
X-7461Y20762D01*
X-7444Y20677D01*
X-7396Y20606D01*
X-7325Y20558D01*
X-7240Y20541D01*
X-7156Y20558D01*
X-7084Y20606D01*
X-7036Y20677D01*
X-7019Y20762D01*
X-7036Y20846D01*
X-7084Y20918D01*
X-7156Y20966D01*
X-7240Y20982D01*
D02*
G37*
G36*
X-8130Y22942D02*
X-8215Y22926D01*
X-8286Y22878D01*
X-8334Y22806D01*
X-8351Y22722D01*
X-8334Y22637D01*
X-8286Y22566D01*
X-8215Y22518D01*
X-8130Y22501D01*
X-8046Y22518D01*
X-7974Y22566D01*
X-7926Y22637D01*
X-7909Y22722D01*
X-7926Y22806D01*
X-7974Y22878D01*
X-8046Y22926D01*
X-8130Y22942D01*
D02*
G37*
G36*
X-7300Y23021D02*
X-7384Y23004D01*
X-7456Y22956D01*
X-7504Y22884D01*
X-7521Y22800D01*
X-7504Y22716D01*
X-7456Y22644D01*
X-7384Y22596D01*
X-7300Y22579D01*
X-7216Y22596D01*
X-7144Y22644D01*
X-7096Y22716D01*
X-7079Y22800D01*
X-7096Y22884D01*
X-7144Y22956D01*
X-7216Y23004D01*
X-7300Y23021D01*
D02*
G37*
G36*
X-6100Y22822D02*
X-6185Y22806D01*
X-6256Y22758D01*
X-6304Y22686D01*
X-6321Y22602D01*
X-6304Y22517D01*
X-6256Y22446D01*
X-6185Y22398D01*
X-6100Y22381D01*
X-6016Y22398D01*
X-5944Y22446D01*
X-5896Y22517D01*
X-5879Y22602D01*
X-5896Y22686D01*
X-5944Y22758D01*
X-6016Y22806D01*
X-6100Y22822D01*
D02*
G37*
G36*
X-7030Y21492D02*
X-7115Y21476D01*
X-7186Y21428D01*
X-7234Y21356D01*
X-7251Y21272D01*
X-7234Y21187D01*
X-7186Y21116D01*
X-7115Y21068D01*
X-7030Y21051D01*
X-6946Y21068D01*
X-6874Y21116D01*
X-6826Y21187D01*
X-6809Y21272D01*
X-6826Y21356D01*
X-6874Y21428D01*
X-6946Y21476D01*
X-7030Y21492D01*
D02*
G37*
G36*
X-10370Y22492D02*
X-10455Y22476D01*
X-10526Y22428D01*
X-10574Y22356D01*
X-10591Y22272D01*
X-10574Y22187D01*
X-10526Y22116D01*
X-10455Y22068D01*
X-10370Y22051D01*
X-10286Y22068D01*
X-10214Y22116D01*
X-10166Y22187D01*
X-10149Y22272D01*
X-10166Y22356D01*
X-10214Y22428D01*
X-10286Y22476D01*
X-10370Y22492D01*
D02*
G37*
G36*
X-13400Y32332D02*
X-13485Y32316D01*
X-13556Y32268D01*
X-13604Y32196D01*
X-13621Y32112D01*
X-13604Y32027D01*
X-13556Y31956D01*
X-13485Y31908D01*
X-13400Y31891D01*
X-13316Y31908D01*
X-13244Y31956D01*
X-13196Y32027D01*
X-13179Y32112D01*
X-13196Y32196D01*
X-13244Y32268D01*
X-13316Y32316D01*
X-13400Y32332D01*
D02*
G37*
G36*
X-32480Y32155D02*
X-32484Y32153D01*
X-32489Y32154D01*
X-32617Y32137D01*
X-32625Y32133D01*
X-32633D01*
X-32753Y32083D01*
X-32759Y32077D01*
X-32767Y32075D01*
X-32870Y31996D01*
X-32875Y31989D01*
X-32882Y31984D01*
X-32961Y31882D01*
X-32963Y31873D01*
X-32969Y31867D01*
X-33019Y31747D01*
Y31739D01*
X-33023Y31731D01*
X-33040Y31603D01*
X-33038Y31594D01*
X-33040Y31586D01*
X-33023Y31458D01*
X-33019Y31450D01*
Y31442D01*
X-32969Y31322D01*
X-32963Y31316D01*
X-32961Y31307D01*
X-32882Y31205D01*
X-32875Y31200D01*
X-32870Y31193D01*
X-32767Y31114D01*
X-32759Y31112D01*
X-32753Y31106D01*
X-32633Y31056D01*
X-32625D01*
X-32617Y31052D01*
X-32489Y31035D01*
X-32484Y31036D01*
X-32480Y31034D01*
X-32476Y31036D01*
X-32472Y31035D01*
X-32343Y31052D01*
X-32336Y31056D01*
X-32327D01*
X-32208Y31106D01*
X-32202Y31112D01*
X-32193Y31114D01*
X-32090Y31193D01*
X-32086Y31200D01*
X-32079Y31205D01*
X-32000Y31307D01*
X-31997Y31316D01*
X-31991Y31322D01*
X-31942Y31442D01*
Y31450D01*
X-31937Y31458D01*
X-31921Y31586D01*
X-31923Y31594D01*
X-31921Y31603D01*
X-31937Y31731D01*
X-31942Y31739D01*
Y31747D01*
X-31991Y31867D01*
X-31997Y31873D01*
X-32000Y31882D01*
X-32079Y31984D01*
X-32086Y31989D01*
X-32090Y31996D01*
X-32193Y32075D01*
X-32202Y32077D01*
X-32208Y32083D01*
X-32327Y32133D01*
X-32336D01*
X-32343Y32137D01*
X-32472Y32154D01*
X-32476Y32153D01*
X-32480Y32155D01*
D02*
G37*
G36*
X-25591Y32111D02*
X-25675Y32094D01*
X-25747Y32046D01*
X-25795Y31974D01*
X-25811Y31890D01*
X-25795Y31805D01*
X-25747Y31734D01*
X-25675Y31686D01*
X-25591Y31669D01*
X-25506Y31686D01*
X-25434Y31734D01*
X-25387Y31805D01*
X-25370Y31890D01*
X-25387Y31974D01*
X-25434Y32046D01*
X-25506Y32094D01*
X-25591Y32111D01*
D02*
G37*
G36*
X-9850Y31742D02*
X-9935Y31726D01*
X-10006Y31678D01*
X-10054Y31606D01*
X-10071Y31522D01*
X-10054Y31437D01*
X-10006Y31366D01*
X-9935Y31318D01*
X-9850Y31301D01*
X-9766Y31318D01*
X-9694Y31366D01*
X-9646Y31437D01*
X-9629Y31522D01*
X-9646Y31606D01*
X-9694Y31678D01*
X-9766Y31726D01*
X-9850Y31742D01*
D02*
G37*
G36*
X-27165Y32111D02*
X-27250Y32094D01*
X-27321Y32046D01*
X-27369Y31974D01*
X-27386Y31890D01*
X-27369Y31805D01*
X-27321Y31734D01*
X-27250Y31686D01*
X-27165Y31669D01*
X-27081Y31686D01*
X-27009Y31734D01*
X-26961Y31805D01*
X-26945Y31890D01*
X-26961Y31974D01*
X-27009Y32046D01*
X-27081Y32094D01*
X-27165Y32111D01*
D02*
G37*
G36*
X-2530Y33129D02*
X-2623Y33117D01*
X-2709Y33081D01*
X-2783Y33024D01*
X-2840Y32950D01*
X-2875Y32864D01*
X-2887Y32772D01*
X-2875Y32679D01*
X-2840Y32593D01*
X-2783Y32519D01*
X-2709Y32462D01*
X-2623Y32426D01*
X-2530Y32414D01*
X-2438Y32426D01*
X-2351Y32462D01*
X-2277Y32519D01*
X-2221Y32593D01*
X-2185Y32679D01*
X-2173Y32772D01*
X-2185Y32864D01*
X-2221Y32950D01*
X-2277Y33024D01*
X-2351Y33081D01*
X-2438Y33117D01*
X-2530Y33129D01*
D02*
G37*
G36*
X-7270Y33042D02*
X-7355Y33026D01*
X-7426Y32978D01*
X-7474Y32906D01*
X-7491Y32822D01*
X-7474Y32737D01*
X-7426Y32666D01*
X-7355Y32618D01*
X-7270Y32601D01*
X-7186Y32618D01*
X-7114Y32666D01*
X-7066Y32737D01*
X-7049Y32822D01*
X-7066Y32906D01*
X-7114Y32978D01*
X-7186Y33026D01*
X-7270Y33042D01*
D02*
G37*
G36*
X-3530Y33129D02*
X-3623Y33117D01*
X-3709Y33081D01*
X-3783Y33024D01*
X-3840Y32950D01*
X-3875Y32864D01*
X-3887Y32772D01*
X-3875Y32679D01*
X-3840Y32593D01*
X-3783Y32519D01*
X-3709Y32462D01*
X-3623Y32426D01*
X-3530Y32414D01*
X-3438Y32426D01*
X-3351Y32462D01*
X-3277Y32519D01*
X-3221Y32593D01*
X-3185Y32679D01*
X-3173Y32772D01*
X-3185Y32864D01*
X-3221Y32950D01*
X-3277Y33024D01*
X-3351Y33081D01*
X-3438Y33117D01*
X-3530Y33129D01*
D02*
G37*
G36*
X-6890Y32155D02*
X-6894Y32153D01*
X-6898Y32154D01*
X-7027Y32137D01*
X-7034Y32133D01*
X-7043D01*
X-7162Y32083D01*
X-7169Y32077D01*
X-7177Y32075D01*
X-7280Y31996D01*
X-7284Y31989D01*
X-7291Y31984D01*
X-7370Y31882D01*
X-7373Y31873D01*
X-7379Y31867D01*
X-7428Y31747D01*
Y31739D01*
X-7433Y31731D01*
X-7450Y31603D01*
X-7447Y31594D01*
X-7450Y31586D01*
X-7433Y31458D01*
X-7428Y31450D01*
Y31442D01*
X-7379Y31322D01*
X-7373Y31316D01*
X-7370Y31307D01*
X-7291Y31205D01*
X-7284Y31200D01*
X-7280Y31193D01*
X-7177Y31114D01*
X-7169Y31112D01*
X-7162Y31106D01*
X-7043Y31056D01*
X-7034D01*
X-7027Y31052D01*
X-6898Y31035D01*
X-6894Y31036D01*
X-6890Y31034D01*
X-6886Y31036D01*
X-6881Y31035D01*
X-6753Y31052D01*
X-6745Y31056D01*
X-6737D01*
X-6617Y31106D01*
X-6611Y31112D01*
X-6603Y31114D01*
X-6500Y31193D01*
X-6496Y31200D01*
X-6488Y31205D01*
X-6409Y31307D01*
X-6407Y31316D01*
X-6401Y31322D01*
X-6351Y31442D01*
Y31450D01*
X-6347Y31458D01*
X-6330Y31586D01*
X-6332Y31594D01*
X-6330Y31603D01*
X-6347Y31731D01*
X-6351Y31739D01*
Y31747D01*
X-6401Y31867D01*
X-6407Y31873D01*
X-6409Y31882D01*
X-6488Y31984D01*
X-6496Y31989D01*
X-6500Y31996D01*
X-6603Y32075D01*
X-6611Y32077D01*
X-6617Y32083D01*
X-6737Y32133D01*
X-6745D01*
X-6753Y32137D01*
X-6881Y32154D01*
X-6886Y32153D01*
X-6890Y32155D01*
D02*
G37*
G36*
X-4530Y33129D02*
X-4623Y33117D01*
X-4709Y33081D01*
X-4783Y33024D01*
X-4840Y32950D01*
X-4875Y32864D01*
X-4887Y32772D01*
X-4875Y32679D01*
X-4840Y32593D01*
X-4783Y32519D01*
X-4709Y32462D01*
X-4623Y32426D01*
X-4530Y32414D01*
X-4438Y32426D01*
X-4351Y32462D01*
X-4277Y32519D01*
X-4221Y32593D01*
X-4185Y32679D01*
X-4173Y32772D01*
X-4185Y32864D01*
X-4221Y32950D01*
X-4277Y33024D01*
X-4351Y33081D01*
X-4438Y33117D01*
X-4530Y33129D01*
D02*
G37*
G36*
X-26840Y29982D02*
X-26925Y29966D01*
X-26996Y29918D01*
X-27044Y29846D01*
X-27061Y29762D01*
X-27044Y29677D01*
X-26996Y29606D01*
X-26925Y29558D01*
X-26840Y29541D01*
X-26756Y29558D01*
X-26684Y29606D01*
X-26636Y29677D01*
X-26619Y29762D01*
X-26636Y29846D01*
X-26684Y29918D01*
X-26756Y29966D01*
X-26840Y29982D01*
D02*
G37*
G36*
X-14961Y26297D02*
X-14964Y26296D01*
X-14967Y26297D01*
X-15092Y26285D01*
X-15098Y26282D01*
X-15105Y26282D01*
X-15225Y26246D01*
X-15230Y26241D01*
X-15237Y26241D01*
X-15348Y26181D01*
X-15352Y26176D01*
X-15358Y26174D01*
X-15456Y26095D01*
X-15459Y26089D01*
X-15465Y26086D01*
X-15545Y25988D01*
X-15546Y25982D01*
X-15552Y25978D01*
X-15611Y25867D01*
X-15612Y25860D01*
X-15616Y25855D01*
X-15652Y25735D01*
X-15652Y25728D01*
X-15655Y25722D01*
X-15667Y25597D01*
X-15665Y25591D01*
X-15667Y25584D01*
X-15655Y25459D01*
X-15652Y25453D01*
X-15652Y25447D01*
X-15616Y25326D01*
X-15612Y25321D01*
X-15611Y25314D01*
X-15552Y25203D01*
X-15546Y25199D01*
X-15545Y25193D01*
X-15465Y25095D01*
X-15459Y25092D01*
X-15456Y25087D01*
X-15358Y25007D01*
X-15352Y25005D01*
X-15348Y25000D01*
X-15237Y24940D01*
X-15230Y24940D01*
X-15225Y24935D01*
X-15105Y24899D01*
X-15098Y24900D01*
X-15092Y24896D01*
X-14967Y24884D01*
X-14964Y24885D01*
X-14961Y24884D01*
X-14958Y24885D01*
X-14954Y24884D01*
X-14829Y24896D01*
X-14823Y24900D01*
X-14817Y24899D01*
X-14696Y24935D01*
X-14691Y24940D01*
X-14684Y24940D01*
X-14573Y25000D01*
X-14569Y25005D01*
X-14563Y25007D01*
X-14466Y25087D01*
X-14462Y25092D01*
X-14457Y25095D01*
X-14377Y25193D01*
X-14375Y25199D01*
X-14370Y25203D01*
X-14310Y25314D01*
X-14310Y25321D01*
X-14306Y25326D01*
X-14269Y25447D01*
X-14270Y25453D01*
X-14267Y25459D01*
X-14254Y25584D01*
X-14256Y25591D01*
X-14254Y25597D01*
X-14267Y25722D01*
X-14270Y25728D01*
X-14269Y25735D01*
X-14306Y25855D01*
X-14310Y25860D01*
X-14310Y25867D01*
X-14370Y25978D01*
X-14375Y25982D01*
X-14377Y25988D01*
X-14457Y26086D01*
X-14462Y26089D01*
X-14466Y26095D01*
X-14563Y26174D01*
X-14569Y26176D01*
X-14573Y26181D01*
X-14684Y26241D01*
X-14691Y26241D01*
X-14696Y26246D01*
X-14817Y26282D01*
X-14823Y26282D01*
X-14829Y26285D01*
X-14954Y26297D01*
X-14958Y26296D01*
X-14961Y26297D01*
D02*
G37*
G36*
X-17765Y27288D02*
X-17850Y27271D01*
X-17921Y27223D01*
X-17969Y27151D01*
X-17986Y27067D01*
X-17969Y26982D01*
X-17921Y26911D01*
X-17850Y26863D01*
X-17765Y26846D01*
X-17681Y26863D01*
X-17609Y26911D01*
X-17561Y26982D01*
X-17545Y27067D01*
X-17561Y27151D01*
X-17609Y27223D01*
X-17681Y27271D01*
X-17765Y27288D01*
D02*
G37*
G36*
X-24409Y26297D02*
X-24413Y26296D01*
X-24416Y26297D01*
X-24541Y26285D01*
X-24547Y26282D01*
X-24553Y26282D01*
X-24674Y26246D01*
X-24679Y26241D01*
X-24686Y26241D01*
X-24797Y26181D01*
X-24801Y26176D01*
X-24807Y26174D01*
X-24905Y26095D01*
X-24908Y26089D01*
X-24913Y26086D01*
X-24993Y25988D01*
X-24995Y25982D01*
X-25000Y25978D01*
X-25060Y25867D01*
X-25060Y25860D01*
X-25065Y25855D01*
X-25101Y25735D01*
X-25100Y25728D01*
X-25104Y25722D01*
X-25116Y25597D01*
X-25114Y25591D01*
X-25116Y25584D01*
X-25104Y25459D01*
X-25100Y25453D01*
X-25101Y25447D01*
X-25065Y25326D01*
X-25060Y25321D01*
X-25060Y25314D01*
X-25000Y25203D01*
X-24995Y25199D01*
X-24993Y25193D01*
X-24913Y25095D01*
X-24908Y25092D01*
X-24905Y25087D01*
X-24807Y25007D01*
X-24801Y25005D01*
X-24797Y25000D01*
X-24686Y24940D01*
X-24679Y24940D01*
X-24674Y24935D01*
X-24553Y24899D01*
X-24547Y24900D01*
X-24541Y24896D01*
X-24416Y24884D01*
X-24413Y24885D01*
X-24409Y24884D01*
X-24406Y24885D01*
X-24403Y24884D01*
X-24278Y24896D01*
X-24272Y24900D01*
X-24265Y24899D01*
X-24145Y24935D01*
X-24140Y24940D01*
X-24133Y24940D01*
X-24022Y25000D01*
X-24018Y25005D01*
X-24012Y25007D01*
X-23914Y25087D01*
X-23911Y25092D01*
X-23905Y25095D01*
X-23826Y25193D01*
X-23824Y25199D01*
X-23819Y25203D01*
X-23759Y25314D01*
X-23759Y25321D01*
X-23754Y25326D01*
X-23718Y25447D01*
X-23718Y25453D01*
X-23715Y25459D01*
X-23703Y25584D01*
X-23705Y25591D01*
X-23703Y25597D01*
X-23715Y25722D01*
X-23718Y25728D01*
X-23718Y25735D01*
X-23754Y25855D01*
X-23759Y25860D01*
X-23759Y25867D01*
X-23819Y25978D01*
X-23824Y25982D01*
X-23826Y25988D01*
X-23905Y26086D01*
X-23911Y26089D01*
X-23914Y26095D01*
X-24012Y26174D01*
X-24018Y26176D01*
X-24022Y26181D01*
X-24133Y26241D01*
X-24140Y26241D01*
X-24145Y26246D01*
X-24265Y26282D01*
X-24272Y26282D01*
X-24278Y26285D01*
X-24403Y26297D01*
X-24406Y26296D01*
X-24409Y26297D01*
D02*
G37*
G36*
X-30315Y27130D02*
X-30433Y27114D01*
X-30543Y27069D01*
X-30638Y26996D01*
X-30710Y26902D01*
X-30756Y26791D01*
X-30772Y26673D01*
X-30756Y26555D01*
X-30710Y26445D01*
X-30638Y26350D01*
X-30543Y26278D01*
X-30433Y26232D01*
X-30315Y26217D01*
X-30197Y26232D01*
X-30087Y26278D01*
X-29992Y26350D01*
X-29919Y26445D01*
X-29874Y26555D01*
X-29858Y26673D01*
X-29874Y26791D01*
X-29919Y26902D01*
X-29992Y26996D01*
X-30087Y27069D01*
X-30197Y27114D01*
X-30315Y27130D01*
D02*
G37*
G36*
X-11024D02*
X-11142Y27114D01*
X-11252Y27069D01*
X-11347Y26996D01*
X-11419Y26902D01*
X-11465Y26791D01*
X-11480Y26673D01*
X-11465Y26555D01*
X-11419Y26445D01*
X-11347Y26350D01*
X-11252Y26278D01*
X-11142Y26232D01*
X-11024Y26217D01*
X-10905Y26232D01*
X-10795Y26278D01*
X-10701Y26350D01*
X-10628Y26445D01*
X-10583Y26555D01*
X-10567Y26673D01*
X-10583Y26791D01*
X-10628Y26902D01*
X-10701Y26996D01*
X-10795Y27069D01*
X-10905Y27114D01*
X-11024Y27130D01*
D02*
G37*
G36*
X-27333Y29405D02*
X-27417Y29388D01*
X-27489Y29340D01*
X-27537Y29269D01*
X-27554Y29184D01*
X-27537Y29100D01*
X-27489Y29028D01*
X-27417Y28980D01*
X-27333Y28964D01*
X-27248Y28980D01*
X-27177Y29028D01*
X-27129Y29100D01*
X-27112Y29184D01*
X-27129Y29269D01*
X-27177Y29340D01*
X-27248Y29388D01*
X-27333Y29405D01*
D02*
G37*
G36*
X-25591Y29748D02*
X-25675Y29732D01*
X-25747Y29684D01*
X-25795Y29612D01*
X-25811Y29528D01*
X-25795Y29443D01*
X-25747Y29371D01*
X-25675Y29324D01*
X-25591Y29307D01*
X-25506Y29324D01*
X-25434Y29371D01*
X-25387Y29443D01*
X-25370Y29528D01*
X-25387Y29612D01*
X-25434Y29684D01*
X-25506Y29732D01*
X-25591Y29748D01*
D02*
G37*
G36*
X-25620Y28762D02*
X-25705Y28746D01*
X-25776Y28698D01*
X-25824Y28626D01*
X-25841Y28542D01*
X-25824Y28457D01*
X-25776Y28386D01*
X-25705Y28338D01*
X-25620Y28321D01*
X-25536Y28338D01*
X-25464Y28386D01*
X-25416Y28457D01*
X-25399Y28542D01*
X-25416Y28626D01*
X-25464Y28698D01*
X-25536Y28746D01*
X-25620Y28762D01*
D02*
G37*
G36*
X-25940Y27642D02*
X-26025Y27626D01*
X-26096Y27578D01*
X-26144Y27506D01*
X-26161Y27422D01*
X-26144Y27337D01*
X-26096Y27266D01*
X-26025Y27218D01*
X-25940Y27201D01*
X-25856Y27218D01*
X-25784Y27266D01*
X-25736Y27337D01*
X-25719Y27422D01*
X-25736Y27506D01*
X-25784Y27578D01*
X-25856Y27626D01*
X-25940Y27642D01*
D02*
G37*
G36*
X-7300Y28521D02*
X-7384Y28504D01*
X-7456Y28456D01*
X-7504Y28384D01*
X-7521Y28300D01*
X-7504Y28216D01*
X-7456Y28144D01*
X-7384Y28096D01*
X-7300Y28079D01*
X-7216Y28096D01*
X-7144Y28144D01*
X-7096Y28216D01*
X-7079Y28300D01*
X-7096Y28384D01*
X-7144Y28456D01*
X-7216Y28504D01*
X-7300Y28521D01*
D02*
G37*
%LPD*%
D25*
X-21861Y3102D02*
D03*
D26*
Y5464D02*
D03*
D27*
X-34862Y37717D02*
D03*
D28*
X-20079Y33130D02*
D03*
D30*
X-28346Y26673D02*
D03*
Y24705D02*
D03*
X-9055Y26673D02*
D03*
Y24705D02*
D03*
D34*
X-29231Y2402D02*
D03*
X-34212Y3000D02*
D03*
D35*
X-5586Y4552D02*
D03*
X-4483Y3674D02*
D03*
X-3370Y4552D02*
D03*
D38*
X-29773Y29184D02*
D03*
X-24490Y43188D02*
D03*
X-12574Y38978D02*
D03*
X-4350Y41996D02*
D03*
X-15470Y2773D02*
D03*
X-15220Y3023D02*
D03*
Y2773D02*
D03*
X-15470Y3023D02*
D03*
X-13670Y3033D02*
D03*
X-13420Y2783D02*
D03*
Y3033D02*
D03*
X-13670Y2783D02*
D03*
X-28815Y12876D02*
D03*
X-30630Y12872D02*
D03*
Y14632D02*
D03*
X-21820Y26432D02*
D03*
X-33855Y18267D02*
D03*
Y17314D02*
D03*
Y16937D02*
D03*
X-32610Y15422D02*
D03*
X-32470Y14462D02*
D03*
X-30040Y11122D02*
D03*
X-34795Y15816D02*
D03*
X-13830Y4452D02*
D03*
X-13580Y4702D02*
D03*
Y4452D02*
D03*
X-13830Y4702D02*
D03*
X-13330Y4452D02*
D03*
Y4702D02*
D03*
X-8550Y44322D02*
D03*
X-4040Y36132D02*
D03*
X-8110Y35952D02*
D03*
X-11680Y36272D02*
D03*
X-18110Y34823D02*
D03*
X-6809Y6631D02*
D03*
X-34116Y20642D02*
D03*
X-5150Y19720D02*
D03*
X-1870Y6752D02*
D03*
X-2323Y17274D02*
D03*
X-6475Y10726D02*
D03*
X-36535Y16327D02*
D03*
D39*
X-5720Y16067D02*
D03*
X-7121Y13651D02*
D03*
X-7200Y15282D02*
D03*
X-7190Y14242D02*
D03*
D40*
X-30040Y12866D02*
X-30030Y12876D01*
D41*
X-30630D02*
X-30030D01*
X-33855Y17314D02*
Y18267D01*
Y16937D02*
Y17314D01*
Y16037D02*
Y16937D01*
Y16037D02*
X-33225D01*
X-32610Y15422D01*
Y14602D02*
Y15422D01*
Y14602D02*
X-32470Y14462D01*
X-30860D01*
X-30630Y14632D01*
X-30030Y12876D02*
X-28815D01*
X-30630Y12872D02*
Y12876D01*
Y14632D01*
X-34795Y15816D02*
X-34075D01*
X-33855Y16037D01*
D42*
X-30040Y11122D02*
Y12866D01*
M02*
