G04 Layer_Color=16711935*
%FSLAX24Y24*%
%MOIN*%
G70*
G01*
G75*
%ADD70R,0.0474X0.0395*%
%ADD71R,0.0395X0.0474*%
%ADD72C,0.0787*%
%ADD79C,0.1360*%
%ADD80C,0.0039*%
%ADD81O,0.1655X0.0789*%
%ADD82O,0.1852X0.0789*%
%ADD83C,0.1261*%
%ADD84C,0.0671*%
%ADD85C,0.1064*%
%ADD86C,0.0867*%
%ADD87R,0.0634X0.0634*%
%ADD88C,0.0634*%
%ADD89C,0.1025*%
%ADD90C,0.0630*%
%ADD91O,0.0789X0.0552*%
%ADD92R,0.0671X0.0671*%
%ADD93R,0.0671X0.0671*%
%ADD94R,0.0887X0.0671*%
%ADD95R,0.0671X0.0395*%
%ADD96O,0.1220X0.0354*%
%ADD97O,0.1417X0.0354*%
%ADD98R,0.0671X0.0198*%
%ADD99R,0.0198X0.0671*%
%ADD100R,0.0730X0.1655*%
%ADD101R,0.0474X0.0631*%
%ADD102R,0.0415X0.0474*%
%ADD103R,0.0415X0.0474*%
%ADD104R,0.0356X0.0257*%
%ADD105R,0.0828X0.1064*%
%ADD106R,0.0474X0.0159*%
%ADD107R,0.0159X0.0474*%
%ADD108R,0.0789X0.0710*%
%ADD109R,0.0497X0.0316*%
%ADD110R,0.2088X0.0828*%
%ADD111R,0.0257X0.0671*%
%ADD112O,0.0730X0.0297*%
%ADD113O,0.0297X0.0730*%
%ADD114R,0.0257X0.0356*%
%ADD115R,0.0631X0.0474*%
D70*
X-4944Y6194D02*
D03*
Y6864D02*
D03*
X-2890Y7866D02*
D03*
Y7197D02*
D03*
X-10464Y7181D02*
D03*
Y6512D02*
D03*
Y9812D02*
D03*
Y10481D02*
D03*
X-14117Y3259D02*
D03*
Y2590D02*
D03*
X-14717Y3259D02*
D03*
Y2590D02*
D03*
X-30650Y13454D02*
D03*
Y14124D02*
D03*
X-32450Y13454D02*
D03*
Y14124D02*
D03*
X-30640Y10824D02*
D03*
Y10154D02*
D03*
X-31850Y10824D02*
D03*
Y10154D02*
D03*
X-31250Y10824D02*
D03*
Y10154D02*
D03*
X-20866Y34213D02*
D03*
Y34882D02*
D03*
X-4644Y19720D02*
D03*
X-4644Y19050D02*
D03*
X-5644Y19720D02*
D03*
X-5644Y19050D02*
D03*
X-30040Y10154D02*
D03*
X-30040Y10824D02*
D03*
X-35759Y3237D02*
D03*
X-35759Y3906D02*
D03*
X-29450Y14124D02*
D03*
X-29450Y13454D02*
D03*
X-30050Y14124D02*
D03*
X-30050Y13454D02*
D03*
X-31250Y14124D02*
D03*
X-31250Y13454D02*
D03*
X-31850Y14124D02*
D03*
X-31850Y13454D02*
D03*
X-36432Y3237D02*
D03*
X-36432Y3906D02*
D03*
X-18504Y34823D02*
D03*
X-18504Y34154D02*
D03*
X-17717Y34823D02*
D03*
X-17717Y34154D02*
D03*
X-31690Y39396D02*
D03*
X-31690Y38727D02*
D03*
X-32109Y26483D02*
D03*
X-32109Y25814D02*
D03*
X-12900Y26766D02*
D03*
X-12900Y26097D02*
D03*
X-20866Y28701D02*
D03*
X-20866Y29370D02*
D03*
X-8550Y45376D02*
D03*
Y44707D02*
D03*
X-4040Y36527D02*
D03*
X-4040Y37196D02*
D03*
X-7700Y35507D02*
D03*
Y36176D02*
D03*
X-12164Y38309D02*
D03*
Y38978D02*
D03*
X-15718Y38765D02*
D03*
Y39434D02*
D03*
Y37784D02*
D03*
Y37115D02*
D03*
X-12164Y36978D02*
D03*
X-12164Y36309D02*
D03*
X-7364Y8112D02*
D03*
X-7364Y8781D02*
D03*
X-3744Y6194D02*
D03*
X-3744Y6864D02*
D03*
X-4344Y6194D02*
D03*
X-4344Y6864D02*
D03*
X-5544Y6194D02*
D03*
Y6864D02*
D03*
X-2323Y16899D02*
D03*
X-2323Y16230D02*
D03*
X-2216Y7863D02*
D03*
X-2216Y7194D02*
D03*
X-3544Y18520D02*
D03*
Y17850D02*
D03*
D71*
X-16632Y3975D02*
D03*
X-17302D02*
D03*
X-14902Y4075D02*
D03*
X-14232D02*
D03*
X-14902Y4775D02*
D03*
X-14232D02*
D03*
X-16305Y4892D02*
D03*
X-15635D02*
D03*
X-34785Y20289D02*
D03*
X-34116D02*
D03*
X-34785Y20989D02*
D03*
X-34116D02*
D03*
X-33685Y15289D02*
D03*
X-33016D02*
D03*
X-34885Y16689D02*
D03*
X-34216D02*
D03*
X-34885Y17289D02*
D03*
X-34216D02*
D03*
X-34885Y18489D02*
D03*
X-34216D02*
D03*
X-34885Y17889D02*
D03*
X-34216D02*
D03*
X-33185Y10689D02*
D03*
X-32516D02*
D03*
X-34885Y19089D02*
D03*
X-34216D02*
D03*
X-30565Y23340D02*
D03*
X-31235D02*
D03*
X-32296Y22669D02*
D03*
X-32965D02*
D03*
X-21735Y32172D02*
D03*
X-22405D02*
D03*
X-11264Y34843D02*
D03*
X-11933Y34843D02*
D03*
X-16502Y1675D02*
D03*
X-15832Y1675D02*
D03*
X-18202Y3075D02*
D03*
X-17532Y3075D02*
D03*
X-14902Y5575D02*
D03*
X-14232Y5575D02*
D03*
X-9105Y5312D02*
D03*
X-9775Y5312D02*
D03*
X-16302Y5575D02*
D03*
X-15632Y5575D02*
D03*
X-17532Y2275D02*
D03*
X-18202Y2275D02*
D03*
X-30020Y12432D02*
D03*
X-30689Y12432D02*
D03*
X-29485Y12432D02*
D03*
X-28815Y12432D02*
D03*
X-28785Y29884D02*
D03*
X-29454Y29884D02*
D03*
X-28785Y29184D02*
D03*
X-29454Y29184D02*
D03*
X-28785Y28484D02*
D03*
X-29454Y28484D02*
D03*
X-32505Y11792D02*
D03*
X-31835Y11792D02*
D03*
X-30605Y11792D02*
D03*
X-31275Y11792D02*
D03*
X-33016Y14689D02*
D03*
X-33685Y14689D02*
D03*
X-30996Y22669D02*
D03*
X-31665Y22669D02*
D03*
X-33185Y39402D02*
D03*
X-32515Y39402D02*
D03*
X-19332Y29235D02*
D03*
X-20001Y29235D02*
D03*
X-3265Y41992D02*
D03*
X-3935D02*
D03*
X-3375Y38052D02*
D03*
X-4045D02*
D03*
X-36535Y15892D02*
D03*
X-35865Y15892D02*
D03*
X-36535Y15152D02*
D03*
X-35865Y15152D02*
D03*
X-6809Y7029D02*
D03*
X-7479Y7029D02*
D03*
X-7145Y10272D02*
D03*
X-6475D02*
D03*
X-7145Y11532D02*
D03*
X-6475Y11532D02*
D03*
X-7145Y12202D02*
D03*
X-6475Y12202D02*
D03*
X-3544Y16785D02*
D03*
X-2875Y16785D02*
D03*
D72*
X-787Y787D02*
D03*
X-38583Y47539D02*
D03*
X-38583Y787D02*
D03*
D79*
X-14961Y25591D02*
D03*
X-24409D02*
D03*
X-1969Y46358D02*
D03*
X-37402D02*
D03*
Y1969D02*
D03*
X-1969D02*
D03*
X-29472Y4331D02*
D03*
X-33972D02*
D03*
D80*
X-22294Y3102D02*
D03*
X-22186D02*
D03*
X-22029D02*
D03*
X-21861D02*
D03*
X-21733D02*
D03*
X-21586D02*
D03*
X-21428D02*
D03*
X-22393Y5464D02*
D03*
X-22235D02*
D03*
X-22107D02*
D03*
X-21989D02*
D03*
X-21861Y5464D02*
D03*
X-21714Y5464D02*
D03*
X-21586D02*
D03*
X-21458D02*
D03*
X-21330D02*
D03*
X-3528Y4552D02*
D03*
X-5486D02*
D03*
X-5696D02*
D03*
X-5546D02*
D03*
X-5646D02*
D03*
X-5429D02*
D03*
X-5744D02*
D03*
X-4383Y3673D02*
D03*
X-4593D02*
D03*
X-4443D02*
D03*
X-4543D02*
D03*
X-4327D02*
D03*
X-4642D02*
D03*
X-3214Y4552D02*
D03*
X-3430D02*
D03*
X-3330D02*
D03*
X-3480D02*
D03*
X-3270D02*
D03*
D81*
X-21861Y3102D02*
D03*
D82*
Y5464D02*
D03*
D83*
X-34862Y37717D02*
D03*
Y41063D02*
D03*
D84*
X-16929Y33130D02*
D03*
X-17717D02*
D03*
X-18504D02*
D03*
X-19291D02*
D03*
X-20079D02*
D03*
X-20866D02*
D03*
X-21654D02*
D03*
X-22441D02*
D03*
X-4530Y32772D02*
D03*
X-3530Y33772D02*
D03*
Y32772D02*
D03*
X-2530Y33772D02*
D03*
Y32772D02*
D03*
X-2310Y15382D02*
D03*
X-1310Y14382D02*
D03*
X-2310D02*
D03*
X-1310Y13382D02*
D03*
X-2310D02*
D03*
D85*
X-32480Y44626D02*
D03*
X-6890D02*
D03*
Y31594D02*
D03*
X-32480D02*
D03*
D86*
X-28346Y26673D02*
D03*
Y24705D02*
D03*
X-30315D02*
D03*
Y26673D02*
D03*
X-9055D02*
D03*
Y24705D02*
D03*
X-11024D02*
D03*
Y26673D02*
D03*
D87*
X-29970Y6827D02*
D03*
D88*
X-30470Y7827D02*
D03*
X-30970Y6827D02*
D03*
X-31474Y7827D02*
D03*
X-31974Y6827D02*
D03*
X-32474Y7827D02*
D03*
X-32974Y6827D02*
D03*
X-33474Y7827D02*
D03*
D89*
X-28661Y5531D02*
D03*
X-34783D02*
D03*
D90*
X-30231Y3000D02*
D03*
X-29231Y2402D02*
D03*
X-34212Y3000D02*
D03*
X-33212Y2402D02*
D03*
D91*
X-5586Y4552D02*
D03*
X-4483Y3674D02*
D03*
X-3370Y4552D02*
D03*
D92*
X-4530Y33772D02*
D03*
D93*
X-1310Y15382D02*
D03*
D94*
X-26466Y45855D02*
D03*
X-29734D02*
D03*
Y40442D02*
D03*
X-26466D02*
D03*
D95*
X-27490Y44920D02*
D03*
Y44487D02*
D03*
Y44054D02*
D03*
Y43621D02*
D03*
Y43188D02*
D03*
Y42755D02*
D03*
Y42322D02*
D03*
Y41889D02*
D03*
D96*
X-21861Y3102D02*
D03*
D97*
Y5464D02*
D03*
D98*
X-5045Y38059D02*
D03*
Y38256D02*
D03*
Y38453D02*
D03*
Y38650D02*
D03*
Y38846D02*
D03*
Y39043D02*
D03*
Y39240D02*
D03*
Y39437D02*
D03*
Y39634D02*
D03*
Y39831D02*
D03*
Y40028D02*
D03*
Y40224D02*
D03*
Y40421D02*
D03*
Y40618D02*
D03*
Y40815D02*
D03*
Y41012D02*
D03*
Y41209D02*
D03*
Y41406D02*
D03*
Y41602D02*
D03*
Y41799D02*
D03*
Y41996D02*
D03*
Y42193D02*
D03*
Y42390D02*
D03*
Y42587D02*
D03*
Y42783D02*
D03*
X-11264D02*
D03*
Y42587D02*
D03*
Y42390D02*
D03*
Y42193D02*
D03*
Y41996D02*
D03*
Y41799D02*
D03*
Y41602D02*
D03*
Y41406D02*
D03*
Y41209D02*
D03*
Y41012D02*
D03*
Y40815D02*
D03*
Y40618D02*
D03*
Y40421D02*
D03*
Y40224D02*
D03*
Y40028D02*
D03*
Y39831D02*
D03*
Y39634D02*
D03*
Y39437D02*
D03*
Y39240D02*
D03*
Y39043D02*
D03*
Y38846D02*
D03*
Y38650D02*
D03*
Y38453D02*
D03*
Y38256D02*
D03*
Y38059D02*
D03*
D99*
X-5792Y43523D02*
D03*
X-5989D02*
D03*
X-6186D02*
D03*
X-6383D02*
D03*
X-6579D02*
D03*
X-6776D02*
D03*
X-6973D02*
D03*
X-7170D02*
D03*
X-7367D02*
D03*
X-7564D02*
D03*
X-7760D02*
D03*
X-7957D02*
D03*
X-8154D02*
D03*
X-8351D02*
D03*
X-8548D02*
D03*
X-8745D02*
D03*
X-8942D02*
D03*
X-9138D02*
D03*
X-9335D02*
D03*
X-9532D02*
D03*
X-9729D02*
D03*
X-9926D02*
D03*
X-10123D02*
D03*
X-10320D02*
D03*
X-10516D02*
D03*
X-10516Y37325D02*
D03*
X-10320Y37319D02*
D03*
X-10123D02*
D03*
X-9926D02*
D03*
X-9729D02*
D03*
X-9532D02*
D03*
X-9335D02*
D03*
X-9138D02*
D03*
X-8942D02*
D03*
X-8745D02*
D03*
X-8548D02*
D03*
X-8351D02*
D03*
X-8154D02*
D03*
X-7957D02*
D03*
X-7760D02*
D03*
X-7564D02*
D03*
X-7367D02*
D03*
X-7170D02*
D03*
X-6973D02*
D03*
X-6776D02*
D03*
X-6579D02*
D03*
X-6383D02*
D03*
X-6186D02*
D03*
X-5989D02*
D03*
X-5792D02*
D03*
D100*
X-14155Y40272D02*
D03*
Y36224D02*
D03*
X-8880Y6487D02*
D03*
Y10535D02*
D03*
D101*
X-12790Y34843D02*
D03*
X-13538D02*
D03*
X-9854Y4569D02*
D03*
X-9106D02*
D03*
D102*
X-32476Y40119D02*
D03*
X-32850Y41064D02*
D03*
X-20040Y28608D02*
D03*
X-19666Y27663D02*
D03*
D103*
X-33224Y40119D02*
D03*
X-19292Y28608D02*
D03*
D104*
X-19813Y27067D02*
D03*
X-20344D02*
D03*
D105*
X-30623Y21569D02*
D03*
X-32237D02*
D03*
D106*
X-29577Y16506D02*
D03*
Y16703D02*
D03*
Y16900D02*
D03*
Y17097D02*
D03*
Y17294D02*
D03*
Y17491D02*
D03*
Y17687D02*
D03*
Y17884D02*
D03*
Y18081D02*
D03*
Y18278D02*
D03*
Y18475D02*
D03*
Y18672D02*
D03*
X-32924D02*
D03*
Y18475D02*
D03*
Y18278D02*
D03*
Y18081D02*
D03*
Y17884D02*
D03*
Y17687D02*
D03*
Y17491D02*
D03*
Y17294D02*
D03*
Y17097D02*
D03*
Y16900D02*
D03*
Y16703D02*
D03*
Y16506D02*
D03*
D107*
X-30168Y19262D02*
D03*
X-30365D02*
D03*
X-30561D02*
D03*
X-30758D02*
D03*
X-30955D02*
D03*
X-31152D02*
D03*
X-31349D02*
D03*
X-31546D02*
D03*
X-31743D02*
D03*
X-31939D02*
D03*
X-32136D02*
D03*
X-32333D02*
D03*
Y15916D02*
D03*
X-32136D02*
D03*
X-31939D02*
D03*
X-31743D02*
D03*
X-31546D02*
D03*
X-31349D02*
D03*
X-31152D02*
D03*
X-30955D02*
D03*
X-30758D02*
D03*
X-30561D02*
D03*
X-30365D02*
D03*
X-30168D02*
D03*
D108*
X-34020Y9590D02*
D03*
Y10693D02*
D03*
D109*
X-15899Y2901D02*
D03*
Y3274D02*
D03*
X-16766Y2526D02*
D03*
Y3274D02*
D03*
X-15899Y2526D02*
D03*
X-16766Y2901D02*
D03*
D110*
X-12040Y4569D02*
D03*
Y2915D02*
D03*
D111*
X-4995Y4367D02*
D03*
X-4739D02*
D03*
X-4483D02*
D03*
X-4227D02*
D03*
X-3971D02*
D03*
D112*
X-5398Y9327D02*
D03*
Y9642D02*
D03*
Y9957D02*
D03*
Y10272D02*
D03*
Y10587D02*
D03*
Y10902D02*
D03*
Y11217D02*
D03*
Y11531D02*
D03*
X-2091D02*
D03*
Y11217D02*
D03*
Y10902D02*
D03*
Y10587D02*
D03*
Y10272D02*
D03*
Y9957D02*
D03*
Y9642D02*
D03*
Y9327D02*
D03*
D113*
X-4846Y12083D02*
D03*
X-4531D02*
D03*
X-4217D02*
D03*
X-3902D02*
D03*
X-3587D02*
D03*
X-3272D02*
D03*
X-2957D02*
D03*
X-2642D02*
D03*
Y8776D02*
D03*
X-2957D02*
D03*
X-3272D02*
D03*
X-3587D02*
D03*
X-3902D02*
D03*
X-4217D02*
D03*
X-4531D02*
D03*
X-4846D02*
D03*
D114*
X-1616Y7794D02*
D03*
Y7263D02*
D03*
D115*
X-5644Y18259D02*
D03*
Y17511D02*
D03*
X-4644Y18259D02*
D03*
Y17511D02*
D03*
M02*
