M48
;Layer_Color=9474304
;FILE_FORMAT=2:4
INCH,LZ
;TYPE=PLATED
T1F00S00C0.0118
T2F00S00C0.0157
T3F00S00C0.0236
T4F00S00C0.0315
T5F00S00C0.0350
T6F00S00C0.0354
T7F00S00C0.0394
T8F00S00C0.0630
T9F00S00C0.0709
T10F00S00C0.0984
T11F00S00C0.1280
;TYPE=NON_PLATED
T12F00S00C0.1280
%
T01
X-012756Y014468
X-01248Y014193
X-012205Y014705
X-010709Y014468
X-00719Y014242
X-007121Y013651
X-006432Y01289
X-0072Y015282
X-00814Y015892
X-00572Y016067
X-02689Y014705
X-027441
X-027165Y014154
X-026614
X-029924Y019505
X-0297Y00785
X-03162Y008472
X-02931Y020402
T02
X-0172Y002272
X-01547Y002773
X-01522
Y003023
X-01547
X-016217Y003975
X-01367Y003033
X-01342
Y002783
X-01367
X-00187Y006752
X-0013Y0105
Y0115
X-002323Y017274
X-00708Y016942
X-006088Y014537
X-005695
X-005301
Y014143
Y01375
X-005695
X-006088
Y014143
X-005695
X-00318Y012962
X-00827Y013002
X-01037Y011272
Y009272
Y008272
Y005272
X-01137
X-01237
X-01337
X-01333Y004702
X-01358
Y004452
X-01383
Y004702
X-01333Y004452
X-01704Y004732
X-01737Y005272
X-01837
X-006809Y006631
X-0069Y007782
X-00481Y007232
X-0042Y005622
X-00454Y005182
X-00321Y006502
X-006475Y010726
X-00515Y01972
X-01037Y019272
Y018272
X-02887Y016772
Y015772
Y014772
Y013772
X-028815Y012876
X-02887Y011772
Y010772
Y009772
Y008772
Y007772
Y006772
X-02739Y005132
X-02622Y005272
X-02537
X-02437
X-02337
X-03004Y011122
X-03064Y011181
X-03097Y011427
X-03105Y012882
X-03063Y012872
Y014632
X-03247Y014462
X-03261Y015422
X-032555Y017097
X-033855Y016937
Y017314
Y018267
X-030971Y01637
X-0302Y019752
X-03307Y013452
X-033185Y011147
X-0325Y011386
X-03463Y015142
X-034795Y015816
X-035263Y016689
X-036535Y016327
X-034116Y020642
X-03053Y020512
X-0304Y020102
X-02787Y023372
X-02687
X-02587
X-02487
X-02387
X-02287
X-02187
X-02087
X-01987
X-01887
X-02182Y026432
X-02594Y027422
X-02562Y028542
X-025591Y029528
X-02684Y029762
X-027333Y029184
X-029773Y029184
X-0292Y0257
X-02895Y033442
X-027165Y03189
X-025591
X-025197Y034646
X-02378Y035002
X-01811Y034823
X-01432Y033992
X-01302Y033552
X-01245Y033012
X-0134Y032112
X-00985Y031522
X-00916Y033692
X-00718Y033562
X-00727Y032822
X-00719Y034982
X-00679Y035002
X-00637Y035112
X-005989Y035013
X-0052Y0353
X-00435Y035022
X-00785Y034972
X-0073Y0283
Y0257
X-00607Y024602
X-006425Y023387
X-0061Y022602
X-0073Y0228
X-00813Y022722
X-00958Y023102
X-01037Y023272
X-01087Y023372
X-01187
X-01287
X-01387
X-01487
X-01587
X-01687
X-01787
X-017765Y027067
X-01037Y022272
Y021272
Y020272
X-00724Y020762
X-00703Y021272
X-00545Y021032
X-00549Y020382
X-00425Y020832
X-00488Y023182
X-00483Y024952
X-00289Y035392
X-00272Y035942
X-00189Y035552
X-00066Y036392
X-00404Y036132
X-00811Y035952
X-01107Y036432
X-01168Y036272
X-012574Y038978
X-01218Y042512
X-01436Y042182
X-0149Y041922
X-01565Y042432
X-01658Y042322
X-01649Y039332
X-0169Y039162
X-00855Y044322
X-009005Y045376
X-00435Y041996
X-01969Y038392
X-020866Y038976
X-02449Y043188
X-033185Y038937
T03
X-004642Y003673
X-004593
X-004543
X-004483Y003674
X-004443Y003673
X-004383
X-004327
X-003528Y004552
X-00348
X-00343
X-00337
X-00333
X-00327
X-003214
X-005429
X-005486
X-005546
X-005586
X-005646
X-005696
X-005744
T04
X-022294Y003102
X-022186
X-022029
X-021861
X-021733
X-021586
X-021428
X-021458Y005464
X-021586
X-021714
X-021861Y005464
X-021989Y005464
X-022107
X-022235
X-022393
X-02133
X-021654Y03313
X-020866
X-020079
X-019291
X-022441
X-018504
X-017717
X-016929
T05
X-034212Y003
X-033212Y002402
X-030231Y003
X-029231Y002402
T06
X-00231Y013382
Y014382
Y015382
X-00131
Y014382
Y013382
X-03047Y007827
X-031474
X-032474
X-033474
X-032974Y006827
X-031974
X-03097
X-02997
X-00453Y032772
Y033772
X-00353
Y032772
X-00253
Y033772
T07
X-030315Y024705
X-028346
Y026673
X-030315
X-011024
X-009055
Y024705
X-011024
T08
X-028661Y005531
X-034783
T09
X-034862Y037717
Y041063
T10
X-03248Y031594
X-00689
Y044626
X-03248
T11
X-037402Y001969
X-001969
X-024409Y025591
X-014961
X-001969Y046358
X-037402
T12
X-033972Y004331
X-029472
M30
