G04 Layer_Color=65535*
%FSLAX24Y24*%
%MOIN*%
G70*
G01*
G75*
%ADD19C,0.0118*%
%ADD40C,0.0100*%
%ADD65C,0.0098*%
%ADD66C,0.0079*%
%ADD67C,0.0010*%
%ADD68C,0.0059*%
%ADD69C,0.0050*%
G36*
X-19292Y9979D02*
X-19282Y9978D01*
X-19272Y9976D01*
X-19260Y9973D01*
X-19249Y9968D01*
X-19238Y9963D01*
X-19236Y9962D01*
X-19233Y9960D01*
X-19228Y9956D01*
X-19222Y9951D01*
X-19215Y9944D01*
X-19208Y9936D01*
X-19201Y9926D01*
X-19196Y9915D01*
X-19195Y9915D01*
X-19194Y9911D01*
X-19193Y9905D01*
X-19190Y9897D01*
X-19189Y9886D01*
X-19187Y9873D01*
X-19187Y9858D01*
X-19186Y9839D01*
Y9607D01*
X-19283D01*
Y9815D01*
Y9815D01*
Y9817D01*
Y9820D01*
Y9823D01*
X-19283Y9833D01*
X-19284Y9844D01*
X-19285Y9856D01*
X-19286Y9868D01*
X-19289Y9878D01*
X-19291Y9882D01*
X-19293Y9885D01*
X-19293Y9886D01*
X-19295Y9888D01*
X-19299Y9892D01*
X-19302Y9896D01*
X-19309Y9899D01*
X-19316Y9903D01*
X-19324Y9905D01*
X-19334Y9906D01*
X-19337D01*
X-19341Y9905D01*
X-19346Y9905D01*
X-19352Y9903D01*
X-19359Y9901D01*
X-19365Y9898D01*
X-19372Y9893D01*
X-19373Y9892D01*
X-19375Y9891D01*
X-19379Y9888D01*
X-19382Y9884D01*
X-19386Y9879D01*
X-19391Y9872D01*
X-19395Y9865D01*
X-19398Y9857D01*
Y9856D01*
X-19399Y9852D01*
X-19400Y9847D01*
X-19402Y9839D01*
X-19403Y9828D01*
X-19404Y9815D01*
X-19405Y9799D01*
Y9782D01*
Y9607D01*
X-19502D01*
Y9806D01*
Y9807D01*
Y9809D01*
Y9812D01*
Y9815D01*
Y9824D01*
X-19503Y9835D01*
X-19504Y9847D01*
X-19504Y9858D01*
X-19506Y9868D01*
X-19507Y9872D01*
X-19508Y9875D01*
Y9876D01*
X-19508Y9878D01*
X-19510Y9881D01*
X-19511Y9884D01*
X-19517Y9891D01*
X-19524Y9898D01*
X-19524D01*
X-19526Y9900D01*
X-19528Y9901D01*
X-19531Y9902D01*
X-19535Y9904D01*
X-19541Y9905D01*
X-19546Y9906D01*
X-19557D01*
X-19561Y9905D01*
X-19567Y9905D01*
X-19573Y9903D01*
X-19580Y9901D01*
X-19587Y9898D01*
X-19594Y9894D01*
X-19594Y9893D01*
X-19597Y9891D01*
X-19600Y9888D01*
X-19604Y9885D01*
X-19607Y9880D01*
X-19612Y9874D01*
X-19616Y9867D01*
X-19619Y9858D01*
Y9858D01*
X-19620Y9854D01*
X-19621Y9848D01*
X-19623Y9841D01*
X-19624Y9831D01*
X-19625Y9818D01*
X-19627Y9802D01*
Y9784D01*
Y9607D01*
X-19723D01*
Y9972D01*
X-19634D01*
Y9922D01*
X-19633Y9923D01*
X-19632Y9925D01*
X-19630Y9928D01*
X-19626Y9931D01*
X-19621Y9935D01*
X-19616Y9941D01*
X-19610Y9946D01*
X-19602Y9951D01*
X-19594Y9957D01*
X-19586Y9961D01*
X-19566Y9971D01*
X-19556Y9974D01*
X-19544Y9978D01*
X-19533Y9979D01*
X-19521Y9980D01*
X-19514D01*
X-19508Y9979D01*
X-19500Y9978D01*
X-19490Y9976D01*
X-19480Y9974D01*
X-19470Y9970D01*
X-19460Y9965D01*
X-19458Y9964D01*
X-19455Y9962D01*
X-19451Y9959D01*
X-19445Y9954D01*
X-19438Y9948D01*
X-19431Y9941D01*
X-19424Y9931D01*
X-19417Y9921D01*
X-19416Y9923D01*
X-19413Y9926D01*
X-19408Y9931D01*
X-19402Y9938D01*
X-19394Y9945D01*
X-19385Y9952D01*
X-19375Y9959D01*
X-19365Y9965D01*
X-19364Y9966D01*
X-19361Y9968D01*
X-19355Y9970D01*
X-19347Y9973D01*
X-19339Y9975D01*
X-19328Y9978D01*
X-19317Y9979D01*
X-19306Y9980D01*
X-19299D01*
X-19292Y9979D01*
D02*
G37*
G36*
X-16435D02*
X-16425Y9978D01*
X-16415Y9976D01*
X-16403Y9973D01*
X-16392Y9968D01*
X-16381Y9963D01*
X-16379Y9962D01*
X-16376Y9960D01*
X-16371Y9956D01*
X-16365Y9951D01*
X-16358Y9944D01*
X-16351Y9936D01*
X-16344Y9926D01*
X-16339Y9915D01*
X-16338Y9915D01*
X-16337Y9911D01*
X-16336Y9905D01*
X-16333Y9897D01*
X-16332Y9886D01*
X-16330Y9873D01*
X-16330Y9858D01*
X-16329Y9839D01*
Y9607D01*
X-16426D01*
Y9815D01*
Y9815D01*
Y9817D01*
Y9820D01*
Y9823D01*
X-16426Y9833D01*
X-16427Y9844D01*
X-16428Y9856D01*
X-16429Y9868D01*
X-16432Y9878D01*
X-16434Y9882D01*
X-16436Y9885D01*
X-16436Y9886D01*
X-16438Y9888D01*
X-16442Y9892D01*
X-16446Y9896D01*
X-16452Y9899D01*
X-16459Y9903D01*
X-16467Y9905D01*
X-16477Y9906D01*
X-16480D01*
X-16484Y9905D01*
X-16489Y9905D01*
X-16495Y9903D01*
X-16502Y9901D01*
X-16509Y9898D01*
X-16515Y9893D01*
X-16516Y9892D01*
X-16518Y9891D01*
X-16522Y9888D01*
X-16525Y9884D01*
X-16529Y9879D01*
X-16534Y9872D01*
X-16538Y9865D01*
X-16541Y9857D01*
Y9856D01*
X-16542Y9852D01*
X-16543Y9847D01*
X-16545Y9839D01*
X-16546Y9828D01*
X-16547Y9815D01*
X-16548Y9799D01*
Y9782D01*
Y9607D01*
X-16645D01*
Y9806D01*
Y9807D01*
Y9809D01*
Y9812D01*
Y9815D01*
Y9824D01*
X-16646Y9835D01*
X-16647Y9847D01*
X-16647Y9858D01*
X-16649Y9868D01*
X-16650Y9872D01*
X-16651Y9875D01*
Y9876D01*
X-16651Y9878D01*
X-16653Y9881D01*
X-16654Y9884D01*
X-16660Y9891D01*
X-16667Y9898D01*
X-16667D01*
X-16669Y9900D01*
X-16671Y9901D01*
X-16674Y9902D01*
X-16678Y9904D01*
X-16684Y9905D01*
X-16689Y9906D01*
X-16700D01*
X-16704Y9905D01*
X-16710Y9905D01*
X-16716Y9903D01*
X-16723Y9901D01*
X-16730Y9898D01*
X-16737Y9894D01*
X-16737Y9893D01*
X-16740Y9891D01*
X-16743Y9888D01*
X-16747Y9885D01*
X-16750Y9880D01*
X-16755Y9874D01*
X-16759Y9867D01*
X-16762Y9858D01*
Y9858D01*
X-16763Y9854D01*
X-16764Y9848D01*
X-16766Y9841D01*
X-16767Y9831D01*
X-16768Y9818D01*
X-16770Y9802D01*
Y9784D01*
Y9607D01*
X-16866D01*
Y9972D01*
X-16777D01*
Y9922D01*
X-16777Y9923D01*
X-16775Y9925D01*
X-16773Y9928D01*
X-16769Y9931D01*
X-16764Y9935D01*
X-16759Y9941D01*
X-16753Y9946D01*
X-16745Y9951D01*
X-16737Y9957D01*
X-16729Y9961D01*
X-16709Y9971D01*
X-16699Y9974D01*
X-16687Y9978D01*
X-16676Y9979D01*
X-16664Y9980D01*
X-16657D01*
X-16651Y9979D01*
X-16643Y9978D01*
X-16633Y9976D01*
X-16623Y9974D01*
X-16613Y9970D01*
X-16603Y9965D01*
X-16601Y9964D01*
X-16598Y9962D01*
X-16594Y9959D01*
X-16588Y9954D01*
X-16581Y9948D01*
X-16574Y9941D01*
X-16567Y9931D01*
X-16560Y9921D01*
X-16559Y9923D01*
X-16556Y9926D01*
X-16551Y9931D01*
X-16545Y9938D01*
X-16537Y9945D01*
X-16528Y9952D01*
X-16518Y9959D01*
X-16509Y9965D01*
X-16507Y9966D01*
X-16504Y9968D01*
X-16498Y9970D01*
X-16490Y9973D01*
X-16482Y9975D01*
X-16471Y9978D01*
X-16460Y9979D01*
X-16449Y9980D01*
X-16442D01*
X-16435Y9979D01*
D02*
G37*
G36*
X-20865D02*
X-20858Y9978D01*
X-20848Y9977D01*
X-20838Y9975D01*
X-20828Y9972D01*
X-20819Y9968D01*
X-20817Y9968D01*
X-20814Y9966D01*
X-20809Y9964D01*
X-20804Y9961D01*
X-20797Y9956D01*
X-20791Y9951D01*
X-20784Y9945D01*
X-20779Y9938D01*
X-20778Y9938D01*
X-20776Y9935D01*
X-20774Y9931D01*
X-20771Y9927D01*
X-20768Y9921D01*
X-20765Y9914D01*
X-20762Y9906D01*
X-20759Y9898D01*
Y9897D01*
X-20759Y9894D01*
X-20758Y9888D01*
X-20756Y9882D01*
X-20756Y9872D01*
X-20755Y9861D01*
X-20754Y9848D01*
Y9833D01*
Y9607D01*
X-20851D01*
Y9792D01*
Y9793D01*
Y9795D01*
Y9798D01*
Y9802D01*
Y9807D01*
Y9812D01*
X-20852Y9824D01*
X-20852Y9837D01*
X-20854Y9849D01*
X-20855Y9860D01*
X-20856Y9865D01*
X-20858Y9868D01*
Y9869D01*
X-20858Y9872D01*
X-20860Y9875D01*
X-20862Y9878D01*
X-20868Y9888D01*
X-20878Y9896D01*
X-20878Y9897D01*
X-20880Y9898D01*
X-20883Y9899D01*
X-20887Y9901D01*
X-20891Y9903D01*
X-20898Y9905D01*
X-20904Y9905D01*
X-20911Y9906D01*
X-20915D01*
X-20920Y9905D01*
X-20926Y9905D01*
X-20933Y9903D01*
X-20941Y9900D01*
X-20948Y9897D01*
X-20956Y9892D01*
X-20957Y9891D01*
X-20959Y9890D01*
X-20962Y9887D01*
X-20967Y9882D01*
X-20971Y9877D01*
X-20975Y9871D01*
X-20980Y9864D01*
X-20983Y9855D01*
Y9855D01*
X-20984Y9851D01*
X-20985Y9845D01*
X-20986Y9837D01*
X-20987Y9832D01*
X-20987Y9825D01*
X-20988Y9819D01*
X-20989Y9811D01*
Y9802D01*
X-20990Y9793D01*
Y9782D01*
Y9772D01*
Y9607D01*
X-21087D01*
Y9972D01*
X-20997D01*
Y9918D01*
X-20996Y9919D01*
X-20994Y9921D01*
X-20992Y9924D01*
X-20988Y9928D01*
X-20984Y9933D01*
X-20977Y9938D01*
X-20971Y9944D01*
X-20964Y9949D01*
X-20955Y9954D01*
X-20947Y9961D01*
X-20937Y9965D01*
X-20926Y9971D01*
X-20915Y9974D01*
X-20903Y9978D01*
X-20890Y9979D01*
X-20877Y9980D01*
X-20872D01*
X-20865Y9979D01*
D02*
G37*
G36*
X-19884Y9607D02*
X-19977D01*
X-20040Y9842D01*
X-20102Y9607D01*
X-20196D01*
X-20311Y9972D01*
X-20217D01*
X-20149Y9733D01*
X-20086Y9972D01*
X-19992D01*
X-19931Y9733D01*
X-19862Y9972D01*
X-19766D01*
X-19884Y9607D01*
D02*
G37*
G36*
X-17515Y9979D02*
X-17508D01*
X-17502Y9978D01*
X-17487Y9976D01*
X-17470Y9973D01*
X-17452Y9968D01*
X-17435Y9961D01*
X-17419Y9951D01*
X-17419D01*
X-17418Y9949D01*
X-17412Y9945D01*
X-17406Y9938D01*
X-17397Y9929D01*
X-17388Y9917D01*
X-17378Y9902D01*
X-17369Y9885D01*
X-17362Y9864D01*
X-17457Y9847D01*
Y9848D01*
X-17458Y9852D01*
X-17459Y9856D01*
X-17462Y9862D01*
X-17465Y9869D01*
X-17469Y9876D01*
X-17473Y9883D01*
X-17479Y9889D01*
X-17480Y9890D01*
X-17482Y9891D01*
X-17486Y9894D01*
X-17491Y9897D01*
X-17498Y9899D01*
X-17505Y9901D01*
X-17514Y9903D01*
X-17524Y9904D01*
X-17530D01*
X-17536Y9902D01*
X-17545Y9901D01*
X-17554Y9898D01*
X-17563Y9893D01*
X-17573Y9887D01*
X-17581Y9878D01*
X-17582Y9877D01*
X-17584Y9874D01*
X-17588Y9868D01*
X-17592Y9858D01*
X-17596Y9847D01*
X-17600Y9832D01*
X-17602Y9815D01*
X-17603Y9805D01*
Y9795D01*
Y9794D01*
Y9792D01*
Y9789D01*
Y9784D01*
X-17602Y9779D01*
X-17601Y9772D01*
X-17600Y9759D01*
X-17598Y9743D01*
X-17594Y9729D01*
X-17588Y9714D01*
X-17585Y9708D01*
X-17581Y9703D01*
X-17581Y9702D01*
X-17578Y9699D01*
X-17573Y9694D01*
X-17566Y9690D01*
X-17558Y9685D01*
X-17548Y9680D01*
X-17536Y9677D01*
X-17523Y9676D01*
X-17518D01*
X-17513Y9677D01*
X-17507Y9679D01*
X-17500Y9680D01*
X-17492Y9683D01*
X-17485Y9686D01*
X-17478Y9692D01*
X-17477Y9693D01*
X-17475Y9695D01*
X-17472Y9699D01*
X-17468Y9704D01*
X-17464Y9712D01*
X-17459Y9721D01*
X-17455Y9733D01*
X-17452Y9746D01*
X-17357Y9729D01*
Y9729D01*
X-17358Y9726D01*
X-17359Y9723D01*
X-17360Y9719D01*
X-17362Y9713D01*
X-17364Y9707D01*
X-17370Y9693D01*
X-17378Y9676D01*
X-17388Y9660D01*
X-17400Y9644D01*
X-17407Y9637D01*
X-17415Y9630D01*
X-17415D01*
X-17416Y9629D01*
X-17419Y9627D01*
X-17422Y9625D01*
X-17426Y9623D01*
X-17432Y9620D01*
X-17438Y9617D01*
X-17444Y9614D01*
X-17452Y9611D01*
X-17460Y9608D01*
X-17469Y9605D01*
X-17479Y9603D01*
X-17502Y9599D01*
X-17514Y9598D01*
X-17527Y9597D01*
X-17535D01*
X-17540Y9598D01*
X-17547Y9599D01*
X-17555Y9600D01*
X-17563Y9601D01*
X-17573Y9603D01*
X-17593Y9610D01*
X-17604Y9613D01*
X-17614Y9618D01*
X-17625Y9624D01*
X-17635Y9631D01*
X-17645Y9639D01*
X-17654Y9647D01*
X-17655Y9648D01*
X-17657Y9650D01*
X-17659Y9653D01*
X-17662Y9656D01*
X-17665Y9662D01*
X-17670Y9668D01*
X-17674Y9676D01*
X-17678Y9684D01*
X-17683Y9693D01*
X-17687Y9704D01*
X-17691Y9716D01*
X-17694Y9728D01*
X-17697Y9742D01*
X-17700Y9756D01*
X-17701Y9772D01*
X-17702Y9788D01*
Y9789D01*
Y9792D01*
Y9796D01*
X-17701Y9803D01*
X-17700Y9810D01*
X-17700Y9819D01*
X-17698Y9829D01*
X-17696Y9839D01*
X-17690Y9862D01*
X-17687Y9874D01*
X-17682Y9885D01*
X-17677Y9898D01*
X-17670Y9908D01*
X-17663Y9919D01*
X-17654Y9929D01*
X-17654Y9930D01*
X-17652Y9931D01*
X-17650Y9934D01*
X-17646Y9937D01*
X-17641Y9941D01*
X-17635Y9945D01*
X-17628Y9950D01*
X-17621Y9954D01*
X-17611Y9959D01*
X-17602Y9964D01*
X-17591Y9968D01*
X-17580Y9972D01*
X-17568Y9975D01*
X-17555Y9978D01*
X-17540Y9979D01*
X-17525Y9980D01*
X-17519D01*
X-17515Y9979D01*
D02*
G37*
G36*
X-19507Y10587D02*
X-19441D01*
Y10510D01*
X-19507D01*
Y10361D01*
Y10360D01*
Y10360D01*
Y10357D01*
Y10354D01*
Y10346D01*
Y10338D01*
X-19506Y10329D01*
Y10320D01*
Y10313D01*
X-19505Y10310D01*
Y10309D01*
Y10307D01*
X-19504Y10304D01*
X-19501Y10300D01*
X-19497Y10297D01*
X-19495Y10296D01*
X-19492Y10294D01*
X-19487Y10293D01*
X-19481Y10292D01*
X-19478D01*
X-19475Y10293D01*
X-19471Y10293D01*
X-19465Y10294D01*
X-19458Y10296D01*
X-19451Y10298D01*
X-19441Y10301D01*
X-19433Y10226D01*
X-19435Y10225D01*
X-19439Y10224D01*
X-19446Y10221D01*
X-19455Y10219D01*
X-19467Y10217D01*
X-19480Y10214D01*
X-19494Y10213D01*
X-19510Y10212D01*
X-19514D01*
X-19519Y10213D01*
X-19525D01*
X-19533Y10214D01*
X-19541Y10216D01*
X-19549Y10217D01*
X-19557Y10221D01*
X-19557Y10221D01*
X-19560Y10222D01*
X-19564Y10224D01*
X-19568Y10227D01*
X-19578Y10234D01*
X-19584Y10238D01*
X-19587Y10243D01*
X-19588Y10244D01*
X-19589Y10245D01*
X-19590Y10249D01*
X-19593Y10253D01*
X-19595Y10259D01*
X-19597Y10265D01*
X-19599Y10273D01*
X-19600Y10281D01*
Y10282D01*
X-19601Y10285D01*
Y10290D01*
X-19602Y10296D01*
X-19603Y10305D01*
Y10317D01*
X-19604Y10332D01*
Y10340D01*
Y10350D01*
Y10510D01*
X-19648D01*
Y10587D01*
X-19604D01*
Y10659D01*
X-19507Y10716D01*
Y10587D01*
D02*
G37*
G36*
X-18400Y10594D02*
X-18393Y10593D01*
X-18385Y10591D01*
X-18376Y10590D01*
X-18367Y10588D01*
X-18357Y10585D01*
X-18346Y10581D01*
X-18336Y10577D01*
X-18325Y10571D01*
X-18314Y10565D01*
X-18304Y10558D01*
X-18294Y10550D01*
X-18285Y10540D01*
X-18284Y10539D01*
X-18283Y10538D01*
X-18280Y10535D01*
X-18277Y10530D01*
X-18274Y10524D01*
X-18270Y10517D01*
X-18266Y10509D01*
X-18262Y10499D01*
X-18257Y10489D01*
X-18253Y10476D01*
X-18250Y10462D01*
X-18246Y10448D01*
X-18243Y10432D01*
X-18241Y10415D01*
X-18240Y10396D01*
Y10376D01*
X-18481D01*
Y10375D01*
Y10374D01*
Y10372D01*
X-18481Y10369D01*
X-18480Y10360D01*
X-18478Y10351D01*
X-18475Y10340D01*
X-18471Y10329D01*
X-18466Y10318D01*
X-18458Y10308D01*
X-18458Y10307D01*
X-18455Y10304D01*
X-18450Y10300D01*
X-18443Y10297D01*
X-18435Y10292D01*
X-18425Y10288D01*
X-18415Y10285D01*
X-18403Y10284D01*
X-18399D01*
X-18395Y10285D01*
X-18389Y10286D01*
X-18384Y10287D01*
X-18377Y10290D01*
X-18371Y10293D01*
X-18365Y10297D01*
X-18364Y10297D01*
X-18362Y10299D01*
X-18359Y10302D01*
X-18356Y10307D01*
X-18352Y10312D01*
X-18348Y10319D01*
X-18344Y10326D01*
X-18341Y10336D01*
X-18245Y10320D01*
Y10320D01*
X-18246Y10318D01*
X-18247Y10315D01*
X-18249Y10312D01*
X-18250Y10307D01*
X-18253Y10302D01*
X-18260Y10290D01*
X-18268Y10277D01*
X-18278Y10264D01*
X-18290Y10251D01*
X-18304Y10240D01*
X-18305D01*
X-18306Y10238D01*
X-18308Y10237D01*
X-18311Y10235D01*
X-18315Y10234D01*
X-18320Y10231D01*
X-18332Y10226D01*
X-18346Y10221D01*
X-18363Y10217D01*
X-18382Y10214D01*
X-18404Y10212D01*
X-18408D01*
X-18413Y10213D01*
X-18419D01*
X-18428Y10214D01*
X-18436Y10215D01*
X-18446Y10217D01*
X-18457Y10220D01*
X-18468Y10223D01*
X-18480Y10227D01*
X-18492Y10232D01*
X-18504Y10238D01*
X-18515Y10245D01*
X-18526Y10254D01*
X-18536Y10264D01*
X-18545Y10274D01*
Y10275D01*
X-18547Y10277D01*
X-18548Y10280D01*
X-18551Y10283D01*
X-18554Y10288D01*
X-18557Y10294D01*
X-18560Y10301D01*
X-18563Y10309D01*
X-18566Y10317D01*
X-18569Y10327D01*
X-18572Y10337D01*
X-18575Y10349D01*
X-18579Y10373D01*
X-18580Y10386D01*
X-18581Y10400D01*
Y10401D01*
Y10404D01*
Y10409D01*
X-18580Y10416D01*
X-18579Y10422D01*
X-18578Y10432D01*
X-18577Y10442D01*
X-18574Y10452D01*
X-18569Y10475D01*
X-18565Y10486D01*
X-18561Y10499D01*
X-18555Y10510D01*
X-18549Y10522D01*
X-18542Y10532D01*
X-18534Y10542D01*
X-18533Y10543D01*
X-18531Y10545D01*
X-18529Y10547D01*
X-18525Y10551D01*
X-18521Y10555D01*
X-18515Y10559D01*
X-18508Y10564D01*
X-18501Y10568D01*
X-18492Y10573D01*
X-18484Y10578D01*
X-18474Y10582D01*
X-18463Y10586D01*
X-18452Y10590D01*
X-18440Y10592D01*
X-18427Y10594D01*
X-18414Y10595D01*
X-18406D01*
X-18400Y10594D01*
D02*
G37*
G36*
X-20954Y10587D02*
X-20888D01*
Y10510D01*
X-20954D01*
Y10361D01*
Y10360D01*
Y10360D01*
Y10357D01*
Y10354D01*
Y10346D01*
Y10338D01*
X-20954Y10329D01*
Y10320D01*
Y10313D01*
X-20953Y10310D01*
Y10309D01*
Y10307D01*
X-20951Y10304D01*
X-20948Y10300D01*
X-20944Y10297D01*
X-20943Y10296D01*
X-20940Y10294D01*
X-20934Y10293D01*
X-20928Y10292D01*
X-20926D01*
X-20923Y10293D01*
X-20918Y10293D01*
X-20913Y10294D01*
X-20906Y10296D01*
X-20898Y10298D01*
X-20889Y10301D01*
X-20881Y10226D01*
X-20882Y10225D01*
X-20887Y10224D01*
X-20894Y10221D01*
X-20903Y10219D01*
X-20915Y10217D01*
X-20928Y10214D01*
X-20942Y10213D01*
X-20958Y10212D01*
X-20962D01*
X-20967Y10213D01*
X-20973D01*
X-20981Y10214D01*
X-20988Y10216D01*
X-20997Y10217D01*
X-21004Y10221D01*
X-21005Y10221D01*
X-21007Y10222D01*
X-21011Y10224D01*
X-21016Y10227D01*
X-21026Y10234D01*
X-21031Y10238D01*
X-21035Y10243D01*
X-21036Y10244D01*
X-21037Y10245D01*
X-21038Y10249D01*
X-21040Y10253D01*
X-21043Y10259D01*
X-21045Y10265D01*
X-21047Y10273D01*
X-21048Y10281D01*
Y10282D01*
X-21049Y10285D01*
Y10290D01*
X-21050Y10296D01*
X-21050Y10305D01*
Y10317D01*
X-21051Y10332D01*
Y10340D01*
Y10350D01*
Y10510D01*
X-21096D01*
Y10587D01*
X-21051D01*
Y10659D01*
X-20954Y10716D01*
Y10587D01*
D02*
G37*
G36*
X-18367Y10022D02*
X-18464D01*
Y10111D01*
X-18367D01*
Y10022D01*
D02*
G37*
G36*
X-22861Y10594D02*
X-22854Y10593D01*
X-22846Y10591D01*
X-22837Y10590D01*
X-22828Y10588D01*
X-22818Y10585D01*
X-22807Y10581D01*
X-22796Y10577D01*
X-22785Y10571D01*
X-22775Y10565D01*
X-22765Y10558D01*
X-22755Y10550D01*
X-22745Y10540D01*
X-22745Y10539D01*
X-22743Y10538D01*
X-22741Y10535D01*
X-22738Y10530D01*
X-22735Y10524D01*
X-22731Y10517D01*
X-22726Y10509D01*
X-22722Y10499D01*
X-22718Y10489D01*
X-22714Y10476D01*
X-22710Y10462D01*
X-22706Y10448D01*
X-22704Y10432D01*
X-22702Y10415D01*
X-22700Y10396D01*
Y10376D01*
X-22942D01*
Y10375D01*
Y10374D01*
Y10372D01*
X-22941Y10369D01*
X-22940Y10360D01*
X-22939Y10351D01*
X-22936Y10340D01*
X-22932Y10329D01*
X-22927Y10318D01*
X-22919Y10308D01*
X-22918Y10307D01*
X-22915Y10304D01*
X-22911Y10300D01*
X-22904Y10297D01*
X-22896Y10292D01*
X-22886Y10288D01*
X-22875Y10285D01*
X-22864Y10284D01*
X-22860D01*
X-22855Y10285D01*
X-22850Y10286D01*
X-22845Y10287D01*
X-22838Y10290D01*
X-22831Y10293D01*
X-22825Y10297D01*
X-22825Y10297D01*
X-22823Y10299D01*
X-22820Y10302D01*
X-22817Y10307D01*
X-22813Y10312D01*
X-22808Y10319D01*
X-22805Y10326D01*
X-22801Y10336D01*
X-22705Y10320D01*
Y10320D01*
X-22706Y10318D01*
X-22708Y10315D01*
X-22709Y10312D01*
X-22711Y10307D01*
X-22714Y10302D01*
X-22720Y10290D01*
X-22729Y10277D01*
X-22739Y10264D01*
X-22751Y10251D01*
X-22765Y10240D01*
X-22765D01*
X-22766Y10238D01*
X-22768Y10237D01*
X-22772Y10235D01*
X-22775Y10234D01*
X-22781Y10231D01*
X-22792Y10226D01*
X-22807Y10221D01*
X-22824Y10217D01*
X-22843Y10214D01*
X-22864Y10212D01*
X-22868D01*
X-22874Y10213D01*
X-22880D01*
X-22888Y10214D01*
X-22897Y10215D01*
X-22907Y10217D01*
X-22917Y10220D01*
X-22929Y10223D01*
X-22940Y10227D01*
X-22953Y10232D01*
X-22964Y10238D01*
X-22976Y10245D01*
X-22987Y10254D01*
X-22997Y10264D01*
X-23006Y10274D01*
Y10275D01*
X-23007Y10277D01*
X-23009Y10280D01*
X-23011Y10283D01*
X-23014Y10288D01*
X-23017Y10294D01*
X-23020Y10301D01*
X-23023Y10309D01*
X-23027Y10317D01*
X-23030Y10327D01*
X-23033Y10337D01*
X-23036Y10349D01*
X-23040Y10373D01*
X-23040Y10386D01*
X-23041Y10400D01*
Y10401D01*
Y10404D01*
Y10409D01*
X-23040Y10416D01*
X-23040Y10422D01*
X-23039Y10432D01*
X-23037Y10442D01*
X-23035Y10452D01*
X-23030Y10475D01*
X-23026Y10486D01*
X-23021Y10499D01*
X-23016Y10510D01*
X-23010Y10522D01*
X-23003Y10532D01*
X-22994Y10542D01*
X-22993Y10543D01*
X-22992Y10545D01*
X-22990Y10547D01*
X-22986Y10551D01*
X-22981Y10555D01*
X-22975Y10559D01*
X-22969Y10564D01*
X-22961Y10568D01*
X-22953Y10573D01*
X-22944Y10578D01*
X-22934Y10582D01*
X-22924Y10586D01*
X-22912Y10590D01*
X-22901Y10592D01*
X-22887Y10594D01*
X-22874Y10595D01*
X-22867D01*
X-22861Y10594D01*
D02*
G37*
G36*
X-21449Y9607D02*
X-21542D01*
X-21605Y9842D01*
X-21667Y9607D01*
X-21761D01*
X-21876Y9972D01*
X-21782D01*
X-21714Y9733D01*
X-21651Y9972D01*
X-21557D01*
X-21497Y9733D01*
X-21427Y9972D01*
X-21332D01*
X-21449Y9607D01*
D02*
G37*
G36*
X-21185D02*
X-21282D01*
Y9703D01*
X-21185D01*
Y9607D01*
D02*
G37*
G36*
X-18932Y9979D02*
X-18925D01*
X-18911Y9978D01*
X-18895Y9976D01*
X-18879Y9974D01*
X-18864Y9970D01*
X-18857Y9968D01*
X-18851Y9964D01*
X-18849Y9964D01*
X-18846Y9961D01*
X-18840Y9958D01*
X-18833Y9954D01*
X-18826Y9948D01*
X-18819Y9941D01*
X-18812Y9934D01*
X-18806Y9925D01*
X-18806Y9925D01*
X-18804Y9921D01*
X-18803Y9915D01*
X-18799Y9905D01*
X-18799Y9900D01*
X-18797Y9894D01*
X-18796Y9887D01*
X-18796Y9878D01*
X-18795Y9870D01*
X-18794Y9860D01*
X-18793Y9850D01*
Y9839D01*
X-18795Y9726D01*
Y9726D01*
Y9724D01*
Y9722D01*
Y9719D01*
Y9710D01*
X-18794Y9700D01*
Y9688D01*
X-18793Y9676D01*
X-18792Y9665D01*
X-18790Y9655D01*
Y9654D01*
X-18789Y9651D01*
X-18788Y9647D01*
X-18786Y9640D01*
X-18784Y9633D01*
X-18781Y9625D01*
X-18777Y9617D01*
X-18773Y9607D01*
X-18868D01*
Y9607D01*
X-18869Y9608D01*
X-18869Y9610D01*
X-18870Y9613D01*
X-18872Y9617D01*
X-18874Y9622D01*
X-18875Y9628D01*
X-18878Y9634D01*
Y9635D01*
Y9636D01*
X-18879Y9639D01*
X-18880Y9643D01*
X-18881Y9646D01*
X-18882Y9645D01*
X-18885Y9642D01*
X-18890Y9637D01*
X-18897Y9632D01*
X-18905Y9626D01*
X-18914Y9620D01*
X-18923Y9614D01*
X-18934Y9609D01*
X-18935Y9608D01*
X-18938Y9607D01*
X-18945Y9605D01*
X-18952Y9603D01*
X-18961Y9601D01*
X-18971Y9599D01*
X-18982Y9598D01*
X-18994Y9597D01*
X-18999D01*
X-19003Y9598D01*
X-19008D01*
X-19014Y9599D01*
X-19026Y9601D01*
X-19041Y9605D01*
X-19055Y9610D01*
X-19070Y9617D01*
X-19083Y9627D01*
X-19084Y9629D01*
X-19088Y9633D01*
X-19093Y9640D01*
X-19099Y9649D01*
X-19105Y9660D01*
X-19110Y9673D01*
X-19114Y9689D01*
X-19115Y9706D01*
Y9707D01*
Y9711D01*
X-19114Y9716D01*
X-19114Y9724D01*
X-19111Y9733D01*
X-19109Y9742D01*
X-19105Y9751D01*
X-19101Y9760D01*
X-19100Y9761D01*
X-19097Y9764D01*
X-19094Y9769D01*
X-19090Y9774D01*
X-19084Y9780D01*
X-19077Y9786D01*
X-19069Y9792D01*
X-19060Y9798D01*
X-19058Y9799D01*
X-19054Y9800D01*
X-19048Y9802D01*
X-19040Y9805D01*
X-19029Y9809D01*
X-19016Y9813D01*
X-19001Y9817D01*
X-18983Y9821D01*
X-18982D01*
X-18980Y9822D01*
X-18977Y9822D01*
X-18972Y9823D01*
X-18966Y9824D01*
X-18960Y9825D01*
X-18945Y9829D01*
X-18930Y9832D01*
X-18915Y9836D01*
X-18900Y9840D01*
X-18894Y9842D01*
X-18889Y9845D01*
Y9854D01*
Y9855D01*
Y9858D01*
X-18889Y9863D01*
X-18890Y9869D01*
X-18892Y9876D01*
X-18895Y9882D01*
X-18898Y9888D01*
X-18902Y9894D01*
X-18903Y9895D01*
X-18905Y9896D01*
X-18908Y9898D01*
X-18914Y9900D01*
X-18921Y9902D01*
X-18930Y9905D01*
X-18942Y9905D01*
X-18955Y9906D01*
X-18959D01*
X-18964Y9905D01*
X-18969Y9905D01*
X-18983Y9901D01*
X-18989Y9899D01*
X-18995Y9895D01*
X-18996Y9895D01*
X-18998Y9893D01*
X-19001Y9891D01*
X-19004Y9887D01*
X-19008Y9882D01*
X-19011Y9876D01*
X-19015Y9868D01*
X-19018Y9860D01*
X-19105Y9876D01*
Y9877D01*
X-19104Y9878D01*
X-19104Y9882D01*
X-19102Y9885D01*
X-19098Y9894D01*
X-19094Y9905D01*
X-19087Y9918D01*
X-19077Y9931D01*
X-19067Y9943D01*
X-19054Y9954D01*
X-19054D01*
X-19053Y9954D01*
X-19051Y9956D01*
X-19047Y9958D01*
X-19044Y9960D01*
X-19039Y9962D01*
X-19034Y9964D01*
X-19028Y9967D01*
X-19021Y9969D01*
X-19012Y9971D01*
X-19004Y9974D01*
X-18994Y9976D01*
X-18984Y9978D01*
X-18972Y9979D01*
X-18961Y9980D01*
X-18937D01*
X-18932Y9979D01*
D02*
G37*
G36*
X-17110D02*
X-17103Y9978D01*
X-17094Y9977D01*
X-17086Y9975D01*
X-17076Y9973D01*
X-17065Y9970D01*
X-17055Y9967D01*
X-17043Y9962D01*
X-17032Y9957D01*
X-17021Y9951D01*
X-17009Y9943D01*
X-16998Y9935D01*
X-16989Y9925D01*
X-16988Y9925D01*
X-16986Y9923D01*
X-16984Y9920D01*
X-16980Y9915D01*
X-16976Y9911D01*
X-16972Y9904D01*
X-16967Y9897D01*
X-16962Y9888D01*
X-16957Y9878D01*
X-16952Y9868D01*
X-16948Y9857D01*
X-16944Y9845D01*
X-16940Y9832D01*
X-16938Y9819D01*
X-16936Y9805D01*
X-16935Y9789D01*
Y9789D01*
Y9786D01*
Y9782D01*
X-16936Y9776D01*
X-16937Y9769D01*
X-16939Y9760D01*
X-16940Y9751D01*
X-16942Y9741D01*
X-16945Y9730D01*
X-16949Y9719D01*
X-16953Y9708D01*
X-16958Y9696D01*
X-16965Y9685D01*
X-16972Y9673D01*
X-16980Y9663D01*
X-16989Y9652D01*
X-16990Y9651D01*
X-16992Y9650D01*
X-16995Y9647D01*
X-16998Y9643D01*
X-17004Y9640D01*
X-17010Y9635D01*
X-17018Y9630D01*
X-17026Y9625D01*
X-17035Y9620D01*
X-17045Y9614D01*
X-17056Y9610D01*
X-17068Y9606D01*
X-17081Y9603D01*
X-17094Y9600D01*
X-17109Y9598D01*
X-17124Y9597D01*
X-17132D01*
X-17137Y9598D01*
X-17142Y9599D01*
X-17154Y9600D01*
X-17169Y9603D01*
X-17185Y9607D01*
X-17202Y9612D01*
X-17219Y9620D01*
X-17220D01*
X-17221Y9620D01*
X-17224Y9622D01*
X-17227Y9624D01*
X-17234Y9630D01*
X-17244Y9637D01*
X-17256Y9646D01*
X-17267Y9657D01*
X-17278Y9671D01*
X-17288Y9686D01*
Y9687D01*
X-17289Y9689D01*
X-17290Y9691D01*
X-17292Y9694D01*
X-17293Y9699D01*
X-17295Y9703D01*
X-17297Y9709D01*
X-17300Y9716D01*
X-17303Y9732D01*
X-17307Y9750D01*
X-17310Y9771D01*
X-17311Y9793D01*
Y9794D01*
Y9796D01*
Y9798D01*
X-17310Y9802D01*
Y9805D01*
X-17310Y9811D01*
X-17308Y9823D01*
X-17306Y9838D01*
X-17301Y9853D01*
X-17296Y9870D01*
X-17288Y9887D01*
Y9888D01*
X-17287Y9889D01*
X-17286Y9891D01*
X-17283Y9895D01*
X-17278Y9902D01*
X-17270Y9912D01*
X-17261Y9924D01*
X-17250Y9935D01*
X-17237Y9946D01*
X-17221Y9956D01*
X-17220D01*
X-17219Y9957D01*
X-17217Y9958D01*
X-17214Y9960D01*
X-17210Y9961D01*
X-17204Y9964D01*
X-17193Y9968D01*
X-17178Y9972D01*
X-17161Y9976D01*
X-17144Y9979D01*
X-17124Y9980D01*
X-17116D01*
X-17110Y9979D01*
D02*
G37*
G36*
X-20503D02*
X-20496Y9978D01*
X-20488Y9977D01*
X-20479Y9975D01*
X-20470Y9973D01*
X-20460Y9970D01*
X-20449Y9967D01*
X-20438Y9962D01*
X-20428Y9957D01*
X-20417Y9951D01*
X-20407Y9943D01*
X-20397Y9935D01*
X-20388Y9925D01*
X-20387Y9925D01*
X-20385Y9923D01*
X-20383Y9920D01*
X-20380Y9915D01*
X-20377Y9909D01*
X-20373Y9902D01*
X-20368Y9895D01*
X-20365Y9885D01*
X-20360Y9874D01*
X-20356Y9862D01*
X-20352Y9848D01*
X-20348Y9833D01*
X-20346Y9817D01*
X-20344Y9800D01*
X-20342Y9781D01*
Y9761D01*
X-20584D01*
Y9760D01*
Y9759D01*
Y9757D01*
X-20584Y9754D01*
X-20583Y9746D01*
X-20581Y9736D01*
X-20578Y9725D01*
X-20574Y9714D01*
X-20569Y9703D01*
X-20561Y9693D01*
X-20560Y9693D01*
X-20557Y9690D01*
X-20553Y9686D01*
X-20546Y9682D01*
X-20538Y9677D01*
X-20528Y9673D01*
X-20517Y9670D01*
X-20506Y9670D01*
X-20502D01*
X-20497Y9670D01*
X-20492Y9671D01*
X-20487Y9673D01*
X-20480Y9675D01*
X-20474Y9678D01*
X-20468Y9682D01*
X-20467Y9683D01*
X-20465Y9684D01*
X-20462Y9687D01*
X-20459Y9692D01*
X-20455Y9697D01*
X-20451Y9704D01*
X-20447Y9712D01*
X-20444Y9722D01*
X-20348Y9706D01*
Y9705D01*
X-20348Y9703D01*
X-20350Y9700D01*
X-20352Y9697D01*
X-20353Y9693D01*
X-20356Y9687D01*
X-20362Y9676D01*
X-20371Y9663D01*
X-20381Y9650D01*
X-20393Y9637D01*
X-20407Y9625D01*
X-20408D01*
X-20408Y9623D01*
X-20411Y9623D01*
X-20414Y9620D01*
X-20418Y9619D01*
X-20423Y9617D01*
X-20435Y9611D01*
X-20449Y9606D01*
X-20466Y9602D01*
X-20485Y9599D01*
X-20507Y9597D01*
X-20511D01*
X-20516Y9598D01*
X-20522D01*
X-20531Y9600D01*
X-20539Y9600D01*
X-20549Y9603D01*
X-20560Y9605D01*
X-20571Y9608D01*
X-20583Y9613D01*
X-20595Y9617D01*
X-20607Y9623D01*
X-20618Y9630D01*
X-20629Y9639D01*
X-20639Y9649D01*
X-20648Y9660D01*
Y9660D01*
X-20650Y9662D01*
X-20651Y9665D01*
X-20653Y9669D01*
X-20656Y9673D01*
X-20660Y9680D01*
X-20663Y9686D01*
X-20666Y9694D01*
X-20669Y9703D01*
X-20672Y9713D01*
X-20675Y9723D01*
X-20678Y9734D01*
X-20682Y9759D01*
X-20683Y9772D01*
X-20683Y9786D01*
Y9786D01*
Y9789D01*
Y9794D01*
X-20683Y9801D01*
X-20682Y9808D01*
X-20681Y9817D01*
X-20680Y9827D01*
X-20677Y9837D01*
X-20672Y9860D01*
X-20668Y9872D01*
X-20663Y9884D01*
X-20658Y9895D01*
X-20652Y9907D01*
X-20645Y9918D01*
X-20636Y9928D01*
X-20636Y9928D01*
X-20634Y9930D01*
X-20632Y9932D01*
X-20628Y9936D01*
X-20623Y9940D01*
X-20617Y9944D01*
X-20611Y9949D01*
X-20603Y9954D01*
X-20595Y9958D01*
X-20587Y9964D01*
X-20577Y9968D01*
X-20566Y9971D01*
X-20554Y9975D01*
X-20543Y9978D01*
X-20530Y9979D01*
X-20517Y9980D01*
X-20509D01*
X-20503Y9979D01*
D02*
G37*
G36*
X-18597Y9972D02*
X-18531D01*
Y9895D01*
X-18597D01*
Y9746D01*
Y9746D01*
Y9745D01*
Y9743D01*
Y9739D01*
Y9732D01*
Y9723D01*
X-18596Y9714D01*
Y9706D01*
Y9699D01*
X-18595Y9696D01*
Y9694D01*
Y9693D01*
X-18594Y9690D01*
X-18591Y9686D01*
X-18587Y9682D01*
X-18585Y9681D01*
X-18582Y9680D01*
X-18577Y9678D01*
X-18571Y9677D01*
X-18568D01*
X-18565Y9678D01*
X-18561Y9679D01*
X-18555Y9680D01*
X-18548Y9681D01*
X-18541Y9683D01*
X-18531Y9686D01*
X-18523Y9611D01*
X-18525Y9610D01*
X-18529Y9609D01*
X-18536Y9607D01*
X-18545Y9604D01*
X-18557Y9602D01*
X-18570Y9600D01*
X-18584Y9598D01*
X-18600Y9597D01*
X-18604D01*
X-18609Y9598D01*
X-18615D01*
X-18623Y9600D01*
X-18630Y9601D01*
X-18639Y9603D01*
X-18647Y9606D01*
X-18647Y9607D01*
X-18650Y9607D01*
X-18654Y9609D01*
X-18658Y9612D01*
X-18668Y9619D01*
X-18673Y9623D01*
X-18677Y9628D01*
X-18678Y9629D01*
X-18679Y9630D01*
X-18680Y9634D01*
X-18683Y9638D01*
X-18685Y9644D01*
X-18687Y9650D01*
X-18689Y9658D01*
X-18690Y9666D01*
Y9667D01*
X-18691Y9670D01*
Y9675D01*
X-18692Y9681D01*
X-18693Y9690D01*
Y9703D01*
X-18693Y9717D01*
Y9726D01*
Y9735D01*
Y9895D01*
X-18738D01*
Y9972D01*
X-18693D01*
Y10044D01*
X-18597Y10101D01*
Y9972D01*
D02*
G37*
G36*
X-22544Y9607D02*
X-22637D01*
X-22700Y9842D01*
X-22762Y9607D01*
X-22856D01*
X-22971Y9972D01*
X-22878D01*
X-22809Y9733D01*
X-22746Y9972D01*
X-22652D01*
X-22592Y9733D01*
X-22522Y9972D01*
X-22427D01*
X-22544Y9607D01*
D02*
G37*
G36*
X-21997D02*
X-22090D01*
X-22153Y9842D01*
X-22215Y9607D01*
X-22308D01*
X-22424Y9972D01*
X-22330D01*
X-22262Y9733D01*
X-22199Y9972D01*
X-22105D01*
X-22044Y9733D01*
X-21974Y9972D01*
X-21879D01*
X-21997Y9607D01*
D02*
G37*
G36*
X-17780D02*
X-17877D01*
Y9703D01*
X-17780D01*
Y9607D01*
D02*
G37*
G36*
X-18367D02*
X-18464D01*
Y9972D01*
X-18367D01*
Y9607D01*
D02*
G37*
G36*
X-18175Y9843D02*
X-18062Y9972D01*
X-17943D01*
X-18068Y9839D01*
X-17934Y9607D01*
X-18038D01*
X-18131Y9771D01*
X-18175Y9723D01*
Y9607D01*
X-18272D01*
Y10111D01*
X-18175D01*
Y9843D01*
D02*
G37*
G36*
X-17030Y10594D02*
X-17023Y10593D01*
X-17015Y10591D01*
X-17006Y10590D01*
X-16997Y10588D01*
X-16987Y10585D01*
X-16976Y10581D01*
X-16965Y10577D01*
X-16955Y10571D01*
X-16944Y10565D01*
X-16934Y10558D01*
X-16924Y10550D01*
X-16915Y10540D01*
X-16914Y10539D01*
X-16912Y10538D01*
X-16910Y10535D01*
X-16907Y10530D01*
X-16904Y10524D01*
X-16900Y10517D01*
X-16896Y10509D01*
X-16892Y10499D01*
X-16887Y10489D01*
X-16883Y10476D01*
X-16879Y10462D01*
X-16876Y10448D01*
X-16873Y10432D01*
X-16871Y10415D01*
X-16869Y10396D01*
Y10376D01*
X-17111D01*
Y10375D01*
Y10374D01*
Y10372D01*
X-17111Y10369D01*
X-17110Y10360D01*
X-17108Y10351D01*
X-17105Y10340D01*
X-17101Y10329D01*
X-17096Y10318D01*
X-17088Y10308D01*
X-17088Y10307D01*
X-17084Y10304D01*
X-17080Y10300D01*
X-17073Y10297D01*
X-17065Y10292D01*
X-17055Y10288D01*
X-17045Y10285D01*
X-17033Y10284D01*
X-17029D01*
X-17025Y10285D01*
X-17019Y10286D01*
X-17014Y10287D01*
X-17007Y10290D01*
X-17001Y10293D01*
X-16995Y10297D01*
X-16994Y10297D01*
X-16992Y10299D01*
X-16989Y10302D01*
X-16986Y10307D01*
X-16982Y10312D01*
X-16978Y10319D01*
X-16974Y10326D01*
X-16971Y10336D01*
X-16875Y10320D01*
Y10320D01*
X-16876Y10318D01*
X-16877Y10315D01*
X-16879Y10312D01*
X-16880Y10307D01*
X-16883Y10302D01*
X-16889Y10290D01*
X-16898Y10277D01*
X-16908Y10264D01*
X-16920Y10251D01*
X-16934Y10240D01*
X-16935D01*
X-16935Y10238D01*
X-16938Y10237D01*
X-16941Y10235D01*
X-16945Y10234D01*
X-16950Y10231D01*
X-16962Y10226D01*
X-16976Y10221D01*
X-16993Y10217D01*
X-17012Y10214D01*
X-17034Y10212D01*
X-17038D01*
X-17043Y10213D01*
X-17049D01*
X-17058Y10214D01*
X-17066Y10215D01*
X-17076Y10217D01*
X-17087Y10220D01*
X-17098Y10223D01*
X-17110Y10227D01*
X-17122Y10232D01*
X-17134Y10238D01*
X-17145Y10245D01*
X-17156Y10254D01*
X-17166Y10264D01*
X-17175Y10274D01*
Y10275D01*
X-17177Y10277D01*
X-17178Y10280D01*
X-17181Y10283D01*
X-17184Y10288D01*
X-17187Y10294D01*
X-17190Y10301D01*
X-17193Y10309D01*
X-17196Y10317D01*
X-17199Y10327D01*
X-17202Y10337D01*
X-17205Y10349D01*
X-17209Y10373D01*
X-17210Y10386D01*
X-17210Y10400D01*
Y10401D01*
Y10404D01*
Y10409D01*
X-17210Y10416D01*
X-17209Y10422D01*
X-17208Y10432D01*
X-17207Y10442D01*
X-17204Y10452D01*
X-17199Y10475D01*
X-17195Y10486D01*
X-17190Y10499D01*
X-17185Y10510D01*
X-17179Y10522D01*
X-17172Y10532D01*
X-17164Y10542D01*
X-17163Y10543D01*
X-17161Y10545D01*
X-17159Y10547D01*
X-17155Y10551D01*
X-17151Y10555D01*
X-17144Y10559D01*
X-17138Y10564D01*
X-17131Y10568D01*
X-17122Y10573D01*
X-17114Y10578D01*
X-17104Y10582D01*
X-17093Y10586D01*
X-17081Y10590D01*
X-17070Y10592D01*
X-17057Y10594D01*
X-17044Y10595D01*
X-17036D01*
X-17030Y10594D01*
D02*
G37*
G36*
X-19819D02*
X-19811Y10593D01*
X-19802Y10591D01*
X-19792Y10590D01*
X-19782Y10587D01*
X-19772Y10583D01*
X-19770Y10582D01*
X-19767Y10581D01*
X-19763Y10578D01*
X-19757Y10575D01*
X-19750Y10571D01*
X-19744Y10565D01*
X-19737Y10560D01*
X-19732Y10553D01*
X-19731Y10552D01*
X-19729Y10550D01*
X-19727Y10546D01*
X-19724Y10542D01*
X-19721Y10535D01*
X-19718Y10528D01*
X-19715Y10521D01*
X-19713Y10512D01*
Y10512D01*
X-19712Y10509D01*
X-19711Y10503D01*
X-19710Y10496D01*
X-19709Y10487D01*
X-19708Y10475D01*
X-19707Y10462D01*
Y10448D01*
Y10221D01*
X-19804D01*
Y10407D01*
Y10408D01*
Y10409D01*
Y10413D01*
Y10416D01*
Y10422D01*
Y10427D01*
X-19805Y10439D01*
X-19806Y10452D01*
X-19807Y10464D01*
X-19809Y10475D01*
X-19809Y10479D01*
X-19811Y10483D01*
Y10484D01*
X-19812Y10486D01*
X-19813Y10489D01*
X-19815Y10493D01*
X-19822Y10502D01*
X-19831Y10511D01*
X-19832Y10512D01*
X-19833Y10512D01*
X-19836Y10514D01*
X-19840Y10516D01*
X-19845Y10518D01*
X-19851Y10519D01*
X-19857Y10520D01*
X-19864Y10521D01*
X-19869D01*
X-19873Y10520D01*
X-19879Y10519D01*
X-19886Y10518D01*
X-19894Y10515D01*
X-19902Y10512D01*
X-19909Y10507D01*
X-19910Y10506D01*
X-19912Y10505D01*
X-19915Y10502D01*
X-19920Y10497D01*
X-19924Y10492D01*
X-19928Y10485D01*
X-19933Y10479D01*
X-19936Y10470D01*
Y10469D01*
X-19937Y10466D01*
X-19938Y10460D01*
X-19939Y10452D01*
X-19940Y10446D01*
X-19941Y10440D01*
X-19941Y10433D01*
X-19942Y10426D01*
Y10417D01*
X-19943Y10408D01*
Y10397D01*
Y10386D01*
Y10221D01*
X-20040D01*
Y10587D01*
X-19950D01*
Y10533D01*
X-19949Y10534D01*
X-19948Y10535D01*
X-19945Y10538D01*
X-19941Y10543D01*
X-19937Y10548D01*
X-19931Y10552D01*
X-19925Y10558D01*
X-19917Y10564D01*
X-19908Y10569D01*
X-19900Y10575D01*
X-19890Y10580D01*
X-19879Y10585D01*
X-19868Y10589D01*
X-19856Y10592D01*
X-19843Y10594D01*
X-19830Y10595D01*
X-19825D01*
X-19819Y10594D01*
D02*
G37*
G36*
X-17980D02*
X-17972Y10592D01*
X-17962Y10590D01*
X-17951Y10587D01*
X-17939Y10582D01*
X-17928Y10576D01*
X-17958Y10492D01*
X-17958Y10492D01*
X-17962Y10494D01*
X-17967Y10497D01*
X-17972Y10500D01*
X-17980Y10502D01*
X-17988Y10505D01*
X-17995Y10507D01*
X-18004Y10508D01*
X-18007D01*
X-18011Y10507D01*
X-18015Y10506D01*
X-18021Y10505D01*
X-18027Y10503D01*
X-18033Y10500D01*
X-18038Y10496D01*
X-18039Y10495D01*
X-18041Y10494D01*
X-18043Y10491D01*
X-18046Y10487D01*
X-18050Y10482D01*
X-18054Y10474D01*
X-18058Y10466D01*
X-18061Y10456D01*
Y10454D01*
X-18061Y10452D01*
X-18062Y10449D01*
Y10446D01*
X-18063Y10442D01*
X-18064Y10436D01*
X-18064Y10429D01*
X-18065Y10422D01*
X-18066Y10413D01*
X-18067Y10403D01*
Y10392D01*
X-18068Y10379D01*
X-18068Y10366D01*
Y10350D01*
Y10333D01*
Y10221D01*
X-18165D01*
Y10587D01*
X-18075D01*
Y10535D01*
X-18074Y10536D01*
X-18071Y10541D01*
X-18067Y10547D01*
X-18061Y10555D01*
X-18055Y10563D01*
X-18048Y10571D01*
X-18041Y10578D01*
X-18034Y10583D01*
X-18033Y10584D01*
X-18031Y10585D01*
X-18027Y10587D01*
X-18021Y10589D01*
X-18015Y10591D01*
X-18008Y10593D01*
X-18001Y10594D01*
X-17992Y10595D01*
X-17987D01*
X-17980Y10594D01*
D02*
G37*
G36*
X-22242Y10221D02*
X-22335D01*
X-22398Y10456D01*
X-22460Y10221D01*
X-22553D01*
X-22669Y10587D01*
X-22575D01*
X-22507Y10347D01*
X-22444Y10587D01*
X-22350D01*
X-22289Y10347D01*
X-22219Y10587D01*
X-22124D01*
X-22242Y10221D01*
D02*
G37*
G36*
X-23119D02*
X-23222D01*
X-23426Y10552D01*
Y10221D01*
X-23520D01*
Y10726D01*
X-23422D01*
X-23214Y10387D01*
Y10726D01*
X-23119D01*
Y10221D01*
D02*
G37*
G36*
X-20725Y10637D02*
X-20822D01*
Y10726D01*
X-20725D01*
Y10637D01*
D02*
G37*
G36*
X-19277D02*
X-19374D01*
Y10726D01*
X-19277D01*
Y10637D01*
D02*
G37*
G36*
X-21649Y10594D02*
X-21639Y10592D01*
X-21630Y10591D01*
X-21618Y10588D01*
X-21606Y10583D01*
X-21596Y10578D01*
X-21594Y10577D01*
X-21591Y10575D01*
X-21586Y10571D01*
X-21580Y10565D01*
X-21573Y10559D01*
X-21566Y10551D01*
X-21559Y10541D01*
X-21553Y10530D01*
X-21553Y10529D01*
X-21552Y10525D01*
X-21550Y10520D01*
X-21548Y10512D01*
X-21547Y10501D01*
X-21545Y10488D01*
X-21544Y10472D01*
X-21544Y10454D01*
Y10221D01*
X-21640D01*
Y10429D01*
Y10430D01*
Y10432D01*
Y10435D01*
Y10438D01*
X-21641Y10448D01*
X-21642Y10459D01*
X-21643Y10471D01*
X-21644Y10482D01*
X-21647Y10492D01*
X-21649Y10497D01*
X-21650Y10500D01*
X-21651Y10501D01*
X-21653Y10503D01*
X-21656Y10507D01*
X-21660Y10511D01*
X-21666Y10514D01*
X-21673Y10518D01*
X-21682Y10520D01*
X-21692Y10521D01*
X-21695D01*
X-21699Y10520D01*
X-21704Y10519D01*
X-21710Y10518D01*
X-21716Y10515D01*
X-21723Y10512D01*
X-21730Y10508D01*
X-21731Y10507D01*
X-21733Y10505D01*
X-21736Y10502D01*
X-21740Y10499D01*
X-21744Y10494D01*
X-21749Y10487D01*
X-21752Y10480D01*
X-21755Y10472D01*
Y10471D01*
X-21757Y10467D01*
X-21758Y10462D01*
X-21759Y10453D01*
X-21761Y10442D01*
X-21762Y10430D01*
X-21763Y10414D01*
Y10396D01*
Y10221D01*
X-21860D01*
Y10421D01*
Y10422D01*
Y10423D01*
Y10426D01*
Y10429D01*
Y10439D01*
X-21861Y10450D01*
X-21861Y10462D01*
X-21862Y10473D01*
X-21864Y10482D01*
X-21865Y10487D01*
X-21865Y10490D01*
Y10491D01*
X-21866Y10492D01*
X-21868Y10495D01*
X-21869Y10499D01*
X-21875Y10506D01*
X-21881Y10513D01*
X-21882D01*
X-21884Y10515D01*
X-21886Y10515D01*
X-21889Y10517D01*
X-21893Y10518D01*
X-21898Y10519D01*
X-21904Y10521D01*
X-21914D01*
X-21919Y10520D01*
X-21924Y10519D01*
X-21931Y10518D01*
X-21937Y10515D01*
X-21944Y10512D01*
X-21951Y10509D01*
X-21952Y10508D01*
X-21954Y10506D01*
X-21957Y10503D01*
X-21961Y10499D01*
X-21965Y10495D01*
X-21970Y10489D01*
X-21974Y10482D01*
X-21977Y10473D01*
Y10472D01*
X-21978Y10469D01*
X-21979Y10463D01*
X-21981Y10456D01*
X-21982Y10446D01*
X-21983Y10432D01*
X-21984Y10417D01*
Y10399D01*
Y10221D01*
X-22081D01*
Y10587D01*
X-21992D01*
Y10537D01*
X-21991Y10538D01*
X-21990Y10539D01*
X-21987Y10542D01*
X-21984Y10546D01*
X-21979Y10550D01*
X-21974Y10555D01*
X-21967Y10561D01*
X-21960Y10566D01*
X-21952Y10571D01*
X-21944Y10576D01*
X-21924Y10585D01*
X-21914Y10589D01*
X-21902Y10592D01*
X-21891Y10594D01*
X-21878Y10595D01*
X-21872D01*
X-21866Y10594D01*
X-21858Y10593D01*
X-21848Y10591D01*
X-21838Y10588D01*
X-21828Y10585D01*
X-21818Y10580D01*
X-21816Y10579D01*
X-21813Y10577D01*
X-21808Y10574D01*
X-21802Y10569D01*
X-21795Y10563D01*
X-21788Y10555D01*
X-21782Y10546D01*
X-21775Y10536D01*
X-21774Y10538D01*
X-21771Y10541D01*
X-21765Y10546D01*
X-21759Y10552D01*
X-21752Y10560D01*
X-21743Y10567D01*
X-21733Y10574D01*
X-21723Y10580D01*
X-21722Y10581D01*
X-21719Y10582D01*
X-21712Y10585D01*
X-21705Y10588D01*
X-21696Y10590D01*
X-21686Y10592D01*
X-21675Y10594D01*
X-21663Y10595D01*
X-21656D01*
X-21649Y10594D01*
D02*
G37*
G36*
X-18754D02*
X-18744Y10592D01*
X-18734Y10591D01*
X-18723Y10588D01*
X-18711Y10583D01*
X-18700Y10578D01*
X-18699Y10577D01*
X-18696Y10575D01*
X-18690Y10571D01*
X-18684Y10565D01*
X-18677Y10559D01*
X-18670Y10551D01*
X-18664Y10541D01*
X-18658Y10530D01*
X-18657Y10529D01*
X-18657Y10525D01*
X-18655Y10520D01*
X-18653Y10512D01*
X-18651Y10501D01*
X-18650Y10488D01*
X-18649Y10472D01*
X-18648Y10454D01*
Y10221D01*
X-18745D01*
Y10429D01*
Y10430D01*
Y10432D01*
Y10435D01*
Y10438D01*
X-18746Y10448D01*
X-18746Y10459D01*
X-18747Y10471D01*
X-18749Y10482D01*
X-18752Y10492D01*
X-18753Y10497D01*
X-18755Y10500D01*
X-18756Y10501D01*
X-18757Y10503D01*
X-18761Y10507D01*
X-18765Y10511D01*
X-18771Y10514D01*
X-18778Y10518D01*
X-18786Y10520D01*
X-18796Y10521D01*
X-18799D01*
X-18803Y10520D01*
X-18809Y10519D01*
X-18815Y10518D01*
X-18821Y10515D01*
X-18828Y10512D01*
X-18835Y10508D01*
X-18836Y10507D01*
X-18838Y10505D01*
X-18841Y10502D01*
X-18845Y10499D01*
X-18849Y10494D01*
X-18853Y10487D01*
X-18857Y10480D01*
X-18860Y10472D01*
Y10471D01*
X-18862Y10467D01*
X-18862Y10462D01*
X-18864Y10453D01*
X-18865Y10442D01*
X-18866Y10430D01*
X-18868Y10414D01*
Y10396D01*
Y10221D01*
X-18965D01*
Y10421D01*
Y10422D01*
Y10423D01*
Y10426D01*
Y10429D01*
Y10439D01*
X-18965Y10450D01*
X-18966Y10462D01*
X-18967Y10473D01*
X-18968Y10482D01*
X-18969Y10487D01*
X-18970Y10490D01*
Y10491D01*
X-18971Y10492D01*
X-18972Y10495D01*
X-18974Y10499D01*
X-18979Y10506D01*
X-18986Y10513D01*
X-18987D01*
X-18988Y10515D01*
X-18991Y10515D01*
X-18994Y10517D01*
X-18998Y10518D01*
X-19003Y10519D01*
X-19008Y10521D01*
X-19019D01*
X-19024Y10520D01*
X-19029Y10519D01*
X-19035Y10518D01*
X-19042Y10515D01*
X-19049Y10512D01*
X-19056Y10509D01*
X-19057Y10508D01*
X-19059Y10506D01*
X-19062Y10503D01*
X-19066Y10499D01*
X-19070Y10495D01*
X-19074Y10489D01*
X-19078Y10482D01*
X-19081Y10473D01*
Y10472D01*
X-19083Y10469D01*
X-19084Y10463D01*
X-19085Y10456D01*
X-19087Y10446D01*
X-19087Y10432D01*
X-19089Y10417D01*
Y10399D01*
Y10221D01*
X-19186D01*
Y10587D01*
X-19097D01*
Y10537D01*
X-19096Y10538D01*
X-19094Y10539D01*
X-19092Y10542D01*
X-19088Y10546D01*
X-19084Y10550D01*
X-19078Y10555D01*
X-19072Y10561D01*
X-19064Y10566D01*
X-19057Y10571D01*
X-19048Y10576D01*
X-19028Y10585D01*
X-19018Y10589D01*
X-19007Y10592D01*
X-18995Y10594D01*
X-18983Y10595D01*
X-18977D01*
X-18971Y10594D01*
X-18962Y10593D01*
X-18952Y10591D01*
X-18942Y10588D01*
X-18932Y10585D01*
X-18922Y10580D01*
X-18921Y10579D01*
X-18918Y10577D01*
X-18913Y10574D01*
X-18907Y10569D01*
X-18900Y10563D01*
X-18893Y10555D01*
X-18886Y10546D01*
X-18879Y10536D01*
X-18879Y10538D01*
X-18875Y10541D01*
X-18870Y10546D01*
X-18864Y10552D01*
X-18856Y10560D01*
X-18848Y10567D01*
X-18838Y10574D01*
X-18828Y10580D01*
X-18826Y10581D01*
X-18823Y10582D01*
X-18817Y10585D01*
X-18809Y10588D01*
X-18801Y10590D01*
X-18790Y10592D01*
X-18779Y10594D01*
X-18768Y10595D01*
X-18761D01*
X-18754Y10594D01*
D02*
G37*
G36*
X-16603Y10221D02*
X-16690D01*
X-16837Y10587D01*
X-16736D01*
X-16667Y10400D01*
X-16647Y10337D01*
Y10338D01*
X-16645Y10341D01*
X-16644Y10345D01*
X-16643Y10350D01*
X-16639Y10360D01*
X-16638Y10365D01*
X-16637Y10369D01*
Y10369D01*
X-16636Y10371D01*
X-16635Y10374D01*
X-16634Y10379D01*
X-16631Y10389D01*
X-16627Y10400D01*
X-16557Y10587D01*
X-16458D01*
X-16603Y10221D01*
D02*
G37*
G36*
X-19277D02*
X-19374D01*
Y10587D01*
X-19277D01*
Y10221D01*
D02*
G37*
G36*
X-17457Y10725D02*
X-17441D01*
X-17432Y10724D01*
X-17413Y10723D01*
X-17394Y10720D01*
X-17376Y10717D01*
X-17367Y10714D01*
X-17360Y10712D01*
X-17359D01*
X-17359Y10711D01*
X-17354Y10710D01*
X-17347Y10706D01*
X-17339Y10701D01*
X-17329Y10694D01*
X-17320Y10685D01*
X-17310Y10675D01*
X-17301Y10663D01*
X-17300Y10661D01*
X-17297Y10657D01*
X-17294Y10650D01*
X-17290Y10640D01*
X-17286Y10628D01*
X-17282Y10615D01*
X-17280Y10600D01*
X-17279Y10584D01*
Y10583D01*
Y10581D01*
Y10578D01*
X-17280Y10575D01*
Y10569D01*
X-17280Y10564D01*
X-17283Y10551D01*
X-17287Y10536D01*
X-17293Y10520D01*
X-17301Y10505D01*
X-17306Y10497D01*
X-17313Y10490D01*
Y10489D01*
X-17314Y10489D01*
X-17316Y10487D01*
X-17319Y10484D01*
X-17323Y10482D01*
X-17326Y10478D01*
X-17332Y10474D01*
X-17337Y10470D01*
X-17344Y10466D01*
X-17351Y10462D01*
X-17359Y10459D01*
X-17369Y10455D01*
X-17378Y10451D01*
X-17389Y10448D01*
X-17399Y10446D01*
X-17412Y10443D01*
X-17411D01*
X-17410Y10442D01*
X-17406Y10440D01*
X-17400Y10436D01*
X-17392Y10431D01*
X-17384Y10425D01*
X-17375Y10417D01*
X-17366Y10409D01*
X-17357Y10401D01*
X-17356Y10400D01*
X-17353Y10396D01*
X-17349Y10391D01*
X-17342Y10383D01*
X-17333Y10371D01*
X-17324Y10357D01*
X-17318Y10349D01*
X-17313Y10340D01*
X-17306Y10330D01*
X-17300Y10320D01*
X-17238Y10221D01*
X-17360D01*
X-17432Y10330D01*
X-17433Y10331D01*
X-17434Y10333D01*
X-17436Y10336D01*
X-17439Y10340D01*
X-17442Y10345D01*
X-17445Y10350D01*
X-17454Y10362D01*
X-17462Y10375D01*
X-17472Y10386D01*
X-17480Y10397D01*
X-17483Y10402D01*
X-17486Y10405D01*
X-17487Y10406D01*
X-17488Y10407D01*
X-17492Y10410D01*
X-17495Y10413D01*
X-17505Y10420D01*
X-17511Y10423D01*
X-17517Y10426D01*
X-17518D01*
X-17520Y10426D01*
X-17524Y10428D01*
X-17529Y10429D01*
X-17536Y10430D01*
X-17545Y10431D01*
X-17555Y10432D01*
X-17588D01*
Y10221D01*
X-17690D01*
Y10726D01*
X-17464D01*
X-17457Y10725D01*
D02*
G37*
G36*
X-16303Y10221D02*
X-16399D01*
Y10318D01*
X-16303D01*
Y10221D01*
D02*
G37*
G36*
X-20533Y10458D02*
X-20420Y10587D01*
X-20301D01*
X-20426Y10453D01*
X-20292Y10221D01*
X-20396D01*
X-20488Y10386D01*
X-20533Y10338D01*
Y10221D01*
X-20630D01*
Y10726D01*
X-20533D01*
Y10458D01*
D02*
G37*
G36*
X-21289Y10594D02*
X-21283D01*
X-21269Y10593D01*
X-21253Y10591D01*
X-21237Y10588D01*
X-21222Y10585D01*
X-21215Y10582D01*
X-21209Y10579D01*
X-21207Y10578D01*
X-21203Y10576D01*
X-21198Y10573D01*
X-21191Y10568D01*
X-21184Y10563D01*
X-21176Y10556D01*
X-21169Y10548D01*
X-21164Y10540D01*
X-21163Y10539D01*
X-21162Y10535D01*
X-21160Y10529D01*
X-21157Y10520D01*
X-21156Y10515D01*
X-21155Y10509D01*
X-21154Y10502D01*
X-21153Y10493D01*
X-21153Y10485D01*
X-21152Y10475D01*
X-21151Y10465D01*
Y10453D01*
X-21153Y10341D01*
Y10340D01*
Y10339D01*
Y10336D01*
Y10333D01*
Y10325D01*
X-21152Y10314D01*
Y10303D01*
X-21150Y10290D01*
X-21150Y10280D01*
X-21148Y10270D01*
Y10269D01*
X-21147Y10266D01*
X-21146Y10261D01*
X-21144Y10255D01*
X-21142Y10248D01*
X-21139Y10240D01*
X-21135Y10231D01*
X-21130Y10221D01*
X-21226D01*
Y10222D01*
X-21226Y10223D01*
X-21227Y10225D01*
X-21228Y10228D01*
X-21229Y10232D01*
X-21232Y10237D01*
X-21233Y10243D01*
X-21236Y10249D01*
Y10250D01*
Y10250D01*
X-21237Y10254D01*
X-21238Y10257D01*
X-21239Y10260D01*
X-21239Y10260D01*
X-21243Y10257D01*
X-21248Y10252D01*
X-21255Y10247D01*
X-21262Y10240D01*
X-21272Y10234D01*
X-21281Y10229D01*
X-21292Y10224D01*
X-21293Y10223D01*
X-21296Y10222D01*
X-21302Y10220D01*
X-21310Y10218D01*
X-21318Y10216D01*
X-21328Y10214D01*
X-21340Y10213D01*
X-21351Y10212D01*
X-21357D01*
X-21361Y10213D01*
X-21365D01*
X-21371Y10214D01*
X-21384Y10216D01*
X-21398Y10220D01*
X-21413Y10224D01*
X-21428Y10232D01*
X-21441Y10242D01*
X-21442Y10244D01*
X-21446Y10247D01*
X-21451Y10254D01*
X-21457Y10264D01*
X-21463Y10275D01*
X-21467Y10288D01*
X-21471Y10303D01*
X-21473Y10320D01*
Y10322D01*
Y10326D01*
X-21472Y10331D01*
X-21471Y10339D01*
X-21469Y10347D01*
X-21467Y10356D01*
X-21463Y10366D01*
X-21458Y10375D01*
X-21457Y10376D01*
X-21455Y10379D01*
X-21452Y10383D01*
X-21448Y10389D01*
X-21442Y10395D01*
X-21435Y10401D01*
X-21427Y10407D01*
X-21418Y10413D01*
X-21416Y10413D01*
X-21412Y10415D01*
X-21406Y10417D01*
X-21398Y10420D01*
X-21387Y10424D01*
X-21374Y10428D01*
X-21358Y10432D01*
X-21341Y10436D01*
X-21340D01*
X-21338Y10436D01*
X-21335Y10437D01*
X-21330Y10438D01*
X-21324Y10439D01*
X-21318Y10440D01*
X-21303Y10443D01*
X-21288Y10447D01*
X-21272Y10451D01*
X-21258Y10455D01*
X-21252Y10457D01*
X-21246Y10459D01*
Y10469D01*
Y10470D01*
Y10473D01*
X-21247Y10478D01*
X-21248Y10484D01*
X-21249Y10491D01*
X-21252Y10497D01*
X-21256Y10503D01*
X-21260Y10509D01*
X-21261Y10509D01*
X-21263Y10511D01*
X-21266Y10512D01*
X-21272Y10515D01*
X-21279Y10517D01*
X-21288Y10519D01*
X-21299Y10520D01*
X-21312Y10521D01*
X-21317D01*
X-21322Y10520D01*
X-21327Y10519D01*
X-21341Y10516D01*
X-21347Y10514D01*
X-21353Y10510D01*
X-21354Y10509D01*
X-21355Y10508D01*
X-21358Y10505D01*
X-21361Y10502D01*
X-21365Y10497D01*
X-21369Y10491D01*
X-21373Y10483D01*
X-21376Y10475D01*
X-21463Y10491D01*
Y10492D01*
X-21462Y10493D01*
X-21461Y10496D01*
X-21460Y10499D01*
X-21456Y10509D01*
X-21451Y10520D01*
X-21444Y10533D01*
X-21435Y10545D01*
X-21424Y10558D01*
X-21412Y10568D01*
X-21411D01*
X-21411Y10569D01*
X-21408Y10571D01*
X-21405Y10572D01*
X-21401Y10575D01*
X-21397Y10577D01*
X-21391Y10579D01*
X-21385Y10581D01*
X-21378Y10584D01*
X-21370Y10586D01*
X-21361Y10588D01*
X-21351Y10591D01*
X-21342Y10592D01*
X-21330Y10594D01*
X-21318Y10595D01*
X-21295D01*
X-21289Y10594D01*
D02*
G37*
G36*
X-20725Y10221D02*
X-20822D01*
Y10587D01*
X-20725D01*
Y10221D01*
D02*
G37*
G36*
X-15780D02*
X-15876D01*
Y10585D01*
X-15877Y10585D01*
X-15879Y10583D01*
X-15882Y10581D01*
X-15886Y10577D01*
X-15891Y10573D01*
X-15897Y10568D01*
X-15904Y10563D01*
X-15913Y10558D01*
X-15921Y10552D01*
X-15931Y10545D01*
X-15952Y10534D01*
X-15976Y10522D01*
X-16002Y10512D01*
Y10600D01*
X-16001D01*
X-16000Y10601D01*
X-15998Y10601D01*
X-15995Y10602D01*
X-15987Y10605D01*
X-15977Y10611D01*
X-15965Y10617D01*
X-15951Y10625D01*
X-15936Y10634D01*
X-15919Y10647D01*
X-15919Y10648D01*
X-15917Y10648D01*
X-15915Y10651D01*
X-15913Y10653D01*
X-15905Y10660D01*
X-15895Y10670D01*
X-15885Y10681D01*
X-15875Y10695D01*
X-15866Y10710D01*
X-15859Y10727D01*
X-15780D01*
Y10221D01*
D02*
G37*
%LPC*%
G36*
X-18408Y10521D02*
X-18413D01*
X-18419Y10519D01*
X-18426Y10518D01*
X-18435Y10515D01*
X-18443Y10511D01*
X-18452Y10505D01*
X-18460Y10497D01*
X-18461Y10496D01*
X-18463Y10493D01*
X-18466Y10488D01*
X-18470Y10481D01*
X-18474Y10472D01*
X-18477Y10461D01*
X-18479Y10449D01*
X-18480Y10435D01*
X-18336D01*
Y10436D01*
Y10436D01*
Y10439D01*
X-18336Y10442D01*
X-18337Y10449D01*
X-18339Y10459D01*
X-18342Y10469D01*
X-18346Y10479D01*
X-18351Y10489D01*
X-18358Y10499D01*
X-18359Y10499D01*
X-18362Y10502D01*
X-18366Y10505D01*
X-18372Y10510D01*
X-18379Y10514D01*
X-18387Y10518D01*
X-18397Y10520D01*
X-18408Y10521D01*
D02*
G37*
G36*
X-22868D02*
X-22874D01*
X-22879Y10519D01*
X-22887Y10518D01*
X-22895Y10515D01*
X-22904Y10511D01*
X-22912Y10505D01*
X-22921Y10497D01*
X-22921Y10496D01*
X-22924Y10493D01*
X-22927Y10488D01*
X-22931Y10481D01*
X-22934Y10472D01*
X-22937Y10461D01*
X-22940Y10449D01*
X-22940Y10435D01*
X-22796D01*
Y10436D01*
Y10436D01*
Y10439D01*
X-22797Y10442D01*
X-22798Y10449D01*
X-22799Y10459D01*
X-22802Y10469D01*
X-22806Y10479D01*
X-22811Y10489D01*
X-22818Y10499D01*
X-22819Y10499D01*
X-22822Y10502D01*
X-22826Y10505D01*
X-22832Y10510D01*
X-22839Y10514D01*
X-22848Y10518D01*
X-22858Y10520D01*
X-22868Y10521D01*
D02*
G37*
G36*
X-18889Y9782D02*
X-18889D01*
X-18892Y9780D01*
X-18897Y9779D01*
X-18903Y9777D01*
X-18912Y9775D01*
X-18922Y9772D01*
X-18934Y9769D01*
X-18948Y9766D01*
X-18949D01*
X-18954Y9765D01*
X-18961Y9763D01*
X-18969Y9761D01*
X-18978Y9759D01*
X-18987Y9756D01*
X-18994Y9752D01*
X-19000Y9749D01*
X-19001Y9749D01*
X-19003Y9747D01*
X-19006Y9744D01*
X-19009Y9740D01*
X-19012Y9736D01*
X-19015Y9729D01*
X-19018Y9723D01*
X-19018Y9716D01*
Y9715D01*
Y9713D01*
X-19018Y9708D01*
X-19017Y9703D01*
X-19014Y9698D01*
X-19012Y9692D01*
X-19008Y9686D01*
X-19004Y9680D01*
X-19003Y9680D01*
X-19001Y9678D01*
X-18998Y9676D01*
X-18993Y9673D01*
X-18988Y9670D01*
X-18981Y9668D01*
X-18974Y9666D01*
X-18965Y9666D01*
X-18961D01*
X-18956Y9666D01*
X-18949Y9668D01*
X-18942Y9670D01*
X-18933Y9673D01*
X-18925Y9677D01*
X-18915Y9683D01*
X-18915Y9683D01*
X-18912Y9685D01*
X-18910Y9688D01*
X-18906Y9692D01*
X-18902Y9696D01*
X-18899Y9702D01*
X-18895Y9708D01*
X-18892Y9715D01*
Y9716D01*
X-18892Y9717D01*
X-18891Y9720D01*
X-18890Y9726D01*
Y9732D01*
X-18889Y9740D01*
X-18889Y9749D01*
Y9762D01*
Y9782D01*
D02*
G37*
G36*
X-17124Y9901D02*
X-17125D01*
X-17130Y9900D01*
X-17137Y9899D01*
X-17146Y9897D01*
X-17156Y9894D01*
X-17166Y9888D01*
X-17177Y9882D01*
X-17187Y9872D01*
X-17187Y9870D01*
X-17190Y9866D01*
X-17194Y9859D01*
X-17199Y9850D01*
X-17204Y9839D01*
X-17208Y9824D01*
X-17211Y9808D01*
X-17212Y9789D01*
Y9788D01*
Y9786D01*
Y9783D01*
X-17211Y9779D01*
Y9775D01*
X-17210Y9770D01*
X-17209Y9758D01*
X-17206Y9744D01*
X-17201Y9730D01*
X-17195Y9717D01*
X-17187Y9705D01*
X-17185Y9703D01*
X-17182Y9700D01*
X-17177Y9696D01*
X-17169Y9691D01*
X-17160Y9686D01*
X-17149Y9681D01*
X-17137Y9678D01*
X-17124Y9676D01*
X-17122D01*
X-17118Y9677D01*
X-17111Y9678D01*
X-17101Y9680D01*
X-17091Y9683D01*
X-17081Y9689D01*
X-17071Y9696D01*
X-17061Y9705D01*
X-17060Y9706D01*
X-17057Y9710D01*
X-17052Y9717D01*
X-17048Y9726D01*
X-17043Y9738D01*
X-17038Y9752D01*
X-17035Y9769D01*
X-17035Y9789D01*
Y9789D01*
Y9791D01*
Y9794D01*
Y9798D01*
X-17035Y9802D01*
X-17036Y9807D01*
X-17038Y9819D01*
X-17041Y9832D01*
X-17045Y9846D01*
X-17052Y9859D01*
X-17061Y9872D01*
X-17061Y9873D01*
X-17065Y9876D01*
X-17071Y9881D01*
X-17078Y9886D01*
X-17087Y9891D01*
X-17098Y9896D01*
X-17110Y9899D01*
X-17124Y9901D01*
D02*
G37*
G36*
X-20511Y9906D02*
X-20516D01*
X-20521Y9905D01*
X-20529Y9903D01*
X-20537Y9900D01*
X-20546Y9896D01*
X-20554Y9890D01*
X-20563Y9882D01*
X-20564Y9882D01*
X-20566Y9878D01*
X-20569Y9873D01*
X-20573Y9866D01*
X-20577Y9857D01*
X-20580Y9846D01*
X-20582Y9834D01*
X-20583Y9820D01*
X-20438D01*
Y9821D01*
Y9822D01*
Y9824D01*
X-20439Y9827D01*
X-20440Y9835D01*
X-20441Y9844D01*
X-20445Y9854D01*
X-20448Y9865D01*
X-20454Y9875D01*
X-20461Y9884D01*
X-20461Y9885D01*
X-20464Y9888D01*
X-20468Y9891D01*
X-20474Y9895D01*
X-20481Y9899D01*
X-20490Y9903D01*
X-20500Y9905D01*
X-20511Y9906D01*
D02*
G37*
G36*
X-17038Y10521D02*
X-17043D01*
X-17048Y10519D01*
X-17056Y10518D01*
X-17065Y10515D01*
X-17073Y10511D01*
X-17081Y10505D01*
X-17090Y10497D01*
X-17091Y10496D01*
X-17093Y10493D01*
X-17096Y10488D01*
X-17100Y10481D01*
X-17104Y10472D01*
X-17107Y10461D01*
X-17109Y10449D01*
X-17110Y10435D01*
X-16965D01*
Y10436D01*
Y10436D01*
Y10439D01*
X-16966Y10442D01*
X-16967Y10449D01*
X-16969Y10459D01*
X-16972Y10469D01*
X-16975Y10479D01*
X-16981Y10489D01*
X-16988Y10499D01*
X-16989Y10499D01*
X-16992Y10502D01*
X-16995Y10505D01*
X-17002Y10510D01*
X-17008Y10514D01*
X-17017Y10518D01*
X-17027Y10520D01*
X-17038Y10521D01*
D02*
G37*
G36*
X-17472Y10641D02*
X-17588D01*
Y10512D01*
X-17489D01*
X-17475Y10513D01*
X-17459Y10514D01*
X-17445Y10515D01*
X-17438Y10515D01*
X-17432Y10516D01*
X-17427Y10518D01*
X-17423Y10518D01*
X-17422D01*
X-17420Y10520D01*
X-17417Y10522D01*
X-17412Y10523D01*
X-17403Y10530D01*
X-17399Y10534D01*
X-17395Y10539D01*
X-17394Y10540D01*
X-17393Y10542D01*
X-17392Y10545D01*
X-17389Y10550D01*
X-17387Y10555D01*
X-17386Y10562D01*
X-17385Y10569D01*
X-17384Y10578D01*
Y10578D01*
Y10582D01*
X-17385Y10587D01*
X-17386Y10592D01*
X-17387Y10598D01*
X-17390Y10605D01*
X-17393Y10612D01*
X-17398Y10618D01*
X-17399Y10619D01*
X-17400Y10621D01*
X-17403Y10624D01*
X-17408Y10627D01*
X-17413Y10631D01*
X-17419Y10634D01*
X-17427Y10636D01*
X-17435Y10638D01*
X-17436D01*
X-17439Y10639D01*
X-17442D01*
X-17449Y10640D01*
X-17465D01*
X-17472Y10641D01*
D02*
G37*
G36*
X-21246Y10396D02*
X-21247D01*
X-21250Y10395D01*
X-21255Y10394D01*
X-21261Y10392D01*
X-21269Y10389D01*
X-21279Y10387D01*
X-21292Y10384D01*
X-21305Y10381D01*
X-21307D01*
X-21312Y10379D01*
X-21318Y10378D01*
X-21327Y10376D01*
X-21335Y10373D01*
X-21345Y10370D01*
X-21351Y10367D01*
X-21358Y10364D01*
X-21358Y10363D01*
X-21361Y10362D01*
X-21364Y10359D01*
X-21367Y10355D01*
X-21370Y10350D01*
X-21373Y10344D01*
X-21375Y10338D01*
X-21376Y10330D01*
Y10330D01*
Y10327D01*
X-21375Y10323D01*
X-21375Y10318D01*
X-21372Y10313D01*
X-21370Y10307D01*
X-21366Y10300D01*
X-21361Y10295D01*
X-21361Y10294D01*
X-21358Y10293D01*
X-21355Y10290D01*
X-21351Y10288D01*
X-21345Y10285D01*
X-21338Y10283D01*
X-21332Y10281D01*
X-21323Y10280D01*
X-21318D01*
X-21314Y10281D01*
X-21307Y10283D01*
X-21299Y10284D01*
X-21291Y10287D01*
X-21282Y10292D01*
X-21273Y10297D01*
X-21272Y10298D01*
X-21270Y10300D01*
X-21268Y10303D01*
X-21264Y10307D01*
X-21260Y10311D01*
X-21256Y10317D01*
X-21253Y10323D01*
X-21250Y10330D01*
Y10330D01*
X-21249Y10332D01*
X-21249Y10335D01*
X-21248Y10340D01*
Y10346D01*
X-21247Y10355D01*
X-21246Y10364D01*
Y10376D01*
Y10396D01*
D02*
G37*
%LPD*%
D19*
X-21634Y26783D02*
G03*
X-21634Y26783I-59J0D01*
G01*
D40*
X-30394Y27667D02*
G03*
X-28248Y27667I1073J-1970D01*
G01*
X-11102D02*
G03*
X-8957Y27667I1073J-1970D01*
G01*
X-3081Y11391D02*
G03*
X-4010Y12303I-965J-53D01*
G01*
X-4009Y10458D02*
G03*
X-3081Y11391I-42J970D01*
G01*
X-6593Y12305D02*
G03*
X-7521Y11372I42J-970D01*
G01*
D02*
G03*
X-6592Y10459I965J53D01*
G01*
X-35404Y30699D02*
Y45492D01*
Y30699D02*
X-5630D01*
Y45492D01*
X-35404D02*
X-5630D01*
X-30394Y27667D02*
X-28248D01*
X-11102D02*
X-8957D01*
X-34119Y9283D02*
Y11723D01*
X-36569D02*
X-34119D01*
X-36569Y9283D02*
X-34119D01*
X-36569D02*
Y11723D01*
X-6592Y10460D02*
X-4009Y10458D01*
X-6593Y12305D02*
X-4010D01*
X-36720Y8372D02*
Y8971D01*
X-36420D01*
X-36320Y8871D01*
Y8672D01*
X-36420Y8572D01*
X-36720D01*
X-36520D02*
X-36320Y8372D01*
X-35720Y8971D02*
X-36120D01*
Y8372D01*
X-35720D01*
X-36120Y8672D02*
X-35920D01*
X-35121Y8871D02*
X-35221Y8971D01*
X-35420D01*
X-35520Y8871D01*
Y8772D01*
X-35420Y8672D01*
X-35221D01*
X-35121Y8572D01*
Y8472D01*
X-35221Y8372D01*
X-35420D01*
X-35520Y8472D01*
X-34521Y8971D02*
X-34921D01*
Y8372D01*
X-34521D01*
X-34921Y8672D02*
X-34721D01*
X-34321Y8971D02*
X-33921D01*
X-34121D01*
Y8372D01*
D65*
X-36640Y11943D02*
G03*
X-36640Y11943I-49J0D01*
G01*
D66*
X-4750Y15285D02*
G03*
X-4750Y15285I-39J0D01*
G01*
D67*
X-19850Y19730D02*
X-19340D01*
X-19980Y19720D02*
X-19200D01*
X-20090Y19710D02*
X-19090D01*
X-20180Y19700D02*
X-19010D01*
X-20250Y19690D02*
X-18930D01*
X-20310Y19680D02*
X-18870D01*
X-20340Y19670D02*
X-18840D01*
X-20400Y19660D02*
X-18780D01*
X-20450Y19650D02*
X-18730D01*
X-20500Y19640D02*
X-18680D01*
X-20550Y19630D02*
X-18630D01*
X-20600Y19620D02*
X-18580D01*
X-20620Y19610D02*
X-18560D01*
X-20660Y19600D02*
X-18520D01*
X-20700Y19590D02*
X-18480D01*
X-20740Y19580D02*
X-18440D01*
X-20770Y19570D02*
X-18410D01*
X-20810Y19560D02*
X-18370D01*
X-20830Y19550D02*
X-18350D01*
X-20860Y19540D02*
X-18320D01*
X-20900Y19530D02*
X-18280D01*
X-20930Y19520D02*
X-18250D01*
X-20970Y19510D02*
X-18220D01*
X-20990Y19500D02*
X-18190D01*
X-21010Y19490D02*
X-18170D01*
X-21040Y19480D02*
X-18140D01*
X-21070Y19470D02*
X-18110D01*
X-21100Y19460D02*
X-18090D01*
X-21120Y19450D02*
X-18060D01*
X-21150Y19440D02*
X-18030D01*
X-21170Y19430D02*
X-18020D01*
X-21190Y19420D02*
X-17990D01*
X-21220Y19410D02*
X-17960D01*
X-21240Y19400D02*
X-17940D01*
X-21270Y19390D02*
X-17910D01*
X-21290Y19380D02*
X-17890D01*
X-21300Y19370D02*
X-17880D01*
X-21330Y19360D02*
X-17850D01*
X-21350Y19350D02*
X-17830D01*
X-21370Y19340D02*
X-17810D01*
X-21400Y19330D02*
X-17780D01*
X-21420Y19320D02*
X-17760D01*
X-21430Y19310D02*
X-17750D01*
X-21460Y19300D02*
X-17730D01*
X-21470Y19290D02*
X-17710D01*
X-21490Y19280D02*
X-17690D01*
X-21520Y19270D02*
X-17660D01*
X-21540Y19260D02*
X-17640D01*
X-21550Y19250D02*
X-17640D01*
X-21560Y19240D02*
X-17620D01*
X-21590Y19230D02*
X-17590D01*
X-21610Y19220D02*
X-17570D01*
X-21630Y19210D02*
X-17560D01*
X-21650Y19200D02*
X-17530D01*
X-21660Y19190D02*
X-17520D01*
X-21670Y19180D02*
X-17510D01*
X-21700Y19170D02*
X-17480D01*
X-21710Y19160D02*
X-17470D01*
X-21730Y19150D02*
X-17450D01*
X-21750Y19140D02*
X-17430D01*
X-21760Y19130D02*
X-17420D01*
X-21780Y19120D02*
X-17410D01*
X-21790Y19110D02*
X-17390D01*
X-21810Y19100D02*
X-17370D01*
X-21830Y19090D02*
X-17350D01*
X-21840Y19080D02*
X-17340D01*
X-21850Y19070D02*
X-17330D01*
X-21870Y19060D02*
X-17310D01*
X-21890Y19050D02*
X-17290D01*
X-21900Y19040D02*
X-17280D01*
X-21920Y19030D02*
X-17260D01*
X-21940Y19020D02*
X-17240D01*
X-21950Y19010D02*
X-17240D01*
X-21960Y19000D02*
X-17220D01*
X-21970Y18990D02*
X-17210D01*
X-21990Y18980D02*
X-17190D01*
X-22010Y18970D02*
X-17170D01*
X-22020Y18960D02*
X-17160D01*
X-22030Y18950D02*
X-17150D01*
X-22040Y18940D02*
X-17140D01*
X-22060Y18930D02*
X-17120D01*
X-22070Y18920D02*
X-17110D01*
X-22090Y18910D02*
X-17090D01*
X-22100Y18900D02*
X-17080D01*
X-22110Y18890D02*
X-17070D01*
X-22120Y18880D02*
X-17060D01*
X-22140Y18870D02*
X-17040D01*
X-22150Y18860D02*
X-17030D01*
X-22160Y18850D02*
X-17020D01*
X-22180Y18840D02*
X-17000D01*
X-22190Y18830D02*
X-16990D01*
X-22200Y18820D02*
X-16980D01*
X-22210Y18810D02*
X-16970D01*
X-22220Y18800D02*
X-16960D01*
X-22240Y18790D02*
X-16940D01*
X-22250Y18780D02*
X-16930D01*
X-22260Y18770D02*
X-16920D01*
X-22270Y18760D02*
X-16910D01*
X-22280Y18750D02*
X-16900D01*
X-22300Y18740D02*
X-16890D01*
X-22310Y18730D02*
X-16870D01*
X-22320Y18720D02*
X-16860D01*
X-22330Y18710D02*
X-16850D01*
X-22340Y18700D02*
X-16840D01*
X-22350Y18690D02*
X-16830D01*
X-22370Y18680D02*
X-16810D01*
X-22380Y18670D02*
X-16800D01*
X-22390Y18660D02*
X-16790D01*
X-22400Y18650D02*
X-16780D01*
X-22410Y18640D02*
X-16770D01*
X-22420Y18630D02*
X-16760D01*
X-22430Y18620D02*
X-16750D01*
X-22450Y18610D02*
X-16740D01*
X-22450Y18600D02*
X-16730D01*
X-22460Y18590D02*
X-16720D01*
X-22470Y18580D02*
X-16710D01*
X-22490Y18570D02*
X-16700D01*
X-22500Y18560D02*
X-16690D01*
X-22510Y18550D02*
X-16670D01*
X-22520Y18540D02*
X-16660D01*
X-22520Y18530D02*
X-16660D01*
X-22530Y18520D02*
X-16650D01*
X-22550Y18510D02*
X-16630D01*
X-22560Y18500D02*
X-16620D01*
X-22570Y18490D02*
X-16610D01*
X-22580Y18480D02*
X-16610D01*
X-22580Y18470D02*
X-16600D01*
X-22590Y18460D02*
X-16590D01*
X-22610Y18450D02*
X-16580D01*
X-22610Y18440D02*
X-16570D01*
X-22630Y18430D02*
X-21060D01*
X-20880D02*
X-18770D01*
X-18580D02*
X-16560D01*
X-22630Y18420D02*
X-21130D01*
X-20810D02*
X-18840D01*
X-18510D02*
X-16550D01*
X-22640Y18410D02*
X-21160D01*
X-20790D02*
X-18860D01*
X-18490D02*
X-16540D01*
X-22650Y18400D02*
X-21190D01*
X-20740D02*
X-18910D01*
X-18450D02*
X-16530D01*
X-22660Y18390D02*
X-21230D01*
X-20710D02*
X-18940D01*
X-18420D02*
X-16520D01*
X-22670Y18380D02*
X-21260D01*
X-20680D02*
X-18970D01*
X-18380D02*
X-16510D01*
X-22680Y18370D02*
X-21280D01*
X-20660D02*
X-18990D01*
X-18360D02*
X-16500D01*
X-22690Y18360D02*
X-21310D01*
X-20630D02*
X-19020D01*
X-18340D02*
X-16490D01*
X-22690Y18350D02*
X-21320D01*
X-20620D02*
X-19030D01*
X-18330D02*
X-16490D01*
X-22700Y18340D02*
X-21340D01*
X-20600D02*
X-19050D01*
X-18300D02*
X-16480D01*
X-22710Y18330D02*
X-21360D01*
X-20580D02*
X-19060D01*
X-18290D02*
X-16470D01*
X-22720Y18320D02*
X-21380D01*
X-20560D02*
X-19090D01*
X-18260D02*
X-16460D01*
X-22730Y18310D02*
X-21400D01*
X-20550D02*
X-19100D01*
X-18250D02*
X-16450D01*
X-22740Y18300D02*
X-21410D01*
X-20520D02*
X-19120D01*
X-18230D02*
X-16440D01*
X-22750Y18290D02*
X-21430D01*
X-20510D02*
X-19140D01*
X-18220D02*
X-16430D01*
X-22760Y18280D02*
X-21430D01*
X-20500D02*
X-19150D01*
X-18210D02*
X-16430D01*
X-22770Y18270D02*
X-21450D01*
X-20490D02*
X-19160D01*
X-18190D02*
X-16420D01*
X-22770Y18260D02*
X-21470D01*
X-20480D02*
X-19170D01*
X-18180D02*
X-16410D01*
X-22790Y18250D02*
X-21480D01*
X-20460D02*
X-19180D01*
X-18170D02*
X-16400D01*
X-22790Y18240D02*
X-21490D01*
X-20450D02*
X-19200D01*
X-18150D02*
X-16390D01*
X-22800Y18230D02*
X-21500D01*
X-20440D02*
X-19210D01*
X-18140D02*
X-16380D01*
X-22810Y18220D02*
X-21510D01*
X-20430D02*
X-19210D01*
X-18140D02*
X-16370D01*
X-22810Y18210D02*
X-21520D01*
X-20420D02*
X-19220D01*
X-18130D02*
X-16370D01*
X-22820Y18200D02*
X-21530D01*
X-20410D02*
X-19240D01*
X-18120D02*
X-16360D01*
X-22830Y18190D02*
X-21540D01*
X-20400D02*
X-19240D01*
X-18110D02*
X-16350D01*
X-22840Y18180D02*
X-21550D01*
X-20390D02*
X-19250D01*
X-18090D02*
X-16340D01*
X-22850Y18170D02*
X-21560D01*
X-20380D02*
X-19270D01*
X-18080D02*
X-16330D01*
X-22860Y18160D02*
X-21560D01*
X-20370D02*
X-19270D01*
X-18080D02*
X-16330D01*
X-22870Y18150D02*
X-21580D01*
X-20370D02*
X-19280D01*
X-18070D02*
X-16320D01*
X-22870Y18140D02*
X-21590D01*
X-20360D02*
X-19290D01*
X-18060D02*
X-16310D01*
X-22880Y18130D02*
X-21590D01*
X-20350D02*
X-19300D01*
X-18050D02*
X-16300D01*
X-22890Y18120D02*
X-21600D01*
X-20340D02*
X-19310D01*
X-18050D02*
X-16290D01*
X-22890Y18110D02*
X-21610D01*
X-20330D02*
X-19310D01*
X-18030D02*
X-16280D01*
X-22900Y18100D02*
X-21610D01*
X-20330D02*
X-19320D01*
X-18030D02*
X-16280D01*
X-22910Y18090D02*
X-21620D01*
X-20320D02*
X-19330D01*
X-18030D02*
X-16270D01*
X-22920Y18080D02*
X-21630D01*
X-20310D02*
X-19330D01*
X-18020D02*
X-16260D01*
X-22930Y18070D02*
X-21640D01*
X-20310D02*
X-19340D01*
X-18010D02*
X-16250D01*
X-22940Y18060D02*
X-21640D01*
X-20300D02*
X-19350D01*
X-18000D02*
X-16250D01*
X-22940Y18050D02*
X-21650D01*
X-20290D02*
X-19350D01*
X-18000D02*
X-16240D01*
X-22940Y18040D02*
X-21650D01*
X-20290D02*
X-19360D01*
X-18000D02*
X-16240D01*
X-22950Y18030D02*
X-21660D01*
X-20280D02*
X-19360D01*
X-17990D02*
X-16230D01*
X-22960Y18020D02*
X-21660D01*
X-20280D02*
X-19370D01*
X-17980D02*
X-16210D01*
X-22970Y18010D02*
X-21670D01*
X-20270D02*
X-19370D01*
X-17970D02*
X-16210D01*
X-22980Y18000D02*
X-21670D01*
X-21040D02*
X-20910D01*
X-20260D02*
X-19380D01*
X-18740D02*
X-18610D01*
X-17970D02*
X-16200D01*
X-22990Y17990D02*
X-21680D01*
X-21090D02*
X-20860D01*
X-20260D02*
X-19390D01*
X-18790D02*
X-18560D01*
X-17970D02*
X-16190D01*
X-22990Y17980D02*
X-21680D01*
X-21100D02*
X-20850D01*
X-20260D02*
X-19390D01*
X-18800D02*
X-18550D01*
X-17960D02*
X-16190D01*
X-23000Y17970D02*
X-21680D01*
X-21120D02*
X-20820D01*
X-20250D02*
X-19400D01*
X-18830D02*
X-18520D01*
X-17960D02*
X-16180D01*
X-23000Y17960D02*
X-21690D01*
X-21150D02*
X-20800D01*
X-20250D02*
X-19400D01*
X-18850D02*
X-18500D01*
X-17950D02*
X-16180D01*
X-23010Y17950D02*
X-21700D01*
X-21160D02*
X-20780D01*
X-20250D02*
X-19400D01*
X-18870D02*
X-18480D01*
X-17950D02*
X-16170D01*
X-23020Y17940D02*
X-21700D01*
X-21180D02*
X-20760D01*
X-20240D02*
X-19410D01*
X-18880D02*
X-18460D01*
X-17940D02*
X-16160D01*
X-23030Y17930D02*
X-21710D01*
X-21190D02*
X-20750D01*
X-20240D02*
X-19410D01*
X-18900D02*
X-18450D01*
X-17940D02*
X-16160D01*
X-23030Y17920D02*
X-21710D01*
X-21200D02*
X-20740D01*
X-20230D02*
X-19410D01*
X-18910D02*
X-18440D01*
X-17940D02*
X-16150D01*
X-23040Y17910D02*
X-21710D01*
X-21210D02*
X-20730D01*
X-20230D02*
X-19420D01*
X-18920D02*
X-18430D01*
X-17940D02*
X-16140D01*
X-23050Y17900D02*
X-21720D01*
X-21220D02*
X-20720D01*
X-20220D02*
X-19420D01*
X-18930D02*
X-18420D01*
X-17930D02*
X-16130D01*
X-23050Y17890D02*
X-21720D01*
X-21230D02*
X-20700D01*
X-20220D02*
X-19420D01*
X-18940D02*
X-18410D01*
X-17930D02*
X-16130D01*
X-23060Y17880D02*
X-21720D01*
X-21240D02*
X-20700D01*
X-20220D02*
X-19430D01*
X-18960D02*
X-18400D01*
X-17930D02*
X-16120D01*
X-23070Y17870D02*
X-21720D01*
X-21250D02*
X-20690D01*
X-20210D02*
X-19430D01*
X-18960D02*
X-18390D01*
X-17920D02*
X-16110D01*
X-23070Y17860D02*
X-21730D01*
X-21260D02*
X-20680D01*
X-20210D02*
X-19430D01*
X-18970D02*
X-18390D01*
X-17920D02*
X-16110D01*
X-23080Y17850D02*
X-21730D01*
X-21270D02*
X-20680D01*
X-20210D02*
X-19430D01*
X-18970D02*
X-18380D01*
X-17910D02*
X-16100D01*
X-23080Y17840D02*
X-21730D01*
X-21270D02*
X-20670D01*
X-20210D02*
X-19440D01*
X-18980D02*
X-18370D01*
X-17910D02*
X-16100D01*
X-23090Y17830D02*
X-21730D01*
X-21280D02*
X-20660D01*
X-20200D02*
X-19440D01*
X-18990D02*
X-18360D01*
X-17910D02*
X-16090D01*
X-23100Y17820D02*
X-21740D01*
X-21280D02*
X-20660D01*
X-20200D02*
X-19450D01*
X-18990D02*
X-18360D01*
X-17910D02*
X-16080D01*
X-23110Y17810D02*
X-21740D01*
X-21290D02*
X-20650D01*
X-20200D02*
X-19450D01*
X-19000D02*
X-18350D01*
X-17900D02*
X-16070D01*
X-23110Y17800D02*
X-21740D01*
X-21290D02*
X-20650D01*
X-20200D02*
X-19450D01*
X-19000D02*
X-18350D01*
X-17900D02*
X-16070D01*
X-23120Y17790D02*
X-21740D01*
X-21300D02*
X-20640D01*
X-20200D02*
X-19450D01*
X-19010D02*
X-18350D01*
X-17900D02*
X-16060D01*
X-23120Y17780D02*
X-21740D01*
X-21300D02*
X-20640D01*
X-20190D02*
X-19450D01*
X-19010D02*
X-18340D01*
X-17900D02*
X-16060D01*
X-23130Y17770D02*
X-21740D01*
X-21310D02*
X-20630D01*
X-20190D02*
X-19450D01*
X-19020D02*
X-18330D01*
X-17900D02*
X-16050D01*
X-23140Y17760D02*
X-21750D01*
X-21310D02*
X-20630D01*
X-20190D02*
X-19460D01*
X-19020D02*
X-18330D01*
X-17900D02*
X-16050D01*
X-23140Y17750D02*
X-21750D01*
X-21310D02*
X-20630D01*
X-20190D02*
X-19460D01*
X-19020D02*
X-18330D01*
X-17890D02*
X-16040D01*
X-23140Y17740D02*
X-21750D01*
X-21310D02*
X-20630D01*
X-20190D02*
X-19460D01*
X-19020D02*
X-18330D01*
X-17890D02*
X-16040D01*
X-23160Y17730D02*
X-21750D01*
X-21320D02*
X-20620D01*
X-20190D02*
X-19460D01*
X-19030D02*
X-18320D01*
X-17890D02*
X-16020D01*
X-23160Y17720D02*
X-21760D01*
X-21320D02*
X-20620D01*
X-20190D02*
X-19460D01*
X-19030D02*
X-18320D01*
X-17890D02*
X-16020D01*
X-23170Y17710D02*
X-21760D01*
X-21330D02*
X-20620D01*
X-20190D02*
X-19460D01*
X-19030D02*
X-18320D01*
X-17890D02*
X-16010D01*
X-23180Y17700D02*
X-21760D01*
X-21330D02*
X-20620D01*
X-20190D02*
X-19460D01*
X-19030D02*
X-18320D01*
X-17890D02*
X-16010D01*
X-23180Y17690D02*
X-21760D01*
X-21330D02*
X-20620D01*
X-20190D02*
X-19460D01*
X-19030D02*
X-18320D01*
X-17890D02*
X-16000D01*
X-23180Y17680D02*
X-21760D01*
X-21330D02*
X-20620D01*
X-20190D02*
X-19460D01*
X-19030D02*
X-18320D01*
X-17890D02*
X-16000D01*
X-23190Y17670D02*
X-21760D01*
X-21330D02*
X-20610D01*
X-20190D02*
X-19460D01*
X-19030D02*
X-18320D01*
X-17890D02*
X-15990D01*
X-23200Y17660D02*
X-21760D01*
X-21330D02*
X-20610D01*
X-20180D02*
X-19460D01*
X-19030D02*
X-18320D01*
X-17890D02*
X-15990D01*
X-23200Y17650D02*
X-21760D01*
X-21330D02*
X-20610D01*
X-20180D02*
X-19460D01*
X-19030D02*
X-18320D01*
X-17890D02*
X-15980D01*
X-23210Y17640D02*
X-21760D01*
X-21330D02*
X-20610D01*
X-20180D02*
X-19460D01*
X-19030D02*
X-18320D01*
X-17890D02*
X-15970D01*
X-23220Y17630D02*
X-21760D01*
X-21330D02*
X-20610D01*
X-20180D02*
X-19460D01*
X-19030D02*
X-18320D01*
X-17890D02*
X-15960D01*
X-23220Y17620D02*
X-21760D01*
X-21330D02*
X-20610D01*
X-20190D02*
X-19460D01*
X-19030D02*
X-18320D01*
X-17890D02*
X-15960D01*
X-23230Y17610D02*
X-21760D01*
X-21330D02*
X-20620D01*
X-20190D02*
X-19460D01*
X-19030D02*
X-18320D01*
X-17890D02*
X-15960D01*
X-23230Y17600D02*
X-21760D01*
X-21330D02*
X-20620D01*
X-20190D02*
X-19460D01*
X-19030D02*
X-18320D01*
X-17890D02*
X-15950D01*
X-23240Y17590D02*
X-21760D01*
X-21330D02*
X-20620D01*
X-20190D02*
X-19460D01*
X-19030D02*
X-18320D01*
X-17890D02*
X-15940D01*
X-23240Y17580D02*
X-21760D01*
X-21320D02*
X-20620D01*
X-20190D02*
X-19460D01*
X-19020D02*
X-18330D01*
X-17890D02*
X-15940D01*
X-23250Y17570D02*
X-21760D01*
X-21320D02*
X-20620D01*
X-20190D02*
X-19460D01*
X-19020D02*
X-18330D01*
X-17890D02*
X-15930D01*
X-23250Y17560D02*
X-21750D01*
X-21320D02*
X-20620D01*
X-20190D02*
X-19460D01*
X-19020D02*
X-18330D01*
X-17890D02*
X-15930D01*
X-23260Y17550D02*
X-21750D01*
X-21310D02*
X-20630D01*
X-20190D02*
X-19460D01*
X-19020D02*
X-18330D01*
X-17890D02*
X-15920D01*
X-23260Y17540D02*
X-21750D01*
X-21310D02*
X-20630D01*
X-20190D02*
X-19460D01*
X-19010D02*
X-18340D01*
X-17900D02*
X-15920D01*
X-23270Y17530D02*
X-21750D01*
X-21310D02*
X-20630D01*
X-20190D02*
X-19460D01*
X-19010D02*
X-18350D01*
X-17900D02*
X-15910D01*
X-23280Y17520D02*
X-21740D01*
X-21300D02*
X-20640D01*
X-20190D02*
X-19450D01*
X-19000D02*
X-18350D01*
X-17900D02*
X-15900D01*
X-23280Y17510D02*
X-21740D01*
X-21300D02*
X-20640D01*
X-20200D02*
X-19450D01*
X-19000D02*
X-18360D01*
X-17900D02*
X-15900D01*
X-23280Y17500D02*
X-21740D01*
X-21300D02*
X-20640D01*
X-20200D02*
X-19450D01*
X-18990D02*
X-18360D01*
X-17900D02*
X-15900D01*
X-23290Y17490D02*
X-21740D01*
X-21290D02*
X-20650D01*
X-20200D02*
X-19450D01*
X-18990D02*
X-18360D01*
X-17900D02*
X-15890D01*
X-23300Y17480D02*
X-21740D01*
X-21290D02*
X-20660D01*
X-20200D02*
X-19450D01*
X-18980D02*
X-18370D01*
X-17900D02*
X-15890D01*
X-23300Y17470D02*
X-21740D01*
X-21280D02*
X-20660D01*
X-20200D02*
X-19440D01*
X-18970D02*
X-18380D01*
X-17910D02*
X-15880D01*
X-23310Y17460D02*
X-21730D01*
X-21280D02*
X-20670D01*
X-20200D02*
X-19440D01*
X-18970D02*
X-18380D01*
X-17910D02*
X-15880D01*
X-23310Y17450D02*
X-21730D01*
X-21270D02*
X-20670D01*
X-20210D02*
X-19440D01*
X-18960D02*
X-18390D01*
X-17910D02*
X-15870D01*
X-23310Y17440D02*
X-21730D01*
X-21260D02*
X-20680D01*
X-20210D02*
X-19430D01*
X-18960D02*
X-18400D01*
X-17910D02*
X-15870D01*
X-23320Y17430D02*
X-21730D01*
X-21250D02*
X-20680D01*
X-20210D02*
X-19430D01*
X-18940D02*
X-18410D01*
X-17920D02*
X-15860D01*
X-23320Y17420D02*
X-21720D01*
X-21250D02*
X-20690D01*
X-20220D02*
X-19430D01*
X-18930D02*
X-18420D01*
X-17920D02*
X-15860D01*
X-23330Y17410D02*
X-21720D01*
X-21240D02*
X-20700D01*
X-20220D02*
X-19420D01*
X-18920D02*
X-18430D01*
X-17930D02*
X-15850D01*
X-23340Y17400D02*
X-21720D01*
X-21230D02*
X-20720D01*
X-20220D02*
X-19420D01*
X-18910D02*
X-18440D01*
X-17930D02*
X-15840D01*
X-23340Y17390D02*
X-21710D01*
X-21220D02*
X-20720D01*
X-20230D02*
X-19420D01*
X-18900D02*
X-18450D01*
X-17930D02*
X-15840D01*
X-23340Y17380D02*
X-21710D01*
X-21210D02*
X-20730D01*
X-20230D02*
X-19420D01*
X-18890D02*
X-18460D01*
X-17940D02*
X-15840D01*
X-23350Y17370D02*
X-21710D01*
X-21200D02*
X-20740D01*
X-20230D02*
X-19410D01*
X-18870D02*
X-18480D01*
X-17940D02*
X-15830D01*
X-23360Y17360D02*
X-21710D01*
X-21180D02*
X-20760D01*
X-20240D02*
X-19410D01*
X-18860D02*
X-18500D01*
X-17940D02*
X-15830D01*
X-23360Y17350D02*
X-21700D01*
X-21170D02*
X-20770D01*
X-20240D02*
X-19400D01*
X-18840D02*
X-18520D01*
X-17950D02*
X-15820D01*
X-23360Y17340D02*
X-21700D01*
X-21150D02*
X-20790D01*
X-20250D02*
X-19400D01*
X-18810D02*
X-18550D01*
X-17950D02*
X-15820D01*
X-23370Y17330D02*
X-21690D01*
X-21130D02*
X-20810D01*
X-20250D02*
X-19400D01*
X-18780D02*
X-18570D01*
X-17960D02*
X-15810D01*
X-23370Y17320D02*
X-21690D01*
X-21120D02*
X-20820D01*
X-20250D02*
X-19390D01*
X-18750D02*
X-18600D01*
X-17960D02*
X-15810D01*
X-23380Y17310D02*
X-21680D01*
X-21090D02*
X-20850D01*
X-20260D02*
X-19390D01*
X-17960D02*
X-15800D01*
X-23380Y17300D02*
X-21680D01*
X-21060D02*
X-20880D01*
X-20260D02*
X-19390D01*
X-17970D02*
X-15800D01*
X-23390Y17290D02*
X-21670D01*
X-20270D02*
X-19370D01*
X-17970D02*
X-15800D01*
X-23390Y17280D02*
X-21670D01*
X-20270D02*
X-19370D01*
X-17980D02*
X-15790D01*
X-23400Y17270D02*
X-21660D01*
X-20280D02*
X-19360D01*
X-17990D02*
X-15780D01*
X-23400Y17260D02*
X-21660D01*
X-20280D02*
X-19360D01*
X-17990D02*
X-15780D01*
X-23410Y17250D02*
X-21670D01*
X-20290D02*
X-19360D01*
X-18000D02*
X-15780D01*
X-23410Y17240D02*
X-21680D01*
X-20300D02*
X-19350D01*
X-18000D02*
X-15770D01*
X-23410Y17230D02*
X-21690D01*
X-20310D02*
X-19340D01*
X-18010D02*
X-15770D01*
X-23420Y17220D02*
X-21700D01*
X-20310D02*
X-19340D01*
X-18020D02*
X-15760D01*
X-23420Y17210D02*
X-21710D01*
X-20320D02*
X-19330D01*
X-18020D02*
X-15760D01*
X-23420Y17200D02*
X-21710D01*
X-20320D02*
X-19330D01*
X-18020D02*
X-15760D01*
X-23430Y17190D02*
X-21720D01*
X-20330D02*
X-19320D01*
X-18030D02*
X-15750D01*
X-23430Y17180D02*
X-21730D01*
X-20340D02*
X-19310D01*
X-18040D02*
X-15750D01*
X-23440Y17170D02*
X-21740D01*
X-20340D02*
X-19310D01*
X-18050D02*
X-15740D01*
X-23440Y17160D02*
X-21760D01*
X-20360D02*
X-19330D01*
X-18060D02*
X-15740D01*
X-23450Y17150D02*
X-21770D01*
X-20360D02*
X-19340D01*
X-18070D02*
X-15740D01*
X-23450Y17140D02*
X-21770D01*
X-20370D02*
X-19340D01*
X-18070D02*
X-15730D01*
X-23460Y17130D02*
X-21780D01*
X-20380D02*
X-19350D01*
X-18080D02*
X-15720D01*
X-23460Y17120D02*
X-21790D01*
X-20380D02*
X-19360D01*
X-18090D02*
X-15720D01*
X-23470Y17110D02*
X-21800D01*
X-20390D02*
X-19370D01*
X-18100D02*
X-15720D01*
X-23470Y17100D02*
X-21810D01*
X-20400D02*
X-19390D01*
X-18110D02*
X-15710D01*
X-23470Y17090D02*
X-21820D01*
X-20420D02*
X-19400D01*
X-18120D02*
X-15710D01*
X-23480Y17080D02*
X-21830D01*
X-20420D02*
X-19400D01*
X-18130D02*
X-15710D01*
X-23480Y17070D02*
X-21840D01*
X-20430D02*
X-19410D01*
X-18140D02*
X-15700D01*
X-23480Y17060D02*
X-21850D01*
X-20440D02*
X-19420D01*
X-18150D02*
X-15700D01*
X-23490Y17050D02*
X-21860D01*
X-20460D02*
X-19430D01*
X-18170D02*
X-15690D01*
X-23490Y17040D02*
X-21870D01*
X-20470D02*
X-19450D01*
X-18180D02*
X-15690D01*
X-23490Y17030D02*
X-21880D01*
X-20490D02*
X-19460D01*
X-18190D02*
X-15690D01*
X-23500Y17020D02*
X-21880D01*
X-20490D02*
X-19460D01*
X-18200D02*
X-15690D01*
X-23500Y17010D02*
X-21890D01*
X-20510D02*
X-19470D01*
X-18210D02*
X-15680D01*
X-23500Y17000D02*
X-21900D01*
X-20520D02*
X-19480D01*
X-18230D02*
X-15680D01*
X-23510Y16990D02*
X-21910D01*
X-20540D02*
X-19490D01*
X-18240D02*
X-15670D01*
X-23520Y16980D02*
X-21920D01*
X-20550D02*
X-19510D01*
X-18260D02*
X-15670D01*
X-23520Y16970D02*
X-21940D01*
X-21400D02*
X-21370D01*
X-20570D02*
X-19520D01*
X-18270D02*
X-15660D01*
X-23520Y16960D02*
X-21940D01*
X-21400D02*
X-21360D01*
X-20580D02*
X-19520D01*
X-18290D02*
X-15660D01*
X-23530Y16950D02*
X-21950D01*
X-21410D02*
X-21340D01*
X-20600D02*
X-19530D01*
X-18310D02*
X-15660D01*
X-23530Y16940D02*
X-21960D01*
X-21420D02*
X-21320D01*
X-20620D02*
X-19540D01*
X-18330D02*
X-15650D01*
X-23530Y16930D02*
X-21970D01*
X-21430D02*
X-21290D01*
X-20650D02*
X-19550D01*
X-18350D02*
X-15650D01*
X-23530Y16920D02*
X-21980D01*
X-21450D02*
X-21270D01*
X-20670D02*
X-19570D01*
X-19010D02*
X-18980D01*
X-18380D02*
X-15650D01*
X-23540Y16910D02*
X-21990D01*
X-21450D02*
X-21240D01*
X-20700D02*
X-19580D01*
X-19020D02*
X-18940D01*
X-18410D02*
X-15640D01*
X-23540Y16900D02*
X-22000D01*
X-21460D02*
X-21210D01*
X-20730D02*
X-19590D01*
X-19030D02*
X-18920D01*
X-18440D02*
X-15640D01*
X-23540Y16890D02*
X-22010D01*
X-21470D02*
X-21190D01*
X-20750D02*
X-19590D01*
X-19040D02*
X-18900D01*
X-18450D02*
X-15640D01*
X-23550Y16880D02*
X-22020D01*
X-21480D02*
X-21150D01*
X-20790D02*
X-19600D01*
X-19050D02*
X-18860D01*
X-18500D02*
X-15630D01*
X-23550Y16870D02*
X-22020D01*
X-21490D02*
X-21100D01*
X-20850D02*
X-19610D01*
X-19060D02*
X-18800D01*
X-18550D02*
X-15630D01*
X-23550Y16860D02*
X-22040D01*
X-21500D02*
X-19630D01*
X-19070D02*
X-17410D01*
X-17230D02*
X-15630D01*
X-21510Y16850D02*
X-19640D01*
X-19080D02*
X-17480D01*
X-17160D02*
X-15620D01*
X-21520Y16840D02*
X-19650D01*
X-19090D02*
X-17530D01*
X-17110D02*
X-15620D01*
X-21530Y16830D02*
X-19650D01*
X-19100D02*
X-17540D01*
X-17090D02*
X-15620D01*
X-21540Y16820D02*
X-19660D01*
X-19110D02*
X-17580D01*
X-17060D02*
X-15620D01*
X-21550Y16810D02*
X-19670D01*
X-19120D02*
X-17600D01*
X-17030D02*
X-15610D01*
X-21550Y16800D02*
X-19690D01*
X-19130D02*
X-17630D01*
X-17000D02*
X-15610D01*
X-21560Y16790D02*
X-19700D01*
X-19140D02*
X-17660D01*
X-16980D02*
X-15600D01*
X-21580Y16780D02*
X-19710D01*
X-19150D02*
X-17680D01*
X-16960D02*
X-15600D01*
X-21580Y16770D02*
X-19710D01*
X-19160D02*
X-17690D01*
X-16950D02*
X-15600D01*
X-21590Y16760D02*
X-19720D01*
X-19170D02*
X-17710D01*
X-16930D02*
X-15590D01*
X-21600Y16750D02*
X-19730D01*
X-19180D02*
X-17720D01*
X-16910D02*
X-15590D01*
X-21610Y16740D02*
X-19750D01*
X-19190D02*
X-17750D01*
X-16900D02*
X-15590D01*
X-21620Y16730D02*
X-19760D01*
X-19200D02*
X-17760D01*
X-16870D02*
X-15590D01*
X-21630Y16720D02*
X-19770D01*
X-19210D02*
X-17780D01*
X-16860D02*
X-15580D01*
X-21640Y16710D02*
X-19770D01*
X-19220D02*
X-17780D01*
X-16850D02*
X-15580D01*
X-21650Y16700D02*
X-19780D01*
X-19230D02*
X-17800D01*
X-16840D02*
X-15580D01*
X-21660Y16690D02*
X-19790D01*
X-19240D02*
X-17810D01*
X-16830D02*
X-15580D01*
X-21670Y16680D02*
X-19810D01*
X-19250D02*
X-17830D01*
X-16810D02*
X-15570D01*
X-21680Y16670D02*
X-19820D01*
X-19260D02*
X-17840D01*
X-16800D02*
X-15570D01*
X-21690Y16660D02*
X-19830D01*
X-19270D02*
X-17850D01*
X-16790D02*
X-15570D01*
X-21700Y16650D02*
X-19830D01*
X-19280D02*
X-17850D01*
X-16780D02*
X-15570D01*
X-21700Y16640D02*
X-19840D01*
X-19290D02*
X-17870D01*
X-16770D02*
X-15560D01*
X-21710Y16630D02*
X-19850D01*
X-19300D02*
X-17880D01*
X-16760D02*
X-15560D01*
X-21720Y16620D02*
X-19870D01*
X-19310D02*
X-17890D01*
X-16750D02*
X-15560D01*
X-21730Y16610D02*
X-19880D01*
X-19320D02*
X-17900D01*
X-16740D02*
X-15560D01*
X-21740Y16600D02*
X-19890D01*
X-19330D02*
X-17910D01*
X-16730D02*
X-15550D01*
X-21750Y16590D02*
X-19890D01*
X-19340D02*
X-17910D01*
X-16730D02*
X-15550D01*
X-21760Y16580D02*
X-19900D01*
X-19350D02*
X-17930D01*
X-16720D02*
X-15550D01*
X-21770Y16570D02*
X-19910D01*
X-19360D02*
X-17930D01*
X-16710D02*
X-15540D01*
X-21780Y16560D02*
X-19930D01*
X-19370D02*
X-17940D01*
X-16690D02*
X-15540D01*
X-21790Y16550D02*
X-19940D01*
X-19380D02*
X-17950D01*
X-16690D02*
X-15540D01*
X-21800Y16540D02*
X-19950D01*
X-19390D02*
X-17960D01*
X-16680D02*
X-15530D01*
X-21800Y16530D02*
X-19950D01*
X-19400D02*
X-17960D01*
X-16680D02*
X-15530D01*
X-21820Y16520D02*
X-19960D01*
X-19410D02*
X-17970D01*
X-16670D02*
X-15530D01*
X-21830Y16510D02*
X-19970D01*
X-19420D02*
X-17970D01*
X-16660D02*
X-15530D01*
X-21840Y16500D02*
X-19980D01*
X-19420D02*
X-17990D01*
X-16660D02*
X-15530D01*
X-21850Y16490D02*
X-20000D01*
X-19440D02*
X-17990D01*
X-16650D02*
X-15520D01*
X-21860Y16480D02*
X-20010D01*
X-19450D02*
X-18000D01*
X-16640D02*
X-15520D01*
X-21860Y16470D02*
X-20010D01*
X-19460D02*
X-18000D01*
X-16640D02*
X-15520D01*
X-23660Y16460D02*
X-20020D01*
X-19460D02*
X-18010D01*
X-16630D02*
X-15520D01*
X-23660Y16450D02*
X-20030D01*
X-19480D02*
X-18010D01*
X-16630D02*
X-15520D01*
X-23670Y16440D02*
X-20040D01*
X-19480D02*
X-18020D01*
X-16620D02*
X-15510D01*
X-23670Y16430D02*
X-20060D01*
X-19500D02*
X-18020D01*
X-17390D02*
X-17250D01*
X-16610D02*
X-15510D01*
X-23670Y16420D02*
X-20070D01*
X-19510D02*
X-18030D01*
X-17420D02*
X-17210D01*
X-16610D02*
X-15510D01*
X-23670Y16410D02*
X-20070D01*
X-19520D02*
X-18030D01*
X-17450D02*
X-17190D01*
X-16610D02*
X-15510D01*
X-23670Y16400D02*
X-20080D01*
X-19530D02*
X-18030D01*
X-17470D02*
X-17170D01*
X-16600D02*
X-15510D01*
X-23680Y16390D02*
X-20090D01*
X-19540D02*
X-18040D01*
X-17490D02*
X-17150D01*
X-16600D02*
X-15510D01*
X-23680Y16380D02*
X-20100D01*
X-19540D02*
X-18050D01*
X-17510D02*
X-17130D01*
X-16590D02*
X-15500D01*
X-23680Y16370D02*
X-20120D01*
X-19560D02*
X-18050D01*
X-17530D02*
X-17110D01*
X-16590D02*
X-15500D01*
X-23680Y16360D02*
X-20130D01*
X-19570D02*
X-18060D01*
X-17540D02*
X-17100D01*
X-16590D02*
X-15500D01*
X-23680Y16350D02*
X-20130D01*
X-19580D02*
X-18060D01*
X-17550D02*
X-17090D01*
X-16580D02*
X-15500D01*
X-23680Y16340D02*
X-20140D01*
X-19580D02*
X-18060D01*
X-17560D02*
X-17080D01*
X-16580D02*
X-15500D01*
X-23690Y16330D02*
X-20150D01*
X-19600D02*
X-18060D01*
X-17570D02*
X-17060D01*
X-16570D02*
X-15500D01*
X-23690Y16320D02*
X-20160D01*
X-19610D02*
X-18070D01*
X-17580D02*
X-17050D01*
X-16570D02*
X-15490D01*
X-23690Y16310D02*
X-20180D01*
X-19620D02*
X-18070D01*
X-17590D02*
X-17040D01*
X-16570D02*
X-15490D01*
X-23700Y16300D02*
X-20190D01*
X-19630D02*
X-18070D01*
X-17600D02*
X-17040D01*
X-16560D02*
X-15480D01*
X-23700Y16290D02*
X-20190D01*
X-19640D02*
X-18080D01*
X-17600D02*
X-17030D01*
X-16560D02*
X-15480D01*
X-23700Y16280D02*
X-20200D01*
X-19640D02*
X-18080D01*
X-17620D02*
X-17030D01*
X-16560D02*
X-15480D01*
X-23700Y16270D02*
X-20210D01*
X-19660D02*
X-18080D01*
X-17620D02*
X-17020D01*
X-16560D02*
X-15480D01*
X-23700Y16260D02*
X-20220D01*
X-19660D02*
X-18080D01*
X-17630D02*
X-17010D01*
X-16550D02*
X-15480D01*
X-23700Y16250D02*
X-20240D01*
X-19680D02*
X-18090D01*
X-17630D02*
X-17000D01*
X-16550D02*
X-15480D01*
X-23710Y16240D02*
X-20250D01*
X-19690D02*
X-18090D01*
X-17640D02*
X-17000D01*
X-16550D02*
X-15480D01*
X-23710Y16230D02*
X-20250D01*
X-19700D02*
X-18090D01*
X-17640D02*
X-17000D01*
X-16550D02*
X-15470D01*
X-23710Y16220D02*
X-20260D01*
X-19700D02*
X-18090D01*
X-17650D02*
X-16990D01*
X-16550D02*
X-15470D01*
X-23710Y16210D02*
X-20270D01*
X-19720D02*
X-18090D01*
X-17650D02*
X-16990D01*
X-16540D02*
X-15470D01*
X-23710Y16200D02*
X-20280D01*
X-19720D02*
X-18090D01*
X-17650D02*
X-16980D01*
X-16540D02*
X-15470D01*
X-23710Y16190D02*
X-20300D01*
X-19740D02*
X-18100D01*
X-17660D02*
X-16980D01*
X-16540D02*
X-15470D01*
X-23710Y16180D02*
X-20310D01*
X-19750D02*
X-18100D01*
X-17660D02*
X-16980D01*
X-16540D02*
X-15470D01*
X-23710Y16170D02*
X-20310D01*
X-19760D02*
X-18100D01*
X-17660D02*
X-16970D01*
X-16540D02*
X-15470D01*
X-23720Y16160D02*
X-20320D01*
X-19770D02*
X-18100D01*
X-17660D02*
X-16970D01*
X-16540D02*
X-15470D01*
X-23720Y16150D02*
X-20330D01*
X-19780D02*
X-18100D01*
X-17670D02*
X-16970D01*
X-16540D02*
X-15460D01*
X-23720Y16140D02*
X-20340D01*
X-19780D02*
X-18110D01*
X-17670D02*
X-16970D01*
X-16540D02*
X-15460D01*
X-23720Y16130D02*
X-20360D01*
X-19800D02*
X-18110D01*
X-17680D02*
X-16970D01*
X-16540D02*
X-15460D01*
X-23720Y16120D02*
X-20370D01*
X-19810D02*
X-18110D01*
X-17680D02*
X-16960D01*
X-16530D02*
X-15460D01*
X-23720Y16110D02*
X-20370D01*
X-19820D02*
X-18110D01*
X-17680D02*
X-16960D01*
X-16530D02*
X-15460D01*
X-23720Y16100D02*
X-20380D01*
X-19820D02*
X-18110D01*
X-17680D02*
X-16960D01*
X-16530D02*
X-15460D01*
X-23720Y16090D02*
X-20390D01*
X-19840D02*
X-18110D01*
X-17680D02*
X-16960D01*
X-16530D02*
X-15460D01*
X-23730Y16080D02*
X-20400D01*
X-19850D02*
X-18110D01*
X-17680D02*
X-16960D01*
X-16530D02*
X-15450D01*
X-23730Y16070D02*
X-20420D01*
X-19860D02*
X-18110D01*
X-17680D02*
X-16960D01*
X-16530D02*
X-15450D01*
X-23730Y16060D02*
X-20430D01*
X-19870D02*
X-18110D01*
X-17680D02*
X-16960D01*
X-16530D02*
X-15450D01*
X-23730Y16050D02*
X-20430D01*
X-19880D02*
X-18110D01*
X-17680D02*
X-16960D01*
X-16530D02*
X-15450D01*
X-23730Y16040D02*
X-20440D01*
X-19880D02*
X-18110D01*
X-17680D02*
X-16960D01*
X-16530D02*
X-15450D01*
X-23730Y16030D02*
X-20450D01*
X-19900D02*
X-18110D01*
X-17680D02*
X-16970D01*
X-16530D02*
X-15450D01*
X-23730Y16020D02*
X-20460D01*
X-19900D02*
X-18110D01*
X-17670D02*
X-16970D01*
X-16540D02*
X-15450D01*
X-23730Y16010D02*
X-20480D01*
X-19920D02*
X-18100D01*
X-17670D02*
X-16970D01*
X-16540D02*
X-15450D01*
X-23730Y16000D02*
X-20490D01*
X-19930D02*
X-18100D01*
X-17670D02*
X-16970D01*
X-16540D02*
X-15450D01*
X-23730Y15990D02*
X-20490D01*
X-19940D02*
X-18100D01*
X-17660D02*
X-16970D01*
X-16540D02*
X-15450D01*
X-23740Y15980D02*
X-20500D01*
X-19940D02*
X-18100D01*
X-17660D02*
X-16970D01*
X-16540D02*
X-15450D01*
X-23740Y15970D02*
X-20510D01*
X-19960D02*
X-18100D01*
X-17660D02*
X-16980D01*
X-16540D02*
X-15440D01*
X-23740Y15960D02*
X-20520D01*
X-19960D02*
X-18090D01*
X-17660D02*
X-16980D01*
X-16540D02*
X-15440D01*
X-23740Y15950D02*
X-20540D01*
X-19980D02*
X-18090D01*
X-17650D02*
X-16980D01*
X-16540D02*
X-15440D01*
X-23740Y15940D02*
X-20550D01*
X-19980D02*
X-18090D01*
X-17650D02*
X-16990D01*
X-16540D02*
X-15440D01*
X-23740Y15930D02*
X-20550D01*
X-20000D02*
X-18090D01*
X-17650D02*
X-16990D01*
X-16550D02*
X-15440D01*
X-23740Y15920D02*
X-20560D01*
X-20010D02*
X-18090D01*
X-17640D02*
X-17000D01*
X-16550D02*
X-15440D01*
X-23740Y15910D02*
X-20570D01*
X-20020D02*
X-18090D01*
X-17640D02*
X-17000D01*
X-16550D02*
X-15440D01*
X-23740Y15900D02*
X-20580D01*
X-20030D02*
X-18080D01*
X-17630D02*
X-17010D01*
X-16550D02*
X-15440D01*
X-23740Y15890D02*
X-20600D01*
X-20040D02*
X-18080D01*
X-17630D02*
X-17020D01*
X-16550D02*
X-15440D01*
X-23740Y15880D02*
X-20610D01*
X-20050D02*
X-18080D01*
X-17620D02*
X-17020D01*
X-16560D02*
X-15440D01*
X-23740Y15870D02*
X-20610D01*
X-20060D02*
X-18080D01*
X-17610D02*
X-17030D01*
X-16560D02*
X-15440D01*
X-23740Y15860D02*
X-20620D01*
X-20070D02*
X-18080D01*
X-17600D02*
X-17030D01*
X-16560D02*
X-15440D01*
X-23750Y15850D02*
X-20630D01*
X-20080D02*
X-18070D01*
X-17590D02*
X-17040D01*
X-16560D02*
X-15440D01*
X-23750Y15840D02*
X-20640D01*
X-20090D02*
X-18070D01*
X-17580D02*
X-17050D01*
X-16570D02*
X-15430D01*
X-23750Y15830D02*
X-20660D01*
X-20100D02*
X-18070D01*
X-17580D02*
X-17060D01*
X-16570D02*
X-15430D01*
X-23750Y15820D02*
X-20670D01*
X-20110D02*
X-18060D01*
X-17570D02*
X-17070D01*
X-16570D02*
X-15430D01*
X-23750Y15810D02*
X-20670D01*
X-20120D02*
X-18060D01*
X-17560D02*
X-17080D01*
X-16580D02*
X-15430D01*
X-23750Y15800D02*
X-20680D01*
X-20130D02*
X-18060D01*
X-17540D02*
X-17090D01*
X-16580D02*
X-15430D01*
X-23750Y15790D02*
X-20690D01*
X-20140D02*
X-18050D01*
X-17530D02*
X-17100D01*
X-16590D02*
X-15430D01*
X-23750Y15780D02*
X-20700D01*
X-20150D02*
X-18050D01*
X-17520D02*
X-17120D01*
X-16590D02*
X-15430D01*
X-23750Y15770D02*
X-20720D01*
X-20160D02*
X-18040D01*
X-17500D02*
X-17140D01*
X-16600D02*
X-15430D01*
X-20170Y15760D02*
X-18040D01*
X-17480D02*
X-17160D01*
X-16600D02*
X-15430D01*
X-20180Y15750D02*
X-18030D01*
X-17470D02*
X-17170D01*
X-16600D02*
X-15430D01*
X-20190Y15740D02*
X-18030D01*
X-17440D02*
X-17200D01*
X-16610D02*
X-15430D01*
X-20200Y15730D02*
X-18020D01*
X-17410D02*
X-17230D01*
X-16610D02*
X-15420D01*
X-20210Y15720D02*
X-18020D01*
X-17330D02*
X-17310D01*
X-16620D02*
X-15420D01*
X-20220Y15710D02*
X-18010D01*
X-16620D02*
X-15420D01*
X-20230Y15700D02*
X-18010D01*
X-16630D02*
X-15420D01*
X-20240Y15690D02*
X-18010D01*
X-16630D02*
X-15420D01*
X-20250Y15680D02*
X-18000D01*
X-16640D02*
X-15420D01*
X-20260Y15670D02*
X-18000D01*
X-16650D02*
X-15420D01*
X-20270Y15660D02*
X-18000D01*
X-16650D02*
X-15420D01*
X-20280Y15650D02*
X-18010D01*
X-16660D02*
X-15420D01*
X-20290Y15640D02*
X-18020D01*
X-16670D02*
X-15420D01*
X-20300Y15630D02*
X-18020D01*
X-16670D02*
X-15420D01*
X-20310Y15620D02*
X-18030D01*
X-16680D02*
X-15420D01*
X-20320Y15610D02*
X-18050D01*
X-16680D02*
X-15420D01*
X-20330Y15600D02*
X-18060D01*
X-16690D02*
X-15420D01*
X-20340Y15590D02*
X-18070D01*
X-16710D02*
X-15420D01*
X-20350Y15580D02*
X-18080D01*
X-16710D02*
X-15420D01*
X-20360Y15570D02*
X-18080D01*
X-16720D02*
X-15420D01*
X-20370Y15560D02*
X-18090D01*
X-16720D02*
X-15420D01*
X-20380Y15550D02*
X-18100D01*
X-16730D02*
X-15420D01*
X-20390Y15540D02*
X-18110D01*
X-16740D02*
X-15420D01*
X-20400Y15530D02*
X-18120D01*
X-16750D02*
X-15420D01*
X-20410Y15520D02*
X-18130D01*
X-16770D02*
X-15420D01*
X-20420Y15510D02*
X-18140D01*
X-16780D02*
X-15420D01*
X-20430Y15500D02*
X-18150D01*
X-16780D02*
X-15420D01*
X-20440Y15490D02*
X-18160D01*
X-16790D02*
X-15420D01*
X-20450Y15480D02*
X-18170D01*
X-16800D02*
X-15420D01*
X-20460Y15470D02*
X-18180D01*
X-16820D02*
X-15420D01*
X-20470Y15460D02*
X-18190D01*
X-16830D02*
X-15420D01*
X-20480Y15450D02*
X-18200D01*
X-16850D02*
X-15420D01*
X-20490Y15440D02*
X-18200D01*
X-16850D02*
X-15420D01*
X-20500Y15430D02*
X-18210D01*
X-16870D02*
X-15420D01*
X-20510Y15420D02*
X-18230D01*
X-16890D02*
X-15420D01*
X-20520Y15410D02*
X-18240D01*
X-16900D02*
X-15420D01*
X-20530Y15400D02*
X-18250D01*
X-16920D02*
X-15430D01*
X-20540Y15390D02*
X-18260D01*
X-17720D02*
X-17700D01*
X-16940D02*
X-15430D01*
X-20550Y15380D02*
X-18260D01*
X-17720D02*
X-17690D01*
X-16950D02*
X-15430D01*
X-23750Y15370D02*
X-18270D01*
X-17730D02*
X-17660D01*
X-16970D02*
X-15430D01*
X-23750Y15360D02*
X-18280D01*
X-17750D02*
X-17650D01*
X-16990D02*
X-15430D01*
X-23750Y15350D02*
X-18290D01*
X-17760D02*
X-17620D01*
X-17020D02*
X-15430D01*
X-23750Y15340D02*
X-18300D01*
X-17760D02*
X-17590D01*
X-17050D02*
X-15430D01*
X-23750Y15330D02*
X-18310D01*
X-17770D02*
X-17560D01*
X-17080D02*
X-15430D01*
X-23750Y15320D02*
X-18320D01*
X-17780D02*
X-17540D01*
X-17100D02*
X-15430D01*
X-23750Y15310D02*
X-18330D01*
X-17790D02*
X-17500D01*
X-17140D02*
X-15430D01*
X-23750Y15300D02*
X-18330D01*
X-17800D02*
X-17450D01*
X-17200D02*
X-15430D01*
X-23750Y15290D02*
X-18350D01*
X-17810D02*
X-15440D01*
X-23740Y15280D02*
X-18360D01*
X-17820D02*
X-15440D01*
X-23740Y15270D02*
X-18370D01*
X-17830D02*
X-15440D01*
X-23740Y15260D02*
X-18370D01*
X-17840D02*
X-15440D01*
X-23740Y15250D02*
X-18380D01*
X-17850D02*
X-15440D01*
X-23740Y15240D02*
X-18390D01*
X-17850D02*
X-15440D01*
X-23740Y15230D02*
X-18410D01*
X-17870D02*
X-15440D01*
X-23740Y15220D02*
X-18420D01*
X-17880D02*
X-15440D01*
X-23740Y15210D02*
X-18420D01*
X-17890D02*
X-15440D01*
X-23740Y15200D02*
X-18430D01*
X-17890D02*
X-15440D01*
X-23740Y15190D02*
X-18440D01*
X-17900D02*
X-15440D01*
X-23740Y15180D02*
X-18450D01*
X-17910D02*
X-15440D01*
X-23740Y15170D02*
X-18460D01*
X-17930D02*
X-15440D01*
X-23740Y15160D02*
X-18470D01*
X-17930D02*
X-15450D01*
X-23730Y15150D02*
X-18480D01*
X-17950D02*
X-15450D01*
X-23730Y15140D02*
X-18490D01*
X-17950D02*
X-15450D01*
X-23730Y15130D02*
X-18500D01*
X-17960D02*
X-15450D01*
X-23730Y15120D02*
X-18510D01*
X-17970D02*
X-15450D01*
X-23730Y15110D02*
X-18520D01*
X-17980D02*
X-15450D01*
X-23730Y15100D02*
X-18530D01*
X-17990D02*
X-15450D01*
X-23730Y15090D02*
X-18540D01*
X-18000D02*
X-15450D01*
X-23730Y15080D02*
X-18540D01*
X-18010D02*
X-15450D01*
X-23730Y15070D02*
X-18550D01*
X-18010D02*
X-15450D01*
X-23730Y15060D02*
X-18560D01*
X-18020D02*
X-15460D01*
X-23720Y15050D02*
X-18570D01*
X-18030D02*
X-15460D01*
X-23720Y15040D02*
X-18580D01*
X-18050D02*
X-15460D01*
X-23720Y15030D02*
X-18600D01*
X-18060D02*
X-15460D01*
X-23720Y15020D02*
X-18600D01*
X-18060D02*
X-15460D01*
X-23720Y15010D02*
X-18610D01*
X-18070D02*
X-15460D01*
X-23720Y15000D02*
X-18620D01*
X-18080D02*
X-15460D01*
X-23720Y14990D02*
X-18630D01*
X-18090D02*
X-15460D01*
X-23720Y14980D02*
X-18640D01*
X-18100D02*
X-15470D01*
X-23710Y14970D02*
X-18650D01*
X-18110D02*
X-15470D01*
X-23710Y14960D02*
X-18660D01*
X-18120D02*
X-15470D01*
X-23710Y14950D02*
X-18660D01*
X-18130D02*
X-15470D01*
X-23710Y14940D02*
X-18680D01*
X-18140D02*
X-15470D01*
X-23710Y14930D02*
X-18680D01*
X-18150D02*
X-15470D01*
X-23710Y14920D02*
X-18690D01*
X-18160D02*
X-15470D01*
X-23710Y14910D02*
X-18700D01*
X-18170D02*
X-15470D01*
X-23710Y14900D02*
X-18710D01*
X-18180D02*
X-15480D01*
X-23700Y14890D02*
X-18720D01*
X-18190D02*
X-15480D01*
X-23700Y14880D02*
X-18730D01*
X-18190D02*
X-15480D01*
X-23700Y14870D02*
X-18740D01*
X-18200D02*
X-15480D01*
X-23700Y14860D02*
X-18750D01*
X-18210D02*
X-15480D01*
X-23700Y14850D02*
X-18760D01*
X-18230D02*
X-15480D01*
X-23700Y14840D02*
X-18760D01*
X-18230D02*
X-15490D01*
X-23690Y14830D02*
X-18780D01*
X-18240D02*
X-15490D01*
X-23690Y14820D02*
X-18790D01*
X-18250D02*
X-15490D01*
X-23690Y14810D02*
X-18800D01*
X-18260D02*
X-15500D01*
X-23680Y14800D02*
X-18810D01*
X-18270D02*
X-15500D01*
X-23680Y14790D02*
X-18820D01*
X-18280D02*
X-15500D01*
X-23680Y14780D02*
X-18820D01*
X-18290D02*
X-15500D01*
X-23680Y14770D02*
X-18840D01*
X-18300D02*
X-15500D01*
X-23680Y14760D02*
X-18850D01*
X-18310D02*
X-15500D01*
X-23680Y14750D02*
X-18850D01*
X-18320D02*
X-15510D01*
X-23670Y14740D02*
X-18860D01*
X-18330D02*
X-15510D01*
X-23670Y14730D02*
X-18870D01*
X-18340D02*
X-15510D01*
X-23670Y14720D02*
X-18880D01*
X-18340D02*
X-15510D01*
X-23670Y14710D02*
X-18890D01*
X-18350D02*
X-15510D01*
X-23670Y14700D02*
X-18900D01*
X-18360D02*
X-15520D01*
X-23660Y14690D02*
X-18910D01*
X-18370D02*
X-15520D01*
X-18380Y14680D02*
X-15520D01*
X-18390Y14670D02*
X-15520D01*
X-18400Y14660D02*
X-15520D01*
X-18410Y14650D02*
X-15520D01*
X-18420Y14640D02*
X-15530D01*
X-18430Y14630D02*
X-15530D01*
X-18440Y14620D02*
X-15530D01*
X-18450Y14610D02*
X-15530D01*
X-18450Y14600D02*
X-15540D01*
X-18460Y14590D02*
X-15540D01*
X-18480Y14580D02*
X-15540D01*
X-18490Y14570D02*
X-15540D01*
X-18500Y14560D02*
X-15550D01*
X-18510Y14550D02*
X-15550D01*
X-18510Y14540D02*
X-15550D01*
X-18520Y14530D02*
X-15560D01*
X-18530Y14520D02*
X-15560D01*
X-18540Y14510D02*
X-15560D01*
X-18550Y14500D02*
X-15560D01*
X-18560Y14490D02*
X-15570D01*
X-18570Y14480D02*
X-15570D01*
X-18580Y14470D02*
X-15570D01*
X-18580Y14460D02*
X-15570D01*
X-18600Y14450D02*
X-15580D01*
X-18610Y14440D02*
X-15580D01*
X-18620Y14430D02*
X-15580D01*
X-18620Y14420D02*
X-15580D01*
X-18630Y14410D02*
X-15590D01*
X-18640Y14400D02*
X-15590D01*
X-18660Y14390D02*
X-15590D01*
X-18670Y14380D02*
X-15600D01*
X-18670Y14370D02*
X-15600D01*
X-18680Y14360D02*
X-15600D01*
X-18690Y14350D02*
X-15600D01*
X-18700Y14340D02*
X-15610D01*
X-18710Y14330D02*
X-15610D01*
X-18720Y14320D02*
X-15620D01*
X-18730Y14310D02*
X-15620D01*
X-18740Y14300D02*
X-15620D01*
X-18750Y14290D02*
X-15620D01*
X-23550Y14280D02*
X-15630D01*
X-23550Y14270D02*
X-15630D01*
X-23550Y14260D02*
X-15630D01*
X-23540Y14250D02*
X-15640D01*
X-23540Y14240D02*
X-15640D01*
X-23540Y14230D02*
X-15640D01*
X-23530Y14220D02*
X-15650D01*
X-23530Y14210D02*
X-15650D01*
X-23530Y14200D02*
X-15650D01*
X-23520Y14190D02*
X-15660D01*
X-23520Y14180D02*
X-17930D01*
X-17850D02*
X-15660D01*
X-23520Y14170D02*
X-18020D01*
X-17750D02*
X-15660D01*
X-23520Y14160D02*
X-18080D01*
X-17700D02*
X-15670D01*
X-23510Y14150D02*
X-18120D01*
X-17660D02*
X-15670D01*
X-23500Y14140D02*
X-18150D01*
X-17630D02*
X-15680D01*
X-23500Y14130D02*
X-18180D01*
X-17600D02*
X-15680D01*
X-23500Y14120D02*
X-18200D01*
X-17570D02*
X-15690D01*
X-23490Y14110D02*
X-18220D01*
X-17560D02*
X-15690D01*
X-23490Y14100D02*
X-18240D01*
X-17540D02*
X-15690D01*
X-23490Y14090D02*
X-18260D01*
X-17520D02*
X-15690D01*
X-23480Y14080D02*
X-18280D01*
X-17500D02*
X-15700D01*
X-23480Y14070D02*
X-18300D01*
X-17480D02*
X-15700D01*
X-23470Y14060D02*
X-18320D01*
X-17460D02*
X-15710D01*
X-23470Y14050D02*
X-18320D01*
X-17450D02*
X-15710D01*
X-23470Y14040D02*
X-18340D01*
X-17440D02*
X-15710D01*
X-23470Y14030D02*
X-18360D01*
X-17420D02*
X-15720D01*
X-23460Y14020D02*
X-18370D01*
X-17400D02*
X-15720D01*
X-23460Y14010D02*
X-18380D01*
X-17390D02*
X-15720D01*
X-23450Y14000D02*
X-18390D01*
X-17380D02*
X-15730D01*
X-23450Y13990D02*
X-18400D01*
X-17380D02*
X-15740D01*
X-23440Y13980D02*
X-18420D01*
X-17360D02*
X-15740D01*
X-23440Y13970D02*
X-18430D01*
X-17350D02*
X-15740D01*
X-23430Y13960D02*
X-18440D01*
X-17340D02*
X-15750D01*
X-23430Y13950D02*
X-18450D01*
X-17330D02*
X-15750D01*
X-23420Y13940D02*
X-18460D01*
X-17320D02*
X-15760D01*
X-23420Y13930D02*
X-18460D01*
X-17310D02*
X-15760D01*
X-23420Y13920D02*
X-18480D01*
X-17300D02*
X-15760D01*
X-23410Y13910D02*
X-18480D01*
X-17290D02*
X-15770D01*
X-23410Y13900D02*
X-18490D01*
X-17280D02*
X-15770D01*
X-23410Y13890D02*
X-18500D01*
X-17270D02*
X-15780D01*
X-23400Y13880D02*
X-18510D01*
X-17270D02*
X-15780D01*
X-23400Y13870D02*
X-18510D01*
X-17260D02*
X-15780D01*
X-23390Y13860D02*
X-18520D01*
X-17250D02*
X-15790D01*
X-23390Y13850D02*
X-18530D01*
X-17240D02*
X-15800D01*
X-23380Y13840D02*
X-18540D01*
X-17240D02*
X-15800D01*
X-23380Y13830D02*
X-18550D01*
X-17230D02*
X-15810D01*
X-23370Y13820D02*
X-18550D01*
X-17220D02*
X-15810D01*
X-23370Y13810D02*
X-18560D01*
X-17220D02*
X-15810D01*
X-23360Y13800D02*
X-18560D01*
X-17210D02*
X-15820D01*
X-23360Y13790D02*
X-18570D01*
X-17210D02*
X-15820D01*
X-23350Y13780D02*
X-18570D01*
X-17200D02*
X-15830D01*
X-23350Y13770D02*
X-18580D01*
X-17200D02*
X-15830D01*
X-23340Y13760D02*
X-18590D01*
X-17190D02*
X-15840D01*
X-23340Y13750D02*
X-18590D01*
X-17930D02*
X-17850D01*
X-17180D02*
X-15840D01*
X-23340Y13740D02*
X-18600D01*
X-17980D02*
X-17790D01*
X-17180D02*
X-15840D01*
X-23330Y13730D02*
X-18600D01*
X-18010D02*
X-17760D01*
X-17170D02*
X-15850D01*
X-23320Y13720D02*
X-18610D01*
X-18040D02*
X-17730D01*
X-17170D02*
X-15860D01*
X-23320Y13710D02*
X-18610D01*
X-18060D02*
X-17710D01*
X-17170D02*
X-15860D01*
X-23310Y13700D02*
X-18620D01*
X-18080D02*
X-17700D01*
X-17160D02*
X-15870D01*
X-23310Y13690D02*
X-18620D01*
X-18090D02*
X-17690D01*
X-17160D02*
X-15870D01*
X-23300Y13680D02*
X-18620D01*
X-18110D02*
X-17670D01*
X-17150D02*
X-15880D01*
X-23300Y13670D02*
X-18620D01*
X-18120D02*
X-17660D01*
X-17150D02*
X-15880D01*
X-23290Y13660D02*
X-18630D01*
X-18130D02*
X-17650D01*
X-17150D02*
X-15890D01*
X-23290Y13650D02*
X-18630D01*
X-18140D02*
X-17640D01*
X-17140D02*
X-15890D01*
X-23280Y13640D02*
X-18640D01*
X-18150D02*
X-17630D01*
X-17140D02*
X-15900D01*
X-23280Y13630D02*
X-18640D01*
X-18150D02*
X-17620D01*
X-17140D02*
X-15900D01*
X-23280Y13620D02*
X-18640D01*
X-18170D02*
X-17610D01*
X-17140D02*
X-15910D01*
X-23270Y13610D02*
X-18640D01*
X-18180D02*
X-17600D01*
X-17130D02*
X-15920D01*
X-23260Y13600D02*
X-18650D01*
X-18180D02*
X-17590D01*
X-17120D02*
X-15920D01*
X-18190Y13590D02*
X-17590D01*
X-17120D02*
X-15930D01*
X-18200Y13580D02*
X-17580D01*
X-17120D02*
X-15930D01*
X-18200Y13570D02*
X-17580D01*
X-17120D02*
X-15930D01*
X-18200Y13560D02*
X-17570D01*
X-17120D02*
X-15940D01*
X-18210Y13550D02*
X-17570D01*
X-17110D02*
X-15940D01*
X-18210Y13540D02*
X-17560D01*
X-17110D02*
X-15950D01*
X-18220Y13530D02*
X-17560D01*
X-17110D02*
X-15960D01*
X-18230Y13520D02*
X-17550D01*
X-17110D02*
X-15960D01*
X-18230Y13510D02*
X-17550D01*
X-17110D02*
X-15960D01*
X-18230Y13500D02*
X-17540D01*
X-17110D02*
X-15980D01*
X-18230Y13490D02*
X-17540D01*
X-17110D02*
X-15980D01*
X-18240Y13480D02*
X-17540D01*
X-17100D02*
X-15990D01*
X-18240Y13470D02*
X-17540D01*
X-17100D02*
X-15990D01*
X-18240Y13460D02*
X-17530D01*
X-17100D02*
X-16000D01*
X-18240Y13450D02*
X-17530D01*
X-17100D02*
X-16000D01*
X-18240Y13440D02*
X-17530D01*
X-17100D02*
X-16010D01*
X-18240Y13430D02*
X-17530D01*
X-17100D02*
X-16010D01*
X-18250Y13420D02*
X-17530D01*
X-17100D02*
X-16020D01*
X-18250Y13410D02*
X-17530D01*
X-17100D02*
X-16020D01*
X-18250Y13400D02*
X-17530D01*
X-17100D02*
X-16040D01*
X-18250Y13390D02*
X-17530D01*
X-17100D02*
X-16040D01*
X-18250Y13380D02*
X-17530D01*
X-17100D02*
X-16050D01*
X-18250Y13370D02*
X-17530D01*
X-17100D02*
X-16050D01*
X-18240Y13360D02*
X-17530D01*
X-17100D02*
X-16060D01*
X-18240Y13350D02*
X-17530D01*
X-17100D02*
X-16060D01*
X-18240Y13340D02*
X-17530D01*
X-17100D02*
X-16070D01*
X-18240Y13330D02*
X-17540D01*
X-17100D02*
X-16070D01*
X-18240Y13320D02*
X-17540D01*
X-17100D02*
X-16080D01*
X-18240Y13310D02*
X-17540D01*
X-17110D02*
X-16090D01*
X-18230Y13300D02*
X-17540D01*
X-17110D02*
X-16100D01*
X-18230Y13290D02*
X-17540D01*
X-17110D02*
X-16100D01*
X-18230Y13280D02*
X-17550D01*
X-17110D02*
X-16110D01*
X-18230Y13270D02*
X-17560D01*
X-17110D02*
X-16120D01*
X-18220Y13260D02*
X-17560D01*
X-17110D02*
X-16120D01*
X-18210Y13250D02*
X-17560D01*
X-17110D02*
X-16130D01*
X-18210Y13240D02*
X-17570D01*
X-17120D02*
X-16130D01*
X-18200Y13230D02*
X-17570D01*
X-17120D02*
X-16140D01*
X-18200Y13220D02*
X-17580D01*
X-17120D02*
X-16150D01*
X-18190Y13210D02*
X-17580D01*
X-17120D02*
X-16160D01*
X-18190Y13200D02*
X-17590D01*
X-17120D02*
X-16160D01*
X-23010Y13190D02*
X-18640D01*
X-18180D02*
X-17590D01*
X-17130D02*
X-16170D01*
X-23000Y13180D02*
X-18640D01*
X-18170D02*
X-17600D01*
X-17130D02*
X-16180D01*
X-23000Y13170D02*
X-18640D01*
X-18170D02*
X-17610D01*
X-17140D02*
X-16180D01*
X-22990Y13160D02*
X-18640D01*
X-18150D02*
X-17620D01*
X-17140D02*
X-16190D01*
X-22990Y13150D02*
X-18630D01*
X-18150D02*
X-17630D01*
X-17140D02*
X-16200D01*
X-22980Y13140D02*
X-18630D01*
X-18140D02*
X-17640D01*
X-17140D02*
X-16200D01*
X-22970Y13130D02*
X-18630D01*
X-18130D02*
X-17650D01*
X-17150D02*
X-16210D01*
X-22960Y13120D02*
X-18620D01*
X-18120D02*
X-17660D01*
X-17150D02*
X-16220D01*
X-22950Y13110D02*
X-18620D01*
X-18100D02*
X-17680D01*
X-17150D02*
X-16230D01*
X-22940Y13100D02*
X-18620D01*
X-18080D02*
X-17690D01*
X-17160D02*
X-16240D01*
X-22940Y13090D02*
X-18610D01*
X-18080D02*
X-17700D01*
X-17160D02*
X-16240D01*
X-22930Y13080D02*
X-18610D01*
X-18060D02*
X-17720D01*
X-17170D02*
X-16250D01*
X-22930Y13070D02*
X-18600D01*
X-18030D02*
X-17740D01*
X-17170D02*
X-16260D01*
X-22920Y13060D02*
X-18600D01*
X-18010D02*
X-17770D01*
X-17170D02*
X-16260D01*
X-22910Y13050D02*
X-18600D01*
X-17970D02*
X-17800D01*
X-17180D02*
X-16270D01*
X-22900Y13040D02*
X-18590D01*
X-17180D02*
X-16280D01*
X-22890Y13030D02*
X-18580D01*
X-17190D02*
X-16290D01*
X-22890Y13020D02*
X-18580D01*
X-17200D02*
X-16290D01*
X-22880Y13010D02*
X-18570D01*
X-17200D02*
X-16300D01*
X-22870Y13000D02*
X-18570D01*
X-17210D02*
X-16310D01*
X-22860Y12990D02*
X-18560D01*
X-17210D02*
X-16320D01*
X-22850Y12980D02*
X-18550D01*
X-17220D02*
X-16330D01*
X-22850Y12970D02*
X-18550D01*
X-17220D02*
X-16330D01*
X-22840Y12960D02*
X-18550D01*
X-17230D02*
X-16340D01*
X-22830Y12950D02*
X-18540D01*
X-17240D02*
X-16350D01*
X-22820Y12940D02*
X-18530D01*
X-17240D02*
X-16360D01*
X-22810Y12930D02*
X-18520D01*
X-17260D02*
X-16370D01*
X-22810Y12920D02*
X-18510D01*
X-17260D02*
X-16370D01*
X-22800Y12910D02*
X-18510D01*
X-17270D02*
X-16380D01*
X-22790Y12900D02*
X-18500D01*
X-17280D02*
X-16390D01*
X-22790Y12890D02*
X-18490D01*
X-17290D02*
X-16400D01*
X-22770Y12880D02*
X-18480D01*
X-17290D02*
X-16410D01*
X-22760Y12870D02*
X-18470D01*
X-17300D02*
X-16420D01*
X-22750Y12860D02*
X-18460D01*
X-17320D02*
X-16430D01*
X-22750Y12850D02*
X-18460D01*
X-17320D02*
X-16430D01*
X-22740Y12840D02*
X-18450D01*
X-17330D02*
X-16440D01*
X-22730Y12830D02*
X-18440D01*
X-17340D02*
X-16450D01*
X-22720Y12820D02*
X-18430D01*
X-17350D02*
X-16460D01*
X-22710Y12810D02*
X-18410D01*
X-17360D02*
X-16470D01*
X-22700Y12800D02*
X-18400D01*
X-17380D02*
X-16480D01*
X-22700Y12790D02*
X-18390D01*
X-17390D02*
X-16480D01*
X-22690Y12780D02*
X-18380D01*
X-17400D02*
X-16490D01*
X-22680Y12770D02*
X-18370D01*
X-17410D02*
X-16500D01*
X-22670Y12760D02*
X-18350D01*
X-17420D02*
X-16510D01*
X-22650Y12750D02*
X-18330D01*
X-17440D02*
X-16520D01*
X-22650Y12740D02*
X-18320D01*
X-17460D02*
X-16530D01*
X-22640Y12730D02*
X-18300D01*
X-17470D02*
X-16540D01*
X-22630Y12720D02*
X-18300D01*
X-17480D02*
X-16550D01*
X-22620Y12710D02*
X-18270D01*
X-17500D02*
X-16560D01*
X-22610Y12700D02*
X-18250D01*
X-17520D02*
X-16570D01*
X-22600Y12690D02*
X-18240D01*
X-17540D02*
X-16580D01*
X-22590Y12680D02*
X-18210D01*
X-17570D02*
X-16590D01*
X-22580Y12670D02*
X-18180D01*
X-17590D02*
X-16600D01*
X-22580Y12660D02*
X-18170D01*
X-17600D02*
X-16610D01*
X-22570Y12650D02*
X-18140D01*
X-17630D02*
X-16620D01*
X-22550Y12640D02*
X-18110D01*
X-17660D02*
X-16630D01*
X-22550Y12630D02*
X-18060D01*
X-17710D02*
X-16640D01*
X-22530Y12620D02*
X-18010D01*
X-17770D02*
X-16650D01*
X-22520Y12610D02*
X-16660D01*
X-22510Y12600D02*
X-16670D01*
X-22510Y12590D02*
X-16680D01*
X-22500Y12580D02*
X-16690D01*
X-22490Y12570D02*
X-16700D01*
X-22470Y12560D02*
X-16710D01*
X-22460Y12550D02*
X-16720D01*
X-22450Y12540D02*
X-16730D01*
X-22440Y12530D02*
X-16740D01*
X-22430Y12520D02*
X-16750D01*
X-22420Y12510D02*
X-16760D01*
X-22400Y12500D02*
X-16780D01*
X-22390Y12490D02*
X-16790D01*
X-22390Y12480D02*
X-16790D01*
X-22380Y12470D02*
X-16800D01*
X-22370Y12460D02*
X-16810D01*
X-22350Y12450D02*
X-16830D01*
X-22340Y12440D02*
X-16840D01*
X-22330Y12430D02*
X-16850D01*
X-22320Y12420D02*
X-16860D01*
X-22310Y12410D02*
X-16870D01*
X-22290Y12400D02*
X-16890D01*
X-22280Y12390D02*
X-16900D01*
X-22270Y12380D02*
X-16910D01*
X-22260Y12370D02*
X-16920D01*
X-22250Y12360D02*
X-16930D01*
X-22240Y12350D02*
X-16940D01*
X-22220Y12340D02*
X-16960D01*
X-22210Y12330D02*
X-16970D01*
X-22200Y12320D02*
X-16980D01*
X-22190Y12310D02*
X-17000D01*
X-22180Y12300D02*
X-17000D01*
X-22160Y12290D02*
X-17020D01*
X-22150Y12280D02*
X-17030D01*
X-22140Y12270D02*
X-17040D01*
X-22120Y12260D02*
X-17060D01*
X-22110Y12250D02*
X-17080D01*
X-22100Y12240D02*
X-17080D01*
X-22090Y12230D02*
X-17100D01*
X-22070Y12220D02*
X-17110D01*
X-22060Y12210D02*
X-17120D01*
X-22040Y12200D02*
X-17140D01*
X-22030Y12190D02*
X-17160D01*
X-22020Y12180D02*
X-17160D01*
X-22010Y12170D02*
X-17180D01*
X-21980Y12160D02*
X-17200D01*
X-21970Y12150D02*
X-17210D01*
X-21960Y12140D02*
X-17230D01*
X-21940Y12130D02*
X-17240D01*
X-21930Y12120D02*
X-17250D01*
X-21910Y12110D02*
X-17270D01*
X-21900Y12100D02*
X-17280D01*
X-21890Y12090D02*
X-17300D01*
X-21860Y12080D02*
X-17320D01*
X-21850Y12070D02*
X-17330D01*
X-21840Y12060D02*
X-17340D01*
X-21830Y12050D02*
X-17360D01*
X-21800Y12040D02*
X-17380D01*
X-21790Y12030D02*
X-17390D01*
X-21770Y12020D02*
X-17410D01*
X-21760Y12010D02*
X-17420D01*
X-21740Y12000D02*
X-17440D01*
X-21730Y11990D02*
X-17460D01*
X-21710Y11980D02*
X-17470D01*
X-21690Y11970D02*
X-17490D01*
X-21670Y11960D02*
X-17510D01*
X-21650Y11950D02*
X-17530D01*
X-21640Y11940D02*
X-17540D01*
X-21620Y11930D02*
X-17560D01*
X-21600Y11920D02*
X-17580D01*
X-21590Y11910D02*
X-17600D01*
X-21560Y11900D02*
X-17620D01*
X-21540Y11890D02*
X-17640D01*
X-21530Y11880D02*
X-17650D01*
X-21510Y11870D02*
X-17660D01*
X-21490Y11860D02*
X-17690D01*
X-21470Y11850D02*
X-17710D01*
X-21450Y11840D02*
X-17730D01*
X-21430Y11830D02*
X-17760D01*
X-21420Y11820D02*
X-17770D01*
X-21390Y11810D02*
X-17780D01*
X-21370Y11800D02*
X-17810D01*
X-21350Y11790D02*
X-17830D01*
X-21320Y11780D02*
X-17850D01*
X-21300Y11770D02*
X-17880D01*
X-21290Y11760D02*
X-17890D01*
X-21270Y11750D02*
X-17920D01*
X-21240Y11740D02*
X-17940D01*
X-21210Y11730D02*
X-17970D01*
X-21180Y11720D02*
X-18000D01*
X-21160Y11710D02*
X-18020D01*
X-21150Y11700D02*
X-18030D01*
X-21120Y11690D02*
X-18060D01*
X-21090Y11680D02*
X-18090D01*
X-21060Y11670D02*
X-18120D01*
X-21030Y11660D02*
X-18150D01*
X-21000Y11650D02*
X-18180D01*
X-20990Y11640D02*
X-18190D01*
X-20950Y11630D02*
X-18220D01*
X-20920Y11620D02*
X-18250D01*
X-20890Y11610D02*
X-18290D01*
X-20860Y11600D02*
X-18320D01*
X-20820Y11590D02*
X-18360D01*
X-20810Y11580D02*
X-18370D01*
X-20770Y11570D02*
X-18410D01*
X-20730Y11560D02*
X-18450D01*
X-20690Y11550D02*
X-18490D01*
X-20660Y11540D02*
X-18530D01*
X-20610Y11530D02*
X-18570D01*
X-20580Y11520D02*
X-18590D01*
X-20550Y11510D02*
X-18640D01*
X-20500Y11500D02*
X-18690D01*
X-20450Y11490D02*
X-18740D01*
X-20390Y11480D02*
X-18790D01*
X-20330Y11470D02*
X-18850D01*
X-20300Y11460D02*
X-18880D01*
X-20240Y11450D02*
X-18940D01*
X-20160Y11440D02*
X-19030D01*
X-20070Y11430D02*
X-19110D01*
X-19960Y11420D02*
X-19210D01*
X-19810Y11410D02*
X-19370D01*
X-19640Y11400D02*
X-19550D01*
D68*
X-10900Y16050D02*
X-10483Y15633D01*
X-8144D01*
X-11650Y16050D02*
X-10100D01*
X-9247Y15633D02*
X-8736D01*
X-9247Y14531D02*
X-9247Y15633D01*
X-9247Y14531D02*
X-8736D01*
Y15633D01*
X-10950Y12900D02*
X-10150D01*
X-11600D02*
X-10950D01*
X-10540Y13310D01*
X-8144D01*
X-9247Y14413D02*
X-8736D01*
X-9247Y13311D02*
X-9247Y14413D01*
X-9247Y13311D02*
X-8736D01*
Y14413D01*
X-10630Y13504D02*
Y14016D01*
X-11732Y14016D02*
X-10630Y14016D01*
X-11732Y14016D02*
X-11732Y13504D01*
X-10630D01*
Y14882D02*
Y15394D01*
X-11732Y15394D02*
X-10630Y15394D01*
X-11732Y15394D02*
X-11732Y14882D01*
X-10630D01*
X-6824Y15530D02*
Y16633D01*
X-7336Y15530D02*
X-6824D01*
X-7336D02*
X-7336Y16633D01*
X-6824D01*
X-7996Y15700D02*
Y16803D01*
X-7484Y16803D01*
X-7484Y15700D02*
X-7484Y16803D01*
X-7996Y15700D02*
X-7484D01*
X-7061Y12938D02*
X-5959D01*
X-5959Y12426D01*
X-7061Y12426D02*
X-5959Y12426D01*
X-7061Y12426D02*
Y12938D01*
X-6451Y9646D02*
X-5349D01*
X-6451D02*
Y10158D01*
X-5349Y10158D01*
Y9646D02*
Y10158D01*
X-5071Y10148D02*
X-3969D01*
Y9636D02*
Y10148D01*
X-5071Y9636D02*
X-3969Y9636D01*
X-5071Y9636D02*
Y10148D01*
X-9878Y13223D02*
X-8776D01*
Y12711D02*
Y13223D01*
X-9878Y12711D02*
X-8776Y12711D01*
X-9878Y12711D02*
Y13223D01*
X-10020Y13307D02*
Y14409D01*
X-10532Y13307D02*
X-10020D01*
X-10532D02*
X-10531Y14409D01*
X-10020D01*
X-9406Y13311D02*
Y14413D01*
X-9917Y13311D02*
X-9406D01*
X-9917D02*
X-9917Y14413D01*
X-9406D01*
X-8144Y13310D02*
Y14413D01*
X-8656Y13310D02*
X-8144D01*
X-8656D02*
X-8656Y14413D01*
X-8144D01*
X-10020Y14528D02*
Y15630D01*
X-10532Y14528D02*
X-10020D01*
X-10532D02*
X-10531Y15630D01*
X-10020D01*
X-9406Y14531D02*
Y15633D01*
X-9917Y14531D02*
X-9406D01*
X-9917D02*
X-9917Y15633D01*
X-9406D01*
X-8144Y14530D02*
Y15633D01*
X-8656Y14530D02*
X-8144D01*
X-8656D02*
X-8656Y15633D01*
X-8144D01*
X-9883Y16238D02*
X-8780D01*
Y15726D02*
Y16238D01*
X-9883Y15726D02*
X-8780Y15726D01*
X-9883Y15726D02*
Y16238D01*
X-9211Y16838D02*
X-8109D01*
Y16326D02*
Y16838D01*
X-9211Y16326D02*
X-8109Y16326D01*
X-9211Y16326D02*
Y16838D01*
X-8321Y12938D02*
X-7219D01*
Y12426D02*
Y12938D01*
X-8321Y12426D02*
X-7219Y12426D01*
X-8321Y12426D02*
Y12938D01*
X-5144Y15530D02*
Y16633D01*
X-5656Y15530D02*
X-5144D01*
X-5656D02*
X-5656Y16633D01*
X-5144D01*
X-5804Y15525D02*
Y16627D01*
X-6316Y15525D02*
X-5804Y15525D01*
X-6316Y15525D02*
X-6316Y16627D01*
X-5804D01*
X-8016Y14385D02*
Y15487D01*
X-7504D01*
X-7504Y14385D02*
X-7504Y15487D01*
X-8016Y14385D02*
X-7504D01*
X-7514Y13165D02*
Y14267D01*
X-8026Y13165D02*
X-7514D01*
X-8026D02*
X-8026Y14267D01*
X-7514D01*
X-10762Y16360D02*
X-10815Y16307D01*
Y16202D01*
X-10762Y16150D01*
X-10552D01*
X-10500Y16202D01*
Y16307D01*
X-10552Y16360D01*
X-10815Y16675D02*
Y16465D01*
X-10657D01*
X-10710Y16570D01*
Y16622D01*
X-10657Y16675D01*
X-10552D01*
X-10500Y16622D01*
Y16517D01*
X-10552Y16465D01*
X-10500Y16937D02*
X-10815D01*
X-10657Y16780D01*
Y16990D01*
X-10712Y12160D02*
X-10765Y12107D01*
Y12002D01*
X-10712Y11950D01*
X-10502D01*
X-10450Y12002D01*
Y12107D01*
X-10502Y12160D01*
X-10765Y12475D02*
Y12265D01*
X-10607D01*
X-10660Y12370D01*
Y12422D01*
X-10607Y12475D01*
X-10502D01*
X-10450Y12422D01*
Y12317D01*
X-10502Y12265D01*
X-10765Y12790D02*
Y12580D01*
X-10607D01*
X-10660Y12685D01*
Y12737D01*
X-10607Y12790D01*
X-10502D01*
X-10450Y12737D01*
Y12632D01*
X-10502Y12580D01*
X-11700Y14100D02*
Y14415D01*
X-11543D01*
X-11490Y14362D01*
Y14257D01*
X-11543Y14205D01*
X-11700D01*
X-11595D02*
X-11490Y14100D01*
X-11228D02*
Y14415D01*
X-11385Y14257D01*
X-11175D01*
X-11070Y14362D02*
X-11018Y14415D01*
X-10913D01*
X-10860Y14362D01*
Y14310D01*
X-10913Y14257D01*
X-10860Y14205D01*
Y14152D01*
X-10913Y14100D01*
X-11018D01*
X-11070Y14152D01*
Y14205D01*
X-11018Y14257D01*
X-11070Y14310D01*
Y14362D01*
X-11018Y14257D02*
X-10913D01*
X-11700Y15500D02*
Y15815D01*
X-11543D01*
X-11490Y15762D01*
Y15657D01*
X-11543Y15605D01*
X-11700D01*
X-11595D02*
X-11490Y15500D01*
X-11228D02*
Y15815D01*
X-11385Y15657D01*
X-11175D01*
X-11070Y15815D02*
X-10860D01*
Y15762D01*
X-11070Y15552D01*
Y15500D01*
X-7162Y16960D02*
X-7215Y16907D01*
Y16802D01*
X-7162Y16750D01*
X-6952D01*
X-6900Y16802D01*
Y16907D01*
X-6952Y16960D01*
X-6900Y17275D02*
Y17065D01*
X-7110Y17275D01*
X-7162D01*
X-7215Y17222D01*
Y17117D01*
X-7162Y17065D01*
X-6952Y17380D02*
X-6900Y17432D01*
Y17537D01*
X-6952Y17590D01*
X-7162D01*
X-7215Y17537D01*
Y17432D01*
X-7162Y17380D01*
X-7110D01*
X-7057Y17432D01*
Y17590D01*
X-5532Y16982D02*
X-5585Y16929D01*
Y16824D01*
X-5532Y16772D01*
X-5323D01*
X-5270Y16824D01*
Y16929D01*
X-5323Y16982D01*
X-5532Y17087D02*
X-5585Y17139D01*
Y17244D01*
X-5532Y17296D01*
X-5480D01*
X-5428Y17244D01*
Y17191D01*
Y17244D01*
X-5375Y17296D01*
X-5323D01*
X-5270Y17244D01*
Y17139D01*
X-5323Y17087D01*
Y17401D02*
X-5270Y17454D01*
Y17559D01*
X-5323Y17611D01*
X-5532D01*
X-5585Y17559D01*
Y17454D01*
X-5532Y17401D01*
X-5480D01*
X-5428Y17454D01*
Y17611D01*
X-8090Y12262D02*
X-8143Y12315D01*
X-8248D01*
X-8300Y12262D01*
Y12052D01*
X-8248Y12000D01*
X-8143D01*
X-8090Y12052D01*
X-7828Y12000D02*
Y12315D01*
X-7985Y12157D01*
X-7775D01*
X-7670Y12262D02*
X-7618Y12315D01*
X-7513D01*
X-7460Y12262D01*
Y12052D01*
X-7513Y12000D01*
X-7618D01*
X-7670Y12052D01*
Y12262D01*
X-8990Y17212D02*
X-9043Y17265D01*
X-9148D01*
X-9200Y17212D01*
Y17002D01*
X-9148Y16950D01*
X-9043D01*
X-8990Y17002D01*
X-8728Y16950D02*
Y17265D01*
X-8885Y17107D01*
X-8675D01*
X-8570Y16950D02*
X-8465D01*
X-8518D01*
Y17265D01*
X-8570Y17212D01*
X-8543Y16147D02*
X-8582Y16186D01*
X-8661D01*
X-8700Y16147D01*
Y15989D01*
X-8661Y15950D01*
X-8582D01*
X-8543Y15989D01*
X-8346Y15950D02*
Y16186D01*
X-8464Y16068D01*
X-8306D01*
X-8070Y15950D02*
X-8228D01*
X-8070Y16107D01*
Y16147D01*
X-8110Y16186D01*
X-8188D01*
X-8228Y16147D01*
X-10362Y16360D02*
X-10415Y16307D01*
Y16202D01*
X-10362Y16150D01*
X-10152D01*
X-10100Y16202D01*
Y16307D01*
X-10152Y16360D01*
X-10100Y16622D02*
X-10415D01*
X-10257Y16465D01*
Y16675D01*
X-10362Y16780D02*
X-10415Y16832D01*
Y16937D01*
X-10362Y16990D01*
X-10310D01*
X-10257Y16937D01*
Y16885D01*
Y16937D01*
X-10205Y16990D01*
X-10152D01*
X-10100Y16937D01*
Y16832D01*
X-10152Y16780D01*
X-11162Y16360D02*
X-11215Y16307D01*
Y16202D01*
X-11162Y16150D01*
X-10952D01*
X-10900Y16202D01*
Y16307D01*
X-10952Y16360D01*
X-10900Y16622D02*
X-11215D01*
X-11057Y16465D01*
Y16675D01*
X-10900Y16937D02*
X-11215D01*
X-11057Y16780D01*
Y16990D01*
X-11612Y16360D02*
X-11665Y16307D01*
Y16202D01*
X-11612Y16150D01*
X-11402D01*
X-11350Y16202D01*
Y16307D01*
X-11402Y16360D01*
X-11350Y16622D02*
X-11665D01*
X-11507Y16465D01*
Y16675D01*
X-11665Y16990D02*
Y16780D01*
X-11507D01*
X-11560Y16885D01*
Y16937D01*
X-11507Y16990D01*
X-11402D01*
X-11350Y16937D01*
Y16832D01*
X-11402Y16780D01*
X-10262Y12160D02*
X-10315Y12107D01*
Y12002D01*
X-10262Y11950D01*
X-10052D01*
X-10000Y12002D01*
Y12107D01*
X-10052Y12160D01*
X-10000Y12422D02*
X-10315D01*
X-10157Y12265D01*
Y12475D01*
X-10315Y12790D02*
X-10262Y12685D01*
X-10157Y12580D01*
X-10052D01*
X-10000Y12632D01*
Y12737D01*
X-10052Y12790D01*
X-10105D01*
X-10157Y12737D01*
Y12580D01*
X-11162Y12160D02*
X-11215Y12107D01*
Y12002D01*
X-11162Y11950D01*
X-10952D01*
X-10900Y12002D01*
Y12107D01*
X-10952Y12160D01*
X-10900Y12422D02*
X-11215D01*
X-11057Y12265D01*
Y12475D01*
X-11215Y12580D02*
Y12790D01*
X-11162D01*
X-10952Y12580D01*
X-10900D01*
X-11612Y12160D02*
X-11665Y12107D01*
Y12002D01*
X-11612Y11950D01*
X-11402D01*
X-11350Y12002D01*
Y12107D01*
X-11402Y12160D01*
X-11350Y12422D02*
X-11665D01*
X-11507Y12265D01*
Y12475D01*
X-11612Y12580D02*
X-11665Y12632D01*
Y12737D01*
X-11612Y12790D01*
X-11560D01*
X-11507Y12737D01*
X-11455Y12790D01*
X-11402D01*
X-11350Y12737D01*
Y12632D01*
X-11402Y12580D01*
X-11455D01*
X-11507Y12632D01*
X-11560Y12580D01*
X-11612D01*
X-11507Y12632D02*
Y12737D01*
X-9390Y12562D02*
X-9443Y12615D01*
X-9548D01*
X-9600Y12562D01*
Y12352D01*
X-9548Y12300D01*
X-9443D01*
X-9390Y12352D01*
X-9128Y12300D02*
Y12615D01*
X-9285Y12457D01*
X-9075D01*
X-8970Y12352D02*
X-8918Y12300D01*
X-8813D01*
X-8760Y12352D01*
Y12562D01*
X-8813Y12615D01*
X-8918D01*
X-8970Y12562D01*
Y12510D01*
X-8918Y12457D01*
X-8760D01*
X-4860Y9434D02*
X-4913Y9487D01*
X-5018D01*
X-5070Y9434D01*
Y9224D01*
X-5018Y9172D01*
X-4913D01*
X-4860Y9224D01*
X-4545Y9487D02*
X-4755D01*
Y9329D01*
X-4650Y9382D01*
X-4598D01*
X-4545Y9329D01*
Y9224D01*
X-4598Y9172D01*
X-4703D01*
X-4755Y9224D01*
X-4440Y9434D02*
X-4388Y9487D01*
X-4283D01*
X-4230Y9434D01*
Y9224D01*
X-4283Y9172D01*
X-4388D01*
X-4440Y9224D01*
Y9434D01*
X-6160D02*
X-6213Y9487D01*
X-6318D01*
X-6370Y9434D01*
Y9224D01*
X-6318Y9172D01*
X-6213D01*
X-6160Y9224D01*
X-5845Y9487D02*
X-6055D01*
Y9329D01*
X-5950Y9382D01*
X-5898D01*
X-5845Y9329D01*
Y9224D01*
X-5898Y9172D01*
X-6003D01*
X-6055Y9224D01*
X-5740Y9172D02*
X-5635D01*
X-5688D01*
Y9487D01*
X-5740Y9434D01*
X-35430Y46117D02*
Y45802D01*
X-35272D01*
X-35220Y45854D01*
Y46064D01*
X-35272Y46117D01*
X-35430D01*
X-34905Y46064D02*
X-34957Y46117D01*
X-35062D01*
X-35115Y46064D01*
Y46012D01*
X-35062Y45959D01*
X-34957D01*
X-34905Y45907D01*
Y45854D01*
X-34957Y45802D01*
X-35062D01*
X-35115Y45854D01*
X-34800Y45802D02*
X-34695D01*
X-34747D01*
Y46117D01*
X-34800Y46064D01*
X-7415Y14600D02*
X-7100D01*
Y14810D01*
X-7415Y15125D02*
Y14915D01*
X-7257D01*
X-7310Y15020D01*
Y15072D01*
X-7257Y15125D01*
X-7152D01*
X-7100Y15072D01*
Y14967D01*
X-7152Y14915D01*
X-7415Y13200D02*
X-7100D01*
Y13410D01*
X-7415Y13725D02*
X-7362Y13620D01*
X-7257Y13515D01*
X-7152D01*
X-7100Y13567D01*
Y13672D01*
X-7152Y13725D01*
X-7205D01*
X-7257Y13672D01*
Y13515D01*
X-21470Y28087D02*
Y27772D01*
X-21260D01*
X-20945Y28034D02*
X-20998Y28087D01*
X-21103D01*
X-21155Y28034D01*
Y27982D01*
X-21103Y27929D01*
X-20998D01*
X-20945Y27877D01*
Y27824D01*
X-20998Y27772D01*
X-21103D01*
X-21155Y27824D01*
X-20840Y27772D02*
X-20735D01*
X-20788D01*
Y28087D01*
X-20840Y28034D01*
X-5870Y16772D02*
X-6185D01*
Y16929D01*
X-6132Y16982D01*
X-6028D01*
X-5975Y16929D01*
Y16772D01*
Y16877D02*
X-5870Y16982D01*
X-6132Y17087D02*
X-6185Y17139D01*
Y17244D01*
X-6132Y17296D01*
X-6080D01*
X-6028Y17244D01*
Y17191D01*
Y17244D01*
X-5975Y17296D01*
X-5923D01*
X-5870Y17244D01*
Y17139D01*
X-5923Y17087D01*
X-6185Y17611D02*
X-6132Y17506D01*
X-6028Y17401D01*
X-5923D01*
X-5870Y17454D01*
Y17559D01*
X-5923Y17611D01*
X-5975D01*
X-6028Y17559D01*
Y17401D01*
X-5820Y12472D02*
Y12787D01*
X-5663D01*
X-5610Y12734D01*
Y12629D01*
X-5663Y12577D01*
X-5820D01*
X-5715D02*
X-5610Y12472D01*
X-5505Y12734D02*
X-5453Y12787D01*
X-5348D01*
X-5295Y12734D01*
Y12682D01*
X-5348Y12629D01*
X-5400D01*
X-5348D01*
X-5295Y12577D01*
Y12524D01*
X-5348Y12472D01*
X-5453D01*
X-5505Y12524D01*
X-5190Y12787D02*
X-4980D01*
Y12734D01*
X-5190Y12524D01*
Y12472D01*
X-7600Y16900D02*
X-7915D01*
Y17057D01*
X-7862Y17110D01*
X-7757D01*
X-7705Y17057D01*
Y16900D01*
Y17005D02*
X-7600Y17110D01*
X-7862Y17215D02*
X-7915Y17267D01*
Y17372D01*
X-7862Y17425D01*
X-7810D01*
X-7757Y17372D01*
Y17320D01*
Y17372D01*
X-7705Y17425D01*
X-7652D01*
X-7600Y17372D01*
Y17267D01*
X-7652Y17215D01*
X-7862Y17530D02*
X-7915Y17582D01*
Y17687D01*
X-7862Y17740D01*
X-7810D01*
X-7757Y17687D01*
X-7705Y17740D01*
X-7652D01*
X-7600Y17687D01*
Y17582D01*
X-7652Y17530D01*
X-7705D01*
X-7757Y17582D01*
X-7810Y17530D01*
X-7862D01*
X-7757Y17582D02*
Y17687D01*
X-37010Y12434D02*
X-37063Y12487D01*
X-37168D01*
X-37220Y12434D01*
Y12382D01*
X-37168Y12329D01*
X-37063D01*
X-37010Y12277D01*
Y12224D01*
X-37063Y12172D01*
X-37168D01*
X-37220Y12224D01*
X-36905Y12172D02*
X-36800D01*
X-36853D01*
Y12487D01*
X-36905Y12434D01*
X-30260Y28234D02*
X-30313Y28287D01*
X-30418D01*
X-30470Y28234D01*
Y28182D01*
X-30418Y28129D01*
X-30313D01*
X-30260Y28077D01*
Y28024D01*
X-30313Y27972D01*
X-30418D01*
X-30470Y28024D01*
X-29945Y27972D02*
X-30155D01*
X-29945Y28182D01*
Y28234D01*
X-29998Y28287D01*
X-30103D01*
X-30155Y28234D01*
X-10960Y28134D02*
X-11013Y28187D01*
X-11118D01*
X-11170Y28134D01*
Y28082D01*
X-11118Y28029D01*
X-11013D01*
X-10960Y27977D01*
Y27924D01*
X-11013Y27872D01*
X-11118D01*
X-11170Y27924D01*
X-10855Y28134D02*
X-10803Y28187D01*
X-10698D01*
X-10645Y28134D01*
Y28082D01*
X-10698Y28029D01*
X-10750D01*
X-10698D01*
X-10645Y27977D01*
Y27924D01*
X-10698Y27872D01*
X-10803D01*
X-10855Y27924D01*
X-4570Y15287D02*
Y15024D01*
X-4518Y14972D01*
X-4413D01*
X-4360Y15024D01*
Y15287D01*
X-4045D02*
X-4255D01*
Y15129D01*
X-4150Y15182D01*
X-4098D01*
X-4045Y15129D01*
Y15024D01*
X-4098Y14972D01*
X-4203D01*
X-4255Y15024D01*
X-7970Y10687D02*
Y10634D01*
X-7865Y10529D01*
X-7760Y10634D01*
Y10687D01*
X-7865Y10529D02*
Y10372D01*
X-7498D02*
Y10687D01*
X-7655Y10529D01*
X-7445D01*
D69*
X-21457Y26587D02*
Y27571D01*
X-17913D01*
Y26587D02*
Y27571D01*
Y24028D02*
Y25012D01*
X-21457Y24028D02*
X-17913D01*
X-21457D02*
Y25012D01*
X-6679Y13159D02*
X-6561D01*
X-6679D02*
Y13277D01*
Y15009D02*
Y15127D01*
X-6561D01*
X-4828D02*
X-4710D01*
Y15009D02*
Y15127D01*
X-4828Y13159D02*
X-4710D01*
Y13277D01*
M02*
