G04 Layer_Color=11599871*
%FSLAX24Y24*%
%MOIN*%
G70*
G01*
G75*
%ADD19C,0.0118*%
%ADD23C,0.0236*%
%ADD40C,0.0100*%
%ADD65C,0.0098*%
%ADD66C,0.0079*%
%ADD67C,0.0010*%
%ADD68C,0.0059*%
%ADD69C,0.0050*%
%ADD116C,0.0080*%
G36*
X-22674Y9989D02*
X-22663Y9988D01*
X-22651Y9984D01*
X-22641Y9981D01*
X-22621Y9971D01*
X-22613Y9967D01*
X-22605Y9961D01*
X-22597Y9956D01*
X-22591Y9951D01*
X-22586Y9945D01*
X-22581Y9941D01*
X-22577Y9938D01*
X-22575Y9935D01*
X-22573Y9933D01*
X-22573Y9932D01*
Y9982D01*
X-22484D01*
Y9617D01*
X-22580D01*
Y9794D01*
Y9812D01*
X-22582Y9828D01*
X-22583Y9841D01*
X-22584Y9851D01*
X-22586Y9858D01*
X-22587Y9864D01*
X-22588Y9868D01*
Y9868D01*
X-22591Y9877D01*
X-22595Y9884D01*
X-22600Y9890D01*
X-22603Y9895D01*
X-22607Y9898D01*
X-22610Y9901D01*
X-22613Y9903D01*
X-22613Y9904D01*
X-22620Y9908D01*
X-22627Y9911D01*
X-22634Y9913D01*
X-22640Y9915D01*
X-22646Y9915D01*
X-22650Y9916D01*
X-22661D01*
X-22666Y9915D01*
X-22672Y9914D01*
X-22676Y9912D01*
X-22679Y9911D01*
X-22681Y9910D01*
X-22683Y9908D01*
X-22683D01*
X-22690Y9901D01*
X-22696Y9894D01*
X-22697Y9891D01*
X-22699Y9888D01*
X-22699Y9886D01*
Y9885D01*
X-22700Y9882D01*
X-22701Y9878D01*
X-22703Y9868D01*
X-22703Y9857D01*
X-22704Y9845D01*
X-22705Y9834D01*
Y9825D01*
Y9822D01*
Y9819D01*
Y9817D01*
Y9816D01*
Y9617D01*
X-22802D01*
Y9792D01*
Y9809D01*
X-22803Y9825D01*
X-22804Y9838D01*
X-22805Y9849D01*
X-22807Y9857D01*
X-22808Y9862D01*
X-22809Y9866D01*
Y9867D01*
X-22812Y9875D01*
X-22816Y9882D01*
X-22821Y9889D01*
X-22825Y9894D01*
X-22828Y9898D01*
X-22832Y9901D01*
X-22834Y9902D01*
X-22835Y9903D01*
X-22841Y9908D01*
X-22848Y9911D01*
X-22855Y9913D01*
X-22861Y9915D01*
X-22866Y9915D01*
X-22870Y9916D01*
X-22873D01*
X-22883Y9915D01*
X-22891Y9913D01*
X-22898Y9909D01*
X-22904Y9906D01*
X-22908Y9902D01*
X-22912Y9898D01*
X-22914Y9896D01*
X-22914Y9895D01*
X-22916Y9892D01*
X-22918Y9888D01*
X-22921Y9878D01*
X-22922Y9866D01*
X-22923Y9854D01*
X-22924Y9843D01*
X-22924Y9833D01*
Y9830D01*
Y9827D01*
Y9825D01*
Y9825D01*
Y9617D01*
X-23021D01*
Y9849D01*
X-23020Y9868D01*
X-23020Y9883D01*
X-23018Y9896D01*
X-23017Y9907D01*
X-23014Y9915D01*
X-23013Y9921D01*
X-23012Y9925D01*
X-23011Y9925D01*
X-23006Y9936D01*
X-22999Y9946D01*
X-22992Y9954D01*
X-22985Y9961D01*
X-22979Y9966D01*
X-22974Y9970D01*
X-22971Y9972D01*
X-22969Y9973D01*
X-22958Y9978D01*
X-22947Y9983D01*
X-22935Y9986D01*
X-22925Y9988D01*
X-22915Y9989D01*
X-22908Y9990D01*
X-22901D01*
X-22890Y9989D01*
X-22879Y9988D01*
X-22868Y9985D01*
X-22860Y9983D01*
X-22852Y9980D01*
X-22846Y9978D01*
X-22843Y9976D01*
X-22841Y9975D01*
X-22832Y9969D01*
X-22822Y9962D01*
X-22813Y9955D01*
X-22805Y9948D01*
X-22799Y9941D01*
X-22794Y9936D01*
X-22791Y9933D01*
X-22790Y9931D01*
X-22783Y9941D01*
X-22776Y9951D01*
X-22769Y9958D01*
X-22762Y9964D01*
X-22756Y9969D01*
X-22752Y9972D01*
X-22749Y9974D01*
X-22747Y9975D01*
X-22737Y9980D01*
X-22727Y9984D01*
X-22717Y9986D01*
X-22707Y9988D01*
X-22699Y9989D01*
X-22693Y9990D01*
X-22686D01*
X-22674Y9989D01*
D02*
G37*
G36*
X-19817D02*
X-19806Y9988D01*
X-19794Y9984D01*
X-19784Y9981D01*
X-19764Y9971D01*
X-19756Y9967D01*
X-19748Y9961D01*
X-19740Y9956D01*
X-19734Y9951D01*
X-19729Y9945D01*
X-19724Y9941D01*
X-19720Y9938D01*
X-19718Y9935D01*
X-19717Y9933D01*
X-19716Y9932D01*
Y9982D01*
X-19627D01*
Y9617D01*
X-19723D01*
Y9794D01*
Y9812D01*
X-19725Y9828D01*
X-19726Y9841D01*
X-19727Y9851D01*
X-19729Y9858D01*
X-19730Y9864D01*
X-19731Y9868D01*
Y9868D01*
X-19734Y9877D01*
X-19738Y9884D01*
X-19743Y9890D01*
X-19746Y9895D01*
X-19750Y9898D01*
X-19753Y9901D01*
X-19756Y9903D01*
X-19756Y9904D01*
X-19763Y9908D01*
X-19770Y9911D01*
X-19777Y9913D01*
X-19783Y9915D01*
X-19789Y9915D01*
X-19793Y9916D01*
X-19804D01*
X-19809Y9915D01*
X-19815Y9914D01*
X-19819Y9912D01*
X-19822Y9911D01*
X-19824Y9910D01*
X-19826Y9908D01*
X-19826D01*
X-19833Y9901D01*
X-19839Y9894D01*
X-19840Y9891D01*
X-19842Y9888D01*
X-19842Y9886D01*
Y9885D01*
X-19843Y9882D01*
X-19844Y9878D01*
X-19846Y9868D01*
X-19846Y9857D01*
X-19847Y9845D01*
X-19848Y9834D01*
Y9825D01*
Y9822D01*
Y9819D01*
Y9817D01*
Y9816D01*
Y9617D01*
X-19945D01*
Y9792D01*
Y9809D01*
X-19946Y9825D01*
X-19947Y9838D01*
X-19948Y9849D01*
X-19950Y9857D01*
X-19951Y9862D01*
X-19952Y9866D01*
Y9867D01*
X-19955Y9875D01*
X-19959Y9882D01*
X-19964Y9889D01*
X-19968Y9894D01*
X-19971Y9898D01*
X-19975Y9901D01*
X-19977Y9902D01*
X-19978Y9903D01*
X-19985Y9908D01*
X-19991Y9911D01*
X-19998Y9913D01*
X-20004Y9915D01*
X-20009Y9915D01*
X-20013Y9916D01*
X-20016D01*
X-20026Y9915D01*
X-20034Y9913D01*
X-20041Y9909D01*
X-20048Y9906D01*
X-20051Y9902D01*
X-20055Y9898D01*
X-20057Y9896D01*
X-20057Y9895D01*
X-20059Y9892D01*
X-20061Y9888D01*
X-20064Y9878D01*
X-20065Y9866D01*
X-20066Y9854D01*
X-20067Y9843D01*
X-20067Y9833D01*
Y9830D01*
Y9827D01*
Y9825D01*
Y9825D01*
Y9617D01*
X-20164D01*
Y9849D01*
X-20163Y9868D01*
X-20163Y9883D01*
X-20161Y9896D01*
X-20160Y9907D01*
X-20157Y9915D01*
X-20156Y9921D01*
X-20155Y9925D01*
X-20154Y9925D01*
X-20149Y9936D01*
X-20142Y9946D01*
X-20135Y9954D01*
X-20128Y9961D01*
X-20122Y9966D01*
X-20117Y9970D01*
X-20114Y9972D01*
X-20112Y9973D01*
X-20101Y9978D01*
X-20090Y9983D01*
X-20078Y9986D01*
X-20068Y9988D01*
X-20058Y9989D01*
X-20051Y9990D01*
X-20044D01*
X-20033Y9989D01*
X-20022Y9988D01*
X-20011Y9985D01*
X-20003Y9983D01*
X-19995Y9980D01*
X-19989Y9978D01*
X-19986Y9976D01*
X-19985Y9975D01*
X-19975Y9969D01*
X-19965Y9962D01*
X-19956Y9955D01*
X-19948Y9948D01*
X-19942Y9941D01*
X-19937Y9936D01*
X-19934Y9933D01*
X-19933Y9931D01*
X-19926Y9941D01*
X-19919Y9951D01*
X-19912Y9958D01*
X-19905Y9964D01*
X-19899Y9969D01*
X-19895Y9972D01*
X-19892Y9974D01*
X-19890Y9975D01*
X-19880Y9980D01*
X-19870Y9984D01*
X-19860Y9986D01*
X-19850Y9988D01*
X-19842Y9989D01*
X-19836Y9990D01*
X-19829D01*
X-19817Y9989D01*
D02*
G37*
G36*
X-20378D02*
X-20366Y9988D01*
X-20356Y9986D01*
X-20346Y9984D01*
X-20338Y9981D01*
X-20329Y9979D01*
X-20322Y9977D01*
X-20316Y9974D01*
X-20311Y9972D01*
X-20306Y9970D01*
X-20303Y9968D01*
X-20299Y9966D01*
X-20297Y9964D01*
X-20296Y9964D01*
X-20296D01*
X-20283Y9953D01*
X-20273Y9941D01*
X-20263Y9928D01*
X-20256Y9915D01*
X-20252Y9904D01*
X-20248Y9895D01*
X-20246Y9892D01*
X-20246Y9888D01*
X-20245Y9887D01*
Y9886D01*
X-20332Y9870D01*
X-20335Y9878D01*
X-20339Y9886D01*
X-20342Y9892D01*
X-20346Y9897D01*
X-20349Y9901D01*
X-20352Y9903D01*
X-20354Y9905D01*
X-20355Y9905D01*
X-20361Y9909D01*
X-20367Y9911D01*
X-20381Y9915D01*
X-20386Y9915D01*
X-20391Y9916D01*
X-20395D01*
X-20408Y9915D01*
X-20420Y9915D01*
X-20429Y9912D01*
X-20436Y9910D01*
X-20442Y9908D01*
X-20445Y9906D01*
X-20447Y9905D01*
X-20448Y9904D01*
X-20452Y9898D01*
X-20455Y9892D01*
X-20458Y9886D01*
X-20460Y9879D01*
X-20461Y9873D01*
X-20461Y9868D01*
Y9865D01*
Y9864D01*
Y9855D01*
X-20456Y9852D01*
X-20450Y9850D01*
X-20435Y9846D01*
X-20420Y9842D01*
X-20405Y9839D01*
X-20390Y9835D01*
X-20384Y9834D01*
X-20378Y9833D01*
X-20373Y9832D01*
X-20370Y9832D01*
X-20368Y9831D01*
X-20367D01*
X-20349Y9827D01*
X-20334Y9823D01*
X-20321Y9819D01*
X-20310Y9815D01*
X-20302Y9812D01*
X-20296Y9810D01*
X-20292Y9809D01*
X-20290Y9808D01*
X-20281Y9802D01*
X-20273Y9796D01*
X-20266Y9790D01*
X-20260Y9784D01*
X-20256Y9779D01*
X-20253Y9774D01*
X-20250Y9771D01*
X-20250Y9770D01*
X-20245Y9761D01*
X-20241Y9752D01*
X-20239Y9743D01*
X-20236Y9734D01*
X-20236Y9726D01*
X-20235Y9721D01*
Y9717D01*
Y9716D01*
X-20236Y9699D01*
X-20240Y9683D01*
X-20245Y9670D01*
X-20251Y9659D01*
X-20257Y9650D01*
X-20262Y9643D01*
X-20266Y9639D01*
X-20267Y9637D01*
X-20280Y9627D01*
X-20295Y9620D01*
X-20309Y9615D01*
X-20324Y9611D01*
X-20336Y9609D01*
X-20342Y9608D01*
X-20347D01*
X-20351Y9607D01*
X-20356D01*
X-20368Y9608D01*
X-20379Y9609D01*
X-20389Y9611D01*
X-20398Y9614D01*
X-20405Y9615D01*
X-20412Y9617D01*
X-20415Y9618D01*
X-20416Y9619D01*
X-20427Y9624D01*
X-20436Y9630D01*
X-20445Y9636D01*
X-20453Y9642D01*
X-20460Y9647D01*
X-20465Y9652D01*
X-20468Y9655D01*
X-20469Y9656D01*
X-20470Y9653D01*
X-20471Y9649D01*
X-20472Y9646D01*
Y9645D01*
Y9644D01*
X-20475Y9638D01*
X-20476Y9632D01*
X-20478Y9627D01*
X-20480Y9623D01*
X-20481Y9620D01*
X-20481Y9618D01*
X-20482Y9617D01*
Y9617D01*
X-20577D01*
X-20573Y9627D01*
X-20569Y9635D01*
X-20566Y9643D01*
X-20564Y9650D01*
X-20562Y9657D01*
X-20561Y9661D01*
X-20560Y9664D01*
Y9665D01*
X-20558Y9675D01*
X-20557Y9686D01*
X-20556Y9698D01*
Y9710D01*
X-20555Y9720D01*
Y9729D01*
Y9732D01*
Y9734D01*
Y9736D01*
Y9736D01*
X-20557Y9849D01*
Y9860D01*
X-20556Y9870D01*
X-20555Y9880D01*
X-20554Y9888D01*
X-20554Y9897D01*
X-20553Y9904D01*
X-20551Y9910D01*
X-20551Y9915D01*
X-20547Y9925D01*
X-20546Y9931D01*
X-20544Y9935D01*
X-20544Y9935D01*
X-20538Y9944D01*
X-20531Y9951D01*
X-20524Y9958D01*
X-20517Y9964D01*
X-20510Y9968D01*
X-20504Y9971D01*
X-20501Y9974D01*
X-20499Y9974D01*
X-20493Y9978D01*
X-20486Y9980D01*
X-20471Y9984D01*
X-20455Y9986D01*
X-20439Y9988D01*
X-20425Y9989D01*
X-20418D01*
X-20413Y9990D01*
X-20389D01*
X-20378Y9989D01*
D02*
G37*
G36*
X-16494Y9617D02*
X-16588D01*
X-16650Y9852D01*
X-16713Y9617D01*
X-16806D01*
X-16923Y9982D01*
X-16828D01*
X-16758Y9743D01*
X-16697Y9982D01*
X-16604D01*
X-16541Y9743D01*
X-16472Y9982D01*
X-16379D01*
X-16494Y9617D01*
D02*
G37*
G36*
X-21078D02*
X-21175D01*
Y9733D01*
X-21219Y9781D01*
X-21312Y9617D01*
X-21416D01*
X-21282Y9849D01*
X-21407Y9982D01*
X-21288D01*
X-21175Y9853D01*
Y10121D01*
X-21078D01*
Y9617D01*
D02*
G37*
G36*
X-21349Y10604D02*
X-21342Y10603D01*
X-21335Y10601D01*
X-21329Y10599D01*
X-21323Y10597D01*
X-21319Y10595D01*
X-21317Y10594D01*
X-21316Y10593D01*
X-21309Y10588D01*
X-21302Y10581D01*
X-21295Y10573D01*
X-21289Y10565D01*
X-21283Y10557D01*
X-21279Y10551D01*
X-21276Y10546D01*
X-21275Y10545D01*
Y10597D01*
X-21185D01*
Y10231D01*
X-21282D01*
Y10343D01*
Y10360D01*
Y10376D01*
X-21282Y10389D01*
X-21283Y10402D01*
Y10413D01*
X-21284Y10423D01*
X-21285Y10432D01*
X-21286Y10439D01*
X-21286Y10446D01*
X-21287Y10452D01*
X-21288Y10456D01*
Y10459D01*
X-21289Y10462D01*
X-21289Y10464D01*
Y10466D01*
X-21292Y10475D01*
X-21296Y10484D01*
X-21300Y10492D01*
X-21304Y10497D01*
X-21307Y10501D01*
X-21309Y10504D01*
X-21311Y10505D01*
X-21312Y10506D01*
X-21317Y10510D01*
X-21323Y10513D01*
X-21329Y10515D01*
X-21335Y10516D01*
X-21339Y10517D01*
X-21343Y10518D01*
X-21346D01*
X-21355Y10517D01*
X-21362Y10515D01*
X-21370Y10512D01*
X-21378Y10510D01*
X-21383Y10507D01*
X-21388Y10504D01*
X-21392Y10502D01*
X-21392Y10502D01*
X-21422Y10586D01*
X-21411Y10592D01*
X-21399Y10597D01*
X-21388Y10600D01*
X-21378Y10602D01*
X-21370Y10604D01*
X-21363Y10605D01*
X-21358D01*
X-21349Y10604D01*
D02*
G37*
G36*
X-19976Y10231D02*
X-20073D01*
Y10597D01*
X-19976D01*
Y10231D01*
D02*
G37*
G36*
X-21660D02*
X-21762D01*
Y10442D01*
X-21795D01*
X-21805Y10441D01*
X-21814Y10440D01*
X-21821Y10439D01*
X-21826Y10438D01*
X-21830Y10436D01*
X-21832Y10436D01*
X-21833D01*
X-21839Y10433D01*
X-21845Y10430D01*
X-21855Y10423D01*
X-21858Y10420D01*
X-21862Y10417D01*
X-21863Y10416D01*
X-21864Y10415D01*
X-21867Y10412D01*
X-21870Y10407D01*
X-21878Y10396D01*
X-21888Y10385D01*
X-21896Y10372D01*
X-21905Y10360D01*
X-21908Y10355D01*
X-21911Y10350D01*
X-21914Y10346D01*
X-21916Y10343D01*
X-21917Y10341D01*
X-21918Y10340D01*
X-21990Y10231D01*
X-22112D01*
X-22050Y10330D01*
X-22044Y10340D01*
X-22037Y10350D01*
X-22032Y10359D01*
X-22026Y10367D01*
X-22017Y10381D01*
X-22008Y10393D01*
X-22001Y10401D01*
X-21997Y10406D01*
X-21994Y10410D01*
X-21993Y10411D01*
X-21984Y10419D01*
X-21975Y10427D01*
X-21966Y10435D01*
X-21958Y10441D01*
X-21950Y10446D01*
X-21944Y10450D01*
X-21940Y10452D01*
X-21939Y10453D01*
X-21938D01*
X-21951Y10456D01*
X-21961Y10458D01*
X-21972Y10461D01*
X-21981Y10465D01*
X-21991Y10469D01*
X-21999Y10472D01*
X-22006Y10476D01*
X-22013Y10480D01*
X-22018Y10484D01*
X-22024Y10488D01*
X-22027Y10492D01*
X-22031Y10494D01*
X-22034Y10497D01*
X-22036Y10499D01*
X-22037Y10499D01*
Y10500D01*
X-22044Y10507D01*
X-22049Y10515D01*
X-22057Y10530D01*
X-22063Y10546D01*
X-22067Y10561D01*
X-22070Y10574D01*
X-22070Y10579D01*
Y10585D01*
X-22071Y10588D01*
Y10591D01*
Y10593D01*
Y10594D01*
X-22070Y10610D01*
X-22068Y10625D01*
X-22064Y10638D01*
X-22060Y10650D01*
X-22056Y10660D01*
X-22053Y10667D01*
X-22050Y10671D01*
X-22049Y10673D01*
X-22040Y10685D01*
X-22030Y10695D01*
X-22021Y10704D01*
X-22011Y10711D01*
X-22003Y10716D01*
X-21996Y10720D01*
X-21991Y10721D01*
X-21991Y10722D01*
X-21990D01*
X-21983Y10724D01*
X-21974Y10727D01*
X-21956Y10730D01*
X-21937Y10733D01*
X-21918Y10734D01*
X-21909Y10735D01*
X-21893D01*
X-21886Y10736D01*
X-21660D01*
Y10231D01*
D02*
G37*
G36*
X-20886Y10032D02*
X-20983D01*
Y10121D01*
X-20886D01*
Y10032D01*
D02*
G37*
G36*
X-22951Y10231D02*
X-23047D01*
Y10328D01*
X-22951D01*
Y10231D01*
D02*
G37*
G36*
X-17042Y9617D02*
X-17135D01*
X-17197Y9852D01*
X-17260Y9617D01*
X-17353D01*
X-17471Y9982D01*
X-17376D01*
X-17306Y9743D01*
X-17245Y9982D01*
X-17151D01*
X-17088Y9743D01*
X-17020Y9982D01*
X-16926D01*
X-17042Y9617D01*
D02*
G37*
G36*
X-18460Y9989D02*
X-18447Y9988D01*
X-18435Y9984D01*
X-18424Y9981D01*
X-18413Y9975D01*
X-18403Y9971D01*
X-18395Y9964D01*
X-18386Y9959D01*
X-18379Y9954D01*
X-18373Y9948D01*
X-18366Y9943D01*
X-18362Y9938D01*
X-18358Y9934D01*
X-18356Y9931D01*
X-18354Y9929D01*
X-18353Y9928D01*
Y9982D01*
X-18263D01*
Y9617D01*
X-18360D01*
Y9782D01*
Y9792D01*
Y9803D01*
X-18361Y9812D01*
Y9821D01*
X-18362Y9829D01*
X-18363Y9835D01*
X-18363Y9842D01*
X-18364Y9847D01*
X-18365Y9855D01*
X-18366Y9861D01*
X-18367Y9865D01*
Y9865D01*
X-18370Y9874D01*
X-18375Y9881D01*
X-18379Y9887D01*
X-18383Y9892D01*
X-18388Y9897D01*
X-18391Y9900D01*
X-18393Y9901D01*
X-18394Y9902D01*
X-18402Y9907D01*
X-18409Y9910D01*
X-18417Y9913D01*
X-18424Y9915D01*
X-18430Y9915D01*
X-18435Y9916D01*
X-18439D01*
X-18446Y9915D01*
X-18452Y9915D01*
X-18459Y9913D01*
X-18463Y9911D01*
X-18467Y9909D01*
X-18470Y9908D01*
X-18472Y9907D01*
X-18472Y9906D01*
X-18482Y9898D01*
X-18488Y9888D01*
X-18490Y9885D01*
X-18492Y9882D01*
X-18492Y9879D01*
Y9878D01*
X-18494Y9875D01*
X-18495Y9870D01*
X-18496Y9859D01*
X-18498Y9847D01*
X-18498Y9834D01*
X-18499Y9822D01*
Y9817D01*
Y9812D01*
Y9808D01*
Y9805D01*
Y9803D01*
Y9802D01*
Y9617D01*
X-18596D01*
Y9843D01*
Y9858D01*
X-18595Y9871D01*
X-18594Y9882D01*
X-18594Y9892D01*
X-18592Y9898D01*
X-18591Y9904D01*
X-18591Y9907D01*
Y9908D01*
X-18588Y9916D01*
X-18585Y9924D01*
X-18582Y9931D01*
X-18579Y9937D01*
X-18576Y9941D01*
X-18574Y9945D01*
X-18572Y9948D01*
X-18571Y9948D01*
X-18566Y9955D01*
X-18559Y9961D01*
X-18553Y9966D01*
X-18546Y9971D01*
X-18541Y9974D01*
X-18536Y9976D01*
X-18533Y9978D01*
X-18531Y9978D01*
X-18521Y9982D01*
X-18512Y9985D01*
X-18502Y9987D01*
X-18492Y9988D01*
X-18485Y9989D01*
X-18478Y9990D01*
X-18473D01*
X-18460Y9989D01*
D02*
G37*
G36*
X-18068Y9617D02*
X-18165D01*
Y9713D01*
X-18068D01*
Y9617D01*
D02*
G37*
G36*
X-20886D02*
X-20983D01*
Y9982D01*
X-20886D01*
Y9617D01*
D02*
G37*
G36*
X-22206Y9989D02*
X-22189Y9986D01*
X-22172Y9982D01*
X-22157Y9978D01*
X-22146Y9974D01*
X-22140Y9971D01*
X-22136Y9970D01*
X-22133Y9968D01*
X-22131Y9967D01*
X-22130Y9966D01*
X-22129D01*
X-22113Y9956D01*
X-22100Y9945D01*
X-22089Y9934D01*
X-22080Y9922D01*
X-22072Y9912D01*
X-22067Y9905D01*
X-22064Y9901D01*
X-22063Y9899D01*
X-22062Y9898D01*
Y9897D01*
X-22054Y9880D01*
X-22049Y9863D01*
X-22044Y9848D01*
X-22042Y9833D01*
X-22040Y9821D01*
X-22040Y9815D01*
Y9812D01*
X-22039Y9808D01*
Y9805D01*
Y9804D01*
Y9803D01*
X-22040Y9781D01*
X-22043Y9760D01*
X-22047Y9742D01*
X-22050Y9726D01*
X-22053Y9719D01*
X-22055Y9713D01*
X-22057Y9709D01*
X-22058Y9704D01*
X-22060Y9701D01*
X-22061Y9699D01*
X-22062Y9697D01*
Y9696D01*
X-22072Y9681D01*
X-22083Y9667D01*
X-22094Y9656D01*
X-22106Y9647D01*
X-22116Y9640D01*
X-22123Y9634D01*
X-22127Y9632D01*
X-22129Y9630D01*
X-22130Y9630D01*
X-22131D01*
X-22148Y9622D01*
X-22165Y9617D01*
X-22181Y9613D01*
X-22196Y9610D01*
X-22208Y9609D01*
X-22213Y9608D01*
X-22218Y9607D01*
X-22226D01*
X-22241Y9608D01*
X-22256Y9610D01*
X-22269Y9613D01*
X-22282Y9616D01*
X-22294Y9620D01*
X-22305Y9624D01*
X-22315Y9630D01*
X-22324Y9635D01*
X-22332Y9640D01*
X-22340Y9645D01*
X-22346Y9650D01*
X-22352Y9653D01*
X-22355Y9657D01*
X-22358Y9660D01*
X-22360Y9661D01*
X-22361Y9662D01*
X-22370Y9673D01*
X-22378Y9683D01*
X-22385Y9695D01*
X-22392Y9706D01*
X-22397Y9718D01*
X-22401Y9729D01*
X-22405Y9740D01*
X-22408Y9751D01*
X-22410Y9761D01*
X-22411Y9770D01*
X-22413Y9779D01*
X-22414Y9786D01*
X-22415Y9792D01*
Y9796D01*
Y9799D01*
Y9799D01*
X-22414Y9815D01*
X-22412Y9829D01*
X-22410Y9842D01*
X-22406Y9855D01*
X-22402Y9867D01*
X-22398Y9878D01*
X-22393Y9888D01*
X-22388Y9898D01*
X-22383Y9907D01*
X-22378Y9914D01*
X-22374Y9921D01*
X-22370Y9925D01*
X-22366Y9930D01*
X-22364Y9933D01*
X-22362Y9935D01*
X-22362Y9935D01*
X-22352Y9945D01*
X-22341Y9953D01*
X-22329Y9961D01*
X-22318Y9967D01*
X-22307Y9972D01*
X-22295Y9977D01*
X-22285Y9980D01*
X-22274Y9983D01*
X-22264Y9985D01*
X-22256Y9987D01*
X-22247Y9988D01*
X-22240Y9989D01*
X-22234Y9990D01*
X-22226D01*
X-22206Y9989D01*
D02*
G37*
G36*
X-21473Y9617D02*
X-21570D01*
Y9713D01*
X-21473D01*
Y9617D01*
D02*
G37*
G36*
X-19154D02*
X-19248D01*
X-19310Y9852D01*
X-19373Y9617D01*
X-19466D01*
X-19584Y9982D01*
X-19488D01*
X-19419Y9743D01*
X-19358Y9982D01*
X-19264D01*
X-19201Y9743D01*
X-19133Y9982D01*
X-19039D01*
X-19154Y9617D01*
D02*
G37*
G36*
X-17589D02*
X-17683D01*
X-17745Y9852D01*
X-17808Y9617D01*
X-17901D01*
X-18018Y9982D01*
X-17923D01*
X-17853Y9743D01*
X-17793Y9982D01*
X-17699D01*
X-17636Y9743D01*
X-17568Y9982D01*
X-17474D01*
X-17589Y9617D01*
D02*
G37*
G36*
X-20657Y10054D02*
Y9982D01*
X-20612D01*
Y9905D01*
X-20657D01*
Y9745D01*
Y9736D01*
Y9727D01*
X-20657Y9713D01*
Y9700D01*
X-20658Y9691D01*
X-20659Y9685D01*
Y9680D01*
X-20660Y9677D01*
Y9676D01*
X-20661Y9668D01*
X-20663Y9660D01*
X-20665Y9654D01*
X-20667Y9648D01*
X-20670Y9644D01*
X-20671Y9640D01*
X-20672Y9639D01*
X-20673Y9638D01*
X-20677Y9633D01*
X-20682Y9629D01*
X-20692Y9622D01*
X-20696Y9619D01*
X-20700Y9617D01*
X-20703Y9617D01*
X-20703Y9616D01*
X-20711Y9613D01*
X-20720Y9611D01*
X-20727Y9610D01*
X-20735Y9608D01*
X-20741D01*
X-20746Y9607D01*
X-20750D01*
X-20766Y9608D01*
X-20780Y9610D01*
X-20793Y9612D01*
X-20805Y9614D01*
X-20814Y9617D01*
X-20821Y9619D01*
X-20826Y9620D01*
X-20827Y9621D01*
X-20819Y9696D01*
X-20809Y9693D01*
X-20802Y9691D01*
X-20795Y9690D01*
X-20789Y9689D01*
X-20785Y9688D01*
X-20782Y9687D01*
X-20779D01*
X-20773Y9688D01*
X-20768Y9690D01*
X-20765Y9691D01*
X-20763Y9692D01*
X-20759Y9696D01*
X-20756Y9700D01*
X-20755Y9703D01*
Y9704D01*
Y9706D01*
X-20754Y9709D01*
Y9716D01*
Y9724D01*
X-20753Y9733D01*
Y9742D01*
Y9749D01*
Y9753D01*
Y9755D01*
Y9756D01*
Y9756D01*
Y9905D01*
X-20819D01*
Y9982D01*
X-20753D01*
Y10111D01*
X-20657Y10054D01*
D02*
G37*
G36*
X-18820Y9989D02*
X-18807Y9988D01*
X-18796Y9985D01*
X-18784Y9981D01*
X-18773Y9978D01*
X-18763Y9974D01*
X-18755Y9968D01*
X-18747Y9964D01*
X-18739Y9959D01*
X-18733Y9954D01*
X-18727Y9950D01*
X-18722Y9946D01*
X-18718Y9942D01*
X-18716Y9940D01*
X-18714Y9938D01*
X-18714Y9938D01*
X-18705Y9928D01*
X-18698Y9917D01*
X-18692Y9905D01*
X-18687Y9894D01*
X-18682Y9882D01*
X-18678Y9870D01*
X-18673Y9847D01*
X-18671Y9837D01*
X-18669Y9827D01*
X-18668Y9818D01*
X-18667Y9811D01*
X-18667Y9804D01*
Y9799D01*
Y9796D01*
Y9796D01*
X-18667Y9782D01*
X-18668Y9769D01*
X-18672Y9744D01*
X-18675Y9733D01*
X-18678Y9723D01*
X-18681Y9713D01*
X-18684Y9704D01*
X-18687Y9696D01*
X-18690Y9690D01*
X-18694Y9683D01*
X-18697Y9679D01*
X-18699Y9675D01*
X-18700Y9672D01*
X-18702Y9670D01*
Y9670D01*
X-18711Y9659D01*
X-18721Y9649D01*
X-18732Y9640D01*
X-18743Y9633D01*
X-18755Y9627D01*
X-18767Y9623D01*
X-18779Y9618D01*
X-18790Y9615D01*
X-18801Y9613D01*
X-18811Y9610D01*
X-18819Y9610D01*
X-18828Y9608D01*
X-18834D01*
X-18839Y9607D01*
X-18843D01*
X-18865Y9609D01*
X-18884Y9612D01*
X-18901Y9616D01*
X-18915Y9621D01*
X-18927Y9627D01*
X-18932Y9629D01*
X-18936Y9630D01*
X-18939Y9633D01*
X-18942Y9633D01*
X-18942Y9635D01*
X-18943D01*
X-18957Y9647D01*
X-18969Y9660D01*
X-18979Y9673D01*
X-18988Y9686D01*
X-18994Y9697D01*
X-18997Y9703D01*
X-18998Y9707D01*
X-19000Y9710D01*
X-19001Y9713D01*
X-19002Y9715D01*
Y9716D01*
X-18906Y9732D01*
X-18903Y9722D01*
X-18899Y9714D01*
X-18895Y9707D01*
X-18891Y9702D01*
X-18888Y9697D01*
X-18885Y9694D01*
X-18883Y9693D01*
X-18882Y9692D01*
X-18876Y9688D01*
X-18870Y9685D01*
X-18863Y9683D01*
X-18858Y9681D01*
X-18853Y9680D01*
X-18848Y9680D01*
X-18844D01*
X-18833Y9680D01*
X-18822Y9683D01*
X-18812Y9687D01*
X-18804Y9692D01*
X-18797Y9696D01*
X-18793Y9700D01*
X-18790Y9703D01*
X-18789Y9703D01*
X-18781Y9713D01*
X-18776Y9724D01*
X-18772Y9735D01*
X-18769Y9746D01*
X-18767Y9756D01*
X-18766Y9764D01*
X-18766Y9767D01*
Y9769D01*
Y9770D01*
Y9771D01*
X-19008D01*
Y9791D01*
X-19006Y9810D01*
X-19004Y9827D01*
X-19001Y9843D01*
X-18998Y9858D01*
X-18994Y9872D01*
X-18990Y9884D01*
X-18985Y9895D01*
X-18982Y9905D01*
X-18977Y9912D01*
X-18973Y9919D01*
X-18970Y9925D01*
X-18967Y9930D01*
X-18965Y9933D01*
X-18963Y9935D01*
X-18962Y9935D01*
X-18953Y9945D01*
X-18943Y9953D01*
X-18933Y9961D01*
X-18922Y9967D01*
X-18912Y9972D01*
X-18901Y9977D01*
X-18890Y9980D01*
X-18880Y9983D01*
X-18871Y9985D01*
X-18862Y9987D01*
X-18854Y9988D01*
X-18847Y9989D01*
X-18841Y9990D01*
X-18833D01*
X-18820Y9989D01*
D02*
G37*
G36*
X-21810D02*
X-21795Y9988D01*
X-21782Y9985D01*
X-21770Y9982D01*
X-21759Y9978D01*
X-21748Y9974D01*
X-21739Y9969D01*
X-21729Y9964D01*
X-21722Y9960D01*
X-21715Y9955D01*
X-21709Y9951D01*
X-21704Y9947D01*
X-21700Y9944D01*
X-21698Y9941D01*
X-21696Y9940D01*
X-21696Y9939D01*
X-21687Y9929D01*
X-21680Y9918D01*
X-21673Y9908D01*
X-21668Y9895D01*
X-21663Y9884D01*
X-21660Y9872D01*
X-21654Y9849D01*
X-21652Y9839D01*
X-21650Y9829D01*
X-21650Y9820D01*
X-21649Y9813D01*
X-21648Y9806D01*
Y9802D01*
Y9799D01*
Y9798D01*
X-21649Y9782D01*
X-21650Y9766D01*
X-21653Y9752D01*
X-21656Y9738D01*
X-21659Y9726D01*
X-21663Y9714D01*
X-21667Y9703D01*
X-21672Y9694D01*
X-21676Y9686D01*
X-21680Y9678D01*
X-21685Y9672D01*
X-21688Y9666D01*
X-21691Y9663D01*
X-21693Y9660D01*
X-21695Y9658D01*
X-21696Y9657D01*
X-21705Y9649D01*
X-21715Y9641D01*
X-21725Y9634D01*
X-21736Y9628D01*
X-21746Y9623D01*
X-21757Y9620D01*
X-21777Y9614D01*
X-21787Y9611D01*
X-21795Y9610D01*
X-21803Y9609D01*
X-21810Y9608D01*
X-21815Y9607D01*
X-21823D01*
X-21836Y9608D01*
X-21848Y9609D01*
X-21871Y9613D01*
X-21881Y9615D01*
X-21890Y9618D01*
X-21898Y9621D01*
X-21906Y9624D01*
X-21912Y9627D01*
X-21918Y9630D01*
X-21924Y9633D01*
X-21928Y9635D01*
X-21931Y9637D01*
X-21934Y9639D01*
X-21934Y9640D01*
X-21935D01*
X-21943Y9647D01*
X-21950Y9654D01*
X-21962Y9670D01*
X-21972Y9686D01*
X-21980Y9703D01*
X-21986Y9717D01*
X-21988Y9723D01*
X-21990Y9729D01*
X-21991Y9733D01*
X-21992Y9736D01*
X-21993Y9739D01*
Y9739D01*
X-21898Y9756D01*
X-21895Y9743D01*
X-21891Y9731D01*
X-21886Y9722D01*
X-21882Y9714D01*
X-21878Y9709D01*
X-21875Y9705D01*
X-21873Y9703D01*
X-21872Y9702D01*
X-21865Y9696D01*
X-21858Y9693D01*
X-21850Y9690D01*
X-21843Y9689D01*
X-21837Y9687D01*
X-21832Y9686D01*
X-21827D01*
X-21814Y9687D01*
X-21802Y9690D01*
X-21792Y9695D01*
X-21784Y9700D01*
X-21777Y9704D01*
X-21772Y9709D01*
X-21769Y9712D01*
X-21769Y9713D01*
X-21765Y9718D01*
X-21762Y9724D01*
X-21756Y9739D01*
X-21752Y9753D01*
X-21750Y9769D01*
X-21749Y9782D01*
X-21748Y9789D01*
X-21747Y9794D01*
Y9799D01*
Y9802D01*
Y9804D01*
Y9805D01*
Y9815D01*
X-21748Y9825D01*
X-21750Y9842D01*
X-21754Y9857D01*
X-21758Y9868D01*
X-21762Y9878D01*
X-21766Y9884D01*
X-21768Y9887D01*
X-21769Y9888D01*
X-21777Y9897D01*
X-21787Y9903D01*
X-21796Y9908D01*
X-21805Y9911D01*
X-21814Y9912D01*
X-21820Y9914D01*
X-21826D01*
X-21836Y9913D01*
X-21845Y9911D01*
X-21852Y9909D01*
X-21859Y9907D01*
X-21864Y9904D01*
X-21868Y9901D01*
X-21870Y9900D01*
X-21871Y9899D01*
X-21877Y9893D01*
X-21881Y9886D01*
X-21885Y9879D01*
X-21888Y9872D01*
X-21891Y9866D01*
X-21892Y9862D01*
X-21893Y9858D01*
Y9857D01*
X-21988Y9874D01*
X-21981Y9895D01*
X-21972Y9912D01*
X-21962Y9927D01*
X-21953Y9939D01*
X-21944Y9948D01*
X-21938Y9955D01*
X-21932Y9959D01*
X-21931Y9961D01*
X-21931D01*
X-21915Y9971D01*
X-21898Y9978D01*
X-21880Y9983D01*
X-21863Y9986D01*
X-21848Y9988D01*
X-21842Y9989D01*
X-21835D01*
X-21831Y9990D01*
X-21825D01*
X-21810Y9989D01*
D02*
G37*
G36*
X-19507Y10604D02*
X-19494Y10602D01*
X-19482Y10599D01*
X-19471Y10595D01*
X-19460Y10590D01*
X-19450Y10585D01*
X-19442Y10579D01*
X-19433Y10574D01*
X-19425Y10568D01*
X-19419Y10562D01*
X-19413Y10558D01*
X-19409Y10553D01*
X-19405Y10548D01*
X-19402Y10545D01*
X-19401Y10544D01*
X-19400Y10543D01*
Y10597D01*
X-19310D01*
Y10231D01*
X-19407D01*
Y10396D01*
Y10407D01*
Y10418D01*
X-19408Y10427D01*
Y10436D01*
X-19409Y10443D01*
X-19409Y10450D01*
X-19410Y10456D01*
X-19411Y10462D01*
X-19412Y10470D01*
X-19413Y10475D01*
X-19414Y10479D01*
Y10480D01*
X-19417Y10489D01*
X-19422Y10495D01*
X-19426Y10502D01*
X-19430Y10507D01*
X-19435Y10512D01*
X-19438Y10515D01*
X-19440Y10516D01*
X-19441Y10517D01*
X-19448Y10522D01*
X-19456Y10525D01*
X-19464Y10528D01*
X-19471Y10529D01*
X-19477Y10530D01*
X-19482Y10531D01*
X-19486D01*
X-19493Y10530D01*
X-19499Y10529D01*
X-19505Y10528D01*
X-19510Y10526D01*
X-19514Y10524D01*
X-19517Y10522D01*
X-19518Y10522D01*
X-19519Y10521D01*
X-19528Y10512D01*
X-19534Y10503D01*
X-19537Y10499D01*
X-19538Y10496D01*
X-19539Y10494D01*
Y10493D01*
X-19541Y10489D01*
X-19541Y10485D01*
X-19543Y10474D01*
X-19544Y10462D01*
X-19545Y10449D01*
X-19546Y10437D01*
Y10432D01*
Y10426D01*
Y10423D01*
Y10419D01*
Y10418D01*
Y10417D01*
Y10231D01*
X-19643D01*
Y10458D01*
Y10472D01*
X-19642Y10485D01*
X-19641Y10497D01*
X-19640Y10506D01*
X-19639Y10513D01*
X-19638Y10519D01*
X-19637Y10522D01*
Y10522D01*
X-19635Y10531D01*
X-19632Y10538D01*
X-19629Y10545D01*
X-19626Y10552D01*
X-19623Y10556D01*
X-19621Y10560D01*
X-19619Y10562D01*
X-19618Y10563D01*
X-19613Y10570D01*
X-19606Y10575D01*
X-19600Y10581D01*
X-19593Y10585D01*
X-19587Y10588D01*
X-19583Y10591D01*
X-19580Y10592D01*
X-19578Y10593D01*
X-19568Y10597D01*
X-19558Y10600D01*
X-19548Y10601D01*
X-19539Y10603D01*
X-19531Y10604D01*
X-19525Y10605D01*
X-19520D01*
X-19507Y10604D01*
D02*
G37*
G36*
X-15830Y10231D02*
X-15924D01*
Y10562D01*
X-16128Y10231D01*
X-16231D01*
Y10736D01*
X-16136D01*
Y10397D01*
X-15928Y10736D01*
X-15830D01*
Y10231D01*
D02*
G37*
G36*
X-17459Y10604D02*
X-17448Y10602D01*
X-17436Y10599D01*
X-17426Y10595D01*
X-17406Y10586D01*
X-17398Y10581D01*
X-17390Y10576D01*
X-17383Y10571D01*
X-17376Y10565D01*
X-17371Y10560D01*
X-17366Y10556D01*
X-17363Y10552D01*
X-17360Y10549D01*
X-17359Y10548D01*
X-17358Y10547D01*
Y10597D01*
X-17269D01*
Y10231D01*
X-17366D01*
Y10409D01*
Y10427D01*
X-17367Y10442D01*
X-17368Y10456D01*
X-17370Y10466D01*
X-17371Y10473D01*
X-17372Y10479D01*
X-17373Y10482D01*
Y10483D01*
X-17376Y10492D01*
X-17380Y10499D01*
X-17385Y10505D01*
X-17389Y10509D01*
X-17393Y10513D01*
X-17396Y10516D01*
X-17398Y10518D01*
X-17399Y10519D01*
X-17406Y10522D01*
X-17413Y10525D01*
X-17419Y10528D01*
X-17426Y10529D01*
X-17431Y10530D01*
X-17436Y10531D01*
X-17446D01*
X-17452Y10529D01*
X-17457Y10528D01*
X-17461Y10527D01*
X-17464Y10525D01*
X-17466Y10525D01*
X-17468Y10523D01*
X-17469D01*
X-17475Y10516D01*
X-17481Y10509D01*
X-17482Y10505D01*
X-17484Y10502D01*
X-17485Y10501D01*
Y10500D01*
X-17485Y10497D01*
X-17486Y10492D01*
X-17488Y10483D01*
X-17489Y10472D01*
X-17489Y10460D01*
X-17490Y10449D01*
Y10439D01*
Y10436D01*
Y10433D01*
Y10432D01*
Y10431D01*
Y10231D01*
X-17587D01*
Y10406D01*
Y10424D01*
X-17588Y10440D01*
X-17589Y10452D01*
X-17591Y10463D01*
X-17592Y10472D01*
X-17593Y10477D01*
X-17595Y10481D01*
Y10482D01*
X-17598Y10490D01*
X-17601Y10497D01*
X-17606Y10504D01*
X-17610Y10509D01*
X-17614Y10512D01*
X-17617Y10515D01*
X-17619Y10517D01*
X-17620Y10518D01*
X-17627Y10522D01*
X-17634Y10525D01*
X-17640Y10528D01*
X-17646Y10529D01*
X-17651Y10530D01*
X-17655Y10531D01*
X-17658D01*
X-17668Y10530D01*
X-17677Y10528D01*
X-17684Y10524D01*
X-17690Y10521D01*
X-17694Y10517D01*
X-17697Y10513D01*
X-17699Y10511D01*
X-17700Y10510D01*
X-17701Y10507D01*
X-17703Y10502D01*
X-17706Y10492D01*
X-17707Y10481D01*
X-17708Y10469D01*
X-17709Y10458D01*
X-17710Y10448D01*
Y10445D01*
Y10442D01*
Y10440D01*
Y10439D01*
Y10231D01*
X-17807D01*
Y10464D01*
X-17806Y10482D01*
X-17805Y10498D01*
X-17803Y10511D01*
X-17802Y10522D01*
X-17800Y10530D01*
X-17798Y10535D01*
X-17797Y10539D01*
X-17797Y10540D01*
X-17791Y10551D01*
X-17784Y10561D01*
X-17777Y10569D01*
X-17770Y10575D01*
X-17764Y10581D01*
X-17759Y10585D01*
X-17756Y10587D01*
X-17754Y10588D01*
X-17744Y10593D01*
X-17732Y10598D01*
X-17720Y10601D01*
X-17710Y10602D01*
X-17701Y10604D01*
X-17694Y10605D01*
X-17687D01*
X-17675Y10604D01*
X-17664Y10602D01*
X-17654Y10600D01*
X-17645Y10598D01*
X-17638Y10595D01*
X-17631Y10592D01*
X-17628Y10591D01*
X-17627Y10590D01*
X-17617Y10584D01*
X-17607Y10577D01*
X-17598Y10570D01*
X-17591Y10562D01*
X-17585Y10556D01*
X-17579Y10551D01*
X-17576Y10548D01*
X-17575Y10546D01*
X-17568Y10556D01*
X-17562Y10565D01*
X-17555Y10573D01*
X-17548Y10579D01*
X-17542Y10584D01*
X-17537Y10587D01*
X-17534Y10589D01*
X-17532Y10590D01*
X-17522Y10595D01*
X-17512Y10598D01*
X-17502Y10601D01*
X-17492Y10603D01*
X-17484Y10604D01*
X-17478Y10605D01*
X-17472D01*
X-17459Y10604D01*
D02*
G37*
G36*
X-16797Y10231D02*
X-16890D01*
X-16952Y10466D01*
X-17015Y10231D01*
X-17108D01*
X-17226Y10597D01*
X-17131D01*
X-17061Y10357D01*
X-17000Y10597D01*
X-16906D01*
X-16843Y10357D01*
X-16775Y10597D01*
X-16681D01*
X-16797Y10231D01*
D02*
G37*
G36*
X-19976Y10647D02*
X-20073D01*
Y10736D01*
X-19976D01*
Y10647D01*
D02*
G37*
G36*
X-18020Y10604D02*
X-18008Y10602D01*
X-17998Y10601D01*
X-17989Y10598D01*
X-17980Y10596D01*
X-17972Y10594D01*
X-17965Y10591D01*
X-17959Y10589D01*
X-17953Y10587D01*
X-17949Y10585D01*
X-17945Y10582D01*
X-17942Y10581D01*
X-17939Y10579D01*
X-17939Y10578D01*
X-17938D01*
X-17926Y10568D01*
X-17915Y10555D01*
X-17906Y10543D01*
X-17899Y10530D01*
X-17894Y10519D01*
X-17890Y10509D01*
X-17889Y10506D01*
X-17888Y10503D01*
X-17887Y10502D01*
Y10501D01*
X-17974Y10485D01*
X-17977Y10493D01*
X-17981Y10501D01*
X-17985Y10507D01*
X-17989Y10512D01*
X-17992Y10515D01*
X-17995Y10518D01*
X-17996Y10519D01*
X-17997Y10520D01*
X-18003Y10524D01*
X-18009Y10526D01*
X-18023Y10529D01*
X-18028Y10530D01*
X-18033Y10531D01*
X-18038D01*
X-18051Y10530D01*
X-18062Y10529D01*
X-18071Y10527D01*
X-18078Y10525D01*
X-18084Y10522D01*
X-18087Y10521D01*
X-18089Y10519D01*
X-18090Y10519D01*
X-18095Y10513D01*
X-18098Y10507D01*
X-18101Y10501D01*
X-18102Y10494D01*
X-18103Y10488D01*
X-18104Y10483D01*
Y10480D01*
Y10479D01*
Y10469D01*
X-18098Y10467D01*
X-18092Y10465D01*
X-18078Y10461D01*
X-18062Y10457D01*
X-18047Y10453D01*
X-18032Y10450D01*
X-18026Y10449D01*
X-18020Y10448D01*
X-18015Y10447D01*
X-18012Y10446D01*
X-18010Y10446D01*
X-18009D01*
X-17992Y10442D01*
X-17976Y10438D01*
X-17963Y10434D01*
X-17952Y10430D01*
X-17944Y10427D01*
X-17938Y10425D01*
X-17934Y10423D01*
X-17932Y10423D01*
X-17923Y10417D01*
X-17915Y10411D01*
X-17908Y10405D01*
X-17902Y10399D01*
X-17898Y10393D01*
X-17895Y10389D01*
X-17893Y10386D01*
X-17892Y10385D01*
X-17887Y10376D01*
X-17883Y10366D01*
X-17881Y10357D01*
X-17879Y10349D01*
X-17878Y10341D01*
X-17877Y10336D01*
Y10332D01*
Y10330D01*
X-17879Y10313D01*
X-17883Y10298D01*
X-17887Y10285D01*
X-17893Y10274D01*
X-17899Y10264D01*
X-17904Y10257D01*
X-17908Y10254D01*
X-17909Y10252D01*
X-17922Y10242D01*
X-17937Y10234D01*
X-17952Y10230D01*
X-17966Y10226D01*
X-17979Y10224D01*
X-17985Y10223D01*
X-17989D01*
X-17993Y10222D01*
X-17998D01*
X-18010Y10223D01*
X-18022Y10224D01*
X-18032Y10226D01*
X-18040Y10228D01*
X-18048Y10230D01*
X-18054Y10232D01*
X-18057Y10233D01*
X-18058Y10234D01*
X-18069Y10239D01*
X-18078Y10244D01*
X-18088Y10250D01*
X-18095Y10257D01*
X-18102Y10262D01*
X-18107Y10267D01*
X-18111Y10270D01*
X-18111Y10270D01*
X-18112Y10267D01*
X-18113Y10264D01*
X-18114Y10260D01*
Y10260D01*
Y10259D01*
X-18117Y10253D01*
X-18118Y10247D01*
X-18121Y10242D01*
X-18122Y10238D01*
X-18123Y10235D01*
X-18124Y10233D01*
X-18124Y10232D01*
Y10231D01*
X-18220D01*
X-18215Y10241D01*
X-18211Y10250D01*
X-18208Y10258D01*
X-18206Y10265D01*
X-18204Y10271D01*
X-18203Y10276D01*
X-18202Y10279D01*
Y10280D01*
X-18200Y10290D01*
X-18200Y10300D01*
X-18198Y10313D01*
Y10324D01*
X-18197Y10335D01*
Y10343D01*
Y10346D01*
Y10349D01*
Y10350D01*
Y10351D01*
X-18199Y10463D01*
Y10475D01*
X-18198Y10485D01*
X-18197Y10495D01*
X-18197Y10503D01*
X-18196Y10512D01*
X-18195Y10519D01*
X-18194Y10525D01*
X-18193Y10530D01*
X-18190Y10539D01*
X-18188Y10545D01*
X-18187Y10549D01*
X-18186Y10550D01*
X-18181Y10558D01*
X-18174Y10566D01*
X-18166Y10573D01*
X-18159Y10578D01*
X-18152Y10583D01*
X-18147Y10586D01*
X-18143Y10588D01*
X-18141Y10589D01*
X-18135Y10592D01*
X-18128Y10595D01*
X-18113Y10598D01*
X-18097Y10601D01*
X-18081Y10603D01*
X-18067Y10604D01*
X-18061D01*
X-18055Y10605D01*
X-18032D01*
X-18020Y10604D01*
D02*
G37*
G36*
X-23484Y10720D02*
X-23475Y10705D01*
X-23465Y10691D01*
X-23455Y10680D01*
X-23445Y10670D01*
X-23437Y10663D01*
X-23435Y10661D01*
X-23433Y10658D01*
X-23431Y10658D01*
X-23431Y10657D01*
X-23414Y10644D01*
X-23399Y10635D01*
X-23385Y10627D01*
X-23373Y10621D01*
X-23363Y10615D01*
X-23355Y10612D01*
X-23352Y10611D01*
X-23350Y10611D01*
X-23349Y10610D01*
X-23348D01*
Y10522D01*
X-23375Y10532D01*
X-23398Y10544D01*
X-23419Y10555D01*
X-23429Y10562D01*
X-23437Y10568D01*
X-23446Y10573D01*
X-23453Y10578D01*
X-23459Y10583D01*
X-23464Y10587D01*
X-23468Y10591D01*
X-23471Y10593D01*
X-23473Y10595D01*
X-23474Y10595D01*
Y10231D01*
X-23570D01*
Y10737D01*
X-23491D01*
X-23484Y10720D01*
D02*
G37*
G36*
X-20355Y10604D02*
X-20343Y10602D01*
X-20332Y10599D01*
X-20322Y10595D01*
X-20302Y10586D01*
X-20293Y10581D01*
X-20286Y10576D01*
X-20278Y10571D01*
X-20272Y10565D01*
X-20266Y10560D01*
X-20262Y10556D01*
X-20258Y10552D01*
X-20256Y10549D01*
X-20254Y10548D01*
X-20253Y10547D01*
Y10597D01*
X-20164D01*
Y10231D01*
X-20261D01*
Y10409D01*
Y10427D01*
X-20263Y10442D01*
X-20263Y10456D01*
X-20265Y10466D01*
X-20266Y10473D01*
X-20267Y10479D01*
X-20269Y10482D01*
Y10483D01*
X-20272Y10492D01*
X-20276Y10499D01*
X-20280Y10505D01*
X-20284Y10509D01*
X-20288Y10513D01*
X-20291Y10516D01*
X-20293Y10518D01*
X-20294Y10519D01*
X-20301Y10522D01*
X-20308Y10525D01*
X-20315Y10528D01*
X-20321Y10529D01*
X-20326Y10530D01*
X-20331Y10531D01*
X-20342D01*
X-20347Y10529D01*
X-20352Y10528D01*
X-20356Y10527D01*
X-20359Y10525D01*
X-20362Y10525D01*
X-20363Y10523D01*
X-20364D01*
X-20371Y10516D01*
X-20376Y10509D01*
X-20378Y10505D01*
X-20379Y10502D01*
X-20380Y10501D01*
Y10500D01*
X-20381Y10497D01*
X-20382Y10492D01*
X-20383Y10483D01*
X-20384Y10472D01*
X-20385Y10460D01*
X-20385Y10449D01*
Y10439D01*
Y10436D01*
Y10433D01*
Y10432D01*
Y10431D01*
Y10231D01*
X-20482D01*
Y10406D01*
Y10424D01*
X-20484Y10440D01*
X-20485Y10452D01*
X-20486Y10463D01*
X-20488Y10472D01*
X-20488Y10477D01*
X-20490Y10481D01*
Y10482D01*
X-20493Y10490D01*
X-20497Y10497D01*
X-20501Y10504D01*
X-20505Y10509D01*
X-20509Y10512D01*
X-20512Y10515D01*
X-20514Y10517D01*
X-20515Y10518D01*
X-20522Y10522D01*
X-20529Y10525D01*
X-20535Y10528D01*
X-20541Y10529D01*
X-20547Y10530D01*
X-20551Y10531D01*
X-20554D01*
X-20564Y10530D01*
X-20572Y10528D01*
X-20579Y10524D01*
X-20585Y10521D01*
X-20589Y10517D01*
X-20593Y10513D01*
X-20594Y10511D01*
X-20595Y10510D01*
X-20597Y10507D01*
X-20598Y10502D01*
X-20601Y10492D01*
X-20603Y10481D01*
X-20604Y10469D01*
X-20604Y10458D01*
X-20605Y10448D01*
Y10445D01*
Y10442D01*
Y10440D01*
Y10439D01*
Y10231D01*
X-20702D01*
Y10464D01*
X-20701Y10482D01*
X-20700Y10498D01*
X-20699Y10511D01*
X-20697Y10522D01*
X-20695Y10530D01*
X-20693Y10535D01*
X-20693Y10539D01*
X-20692Y10540D01*
X-20687Y10551D01*
X-20680Y10561D01*
X-20673Y10569D01*
X-20666Y10575D01*
X-20660Y10581D01*
X-20654Y10585D01*
X-20651Y10587D01*
X-20650Y10588D01*
X-20639Y10593D01*
X-20627Y10598D01*
X-20616Y10601D01*
X-20606Y10602D01*
X-20596Y10604D01*
X-20589Y10605D01*
X-20582D01*
X-20571Y10604D01*
X-20560Y10602D01*
X-20549Y10600D01*
X-20541Y10598D01*
X-20533Y10595D01*
X-20527Y10592D01*
X-20524Y10591D01*
X-20522Y10590D01*
X-20512Y10584D01*
X-20502Y10577D01*
X-20494Y10570D01*
X-20486Y10562D01*
X-20480Y10556D01*
X-20475Y10551D01*
X-20471Y10548D01*
X-20471Y10546D01*
X-20464Y10556D01*
X-20457Y10565D01*
X-20450Y10573D01*
X-20443Y10579D01*
X-20437Y10584D01*
X-20432Y10587D01*
X-20429Y10589D01*
X-20428Y10590D01*
X-20418Y10595D01*
X-20408Y10598D01*
X-20398Y10601D01*
X-20388Y10603D01*
X-20379Y10604D01*
X-20373Y10605D01*
X-20367D01*
X-20355Y10604D01*
D02*
G37*
G36*
X-18720Y10231D02*
X-18817D01*
Y10348D01*
X-18862Y10396D01*
X-18954Y10231D01*
X-19058D01*
X-18924Y10463D01*
X-19049Y10597D01*
X-18930D01*
X-18817Y10468D01*
Y10736D01*
X-18720D01*
Y10231D01*
D02*
G37*
G36*
X-22293Y10604D02*
X-22280Y10602D01*
X-22269Y10600D01*
X-22257Y10596D01*
X-22246Y10592D01*
X-22236Y10588D01*
X-22228Y10583D01*
X-22219Y10578D01*
X-22212Y10574D01*
X-22206Y10569D01*
X-22199Y10565D01*
X-22195Y10561D01*
X-22191Y10557D01*
X-22189Y10555D01*
X-22187Y10553D01*
X-22186Y10552D01*
X-22178Y10542D01*
X-22171Y10532D01*
X-22165Y10520D01*
X-22160Y10509D01*
X-22155Y10496D01*
X-22151Y10485D01*
X-22146Y10462D01*
X-22143Y10452D01*
X-22142Y10442D01*
X-22141Y10432D01*
X-22140Y10426D01*
X-22140Y10419D01*
Y10414D01*
Y10411D01*
Y10410D01*
X-22140Y10396D01*
X-22141Y10383D01*
X-22145Y10359D01*
X-22148Y10347D01*
X-22151Y10337D01*
X-22154Y10327D01*
X-22157Y10319D01*
X-22160Y10311D01*
X-22163Y10304D01*
X-22166Y10298D01*
X-22169Y10293D01*
X-22172Y10290D01*
X-22173Y10287D01*
X-22175Y10285D01*
Y10284D01*
X-22184Y10274D01*
X-22194Y10264D01*
X-22205Y10255D01*
X-22216Y10248D01*
X-22228Y10242D01*
X-22240Y10237D01*
X-22252Y10233D01*
X-22263Y10230D01*
X-22274Y10227D01*
X-22284Y10225D01*
X-22292Y10224D01*
X-22301Y10223D01*
X-22307D01*
X-22312Y10222D01*
X-22316D01*
X-22338Y10224D01*
X-22357Y10227D01*
X-22374Y10231D01*
X-22388Y10236D01*
X-22400Y10241D01*
X-22405Y10244D01*
X-22409Y10245D01*
X-22412Y10247D01*
X-22415Y10248D01*
X-22415Y10250D01*
X-22416D01*
X-22430Y10261D01*
X-22442Y10274D01*
X-22452Y10287D01*
X-22461Y10300D01*
X-22467Y10312D01*
X-22470Y10317D01*
X-22471Y10322D01*
X-22473Y10325D01*
X-22474Y10328D01*
X-22475Y10330D01*
Y10330D01*
X-22379Y10346D01*
X-22376Y10336D01*
X-22372Y10329D01*
X-22368Y10322D01*
X-22364Y10317D01*
X-22361Y10312D01*
X-22358Y10309D01*
X-22356Y10307D01*
X-22355Y10307D01*
X-22349Y10303D01*
X-22343Y10300D01*
X-22336Y10297D01*
X-22331Y10296D01*
X-22325Y10295D01*
X-22321Y10294D01*
X-22317D01*
X-22305Y10295D01*
X-22295Y10298D01*
X-22285Y10302D01*
X-22277Y10307D01*
X-22270Y10310D01*
X-22266Y10314D01*
X-22262Y10317D01*
X-22262Y10318D01*
X-22254Y10328D01*
X-22249Y10339D01*
X-22245Y10350D01*
X-22242Y10361D01*
X-22240Y10370D01*
X-22239Y10379D01*
X-22239Y10382D01*
Y10384D01*
Y10385D01*
Y10386D01*
X-22481D01*
Y10406D01*
X-22479Y10425D01*
X-22477Y10442D01*
X-22474Y10458D01*
X-22471Y10472D01*
X-22467Y10486D01*
X-22463Y10499D01*
X-22458Y10509D01*
X-22454Y10519D01*
X-22450Y10527D01*
X-22446Y10534D01*
X-22443Y10540D01*
X-22440Y10545D01*
X-22438Y10548D01*
X-22436Y10549D01*
X-22435Y10550D01*
X-22426Y10560D01*
X-22416Y10568D01*
X-22406Y10575D01*
X-22395Y10581D01*
X-22385Y10587D01*
X-22374Y10591D01*
X-22363Y10595D01*
X-22353Y10598D01*
X-22344Y10600D01*
X-22335Y10601D01*
X-22327Y10603D01*
X-22320Y10604D01*
X-22314Y10605D01*
X-22306D01*
X-22293Y10604D01*
D02*
G37*
G36*
X-20923D02*
X-20910Y10602D01*
X-20898Y10600D01*
X-20887Y10596D01*
X-20876Y10592D01*
X-20866Y10588D01*
X-20858Y10583D01*
X-20849Y10578D01*
X-20842Y10574D01*
X-20835Y10569D01*
X-20829Y10565D01*
X-20825Y10561D01*
X-20821Y10557D01*
X-20819Y10555D01*
X-20817Y10553D01*
X-20816Y10552D01*
X-20808Y10542D01*
X-20801Y10532D01*
X-20795Y10520D01*
X-20789Y10509D01*
X-20785Y10496D01*
X-20781Y10485D01*
X-20776Y10462D01*
X-20773Y10452D01*
X-20772Y10442D01*
X-20771Y10432D01*
X-20770Y10426D01*
X-20769Y10419D01*
Y10414D01*
Y10411D01*
Y10410D01*
X-20770Y10396D01*
X-20771Y10383D01*
X-20775Y10359D01*
X-20778Y10347D01*
X-20781Y10337D01*
X-20784Y10327D01*
X-20787Y10319D01*
X-20790Y10311D01*
X-20793Y10304D01*
X-20796Y10298D01*
X-20799Y10293D01*
X-20802Y10290D01*
X-20803Y10287D01*
X-20805Y10285D01*
Y10284D01*
X-20814Y10274D01*
X-20824Y10264D01*
X-20835Y10255D01*
X-20846Y10248D01*
X-20858Y10242D01*
X-20870Y10237D01*
X-20882Y10233D01*
X-20893Y10230D01*
X-20904Y10227D01*
X-20914Y10225D01*
X-20922Y10224D01*
X-20931Y10223D01*
X-20937D01*
X-20942Y10222D01*
X-20946D01*
X-20968Y10224D01*
X-20987Y10227D01*
X-21004Y10231D01*
X-21018Y10236D01*
X-21030Y10241D01*
X-21035Y10244D01*
X-21039Y10245D01*
X-21042Y10247D01*
X-21044Y10248D01*
X-21045Y10250D01*
X-21046D01*
X-21060Y10261D01*
X-21072Y10274D01*
X-21082Y10287D01*
X-21090Y10300D01*
X-21097Y10312D01*
X-21100Y10317D01*
X-21101Y10322D01*
X-21103Y10325D01*
X-21104Y10328D01*
X-21105Y10330D01*
Y10330D01*
X-21009Y10346D01*
X-21006Y10336D01*
X-21002Y10329D01*
X-20998Y10322D01*
X-20994Y10317D01*
X-20991Y10312D01*
X-20988Y10309D01*
X-20986Y10307D01*
X-20985Y10307D01*
X-20979Y10303D01*
X-20973Y10300D01*
X-20966Y10297D01*
X-20961Y10296D01*
X-20955Y10295D01*
X-20951Y10294D01*
X-20947D01*
X-20935Y10295D01*
X-20925Y10298D01*
X-20915Y10302D01*
X-20907Y10307D01*
X-20900Y10310D01*
X-20895Y10314D01*
X-20892Y10317D01*
X-20892Y10318D01*
X-20884Y10328D01*
X-20879Y10339D01*
X-20875Y10350D01*
X-20872Y10361D01*
X-20870Y10370D01*
X-20869Y10379D01*
X-20869Y10382D01*
Y10384D01*
Y10385D01*
Y10386D01*
X-21110D01*
Y10406D01*
X-21109Y10425D01*
X-21107Y10442D01*
X-21104Y10458D01*
X-21100Y10472D01*
X-21097Y10486D01*
X-21093Y10499D01*
X-21088Y10509D01*
X-21084Y10519D01*
X-21080Y10527D01*
X-21076Y10534D01*
X-21073Y10540D01*
X-21070Y10545D01*
X-21067Y10548D01*
X-21066Y10549D01*
X-21065Y10550D01*
X-21056Y10560D01*
X-21046Y10568D01*
X-21036Y10575D01*
X-21025Y10581D01*
X-21014Y10587D01*
X-21004Y10591D01*
X-20993Y10595D01*
X-20983Y10598D01*
X-20974Y10600D01*
X-20965Y10601D01*
X-20957Y10603D01*
X-20950Y10604D01*
X-20944Y10605D01*
X-20936D01*
X-20923Y10604D01*
D02*
G37*
G36*
X-18528Y10231D02*
X-18625D01*
Y10597D01*
X-18528D01*
Y10231D01*
D02*
G37*
G36*
Y10647D02*
X-18625D01*
Y10736D01*
X-18528D01*
Y10647D01*
D02*
G37*
G36*
X-18299Y10669D02*
Y10597D01*
X-18254D01*
Y10520D01*
X-18299D01*
Y10360D01*
Y10350D01*
Y10342D01*
X-18300Y10327D01*
Y10315D01*
X-18300Y10306D01*
X-18301Y10300D01*
Y10295D01*
X-18302Y10292D01*
Y10291D01*
X-18303Y10283D01*
X-18305Y10275D01*
X-18307Y10269D01*
X-18310Y10263D01*
X-18312Y10259D01*
X-18313Y10255D01*
X-18314Y10254D01*
X-18315Y10253D01*
X-18319Y10248D01*
X-18324Y10244D01*
X-18334Y10237D01*
X-18339Y10234D01*
X-18343Y10232D01*
X-18345Y10231D01*
X-18346Y10231D01*
X-18353Y10227D01*
X-18362Y10226D01*
X-18369Y10224D01*
X-18377Y10223D01*
X-18383D01*
X-18388Y10222D01*
X-18392D01*
X-18408Y10223D01*
X-18422Y10224D01*
X-18435Y10227D01*
X-18447Y10229D01*
X-18456Y10231D01*
X-18463Y10234D01*
X-18468Y10235D01*
X-18469Y10236D01*
X-18461Y10311D01*
X-18452Y10308D01*
X-18444Y10306D01*
X-18437Y10304D01*
X-18432Y10303D01*
X-18427Y10303D01*
X-18424Y10302D01*
X-18422D01*
X-18416Y10303D01*
X-18410Y10304D01*
X-18407Y10306D01*
X-18406Y10307D01*
X-18402Y10310D01*
X-18399Y10314D01*
X-18397Y10317D01*
Y10319D01*
Y10320D01*
X-18396Y10323D01*
Y10330D01*
Y10339D01*
X-18396Y10348D01*
Y10356D01*
Y10364D01*
Y10367D01*
Y10370D01*
Y10370D01*
Y10371D01*
Y10520D01*
X-18462D01*
Y10597D01*
X-18396D01*
Y10726D01*
X-18299Y10669D01*
D02*
G37*
G36*
X-22660Y10231D02*
X-22747D01*
X-22892Y10597D01*
X-22793D01*
X-22723Y10410D01*
X-22719Y10399D01*
X-22716Y10389D01*
X-22715Y10384D01*
X-22714Y10381D01*
X-22713Y10380D01*
Y10379D01*
X-22712Y10375D01*
X-22711Y10370D01*
X-22707Y10360D01*
X-22706Y10355D01*
X-22705Y10351D01*
X-22703Y10348D01*
Y10347D01*
X-22683Y10410D01*
X-22614Y10597D01*
X-22513D01*
X-22660Y10231D01*
D02*
G37*
G36*
X-19746Y10669D02*
Y10597D01*
X-19702D01*
Y10520D01*
X-19746D01*
Y10360D01*
Y10350D01*
Y10342D01*
X-19747Y10327D01*
Y10315D01*
X-19748Y10306D01*
X-19749Y10300D01*
Y10295D01*
X-19750Y10292D01*
Y10291D01*
X-19751Y10283D01*
X-19753Y10275D01*
X-19755Y10269D01*
X-19757Y10263D01*
X-19760Y10259D01*
X-19761Y10255D01*
X-19762Y10254D01*
X-19763Y10253D01*
X-19766Y10248D01*
X-19772Y10244D01*
X-19782Y10237D01*
X-19786Y10234D01*
X-19790Y10232D01*
X-19793Y10231D01*
X-19793Y10231D01*
X-19801Y10227D01*
X-19809Y10226D01*
X-19817Y10224D01*
X-19825Y10223D01*
X-19831D01*
X-19836Y10222D01*
X-19840D01*
X-19856Y10223D01*
X-19870Y10224D01*
X-19883Y10227D01*
X-19895Y10229D01*
X-19904Y10231D01*
X-19911Y10234D01*
X-19915Y10235D01*
X-19917Y10236D01*
X-19909Y10311D01*
X-19899Y10308D01*
X-19892Y10306D01*
X-19885Y10304D01*
X-19879Y10303D01*
X-19875Y10303D01*
X-19872Y10302D01*
X-19869D01*
X-19863Y10303D01*
X-19858Y10304D01*
X-19855Y10306D01*
X-19853Y10307D01*
X-19849Y10310D01*
X-19846Y10314D01*
X-19845Y10317D01*
Y10319D01*
Y10320D01*
X-19844Y10323D01*
Y10330D01*
Y10339D01*
X-19843Y10348D01*
Y10356D01*
Y10364D01*
Y10367D01*
Y10370D01*
Y10370D01*
Y10371D01*
Y10520D01*
X-19909D01*
Y10597D01*
X-19843D01*
Y10726D01*
X-19746Y10669D01*
D02*
G37*
G36*
X-16463Y10604D02*
X-16449Y10602D01*
X-16438Y10600D01*
X-16426Y10596D01*
X-16416Y10592D01*
X-16406Y10588D01*
X-16397Y10583D01*
X-16389Y10578D01*
X-16381Y10574D01*
X-16375Y10569D01*
X-16369Y10565D01*
X-16364Y10561D01*
X-16360Y10557D01*
X-16358Y10555D01*
X-16357Y10553D01*
X-16356Y10552D01*
X-16347Y10542D01*
X-16340Y10532D01*
X-16334Y10520D01*
X-16329Y10509D01*
X-16324Y10496D01*
X-16320Y10485D01*
X-16315Y10462D01*
X-16313Y10452D01*
X-16311Y10442D01*
X-16310Y10432D01*
X-16310Y10426D01*
X-16309Y10419D01*
Y10414D01*
Y10411D01*
Y10410D01*
X-16310Y10396D01*
X-16310Y10383D01*
X-16314Y10359D01*
X-16317Y10347D01*
X-16320Y10337D01*
X-16323Y10327D01*
X-16327Y10319D01*
X-16330Y10311D01*
X-16333Y10304D01*
X-16336Y10298D01*
X-16339Y10293D01*
X-16341Y10290D01*
X-16343Y10287D01*
X-16344Y10285D01*
Y10284D01*
X-16353Y10274D01*
X-16363Y10264D01*
X-16374Y10255D01*
X-16386Y10248D01*
X-16397Y10242D01*
X-16409Y10237D01*
X-16421Y10233D01*
X-16433Y10230D01*
X-16443Y10227D01*
X-16453Y10225D01*
X-16462Y10224D01*
X-16470Y10223D01*
X-16476D01*
X-16482Y10222D01*
X-16486D01*
X-16507Y10224D01*
X-16526Y10227D01*
X-16543Y10231D01*
X-16558Y10236D01*
X-16569Y10241D01*
X-16575Y10244D01*
X-16578Y10245D01*
X-16582Y10247D01*
X-16584Y10248D01*
X-16585Y10250D01*
X-16585D01*
X-16599Y10261D01*
X-16611Y10274D01*
X-16621Y10287D01*
X-16630Y10300D01*
X-16636Y10312D01*
X-16639Y10317D01*
X-16641Y10322D01*
X-16642Y10325D01*
X-16644Y10328D01*
X-16645Y10330D01*
Y10330D01*
X-16549Y10346D01*
X-16545Y10336D01*
X-16542Y10329D01*
X-16537Y10322D01*
X-16533Y10317D01*
X-16530Y10312D01*
X-16527Y10309D01*
X-16525Y10307D01*
X-16525Y10307D01*
X-16519Y10303D01*
X-16512Y10300D01*
X-16506Y10297D01*
X-16500Y10296D01*
X-16495Y10295D01*
X-16490Y10294D01*
X-16486D01*
X-16475Y10295D01*
X-16464Y10298D01*
X-16454Y10302D01*
X-16446Y10307D01*
X-16439Y10310D01*
X-16435Y10314D01*
X-16432Y10317D01*
X-16431Y10318D01*
X-16423Y10328D01*
X-16418Y10339D01*
X-16414Y10350D01*
X-16411Y10361D01*
X-16409Y10370D01*
X-16409Y10379D01*
X-16408Y10382D01*
Y10384D01*
Y10385D01*
Y10386D01*
X-16650D01*
Y10406D01*
X-16648Y10425D01*
X-16646Y10442D01*
X-16644Y10458D01*
X-16640Y10472D01*
X-16636Y10486D01*
X-16632Y10499D01*
X-16628Y10509D01*
X-16624Y10519D01*
X-16619Y10527D01*
X-16615Y10534D01*
X-16612Y10540D01*
X-16609Y10545D01*
X-16607Y10548D01*
X-16605Y10549D01*
X-16605Y10550D01*
X-16595Y10560D01*
X-16585Y10568D01*
X-16575Y10575D01*
X-16565Y10581D01*
X-16554Y10587D01*
X-16543Y10591D01*
X-16532Y10595D01*
X-16522Y10598D01*
X-16513Y10600D01*
X-16504Y10601D01*
X-16496Y10603D01*
X-16489Y10604D01*
X-16483Y10605D01*
X-16476D01*
X-16463Y10604D01*
D02*
G37*
%LPC*%
G36*
X-20461Y9792D02*
X-20461D01*
Y9772D01*
Y9759D01*
X-20461Y9750D01*
X-20460Y9742D01*
Y9736D01*
X-20459Y9730D01*
X-20458Y9727D01*
X-20458Y9726D01*
Y9725D01*
X-20455Y9718D01*
X-20451Y9712D01*
X-20448Y9706D01*
X-20444Y9702D01*
X-20440Y9698D01*
X-20438Y9695D01*
X-20435Y9693D01*
X-20435Y9693D01*
X-20425Y9687D01*
X-20417Y9683D01*
X-20408Y9680D01*
X-20401Y9678D01*
X-20394Y9676D01*
X-20389Y9676D01*
X-20385D01*
X-20376Y9676D01*
X-20369Y9678D01*
X-20362Y9680D01*
X-20357Y9683D01*
X-20352Y9686D01*
X-20349Y9688D01*
X-20347Y9690D01*
X-20346Y9690D01*
X-20342Y9696D01*
X-20338Y9702D01*
X-20336Y9708D01*
X-20333Y9713D01*
X-20332Y9718D01*
X-20332Y9723D01*
Y9725D01*
Y9726D01*
X-20332Y9733D01*
X-20335Y9739D01*
X-20338Y9746D01*
X-20341Y9750D01*
X-20344Y9754D01*
X-20347Y9757D01*
X-20349Y9759D01*
X-20350Y9759D01*
X-20356Y9762D01*
X-20363Y9766D01*
X-20372Y9769D01*
X-20381Y9771D01*
X-20389Y9773D01*
X-20396Y9775D01*
X-20401Y9776D01*
X-20402D01*
X-20416Y9779D01*
X-20428Y9782D01*
X-20438Y9785D01*
X-20447Y9787D01*
X-20453Y9789D01*
X-20458Y9790D01*
X-20461Y9792D01*
D02*
G37*
G36*
X-21762Y10651D02*
X-21878D01*
X-21885Y10650D01*
X-21901D01*
X-21908Y10649D01*
X-21911D01*
X-21914Y10648D01*
X-21915D01*
X-21923Y10646D01*
X-21931Y10644D01*
X-21937Y10641D01*
X-21942Y10637D01*
X-21947Y10634D01*
X-21950Y10631D01*
X-21951Y10629D01*
X-21952Y10628D01*
X-21957Y10622D01*
X-21960Y10615D01*
X-21963Y10608D01*
X-21964Y10602D01*
X-21965Y10597D01*
X-21966Y10592D01*
Y10588D01*
Y10588D01*
X-21965Y10579D01*
X-21964Y10572D01*
X-21963Y10565D01*
X-21961Y10560D01*
X-21958Y10555D01*
X-21957Y10552D01*
X-21956Y10550D01*
X-21955Y10549D01*
X-21951Y10544D01*
X-21947Y10540D01*
X-21938Y10533D01*
X-21933Y10532D01*
X-21930Y10530D01*
X-21928Y10528D01*
X-21927D01*
X-21923Y10528D01*
X-21918Y10526D01*
X-21912Y10525D01*
X-21905Y10525D01*
X-21891Y10524D01*
X-21875Y10523D01*
X-21861Y10522D01*
X-21762D01*
Y10651D01*
D02*
G37*
G36*
X-22225Y9911D02*
X-22226D01*
X-22240Y9909D01*
X-22252Y9906D01*
X-22263Y9901D01*
X-22272Y9896D01*
X-22279Y9891D01*
X-22285Y9886D01*
X-22289Y9883D01*
X-22289Y9882D01*
X-22298Y9869D01*
X-22305Y9856D01*
X-22309Y9842D01*
X-22312Y9829D01*
X-22314Y9817D01*
X-22315Y9812D01*
X-22315Y9808D01*
Y9804D01*
Y9801D01*
Y9799D01*
Y9799D01*
X-22315Y9779D01*
X-22312Y9762D01*
X-22307Y9748D01*
X-22302Y9736D01*
X-22298Y9727D01*
X-22293Y9720D01*
X-22290Y9716D01*
X-22289Y9715D01*
X-22279Y9706D01*
X-22269Y9699D01*
X-22259Y9693D01*
X-22249Y9690D01*
X-22239Y9688D01*
X-22232Y9687D01*
X-22228Y9686D01*
X-22226D01*
X-22213Y9688D01*
X-22201Y9691D01*
X-22190Y9696D01*
X-22181Y9701D01*
X-22173Y9706D01*
X-22168Y9710D01*
X-22165Y9713D01*
X-22163Y9715D01*
X-22155Y9727D01*
X-22149Y9740D01*
X-22144Y9754D01*
X-22141Y9768D01*
X-22140Y9780D01*
X-22139Y9785D01*
Y9789D01*
X-22138Y9793D01*
Y9796D01*
Y9798D01*
Y9799D01*
X-22139Y9818D01*
X-22142Y9834D01*
X-22146Y9849D01*
X-22151Y9860D01*
X-22156Y9869D01*
X-22160Y9876D01*
X-22163Y9880D01*
X-22163Y9882D01*
X-22173Y9892D01*
X-22184Y9898D01*
X-22194Y9904D01*
X-22204Y9907D01*
X-22213Y9909D01*
X-22220Y9910D01*
X-22225Y9911D01*
D02*
G37*
G36*
X-18834Y9916D02*
X-18839D01*
X-18850Y9915D01*
X-18860Y9913D01*
X-18869Y9909D01*
X-18876Y9905D01*
X-18882Y9901D01*
X-18886Y9898D01*
X-18889Y9895D01*
X-18889Y9894D01*
X-18896Y9885D01*
X-18902Y9875D01*
X-18906Y9864D01*
X-18909Y9854D01*
X-18910Y9845D01*
X-18911Y9837D01*
X-18912Y9834D01*
Y9832D01*
Y9831D01*
Y9830D01*
X-18767D01*
X-18768Y9844D01*
X-18770Y9856D01*
X-18773Y9867D01*
X-18777Y9876D01*
X-18781Y9883D01*
X-18784Y9888D01*
X-18786Y9892D01*
X-18787Y9892D01*
X-18796Y9900D01*
X-18804Y9906D01*
X-18813Y9910D01*
X-18821Y9913D01*
X-18829Y9915D01*
X-18834Y9916D01*
D02*
G37*
G36*
X-18103Y10406D02*
X-18104D01*
Y10386D01*
Y10374D01*
X-18103Y10365D01*
X-18102Y10356D01*
Y10350D01*
X-18101Y10345D01*
X-18101Y10342D01*
X-18100Y10340D01*
Y10340D01*
X-18097Y10333D01*
X-18094Y10327D01*
X-18090Y10321D01*
X-18086Y10317D01*
X-18082Y10313D01*
X-18080Y10310D01*
X-18078Y10308D01*
X-18077Y10307D01*
X-18068Y10302D01*
X-18059Y10297D01*
X-18051Y10294D01*
X-18043Y10293D01*
X-18036Y10291D01*
X-18032Y10290D01*
X-18027D01*
X-18018Y10291D01*
X-18012Y10293D01*
X-18005Y10295D01*
X-17999Y10298D01*
X-17995Y10300D01*
X-17992Y10303D01*
X-17989Y10304D01*
X-17989Y10305D01*
X-17984Y10310D01*
X-17980Y10317D01*
X-17978Y10323D01*
X-17975Y10328D01*
X-17975Y10333D01*
X-17974Y10337D01*
Y10340D01*
Y10340D01*
X-17975Y10348D01*
X-17977Y10354D01*
X-17980Y10360D01*
X-17983Y10365D01*
X-17986Y10369D01*
X-17989Y10372D01*
X-17992Y10373D01*
X-17992Y10374D01*
X-17998Y10377D01*
X-18005Y10380D01*
X-18015Y10383D01*
X-18023Y10386D01*
X-18032Y10388D01*
X-18038Y10389D01*
X-18043Y10391D01*
X-18045D01*
X-18058Y10394D01*
X-18071Y10397D01*
X-18081Y10399D01*
X-18089Y10402D01*
X-18095Y10404D01*
X-18100Y10405D01*
X-18103Y10406D01*
D02*
G37*
G36*
X-22307Y10531D02*
X-22312D01*
X-22323Y10530D01*
X-22333Y10528D01*
X-22342Y10524D01*
X-22348Y10520D01*
X-22355Y10515D01*
X-22358Y10512D01*
X-22362Y10509D01*
X-22362Y10509D01*
X-22369Y10499D01*
X-22375Y10489D01*
X-22378Y10479D01*
X-22381Y10469D01*
X-22383Y10459D01*
X-22384Y10452D01*
X-22385Y10449D01*
Y10446D01*
Y10446D01*
Y10445D01*
X-22240D01*
X-22241Y10459D01*
X-22243Y10471D01*
X-22246Y10482D01*
X-22250Y10491D01*
X-22254Y10498D01*
X-22257Y10503D01*
X-22259Y10506D01*
X-22260Y10507D01*
X-22269Y10515D01*
X-22277Y10521D01*
X-22285Y10525D01*
X-22294Y10528D01*
X-22302Y10529D01*
X-22307Y10531D01*
D02*
G37*
G36*
X-20937D02*
X-20942D01*
X-20953Y10530D01*
X-20963Y10528D01*
X-20971Y10524D01*
X-20978Y10520D01*
X-20984Y10515D01*
X-20988Y10512D01*
X-20991Y10509D01*
X-20992Y10509D01*
X-20999Y10499D01*
X-21004Y10489D01*
X-21008Y10479D01*
X-21011Y10469D01*
X-21013Y10459D01*
X-21014Y10452D01*
X-21014Y10449D01*
Y10446D01*
Y10446D01*
Y10445D01*
X-20870D01*
X-20871Y10459D01*
X-20873Y10471D01*
X-20876Y10482D01*
X-20880Y10491D01*
X-20884Y10498D01*
X-20887Y10503D01*
X-20889Y10506D01*
X-20890Y10507D01*
X-20898Y10515D01*
X-20907Y10521D01*
X-20915Y10525D01*
X-20924Y10528D01*
X-20931Y10529D01*
X-20937Y10531D01*
D02*
G37*
G36*
X-16476D02*
X-16482D01*
X-16492Y10530D01*
X-16502Y10528D01*
X-16511Y10524D01*
X-16518Y10520D01*
X-16524Y10515D01*
X-16528Y10512D01*
X-16531Y10509D01*
X-16532Y10509D01*
X-16539Y10499D01*
X-16544Y10489D01*
X-16548Y10479D01*
X-16551Y10469D01*
X-16552Y10459D01*
X-16553Y10452D01*
X-16554Y10449D01*
Y10446D01*
Y10446D01*
Y10445D01*
X-16409D01*
X-16410Y10459D01*
X-16413Y10471D01*
X-16416Y10482D01*
X-16419Y10491D01*
X-16423Y10498D01*
X-16426Y10503D01*
X-16429Y10506D01*
X-16429Y10507D01*
X-16438Y10515D01*
X-16446Y10521D01*
X-16455Y10525D01*
X-16463Y10528D01*
X-16471Y10529D01*
X-16476Y10531D01*
D02*
G37*
%LPD*%
D19*
X-3922Y5033D02*
G03*
X-3922Y5033I-39J0D01*
G01*
D23*
X-4394Y9661D02*
G03*
X-4394Y9661I-118J0D01*
G01*
D40*
X-13229Y39543D02*
G03*
X-14141Y40472I-965J-36D01*
G01*
D02*
G03*
X-15074Y39544I37J-971D01*
G01*
X-14160Y36032D02*
G03*
X-13227Y36960I-37J971D01*
G01*
X-15073Y36961D02*
G03*
X-14160Y36032I965J36D01*
G01*
X-30227Y16802D02*
G03*
X-30227Y16802I-236J0D01*
G01*
X-9806Y7216D02*
G03*
X-8893Y6287I965J36D01*
G01*
D02*
G03*
X-7960Y7215I-37J971D01*
G01*
X-8874Y10727D02*
G03*
X-9807Y9799I37J-971D01*
G01*
X-7962Y9798D02*
G03*
X-8874Y10727I-965J-36D01*
G01*
X-20995Y5818D02*
X-20011D01*
X-23633D02*
X-22688D01*
X-23633Y1212D02*
Y5818D01*
Y1212D02*
X-20011D01*
Y5818D01*
X-15075Y39544D02*
X-15072Y36961D01*
X-13227Y36960D02*
Y39543D01*
X-7962Y9798D02*
X-7960Y7215D01*
X-9808Y7216D02*
Y9799D01*
X-25200Y41000D02*
X-24600D01*
X-24800Y41200D01*
X-24600Y41400D01*
X-25200D01*
X-24600Y41600D02*
Y41800D01*
Y41700D01*
X-25200D01*
Y41600D01*
Y41800D01*
X-24700Y42500D02*
X-24600Y42400D01*
Y42200D01*
X-24700Y42100D01*
X-25100D01*
X-25200Y42200D01*
Y42400D01*
X-25100Y42500D01*
X-25200Y42699D02*
X-24600D01*
Y42999D01*
X-24700Y43099D01*
X-24900D01*
X-25000Y42999D01*
Y42699D01*
Y42899D02*
X-25200Y43099D01*
X-24600Y43599D02*
Y43399D01*
X-24700Y43299D01*
X-25100D01*
X-25200Y43399D01*
Y43599D01*
X-25100Y43699D01*
X-24700D01*
X-24600Y43599D01*
X-24700Y44899D02*
X-24600Y44799D01*
Y44599D01*
X-24700Y44499D01*
X-24800D01*
X-24900Y44599D01*
Y44799D01*
X-25000Y44899D01*
X-25100D01*
X-25200Y44799D01*
Y44599D01*
X-25100Y44499D01*
X-24600Y45099D02*
X-25200D01*
Y45399D01*
X-25100Y45499D01*
X-24700D01*
X-24600Y45399D01*
Y45099D01*
X-2500Y32050D02*
X-2700D01*
X-2600D01*
Y31450D01*
X-2500D01*
X-2700D01*
X-3400Y31950D02*
X-3300Y32050D01*
X-3100D01*
X-3000Y31950D01*
Y31550D01*
X-3100Y31450D01*
X-3300D01*
X-3400Y31550D01*
X-4000Y31950D02*
X-3900Y32050D01*
X-3700D01*
X-3600Y31950D01*
Y31850D01*
X-3700Y31750D01*
X-3900D01*
X-4000Y31650D01*
Y31550D01*
X-3900Y31450D01*
X-3700D01*
X-3600Y31550D01*
X-4199Y31450D02*
Y32050D01*
X-4499D01*
X-4599Y31950D01*
Y31750D01*
X-4499Y31650D01*
X-4199D01*
X-15766Y3615D02*
X-15794Y3587D01*
X-15823Y3615D01*
X-15794Y3644D01*
X-15766Y3615D01*
D65*
X-5348Y9002D02*
G03*
X-5348Y9002I-49J0D01*
G01*
D66*
X-32111Y40092D02*
G03*
X-32111Y40092I-39J0D01*
G01*
X-20326Y28635D02*
G03*
X-20326Y28635I-39J0D01*
G01*
X-13250Y2541D02*
Y4943D01*
X-13083D01*
X-13250Y2541D02*
X-13083Y2541D01*
X-10996D02*
X-10829D01*
X-10996Y4943D02*
X-10829D01*
X-10829Y2541D01*
X-4906Y9268D02*
Y11591D01*
X-2583Y9268D02*
Y11591D01*
X-4906Y9268D02*
X-2583D01*
X-4906Y11591D02*
X-2583D01*
X-2030Y32272D02*
Y34272D01*
X-5030Y32272D02*
Y34272D01*
Y32272D02*
X-2030D01*
X-5030Y34272D02*
X-2030D01*
X-3947D02*
X-2030D01*
X-2810Y12882D02*
X-810D01*
X-2810Y15882D02*
X-810D01*
X-2810Y12882D02*
Y15882D01*
X-810Y12882D02*
Y15882D01*
Y12882D02*
Y14798D01*
D67*
X-19830Y19700D02*
X-19320D01*
X-19970Y19690D02*
X-19190D01*
X-20080Y19680D02*
X-19080D01*
X-20160Y19670D02*
X-18990D01*
X-20240Y19660D02*
X-18920D01*
X-20300Y19650D02*
X-18860D01*
X-20330Y19640D02*
X-18830D01*
X-20390Y19630D02*
X-18770D01*
X-20440Y19620D02*
X-18720D01*
X-20490Y19610D02*
X-18670D01*
X-20540Y19600D02*
X-18620D01*
X-20590Y19590D02*
X-18570D01*
X-20610Y19580D02*
X-18550D01*
X-20650Y19570D02*
X-18510D01*
X-20690Y19560D02*
X-18470D01*
X-20730Y19550D02*
X-18430D01*
X-20760Y19540D02*
X-18400D01*
X-20800Y19530D02*
X-18360D01*
X-20820Y19520D02*
X-18340D01*
X-20860Y19510D02*
X-18310D01*
X-20890Y19500D02*
X-18280D01*
X-20920Y19490D02*
X-18240D01*
X-20950Y19480D02*
X-18200D01*
X-20980Y19470D02*
X-18180D01*
X-20990Y19460D02*
X-18160D01*
X-21030Y19450D02*
X-18130D01*
X-21050Y19440D02*
X-18100D01*
X-21080Y19430D02*
X-18070D01*
X-21110Y19420D02*
X-18050D01*
X-21140Y19410D02*
X-18020D01*
X-21150Y19400D02*
X-18000D01*
X-21180Y19390D02*
X-17980D01*
X-21210Y19380D02*
X-17950D01*
X-21230Y19370D02*
X-17930D01*
X-21260Y19360D02*
X-17900D01*
X-21280Y19350D02*
X-17880D01*
X-21290Y19340D02*
X-17870D01*
X-21320Y19330D02*
X-17840D01*
X-21340Y19320D02*
X-17820D01*
X-21360Y19310D02*
X-17800D01*
X-21390Y19300D02*
X-17770D01*
X-21410Y19290D02*
X-17750D01*
X-21420Y19280D02*
X-17740D01*
X-21440Y19270D02*
X-17720D01*
X-21460Y19260D02*
X-17700D01*
X-21480Y19250D02*
X-17680D01*
X-21510Y19240D02*
X-17650D01*
X-21530Y19230D02*
X-17630D01*
X-21540Y19220D02*
X-17620D01*
X-21550Y19210D02*
X-17610D01*
X-21580Y19200D02*
X-17580D01*
X-21600Y19190D02*
X-17560D01*
X-21610Y19180D02*
X-17540D01*
X-21640Y19170D02*
X-17520D01*
X-21650Y19160D02*
X-17510D01*
X-21660Y19150D02*
X-17500D01*
X-21690Y19140D02*
X-17480D01*
X-21700Y19130D02*
X-17460D01*
X-21720Y19120D02*
X-17440D01*
X-21740Y19110D02*
X-17420D01*
X-21750Y19100D02*
X-17410D01*
X-21760Y19090D02*
X-17390D01*
X-21780Y19080D02*
X-17380D01*
X-21800Y19070D02*
X-17360D01*
X-21820Y19060D02*
X-17340D01*
X-21830Y19050D02*
X-17330D01*
X-21840Y19040D02*
X-17320D01*
X-21860Y19030D02*
X-17300D01*
X-21880Y19020D02*
X-17280D01*
X-21890Y19010D02*
X-17270D01*
X-21910Y19000D02*
X-17250D01*
X-21930Y18990D02*
X-17230D01*
X-21930Y18980D02*
X-17220D01*
X-21950Y18970D02*
X-17210D01*
X-21960Y18960D02*
X-17200D01*
X-21980Y18950D02*
X-17180D01*
X-22000Y18940D02*
X-17160D01*
X-22010Y18930D02*
X-17150D01*
X-22020Y18920D02*
X-17140D01*
X-22030Y18910D02*
X-17130D01*
X-22050Y18900D02*
X-17110D01*
X-22060Y18890D02*
X-17100D01*
X-22080Y18880D02*
X-17080D01*
X-22090Y18870D02*
X-17070D01*
X-22100Y18860D02*
X-17060D01*
X-22110Y18850D02*
X-17050D01*
X-22130Y18840D02*
X-17030D01*
X-22140Y18830D02*
X-17020D01*
X-22150Y18820D02*
X-17010D01*
X-22170Y18810D02*
X-16990D01*
X-22180Y18800D02*
X-16980D01*
X-22190Y18790D02*
X-16970D01*
X-22200Y18780D02*
X-16960D01*
X-22210Y18770D02*
X-16950D01*
X-22230Y18760D02*
X-16930D01*
X-22240Y18750D02*
X-16920D01*
X-22250Y18740D02*
X-16910D01*
X-22260Y18730D02*
X-16900D01*
X-22270Y18720D02*
X-16890D01*
X-22280Y18710D02*
X-16870D01*
X-22300Y18700D02*
X-16860D01*
X-22310Y18690D02*
X-16850D01*
X-22320Y18680D02*
X-16840D01*
X-22330Y18670D02*
X-16830D01*
X-22340Y18660D02*
X-16820D01*
X-22360Y18650D02*
X-16800D01*
X-22370Y18640D02*
X-16790D01*
X-22380Y18630D02*
X-16780D01*
X-22390Y18620D02*
X-16770D01*
X-22400Y18610D02*
X-16760D01*
X-22410Y18600D02*
X-16750D01*
X-22420Y18590D02*
X-16740D01*
X-22430Y18580D02*
X-16720D01*
X-22440Y18570D02*
X-16720D01*
X-22450Y18560D02*
X-16710D01*
X-22460Y18550D02*
X-16700D01*
X-22470Y18540D02*
X-16680D01*
X-22480Y18530D02*
X-16670D01*
X-22500Y18520D02*
X-16660D01*
X-22510Y18510D02*
X-16650D01*
X-22510Y18500D02*
X-16650D01*
X-22520Y18490D02*
X-16640D01*
X-22540Y18480D02*
X-16620D01*
X-22550Y18470D02*
X-16610D01*
X-22560Y18460D02*
X-16600D01*
X-22560Y18450D02*
X-16590D01*
X-22570Y18440D02*
X-16590D01*
X-22580Y18430D02*
X-16580D01*
X-22590Y18420D02*
X-16560D01*
X-22600Y18410D02*
X-16560D01*
X-22610Y18400D02*
X-20590D01*
X-20400D02*
X-18300D01*
X-18110D02*
X-16540D01*
X-22620Y18390D02*
X-20660D01*
X-20330D02*
X-18360D01*
X-18040D02*
X-16540D01*
X-22630Y18380D02*
X-20680D01*
X-20310D02*
X-18380D01*
X-18010D02*
X-16530D01*
X-22640Y18370D02*
X-20720D01*
X-20260D02*
X-18430D01*
X-17980D02*
X-16520D01*
X-22650Y18360D02*
X-20750D01*
X-20240D02*
X-18460D01*
X-17940D02*
X-16510D01*
X-22660Y18350D02*
X-20790D01*
X-20200D02*
X-18490D01*
X-17910D02*
X-16500D01*
X-22670Y18340D02*
X-20810D01*
X-20180D02*
X-18510D01*
X-17890D02*
X-16490D01*
X-22680Y18330D02*
X-20830D01*
X-20150D02*
X-18540D01*
X-17860D02*
X-16480D01*
X-22680Y18320D02*
X-20840D01*
X-20140D02*
X-18550D01*
X-17850D02*
X-16480D01*
X-22690Y18310D02*
X-20870D01*
X-20120D02*
X-18570D01*
X-17830D02*
X-16470D01*
X-22700Y18300D02*
X-20880D01*
X-20110D02*
X-18590D01*
X-17810D02*
X-16460D01*
X-22710Y18290D02*
X-20910D01*
X-20080D02*
X-18610D01*
X-17790D02*
X-16450D01*
X-22720Y18280D02*
X-20920D01*
X-20070D02*
X-18620D01*
X-17770D02*
X-16440D01*
X-22730Y18270D02*
X-20930D01*
X-20050D02*
X-18650D01*
X-17760D02*
X-16430D01*
X-22740Y18260D02*
X-20960D01*
X-20030D02*
X-18660D01*
X-17740D02*
X-16420D01*
X-22740Y18250D02*
X-20960D01*
X-20020D02*
X-18670D01*
X-17740D02*
X-16410D01*
X-22750Y18240D02*
X-20980D01*
X-20010D02*
X-18680D01*
X-17720D02*
X-16400D01*
X-22760Y18230D02*
X-20990D01*
X-20000D02*
X-18690D01*
X-17700D02*
X-16400D01*
X-22770Y18220D02*
X-21000D01*
X-19990D02*
X-18710D01*
X-17690D02*
X-16380D01*
X-22780Y18210D02*
X-21020D01*
X-19970D02*
X-18720D01*
X-17680D02*
X-16380D01*
X-22790Y18200D02*
X-21030D01*
X-19960D02*
X-18730D01*
X-17670D02*
X-16370D01*
X-22800Y18190D02*
X-21030D01*
X-19950D02*
X-18740D01*
X-17660D02*
X-16360D01*
X-22800Y18180D02*
X-21040D01*
X-19950D02*
X-18750D01*
X-17650D02*
X-16360D01*
X-22810Y18170D02*
X-21050D01*
X-19930D02*
X-18760D01*
X-17640D02*
X-16350D01*
X-22820Y18160D02*
X-21060D01*
X-19930D02*
X-18770D01*
X-17630D02*
X-16340D01*
X-22830Y18150D02*
X-21080D01*
X-19920D02*
X-18780D01*
X-17620D02*
X-16330D01*
X-22840Y18140D02*
X-21090D01*
X-19900D02*
X-18790D01*
X-17610D02*
X-16320D01*
X-22840Y18130D02*
X-21090D01*
X-19900D02*
X-18800D01*
X-17610D02*
X-16310D01*
X-22850Y18120D02*
X-21100D01*
X-19890D02*
X-18800D01*
X-17590D02*
X-16300D01*
X-22860Y18110D02*
X-21110D01*
X-19880D02*
X-18810D01*
X-17580D02*
X-16300D01*
X-22870Y18100D02*
X-21120D01*
X-19870D02*
X-18820D01*
X-17580D02*
X-16290D01*
X-22880Y18090D02*
X-21120D01*
X-19860D02*
X-18830D01*
X-17570D02*
X-16280D01*
X-22890Y18080D02*
X-21140D01*
X-19860D02*
X-18840D01*
X-17560D02*
X-16270D01*
X-22890Y18070D02*
X-21140D01*
X-19860D02*
X-18840D01*
X-17560D02*
X-16270D01*
X-22900Y18060D02*
X-21140D01*
X-19840D02*
X-18850D01*
X-17550D02*
X-16260D01*
X-22910Y18050D02*
X-21150D01*
X-19840D02*
X-18860D01*
X-17540D02*
X-16250D01*
X-22920Y18040D02*
X-21160D01*
X-19830D02*
X-18860D01*
X-17530D02*
X-16240D01*
X-22920Y18030D02*
X-21170D01*
X-19820D02*
X-18870D01*
X-17530D02*
X-16240D01*
X-22930Y18020D02*
X-21170D01*
X-19820D02*
X-18880D01*
X-17520D02*
X-16230D01*
X-22930Y18010D02*
X-21170D01*
X-19810D02*
X-18880D01*
X-17520D02*
X-16230D01*
X-22940Y18000D02*
X-21180D01*
X-19810D02*
X-18890D01*
X-17510D02*
X-16220D01*
X-22950Y17990D02*
X-21190D01*
X-19800D02*
X-18890D01*
X-17510D02*
X-16210D01*
X-22960Y17980D02*
X-21200D01*
X-19800D02*
X-18900D01*
X-17500D02*
X-16200D01*
X-22970Y17970D02*
X-21200D01*
X-20560D02*
X-20430D01*
X-19790D02*
X-18910D01*
X-18260D02*
X-18130D01*
X-17500D02*
X-16190D01*
X-22980Y17960D02*
X-21200D01*
X-20610D02*
X-20380D01*
X-19780D02*
X-18910D01*
X-18310D02*
X-18080D01*
X-17490D02*
X-16180D01*
X-22980Y17950D02*
X-21210D01*
X-20620D02*
X-20370D01*
X-19780D02*
X-18910D01*
X-18320D02*
X-18070D01*
X-17490D02*
X-16180D01*
X-22990Y17940D02*
X-21210D01*
X-20650D02*
X-20340D01*
X-19780D02*
X-18920D01*
X-18350D02*
X-18050D01*
X-17490D02*
X-16170D01*
X-22990Y17930D02*
X-21220D01*
X-20670D02*
X-20320D01*
X-19770D02*
X-18920D01*
X-18370D02*
X-18020D01*
X-17480D02*
X-16170D01*
X-23000Y17920D02*
X-21220D01*
X-20690D02*
X-20300D01*
X-19770D02*
X-18920D01*
X-18390D02*
X-18010D01*
X-17470D02*
X-16160D01*
X-23010Y17910D02*
X-21230D01*
X-20710D02*
X-20290D01*
X-19760D02*
X-18930D01*
X-18410D02*
X-17990D01*
X-17470D02*
X-16150D01*
X-23010Y17900D02*
X-21230D01*
X-20720D02*
X-20270D01*
X-19760D02*
X-18930D01*
X-18420D02*
X-17980D01*
X-17460D02*
X-16140D01*
X-23020Y17890D02*
X-21230D01*
X-20730D02*
X-20260D01*
X-19760D02*
X-18940D01*
X-18430D02*
X-17970D01*
X-17460D02*
X-16140D01*
X-23030Y17880D02*
X-21230D01*
X-20740D02*
X-20250D01*
X-19750D02*
X-18940D01*
X-18440D02*
X-17960D01*
X-17460D02*
X-16130D01*
X-23040Y17870D02*
X-21240D01*
X-20750D02*
X-20240D01*
X-19750D02*
X-18950D01*
X-18450D02*
X-17950D01*
X-17450D02*
X-16120D01*
X-23040Y17860D02*
X-21240D01*
X-20760D02*
X-20230D01*
X-19750D02*
X-18950D01*
X-18470D02*
X-17940D01*
X-17450D02*
X-16120D01*
X-23050Y17850D02*
X-21240D01*
X-20770D02*
X-20210D01*
X-19740D02*
X-18950D01*
X-18470D02*
X-17930D01*
X-17450D02*
X-16110D01*
X-23060Y17840D02*
X-21250D01*
X-20780D02*
X-20210D01*
X-19740D02*
X-18960D01*
X-18480D02*
X-17920D01*
X-17450D02*
X-16100D01*
X-23060Y17830D02*
X-21250D01*
X-20780D02*
X-20200D01*
X-19740D02*
X-18960D01*
X-18490D02*
X-17920D01*
X-17440D02*
X-16100D01*
X-23070Y17820D02*
X-21260D01*
X-20790D02*
X-20200D01*
X-19740D02*
X-18960D01*
X-18490D02*
X-17900D01*
X-17440D02*
X-16090D01*
X-23070Y17810D02*
X-21260D01*
X-20800D02*
X-20190D01*
X-19730D02*
X-18960D01*
X-18500D02*
X-17900D01*
X-17440D02*
X-16090D01*
X-23080Y17800D02*
X-21260D01*
X-20810D02*
X-20180D01*
X-19730D02*
X-18970D01*
X-18510D02*
X-17890D01*
X-17440D02*
X-16070D01*
X-23090Y17790D02*
X-21260D01*
X-20810D02*
X-20180D01*
X-19720D02*
X-18970D01*
X-18510D02*
X-17890D01*
X-17430D02*
X-16070D01*
X-23100Y17780D02*
X-21270D01*
X-20820D02*
X-20170D01*
X-19720D02*
X-18970D01*
X-18520D02*
X-17880D01*
X-17430D02*
X-16060D01*
X-23100Y17770D02*
X-21270D01*
X-20820D02*
X-20170D01*
X-19720D02*
X-18970D01*
X-18520D02*
X-17880D01*
X-17430D02*
X-16060D01*
X-23110Y17760D02*
X-21270D01*
X-20820D02*
X-20160D01*
X-19720D02*
X-18970D01*
X-18530D02*
X-17870D01*
X-17430D02*
X-16050D01*
X-23110Y17750D02*
X-21270D01*
X-20830D02*
X-20160D01*
X-19720D02*
X-18970D01*
X-18530D02*
X-17870D01*
X-17430D02*
X-16050D01*
X-23120Y17740D02*
X-21270D01*
X-20830D02*
X-20150D01*
X-19720D02*
X-18980D01*
X-18540D02*
X-17860D01*
X-17430D02*
X-16040D01*
X-23120Y17730D02*
X-21270D01*
X-20840D02*
X-20150D01*
X-19710D02*
X-18980D01*
X-18540D02*
X-17860D01*
X-17420D02*
X-16030D01*
X-23130Y17720D02*
X-21280D01*
X-20840D02*
X-20150D01*
X-19710D02*
X-18980D01*
X-18540D02*
X-17860D01*
X-17420D02*
X-16030D01*
X-23140Y17710D02*
X-21280D01*
X-20840D02*
X-20150D01*
X-19710D02*
X-18980D01*
X-18540D02*
X-17860D01*
X-17420D02*
X-16030D01*
X-23150Y17700D02*
X-21280D01*
X-20850D02*
X-20140D01*
X-19710D02*
X-18980D01*
X-18550D02*
X-17850D01*
X-17420D02*
X-16010D01*
X-23150Y17690D02*
X-21280D01*
X-20850D02*
X-20140D01*
X-19710D02*
X-18980D01*
X-18550D02*
X-17850D01*
X-17410D02*
X-16010D01*
X-23160Y17680D02*
X-21280D01*
X-20850D02*
X-20140D01*
X-19710D02*
X-18980D01*
X-18550D02*
X-17840D01*
X-17410D02*
X-16000D01*
X-23160Y17670D02*
X-21280D01*
X-20850D02*
X-20140D01*
X-19710D02*
X-18980D01*
X-18550D02*
X-17840D01*
X-17410D02*
X-16000D01*
X-23170Y17660D02*
X-21280D01*
X-20850D02*
X-20140D01*
X-19710D02*
X-18980D01*
X-18550D02*
X-17840D01*
X-17410D02*
X-15990D01*
X-23170Y17650D02*
X-21280D01*
X-20850D02*
X-20140D01*
X-19710D02*
X-18980D01*
X-18550D02*
X-17840D01*
X-17410D02*
X-15990D01*
X-23180Y17640D02*
X-21280D01*
X-20850D02*
X-20140D01*
X-19710D02*
X-18980D01*
X-18560D02*
X-17840D01*
X-17410D02*
X-15980D01*
X-23180Y17630D02*
X-21280D01*
X-20850D02*
X-20140D01*
X-19710D02*
X-18990D01*
X-18560D02*
X-17840D01*
X-17410D02*
X-15970D01*
X-23190Y17620D02*
X-21280D01*
X-20850D02*
X-20140D01*
X-19710D02*
X-18990D01*
X-18560D02*
X-17840D01*
X-17410D02*
X-15970D01*
X-23200Y17610D02*
X-21280D01*
X-20850D02*
X-20140D01*
X-19710D02*
X-18990D01*
X-18560D02*
X-17840D01*
X-17410D02*
X-15960D01*
X-23210Y17600D02*
X-21280D01*
X-20850D02*
X-20140D01*
X-19710D02*
X-18990D01*
X-18560D02*
X-17840D01*
X-17410D02*
X-15950D01*
X-23210Y17590D02*
X-21280D01*
X-20850D02*
X-20140D01*
X-19710D02*
X-18980D01*
X-18560D02*
X-17840D01*
X-17410D02*
X-15950D01*
X-23210Y17580D02*
X-21280D01*
X-20850D02*
X-20140D01*
X-19710D02*
X-18980D01*
X-18550D02*
X-17840D01*
X-17410D02*
X-15940D01*
X-23220Y17570D02*
X-21280D01*
X-20850D02*
X-20140D01*
X-19710D02*
X-18980D01*
X-18550D02*
X-17840D01*
X-17410D02*
X-15940D01*
X-23230Y17560D02*
X-21280D01*
X-20850D02*
X-20140D01*
X-19710D02*
X-18980D01*
X-18550D02*
X-17840D01*
X-17410D02*
X-15930D01*
X-23230Y17550D02*
X-21280D01*
X-20840D02*
X-20150D01*
X-19710D02*
X-18980D01*
X-18550D02*
X-17850D01*
X-17410D02*
X-15930D01*
X-23240Y17540D02*
X-21280D01*
X-20840D02*
X-20150D01*
X-19710D02*
X-18980D01*
X-18550D02*
X-17850D01*
X-17410D02*
X-15920D01*
X-23240Y17530D02*
X-21280D01*
X-20840D02*
X-20150D01*
X-19710D02*
X-18980D01*
X-18550D02*
X-17850D01*
X-17420D02*
X-15920D01*
X-23250Y17520D02*
X-21280D01*
X-20840D02*
X-20150D01*
X-19710D02*
X-18980D01*
X-18540D02*
X-17860D01*
X-17420D02*
X-15910D01*
X-23250Y17510D02*
X-21270D01*
X-20830D02*
X-20160D01*
X-19710D02*
X-18980D01*
X-18540D02*
X-17860D01*
X-17420D02*
X-15910D01*
X-23260Y17500D02*
X-21270D01*
X-20820D02*
X-20160D01*
X-19710D02*
X-18980D01*
X-18540D02*
X-17860D01*
X-17420D02*
X-15900D01*
X-23270Y17490D02*
X-21270D01*
X-20820D02*
X-20170D01*
X-19720D02*
X-18980D01*
X-18530D02*
X-17870D01*
X-17430D02*
X-15890D01*
X-23270Y17480D02*
X-21270D01*
X-20810D02*
X-20170D01*
X-19720D02*
X-18970D01*
X-18530D02*
X-17870D01*
X-17430D02*
X-15890D01*
X-23270Y17470D02*
X-21270D01*
X-20810D02*
X-20180D01*
X-19720D02*
X-18970D01*
X-18530D02*
X-17870D01*
X-17430D02*
X-15890D01*
X-23280Y17460D02*
X-21270D01*
X-20810D02*
X-20180D01*
X-19720D02*
X-18970D01*
X-18520D02*
X-17880D01*
X-17430D02*
X-15880D01*
X-23280Y17450D02*
X-21270D01*
X-20800D02*
X-20190D01*
X-19720D02*
X-18970D01*
X-18510D02*
X-17880D01*
X-17430D02*
X-15870D01*
X-23290Y17440D02*
X-21260D01*
X-20790D02*
X-20190D01*
X-19730D02*
X-18970D01*
X-18510D02*
X-17890D01*
X-17430D02*
X-15870D01*
X-23300Y17430D02*
X-21260D01*
X-20790D02*
X-20200D01*
X-19730D02*
X-18960D01*
X-18500D02*
X-17890D01*
X-17440D02*
X-15860D01*
X-23300Y17420D02*
X-21260D01*
X-20780D02*
X-20210D01*
X-19740D02*
X-18960D01*
X-18500D02*
X-17900D01*
X-17440D02*
X-15860D01*
X-23300Y17410D02*
X-21260D01*
X-20770D02*
X-20210D01*
X-19740D02*
X-18960D01*
X-18490D02*
X-17910D01*
X-17440D02*
X-15860D01*
X-23310Y17400D02*
X-21250D01*
X-20760D02*
X-20230D01*
X-19740D02*
X-18960D01*
X-18490D02*
X-17920D01*
X-17440D02*
X-15850D01*
X-23310Y17390D02*
X-21250D01*
X-20750D02*
X-20240D01*
X-19740D02*
X-18950D01*
X-18480D02*
X-17920D01*
X-17450D02*
X-15850D01*
X-23320Y17380D02*
X-21240D01*
X-20740D02*
X-20250D01*
X-19750D02*
X-18950D01*
X-18470D02*
X-17930D01*
X-17450D02*
X-15840D01*
X-23330Y17370D02*
X-21240D01*
X-20730D02*
X-20260D01*
X-19750D02*
X-18950D01*
X-18450D02*
X-17940D01*
X-17450D02*
X-15830D01*
X-23330Y17360D02*
X-21240D01*
X-20720D02*
X-20270D01*
X-19750D02*
X-18940D01*
X-18450D02*
X-17950D01*
X-17460D02*
X-15830D01*
X-23340Y17350D02*
X-21230D01*
X-20710D02*
X-20280D01*
X-19750D02*
X-18940D01*
X-18440D02*
X-17960D01*
X-17460D02*
X-15830D01*
X-23340Y17340D02*
X-21230D01*
X-20690D02*
X-20300D01*
X-19760D02*
X-18930D01*
X-18430D02*
X-17970D01*
X-17460D02*
X-15820D01*
X-23340Y17330D02*
X-21230D01*
X-20670D02*
X-20310D01*
X-19760D02*
X-18930D01*
X-18410D02*
X-17990D01*
X-17460D02*
X-15810D01*
X-23350Y17320D02*
X-21220D01*
X-20650D02*
X-20330D01*
X-19770D02*
X-18930D01*
X-18400D02*
X-18000D01*
X-17470D02*
X-15810D01*
X-23350Y17310D02*
X-21220D01*
X-20620D02*
X-20360D01*
X-19770D02*
X-18920D01*
X-18380D02*
X-18020D01*
X-17470D02*
X-15810D01*
X-23360Y17300D02*
X-21210D01*
X-20590D02*
X-20390D01*
X-19770D02*
X-18920D01*
X-18360D02*
X-18040D01*
X-17480D02*
X-15800D01*
X-23360Y17290D02*
X-21210D01*
X-20570D02*
X-20420D01*
X-19780D02*
X-18920D01*
X-18350D02*
X-18050D01*
X-17480D02*
X-15800D01*
X-23370Y17280D02*
X-21210D01*
X-19780D02*
X-18910D01*
X-18320D02*
X-18070D01*
X-17490D02*
X-15790D01*
X-23370Y17270D02*
X-21200D01*
X-19780D02*
X-18910D01*
X-18290D02*
X-18110D01*
X-17490D02*
X-15790D01*
X-23370Y17260D02*
X-21200D01*
X-19790D02*
X-18900D01*
X-17500D02*
X-15780D01*
X-23380Y17250D02*
X-21190D01*
X-19800D02*
X-18900D01*
X-17500D02*
X-15780D01*
X-23390Y17240D02*
X-21180D01*
X-19810D02*
X-18890D01*
X-17510D02*
X-15770D01*
X-23390Y17230D02*
X-21180D01*
X-19810D02*
X-18890D01*
X-17510D02*
X-15770D01*
X-23390Y17220D02*
X-21170D01*
X-19810D02*
X-18880D01*
X-17500D02*
X-15760D01*
X-23400Y17210D02*
X-21170D01*
X-19820D02*
X-18870D01*
X-17490D02*
X-15760D01*
X-23400Y17200D02*
X-21160D01*
X-19830D02*
X-18860D01*
X-17480D02*
X-15760D01*
X-23410Y17190D02*
X-21150D01*
X-19830D02*
X-18860D01*
X-17470D02*
X-15750D01*
X-23410Y17180D02*
X-21150D01*
X-19840D02*
X-18850D01*
X-17460D02*
X-15750D01*
X-23410Y17170D02*
X-21150D01*
X-19840D02*
X-18850D01*
X-17460D02*
X-15750D01*
X-23420Y17160D02*
X-21140D01*
X-19850D02*
X-18840D01*
X-17450D02*
X-15740D01*
X-23420Y17150D02*
X-21130D01*
X-19860D02*
X-18840D01*
X-17440D02*
X-15740D01*
X-23430Y17140D02*
X-21120D01*
X-19860D02*
X-18830D01*
X-17430D02*
X-15730D01*
X-23430Y17130D02*
X-21110D01*
X-19840D02*
X-18810D01*
X-17410D02*
X-15730D01*
X-23440Y17120D02*
X-21100D01*
X-19830D02*
X-18810D01*
X-17400D02*
X-15720D01*
X-23440Y17110D02*
X-21100D01*
X-19830D02*
X-18800D01*
X-17400D02*
X-15720D01*
X-23450Y17100D02*
X-21090D01*
X-19820D02*
X-18790D01*
X-17390D02*
X-15710D01*
X-23450Y17090D02*
X-21080D01*
X-19810D02*
X-18790D01*
X-17380D02*
X-15710D01*
X-23450Y17080D02*
X-21070D01*
X-19800D02*
X-18780D01*
X-17370D02*
X-15700D01*
X-23460Y17070D02*
X-21060D01*
X-19780D02*
X-18770D01*
X-17360D02*
X-15700D01*
X-23460Y17060D02*
X-21050D01*
X-19770D02*
X-18750D01*
X-17350D02*
X-15700D01*
X-23460Y17050D02*
X-21040D01*
X-19770D02*
X-18750D01*
X-17340D02*
X-15690D01*
X-23470Y17040D02*
X-21030D01*
X-19760D02*
X-18740D01*
X-17330D02*
X-15690D01*
X-23470Y17030D02*
X-21020D01*
X-19750D02*
X-18730D01*
X-17320D02*
X-15690D01*
X-23480Y17020D02*
X-21000D01*
X-19740D02*
X-18710D01*
X-17310D02*
X-15680D01*
X-23480Y17010D02*
X-20990D01*
X-19720D02*
X-18700D01*
X-17300D02*
X-15680D01*
X-23480Y17000D02*
X-20980D01*
X-19710D02*
X-18680D01*
X-17290D02*
X-15680D01*
X-23480Y16990D02*
X-20970D01*
X-19710D02*
X-18680D01*
X-17290D02*
X-15670D01*
X-23490Y16980D02*
X-20960D01*
X-19700D02*
X-18660D01*
X-17280D02*
X-15670D01*
X-23490Y16970D02*
X-20940D01*
X-19690D02*
X-18650D01*
X-17270D02*
X-15670D01*
X-23500Y16960D02*
X-20930D01*
X-19680D02*
X-18630D01*
X-17260D02*
X-15660D01*
X-23500Y16950D02*
X-20910D01*
X-19660D02*
X-18620D01*
X-17250D02*
X-15650D01*
X-23510Y16940D02*
X-20890D01*
X-19650D02*
X-18600D01*
X-17800D02*
X-17770D01*
X-17230D02*
X-15650D01*
X-23510Y16930D02*
X-20880D01*
X-19650D02*
X-18590D01*
X-17810D02*
X-17770D01*
X-17230D02*
X-15650D01*
X-23510Y16920D02*
X-20860D01*
X-19640D02*
X-18570D01*
X-17830D02*
X-17760D01*
X-17220D02*
X-15640D01*
X-23520Y16910D02*
X-20840D01*
X-19630D02*
X-18550D01*
X-17860D02*
X-17750D01*
X-17210D02*
X-15640D01*
X-23520Y16900D02*
X-20820D01*
X-19620D02*
X-18520D01*
X-17870D02*
X-17740D01*
X-17200D02*
X-15640D01*
X-23520Y16890D02*
X-20790D01*
X-20190D02*
X-20160D01*
X-19600D02*
X-18500D01*
X-17900D02*
X-17720D01*
X-17190D02*
X-15640D01*
X-23530Y16880D02*
X-20760D01*
X-20230D02*
X-20150D01*
X-19590D02*
X-18470D01*
X-17930D02*
X-17720D01*
X-17180D02*
X-15630D01*
X-23530Y16870D02*
X-20730D01*
X-20260D02*
X-20140D01*
X-19580D02*
X-18440D01*
X-17960D02*
X-17710D01*
X-17170D02*
X-15630D01*
X-23530Y16860D02*
X-20720D01*
X-20270D02*
X-20130D01*
X-19580D02*
X-18420D01*
X-17980D02*
X-17700D01*
X-17160D02*
X-15630D01*
X-23540Y16850D02*
X-20670D01*
X-20310D02*
X-20120D01*
X-19570D02*
X-18380D01*
X-18020D02*
X-17690D01*
X-17150D02*
X-15620D01*
X-23540Y16840D02*
X-20620D01*
X-20370D02*
X-20110D01*
X-19560D02*
X-18320D01*
X-18070D02*
X-17680D01*
X-17150D02*
X-15620D01*
X-23540Y16830D02*
X-21940D01*
X-21760D02*
X-20100D01*
X-19540D02*
X-17670D01*
X-17140D02*
X-15620D01*
X-23550Y16820D02*
X-22010D01*
X-21690D02*
X-20090D01*
X-19530D02*
X-17660D01*
X-23550Y16810D02*
X-22060D01*
X-21640D02*
X-20080D01*
X-19520D02*
X-17650D01*
X-23550Y16800D02*
X-22080D01*
X-21630D02*
X-20070D01*
X-19520D02*
X-17640D01*
X-23550Y16790D02*
X-22110D01*
X-21590D02*
X-20060D01*
X-19510D02*
X-17640D01*
X-23560Y16780D02*
X-22140D01*
X-21570D02*
X-20050D01*
X-19500D02*
X-17620D01*
X-23560Y16770D02*
X-22170D01*
X-21540D02*
X-20040D01*
X-19480D02*
X-17620D01*
X-23570Y16760D02*
X-22190D01*
X-21510D02*
X-20030D01*
X-19470D02*
X-17610D01*
X-23570Y16750D02*
X-22210D01*
X-21490D02*
X-20020D01*
X-19460D02*
X-17590D01*
X-23570Y16740D02*
X-22220D01*
X-21480D02*
X-20010D01*
X-19460D02*
X-17590D01*
X-23580Y16730D02*
X-22240D01*
X-21460D02*
X-20000D01*
X-19450D02*
X-17580D01*
X-23580Y16720D02*
X-22260D01*
X-21450D02*
X-19990D01*
X-19440D02*
X-17570D01*
X-23580Y16710D02*
X-22280D01*
X-21420D02*
X-19980D01*
X-19420D02*
X-17560D01*
X-23580Y16700D02*
X-22300D01*
X-21410D02*
X-19970D01*
X-19410D02*
X-17550D01*
X-23590Y16690D02*
X-22310D01*
X-21390D02*
X-19960D01*
X-19400D02*
X-17540D01*
X-23590Y16680D02*
X-22320D01*
X-21390D02*
X-19950D01*
X-19400D02*
X-17530D01*
X-23590Y16670D02*
X-22330D01*
X-21370D02*
X-19940D01*
X-19390D02*
X-17520D01*
X-23590Y16660D02*
X-22340D01*
X-21360D02*
X-19930D01*
X-19380D02*
X-17510D01*
X-23600Y16650D02*
X-22360D01*
X-21340D02*
X-19920D01*
X-19360D02*
X-17500D01*
X-23600Y16640D02*
X-22370D01*
X-21330D02*
X-19910D01*
X-19350D02*
X-17490D01*
X-23600Y16630D02*
X-22380D01*
X-21320D02*
X-19900D01*
X-19340D02*
X-17490D01*
X-23600Y16620D02*
X-22390D01*
X-21320D02*
X-19890D01*
X-19340D02*
X-17470D01*
X-23610Y16610D02*
X-22400D01*
X-21300D02*
X-19880D01*
X-19330D02*
X-17470D01*
X-23610Y16600D02*
X-22410D01*
X-21290D02*
X-19870D01*
X-19320D02*
X-17460D01*
X-23610Y16590D02*
X-22420D01*
X-21280D02*
X-19860D01*
X-19300D02*
X-17450D01*
X-23610Y16580D02*
X-22430D01*
X-21270D02*
X-19850D01*
X-19290D02*
X-17440D01*
X-23620Y16570D02*
X-22440D01*
X-21260D02*
X-19840D01*
X-19280D02*
X-17430D01*
X-23620Y16560D02*
X-22440D01*
X-21260D02*
X-19830D01*
X-19280D02*
X-17420D01*
X-23620Y16550D02*
X-22450D01*
X-21240D02*
X-19820D01*
X-19270D02*
X-17410D01*
X-23630Y16540D02*
X-22460D01*
X-21240D02*
X-19810D01*
X-19260D02*
X-17400D01*
X-23630Y16530D02*
X-22480D01*
X-21230D02*
X-19800D01*
X-19240D02*
X-17390D01*
X-23630Y16520D02*
X-22480D01*
X-21220D02*
X-19790D01*
X-19230D02*
X-17380D01*
X-23630Y16510D02*
X-22490D01*
X-21210D02*
X-19780D01*
X-19220D02*
X-17370D01*
X-23640Y16500D02*
X-22490D01*
X-21210D02*
X-19770D01*
X-19220D02*
X-17370D01*
X-23640Y16490D02*
X-22500D01*
X-21200D02*
X-19760D01*
X-19210D02*
X-17350D01*
X-23640Y16480D02*
X-22510D01*
X-21200D02*
X-19750D01*
X-19200D02*
X-17340D01*
X-23640Y16470D02*
X-22510D01*
X-21180D02*
X-19750D01*
X-19190D02*
X-17330D01*
X-23650Y16460D02*
X-22520D01*
X-21180D02*
X-19730D01*
X-19170D02*
X-17320D01*
X-23650Y16450D02*
X-22530D01*
X-21170D02*
X-19720D01*
X-19160D02*
X-17310D01*
X-23650Y16440D02*
X-22530D01*
X-21170D02*
X-19710D01*
X-19160D02*
X-17310D01*
X-23650Y16430D02*
X-22540D01*
X-21160D02*
X-19710D01*
X-19150D02*
X-15510D01*
X-23650Y16420D02*
X-22540D01*
X-21160D02*
X-19690D01*
X-19140D02*
X-15510D01*
X-23660Y16410D02*
X-22550D01*
X-21150D02*
X-19680D01*
X-19130D02*
X-15500D01*
X-23660Y16400D02*
X-22560D01*
X-21920D02*
X-21780D01*
X-21150D02*
X-19670D01*
X-19110D02*
X-15500D01*
X-23660Y16390D02*
X-22560D01*
X-21960D02*
X-21750D01*
X-21140D02*
X-19660D01*
X-19100D02*
X-15500D01*
X-23660Y16380D02*
X-22560D01*
X-21970D02*
X-21720D01*
X-21140D02*
X-19650D01*
X-19100D02*
X-15500D01*
X-23660Y16370D02*
X-22570D01*
X-22000D02*
X-21700D01*
X-21140D02*
X-19640D01*
X-19090D02*
X-15500D01*
X-23660Y16360D02*
X-22570D01*
X-22020D02*
X-21680D01*
X-21130D02*
X-19630D01*
X-19080D02*
X-15490D01*
X-23670Y16350D02*
X-22580D01*
X-22040D02*
X-21660D01*
X-21120D02*
X-19630D01*
X-19070D02*
X-15490D01*
X-23670Y16340D02*
X-22580D01*
X-22060D02*
X-21640D01*
X-21120D02*
X-19610D01*
X-19050D02*
X-15490D01*
X-23670Y16330D02*
X-22580D01*
X-22070D02*
X-21630D01*
X-21110D02*
X-19600D01*
X-19040D02*
X-15490D01*
X-23670Y16320D02*
X-22590D01*
X-22080D02*
X-21620D01*
X-21110D02*
X-19590D01*
X-19040D02*
X-15490D01*
X-23670Y16310D02*
X-22590D01*
X-22090D02*
X-21610D01*
X-21110D02*
X-19590D01*
X-19030D02*
X-15490D01*
X-23670Y16300D02*
X-22600D01*
X-22110D02*
X-21600D01*
X-21110D02*
X-19570D01*
X-19020D02*
X-15480D01*
X-23680Y16290D02*
X-22600D01*
X-22120D02*
X-21590D01*
X-21100D02*
X-19560D01*
X-19010D02*
X-15480D01*
X-23680Y16280D02*
X-22600D01*
X-22130D02*
X-21580D01*
X-21100D02*
X-19550D01*
X-18990D02*
X-15480D01*
X-23690Y16270D02*
X-22610D01*
X-22130D02*
X-21570D01*
X-21100D02*
X-19540D01*
X-18980D02*
X-15470D01*
X-23690Y16260D02*
X-22610D01*
X-22140D02*
X-21570D01*
X-21090D02*
X-19530D01*
X-18980D02*
X-15470D01*
X-23690Y16250D02*
X-22610D01*
X-22140D02*
X-21550D01*
X-21090D02*
X-19520D01*
X-18970D02*
X-15470D01*
X-23690Y16240D02*
X-22610D01*
X-22150D02*
X-21550D01*
X-21090D02*
X-19510D01*
X-18960D02*
X-15470D01*
X-23690Y16230D02*
X-22620D01*
X-22160D02*
X-21540D01*
X-21090D02*
X-19510D01*
X-18950D02*
X-15470D01*
X-23690Y16220D02*
X-22620D01*
X-22170D02*
X-21540D01*
X-21080D02*
X-19490D01*
X-18930D02*
X-15470D01*
X-23690Y16210D02*
X-22620D01*
X-22170D02*
X-21530D01*
X-21080D02*
X-19480D01*
X-18920D02*
X-15460D01*
X-23700Y16200D02*
X-22620D01*
X-22180D02*
X-21530D01*
X-21080D02*
X-19470D01*
X-18920D02*
X-15460D01*
X-23700Y16190D02*
X-22620D01*
X-22180D02*
X-21520D01*
X-21080D02*
X-19470D01*
X-18910D02*
X-15460D01*
X-23700Y16180D02*
X-22630D01*
X-22180D02*
X-21520D01*
X-21080D02*
X-19450D01*
X-18900D02*
X-15460D01*
X-23700Y16170D02*
X-22630D01*
X-22190D02*
X-21520D01*
X-21080D02*
X-19440D01*
X-18890D02*
X-15460D01*
X-23700Y16160D02*
X-22630D01*
X-22190D02*
X-21510D01*
X-21070D02*
X-19430D01*
X-18870D02*
X-15460D01*
X-23700Y16150D02*
X-22630D01*
X-22190D02*
X-21510D01*
X-21070D02*
X-19420D01*
X-18860D02*
X-15460D01*
X-23700Y16140D02*
X-22630D01*
X-22200D02*
X-21510D01*
X-21070D02*
X-19410D01*
X-18860D02*
X-15460D01*
X-23700Y16130D02*
X-22630D01*
X-22200D02*
X-21510D01*
X-21070D02*
X-19400D01*
X-18850D02*
X-15450D01*
X-23710Y16120D02*
X-22630D01*
X-22200D02*
X-21500D01*
X-21070D02*
X-19390D01*
X-18840D02*
X-15450D01*
X-23710Y16110D02*
X-22630D01*
X-22200D02*
X-21500D01*
X-21060D02*
X-19390D01*
X-18830D02*
X-15450D01*
X-23710Y16100D02*
X-22630D01*
X-22200D02*
X-21490D01*
X-21060D02*
X-19370D01*
X-18810D02*
X-15450D01*
X-23710Y16090D02*
X-22640D01*
X-22210D02*
X-21490D01*
X-21060D02*
X-19360D01*
X-18800D02*
X-15450D01*
X-23710Y16080D02*
X-22640D01*
X-22210D02*
X-21490D01*
X-21060D02*
X-19350D01*
X-18800D02*
X-15450D01*
X-23710Y16070D02*
X-22640D01*
X-22210D02*
X-21490D01*
X-21060D02*
X-19350D01*
X-18790D02*
X-15450D01*
X-23710Y16060D02*
X-22640D01*
X-22210D02*
X-21490D01*
X-21060D02*
X-19330D01*
X-18780D02*
X-15450D01*
X-23720Y16050D02*
X-22640D01*
X-22210D02*
X-21490D01*
X-21060D02*
X-19320D01*
X-18770D02*
X-15440D01*
X-23720Y16040D02*
X-22640D01*
X-22210D02*
X-21490D01*
X-21060D02*
X-19310D01*
X-18750D02*
X-15440D01*
X-23720Y16030D02*
X-22640D01*
X-22210D02*
X-21490D01*
X-21060D02*
X-19300D01*
X-18740D02*
X-15440D01*
X-23720Y16020D02*
X-22640D01*
X-22210D02*
X-21490D01*
X-21060D02*
X-19290D01*
X-18740D02*
X-15440D01*
X-23720Y16010D02*
X-22640D01*
X-22210D02*
X-21490D01*
X-21060D02*
X-19280D01*
X-18730D02*
X-15440D01*
X-23720Y16000D02*
X-22640D01*
X-22200D02*
X-21490D01*
X-21060D02*
X-19270D01*
X-18720D02*
X-15440D01*
X-23720Y15990D02*
X-22630D01*
X-22200D02*
X-21500D01*
X-21060D02*
X-19270D01*
X-18710D02*
X-15440D01*
X-23720Y15980D02*
X-22630D01*
X-22200D02*
X-21500D01*
X-21070D02*
X-19250D01*
X-18690D02*
X-15440D01*
X-23720Y15970D02*
X-22630D01*
X-22200D02*
X-21500D01*
X-21070D02*
X-19240D01*
X-18680D02*
X-15440D01*
X-23720Y15960D02*
X-22630D01*
X-22200D02*
X-21510D01*
X-21070D02*
X-19230D01*
X-18680D02*
X-15440D01*
X-23720Y15950D02*
X-22630D01*
X-22200D02*
X-21510D01*
X-21070D02*
X-19230D01*
X-18670D02*
X-15430D01*
X-23730Y15940D02*
X-22630D01*
X-22190D02*
X-21510D01*
X-21070D02*
X-19210D01*
X-18660D02*
X-15430D01*
X-23730Y15930D02*
X-22630D01*
X-22190D02*
X-21510D01*
X-21080D02*
X-19200D01*
X-18650D02*
X-15430D01*
X-23730Y15920D02*
X-22630D01*
X-22190D02*
X-21520D01*
X-21080D02*
X-19190D01*
X-18630D02*
X-15430D01*
X-23730Y15910D02*
X-22630D01*
X-22180D02*
X-21520D01*
X-21080D02*
X-19190D01*
X-18620D02*
X-15430D01*
X-23730Y15900D02*
X-22620D01*
X-22180D02*
X-21520D01*
X-21080D02*
X-19170D01*
X-18620D02*
X-15430D01*
X-23730Y15890D02*
X-22620D01*
X-22170D02*
X-21530D01*
X-21080D02*
X-19160D01*
X-18610D02*
X-15430D01*
X-23730Y15880D02*
X-22620D01*
X-22170D02*
X-21530D01*
X-21080D02*
X-19150D01*
X-18600D02*
X-15430D01*
X-23730Y15870D02*
X-22620D01*
X-22160D02*
X-21540D01*
X-21090D02*
X-19140D01*
X-18590D02*
X-15430D01*
X-23730Y15860D02*
X-22620D01*
X-22150D02*
X-21540D01*
X-21090D02*
X-19130D01*
X-18570D02*
X-15430D01*
X-23730Y15850D02*
X-22610D01*
X-22150D02*
X-21550D01*
X-21090D02*
X-19120D01*
X-18560D02*
X-15430D01*
X-23730Y15840D02*
X-22610D01*
X-22140D02*
X-21560D01*
X-21090D02*
X-19110D01*
X-18560D02*
X-15430D01*
X-23730Y15830D02*
X-22610D01*
X-22140D02*
X-21570D01*
X-21100D02*
X-19100D01*
X-18550D02*
X-15430D01*
X-23730Y15820D02*
X-22610D01*
X-22130D02*
X-21580D01*
X-21100D02*
X-19090D01*
X-18540D02*
X-15420D01*
X-23740Y15810D02*
X-22600D01*
X-22120D02*
X-21590D01*
X-21100D02*
X-19080D01*
X-18530D02*
X-15420D01*
X-23740Y15800D02*
X-22600D01*
X-22110D02*
X-21590D01*
X-21100D02*
X-19070D01*
X-18510D02*
X-15420D01*
X-23740Y15790D02*
X-22600D01*
X-22100D02*
X-21600D01*
X-21110D02*
X-19060D01*
X-18500D02*
X-15420D01*
X-23740Y15780D02*
X-22590D01*
X-22090D02*
X-21610D01*
X-21110D02*
X-19050D01*
X-18500D02*
X-15420D01*
X-23740Y15770D02*
X-22590D01*
X-22080D02*
X-21630D01*
X-21110D02*
X-19040D01*
X-18490D02*
X-15420D01*
X-23740Y15760D02*
X-22580D01*
X-22070D02*
X-21640D01*
X-21120D02*
X-19030D01*
X-18480D02*
X-15420D01*
X-23740Y15750D02*
X-22580D01*
X-22050D02*
X-21650D01*
X-21120D02*
X-19020D01*
X-18470D02*
X-15420D01*
X-23740Y15740D02*
X-22570D01*
X-22030D02*
X-21670D01*
X-21130D02*
X-19010D01*
X-18450D02*
X-15420D01*
X-23740Y15730D02*
X-22570D01*
X-22010D02*
X-21690D01*
X-21130D02*
X-19000D01*
X-23740Y15720D02*
X-22570D01*
X-22000D02*
X-21700D01*
X-21140D02*
X-18990D01*
X-23740Y15710D02*
X-22560D01*
X-21970D02*
X-21730D01*
X-21140D02*
X-18980D01*
X-23750Y15700D02*
X-22560D01*
X-21940D02*
X-21760D01*
X-21150D02*
X-18970D01*
X-23750Y15690D02*
X-22550D01*
X-21860D02*
X-21840D01*
X-21150D02*
X-18960D01*
X-23750Y15680D02*
X-22550D01*
X-21160D02*
X-18950D01*
X-23750Y15670D02*
X-22540D01*
X-21160D02*
X-18940D01*
X-23750Y15660D02*
X-22540D01*
X-21160D02*
X-18930D01*
X-23750Y15650D02*
X-22530D01*
X-21170D02*
X-18920D01*
X-23750Y15640D02*
X-22520D01*
X-21170D02*
X-18910D01*
X-23750Y15630D02*
X-22520D01*
X-21170D02*
X-18900D01*
X-23750Y15620D02*
X-22510D01*
X-21160D02*
X-18890D01*
X-23750Y15610D02*
X-22500D01*
X-21150D02*
X-18880D01*
X-23750Y15600D02*
X-22500D01*
X-21150D02*
X-18870D01*
X-23750Y15590D02*
X-22490D01*
X-21140D02*
X-18860D01*
X-23750Y15580D02*
X-22490D01*
X-21120D02*
X-18850D01*
X-23750Y15570D02*
X-22480D01*
X-21110D02*
X-18840D01*
X-23750Y15560D02*
X-22460D01*
X-21100D02*
X-18830D01*
X-23750Y15550D02*
X-22460D01*
X-21090D02*
X-18820D01*
X-23750Y15540D02*
X-22450D01*
X-21090D02*
X-18810D01*
X-23750Y15530D02*
X-22450D01*
X-21080D02*
X-18800D01*
X-23750Y15520D02*
X-22440D01*
X-21070D02*
X-18790D01*
X-23750Y15510D02*
X-22430D01*
X-21060D02*
X-18780D01*
X-23750Y15500D02*
X-22420D01*
X-21050D02*
X-18770D01*
X-23750Y15490D02*
X-22400D01*
X-21040D02*
X-18760D01*
X-23750Y15480D02*
X-22390D01*
X-21030D02*
X-18750D01*
X-23750Y15470D02*
X-22390D01*
X-21020D02*
X-18740D01*
X-23750Y15460D02*
X-22380D01*
X-21010D02*
X-18730D01*
X-23750Y15450D02*
X-22370D01*
X-21000D02*
X-18720D01*
X-23750Y15440D02*
X-22350D01*
X-20990D02*
X-18710D01*
X-23750Y15430D02*
X-22330D01*
X-20980D02*
X-18700D01*
X-23750Y15420D02*
X-22320D01*
X-20970D02*
X-18690D01*
X-23750Y15410D02*
X-22320D01*
X-20970D02*
X-18680D01*
X-23750Y15400D02*
X-22300D01*
X-20960D02*
X-18670D01*
X-23750Y15390D02*
X-22280D01*
X-20940D02*
X-18660D01*
X-23750Y15380D02*
X-22270D01*
X-20930D02*
X-18650D01*
X-23740Y15370D02*
X-22250D01*
X-20920D02*
X-18640D01*
X-23740Y15360D02*
X-22230D01*
X-21470D02*
X-21450D01*
X-20910D02*
X-18630D01*
X-23740Y15350D02*
X-22220D01*
X-21480D02*
X-21450D01*
X-20910D02*
X-18620D01*
X-23740Y15340D02*
X-22200D01*
X-21510D02*
X-21440D01*
X-20900D02*
X-15420D01*
X-23740Y15330D02*
X-22180D01*
X-21520D02*
X-21420D01*
X-20890D02*
X-15420D01*
X-23740Y15320D02*
X-22150D01*
X-21550D02*
X-21410D01*
X-20880D02*
X-15420D01*
X-23740Y15310D02*
X-22130D01*
X-21580D02*
X-21410D01*
X-20870D02*
X-15420D01*
X-23740Y15300D02*
X-22090D01*
X-21610D02*
X-21400D01*
X-20860D02*
X-15420D01*
X-23740Y15290D02*
X-22070D01*
X-21630D02*
X-21390D01*
X-20850D02*
X-15420D01*
X-23740Y15280D02*
X-22030D01*
X-21670D02*
X-21380D01*
X-20840D02*
X-15420D01*
X-23740Y15270D02*
X-21970D01*
X-21720D02*
X-21370D01*
X-20830D02*
X-15420D01*
X-23730Y15260D02*
X-21360D01*
X-20820D02*
X-15420D01*
X-23730Y15250D02*
X-21350D01*
X-20810D02*
X-15430D01*
X-23730Y15240D02*
X-21340D01*
X-20800D02*
X-15430D01*
X-23730Y15230D02*
X-21330D01*
X-20800D02*
X-15430D01*
X-23730Y15220D02*
X-21320D01*
X-20790D02*
X-15430D01*
X-23730Y15210D02*
X-21320D01*
X-20780D02*
X-15430D01*
X-23730Y15200D02*
X-21300D01*
X-20760D02*
X-15430D01*
X-23730Y15190D02*
X-21290D01*
X-20750D02*
X-15430D01*
X-23730Y15180D02*
X-21280D01*
X-20750D02*
X-15430D01*
X-23730Y15170D02*
X-21280D01*
X-20740D02*
X-15430D01*
X-23730Y15160D02*
X-21270D01*
X-20730D02*
X-15430D01*
X-23730Y15150D02*
X-21260D01*
X-20720D02*
X-15430D01*
X-23730Y15140D02*
X-21240D01*
X-20710D02*
X-15430D01*
X-23720Y15130D02*
X-21240D01*
X-20700D02*
X-15430D01*
X-23720Y15120D02*
X-21220D01*
X-20690D02*
X-15440D01*
X-23720Y15110D02*
X-21220D01*
X-20680D02*
X-15440D01*
X-23720Y15100D02*
X-21210D01*
X-20670D02*
X-15440D01*
X-23720Y15090D02*
X-21200D01*
X-20660D02*
X-15440D01*
X-23720Y15080D02*
X-21190D01*
X-20650D02*
X-15440D01*
X-23720Y15070D02*
X-21180D01*
X-20650D02*
X-15440D01*
X-23720Y15060D02*
X-21170D01*
X-20630D02*
X-15440D01*
X-23720Y15050D02*
X-21160D01*
X-20630D02*
X-15440D01*
X-23720Y15040D02*
X-21160D01*
X-20620D02*
X-15440D01*
X-23710Y15030D02*
X-21150D01*
X-20610D02*
X-15440D01*
X-23710Y15020D02*
X-21140D01*
X-20600D02*
X-15450D01*
X-23710Y15010D02*
X-21120D01*
X-20590D02*
X-15450D01*
X-23710Y15000D02*
X-21110D01*
X-20570D02*
X-15450D01*
X-23710Y14990D02*
X-21110D01*
X-20570D02*
X-15450D01*
X-23710Y14980D02*
X-21100D01*
X-20560D02*
X-15450D01*
X-23710Y14970D02*
X-21090D01*
X-20550D02*
X-15450D01*
X-23710Y14960D02*
X-21080D01*
X-20540D02*
X-15450D01*
X-23700Y14950D02*
X-21070D01*
X-20530D02*
X-15450D01*
X-23700Y14940D02*
X-21060D01*
X-20520D02*
X-15460D01*
X-23700Y14930D02*
X-21050D01*
X-20510D02*
X-15460D01*
X-23700Y14920D02*
X-21040D01*
X-20510D02*
X-15460D01*
X-23700Y14910D02*
X-21030D01*
X-20500D02*
X-15460D01*
X-23700Y14900D02*
X-21020D01*
X-20490D02*
X-15460D01*
X-23700Y14890D02*
X-21010D01*
X-20480D02*
X-15460D01*
X-23690Y14880D02*
X-21000D01*
X-20470D02*
X-15460D01*
X-23690Y14870D02*
X-20990D01*
X-20460D02*
X-15460D01*
X-23690Y14860D02*
X-20980D01*
X-20450D02*
X-15470D01*
X-23690Y14850D02*
X-20980D01*
X-20440D02*
X-15470D01*
X-23690Y14840D02*
X-20970D01*
X-20430D02*
X-15470D01*
X-23690Y14830D02*
X-20960D01*
X-20420D02*
X-15470D01*
X-23690Y14820D02*
X-20940D01*
X-20410D02*
X-15470D01*
X-23680Y14810D02*
X-20940D01*
X-20410D02*
X-15470D01*
X-23680Y14800D02*
X-20930D01*
X-20390D02*
X-15480D01*
X-23680Y14790D02*
X-20920D01*
X-20380D02*
X-15480D01*
X-23670Y14780D02*
X-20910D01*
X-20370D02*
X-15480D01*
X-23670Y14770D02*
X-20900D01*
X-20360D02*
X-15490D01*
X-23670Y14760D02*
X-20890D01*
X-20350D02*
X-15490D01*
X-23670Y14750D02*
X-20880D01*
X-20350D02*
X-15490D01*
X-23670Y14740D02*
X-20870D01*
X-20330D02*
X-15490D01*
X-23670Y14730D02*
X-20860D01*
X-20320D02*
X-15490D01*
X-23660Y14720D02*
X-20850D01*
X-20320D02*
X-15500D01*
X-23660Y14710D02*
X-20840D01*
X-20310D02*
X-15500D01*
X-23660Y14700D02*
X-20830D01*
X-20300D02*
X-15500D01*
X-23660Y14690D02*
X-20830D01*
X-20290D02*
X-15500D01*
X-23660Y14680D02*
X-20820D01*
X-20280D02*
X-15500D01*
X-23660Y14670D02*
X-20810D01*
X-20270D02*
X-15500D01*
X-23650Y14660D02*
X-20800D01*
X-20260D02*
X-15510D01*
X-23650Y14650D02*
X-20790D01*
X-23650Y14640D02*
X-20780D01*
X-23650Y14630D02*
X-20770D01*
X-23650Y14620D02*
X-20760D01*
X-23640Y14610D02*
X-20750D01*
X-23640Y14600D02*
X-20740D01*
X-23640Y14590D02*
X-20730D01*
X-23640Y14580D02*
X-20720D01*
X-23630Y14570D02*
X-20720D01*
X-23630Y14560D02*
X-20710D01*
X-23630Y14550D02*
X-20690D01*
X-23630Y14540D02*
X-20680D01*
X-23620Y14530D02*
X-20670D01*
X-23620Y14520D02*
X-20660D01*
X-23620Y14510D02*
X-20660D01*
X-23610Y14500D02*
X-20650D01*
X-23610Y14490D02*
X-20640D01*
X-23610Y14480D02*
X-20630D01*
X-23610Y14470D02*
X-20620D01*
X-23600Y14460D02*
X-20610D01*
X-23600Y14450D02*
X-20600D01*
X-23600Y14440D02*
X-20590D01*
X-23600Y14430D02*
X-20590D01*
X-23590Y14420D02*
X-20570D01*
X-23590Y14410D02*
X-20560D01*
X-23590Y14400D02*
X-20550D01*
X-23590Y14390D02*
X-20550D01*
X-23580Y14380D02*
X-20540D01*
X-23580Y14370D02*
X-20530D01*
X-23580Y14360D02*
X-20510D01*
X-23580Y14350D02*
X-20500D01*
X-23570Y14340D02*
X-20500D01*
X-23570Y14330D02*
X-20490D01*
X-23570Y14320D02*
X-20480D01*
X-23560Y14310D02*
X-20470D01*
X-23560Y14300D02*
X-20460D01*
X-23550Y14290D02*
X-20450D01*
X-23550Y14280D02*
X-20440D01*
X-23550Y14270D02*
X-20430D01*
X-23550Y14260D02*
X-20420D01*
X-23540Y14250D02*
X-15620D01*
X-23540Y14240D02*
X-15620D01*
X-23540Y14230D02*
X-15620D01*
X-23530Y14220D02*
X-15630D01*
X-23530Y14210D02*
X-15630D01*
X-23530Y14200D02*
X-15630D01*
X-23520Y14190D02*
X-15640D01*
X-23520Y14180D02*
X-15640D01*
X-23520Y14170D02*
X-15640D01*
X-23510Y14160D02*
X-15650D01*
X-23510Y14150D02*
X-21320D01*
X-21240D02*
X-15650D01*
X-23510Y14140D02*
X-21420D01*
X-21150D02*
X-15650D01*
X-23500Y14130D02*
X-21470D01*
X-21090D02*
X-15650D01*
X-23500Y14120D02*
X-21510D01*
X-21050D02*
X-15660D01*
X-23490Y14110D02*
X-21540D01*
X-21020D02*
X-15670D01*
X-23490Y14100D02*
X-21570D01*
X-20990D02*
X-15670D01*
X-23480Y14090D02*
X-21600D01*
X-20970D02*
X-15670D01*
X-23480Y14080D02*
X-21610D01*
X-20960D02*
X-15680D01*
X-23480Y14070D02*
X-21630D01*
X-20930D02*
X-15680D01*
X-23470Y14060D02*
X-21650D01*
X-20910D02*
X-15680D01*
X-23470Y14050D02*
X-21670D01*
X-20890D02*
X-15690D01*
X-23470Y14040D02*
X-21690D01*
X-20870D02*
X-15690D01*
X-23460Y14030D02*
X-21710D01*
X-20860D02*
X-15700D01*
X-23460Y14020D02*
X-21720D01*
X-20850D02*
X-15700D01*
X-23460Y14010D02*
X-21730D01*
X-20830D02*
X-15700D01*
X-23450Y14000D02*
X-21750D01*
X-20810D02*
X-15700D01*
X-23450Y13990D02*
X-21760D01*
X-20800D02*
X-15710D01*
X-23450Y13980D02*
X-21780D01*
X-20790D02*
X-15710D01*
X-23440Y13970D02*
X-21790D01*
X-20780D02*
X-15720D01*
X-23430Y13960D02*
X-21790D01*
X-20770D02*
X-15720D01*
X-23430Y13950D02*
X-21810D01*
X-20750D02*
X-15730D01*
X-23430Y13940D02*
X-21820D01*
X-20740D02*
X-15730D01*
X-23420Y13930D02*
X-21830D01*
X-20730D02*
X-15740D01*
X-23420Y13920D02*
X-21840D01*
X-20720D02*
X-15740D01*
X-23410Y13910D02*
X-21850D01*
X-20710D02*
X-15750D01*
X-23410Y13900D02*
X-21860D01*
X-20710D02*
X-15750D01*
X-23410Y13890D02*
X-21870D01*
X-20690D02*
X-15750D01*
X-23400Y13880D02*
X-21880D01*
X-20690D02*
X-15760D01*
X-23400Y13870D02*
X-21890D01*
X-20680D02*
X-15760D01*
X-23390Y13860D02*
X-21900D01*
X-20670D02*
X-15760D01*
X-23390Y13850D02*
X-21900D01*
X-20660D02*
X-15770D01*
X-23390Y13840D02*
X-21910D01*
X-20660D02*
X-15770D01*
X-23380Y13830D02*
X-21920D01*
X-20650D02*
X-15780D01*
X-23370Y13820D02*
X-21930D01*
X-20640D02*
X-15780D01*
X-23370Y13810D02*
X-21930D01*
X-20630D02*
X-15790D01*
X-23360Y13800D02*
X-21940D01*
X-20620D02*
X-15800D01*
X-23360Y13790D02*
X-21950D01*
X-20620D02*
X-15800D01*
X-23360Y13780D02*
X-21950D01*
X-20610D02*
X-15800D01*
X-23350Y13770D02*
X-21960D01*
X-20610D02*
X-15810D01*
X-23350Y13760D02*
X-21960D01*
X-20600D02*
X-15810D01*
X-23340Y13750D02*
X-21970D01*
X-20600D02*
X-15820D01*
X-23340Y13740D02*
X-21970D01*
X-20590D02*
X-15820D01*
X-23330Y13730D02*
X-21980D01*
X-20580D02*
X-15830D01*
X-23330Y13720D02*
X-21990D01*
X-21320D02*
X-21240D01*
X-20580D02*
X-15830D01*
X-23330Y13710D02*
X-21990D01*
X-21380D02*
X-21190D01*
X-20570D02*
X-15830D01*
X-23320Y13700D02*
X-22000D01*
X-21410D02*
X-21150D01*
X-20570D02*
X-15840D01*
X-23310Y13690D02*
X-22000D01*
X-21440D02*
X-21130D01*
X-20560D02*
X-15850D01*
X-23310Y13680D02*
X-22000D01*
X-21460D02*
X-21110D01*
X-20560D02*
X-15850D01*
X-23300Y13670D02*
X-22010D01*
X-21470D02*
X-21090D01*
X-20550D02*
X-15860D01*
X-23300Y13660D02*
X-22010D01*
X-21480D02*
X-21080D01*
X-20550D02*
X-15860D01*
X-23290Y13650D02*
X-22010D01*
X-21500D02*
X-21060D01*
X-20550D02*
X-15870D01*
X-23290Y13640D02*
X-22020D01*
X-21510D02*
X-21050D01*
X-20550D02*
X-15870D01*
X-23280Y13630D02*
X-22020D01*
X-21520D02*
X-21040D01*
X-20540D02*
X-15880D01*
X-23280Y13620D02*
X-22030D01*
X-21530D02*
X-21030D01*
X-20540D02*
X-15880D01*
X-23270Y13610D02*
X-22030D01*
X-21540D02*
X-21020D01*
X-20540D02*
X-15890D01*
X-23270Y13600D02*
X-22030D01*
X-21550D02*
X-21020D01*
X-20530D02*
X-15890D01*
X-23260Y13590D02*
X-22030D01*
X-21560D02*
X-21000D01*
X-20530D02*
X-15890D01*
X-23250Y13580D02*
X-22040D01*
X-21570D02*
X-20990D01*
X-20530D02*
X-15900D01*
X-23250Y13570D02*
X-22050D01*
X-21580D02*
X-20990D01*
X-20520D02*
X-15910D01*
X-23240Y13560D02*
X-22050D01*
X-21580D02*
X-20980D01*
X-23240Y13550D02*
X-22050D01*
X-21590D02*
X-20970D01*
X-23240Y13540D02*
X-22050D01*
X-21590D02*
X-20970D01*
X-23230Y13530D02*
X-22050D01*
X-21600D02*
X-20970D01*
X-23230Y13520D02*
X-22060D01*
X-21600D02*
X-20960D01*
X-23220Y13510D02*
X-22060D01*
X-21610D02*
X-20960D01*
X-23210Y13500D02*
X-22060D01*
X-21610D02*
X-20950D01*
X-23210Y13490D02*
X-22060D01*
X-21620D02*
X-20940D01*
X-23210Y13480D02*
X-22060D01*
X-21620D02*
X-20940D01*
X-23190Y13470D02*
X-22060D01*
X-21630D02*
X-20940D01*
X-23190Y13460D02*
X-22060D01*
X-21630D02*
X-20940D01*
X-23180Y13450D02*
X-22070D01*
X-21630D02*
X-20930D01*
X-23180Y13440D02*
X-22070D01*
X-21630D02*
X-20930D01*
X-23170Y13430D02*
X-22070D01*
X-21640D02*
X-20930D01*
X-23170Y13420D02*
X-22070D01*
X-21640D02*
X-20930D01*
X-23160Y13410D02*
X-22070D01*
X-21640D02*
X-20930D01*
X-23160Y13400D02*
X-22070D01*
X-21640D02*
X-20930D01*
X-23150Y13390D02*
X-22070D01*
X-21640D02*
X-20920D01*
X-23150Y13380D02*
X-22070D01*
X-21640D02*
X-20920D01*
X-23130Y13370D02*
X-22070D01*
X-21640D02*
X-20920D01*
X-23130Y13360D02*
X-22070D01*
X-21640D02*
X-20920D01*
X-23120Y13350D02*
X-22070D01*
X-21640D02*
X-20920D01*
X-23120Y13340D02*
X-22070D01*
X-21640D02*
X-20920D01*
X-23110Y13330D02*
X-22070D01*
X-21640D02*
X-20930D01*
X-23110Y13320D02*
X-22070D01*
X-21640D02*
X-20930D01*
X-23100Y13310D02*
X-22070D01*
X-21640D02*
X-20930D01*
X-23100Y13300D02*
X-22070D01*
X-21640D02*
X-20930D01*
X-23090Y13290D02*
X-22070D01*
X-21630D02*
X-20930D01*
X-23080Y13280D02*
X-22060D01*
X-21630D02*
X-20930D01*
X-23070Y13270D02*
X-22060D01*
X-21630D02*
X-20940D01*
X-23070Y13260D02*
X-22060D01*
X-21630D02*
X-20940D01*
X-23060Y13250D02*
X-22060D01*
X-21620D02*
X-20940D01*
X-23060Y13240D02*
X-22060D01*
X-21620D02*
X-20940D01*
X-23050Y13230D02*
X-22060D01*
X-21610D02*
X-20950D01*
X-23040Y13220D02*
X-22060D01*
X-21610D02*
X-20960D01*
X-23040Y13210D02*
X-22050D01*
X-21600D02*
X-20960D01*
X-23030Y13200D02*
X-22050D01*
X-21600D02*
X-20970D01*
X-23020Y13190D02*
X-22050D01*
X-21590D02*
X-20970D01*
X-23010Y13180D02*
X-22050D01*
X-21590D02*
X-20980D01*
X-23010Y13170D02*
X-22050D01*
X-21580D02*
X-20980D01*
X-23000Y13160D02*
X-22040D01*
X-21580D02*
X-20990D01*
X-20530D02*
X-16160D01*
X-22990Y13150D02*
X-22040D01*
X-21570D02*
X-21000D01*
X-20530D02*
X-16170D01*
X-22990Y13140D02*
X-22030D01*
X-21560D02*
X-21000D01*
X-20530D02*
X-16170D01*
X-22980Y13130D02*
X-22030D01*
X-21550D02*
X-21020D01*
X-20530D02*
X-16180D01*
X-22970Y13120D02*
X-22030D01*
X-21540D02*
X-21020D01*
X-20540D02*
X-16180D01*
X-22970Y13110D02*
X-22030D01*
X-21530D02*
X-21030D01*
X-20540D02*
X-16190D01*
X-22960Y13100D02*
X-22020D01*
X-21520D02*
X-21040D01*
X-20540D02*
X-16200D01*
X-22950Y13090D02*
X-22020D01*
X-21510D02*
X-21050D01*
X-20550D02*
X-16210D01*
X-22940Y13080D02*
X-22010D01*
X-21490D02*
X-21070D01*
X-20550D02*
X-16220D01*
X-22930Y13070D02*
X-22010D01*
X-21480D02*
X-21090D01*
X-20550D02*
X-16230D01*
X-22930Y13060D02*
X-22010D01*
X-21470D02*
X-21090D01*
X-20560D02*
X-16230D01*
X-22920Y13050D02*
X-22000D01*
X-21450D02*
X-21110D01*
X-20560D02*
X-16240D01*
X-22910Y13040D02*
X-22000D01*
X-21430D02*
X-21140D01*
X-20570D02*
X-16240D01*
X-22910Y13030D02*
X-22000D01*
X-21400D02*
X-21160D01*
X-20570D02*
X-16250D01*
X-22900Y13020D02*
X-21990D01*
X-21370D02*
X-21200D01*
X-20570D02*
X-16260D01*
X-22890Y13010D02*
X-21990D01*
X-20580D02*
X-16270D01*
X-22880Y13000D02*
X-21980D01*
X-20590D02*
X-16280D01*
X-22880Y12990D02*
X-21970D01*
X-20590D02*
X-16280D01*
X-22870Y12980D02*
X-21970D01*
X-20600D02*
X-16290D01*
X-22860Y12970D02*
X-21960D01*
X-20600D02*
X-16300D01*
X-22850Y12960D02*
X-21960D01*
X-20610D02*
X-16310D01*
X-22840Y12950D02*
X-21950D01*
X-20620D02*
X-16320D01*
X-22840Y12940D02*
X-21950D01*
X-20620D02*
X-16320D01*
X-22830Y12930D02*
X-21940D01*
X-20620D02*
X-16330D01*
X-22820Y12920D02*
X-21930D01*
X-20630D02*
X-16340D01*
X-22810Y12910D02*
X-21930D01*
X-20640D02*
X-16350D01*
X-22800Y12900D02*
X-21910D01*
X-20650D02*
X-16360D01*
X-22790Y12890D02*
X-21910D01*
X-20660D02*
X-16360D01*
X-22790Y12880D02*
X-21900D01*
X-20660D02*
X-16370D01*
X-22780Y12870D02*
X-21890D01*
X-20670D02*
X-16380D01*
X-22770Y12860D02*
X-21880D01*
X-20680D02*
X-16380D01*
X-22760Y12850D02*
X-21880D01*
X-20690D02*
X-16400D01*
X-22750Y12840D02*
X-21870D01*
X-20700D02*
X-16410D01*
X-22740Y12830D02*
X-21850D01*
X-20710D02*
X-16420D01*
X-22740Y12820D02*
X-21850D01*
X-20710D02*
X-16420D01*
X-22730Y12810D02*
X-21840D01*
X-20720D02*
X-16430D01*
X-22720Y12800D02*
X-21830D01*
X-20730D02*
X-16440D01*
X-22710Y12790D02*
X-21820D01*
X-20740D02*
X-16450D01*
X-22700Y12780D02*
X-21810D01*
X-20760D02*
X-16460D01*
X-22690Y12770D02*
X-21790D01*
X-20770D02*
X-16470D01*
X-22690Y12760D02*
X-21780D01*
X-20780D02*
X-16470D01*
X-22680Y12750D02*
X-21770D01*
X-20790D02*
X-16480D01*
X-22670Y12740D02*
X-21760D01*
X-20800D02*
X-16490D01*
X-22660Y12730D02*
X-21750D01*
X-20820D02*
X-16500D01*
X-22650Y12720D02*
X-21730D01*
X-20840D02*
X-16510D01*
X-22630Y12710D02*
X-21710D01*
X-20850D02*
X-16520D01*
X-22630Y12700D02*
X-21700D01*
X-20870D02*
X-16530D01*
X-22620Y12690D02*
X-21690D01*
X-20870D02*
X-16540D01*
X-22610Y12680D02*
X-21670D01*
X-20900D02*
X-16550D01*
X-22600Y12670D02*
X-21650D01*
X-20910D02*
X-16560D01*
X-22590Y12660D02*
X-21630D01*
X-20930D02*
X-16570D01*
X-22580Y12650D02*
X-21600D01*
X-20960D02*
X-16580D01*
X-22570Y12640D02*
X-21580D01*
X-20990D02*
X-16590D01*
X-22560Y12630D02*
X-21570D01*
X-21000D02*
X-16600D01*
X-22550Y12620D02*
X-21540D01*
X-21030D02*
X-16600D01*
X-22540Y12610D02*
X-21510D01*
X-21060D02*
X-16620D01*
X-22530Y12600D02*
X-21460D01*
X-21110D02*
X-16620D01*
X-22520Y12590D02*
X-21400D01*
X-21160D02*
X-16640D01*
X-22510Y12580D02*
X-16650D01*
X-22500Y12570D02*
X-16660D01*
X-22490Y12560D02*
X-16660D01*
X-22480Y12550D02*
X-16680D01*
X-22470Y12540D02*
X-16680D01*
X-22460Y12530D02*
X-16700D01*
X-22450Y12520D02*
X-16710D01*
X-22440Y12510D02*
X-16720D01*
X-22430Y12500D02*
X-16730D01*
X-22420Y12490D02*
X-16740D01*
X-22410Y12480D02*
X-16750D01*
X-22390Y12470D02*
X-16770D01*
X-22380Y12460D02*
X-16780D01*
X-22380Y12450D02*
X-16780D01*
X-22370Y12440D02*
X-16790D01*
X-22360Y12430D02*
X-16800D01*
X-22340Y12420D02*
X-16820D01*
X-22330Y12410D02*
X-16830D01*
X-22320Y12400D02*
X-16840D01*
X-22310Y12390D02*
X-16850D01*
X-22300Y12380D02*
X-16860D01*
X-22280Y12370D02*
X-16880D01*
X-22270Y12360D02*
X-16890D01*
X-22260Y12350D02*
X-16900D01*
X-22250Y12340D02*
X-16910D01*
X-22240Y12330D02*
X-16920D01*
X-22230Y12320D02*
X-16930D01*
X-22210Y12310D02*
X-16950D01*
X-22200Y12300D02*
X-16960D01*
X-22190Y12290D02*
X-16970D01*
X-22170Y12280D02*
X-16980D01*
X-22170Y12270D02*
X-16990D01*
X-22150Y12260D02*
X-17010D01*
X-22140Y12250D02*
X-17020D01*
X-22130Y12240D02*
X-17030D01*
X-22110Y12230D02*
X-17050D01*
X-22090Y12220D02*
X-17060D01*
X-22090Y12210D02*
X-17070D01*
X-22070Y12200D02*
X-17080D01*
X-22060Y12190D02*
X-17100D01*
X-22050Y12180D02*
X-17110D01*
X-22030Y12170D02*
X-17130D01*
X-22010Y12160D02*
X-17140D01*
X-22010Y12150D02*
X-17150D01*
X-21990Y12140D02*
X-17160D01*
X-21970Y12130D02*
X-17190D01*
X-21960Y12120D02*
X-17200D01*
X-21940Y12110D02*
X-17210D01*
X-21930Y12100D02*
X-17230D01*
X-21920Y12090D02*
X-17240D01*
X-21900Y12080D02*
X-17260D01*
X-21890Y12070D02*
X-17270D01*
X-21870Y12060D02*
X-17280D01*
X-21850Y12050D02*
X-17310D01*
X-21840Y12040D02*
X-17320D01*
X-21830Y12030D02*
X-17330D01*
X-21810Y12020D02*
X-17340D01*
X-21790Y12010D02*
X-17370D01*
X-21780Y12000D02*
X-17380D01*
X-21760Y11990D02*
X-17400D01*
X-21750Y11980D02*
X-17410D01*
X-21730Y11970D02*
X-17430D01*
X-21720Y11960D02*
X-17440D01*
X-21700Y11950D02*
X-17460D01*
X-21680Y11940D02*
X-17480D01*
X-21660Y11930D02*
X-17500D01*
X-21640Y11920D02*
X-17520D01*
X-21630Y11910D02*
X-17530D01*
X-21610Y11900D02*
X-17550D01*
X-21590Y11890D02*
X-17570D01*
X-21570Y11880D02*
X-17580D01*
X-21550Y11870D02*
X-17610D01*
X-21530Y11860D02*
X-17630D01*
X-21520Y11850D02*
X-17640D01*
X-21510Y11840D02*
X-17660D01*
X-21480Y11830D02*
X-17680D01*
X-21460Y11820D02*
X-17700D01*
X-21440Y11810D02*
X-17720D01*
X-21410Y11800D02*
X-17740D01*
X-21400Y11790D02*
X-17750D01*
X-21390Y11780D02*
X-17770D01*
X-21360Y11770D02*
X-17800D01*
X-21340Y11760D02*
X-17820D01*
X-21320Y11750D02*
X-17850D01*
X-21290Y11740D02*
X-17870D01*
X-21280Y11730D02*
X-17880D01*
X-21250Y11720D02*
X-17900D01*
X-21230Y11710D02*
X-17930D01*
X-21200Y11700D02*
X-17960D01*
X-21170Y11690D02*
X-17990D01*
X-21150Y11680D02*
X-18010D01*
X-21140Y11670D02*
X-18020D01*
X-21110Y11660D02*
X-18050D01*
X-21080Y11650D02*
X-18080D01*
X-21050Y11640D02*
X-18110D01*
X-21020Y11630D02*
X-18130D01*
X-20990Y11620D02*
X-18170D01*
X-20980Y11610D02*
X-18180D01*
X-20950Y11600D02*
X-18220D01*
X-20910Y11590D02*
X-18250D01*
X-20880Y11580D02*
X-18280D01*
X-20850Y11570D02*
X-18310D01*
X-20810Y11560D02*
X-18350D01*
X-20800Y11550D02*
X-18360D01*
X-20760Y11540D02*
X-18400D01*
X-20720Y11530D02*
X-18440D01*
X-20680Y11520D02*
X-18480D01*
X-20640Y11510D02*
X-18510D01*
X-20600Y11500D02*
X-18560D01*
X-20580Y11490D02*
X-18590D01*
X-20530Y11480D02*
X-18620D01*
X-20480Y11470D02*
X-18670D01*
X-20430Y11460D02*
X-18720D01*
X-20380Y11450D02*
X-18780D01*
X-20320Y11440D02*
X-18840D01*
X-20290Y11430D02*
X-18870D01*
X-20230Y11420D02*
X-18930D01*
X-20140Y11410D02*
X-19010D01*
X-20060Y11400D02*
X-19100D01*
X-19950Y11390D02*
X-19210D01*
X-19800Y11380D02*
X-19360D01*
X-19620Y11370D02*
X-19530D01*
D68*
X-4688Y5978D02*
Y7080D01*
X-5200D02*
X-4688D01*
X-5200D02*
X-5200Y5978D01*
X-4688D01*
X-3146Y6980D02*
Y8083D01*
Y6980D02*
X-2634D01*
X-2634Y8083D02*
X-2634Y6980D01*
X-3146Y8083D02*
X-2634D01*
X-10720Y6295D02*
Y7398D01*
Y6295D02*
X-10208D01*
X-10208Y7398D02*
X-10208Y6295D01*
X-10720Y7398D02*
X-10208D01*
X-10208Y9595D02*
Y10698D01*
X-10720D02*
X-10208D01*
X-10720D02*
X-10720Y9595D01*
X-10208D01*
X-14373Y2374D02*
Y3476D01*
Y2374D02*
X-13861D01*
X-13861Y3476D02*
X-13861Y2374D01*
X-14373Y3476D02*
X-13861D01*
X-14973Y2374D02*
Y3476D01*
Y2374D02*
X-14461D01*
X-14461Y3476D02*
X-14461Y2374D01*
X-14973Y3476D02*
X-14461D01*
X-17518Y4231D02*
X-16416D01*
X-17518Y3719D02*
Y4231D01*
Y3719D02*
X-16416Y3719D01*
Y4231D01*
X-15118Y3819D02*
X-14016D01*
Y4331D01*
X-15118Y4331D02*
X-14016Y4331D01*
X-15118Y3819D02*
Y4331D01*
Y4519D02*
X-14016D01*
Y5031D01*
X-15118Y5031D02*
X-14016Y5031D01*
X-15118Y4519D02*
Y5031D01*
X-16521Y4636D02*
X-15419D01*
Y5148D01*
X-16521Y5148D02*
X-15419Y5148D01*
X-16521Y4636D02*
Y5148D01*
X-35002Y20033D02*
X-33899D01*
Y20545D01*
X-35002Y20545D02*
X-33899Y20545D01*
X-35002Y20033D02*
Y20545D01*
Y20733D02*
X-33899D01*
Y21245D01*
X-35002Y21245D02*
X-33899Y21245D01*
X-35002Y20733D02*
Y21245D01*
X-30394Y13238D02*
Y14340D01*
X-30906D02*
X-30394D01*
X-30906D02*
X-30906Y13238D01*
X-30394D01*
X-32194D02*
Y14340D01*
X-32706D02*
X-32194D01*
X-32706D02*
X-32706Y13238D01*
X-32194D01*
X-33902Y15033D02*
X-32799D01*
Y15545D01*
X-33902Y15545D02*
X-32799Y15545D01*
X-33902Y15033D02*
Y15545D01*
X-35102Y16433D02*
X-33999D01*
Y16945D01*
X-35102Y16945D02*
X-33999Y16945D01*
X-35102Y16433D02*
Y16945D01*
Y17033D02*
X-33999D01*
Y17545D01*
X-35102Y17545D02*
X-33999Y17545D01*
X-35102Y17033D02*
Y17545D01*
Y18233D02*
X-33999D01*
Y18745D01*
X-35102Y18745D02*
X-33999Y18745D01*
X-35102Y18233D02*
Y18745D01*
X-30896Y9938D02*
Y11040D01*
Y9938D02*
X-30384D01*
X-30384Y11040D02*
X-30384Y9938D01*
X-30896Y11040D02*
X-30384D01*
X-31594Y9938D02*
Y11040D01*
X-32106D02*
X-31594D01*
X-32106D02*
X-32106Y9938D01*
X-31594D01*
X-30994D02*
Y11040D01*
X-31506D02*
X-30994D01*
X-31506D02*
X-31506Y9938D01*
X-30994D01*
X-35102Y17633D02*
X-33999D01*
Y18145D01*
X-35102Y18145D02*
X-33999Y18145D01*
X-35102Y17633D02*
Y18145D01*
X-33402Y10433D02*
X-32299D01*
Y10945D01*
X-33402Y10945D02*
X-32299Y10945D01*
X-33402Y10433D02*
Y10945D01*
X-35102Y18833D02*
X-33999D01*
Y19345D01*
X-35102Y19345D02*
X-33999Y19345D01*
X-35102Y18833D02*
Y19345D01*
X-31451Y23596D02*
X-30349D01*
X-31451Y23084D02*
Y23596D01*
Y23084D02*
X-30349Y23084D01*
Y23596D01*
X-33182Y22925D02*
X-32079D01*
X-33182Y22413D02*
Y22925D01*
Y22413D02*
X-32079Y22413D01*
Y22925D01*
X-20610Y33996D02*
Y35098D01*
X-21122D02*
X-20610D01*
X-21122D02*
X-21122Y33996D01*
X-20610D01*
X-22621Y32428D02*
X-21519D01*
X-22621Y31916D02*
Y32428D01*
Y31916D02*
X-21519Y31916D01*
Y32428D01*
X-12150Y34587D02*
X-11047D01*
X-11047Y35099D01*
X-12150Y35099D02*
X-11047Y35099D01*
X-12150Y34587D02*
Y35099D01*
X-4388Y18834D02*
Y19936D01*
X-4900Y19936D02*
X-4388Y19936D01*
X-4900Y19936D02*
X-4900Y18834D01*
X-4388D01*
X-5388D02*
Y19936D01*
X-5900Y19936D02*
X-5388Y19936D01*
X-5900Y19936D02*
X-5900Y18834D01*
X-5388D01*
X-16718Y1931D02*
X-15616D01*
X-16718Y1419D02*
X-16718Y1931D01*
X-16718Y1419D02*
X-15616Y1419D01*
Y1931D01*
X-18418Y3331D02*
X-17316D01*
X-18418Y2819D02*
X-18418Y3331D01*
X-18418Y2819D02*
X-17316Y2819D01*
Y3331D01*
X-15118Y5831D02*
X-14016D01*
X-15118Y5319D02*
X-15118Y5831D01*
X-15118Y5319D02*
X-14016Y5319D01*
Y5831D01*
X-9991Y5056D02*
X-8889D01*
X-8889Y5568D01*
X-9991Y5568D02*
X-8889Y5568D01*
X-9991Y5056D02*
Y5568D01*
X-16518Y5831D02*
X-15416D01*
X-16518Y5319D02*
X-16518Y5831D01*
X-16518Y5319D02*
X-15416Y5319D01*
Y5831D01*
X-18418Y2019D02*
X-17316D01*
X-17316Y2531D01*
X-18418Y2531D02*
X-17316Y2531D01*
X-18418Y2019D02*
Y2531D01*
X-30296Y9938D02*
Y11040D01*
Y9938D02*
X-29784Y9938D01*
X-29784Y11040D02*
X-29784Y9938D01*
X-30296Y11040D02*
X-29784D01*
X-36015Y3020D02*
Y4123D01*
Y3020D02*
X-35503Y3020D01*
X-35503Y4123D02*
X-35503Y3020D01*
X-36015Y4123D02*
X-35503D01*
X-30906Y12176D02*
X-29804D01*
X-29804Y12688D01*
X-30906Y12688D02*
X-29804Y12688D01*
X-30906Y12176D02*
Y12688D01*
X-29701Y12688D02*
X-28599D01*
X-29701Y12176D02*
X-29701Y12688D01*
X-29701Y12176D02*
X-28599Y12176D01*
Y12688D01*
X-29706Y13238D02*
Y14340D01*
Y13238D02*
X-29194Y13238D01*
X-29194Y14340D02*
X-29194Y13238D01*
X-29706Y14340D02*
X-29194D01*
X-29671Y29628D02*
X-28569D01*
X-28569Y30140D01*
X-29671Y30140D02*
X-28569Y30140D01*
X-29671Y29628D02*
Y30140D01*
Y28928D02*
X-28569D01*
X-28569Y29440D01*
X-29671Y29440D02*
X-28569Y29440D01*
X-29671Y28928D02*
Y29440D01*
Y28228D02*
X-28569D01*
X-28569Y28740D01*
X-29671Y28740D02*
X-28569Y28740D01*
X-29671Y28228D02*
Y28740D01*
X-30306Y13238D02*
Y14340D01*
Y13238D02*
X-29794Y13238D01*
X-29794Y14340D02*
X-29794Y13238D01*
X-30306Y14340D02*
X-29794D01*
X-31506Y13238D02*
Y14340D01*
Y13238D02*
X-30994Y13238D01*
X-30994Y14340D02*
X-30994Y13238D01*
X-31506Y14340D02*
X-30994D01*
X-32106Y13238D02*
Y14340D01*
Y13238D02*
X-31594Y13238D01*
X-31594Y14340D02*
X-31594Y13238D01*
X-32106Y14340D02*
X-31594D01*
X-32721Y12048D02*
X-31619D01*
X-32721Y11536D02*
X-32721Y12048D01*
X-32721Y11536D02*
X-31619Y11536D01*
Y12048D01*
X-31491Y11536D02*
X-30389D01*
X-30389Y12048D01*
X-31491Y12048D02*
X-30389Y12048D01*
X-31491Y11536D02*
Y12048D01*
X-36687Y3020D02*
Y4123D01*
Y3020D02*
X-36176Y3020D01*
X-36176Y4123D02*
X-36176Y3020D01*
X-36687Y4123D02*
X-36176D01*
X-33902Y14433D02*
X-32799D01*
X-32799Y14945D01*
X-33902Y14945D02*
X-32799Y14945D01*
X-33902Y14433D02*
Y14945D01*
X-31882Y22413D02*
X-30779D01*
X-30779Y22925D01*
X-31882Y22925D02*
X-30779Y22925D01*
X-31882Y22413D02*
Y22925D01*
X-18248Y33937D02*
Y35039D01*
X-18760Y35039D02*
X-18248Y35039D01*
X-18760Y35039D02*
X-18760Y33937D01*
X-18248D01*
X-17461D02*
Y35039D01*
X-17972Y35039D02*
X-17461Y35039D01*
X-17972Y35039D02*
X-17972Y33937D01*
X-17461D01*
X-31434Y38510D02*
Y39613D01*
X-31946Y39613D02*
X-31434Y39613D01*
X-31946Y39613D02*
X-31946Y38510D01*
X-31434D01*
X-33401Y39658D02*
X-32299D01*
X-33401Y39146D02*
X-33401Y39658D01*
X-33401Y39146D02*
X-32299Y39146D01*
Y39658D01*
X-31853Y25598D02*
Y26700D01*
X-32365Y26700D02*
X-31853Y26700D01*
X-32365Y26700D02*
X-32365Y25598D01*
X-31853D01*
X-12644Y25880D02*
Y26983D01*
X-13156Y26983D02*
X-12644Y26983D01*
X-13156Y26983D02*
X-13156Y25880D01*
X-12644D01*
X-21122Y28484D02*
Y29587D01*
Y28484D02*
X-20610Y28484D01*
X-20610Y29587D02*
X-20610Y28484D01*
X-21122Y29587D02*
X-20610D01*
X-20217Y28980D02*
X-19115D01*
X-19115Y29491D01*
X-20217Y29491D02*
X-19115Y29491D01*
X-20217Y28980D02*
Y29491D01*
X-8806Y44490D02*
Y45593D01*
Y44490D02*
X-8294D01*
X-8294Y45593D02*
X-8294Y44490D01*
X-8806Y45593D02*
X-8294D01*
X-4151Y42248D02*
X-3049D01*
X-4151Y41736D02*
Y42248D01*
Y41736D02*
X-3049Y41736D01*
Y42248D01*
X-4261Y38308D02*
X-3159D01*
X-4261Y37796D02*
Y38308D01*
Y37796D02*
X-3159Y37796D01*
Y38308D01*
X-3784Y36310D02*
Y37413D01*
X-4296D02*
X-3784D01*
X-4296D02*
X-4296Y36310D01*
X-3784D01*
X-7444Y35290D02*
Y36393D01*
X-7956D02*
X-7444D01*
X-7956D02*
X-7956Y35290D01*
X-7444D01*
X-11908Y38092D02*
Y39194D01*
X-12420D02*
X-11908D01*
X-12420D02*
X-12420Y38092D01*
X-11908D01*
X-15462Y38548D02*
Y39651D01*
X-15974D02*
X-15462D01*
X-15974D02*
X-15974Y38548D01*
X-15462D01*
X-15974Y36898D02*
Y38001D01*
Y36898D02*
X-15462D01*
X-15462Y38001D02*
X-15462Y36898D01*
X-15974Y38001D02*
X-15462D01*
X-11908Y36092D02*
Y37194D01*
X-12420Y37194D02*
X-11908Y37194D01*
X-12420Y37194D02*
X-12420Y36092D01*
X-11908D01*
X-13284Y34603D02*
Y35063D01*
X-13054Y34603D02*
Y35063D01*
X-13284Y34833D02*
X-13054Y34603D01*
X-13284Y34833D02*
X-13054Y35063D01*
X-12534Y34509D02*
Y35178D01*
X-13794Y34509D02*
X-12534D01*
X-13794D02*
Y35178D01*
X-12534D01*
X-32990Y40282D02*
X-32710Y40282D01*
X-33490Y40912D02*
X-33086D01*
X-33490Y40400D02*
Y40912D01*
X-32210Y40400D02*
X-32210Y40912D01*
X-32614Y40912D02*
X-32210Y40912D01*
X-19806Y28445D02*
X-19526Y28445D01*
X-19430Y27815D02*
X-19026D01*
Y28327D01*
X-20306Y27815D02*
X-20306Y28327D01*
X-20306Y27815D02*
X-19902Y27815D01*
X-20118Y27224D02*
X-20118Y26910D01*
X-20157Y26910D02*
Y27224D01*
X-20315Y26910D02*
X-19843Y26910D01*
X-20276Y27224D02*
X-19843Y27224D01*
X-32454Y20900D02*
Y21018D01*
Y20900D02*
X-32454Y20900D01*
X-30407D01*
X-30407Y21018D01*
X-30407Y22238D02*
X-30407Y22120D01*
X-32454Y22238D02*
X-30407Y22238D01*
X-32454Y22238D02*
X-32454Y22238D01*
X-32454Y22120D02*
Y22238D01*
X-36751Y15636D02*
X-35649D01*
Y16148D01*
X-36751Y16148D02*
X-35649Y16148D01*
X-36751Y15636D02*
Y16148D01*
Y14896D02*
X-35649D01*
Y15408D01*
X-36751Y15408D02*
X-35649Y15408D01*
X-36751Y14896D02*
Y15408D01*
X-34445Y9202D02*
Y11082D01*
Y9202D02*
X-33590D01*
Y11082D01*
X-34445D02*
X-33590D01*
X-16707Y2257D02*
X-15953D01*
X-16707Y3537D02*
X-15953D01*
Y2257D02*
Y2313D01*
X-16707Y2257D02*
Y2313D01*
Y3481D02*
Y3537D01*
X-15953Y3481D02*
Y3537D01*
X-9360Y4349D02*
Y4809D01*
X-9590Y4349D02*
Y4809D01*
X-9360Y4579D01*
X-9590Y4349D02*
X-9360Y4579D01*
X-10109Y4234D02*
Y4903D01*
X-8850D01*
Y4234D02*
Y4903D01*
X-10109Y4234D02*
X-8850D01*
X-7695Y6773D02*
X-6593D01*
X-6593Y7285D01*
X-7695Y7285D02*
X-6593Y7285D01*
X-7695Y6773D02*
Y7285D01*
X-7620Y7895D02*
Y8998D01*
Y7895D02*
X-7108Y7895D01*
X-7108Y8998D02*
X-7108Y7895D01*
X-7620Y8998D02*
X-7108D01*
X-4000Y5978D02*
Y7080D01*
Y5978D02*
X-3488Y5978D01*
X-3488Y7080D02*
X-3488Y5978D01*
X-4000Y7080D02*
X-3488D01*
X-4600Y5978D02*
Y7080D01*
Y5978D02*
X-4088Y5978D01*
X-4088Y7080D02*
X-4088Y5978D01*
X-4600Y7080D02*
X-4088D01*
X-5288Y5978D02*
Y7080D01*
X-5800D02*
X-5288D01*
X-5800D02*
X-5800Y5978D01*
X-5288D01*
X-7361Y10016D02*
X-6259D01*
Y10528D01*
X-7361Y10528D02*
X-6259Y10528D01*
X-7361Y10016D02*
Y10528D01*
Y11788D02*
X-6259D01*
X-7361Y11276D02*
X-7361Y11788D01*
X-7361Y11276D02*
X-6259Y11276D01*
Y11788D01*
X-7361Y12458D02*
X-6259D01*
X-7361Y11946D02*
X-7361Y12458D01*
X-7361Y11946D02*
X-6259Y11946D01*
Y12458D01*
X-2067Y16014D02*
Y17116D01*
X-2579Y17116D02*
X-2067Y17116D01*
X-2579Y17116D02*
X-2579Y16014D01*
X-2067D01*
X-1960Y6977D02*
Y8079D01*
X-2472Y8079D02*
X-1960Y8079D01*
X-2472Y8079D02*
X-2472Y6977D01*
X-1960D01*
X-1773Y7489D02*
X-1459Y7489D01*
X-1773Y7450D02*
X-1459D01*
X-1459Y7292D02*
X-1459Y7764D01*
X-1773Y7331D02*
X-1773Y7764D01*
X-3761Y17041D02*
X-2658D01*
X-3761Y16529D02*
X-3761Y17041D01*
X-3761Y16529D02*
X-2658Y16529D01*
Y17041D01*
X-3800Y17634D02*
Y18736D01*
Y17634D02*
X-3288D01*
X-3288Y18736D02*
X-3288Y17634D01*
X-3800Y18736D02*
X-3288D01*
X-5864Y17765D02*
X-5404D01*
X-5864Y17995D02*
X-5404D01*
X-5634Y17765D02*
X-5404Y17995D01*
X-5864D02*
X-5634Y17765D01*
X-5979Y18515D02*
X-5309D01*
Y17255D02*
Y18515D01*
X-5979Y17255D02*
X-5309D01*
X-5979D02*
Y18515D01*
X-4864Y17765D02*
X-4404D01*
X-4864Y17995D02*
X-4404D01*
X-4634Y17765D02*
X-4404Y17995D01*
X-4864D02*
X-4634Y17765D01*
X-4979Y18515D02*
X-4309D01*
Y17255D02*
Y18515D01*
X-4979Y17255D02*
X-4309D01*
X-4979D02*
Y18515D01*
X-25600Y46450D02*
Y46765D01*
X-25757D01*
X-25810Y46712D01*
Y46607D01*
X-25757Y46555D01*
X-25600D01*
X-26125Y46765D02*
X-25915D01*
Y46607D01*
X-26020Y46660D01*
X-26072D01*
X-26125Y46607D01*
Y46502D01*
X-26072Y46450D01*
X-25967D01*
X-25915Y46502D01*
X-16108Y38782D02*
X-16055Y38729D01*
Y38624D01*
X-16108Y38572D01*
X-16318D01*
X-16370Y38624D01*
Y38729D01*
X-16318Y38782D01*
X-16370Y38887D02*
Y38991D01*
Y38939D01*
X-16055D01*
X-16108Y38887D01*
Y37082D02*
X-16055Y37029D01*
Y36924D01*
X-16108Y36872D01*
X-16318D01*
X-16370Y36924D01*
Y37029D01*
X-16318Y37082D01*
X-16370Y37396D02*
Y37187D01*
X-16160Y37396D01*
X-16108D01*
X-16055Y37344D01*
Y37239D01*
X-16108Y37187D01*
X-3380Y38734D02*
X-3328Y38787D01*
X-3223D01*
X-3170Y38734D01*
Y38524D01*
X-3223Y38472D01*
X-3328D01*
X-3380Y38524D01*
X-3485Y38734D02*
X-3537Y38787D01*
X-3642D01*
X-3695Y38734D01*
Y38682D01*
X-3642Y38629D01*
X-3590D01*
X-3642D01*
X-3695Y38577D01*
Y38524D01*
X-3642Y38472D01*
X-3537D01*
X-3485Y38524D01*
X-12608Y38382D02*
X-12555Y38329D01*
Y38224D01*
X-12608Y38172D01*
X-12818D01*
X-12870Y38224D01*
Y38329D01*
X-12818Y38382D01*
X-12870Y38644D02*
X-12555D01*
X-12713Y38487D01*
Y38696D01*
X-7108Y35482D02*
X-7055Y35429D01*
Y35324D01*
X-7108Y35272D01*
X-7318D01*
X-7370Y35324D01*
Y35429D01*
X-7318Y35482D01*
X-7055Y35796D02*
Y35587D01*
X-7213D01*
X-7160Y35691D01*
Y35744D01*
X-7213Y35796D01*
X-7318D01*
X-7370Y35744D01*
Y35639D01*
X-7318Y35587D01*
X-8408Y45982D02*
X-8355Y45929D01*
Y45824D01*
X-8408Y45772D01*
X-8618D01*
X-8670Y45824D01*
Y45929D01*
X-8618Y45982D01*
X-8355Y46296D02*
X-8408Y46191D01*
X-8513Y46087D01*
X-8618D01*
X-8670Y46139D01*
Y46244D01*
X-8618Y46296D01*
X-8565D01*
X-8513Y46244D01*
Y46087D01*
X-3280Y42634D02*
X-3228Y42687D01*
X-3123D01*
X-3070Y42634D01*
Y42424D01*
X-3123Y42372D01*
X-3228D01*
X-3280Y42424D01*
X-3385Y42687D02*
X-3595D01*
Y42634D01*
X-3385Y42424D01*
Y42372D01*
X-5908Y10282D02*
X-5855Y10229D01*
Y10124D01*
X-5908Y10072D01*
X-6118D01*
X-6170Y10124D01*
Y10229D01*
X-6118Y10282D01*
X-5908Y10387D02*
X-5855Y10439D01*
Y10544D01*
X-5908Y10596D01*
X-5960D01*
X-6013Y10544D01*
X-6065Y10596D01*
X-6118D01*
X-6170Y10544D01*
Y10439D01*
X-6118Y10387D01*
X-6065D01*
X-6013Y10439D01*
X-5960Y10387D01*
X-5908D01*
X-6013Y10439D02*
Y10544D01*
X-5408Y7482D02*
X-5355Y7429D01*
Y7324D01*
X-5408Y7272D01*
X-5618D01*
X-5670Y7324D01*
Y7429D01*
X-5618Y7482D01*
Y7587D02*
X-5670Y7639D01*
Y7744D01*
X-5618Y7796D01*
X-5408D01*
X-5355Y7744D01*
Y7639D01*
X-5408Y7587D01*
X-5460D01*
X-5513Y7639D01*
Y7796D01*
X-4808Y7482D02*
X-4755Y7429D01*
Y7324D01*
X-4808Y7272D01*
X-5018D01*
X-5070Y7324D01*
Y7429D01*
X-5018Y7482D01*
X-5070Y7587D02*
Y7691D01*
Y7639D01*
X-4755D01*
X-4808Y7587D01*
Y7849D02*
X-4755Y7901D01*
Y8006D01*
X-4808Y8059D01*
X-5018D01*
X-5070Y8006D01*
Y7901D01*
X-5018Y7849D01*
X-4808D01*
X-3408Y19082D02*
X-3355Y19029D01*
Y18924D01*
X-3408Y18872D01*
X-3618D01*
X-3670Y18924D01*
Y19029D01*
X-3618Y19082D01*
X-3670Y19187D02*
Y19291D01*
Y19239D01*
X-3355D01*
X-3408Y19187D01*
X-3670Y19449D02*
Y19554D01*
Y19501D01*
X-3355D01*
X-3408Y19449D01*
X-2208Y7182D02*
X-2155Y7129D01*
Y7024D01*
X-2208Y6972D01*
X-2418D01*
X-2470Y7024D01*
Y7129D01*
X-2418Y7182D01*
X-2470Y7287D02*
Y7391D01*
Y7339D01*
X-2155D01*
X-2208Y7287D01*
X-2470Y7759D02*
Y7549D01*
X-2260Y7759D01*
X-2208D01*
X-2155Y7706D01*
Y7601D01*
X-2208Y7549D01*
X-10908Y6482D02*
X-10855Y6429D01*
Y6324D01*
X-10908Y6272D01*
X-11118D01*
X-11170Y6324D01*
Y6429D01*
X-11118Y6482D01*
X-11170Y6587D02*
Y6691D01*
Y6639D01*
X-10855D01*
X-10908Y6587D01*
Y6849D02*
X-10855Y6901D01*
Y7006D01*
X-10908Y7059D01*
X-10960D01*
X-11013Y7006D01*
Y6954D01*
Y7006D01*
X-11065Y7059D01*
X-11118D01*
X-11170Y7006D01*
Y6901D01*
X-11118Y6849D01*
X-10908Y9782D02*
X-10855Y9729D01*
Y9624D01*
X-10908Y9572D01*
X-11118D01*
X-11170Y9624D01*
Y9729D01*
X-11118Y9782D01*
X-11170Y9887D02*
Y9991D01*
Y9939D01*
X-10855D01*
X-10908Y9887D01*
X-11170Y10306D02*
X-10855D01*
X-11013Y10149D01*
Y10359D01*
X-14008Y1582D02*
X-13955Y1529D01*
Y1424D01*
X-14008Y1372D01*
X-14218D01*
X-14270Y1424D01*
Y1529D01*
X-14218Y1582D01*
X-14270Y1687D02*
Y1791D01*
Y1739D01*
X-13955D01*
X-14008Y1687D01*
X-13955Y2159D02*
Y1949D01*
X-14113D01*
X-14060Y2054D01*
Y2106D01*
X-14113Y2159D01*
X-14218D01*
X-14270Y2106D01*
Y2001D01*
X-14218Y1949D01*
X-14608Y1582D02*
X-14555Y1529D01*
Y1424D01*
X-14608Y1372D01*
X-14818D01*
X-14870Y1424D01*
Y1529D01*
X-14818Y1582D01*
X-14870Y1687D02*
Y1791D01*
Y1739D01*
X-14555D01*
X-14608Y1687D01*
X-14555Y2159D02*
X-14608Y2054D01*
X-14713Y1949D01*
X-14818D01*
X-14870Y2001D01*
Y2106D01*
X-14818Y2159D01*
X-14765D01*
X-14713Y2106D01*
Y1949D01*
X-17880Y4134D02*
X-17828Y4187D01*
X-17723D01*
X-17670Y4134D01*
Y3924D01*
X-17723Y3872D01*
X-17828D01*
X-17880Y3924D01*
X-17985Y3872D02*
X-18090D01*
X-18037D01*
Y4187D01*
X-17985Y4134D01*
X-18247Y4187D02*
X-18457D01*
Y4134D01*
X-18247Y3924D01*
Y3872D01*
X-15480Y4134D02*
X-15428Y4187D01*
X-15323D01*
X-15270Y4134D01*
Y3924D01*
X-15323Y3872D01*
X-15428D01*
X-15480Y3924D01*
X-15585Y3872D02*
X-15690D01*
X-15637D01*
Y4187D01*
X-15585Y4134D01*
X-15847D02*
X-15900Y4187D01*
X-16005D01*
X-16057Y4134D01*
Y4082D01*
X-16005Y4029D01*
X-16057Y3977D01*
Y3924D01*
X-16005Y3872D01*
X-15900D01*
X-15847Y3924D01*
Y3977D01*
X-15900Y4029D01*
X-15847Y4082D01*
Y4134D01*
X-15900Y4029D02*
X-16005D01*
X-13507Y5197D02*
X-13468Y5236D01*
X-13389D01*
X-13350Y5197D01*
Y5039D01*
X-13389Y5000D01*
X-13468D01*
X-13507Y5039D01*
X-13586Y5000D02*
X-13665D01*
X-13626D01*
Y5236D01*
X-13586Y5197D01*
X-13783Y5039D02*
X-13822Y5000D01*
X-13901D01*
X-13940Y5039D01*
Y5197D01*
X-13901Y5236D01*
X-13822D01*
X-13783Y5197D01*
Y5157D01*
X-13822Y5118D01*
X-13940D01*
X-16880Y4974D02*
X-16828Y5027D01*
X-16723D01*
X-16670Y4974D01*
Y4764D01*
X-16723Y4712D01*
X-16828D01*
X-16880Y4764D01*
X-17195Y4712D02*
X-16985D01*
X-17195Y4922D01*
Y4974D01*
X-17142Y5027D01*
X-17037D01*
X-16985Y4974D01*
X-17300D02*
X-17352Y5027D01*
X-17457D01*
X-17510Y4974D01*
Y4764D01*
X-17457Y4712D01*
X-17352D01*
X-17300Y4764D01*
Y4974D01*
X-35380Y20434D02*
X-35328Y20487D01*
X-35223D01*
X-35170Y20434D01*
Y20224D01*
X-35223Y20172D01*
X-35328D01*
X-35380Y20224D01*
X-35695Y20172D02*
X-35485D01*
X-35695Y20382D01*
Y20434D01*
X-35642Y20487D01*
X-35537D01*
X-35485Y20434D01*
X-35800Y20172D02*
X-35905D01*
X-35852D01*
Y20487D01*
X-35800Y20434D01*
X-35380Y21134D02*
X-35328Y21187D01*
X-35223D01*
X-35170Y21134D01*
Y20924D01*
X-35223Y20872D01*
X-35328D01*
X-35380Y20924D01*
X-35695Y20872D02*
X-35485D01*
X-35695Y21082D01*
Y21134D01*
X-35642Y21187D01*
X-35537D01*
X-35485Y21134D01*
X-36010Y20872D02*
X-35800D01*
X-36010Y21082D01*
Y21134D01*
X-35957Y21187D01*
X-35852D01*
X-35800Y21134D01*
X-30508Y14682D02*
X-30455Y14629D01*
Y14524D01*
X-30508Y14472D01*
X-30718D01*
X-30770Y14524D01*
Y14629D01*
X-30718Y14682D01*
X-30770Y14996D02*
Y14787D01*
X-30560Y14996D01*
X-30508D01*
X-30455Y14944D01*
Y14839D01*
X-30508Y14787D01*
Y15101D02*
X-30455Y15154D01*
Y15259D01*
X-30508Y15311D01*
X-30560D01*
X-30613Y15259D01*
Y15206D01*
Y15259D01*
X-30665Y15311D01*
X-30718D01*
X-30770Y15259D01*
Y15154D01*
X-30718Y15101D01*
X-32308Y14682D02*
X-32255Y14629D01*
Y14524D01*
X-32308Y14472D01*
X-32518D01*
X-32570Y14524D01*
Y14629D01*
X-32518Y14682D01*
X-32570Y14996D02*
Y14787D01*
X-32360Y14996D01*
X-32308D01*
X-32255Y14944D01*
Y14839D01*
X-32308Y14787D01*
X-32570Y15259D02*
X-32255D01*
X-32413Y15101D01*
Y15311D01*
X-32980Y15934D02*
X-32928Y15987D01*
X-32823D01*
X-32770Y15934D01*
Y15724D01*
X-32823Y15672D01*
X-32928D01*
X-32980Y15724D01*
X-33295Y15672D02*
X-33085D01*
X-33295Y15882D01*
Y15934D01*
X-33242Y15987D01*
X-33137D01*
X-33085Y15934D01*
X-33610Y15987D02*
X-33400D01*
Y15829D01*
X-33505Y15882D01*
X-33557D01*
X-33610Y15829D01*
Y15724D01*
X-33557Y15672D01*
X-33452D01*
X-33400Y15724D01*
X-35480Y16834D02*
X-35428Y16887D01*
X-35323D01*
X-35270Y16834D01*
Y16624D01*
X-35323Y16572D01*
X-35428D01*
X-35480Y16624D01*
X-35795Y16572D02*
X-35585D01*
X-35795Y16782D01*
Y16834D01*
X-35742Y16887D01*
X-35637D01*
X-35585Y16834D01*
X-36110Y16887D02*
X-36005Y16834D01*
X-35900Y16729D01*
Y16624D01*
X-35952Y16572D01*
X-36057D01*
X-36110Y16624D01*
Y16677D01*
X-36057Y16729D01*
X-35900D01*
X-35480Y17434D02*
X-35428Y17487D01*
X-35323D01*
X-35270Y17434D01*
Y17224D01*
X-35323Y17172D01*
X-35428D01*
X-35480Y17224D01*
X-35795Y17172D02*
X-35585D01*
X-35795Y17382D01*
Y17434D01*
X-35742Y17487D01*
X-35637D01*
X-35585Y17434D01*
X-35900Y17487D02*
X-36110D01*
Y17434D01*
X-35900Y17224D01*
Y17172D01*
X-35480Y18634D02*
X-35428Y18687D01*
X-35323D01*
X-35270Y18634D01*
Y18424D01*
X-35323Y18372D01*
X-35428D01*
X-35480Y18424D01*
X-35795Y18372D02*
X-35585D01*
X-35795Y18582D01*
Y18634D01*
X-35742Y18687D01*
X-35637D01*
X-35585Y18634D01*
X-35900D02*
X-35952Y18687D01*
X-36057D01*
X-36110Y18634D01*
Y18582D01*
X-36057Y18529D01*
X-36110Y18477D01*
Y18424D01*
X-36057Y18372D01*
X-35952D01*
X-35900Y18424D01*
Y18477D01*
X-35952Y18529D01*
X-35900Y18582D01*
Y18634D01*
X-35952Y18529D02*
X-36057D01*
X-30508Y9182D02*
X-30455Y9129D01*
Y9024D01*
X-30508Y8972D01*
X-30718D01*
X-30770Y9024D01*
Y9129D01*
X-30718Y9182D01*
X-30508Y9287D02*
X-30455Y9339D01*
Y9444D01*
X-30508Y9496D01*
X-30560D01*
X-30613Y9444D01*
Y9391D01*
Y9444D01*
X-30665Y9496D01*
X-30718D01*
X-30770Y9444D01*
Y9339D01*
X-30718Y9287D01*
X-30508Y9601D02*
X-30455Y9654D01*
Y9759D01*
X-30508Y9811D01*
X-30718D01*
X-30770Y9759D01*
Y9654D01*
X-30718Y9601D01*
X-30508D01*
X-31708Y9282D02*
X-31655Y9229D01*
Y9124D01*
X-31708Y9072D01*
X-31918D01*
X-31970Y9124D01*
Y9229D01*
X-31918Y9282D01*
X-31708Y9387D02*
X-31655Y9439D01*
Y9544D01*
X-31708Y9596D01*
X-31760D01*
X-31813Y9544D01*
Y9491D01*
Y9544D01*
X-31865Y9596D01*
X-31918D01*
X-31970Y9544D01*
Y9439D01*
X-31918Y9387D01*
X-31970Y9701D02*
Y9806D01*
Y9754D01*
X-31655D01*
X-31708Y9701D01*
X-31108Y9182D02*
X-31055Y9129D01*
Y9024D01*
X-31108Y8972D01*
X-31318D01*
X-31370Y9024D01*
Y9129D01*
X-31318Y9182D01*
X-31108Y9287D02*
X-31055Y9339D01*
Y9444D01*
X-31108Y9496D01*
X-31160D01*
X-31213Y9444D01*
Y9391D01*
Y9444D01*
X-31265Y9496D01*
X-31318D01*
X-31370Y9444D01*
Y9339D01*
X-31318Y9287D01*
X-31370Y9811D02*
Y9601D01*
X-31160Y9811D01*
X-31108D01*
X-31055Y9759D01*
Y9654D01*
X-31108Y9601D01*
X-35480Y18034D02*
X-35428Y18087D01*
X-35323D01*
X-35270Y18034D01*
Y17824D01*
X-35323Y17772D01*
X-35428D01*
X-35480Y17824D01*
X-35585Y18034D02*
X-35637Y18087D01*
X-35742D01*
X-35795Y18034D01*
Y17982D01*
X-35742Y17929D01*
X-35690D01*
X-35742D01*
X-35795Y17877D01*
Y17824D01*
X-35742Y17772D01*
X-35637D01*
X-35585Y17824D01*
X-35900Y18034D02*
X-35952Y18087D01*
X-36057D01*
X-36110Y18034D01*
Y17982D01*
X-36057Y17929D01*
X-36005D01*
X-36057D01*
X-36110Y17877D01*
Y17824D01*
X-36057Y17772D01*
X-35952D01*
X-35900Y17824D01*
X-31708Y10709D02*
X-31656Y10656D01*
Y10551D01*
X-31708Y10499D01*
X-31918D01*
X-31970Y10551D01*
Y10656D01*
X-31918Y10709D01*
X-31708Y10814D02*
X-31656Y10866D01*
Y10971D01*
X-31708Y11024D01*
X-31760D01*
X-31813Y10971D01*
Y10919D01*
Y10971D01*
X-31865Y11024D01*
X-31918D01*
X-31970Y10971D01*
Y10866D01*
X-31918Y10814D01*
X-31970Y11286D02*
X-31656D01*
X-31813Y11129D01*
Y11339D01*
X-35480Y19234D02*
X-35428Y19287D01*
X-35323D01*
X-35270Y19234D01*
Y19024D01*
X-35323Y18972D01*
X-35428D01*
X-35480Y19024D01*
X-35585Y19234D02*
X-35637Y19287D01*
X-35742D01*
X-35795Y19234D01*
Y19182D01*
X-35742Y19129D01*
X-35690D01*
X-35742D01*
X-35795Y19077D01*
Y19024D01*
X-35742Y18972D01*
X-35637D01*
X-35585Y19024D01*
X-36110Y19287D02*
X-35900D01*
Y19129D01*
X-36005Y19182D01*
X-36057D01*
X-36110Y19129D01*
Y19024D01*
X-36057Y18972D01*
X-35952D01*
X-35900Y19024D01*
X-34608Y9482D02*
X-34555Y9429D01*
Y9324D01*
X-34608Y9272D01*
X-34818D01*
X-34870Y9324D01*
Y9429D01*
X-34818Y9482D01*
X-34608Y9587D02*
X-34555Y9639D01*
Y9744D01*
X-34608Y9796D01*
X-34660D01*
X-34713Y9744D01*
Y9691D01*
Y9744D01*
X-34765Y9796D01*
X-34818D01*
X-34870Y9744D01*
Y9639D01*
X-34818Y9587D01*
X-34555Y10111D02*
X-34608Y10006D01*
X-34713Y9901D01*
X-34818D01*
X-34870Y9954D01*
Y10059D01*
X-34818Y10111D01*
X-34765D01*
X-34713Y10059D01*
Y9901D01*
X-30560Y23962D02*
X-30507Y24015D01*
X-30402D01*
X-30350Y23962D01*
Y23752D01*
X-30402Y23700D01*
X-30507D01*
X-30560Y23752D01*
X-30665Y23962D02*
X-30717Y24015D01*
X-30822D01*
X-30875Y23962D01*
Y23910D01*
X-30822Y23857D01*
X-30770D01*
X-30822D01*
X-30875Y23805D01*
Y23752D01*
X-30822Y23700D01*
X-30717D01*
X-30665Y23752D01*
X-30980Y24015D02*
X-31190D01*
Y23962D01*
X-30980Y23752D01*
Y23700D01*
X-32280Y23334D02*
X-32228Y23387D01*
X-32123D01*
X-32070Y23334D01*
Y23124D01*
X-32123Y23072D01*
X-32228D01*
X-32280Y23124D01*
X-32385Y23334D02*
X-32437Y23387D01*
X-32542D01*
X-32595Y23334D01*
Y23282D01*
X-32542Y23229D01*
X-32490D01*
X-32542D01*
X-32595Y23177D01*
Y23124D01*
X-32542Y23072D01*
X-32437D01*
X-32385Y23124D01*
X-32700Y23334D02*
X-32752Y23387D01*
X-32857D01*
X-32910Y23334D01*
Y23282D01*
X-32857Y23229D01*
X-32910Y23177D01*
Y23124D01*
X-32857Y23072D01*
X-32752D01*
X-32700Y23124D01*
Y23177D01*
X-32752Y23229D01*
X-32700Y23282D01*
Y23334D01*
X-32752Y23229D02*
X-32857D01*
X-20708Y35482D02*
X-20655Y35429D01*
Y35324D01*
X-20708Y35272D01*
X-20918D01*
X-20970Y35324D01*
Y35429D01*
X-20918Y35482D01*
X-20655Y35796D02*
Y35587D01*
X-20813D01*
X-20760Y35691D01*
Y35744D01*
X-20813Y35796D01*
X-20918D01*
X-20970Y35744D01*
Y35639D01*
X-20918Y35587D01*
X-20970Y36111D02*
Y35901D01*
X-20760Y36111D01*
X-20708D01*
X-20655Y36059D01*
Y35954D01*
X-20708Y35901D01*
X-22980Y32234D02*
X-22928Y32287D01*
X-22823D01*
X-22770Y32234D01*
Y32024D01*
X-22823Y31972D01*
X-22928D01*
X-22980Y32024D01*
X-23295Y32287D02*
X-23085D01*
Y32129D01*
X-23190Y32182D01*
X-23242D01*
X-23295Y32129D01*
Y32024D01*
X-23242Y31972D01*
X-23137D01*
X-23085Y32024D01*
X-23400Y32234D02*
X-23452Y32287D01*
X-23557D01*
X-23610Y32234D01*
Y32182D01*
X-23557Y32129D01*
X-23505D01*
X-23557D01*
X-23610Y32077D01*
Y32024D01*
X-23557Y31972D01*
X-23452D01*
X-23400Y32024D01*
X-1805Y6942D02*
X-1490D01*
Y6784D01*
X-1543Y6732D01*
X-1752D01*
X-1805Y6784D01*
Y6942D01*
X-1490Y6627D02*
Y6522D01*
Y6574D01*
X-1805D01*
X-1752Y6627D01*
X-13970Y34987D02*
Y34672D01*
X-14128D01*
X-14180Y34724D01*
Y34934D01*
X-14128Y34987D01*
X-13970D01*
X-14495Y34672D02*
X-14285D01*
X-14495Y34882D01*
Y34934D01*
X-14442Y34987D01*
X-14337D01*
X-14285Y34934D01*
X-4370Y17087D02*
X-4580D01*
X-4475D01*
Y16772D01*
X-4685Y17087D02*
X-4895Y16772D01*
Y17087D02*
X-4685Y16772D01*
X-3885Y17300D02*
X-4200D01*
Y17457D01*
X-4148Y17510D01*
X-3938D01*
X-3885Y17457D01*
Y17300D01*
X-3938Y17615D02*
X-3885Y17667D01*
Y17772D01*
X-3938Y17825D01*
X-3990D01*
X-4043Y17772D01*
Y17720D01*
Y17772D01*
X-4095Y17825D01*
X-4148D01*
X-4200Y17772D01*
Y17667D01*
X-4148Y17615D01*
X-5370Y16772D02*
Y17087D01*
X-5528D01*
X-5580Y17034D01*
Y16929D01*
X-5528Y16877D01*
X-5370D01*
X-5475D02*
X-5580Y16772D01*
X-5685Y17087D02*
X-5895Y16772D01*
Y17087D02*
X-5685Y16772D01*
X-6055Y17272D02*
X-6370D01*
Y17429D01*
X-6318Y17482D01*
X-6108D01*
X-6055Y17429D01*
Y17272D01*
X-6370Y17744D02*
X-6055D01*
X-6213Y17587D01*
Y17796D01*
X-8170Y4787D02*
Y4472D01*
X-8328D01*
X-8380Y4524D01*
Y4734D01*
X-8328Y4787D01*
X-8170D01*
X-8695D02*
X-8485D01*
Y4629D01*
X-8590Y4682D01*
X-8642D01*
X-8695Y4629D01*
Y4524D01*
X-8642Y4472D01*
X-8537D01*
X-8485Y4524D01*
X-20670Y27187D02*
Y26872D01*
X-20828D01*
X-20880Y26924D01*
Y27134D01*
X-20828Y27187D01*
X-20670D01*
X-21195D02*
X-21090Y27134D01*
X-20985Y27029D01*
Y26924D01*
X-21037Y26872D01*
X-21142D01*
X-21195Y26924D01*
Y26977D01*
X-21142Y27029D01*
X-20985D01*
X-20230Y6447D02*
X-20125D01*
X-20177D01*
Y6184D01*
X-20125Y6132D01*
X-20072D01*
X-20020Y6184D01*
X-20334Y6132D02*
X-20439D01*
X-20387D01*
Y6447D01*
X-20334Y6394D01*
X-3355Y36372D02*
X-3670D01*
Y36582D01*
Y36687D02*
Y36791D01*
Y36739D01*
X-3355D01*
X-3408Y36687D01*
X-10870Y5487D02*
Y5172D01*
X-11080D01*
X-11395D02*
X-11185D01*
X-11395Y5382D01*
Y5434D01*
X-11342Y5487D01*
X-11237D01*
X-11185Y5434D01*
X-36870Y15287D02*
Y14972D01*
X-37080D01*
X-37185Y15234D02*
X-37237Y15287D01*
X-37342D01*
X-37395Y15234D01*
Y15182D01*
X-37342Y15129D01*
X-37290D01*
X-37342D01*
X-37395Y15077D01*
Y15024D01*
X-37342Y14972D01*
X-37237D01*
X-37185Y15024D01*
X-36870Y16087D02*
Y15772D01*
X-37080D01*
X-37342D02*
Y16087D01*
X-37185Y15929D01*
X-37395D01*
X-2070Y34472D02*
Y34787D01*
X-2228D01*
X-2280Y34734D01*
Y34629D01*
X-2228Y34577D01*
X-2070D01*
X-2385Y34472D02*
X-2490D01*
X-2437D01*
Y34787D01*
X-2385Y34734D01*
X-285Y13200D02*
Y13305D01*
Y13252D01*
X-600D01*
Y13200D01*
Y13305D01*
X-338Y13672D02*
X-285Y13620D01*
Y13515D01*
X-338Y13462D01*
X-548D01*
X-600Y13515D01*
Y13620D01*
X-548Y13672D01*
X-338Y13987D02*
X-285Y13935D01*
Y13830D01*
X-338Y13777D01*
X-390D01*
X-443Y13830D01*
Y13935D01*
X-495Y13987D01*
X-548D01*
X-600Y13935D01*
Y13830D01*
X-548Y13777D01*
X-600Y14092D02*
X-285D01*
Y14250D01*
X-338Y14302D01*
X-443D01*
X-495Y14250D01*
Y14092D01*
X-285Y14722D02*
X-548D01*
X-600Y14774D01*
Y14879D01*
X-548Y14932D01*
X-285D01*
X-338Y15247D02*
X-285Y15194D01*
Y15089D01*
X-338Y15037D01*
X-390D01*
X-443Y15089D01*
Y15194D01*
X-495Y15247D01*
X-548D01*
X-600Y15194D01*
Y15089D01*
X-548Y15037D01*
X-285Y15352D02*
X-600D01*
Y15509D01*
X-548Y15561D01*
X-495D01*
X-443Y15509D01*
Y15352D01*
Y15509D01*
X-390Y15561D01*
X-338D01*
X-285Y15509D01*
Y15352D01*
X-3250Y13300D02*
X-2935D01*
Y13457D01*
X-2988Y13510D01*
X-3093D01*
X-3145Y13457D01*
Y13300D01*
X-3250Y13825D02*
Y13615D01*
X-3040Y13825D01*
X-2988D01*
X-2935Y13772D01*
Y13667D01*
X-2988Y13615D01*
X-2870Y5072D02*
Y5387D01*
X-3028D01*
X-3080Y5334D01*
Y5229D01*
X-3028Y5177D01*
X-2870D01*
X-3185Y5334D02*
X-3237Y5387D01*
X-3342D01*
X-3395Y5334D01*
Y5282D01*
X-3342Y5229D01*
X-3290D01*
X-3342D01*
X-3395Y5177D01*
Y5124D01*
X-3342Y5072D01*
X-3237D01*
X-3185Y5124D01*
X-32380Y41224D02*
Y41434D01*
X-32328Y41487D01*
X-32223D01*
X-32170Y41434D01*
Y41224D01*
X-32223Y41172D01*
X-32328D01*
X-32275Y41277D02*
X-32380Y41172D01*
X-32328D02*
X-32380Y41224D01*
X-32485Y41172D02*
X-32590D01*
X-32537D01*
Y41487D01*
X-32485Y41434D01*
X-18980Y27424D02*
Y27634D01*
X-18928Y27687D01*
X-18823D01*
X-18770Y27634D01*
Y27424D01*
X-18823Y27372D01*
X-18928D01*
X-18875Y27477D02*
X-18980Y27372D01*
X-18928D02*
X-18980Y27424D01*
X-19295Y27372D02*
X-19085D01*
X-19295Y27582D01*
Y27634D01*
X-19242Y27687D01*
X-19137D01*
X-19085Y27634D01*
X-6570Y7372D02*
Y7687D01*
X-6728D01*
X-6780Y7634D01*
Y7529D01*
X-6728Y7477D01*
X-6570D01*
X-6675D02*
X-6780Y7372D01*
X-6885D02*
X-6990D01*
X-6937D01*
Y7687D01*
X-6885Y7634D01*
X-1950Y16550D02*
X-1635D01*
Y16707D01*
X-1688Y16760D01*
X-1793D01*
X-1845Y16707D01*
Y16550D01*
Y16655D02*
X-1950Y16760D01*
Y17075D02*
Y16865D01*
X-1740Y17075D01*
X-1688D01*
X-1635Y17022D01*
Y16917D01*
X-1688Y16865D01*
X-2590Y8042D02*
X-2905D01*
Y7884D01*
X-2852Y7832D01*
X-2748D01*
X-2695Y7884D01*
Y8042D01*
Y7937D02*
X-2590Y7832D01*
X-2852Y7727D02*
X-2905Y7674D01*
Y7569D01*
X-2852Y7517D01*
X-2800D01*
X-2748Y7569D01*
Y7622D01*
Y7569D01*
X-2695Y7517D01*
X-2643D01*
X-2590Y7569D01*
Y7674D01*
X-2643Y7727D01*
X-12870Y36172D02*
X-12555D01*
Y36329D01*
X-12608Y36382D01*
X-12713D01*
X-12765Y36329D01*
Y36172D01*
Y36277D02*
X-12870Y36382D01*
Y36644D02*
X-12555D01*
X-12713Y36487D01*
Y36696D01*
X-7470Y11372D02*
Y11687D01*
X-7628D01*
X-7680Y11634D01*
Y11529D01*
X-7628Y11477D01*
X-7470D01*
X-7575D02*
X-7680Y11372D01*
X-7995Y11687D02*
X-7785D01*
Y11529D01*
X-7890Y11582D01*
X-7942D01*
X-7995Y11529D01*
Y11424D01*
X-7942Y11372D01*
X-7837D01*
X-7785Y11424D01*
X-7470Y12072D02*
Y12387D01*
X-7628D01*
X-7680Y12334D01*
Y12229D01*
X-7628Y12177D01*
X-7470D01*
X-7575D02*
X-7680Y12072D01*
X-7995Y12387D02*
X-7890Y12334D01*
X-7785Y12229D01*
Y12124D01*
X-7837Y12072D01*
X-7942D01*
X-7995Y12124D01*
Y12177D01*
X-7942Y12229D01*
X-7785D01*
X-4470Y7272D02*
X-4155D01*
Y7429D01*
X-4208Y7482D01*
X-4313D01*
X-4365Y7429D01*
Y7272D01*
Y7377D02*
X-4470Y7482D01*
X-4155Y7587D02*
Y7796D01*
X-4208D01*
X-4418Y7587D01*
X-4470D01*
X-3870Y7272D02*
X-3555D01*
Y7429D01*
X-3608Y7482D01*
X-3713D01*
X-3765Y7429D01*
Y7272D01*
Y7377D02*
X-3870Y7482D01*
X-3608Y7587D02*
X-3555Y7639D01*
Y7744D01*
X-3608Y7796D01*
X-3660D01*
X-3713Y7744D01*
X-3765Y7796D01*
X-3818D01*
X-3870Y7744D01*
Y7639D01*
X-3818Y7587D01*
X-3765D01*
X-3713Y7639D01*
X-3660Y7587D01*
X-3608D01*
X-3713Y7639D02*
Y7744D01*
X-2700Y17150D02*
Y17465D01*
X-2857D01*
X-2910Y17412D01*
Y17307D01*
X-2857Y17255D01*
X-2700D01*
X-2805D02*
X-2910Y17150D01*
X-3015Y17202D02*
X-3067Y17150D01*
X-3172D01*
X-3225Y17202D01*
Y17412D01*
X-3172Y17465D01*
X-3067D01*
X-3015Y17412D01*
Y17360D01*
X-3067Y17307D01*
X-3225D01*
X-10070Y34672D02*
Y34987D01*
X-10228D01*
X-10280Y34934D01*
Y34829D01*
X-10228Y34777D01*
X-10070D01*
X-10175D02*
X-10280Y34672D01*
X-10385D02*
X-10490D01*
X-10437D01*
Y34987D01*
X-10385Y34934D01*
X-10647D02*
X-10700Y34987D01*
X-10805D01*
X-10857Y34934D01*
Y34724D01*
X-10805Y34672D01*
X-10700D01*
X-10647Y34724D01*
Y34934D01*
X-6970Y8172D02*
X-6655D01*
Y8329D01*
X-6708Y8382D01*
X-6813D01*
X-6865Y8329D01*
Y8172D01*
Y8277D02*
X-6970Y8382D01*
Y8487D02*
Y8591D01*
Y8539D01*
X-6655D01*
X-6708Y8487D01*
X-6970Y8749D02*
Y8854D01*
Y8801D01*
X-6655D01*
X-6708Y8749D01*
X-4770Y20072D02*
X-4455D01*
Y20229D01*
X-4508Y20282D01*
X-4613D01*
X-4665Y20229D01*
Y20072D01*
Y20177D02*
X-4770Y20282D01*
Y20387D02*
Y20491D01*
Y20439D01*
X-4455D01*
X-4508Y20387D01*
X-4770Y20859D02*
Y20649D01*
X-4560Y20859D01*
X-4508D01*
X-4455Y20806D01*
Y20701D01*
X-4508Y20649D01*
X-5770Y20072D02*
X-5455D01*
Y20229D01*
X-5508Y20282D01*
X-5613D01*
X-5665Y20229D01*
Y20072D01*
Y20177D02*
X-5770Y20282D01*
Y20387D02*
Y20491D01*
Y20439D01*
X-5455D01*
X-5508Y20387D01*
Y20649D02*
X-5455Y20701D01*
Y20806D01*
X-5508Y20859D01*
X-5560D01*
X-5613Y20806D01*
Y20754D01*
Y20806D01*
X-5665Y20859D01*
X-5718D01*
X-5770Y20806D01*
Y20701D01*
X-5718Y20649D01*
X-15670Y972D02*
Y1287D01*
X-15828D01*
X-15880Y1234D01*
Y1129D01*
X-15828Y1077D01*
X-15670D01*
X-15775D02*
X-15880Y972D01*
X-15985D02*
X-16090D01*
X-16037D01*
Y1287D01*
X-15985Y1234D01*
X-16405Y972D02*
Y1287D01*
X-16247Y1129D01*
X-16457D01*
X-18570Y2972D02*
Y3287D01*
X-18728D01*
X-18780Y3234D01*
Y3129D01*
X-18728Y3077D01*
X-18570D01*
X-18675D02*
X-18780Y2972D01*
X-18885D02*
X-18990D01*
X-18937D01*
Y3287D01*
X-18885Y3234D01*
X-19357Y3287D02*
X-19147D01*
Y3129D01*
X-19252Y3182D01*
X-19305D01*
X-19357Y3129D01*
Y3024D01*
X-19305Y2972D01*
X-19200D01*
X-19147Y3024D01*
X-13970Y5972D02*
Y6287D01*
X-14128D01*
X-14180Y6234D01*
Y6129D01*
X-14128Y6077D01*
X-13970D01*
X-14075D02*
X-14180Y5972D01*
X-14285D02*
X-14390D01*
X-14337D01*
Y6287D01*
X-14285Y6234D01*
X-14757Y6287D02*
X-14652Y6234D01*
X-14547Y6129D01*
Y6024D01*
X-14600Y5972D01*
X-14705D01*
X-14757Y6024D01*
Y6077D01*
X-14705Y6129D01*
X-14547D01*
X-7970Y5172D02*
Y5487D01*
X-8128D01*
X-8180Y5434D01*
Y5329D01*
X-8128Y5277D01*
X-7970D01*
X-8075D02*
X-8180Y5172D01*
X-8285D02*
X-8390D01*
X-8337D01*
Y5487D01*
X-8285Y5434D01*
X-8547Y5487D02*
X-8757D01*
Y5434D01*
X-8547Y5224D01*
Y5172D01*
X-16670Y5372D02*
Y5687D01*
X-16828D01*
X-16880Y5634D01*
Y5529D01*
X-16828Y5477D01*
X-16670D01*
X-16775D02*
X-16880Y5372D01*
X-16985D02*
X-17090D01*
X-17037D01*
Y5687D01*
X-16985Y5634D01*
X-17247D02*
X-17300Y5687D01*
X-17405D01*
X-17457Y5634D01*
Y5582D01*
X-17405Y5529D01*
X-17457Y5477D01*
Y5424D01*
X-17405Y5372D01*
X-17300D01*
X-17247Y5424D01*
Y5477D01*
X-17300Y5529D01*
X-17247Y5582D01*
Y5634D01*
X-17300Y5529D02*
X-17405D01*
X-18570Y2072D02*
Y2387D01*
X-18728D01*
X-18780Y2334D01*
Y2229D01*
X-18728Y2177D01*
X-18570D01*
X-18675D02*
X-18780Y2072D01*
X-18885D02*
X-18990D01*
X-18937D01*
Y2387D01*
X-18885Y2334D01*
X-19147Y2124D02*
X-19200Y2072D01*
X-19305D01*
X-19357Y2124D01*
Y2334D01*
X-19305Y2387D01*
X-19200D01*
X-19147Y2334D01*
Y2282D01*
X-19200Y2229D01*
X-19357D01*
X-30170Y8972D02*
X-29855D01*
Y9129D01*
X-29908Y9182D01*
X-30013D01*
X-30065Y9129D01*
Y8972D01*
Y9077D02*
X-30170Y9182D01*
Y9496D02*
Y9287D01*
X-29960Y9496D01*
X-29908D01*
X-29855Y9444D01*
Y9339D01*
X-29908Y9287D01*
Y9601D02*
X-29855Y9654D01*
Y9759D01*
X-29908Y9811D01*
X-30118D01*
X-30170Y9759D01*
Y9654D01*
X-30118Y9601D01*
X-29908D01*
X-35897Y4242D02*
X-35582D01*
Y4399D01*
X-35635Y4452D01*
X-35740D01*
X-35792Y4399D01*
Y4242D01*
Y4347D02*
X-35897Y4452D01*
Y4766D02*
Y4557D01*
X-35687Y4766D01*
X-35635D01*
X-35582Y4714D01*
Y4609D01*
X-35635Y4557D01*
X-35897Y4871D02*
Y4976D01*
Y4924D01*
X-35582D01*
X-35635Y4871D01*
X-31070Y12272D02*
Y12587D01*
X-31228D01*
X-31280Y12534D01*
Y12429D01*
X-31228Y12377D01*
X-31070D01*
X-31175D02*
X-31280Y12272D01*
X-31595D02*
X-31385D01*
X-31595Y12482D01*
Y12534D01*
X-31542Y12587D01*
X-31437D01*
X-31385Y12534D01*
X-31910Y12272D02*
X-31700D01*
X-31910Y12482D01*
Y12534D01*
X-31857Y12587D01*
X-31752D01*
X-31700Y12534D01*
X-27570Y12272D02*
Y12587D01*
X-27728D01*
X-27780Y12534D01*
Y12429D01*
X-27728Y12377D01*
X-27570D01*
X-27675D02*
X-27780Y12272D01*
X-28095D02*
X-27885D01*
X-28095Y12482D01*
Y12534D01*
X-28042Y12587D01*
X-27937D01*
X-27885Y12534D01*
X-28200D02*
X-28252Y12587D01*
X-28357D01*
X-28410Y12534D01*
Y12482D01*
X-28357Y12429D01*
X-28305D01*
X-28357D01*
X-28410Y12377D01*
Y12324D01*
X-28357Y12272D01*
X-28252D01*
X-28200Y12324D01*
X-29570Y14472D02*
X-29255D01*
Y14629D01*
X-29308Y14682D01*
X-29413D01*
X-29465Y14629D01*
Y14472D01*
Y14577D02*
X-29570Y14682D01*
Y14996D02*
Y14787D01*
X-29360Y14996D01*
X-29308D01*
X-29255Y14944D01*
Y14839D01*
X-29308Y14787D01*
X-29570Y15259D02*
X-29255D01*
X-29413Y15101D01*
Y15311D01*
X-29800Y29750D02*
Y30065D01*
X-29957D01*
X-30010Y30012D01*
Y29907D01*
X-29957Y29855D01*
X-29800D01*
X-29905D02*
X-30010Y29750D01*
X-30325D02*
X-30115D01*
X-30325Y29960D01*
Y30012D01*
X-30272Y30065D01*
X-30167D01*
X-30115Y30012D01*
X-30640Y30065D02*
X-30430D01*
Y29907D01*
X-30535Y29960D01*
X-30587D01*
X-30640Y29907D01*
Y29802D01*
X-30587Y29750D01*
X-30482D01*
X-30430Y29802D01*
X-29800Y29050D02*
Y29365D01*
X-29957D01*
X-30010Y29312D01*
Y29207D01*
X-29957Y29155D01*
X-29800D01*
X-29905D02*
X-30010Y29050D01*
X-30325D02*
X-30115D01*
X-30325Y29260D01*
Y29312D01*
X-30272Y29365D01*
X-30167D01*
X-30115Y29312D01*
X-30640Y29365D02*
X-30535Y29312D01*
X-30430Y29207D01*
Y29102D01*
X-30482Y29050D01*
X-30587D01*
X-30640Y29102D01*
Y29155D01*
X-30587Y29207D01*
X-30430D01*
X-29800Y28300D02*
Y28615D01*
X-29957D01*
X-30010Y28562D01*
Y28457D01*
X-29957Y28405D01*
X-29800D01*
X-29905D02*
X-30010Y28300D01*
X-30325D02*
X-30115D01*
X-30325Y28510D01*
Y28562D01*
X-30272Y28615D01*
X-30167D01*
X-30115Y28562D01*
X-30430Y28615D02*
X-30640D01*
Y28562D01*
X-30430Y28352D01*
Y28300D01*
X-30170Y14472D02*
X-29855D01*
Y14629D01*
X-29908Y14682D01*
X-30013D01*
X-30065Y14629D01*
Y14472D01*
Y14577D02*
X-30170Y14682D01*
Y14996D02*
Y14787D01*
X-29960Y14996D01*
X-29908D01*
X-29855Y14944D01*
Y14839D01*
X-29908Y14787D01*
Y15101D02*
X-29855Y15154D01*
Y15259D01*
X-29908Y15311D01*
X-29960D01*
X-30013Y15259D01*
X-30065Y15311D01*
X-30118D01*
X-30170Y15259D01*
Y15154D01*
X-30118Y15101D01*
X-30065D01*
X-30013Y15154D01*
X-29960Y15101D01*
X-29908D01*
X-30013Y15154D02*
Y15259D01*
X-31370Y14472D02*
X-31055D01*
Y14629D01*
X-31108Y14682D01*
X-31213D01*
X-31265Y14629D01*
Y14472D01*
Y14577D02*
X-31370Y14682D01*
Y14996D02*
Y14787D01*
X-31160Y14996D01*
X-31108D01*
X-31055Y14944D01*
Y14839D01*
X-31108Y14787D01*
X-31318Y15101D02*
X-31370Y15154D01*
Y15259D01*
X-31318Y15311D01*
X-31108D01*
X-31055Y15259D01*
Y15154D01*
X-31108Y15101D01*
X-31160D01*
X-31213Y15154D01*
Y15311D01*
X-31970Y14472D02*
X-31655D01*
Y14629D01*
X-31708Y14682D01*
X-31813D01*
X-31865Y14629D01*
Y14472D01*
Y14577D02*
X-31970Y14682D01*
X-31708Y14787D02*
X-31655Y14839D01*
Y14944D01*
X-31708Y14996D01*
X-31760D01*
X-31813Y14944D01*
Y14891D01*
Y14944D01*
X-31865Y14996D01*
X-31918D01*
X-31970Y14944D01*
Y14839D01*
X-31918Y14787D01*
X-31708Y15101D02*
X-31655Y15154D01*
Y15259D01*
X-31708Y15311D01*
X-31918D01*
X-31970Y15259D01*
Y15154D01*
X-31918Y15101D01*
X-31708D01*
X-32870Y11672D02*
Y11987D01*
X-33028D01*
X-33080Y11934D01*
Y11829D01*
X-33028Y11777D01*
X-32870D01*
X-32975D02*
X-33080Y11672D01*
X-33185Y11934D02*
X-33237Y11987D01*
X-33342D01*
X-33395Y11934D01*
Y11882D01*
X-33342Y11829D01*
X-33290D01*
X-33342D01*
X-33395Y11777D01*
Y11724D01*
X-33342Y11672D01*
X-33237D01*
X-33185Y11724D01*
X-33500Y11672D02*
X-33605D01*
X-33552D01*
Y11987D01*
X-33500Y11934D01*
X-29370Y11572D02*
Y11887D01*
X-29528D01*
X-29580Y11834D01*
Y11729D01*
X-29528Y11677D01*
X-29370D01*
X-29475D02*
X-29580Y11572D01*
X-29685Y11834D02*
X-29737Y11887D01*
X-29842D01*
X-29895Y11834D01*
Y11782D01*
X-29842Y11729D01*
X-29790D01*
X-29842D01*
X-29895Y11677D01*
Y11624D01*
X-29842Y11572D01*
X-29737D01*
X-29685Y11624D01*
X-30210Y11572D02*
X-30000D01*
X-30210Y11782D01*
Y11834D01*
X-30157Y11887D01*
X-30052D01*
X-30000Y11834D01*
X-36570Y4242D02*
X-36255D01*
Y4399D01*
X-36308Y4452D01*
X-36413D01*
X-36465Y4399D01*
Y4242D01*
Y4347D02*
X-36570Y4452D01*
X-36308Y4557D02*
X-36255Y4609D01*
Y4714D01*
X-36308Y4766D01*
X-36360D01*
X-36413Y4714D01*
Y4662D01*
Y4714D01*
X-36465Y4766D01*
X-36518D01*
X-36570Y4714D01*
Y4609D01*
X-36518Y4557D01*
X-36308Y4871D02*
X-36255Y4924D01*
Y5029D01*
X-36308Y5081D01*
X-36360D01*
X-36413Y5029D01*
Y4976D01*
Y5029D01*
X-36465Y5081D01*
X-36518D01*
X-36570Y5029D01*
Y4924D01*
X-36518Y4871D01*
X-33070Y13972D02*
Y14287D01*
X-33228D01*
X-33280Y14234D01*
Y14129D01*
X-33228Y14077D01*
X-33070D01*
X-33175D02*
X-33280Y13972D01*
X-33385Y14234D02*
X-33437Y14287D01*
X-33542D01*
X-33595Y14234D01*
Y14182D01*
X-33542Y14129D01*
X-33490D01*
X-33542D01*
X-33595Y14077D01*
Y14024D01*
X-33542Y13972D01*
X-33437D01*
X-33385Y14024D01*
X-33857Y13972D02*
Y14287D01*
X-33700Y14129D01*
X-33910D01*
X-29850Y22500D02*
Y22815D01*
X-30007D01*
X-30060Y22762D01*
Y22657D01*
X-30007Y22605D01*
X-29850D01*
X-29955D02*
X-30060Y22500D01*
X-30165Y22762D02*
X-30217Y22815D01*
X-30322D01*
X-30375Y22762D01*
Y22710D01*
X-30322Y22657D01*
X-30270D01*
X-30322D01*
X-30375Y22605D01*
Y22552D01*
X-30322Y22500D01*
X-30217D01*
X-30165Y22552D01*
X-30690Y22815D02*
X-30480D01*
Y22657D01*
X-30585Y22710D01*
X-30637D01*
X-30690Y22657D01*
Y22552D01*
X-30637Y22500D01*
X-30532D01*
X-30480Y22552D01*
X-18670Y35172D02*
X-18355D01*
Y35329D01*
X-18408Y35382D01*
X-18513D01*
X-18565Y35329D01*
Y35172D01*
Y35277D02*
X-18670Y35382D01*
X-18408Y35487D02*
X-18355Y35539D01*
Y35644D01*
X-18408Y35696D01*
X-18460D01*
X-18513Y35644D01*
Y35591D01*
Y35644D01*
X-18565Y35696D01*
X-18618D01*
X-18670Y35644D01*
Y35539D01*
X-18618Y35487D01*
Y35801D02*
X-18670Y35854D01*
Y35959D01*
X-18618Y36011D01*
X-18408D01*
X-18355Y35959D01*
Y35854D01*
X-18408Y35801D01*
X-18460D01*
X-18513Y35854D01*
Y36011D01*
X-17870Y35172D02*
X-17555D01*
Y35329D01*
X-17608Y35382D01*
X-17713D01*
X-17765Y35329D01*
Y35172D01*
Y35277D02*
X-17870Y35382D01*
Y35644D02*
X-17555D01*
X-17713Y35487D01*
Y35696D01*
X-17608Y35801D02*
X-17555Y35854D01*
Y35959D01*
X-17608Y36011D01*
X-17818D01*
X-17870Y35959D01*
Y35854D01*
X-17818Y35801D01*
X-17608D01*
X-31270Y38572D02*
X-30955D01*
Y38729D01*
X-31008Y38782D01*
X-31113D01*
X-31165Y38729D01*
Y38572D01*
Y38677D02*
X-31270Y38782D01*
Y39044D02*
X-30955D01*
X-31113Y38887D01*
Y39096D01*
X-31270Y39201D02*
Y39306D01*
Y39254D01*
X-30955D01*
X-31008Y39201D01*
X-33570Y39172D02*
Y39487D01*
X-33728D01*
X-33780Y39434D01*
Y39329D01*
X-33728Y39277D01*
X-33570D01*
X-33675D02*
X-33780Y39172D01*
X-34042D02*
Y39487D01*
X-33885Y39329D01*
X-34095D01*
X-34410Y39172D02*
X-34200D01*
X-34410Y39382D01*
Y39434D01*
X-34357Y39487D01*
X-34252D01*
X-34200Y39434D01*
X-32209Y26849D02*
X-31894D01*
Y27006D01*
X-31947Y27059D01*
X-32052D01*
X-32104Y27006D01*
Y26849D01*
Y26954D02*
X-32209Y27059D01*
Y27321D02*
X-31894D01*
X-32052Y27164D01*
Y27374D01*
X-31947Y27479D02*
X-31894Y27531D01*
Y27636D01*
X-31947Y27688D01*
X-31999D01*
X-32052Y27636D01*
Y27583D01*
Y27636D01*
X-32104Y27688D01*
X-32157D01*
X-32209Y27636D01*
Y27531D01*
X-32157Y27479D01*
X-13070Y27172D02*
X-12755D01*
Y27329D01*
X-12808Y27382D01*
X-12913D01*
X-12965Y27329D01*
Y27172D01*
Y27277D02*
X-13070Y27382D01*
Y27644D02*
X-12755D01*
X-12913Y27487D01*
Y27696D01*
X-13070Y27959D02*
X-12755D01*
X-12913Y27801D01*
Y28011D01*
X-21570Y28472D02*
X-21255D01*
Y28629D01*
X-21308Y28682D01*
X-21413D01*
X-21465Y28629D01*
Y28472D01*
Y28577D02*
X-21570Y28682D01*
Y28944D02*
X-21255D01*
X-21413Y28787D01*
Y28996D01*
X-21255Y29311D02*
Y29101D01*
X-21413D01*
X-21360Y29206D01*
Y29259D01*
X-21413Y29311D01*
X-21518D01*
X-21570Y29259D01*
Y29154D01*
X-21518Y29101D01*
X-19070Y29572D02*
Y29887D01*
X-19228D01*
X-19280Y29834D01*
Y29729D01*
X-19228Y29677D01*
X-19070D01*
X-19175D02*
X-19280Y29572D01*
X-19542D02*
Y29887D01*
X-19385Y29729D01*
X-19595D01*
X-19910Y29887D02*
X-19805Y29834D01*
X-19700Y29729D01*
Y29624D01*
X-19752Y29572D01*
X-19857D01*
X-19910Y29624D01*
Y29677D01*
X-19857Y29729D01*
X-19700D01*
X-4770Y43887D02*
Y43624D01*
X-4823Y43572D01*
X-4928D01*
X-4980Y43624D01*
Y43887D01*
X-5085Y43572D02*
X-5190D01*
X-5137D01*
Y43887D01*
X-5085Y43834D01*
X-5270Y8787D02*
Y8524D01*
X-5323Y8472D01*
X-5428D01*
X-5480Y8524D01*
Y8787D01*
X-5795Y8472D02*
X-5585D01*
X-5795Y8682D01*
Y8734D01*
X-5742Y8787D01*
X-5637D01*
X-5585Y8734D01*
X-15070Y3687D02*
Y3424D01*
X-15123Y3372D01*
X-15228D01*
X-15280Y3424D01*
Y3687D01*
X-15385Y3634D02*
X-15437Y3687D01*
X-15542D01*
X-15595Y3634D01*
Y3582D01*
X-15542Y3529D01*
X-15490D01*
X-15542D01*
X-15595Y3477D01*
Y3424D01*
X-15542Y3372D01*
X-15437D01*
X-15385Y3424D01*
X-29370Y19487D02*
Y19224D01*
X-29423Y19172D01*
X-29528D01*
X-29580Y19224D01*
Y19487D01*
X-29842Y19172D02*
Y19487D01*
X-29685Y19329D01*
X-29895D01*
X-13155Y40572D02*
X-13208D01*
X-13313Y40677D01*
X-13208Y40782D01*
X-13155D01*
X-13313Y40677D02*
X-13470D01*
Y40887D02*
Y40991D01*
Y40939D01*
X-13155D01*
X-13208Y40887D01*
X-8055Y10872D02*
X-8108D01*
X-8213Y10977D01*
X-8108Y11082D01*
X-8055D01*
X-8213Y10977D02*
X-8370D01*
Y11396D02*
Y11187D01*
X-8160Y11396D01*
X-8108D01*
X-8055Y11344D01*
Y11239D01*
X-8108Y11187D01*
X-32770Y22187D02*
Y22134D01*
X-32875Y22029D01*
X-32980Y22134D01*
Y22187D01*
X-32875Y22029D02*
Y21872D01*
X-33085Y22134D02*
X-33137Y22187D01*
X-33242D01*
X-33295Y22134D01*
Y22082D01*
X-33242Y22029D01*
X-33190D01*
X-33242D01*
X-33295Y21977D01*
Y21924D01*
X-33242Y21872D01*
X-33137D01*
X-33085Y21924D01*
X-28670Y8772D02*
Y9087D01*
X-28828D01*
X-28880Y9034D01*
Y8929D01*
X-28828Y8877D01*
X-28670D01*
X-29142Y8772D02*
Y9087D01*
X-28985Y8929D01*
X-29195D01*
D69*
X-5015Y37441D02*
G03*
X-5015Y37441I-79J0D01*
G01*
X-30207Y40471D02*
Y45826D01*
X-26151Y41495D02*
X-25758Y40786D01*
X-26388Y42519D02*
X-26151Y41495D01*
X-26388Y42519D02*
Y43896D01*
X-26151Y44841D01*
X-25758Y45511D01*
Y40786D02*
X-25482D01*
X-25758Y45511D02*
X-25482D01*
X-31151Y40471D02*
X-30207D01*
X-31151Y45826D02*
X-30207D01*
X-31171Y40471D02*
Y45826D01*
X-25463Y40471D02*
Y45826D01*
X-10910Y37665D02*
X-5595D01*
X-10910D02*
Y43177D01*
X-5398D01*
Y37862D02*
Y43177D01*
X-5595Y37665D02*
X-5398Y37862D01*
X-29922Y16368D02*
Y18809D01*
X-30030Y16260D02*
X-29922Y16368D01*
X-32471Y16260D02*
X-30030D01*
X-32579Y16368D02*
X-32471Y16260D01*
X-32579Y16368D02*
Y18809D01*
X-32471Y18918D01*
X-30030D01*
X-29922Y18809D01*
X-28621Y6331D02*
Y8594D01*
X-34822D02*
X-28621D01*
X-34822Y6331D02*
Y8594D01*
X-28621Y43D02*
Y1831D01*
X-34822Y43D02*
X-28621D01*
X-34822D02*
Y1831D01*
X-6058Y3487D02*
Y4885D01*
Y3487D02*
X-5280D01*
Y3340D02*
Y3487D01*
Y3340D02*
X-3686D01*
Y3487D01*
X-2908D01*
Y4885D01*
X-6058D02*
X-2908D01*
D116*
X-1903Y32971D02*
X-1737Y32888D01*
X-1570Y32722D01*
Y32555D01*
X-1653Y32472D01*
X-1820D01*
X-1903Y32555D01*
Y32638D01*
X-1820Y32722D01*
X-1570D01*
X-1903Y34071D02*
X-1570D01*
Y33822D01*
X-1737Y33905D01*
X-1820D01*
X-1903Y33822D01*
Y33655D01*
X-1820Y33572D01*
X-1653D01*
X-1570Y33655D01*
X-5503Y32472D02*
X-5170D01*
X-5503Y32805D01*
Y32888D01*
X-5420Y32971D01*
X-5253D01*
X-5170Y32888D01*
X-5270Y33472D02*
X-5437D01*
X-5353D01*
Y33971D01*
X-5270Y33888D01*
X-2100Y12733D02*
X-2183Y12567D01*
X-2350Y12400D01*
X-2517D01*
X-2600Y12483D01*
Y12650D01*
X-2517Y12733D01*
X-2433D01*
X-2350Y12650D01*
Y12400D01*
X-1050Y12733D02*
Y12400D01*
X-1300D01*
X-1217Y12567D01*
Y12650D01*
X-1300Y12733D01*
X-1467D01*
X-1550Y12650D01*
Y12483D01*
X-1467Y12400D01*
X-3500Y15683D02*
Y15350D01*
X-3167Y15683D01*
X-3083D01*
X-3000Y15600D01*
Y15433D01*
X-3083Y15350D01*
X-1550Y16050D02*
Y16217D01*
Y16133D01*
X-1050D01*
X-1133Y16050D01*
M02*
