G04 Layer_Physical_Order=4*
G04 Layer_Color=16711680*
%FSLAX24Y24*%
%MOIN*%
G70*
G01*
G75*
%ADD10R,0.0394X0.0315*%
%ADD11R,0.0315X0.0394*%
%ADD12C,0.0394*%
%ADD19C,0.0118*%
%ADD20C,0.0157*%
%ADD21C,0.0150*%
%ADD22C,0.0591*%
%ADD23C,0.0236*%
%ADD24C,0.1280*%
%ADD25O,0.1575X0.0709*%
%ADD26O,0.1772X0.0709*%
%ADD27C,0.1181*%
%ADD28C,0.0591*%
%ADD29C,0.0984*%
%ADD30C,0.0787*%
%ADD31R,0.0554X0.0554*%
%ADD32C,0.0554*%
%ADD33C,0.0945*%
%ADD34C,0.0550*%
%ADD35O,0.0709X0.0472*%
%ADD36R,0.0591X0.0591*%
%ADD37R,0.0591X0.0591*%
%ADD38C,0.0315*%
%ADD39C,0.0236*%
%ADD40C,0.0100*%
%ADD41C,0.0394*%
%ADD42C,0.0315*%
%ADD43R,0.0807X0.0591*%
%ADD44R,0.0591X0.0315*%
%ADD45O,0.1181X0.0315*%
%ADD46O,0.1378X0.0315*%
%ADD47R,0.0591X0.0118*%
%ADD48R,0.0118X0.0591*%
%ADD49R,0.0650X0.1575*%
%ADD50R,0.0394X0.0551*%
%ADD51R,0.0335X0.0394*%
%ADD52R,0.0335X0.0394*%
%ADD53R,0.0276X0.0177*%
%ADD54R,0.0748X0.0984*%
%ADD55R,0.0394X0.0079*%
%ADD56R,0.0079X0.0394*%
%ADD57R,0.0709X0.0630*%
%ADD58R,0.0417X0.0236*%
%ADD59R,0.2008X0.0748*%
%ADD60R,0.0177X0.0591*%
%ADD61O,0.0650X0.0217*%
%ADD62O,0.0217X0.0650*%
%ADD63R,0.0177X0.0276*%
%ADD64R,0.0551X0.0394*%
G36*
X-151Y151D02*
X-39219D01*
Y48175D01*
X-151D01*
Y151D01*
D02*
G37*
%LPC*%
G36*
X-2126Y16452D02*
X-2520D01*
X-2565Y16433D01*
X-2584Y16388D01*
Y16073D01*
X-2565Y16027D01*
X-2520Y16009D01*
X-2471D01*
Y15699D01*
X-2489Y15691D01*
X-2563Y15634D01*
X-2620Y15560D01*
X-2655Y15474D01*
X-2667Y15382D01*
X-2655Y15289D01*
X-2620Y15203D01*
X-2563Y15129D01*
X-2489Y15072D01*
X-2403Y15036D01*
X-2310Y15024D01*
X-2218Y15036D01*
X-2131Y15072D01*
X-2057Y15129D01*
X-2001Y15203D01*
X-1965Y15289D01*
X-1953Y15382D01*
X-1965Y15474D01*
X-2001Y15560D01*
X-2057Y15634D01*
X-2131Y15691D01*
X-2150Y15699D01*
Y16009D01*
X-2126D01*
X-2081Y16027D01*
X-2062Y16073D01*
Y16388D01*
X-2081Y16433D01*
X-2126Y16452D01*
D02*
G37*
G36*
X-7200Y15462D02*
X-7269Y15449D01*
X-7328Y15409D01*
X-7367Y15351D01*
X-7381Y15282D01*
X-7367Y15213D01*
X-7361Y15203D01*
Y14292D01*
X-7371Y14242D01*
X-7357Y14173D01*
X-7318Y14114D01*
X-7259Y14075D01*
X-7190Y14061D01*
X-7121Y14075D01*
X-7062Y14114D01*
X-7023Y14173D01*
X-7009Y14242D01*
X-7023Y14311D01*
X-7040Y14335D01*
Y15203D01*
X-7033Y15213D01*
X-7019Y15282D01*
X-7033Y15351D01*
X-7072Y15409D01*
X-7131Y15449D01*
X-7200Y15462D01*
D02*
G37*
G36*
X-35295Y16189D02*
X-35865D01*
X-35943Y16179D01*
X-36007Y16152D01*
X-36023D01*
X-36068Y16134D01*
X-36087Y16089D01*
Y16088D01*
X-36123Y16041D01*
X-36153Y15969D01*
X-36163Y15892D01*
X-36153Y15815D01*
X-36123Y15743D01*
X-36087Y15695D01*
Y15695D01*
X-36068Y15650D01*
X-36023Y15631D01*
X-36007D01*
X-35943Y15604D01*
X-35865Y15594D01*
X-35415D01*
X-35369Y15558D01*
X-35297Y15529D01*
X-35220Y15518D01*
X-34795D01*
X-34718Y15529D01*
X-34647Y15558D01*
X-34585Y15606D01*
X-34538Y15667D01*
X-34508Y15739D01*
X-34498Y15816D01*
X-34508Y15893D01*
X-34538Y15965D01*
X-34585Y16027D01*
X-34647Y16074D01*
X-34718Y16104D01*
X-34795Y16114D01*
X-35100D01*
X-35147Y16150D01*
X-35218Y16179D01*
X-35295Y16189D01*
D02*
G37*
G36*
X-5720Y16248D02*
X-5789Y16234D01*
X-5848Y16195D01*
X-5887Y16136D01*
X-5901Y16067D01*
X-5887Y15998D01*
X-5848Y15939D01*
X-5789Y15900D01*
X-5720Y15886D01*
X-5651Y15900D01*
X-5592Y15939D01*
X-5553Y15998D01*
X-5539Y16067D01*
X-5553Y16136D01*
X-5592Y16195D01*
X-5651Y16234D01*
X-5720Y16248D01*
D02*
G37*
G36*
X-36535Y16548D02*
X-36619Y16531D01*
X-36691Y16483D01*
X-36739Y16411D01*
X-36755Y16327D01*
X-36739Y16243D01*
X-36709Y16197D01*
X-36722Y16140D01*
X-36737Y16134D01*
X-36756Y16089D01*
Y15695D01*
X-36737Y15650D01*
X-36692Y15631D01*
X-36377D01*
X-36332Y15650D01*
X-36313Y15695D01*
Y16089D01*
X-36332Y16134D01*
X-36347Y16140D01*
X-36361Y16197D01*
X-36331Y16243D01*
X-36314Y16327D01*
X-36331Y16411D01*
X-36379Y16483D01*
X-36450Y16531D01*
X-36535Y16548D01*
D02*
G37*
G36*
X-28815Y13097D02*
X-28900Y13080D01*
X-28972Y13032D01*
X-29019Y12961D01*
X-29036Y12876D01*
X-29019Y12792D01*
X-28983Y12737D01*
X-28994Y12684D01*
X-29018Y12674D01*
X-29037Y12629D01*
Y12235D01*
X-29018Y12190D01*
X-28973Y12171D01*
X-28658D01*
X-28613Y12190D01*
X-28594Y12235D01*
Y12629D01*
X-28613Y12674D01*
X-28637Y12684D01*
X-28648Y12737D01*
X-28611Y12792D01*
X-28595Y12876D01*
X-28611Y12961D01*
X-28659Y13032D01*
X-28731Y13080D01*
X-28815Y13097D01*
D02*
G37*
G36*
X-33685Y15587D02*
X-33762Y15577D01*
X-33827Y15550D01*
X-33843D01*
X-33888Y15531D01*
X-33906Y15486D01*
Y15485D01*
X-33934Y15449D01*
X-35865D01*
X-35943Y15439D01*
X-36007Y15412D01*
X-36023D01*
X-36068Y15394D01*
X-36087Y15349D01*
Y15348D01*
X-36123Y15301D01*
X-36153Y15229D01*
X-36163Y15152D01*
X-36153Y15075D01*
X-36123Y15003D01*
X-36087Y14955D01*
Y14955D01*
X-36068Y14910D01*
X-36023Y14891D01*
X-36007D01*
X-35943Y14864D01*
X-35865Y14854D01*
X-33983D01*
Y14689D01*
Y13977D01*
X-33973Y13900D01*
X-33943Y13828D01*
X-33896Y13766D01*
X-33373Y13244D01*
X-33312Y13196D01*
X-33240Y13167D01*
X-33163Y13157D01*
X-33163Y13157D01*
X-33090D01*
X-33070Y13154D01*
X-33050Y13157D01*
X-32450D01*
X-32373Y13167D01*
X-32301Y13196D01*
X-32254Y13233D01*
X-32254D01*
X-32208Y13252D01*
X-32190Y13297D01*
Y13312D01*
X-32163Y13377D01*
X-32161Y13389D01*
X-32111Y13386D01*
Y13297D01*
X-32092Y13252D01*
X-32047Y13233D01*
X-32027D01*
Y13222D01*
X-32014Y13154D01*
X-31975Y13097D01*
X-31852Y12974D01*
Y12052D01*
X-31993D01*
X-32038Y12034D01*
X-32057Y11989D01*
Y11595D01*
X-32038Y11550D01*
X-31993Y11531D01*
X-31852D01*
Y11045D01*
X-32047D01*
X-32092Y11026D01*
X-32111Y10981D01*
Y10666D01*
X-32092Y10621D01*
X-32047Y10602D01*
X-31779D01*
X-31743Y10578D01*
X-31675Y10565D01*
X-31608Y10578D01*
X-31550Y10617D01*
X-31493Y10578D01*
X-31425Y10565D01*
X-31358Y10578D01*
X-31322Y10602D01*
X-31054D01*
X-31008Y10621D01*
X-30990Y10666D01*
Y10981D01*
X-31008Y11026D01*
X-31054Y11045D01*
X-31249D01*
Y11490D01*
X-31224Y11498D01*
X-31185Y11458D01*
X-31191Y11427D01*
X-31174Y11343D01*
X-31126Y11271D01*
X-31055Y11223D01*
X-30970Y11206D01*
X-30935Y11213D01*
X-30899Y11169D01*
Y10988D01*
X-30901Y10981D01*
Y10666D01*
X-30882Y10621D01*
X-30837Y10602D01*
X-30772D01*
X-30769Y10600D01*
X-30707Y10574D01*
X-30640Y10566D01*
X-30574Y10574D01*
X-30511Y10600D01*
X-30509Y10602D01*
X-30444D01*
X-30398Y10621D01*
X-30380Y10666D01*
Y10981D01*
X-30382Y10988D01*
Y11181D01*
X-30391Y11248D01*
X-30417Y11310D01*
X-30458Y11364D01*
X-30511Y11405D01*
X-30574Y11431D01*
X-30640Y11439D01*
X-30663Y11437D01*
X-30686Y11484D01*
X-30639Y11531D01*
X-30448D01*
X-30403Y11550D01*
X-30384Y11595D01*
Y11989D01*
X-30403Y12034D01*
X-30448Y12052D01*
X-30763D01*
X-30808Y12034D01*
X-30827Y11989D01*
Y11797D01*
X-30978Y11646D01*
X-31015Y11639D01*
X-31053Y11671D01*
Y11989D01*
X-31072Y12034D01*
X-31117Y12052D01*
X-31249D01*
Y12706D01*
X-31199Y12720D01*
X-31135Y12678D01*
X-31050Y12661D01*
X-30966Y12678D01*
X-30934Y12699D01*
X-30928Y12702D01*
X-30896Y12664D01*
X-30901Y12652D01*
X-30911Y12629D01*
Y12235D01*
X-30892Y12190D01*
X-30847Y12171D01*
X-30532D01*
X-30487Y12190D01*
X-30468Y12235D01*
Y12629D01*
X-30470Y12632D01*
Y12722D01*
X-30426Y12787D01*
X-30409Y12872D01*
X-30426Y12956D01*
X-30474Y13028D01*
X-30546Y13076D01*
X-30598Y13086D01*
X-30614Y13140D01*
X-30537Y13218D01*
X-30537Y13218D01*
X-30527Y13233D01*
X-30454D01*
X-30408Y13252D01*
X-30390Y13297D01*
Y13612D01*
X-30408Y13657D01*
X-30454Y13676D01*
X-30847D01*
X-30892Y13657D01*
X-30911Y13612D01*
Y13298D01*
X-30952Y13257D01*
X-30995Y13285D01*
X-30990Y13297D01*
Y13612D01*
X-31008Y13657D01*
X-31054Y13676D01*
X-31447D01*
X-31492Y13657D01*
X-31511Y13612D01*
Y13297D01*
X-31492Y13252D01*
X-31489Y13233D01*
X-31550Y13172D01*
X-31612Y13233D01*
X-31608Y13252D01*
X-31590Y13297D01*
Y13612D01*
X-31608Y13657D01*
X-31654Y13676D01*
X-32047D01*
X-32092Y13657D01*
X-32111Y13612D01*
Y13523D01*
X-32161Y13520D01*
X-32163Y13531D01*
X-32190Y13596D01*
Y13612D01*
X-32208Y13657D01*
X-32254Y13676D01*
X-32254D01*
X-32301Y13712D01*
X-32373Y13742D01*
X-32450Y13752D01*
X-33039D01*
X-33387Y14100D01*
Y14689D01*
Y15289D01*
X-33397Y15366D01*
X-33427Y15438D01*
X-33464Y15485D01*
Y15486D01*
X-33482Y15531D01*
X-33528Y15550D01*
X-33543D01*
X-33608Y15577D01*
X-33685Y15587D01*
D02*
G37*
G36*
X-3347Y18072D02*
X-3741D01*
X-3786Y18053D01*
X-3805Y18008D01*
Y17693D01*
X-3786Y17648D01*
X-3741Y17629D01*
X-3705D01*
Y17045D01*
X-3747Y17027D01*
X-3765Y16982D01*
Y16588D01*
X-3747Y16544D01*
Y12452D01*
X-3797Y12431D01*
X-3836Y12457D01*
X-3902Y12470D01*
X-3967Y12457D01*
X-4006Y12431D01*
X-4056Y12452D01*
Y12758D01*
X-4056Y12758D01*
X-4068Y12820D01*
X-4103Y12872D01*
X-4103Y12872D01*
X-4484Y13252D01*
Y17250D01*
X-4369D01*
X-4323Y17269D01*
X-4305Y17314D01*
Y17708D01*
X-4323Y17753D01*
X-4369Y17772D01*
X-4920D01*
X-4965Y17753D01*
X-4984Y17708D01*
Y17314D01*
X-4965Y17269D01*
X-4920Y17250D01*
X-4805D01*
Y16784D01*
X-4855Y16763D01*
X-5329Y17238D01*
X-5323Y17269D01*
X-5305Y17314D01*
Y17708D01*
X-5323Y17753D01*
X-5368Y17772D01*
X-5920D01*
X-5965Y17753D01*
X-5984Y17708D01*
Y17314D01*
X-5965Y17269D01*
X-5920Y17250D01*
X-5783D01*
X-5758Y17212D01*
X-5091Y16545D01*
Y13142D01*
X-5091Y13142D01*
X-5078Y13080D01*
X-5044Y13028D01*
X-4692Y12677D01*
Y12452D01*
X-4742Y12431D01*
X-4781Y12457D01*
X-4846Y12470D01*
X-4912Y12457D01*
X-4967Y12420D01*
X-5004Y12364D01*
X-5005Y12362D01*
X-6254D01*
Y12399D01*
X-6273Y12444D01*
X-6318Y12462D01*
X-6633D01*
X-6678Y12444D01*
X-6697Y12399D01*
Y12005D01*
X-6678Y11960D01*
X-6633Y11941D01*
X-6318D01*
X-6273Y11960D01*
X-6254Y12005D01*
Y12041D01*
X-5032D01*
X-5017Y12026D01*
Y11866D01*
X-5004Y11801D01*
X-4967Y11746D01*
X-4912Y11709D01*
X-4846Y11696D01*
X-4781Y11709D01*
X-4726Y11746D01*
X-4714Y11763D01*
X-4664D01*
X-4652Y11746D01*
X-4597Y11709D01*
X-4531Y11696D01*
X-4466Y11709D01*
X-4411Y11746D01*
X-4399Y11763D01*
X-4349D01*
X-4337Y11746D01*
X-4282Y11709D01*
X-4217Y11696D01*
X-4151Y11709D01*
X-4096Y11746D01*
X-4084Y11763D01*
X-4034D01*
X-4022Y11746D01*
X-3967Y11709D01*
X-3902Y11696D01*
X-3836Y11709D01*
X-3781Y11746D01*
X-3769Y11763D01*
X-3719D01*
X-3707Y11746D01*
X-3652Y11709D01*
X-3587Y11696D01*
X-3521Y11709D01*
X-3466Y11746D01*
X-3454Y11763D01*
X-3404D01*
X-3392Y11746D01*
X-3337Y11709D01*
X-3272Y11696D01*
X-3206Y11709D01*
X-3151Y11746D01*
X-3139Y11763D01*
X-3089D01*
X-3077Y11746D01*
X-3022Y11709D01*
X-2957Y11696D01*
X-2891Y11709D01*
X-2836Y11746D01*
X-2824Y11763D01*
X-2774D01*
X-2762Y11746D01*
X-2707Y11709D01*
X-2642Y11696D01*
X-2576Y11709D01*
X-2521Y11746D01*
X-2484Y11801D01*
X-2471Y11866D01*
Y12299D01*
X-2481Y12350D01*
Y12640D01*
X-2481Y12640D01*
X-2493Y12701D01*
X-2528Y12754D01*
X-2528Y12754D01*
X-2713Y12938D01*
Y14062D01*
X-2626Y14149D01*
X-2576Y14146D01*
X-2563Y14129D01*
X-2489Y14072D01*
X-2403Y14036D01*
X-2310Y14024D01*
X-2218Y14036D01*
X-2131Y14072D01*
X-2057Y14129D01*
X-2001Y14203D01*
X-1951Y14193D01*
Y11898D01*
X-2147Y11702D01*
X-2307D01*
X-2372Y11689D01*
X-2428Y11652D01*
X-2465Y11597D01*
X-2478Y11531D01*
X-2465Y11466D01*
X-2428Y11411D01*
X-2410Y11399D01*
Y11349D01*
X-2428Y11337D01*
X-2465Y11282D01*
X-2478Y11217D01*
X-2465Y11151D01*
X-2428Y11096D01*
X-2410Y11084D01*
Y11034D01*
X-2428Y11022D01*
X-2465Y10967D01*
X-2478Y10902D01*
X-2465Y10836D01*
X-2428Y10781D01*
X-2410Y10769D01*
Y10719D01*
X-2428Y10707D01*
X-2465Y10652D01*
X-2478Y10587D01*
X-2465Y10521D01*
X-2428Y10466D01*
X-2410Y10454D01*
Y10404D01*
X-2428Y10392D01*
X-2465Y10337D01*
X-2478Y10272D01*
X-2465Y10206D01*
X-2428Y10151D01*
X-2410Y10139D01*
Y10089D01*
X-2428Y10077D01*
X-2465Y10022D01*
X-2478Y9957D01*
X-2465Y9891D01*
X-2428Y9836D01*
X-2410Y9824D01*
Y9774D01*
X-2428Y9762D01*
X-2465Y9707D01*
X-2478Y9642D01*
X-2465Y9576D01*
X-2428Y9521D01*
X-2410Y9509D01*
Y9459D01*
X-2428Y9447D01*
X-2465Y9392D01*
X-2478Y9327D01*
X-2465Y9261D01*
X-2428Y9206D01*
X-2372Y9169D01*
X-2307Y9156D01*
X-1874D01*
X-1824Y9166D01*
X-1651D01*
X-1243Y8758D01*
X-1243Y8758D01*
X-1191Y8723D01*
X-1130Y8711D01*
X-1001D01*
Y8598D01*
X-1197Y8402D01*
X-1306D01*
X-1306Y8402D01*
X-1368Y8390D01*
X-1420Y8355D01*
X-1751Y8023D01*
X-1957D01*
X-1974Y8066D01*
X-2019Y8084D01*
X-2413D01*
X-2458Y8066D01*
X-2477Y8020D01*
Y7705D01*
X-2458Y7660D01*
X-2413Y7642D01*
X-2019D01*
X-1974Y7660D01*
X-1957Y7702D01*
X-1769D01*
Y7656D01*
X-1750Y7611D01*
X-1705Y7592D01*
X-1527D01*
X-1482Y7611D01*
X-1464Y7656D01*
Y7857D01*
X-1240Y8081D01*
X-1130D01*
X-1130Y8081D01*
X-1069Y8093D01*
X-1017Y8128D01*
X-727Y8418D01*
X-692Y8470D01*
X-680Y8532D01*
X-680Y8532D01*
Y8872D01*
Y12912D01*
X-692Y12973D01*
X-727Y13025D01*
X-727Y13025D01*
X-972Y13271D01*
X-965Y13289D01*
X-953Y13382D01*
X-965Y13474D01*
X-1001Y13560D01*
X-1057Y13634D01*
X-1131Y13691D01*
X-1218Y13727D01*
X-1310Y13739D01*
X-1403Y13727D01*
X-1489Y13691D01*
X-1563Y13634D01*
X-1580Y13613D01*
X-1630Y13630D01*
Y14134D01*
X-1580Y14151D01*
X-1563Y14129D01*
X-1489Y14072D01*
X-1403Y14036D01*
X-1310Y14024D01*
X-1218Y14036D01*
X-1131Y14072D01*
X-1057Y14129D01*
X-1001Y14203D01*
X-965Y14289D01*
X-953Y14382D01*
X-965Y14474D01*
X-1001Y14560D01*
X-1057Y14634D01*
X-1131Y14691D01*
X-1218Y14727D01*
X-1310Y14739D01*
X-1403Y14727D01*
X-1489Y14691D01*
X-1563Y14634D01*
X-1580Y14613D01*
X-1630Y14630D01*
Y14835D01*
X-1442Y15022D01*
X-1015D01*
X-970Y15041D01*
X-951Y15086D01*
Y15677D01*
X-970Y15722D01*
X-1015Y15741D01*
X-1605D01*
X-1651Y15722D01*
X-1669Y15677D01*
Y15250D01*
X-1904Y15015D01*
X-1938Y14963D01*
X-1951Y14902D01*
X-1951Y14902D01*
Y14570D01*
X-2001Y14560D01*
X-2057Y14634D01*
X-2131Y14691D01*
X-2218Y14727D01*
X-2310Y14739D01*
X-2403Y14727D01*
X-2489Y14691D01*
X-2563Y14634D01*
X-2620Y14560D01*
X-2628Y14541D01*
X-2682Y14530D01*
X-2734Y14495D01*
X-2734Y14495D01*
X-2987Y14242D01*
X-3022Y14190D01*
X-3034Y14128D01*
X-3034Y14128D01*
Y13177D01*
X-3078Y13154D01*
X-3096Y13166D01*
X-3180Y13182D01*
X-3265Y13166D01*
X-3336Y13118D01*
X-3376Y13058D01*
X-3426Y13072D01*
Y16524D01*
X-3387D01*
X-3341Y16543D01*
X-3323Y16588D01*
Y16982D01*
X-3341Y17027D01*
X-3384Y17045D01*
Y17629D01*
X-3347D01*
X-3302Y17648D01*
X-3283Y17693D01*
Y18008D01*
X-3302Y18053D01*
X-3347Y18072D01*
D02*
G37*
G36*
X-8140Y16072D02*
X-8209Y16059D01*
X-8268Y16019D01*
X-8307Y15961D01*
X-8321Y15892D01*
X-8307Y15823D01*
X-8301Y15813D01*
Y14172D01*
X-8301Y14172D01*
X-8288Y14110D01*
X-8254Y14058D01*
X-6972Y12776D01*
X-6920Y12742D01*
X-6858Y12729D01*
X-6858Y12729D01*
X-6510D01*
X-6501Y12723D01*
X-6432Y12709D01*
X-6363Y12723D01*
X-6304Y12762D01*
X-6265Y12821D01*
X-6251Y12890D01*
X-6265Y12959D01*
X-6304Y13018D01*
X-6363Y13057D01*
X-6432Y13070D01*
X-6501Y13057D01*
X-6510Y13050D01*
X-6792D01*
X-7171Y13429D01*
X-7146Y13476D01*
X-7121Y13470D01*
X-7052Y13484D01*
X-6993Y13523D01*
X-6954Y13582D01*
X-6940Y13651D01*
X-6954Y13720D01*
X-6993Y13779D01*
X-7052Y13818D01*
X-7121Y13832D01*
X-7190Y13818D01*
X-7248Y13779D01*
X-7288Y13720D01*
X-7301Y13651D01*
X-7296Y13626D01*
X-7342Y13601D01*
X-7980Y14238D01*
Y15813D01*
X-7973Y15823D01*
X-7959Y15892D01*
X-7973Y15961D01*
X-8012Y16019D01*
X-8071Y16059D01*
X-8140Y16072D01*
D02*
G37*
G36*
X-29254Y13676D02*
X-29647D01*
X-29692Y13657D01*
X-29711Y13612D01*
Y13297D01*
X-29692Y13252D01*
X-29689Y13233D01*
X-29750Y13172D01*
X-29812Y13233D01*
X-29808Y13252D01*
X-29790Y13297D01*
Y13612D01*
X-29808Y13657D01*
X-29854Y13676D01*
X-30247D01*
X-30292Y13657D01*
X-30311Y13612D01*
Y13297D01*
X-30292Y13252D01*
X-30247Y13233D01*
X-30227D01*
Y13222D01*
X-30214Y13154D01*
X-30175Y13097D01*
X-30052Y12974D01*
Y12692D01*
X-30178D01*
X-30223Y12674D01*
X-30241Y12629D01*
Y12235D01*
X-30223Y12190D01*
X-30178Y12171D01*
X-30052D01*
Y11443D01*
X-30049Y11429D01*
X-30089Y11374D01*
X-30107Y11371D01*
X-30169Y11345D01*
X-30223Y11304D01*
X-30264Y11251D01*
X-30290Y11189D01*
X-30299Y11122D01*
Y10988D01*
X-30301Y10981D01*
Y10666D01*
X-30282Y10621D01*
X-30237Y10602D01*
X-30172D01*
X-30169Y10600D01*
X-30107Y10574D01*
X-30040Y10566D01*
X-29974Y10574D01*
X-29911Y10600D01*
X-29909Y10602D01*
X-29844D01*
X-29798Y10621D01*
X-29787Y10649D01*
X-29737Y10639D01*
Y10339D01*
X-29787Y10329D01*
X-29798Y10357D01*
X-29844Y10376D01*
X-30237D01*
X-30282Y10357D01*
X-30300Y10315D01*
X-30381D01*
X-30398Y10357D01*
X-30444Y10376D01*
X-30837D01*
X-30882Y10357D01*
X-30901Y10312D01*
Y9997D01*
X-30882Y9952D01*
X-30837Y9933D01*
X-30801D01*
Y8727D01*
X-31377Y8151D01*
X-31386Y8154D01*
X-31474Y8166D01*
X-31561Y8154D01*
X-31643Y8120D01*
X-31713Y8067D01*
X-31723Y8054D01*
X-31773Y8071D01*
Y8301D01*
X-31723Y8328D01*
X-31689Y8305D01*
X-31620Y8291D01*
X-31551Y8305D01*
X-31492Y8344D01*
X-31453Y8403D01*
X-31441Y8462D01*
X-31300Y8603D01*
X-31300Y8603D01*
X-31262Y8660D01*
X-31249Y8728D01*
X-31249Y8728D01*
Y9674D01*
X-31125Y9797D01*
X-31125Y9797D01*
X-31087Y9854D01*
X-31074Y9922D01*
Y9933D01*
X-31054D01*
X-31008Y9952D01*
X-30990Y9997D01*
Y10312D01*
X-31008Y10357D01*
X-31054Y10376D01*
X-31447D01*
X-31492Y10357D01*
X-31511Y10312D01*
Y9997D01*
X-31492Y9952D01*
X-31489Y9933D01*
X-31550Y9872D01*
X-31612Y9933D01*
X-31608Y9952D01*
X-31590Y9997D01*
Y10312D01*
X-31608Y10357D01*
X-31654Y10376D01*
X-32047D01*
X-32092Y10357D01*
X-32111Y10312D01*
Y9997D01*
X-32092Y9952D01*
X-32047Y9933D01*
X-32027D01*
Y9922D01*
X-32014Y9854D01*
X-31975Y9797D01*
X-31852Y9674D01*
Y8905D01*
X-32075Y8682D01*
X-32113Y8625D01*
X-32127Y8557D01*
Y7999D01*
X-32177Y7989D01*
X-32180Y7996D01*
X-32234Y8067D01*
X-32304Y8120D01*
X-32386Y8154D01*
X-32474Y8166D01*
X-32561Y8154D01*
X-32643Y8120D01*
X-32713Y8067D01*
X-32760Y8006D01*
X-32803Y8016D01*
X-32810Y8019D01*
Y9155D01*
X-32402Y9562D01*
X-32367Y9615D01*
X-32355Y9676D01*
X-32355Y9676D01*
Y10429D01*
X-32313Y10447D01*
X-32294Y10492D01*
Y10886D01*
X-32313Y10931D01*
X-32344Y10944D01*
Y11230D01*
X-32344Y11230D01*
X-32296Y11302D01*
X-32279Y11386D01*
X-32296Y11471D01*
X-32317Y11502D01*
X-32302Y11550D01*
X-32302Y11550D01*
X-32283Y11595D01*
Y11989D01*
X-32302Y12034D01*
X-32347Y12052D01*
X-32662D01*
X-32707Y12034D01*
X-32726Y11989D01*
Y11595D01*
X-32707Y11550D01*
X-32692Y11489D01*
X-32704Y11471D01*
X-32721Y11386D01*
X-32704Y11302D01*
X-32665Y11244D01*
Y10950D01*
X-32673D01*
X-32718Y10931D01*
X-32737Y10886D01*
Y10492D01*
X-32718Y10447D01*
X-32676Y10429D01*
Y9742D01*
X-33084Y9335D01*
X-33118Y9283D01*
X-33131Y9222D01*
X-33131Y9222D01*
Y8008D01*
X-33178Y7997D01*
X-33181Y7997D01*
X-33234Y8067D01*
X-33304Y8120D01*
X-33376Y8150D01*
X-33400Y8174D01*
X-33461Y8221D01*
X-33533Y8251D01*
X-33587Y8258D01*
X-33722Y8393D01*
Y9212D01*
X-33666D01*
X-33621Y9230D01*
X-33602Y9276D01*
Y9905D01*
X-33621Y9951D01*
X-33666Y9969D01*
X-34374D01*
X-34420Y9951D01*
X-34438Y9905D01*
Y9276D01*
X-34420Y9230D01*
X-34374Y9212D01*
X-34318D01*
Y8270D01*
X-34308Y8193D01*
X-34278Y8121D01*
X-34231Y8059D01*
X-33924Y7753D01*
X-33862Y7705D01*
X-33790Y7676D01*
X-33774Y7674D01*
X-33767Y7657D01*
X-33713Y7587D01*
X-33643Y7533D01*
X-33561Y7499D01*
X-33474Y7488D01*
X-33386Y7499D01*
X-33304Y7533D01*
X-33234Y7587D01*
X-33181Y7656D01*
X-33178Y7657D01*
X-33131Y7646D01*
Y7642D01*
X-33131Y7642D01*
X-33118Y7580D01*
X-33084Y7528D01*
X-32390Y6834D01*
X-32377Y6826D01*
X-32369Y6813D01*
X-32317Y6778D01*
X-32306Y6776D01*
X-32301Y6739D01*
X-32267Y6657D01*
X-32213Y6587D01*
X-32143Y6533D01*
X-32061Y6499D01*
X-31974Y6488D01*
X-31886Y6499D01*
X-31804Y6533D01*
X-31734Y6587D01*
X-31680Y6657D01*
X-31646Y6739D01*
X-31635Y6827D01*
X-31646Y6915D01*
X-31680Y6996D01*
X-31734Y7067D01*
X-31804Y7120D01*
X-31886Y7154D01*
X-31974Y7166D01*
X-32061Y7154D01*
X-32143Y7120D01*
X-32186Y7087D01*
X-32189D01*
X-32548Y7447D01*
X-32525Y7494D01*
X-32474Y7488D01*
X-32386Y7499D01*
X-32304Y7533D01*
X-32234Y7587D01*
X-32180Y7657D01*
X-32177Y7665D01*
X-32127Y7655D01*
Y7632D01*
X-32113Y7564D01*
X-32075Y7507D01*
X-31290Y6722D01*
X-31263Y6657D01*
X-31209Y6587D01*
X-31139Y6533D01*
X-31057Y6499D01*
X-30970Y6488D01*
X-30882Y6499D01*
X-30800Y6533D01*
X-30730Y6587D01*
X-30676Y6657D01*
X-30642Y6739D01*
X-30631Y6827D01*
X-30642Y6915D01*
X-30676Y6996D01*
X-30730Y7067D01*
X-30800Y7120D01*
X-30882Y7154D01*
X-30970Y7166D01*
X-31057Y7154D01*
X-31139Y7120D01*
X-31167Y7099D01*
X-31168Y7099D01*
X-31510Y7442D01*
X-31487Y7489D01*
X-31474Y7488D01*
X-31386Y7499D01*
X-31304Y7533D01*
X-31234Y7587D01*
X-31180Y7657D01*
X-31146Y7739D01*
X-31135Y7827D01*
X-31146Y7915D01*
X-31150Y7924D01*
X-30527Y8546D01*
X-30527Y8546D01*
X-30492Y8599D01*
X-30480Y8660D01*
X-30480Y8660D01*
Y9933D01*
X-30444D01*
X-30398Y9952D01*
X-30381Y9994D01*
X-30300D01*
X-30282Y9952D01*
X-30237Y9933D01*
X-29844D01*
X-29798Y9952D01*
X-29787Y9979D01*
X-29737Y9969D01*
Y8545D01*
X-30144Y8138D01*
X-30180Y8084D01*
X-30187Y8077D01*
X-30235Y8071D01*
X-30300Y8120D01*
X-30382Y8154D01*
X-30470Y8166D01*
X-30557Y8154D01*
X-30639Y8120D01*
X-30709Y8067D01*
X-30763Y7996D01*
X-30797Y7915D01*
X-30809Y7827D01*
X-30797Y7739D01*
X-30763Y7657D01*
X-30709Y7587D01*
X-30639Y7533D01*
X-30557Y7499D01*
X-30470Y7488D01*
X-30382Y7499D01*
X-30300Y7533D01*
X-30230Y7587D01*
X-30218Y7603D01*
X-30156Y7601D01*
X-30147Y7586D01*
Y7168D01*
X-30247D01*
X-30292Y7149D01*
X-30311Y7104D01*
Y6550D01*
X-30292Y6504D01*
X-30247Y6486D01*
X-29693D01*
X-29647Y6504D01*
X-29629Y6550D01*
Y7104D01*
X-29647Y7149D01*
X-29693Y7168D01*
X-29793D01*
Y7641D01*
X-29790Y7646D01*
X-29760Y7672D01*
X-29746Y7678D01*
X-29700Y7669D01*
X-29631Y7683D01*
X-29572Y7722D01*
X-29533Y7781D01*
X-29530Y7799D01*
X-29185Y8143D01*
X-29147Y8200D01*
X-29133Y8268D01*
Y11232D01*
X-29147Y11299D01*
X-29185Y11357D01*
X-29449Y11620D01*
Y12171D01*
X-29327D01*
X-29282Y12190D01*
X-29263Y12235D01*
Y12629D01*
X-29282Y12674D01*
X-29327Y12692D01*
X-29449D01*
Y12974D01*
X-29325Y13097D01*
X-29325Y13097D01*
X-29287Y13154D01*
X-29274Y13222D01*
Y13233D01*
X-29254D01*
X-29208Y13252D01*
X-29190Y13297D01*
Y13612D01*
X-29208Y13657D01*
X-29254Y13676D01*
D02*
G37*
G36*
X-33958Y21250D02*
X-34273D01*
X-34318Y21231D01*
X-34337Y21186D01*
Y20792D01*
X-34318Y20747D01*
X-34314Y20734D01*
X-34320Y20726D01*
X-34337Y20642D01*
X-34320Y20557D01*
X-34313Y20548D01*
X-34318Y20531D01*
X-34337Y20486D01*
Y20092D01*
X-34318Y20047D01*
X-34273Y20028D01*
X-33958D01*
X-33913Y20047D01*
X-33894Y20092D01*
Y20128D01*
X-32354D01*
X-32236Y20011D01*
X-32258Y19962D01*
X-35360D01*
X-35360Y19962D01*
X-35422Y19950D01*
X-35474Y19915D01*
X-35474Y19915D01*
X-37954Y17435D01*
X-37988Y17383D01*
X-38001Y17322D01*
X-38001Y17322D01*
Y5512D01*
X-38001Y5512D01*
X-37988Y5450D01*
X-37954Y5398D01*
X-36672Y4117D01*
X-36674Y4109D01*
X-36692Y4064D01*
Y3749D01*
X-36674Y3704D01*
X-36628Y3685D01*
X-36235D01*
X-36189Y3704D01*
X-36171Y3749D01*
Y4064D01*
X-36189Y4109D01*
X-36235Y4128D01*
X-36276D01*
X-36283Y4165D01*
X-36318Y4217D01*
X-36318Y4217D01*
X-37680Y5578D01*
Y13189D01*
X-37633Y13208D01*
X-37601Y13175D01*
Y5682D01*
X-37601Y5682D01*
X-37588Y5620D01*
X-37554Y5568D01*
X-36020Y4034D01*
Y3749D01*
X-36001Y3704D01*
X-35956Y3685D01*
X-35562D01*
X-35517Y3704D01*
X-35498Y3749D01*
Y4064D01*
X-35517Y4109D01*
X-35562Y4128D01*
X-35659D01*
X-37280Y5748D01*
Y13242D01*
X-37280Y13242D01*
X-37292Y13303D01*
X-37327Y13355D01*
X-37327Y13355D01*
X-37410Y13438D01*
Y17155D01*
X-35164Y19401D01*
X-33337D01*
X-33084Y19149D01*
X-33084Y19149D01*
X-33032Y19114D01*
X-32971Y19102D01*
X-32971Y19102D01*
X-32436D01*
Y19065D01*
X-32418Y19020D01*
X-32372Y19001D01*
X-32294D01*
X-32248Y19020D01*
X-32221Y19020D01*
X-32176Y19001D01*
X-32097D01*
X-32052Y19020D01*
X-32024Y19020D01*
X-31979Y19001D01*
X-31900D01*
X-31855Y19020D01*
X-31827Y19020D01*
X-31782Y19001D01*
X-31703D01*
X-31658Y19020D01*
X-31639Y19065D01*
Y19142D01*
X-31629Y19149D01*
X-31594Y19201D01*
X-31582Y19262D01*
Y19744D01*
X-31582Y19744D01*
X-31594Y19806D01*
X-31629Y19858D01*
X-32174Y20403D01*
X-32226Y20437D01*
X-32287Y20450D01*
X-32287Y20450D01*
X-33894D01*
Y20486D01*
X-33913Y20531D01*
X-33918Y20548D01*
X-33912Y20557D01*
X-33895Y20642D01*
X-33912Y20726D01*
X-33917Y20734D01*
X-33913Y20747D01*
X-33894Y20792D01*
Y21186D01*
X-33913Y21231D01*
X-33958Y21250D01*
D02*
G37*
G36*
X-4447Y19941D02*
X-4841D01*
X-4886Y19922D01*
X-4904Y19880D01*
X-5001D01*
X-5066Y19924D01*
X-5150Y19940D01*
X-5235Y19924D01*
X-5300Y19880D01*
X-5385D01*
X-5402Y19922D01*
X-5447Y19941D01*
X-5841D01*
X-5886Y19922D01*
X-5905Y19877D01*
Y19562D01*
X-5886Y19517D01*
X-5841Y19498D01*
X-5447D01*
X-5402Y19517D01*
X-5385Y19559D01*
X-5300D01*
X-5235Y19516D01*
X-5150Y19499D01*
X-5066Y19516D01*
X-5001Y19559D01*
X-4904D01*
X-4886Y19517D01*
X-4841Y19498D01*
X-4447D01*
X-4402Y19517D01*
X-4383Y19562D01*
Y19877D01*
X-4402Y19922D01*
X-4447Y19941D01*
D02*
G37*
G36*
X-7240Y20982D02*
X-7325Y20966D01*
X-7396Y20918D01*
X-7444Y20846D01*
X-7461Y20762D01*
X-7444Y20677D01*
X-7396Y20606D01*
X-7325Y20558D01*
X-7248Y20542D01*
X-6974Y20268D01*
X-6974Y20268D01*
X-6922Y20233D01*
X-6860Y20221D01*
X-5640D01*
X-5575Y20178D01*
X-5490Y20161D01*
X-5406Y20178D01*
X-5334Y20226D01*
X-5286Y20297D01*
X-5269Y20382D01*
X-5286Y20466D01*
X-5334Y20538D01*
X-5406Y20586D01*
X-5490Y20602D01*
X-5575Y20586D01*
X-5640Y20542D01*
X-6794D01*
X-7021Y20770D01*
X-7036Y20846D01*
X-7084Y20918D01*
X-7156Y20966D01*
X-7240Y20982D01*
D02*
G37*
G36*
X-9160Y33912D02*
X-9245Y33896D01*
X-9316Y33848D01*
X-9364Y33776D01*
X-9381Y33692D01*
X-9364Y33607D01*
X-9321Y33542D01*
Y29942D01*
X-9321Y29942D01*
X-9308Y29880D01*
X-9274Y29828D01*
X-8291Y28845D01*
Y22871D01*
X-8334Y22806D01*
X-8351Y22722D01*
X-8334Y22637D01*
X-8286Y22566D01*
X-8215Y22518D01*
X-8130Y22501D01*
X-8046Y22518D01*
X-7974Y22566D01*
X-7926Y22637D01*
X-7909Y22722D01*
X-7926Y22806D01*
X-7970Y22871D01*
Y28912D01*
X-7970Y28912D01*
X-7982Y28973D01*
X-8017Y29025D01*
X-9000Y30008D01*
Y33542D01*
X-8956Y33607D01*
X-8939Y33692D01*
X-8956Y33776D01*
X-9004Y33848D01*
X-9076Y33896D01*
X-9160Y33912D01*
D02*
G37*
G36*
X-7180Y33782D02*
X-7265Y33766D01*
X-7336Y33718D01*
X-7384Y33646D01*
X-7399Y33570D01*
X-8234Y32735D01*
X-8268Y32683D01*
X-8281Y32622D01*
X-8281Y32622D01*
Y29882D01*
X-8281Y29882D01*
X-8268Y29820D01*
X-8234Y29768D01*
X-7831Y29365D01*
Y21968D01*
X-9004Y20795D01*
X-9038Y20743D01*
X-9051Y20682D01*
X-9051Y20682D01*
Y12052D01*
X-9051Y12052D01*
X-9038Y11990D01*
X-9004Y11938D01*
X-8484Y11418D01*
X-8432Y11383D01*
X-8370Y11371D01*
X-8370Y11371D01*
X-7366D01*
Y11335D01*
X-7347Y11290D01*
X-7302Y11271D01*
X-6987D01*
X-6942Y11290D01*
X-6923Y11335D01*
Y11729D01*
X-6942Y11774D01*
X-6987Y11792D01*
X-7302D01*
X-7347Y11774D01*
X-7366Y11729D01*
Y11692D01*
X-8304D01*
X-8730Y12118D01*
Y12189D01*
X-8683Y12208D01*
X-8564Y12088D01*
X-8512Y12053D01*
X-8450Y12041D01*
X-8450Y12041D01*
X-7366D01*
Y12005D01*
X-7347Y11960D01*
X-7302Y11941D01*
X-6987D01*
X-6942Y11960D01*
X-6923Y12005D01*
Y12399D01*
X-6942Y12444D01*
X-6987Y12462D01*
X-7302D01*
X-7347Y12444D01*
X-7366Y12399D01*
Y12362D01*
X-8384D01*
X-8510Y12488D01*
Y20075D01*
X-7294Y21290D01*
X-7249Y21265D01*
X-7234Y21187D01*
X-7186Y21116D01*
X-7115Y21068D01*
X-7038Y21052D01*
X-6904Y20918D01*
X-6904Y20918D01*
X-6852Y20883D01*
X-6790Y20871D01*
X-5600D01*
X-5535Y20828D01*
X-5450Y20811D01*
X-5366Y20828D01*
X-5294Y20876D01*
X-5246Y20947D01*
X-5229Y21032D01*
X-5246Y21116D01*
X-5294Y21188D01*
X-5366Y21236D01*
X-5450Y21252D01*
X-5535Y21236D01*
X-5600Y21192D01*
X-6724D01*
X-6811Y21280D01*
X-6826Y21356D01*
X-6874Y21428D01*
X-6946Y21476D01*
X-7023Y21491D01*
X-7049Y21536D01*
X-6857Y21728D01*
X-6822Y21780D01*
X-6810Y21842D01*
X-6810Y21842D01*
Y29232D01*
X-6822Y29293D01*
X-6857Y29345D01*
X-7630Y30118D01*
Y32235D01*
X-7262Y32602D01*
X-7186Y32618D01*
X-7114Y32666D01*
X-7066Y32737D01*
X-7049Y32822D01*
X-7066Y32906D01*
X-7114Y32978D01*
X-7186Y33026D01*
X-7270Y33042D01*
X-7355Y33026D01*
X-7426Y32978D01*
X-7474Y32906D01*
X-7489Y32830D01*
X-7904Y32415D01*
X-7910Y32406D01*
X-7960Y32422D01*
Y32555D01*
X-7172Y33342D01*
X-7096Y33358D01*
X-7024Y33406D01*
X-6976Y33477D01*
X-6959Y33562D01*
X-6976Y33646D01*
X-7024Y33718D01*
X-7096Y33766D01*
X-7180Y33782D01*
D02*
G37*
G36*
X-2323Y17495D02*
X-2407Y17478D01*
X-2479Y17430D01*
X-2527Y17359D01*
X-2544Y17274D01*
X-2527Y17190D01*
X-2514Y17171D01*
X-2515Y17159D01*
X-2536Y17114D01*
X-2565Y17102D01*
X-2584Y17057D01*
Y16742D01*
X-2565Y16697D01*
X-2520Y16678D01*
X-2126D01*
X-2081Y16697D01*
X-2062Y16742D01*
Y17057D01*
X-2081Y17102D01*
X-2109Y17114D01*
X-2130Y17159D01*
X-2131Y17171D01*
X-2119Y17190D01*
X-2102Y17274D01*
X-2119Y17359D01*
X-2167Y17430D01*
X-2238Y17478D01*
X-2323Y17495D01*
D02*
G37*
G36*
X-34728Y19350D02*
X-35043D01*
X-35088Y19331D01*
X-35106Y19286D01*
Y19221D01*
X-35109Y19218D01*
X-35134Y19156D01*
X-35143Y19089D01*
Y18489D01*
Y17889D01*
Y17289D01*
Y16947D01*
X-35263D01*
X-35330Y16938D01*
X-35392Y16913D01*
X-35445Y16871D01*
X-35486Y16818D01*
X-35512Y16756D01*
X-35521Y16689D01*
X-35512Y16622D01*
X-35486Y16560D01*
X-35445Y16506D01*
X-35392Y16465D01*
X-35330Y16440D01*
X-35263Y16431D01*
X-35049D01*
X-35043Y16428D01*
X-34728D01*
X-34682Y16447D01*
X-34664Y16492D01*
Y16557D01*
X-34662Y16560D01*
X-34636Y16622D01*
X-34627Y16689D01*
Y17289D01*
Y17889D01*
Y18489D01*
Y19089D01*
X-34636Y19156D01*
X-34662Y19218D01*
X-34664Y19221D01*
Y19286D01*
X-34682Y19331D01*
X-34728Y19350D01*
D02*
G37*
G36*
X-34058D02*
X-34373D01*
X-34418Y19331D01*
X-34437Y19286D01*
Y18892D01*
X-34418Y18847D01*
X-34373Y18828D01*
X-34183D01*
X-34155Y18794D01*
X-34173Y18750D01*
X-34373D01*
X-34418Y18731D01*
X-34437Y18686D01*
Y18292D01*
X-34418Y18247D01*
X-34373Y18228D01*
X-34102D01*
X-34084Y18194D01*
X-34114Y18150D01*
X-34373D01*
X-34418Y18131D01*
X-34437Y18086D01*
Y17692D01*
X-34418Y17647D01*
X-34373Y17628D01*
X-34058D01*
X-34013Y17647D01*
X-33994Y17692D01*
Y17724D01*
X-33184D01*
Y17648D01*
X-33166Y17603D01*
X-33166Y17575D01*
X-33184Y17530D01*
Y17451D01*
X-33185Y17450D01*
X-33685D01*
X-33699Y17470D01*
X-33771Y17518D01*
X-33855Y17535D01*
X-33940Y17518D01*
X-33951Y17511D01*
X-34012Y17529D01*
X-34013Y17531D01*
X-34058Y17550D01*
X-34373D01*
X-34418Y17531D01*
X-34437Y17486D01*
Y17092D01*
X-34418Y17047D01*
X-34373Y17028D01*
X-34185D01*
X-34165Y16982D01*
X-34190Y16950D01*
X-34373D01*
X-34418Y16931D01*
X-34437Y16886D01*
Y16492D01*
X-34418Y16447D01*
X-34373Y16428D01*
X-34058D01*
X-34013Y16447D01*
X-33994Y16492D01*
Y16683D01*
X-33943Y16735D01*
X-33940Y16733D01*
X-33855Y16716D01*
X-33771Y16733D01*
X-33760Y16739D01*
X-33184D01*
Y16664D01*
X-33166Y16619D01*
X-33166Y16591D01*
X-33184Y16546D01*
Y16467D01*
X-33166Y16422D01*
X-33120Y16403D01*
X-32727D01*
X-32682Y16422D01*
X-32663Y16467D01*
Y16543D01*
X-32532D01*
X-32532Y16543D01*
X-32470Y16555D01*
X-32418Y16590D01*
X-32377Y16631D01*
X-32377Y16631D01*
X-32342Y16683D01*
X-32330Y16745D01*
Y17162D01*
Y17662D01*
X-32342Y17723D01*
X-32377Y17775D01*
X-32377Y17775D01*
X-32402Y17801D01*
X-32454Y17836D01*
X-32516Y17848D01*
X-32516Y17848D01*
X-32663D01*
Y17924D01*
X-32682Y17969D01*
X-32682Y17997D01*
X-32663Y18042D01*
Y18120D01*
X-32682Y18166D01*
X-32682Y18193D01*
X-32663Y18239D01*
Y18317D01*
X-32672Y18340D01*
X-32679Y18376D01*
X-32672Y18413D01*
X-32663Y18435D01*
Y18514D01*
X-32682Y18559D01*
X-32682Y18587D01*
X-32663Y18632D01*
Y18711D01*
X-32682Y18756D01*
X-32727Y18775D01*
X-33120D01*
X-33166Y18756D01*
X-33184Y18711D01*
Y18632D01*
X-33166Y18587D01*
X-33166Y18559D01*
X-33184Y18514D01*
Y18439D01*
X-33338D01*
X-33994Y19095D01*
Y19286D01*
X-34013Y19331D01*
X-34058Y19350D01*
D02*
G37*
G36*
X-4447Y19272D02*
X-4841D01*
X-4886Y19253D01*
X-4905Y19208D01*
Y18893D01*
X-4886Y18848D01*
X-4841Y18829D01*
X-4805D01*
Y18520D01*
X-4920D01*
X-4965Y18501D01*
X-4984Y18456D01*
Y18062D01*
X-4965Y18017D01*
X-4920Y17998D01*
X-4369D01*
X-4323Y18017D01*
X-4305Y18062D01*
Y18456D01*
X-4323Y18501D01*
X-4369Y18520D01*
X-4484D01*
Y18829D01*
X-4447D01*
X-4402Y18848D01*
X-4383Y18893D01*
Y19208D01*
X-4402Y19253D01*
X-4447Y19272D01*
D02*
G37*
G36*
X-5447D02*
X-5841D01*
X-5886Y19253D01*
X-5905Y19208D01*
Y18893D01*
X-5886Y18848D01*
X-5841Y18829D01*
X-5805D01*
Y18520D01*
X-5920D01*
X-5965Y18501D01*
X-5984Y18456D01*
Y18062D01*
X-5965Y18017D01*
X-5920Y17998D01*
X-5368D01*
X-5323Y18017D01*
X-5305Y18062D01*
Y18456D01*
X-5323Y18501D01*
X-5368Y18520D01*
X-5484D01*
Y18829D01*
X-5447D01*
X-5402Y18848D01*
X-5383Y18893D01*
Y19208D01*
X-5402Y19253D01*
X-5447Y19272D01*
D02*
G37*
G36*
X-1969Y2675D02*
X-1972Y2674D01*
X-1975Y2675D01*
X-2100Y2663D01*
X-2106Y2660D01*
X-2112Y2660D01*
X-2233Y2624D01*
X-2238Y2619D01*
X-2245Y2619D01*
X-2356Y2559D01*
X-2360Y2554D01*
X-2366Y2552D01*
X-2464Y2472D01*
X-2467Y2467D01*
X-2472Y2464D01*
X-2552Y2366D01*
X-2554Y2360D01*
X-2559Y2356D01*
X-2619Y2245D01*
X-2619Y2238D01*
X-2624Y2233D01*
X-2660Y2112D01*
X-2660Y2106D01*
X-2663Y2100D01*
X-2675Y1975D01*
X-2673Y1969D01*
X-2675Y1962D01*
X-2663Y1837D01*
X-2660Y1831D01*
X-2660Y1825D01*
X-2624Y1704D01*
X-2619Y1699D01*
X-2619Y1692D01*
X-2559Y1581D01*
X-2554Y1577D01*
X-2552Y1571D01*
X-2472Y1473D01*
X-2467Y1470D01*
X-2464Y1465D01*
X-2366Y1385D01*
X-2360Y1383D01*
X-2356Y1378D01*
X-2245Y1318D01*
X-2238Y1318D01*
X-2233Y1313D01*
X-2112Y1277D01*
X-2106Y1277D01*
X-2100Y1274D01*
X-1975Y1262D01*
X-1972Y1263D01*
X-1969Y1262D01*
X-1965Y1263D01*
X-1962Y1262D01*
X-1837Y1274D01*
X-1831Y1277D01*
X-1825Y1277D01*
X-1704Y1313D01*
X-1699Y1318D01*
X-1692Y1318D01*
X-1581Y1378D01*
X-1577Y1383D01*
X-1571Y1385D01*
X-1473Y1465D01*
X-1470Y1470D01*
X-1465Y1473D01*
X-1385Y1571D01*
X-1383Y1577D01*
X-1378Y1581D01*
X-1318Y1692D01*
X-1318Y1699D01*
X-1313Y1704D01*
X-1277Y1825D01*
X-1277Y1831D01*
X-1274Y1837D01*
X-1262Y1962D01*
X-1264Y1969D01*
X-1262Y1975D01*
X-1274Y2100D01*
X-1277Y2106D01*
X-1277Y2112D01*
X-1313Y2233D01*
X-1318Y2238D01*
X-1318Y2245D01*
X-1378Y2356D01*
X-1383Y2360D01*
X-1385Y2366D01*
X-1465Y2464D01*
X-1470Y2467D01*
X-1473Y2472D01*
X-1571Y2552D01*
X-1577Y2554D01*
X-1581Y2559D01*
X-1692Y2619D01*
X-1699Y2619D01*
X-1704Y2624D01*
X-1825Y2660D01*
X-1831Y2660D01*
X-1837Y2663D01*
X-1962Y2675D01*
X-1965Y2674D01*
X-1969Y2675D01*
D02*
G37*
G36*
X-37402D02*
X-37405Y2674D01*
X-37408Y2675D01*
X-37533Y2663D01*
X-37539Y2660D01*
X-37546Y2660D01*
X-37666Y2624D01*
X-37671Y2619D01*
X-37678Y2619D01*
X-37789Y2559D01*
X-37793Y2554D01*
X-37799Y2552D01*
X-37897Y2472D01*
X-37900Y2467D01*
X-37906Y2464D01*
X-37985Y2366D01*
X-37987Y2360D01*
X-37992Y2356D01*
X-38052Y2245D01*
X-38053Y2238D01*
X-38057Y2233D01*
X-38093Y2112D01*
X-38093Y2106D01*
X-38096Y2100D01*
X-38108Y1975D01*
X-38106Y1969D01*
X-38108Y1962D01*
X-38096Y1837D01*
X-38093Y1831D01*
X-38093Y1825D01*
X-38057Y1704D01*
X-38053Y1699D01*
X-38052Y1692D01*
X-37992Y1581D01*
X-37987Y1577D01*
X-37985Y1571D01*
X-37906Y1473D01*
X-37900Y1470D01*
X-37897Y1465D01*
X-37799Y1385D01*
X-37793Y1383D01*
X-37789Y1378D01*
X-37678Y1318D01*
X-37671Y1318D01*
X-37666Y1313D01*
X-37546Y1277D01*
X-37539Y1277D01*
X-37533Y1274D01*
X-37408Y1262D01*
X-37405Y1263D01*
X-37402Y1262D01*
X-37399Y1263D01*
X-37395Y1262D01*
X-37270Y1274D01*
X-37264Y1277D01*
X-37258Y1277D01*
X-37137Y1313D01*
X-37132Y1318D01*
X-37125Y1318D01*
X-37014Y1378D01*
X-37010Y1383D01*
X-37004Y1385D01*
X-36906Y1465D01*
X-36903Y1470D01*
X-36898Y1473D01*
X-36818Y1571D01*
X-36816Y1577D01*
X-36811Y1581D01*
X-36751Y1692D01*
X-36751Y1699D01*
X-36746Y1704D01*
X-36710Y1825D01*
X-36711Y1831D01*
X-36707Y1837D01*
X-36695Y1962D01*
X-36697Y1969D01*
X-36695Y1975D01*
X-36707Y2100D01*
X-36711Y2106D01*
X-36710Y2112D01*
X-36746Y2233D01*
X-36751Y2238D01*
X-36751Y2245D01*
X-36811Y2356D01*
X-36816Y2360D01*
X-36818Y2366D01*
X-36898Y2464D01*
X-36903Y2467D01*
X-36906Y2472D01*
X-37004Y2552D01*
X-37010Y2554D01*
X-37014Y2559D01*
X-37125Y2619D01*
X-37132Y2619D01*
X-37137Y2624D01*
X-37258Y2660D01*
X-37264Y2660D01*
X-37270Y2663D01*
X-37395Y2675D01*
X-37399Y2674D01*
X-37402Y2675D01*
D02*
G37*
G36*
X-21428Y3322D02*
X-22294D01*
X-22379Y3306D01*
X-22451Y3258D01*
X-22498Y3186D01*
X-22515Y3102D01*
X-22498Y3017D01*
X-22451Y2945D01*
X-22379Y2898D01*
X-22294Y2881D01*
X-21428D01*
X-21344Y2898D01*
X-21272Y2945D01*
X-21224Y3017D01*
X-21208Y3102D01*
X-21224Y3186D01*
X-21272Y3258D01*
X-21344Y3306D01*
X-21428Y3322D01*
D02*
G37*
G36*
X-5467Y4849D02*
X-5704D01*
X-5781Y4839D01*
X-5853Y4810D01*
X-5914Y4762D01*
X-5962Y4701D01*
X-5991Y4629D01*
X-6002Y4552D01*
X-5991Y4475D01*
X-5962Y4403D01*
X-5914Y4341D01*
X-5853Y4294D01*
X-5781Y4264D01*
X-5704Y4254D01*
X-5467D01*
X-5390Y4264D01*
X-5319Y4294D01*
X-5257Y4341D01*
X-5210Y4403D01*
X-5180Y4475D01*
X-5170Y4552D01*
X-5180Y4629D01*
X-5210Y4701D01*
X-5257Y4762D01*
X-5319Y4810D01*
X-5390Y4839D01*
X-5467Y4849D01*
D02*
G37*
G36*
X-8948Y5572D02*
X-9263D01*
X-9308Y5554D01*
X-9327Y5508D01*
Y5115D01*
X-9308Y5070D01*
X-9266Y5052D01*
Y4908D01*
X-9302D01*
X-9348Y4889D01*
X-9366Y4844D01*
Y4293D01*
X-9348Y4248D01*
X-9302Y4229D01*
X-8909D01*
X-8863Y4248D01*
X-8845Y4293D01*
Y4844D01*
X-8863Y4889D01*
X-8909Y4908D01*
X-8945D01*
Y5052D01*
X-8903Y5070D01*
X-8884Y5115D01*
Y5508D01*
X-8903Y5554D01*
X-8948Y5572D01*
D02*
G37*
G36*
X-749Y1177D02*
X-787Y1177D01*
Y1177D01*
X-787Y1177D01*
X-787Y1177D01*
X-826Y1177D01*
X-837Y1175D01*
X-901Y1162D01*
X-972Y1133D01*
X-1036Y1090D01*
X-1090Y1036D01*
X-1133Y972D01*
X-1162Y901D01*
X-1177Y826D01*
X-1177Y787D01*
X-1177Y787D01*
X-1177Y749D01*
X-1162Y674D01*
X-1133Y603D01*
X-1090Y539D01*
X-1036Y484D01*
X-972Y442D01*
X-901Y412D01*
X-826Y397D01*
X-787Y397D01*
X-749D01*
X-674Y412D01*
X-603Y442D01*
X-539Y484D01*
X-484Y539D01*
X-442Y603D01*
X-412Y674D01*
X-397Y749D01*
Y787D01*
X-397Y826D01*
X-412Y901D01*
X-442Y972D01*
X-484Y1036D01*
X-539Y1090D01*
X-603Y1133D01*
X-674Y1162D01*
X-738Y1175D01*
X-749Y1177D01*
D02*
G37*
G36*
X-38544Y1177D02*
X-38583Y1177D01*
X-38583Y1177D01*
X-38621Y1177D01*
X-38696Y1162D01*
X-38767Y1133D01*
X-38831Y1090D01*
X-38886Y1036D01*
X-38928Y972D01*
X-38958Y901D01*
X-38973Y826D01*
X-38973Y787D01*
X-38973Y787D01*
Y749D01*
X-38958Y674D01*
X-38928Y603D01*
X-38886Y539D01*
X-38831Y484D01*
X-38767Y442D01*
X-38696Y412D01*
X-38621Y397D01*
X-38583D01*
X-38544Y397D01*
X-38469Y412D01*
X-38398Y442D01*
X-38334Y484D01*
X-38280Y539D01*
X-38237Y603D01*
X-38208Y674D01*
X-38195Y738D01*
X-38193Y749D01*
X-38193Y787D01*
X-38193Y787D01*
X-38193Y787D01*
X-38193Y826D01*
X-38195Y837D01*
X-38208Y901D01*
X-38237Y972D01*
X-38280Y1036D01*
X-38334Y1090D01*
X-38398Y1133D01*
X-38469Y1162D01*
X-38544Y1177D01*
D02*
G37*
G36*
X-35562Y3458D02*
X-35956D01*
X-36001Y3440D01*
X-36020Y3394D01*
Y3080D01*
X-36001Y3034D01*
X-35956Y3016D01*
X-35892D01*
Y2402D01*
X-35880Y2340D01*
X-35845Y2288D01*
X-35793Y2253D01*
X-35731Y2241D01*
X-33507D01*
X-33504Y2233D01*
X-33450Y2163D01*
X-33380Y2110D01*
X-33338Y2092D01*
X-33348Y2042D01*
X-36084D01*
X-36271Y2230D01*
Y3016D01*
X-36235D01*
X-36189Y3034D01*
X-36171Y3080D01*
Y3394D01*
X-36189Y3440D01*
X-36235Y3458D01*
X-36628D01*
X-36674Y3440D01*
X-36692Y3394D01*
Y3080D01*
X-36674Y3034D01*
X-36628Y3016D01*
X-36592D01*
Y2163D01*
X-36592Y2163D01*
X-36580Y2102D01*
X-36545Y2050D01*
X-36264Y1768D01*
X-36264Y1768D01*
X-36212Y1733D01*
X-36150Y1721D01*
X-36150Y1721D01*
X-31350D01*
X-31350Y1721D01*
X-31288Y1733D01*
X-31236Y1768D01*
X-30327Y2678D01*
X-30319Y2674D01*
X-30231Y2663D01*
X-30144Y2674D01*
X-30063Y2708D01*
X-29993Y2762D01*
X-29940Y2831D01*
X-29906Y2913D01*
X-29894Y3000D01*
X-29906Y3087D01*
X-29940Y3169D01*
X-29993Y3238D01*
X-30063Y3292D01*
X-30144Y3326D01*
X-30231Y3337D01*
X-30319Y3326D01*
X-30400Y3292D01*
X-30470Y3238D01*
X-30523Y3169D01*
X-30557Y3087D01*
X-30569Y3000D01*
X-30557Y2913D01*
X-30554Y2905D01*
X-31416Y2042D01*
X-33075D01*
X-33085Y2092D01*
X-33043Y2110D01*
X-32973Y2163D01*
X-32920Y2233D01*
X-32886Y2314D01*
X-32875Y2402D01*
X-32886Y2489D01*
X-32920Y2570D01*
X-32973Y2640D01*
X-33043Y2694D01*
X-33125Y2727D01*
X-33212Y2739D01*
X-33299Y2727D01*
X-33380Y2694D01*
X-33450Y2640D01*
X-33504Y2570D01*
X-33507Y2562D01*
X-35571D01*
Y3016D01*
X-35562D01*
X-35517Y3034D01*
X-35498Y3080D01*
Y3394D01*
X-35517Y3440D01*
X-35562Y3458D01*
D02*
G37*
G36*
X-34212Y3337D02*
X-34299Y3326D01*
X-34380Y3292D01*
X-34450Y3238D01*
X-34504Y3169D01*
X-34537Y3087D01*
X-34549Y3000D01*
X-34537Y2913D01*
X-34504Y2831D01*
X-34450Y2762D01*
X-34380Y2708D01*
X-34299Y2674D01*
X-34212Y2663D01*
X-34125Y2674D01*
X-34043Y2708D01*
X-33973Y2762D01*
X-33920Y2831D01*
X-33886Y2913D01*
X-33875Y3000D01*
X-33886Y3087D01*
X-33920Y3169D01*
X-33973Y3238D01*
X-34043Y3292D01*
X-34125Y3326D01*
X-34212Y3337D01*
D02*
G37*
G36*
X-29231Y2739D02*
X-29319Y2727D01*
X-29400Y2694D01*
X-29470Y2640D01*
X-29523Y2570D01*
X-29557Y2489D01*
X-29569Y2402D01*
X-29557Y2314D01*
X-29523Y2233D01*
X-29470Y2163D01*
X-29400Y2110D01*
X-29319Y2076D01*
X-29231Y2064D01*
X-29144Y2076D01*
X-29063Y2110D01*
X-28993Y2163D01*
X-28940Y2233D01*
X-28906Y2314D01*
X-28894Y2402D01*
X-28906Y2489D01*
X-28940Y2570D01*
X-28993Y2640D01*
X-29063Y2694D01*
X-29144Y2727D01*
X-29231Y2739D01*
D02*
G37*
G36*
X-2642Y9163D02*
X-2707Y9150D01*
X-2762Y9113D01*
X-2774Y9095D01*
X-2824D01*
X-2836Y9113D01*
X-2891Y9150D01*
X-2957Y9163D01*
X-3022Y9150D01*
X-3077Y9113D01*
X-3089Y9095D01*
X-3139D01*
X-3151Y9113D01*
X-3206Y9150D01*
X-3272Y9163D01*
X-3337Y9150D01*
X-3392Y9113D01*
X-3429Y9057D01*
X-3442Y8992D01*
Y8559D01*
X-3432Y8509D01*
Y8248D01*
X-3432Y8248D01*
X-3420Y8186D01*
X-3385Y8134D01*
X-3151Y7900D01*
Y7709D01*
X-3132Y7664D01*
X-3087Y7645D01*
X-2693D01*
X-2648Y7664D01*
X-2629Y7709D01*
Y8024D01*
X-2648Y8069D01*
X-2693Y8088D01*
X-2884D01*
X-3111Y8314D01*
Y8406D01*
X-3061Y8428D01*
X-3022Y8401D01*
X-2957Y8388D01*
X-2891Y8401D01*
X-2836Y8438D01*
X-2824Y8456D01*
X-2774D01*
X-2762Y8438D01*
X-2707Y8401D01*
X-2642Y8388D01*
X-2576Y8401D01*
X-2521Y8438D01*
X-2484Y8494D01*
X-2471Y8559D01*
Y8992D01*
X-2484Y9057D01*
X-2521Y9113D01*
X-2576Y9150D01*
X-2642Y9163D01*
D02*
G37*
G36*
X-1527Y7464D02*
X-1705D01*
X-1750Y7446D01*
X-1759Y7423D01*
X-2147D01*
X-2147Y7423D01*
X-2188Y7415D01*
X-2413D01*
X-2458Y7396D01*
X-2477Y7351D01*
Y7036D01*
X-2458Y6991D01*
X-2413Y6972D01*
X-2031D01*
Y6901D01*
X-2074Y6836D01*
X-2091Y6752D01*
X-2074Y6667D01*
X-2026Y6596D01*
X-1955Y6548D01*
X-1870Y6531D01*
X-1786Y6548D01*
X-1714Y6596D01*
X-1666Y6667D01*
X-1649Y6752D01*
X-1666Y6836D01*
X-1710Y6901D01*
Y7058D01*
X-1705Y7061D01*
X-1527D01*
X-1482Y7080D01*
X-1464Y7125D01*
Y7222D01*
X-1455Y7263D01*
X-1464Y7303D01*
Y7400D01*
X-1482Y7446D01*
X-1527Y7464D01*
D02*
G37*
G36*
X-6318Y11792D02*
X-6633D01*
X-6678Y11774D01*
X-6697Y11729D01*
Y11335D01*
X-6678Y11290D01*
X-6633Y11271D01*
X-6318D01*
X-6273Y11290D01*
X-6254Y11335D01*
Y11371D01*
X-5767D01*
X-5746Y11321D01*
X-5772Y11282D01*
X-5785Y11217D01*
X-5772Y11151D01*
X-5735Y11096D01*
X-5717Y11084D01*
Y11034D01*
X-5735Y11022D01*
X-5772Y10967D01*
X-5785Y10902D01*
X-5772Y10836D01*
X-5735Y10781D01*
X-5717Y10769D01*
Y10719D01*
X-5735Y10707D01*
X-5772Y10652D01*
X-5785Y10587D01*
X-5772Y10521D01*
X-5746Y10482D01*
X-5767Y10432D01*
X-6254D01*
Y10468D01*
X-6273Y10514D01*
X-6308Y10528D01*
X-6315Y10577D01*
X-6271Y10642D01*
X-6255Y10726D01*
X-6271Y10811D01*
X-6319Y10882D01*
X-6391Y10930D01*
X-6475Y10947D01*
X-6560Y10930D01*
X-6632Y10882D01*
X-6679Y10811D01*
X-6696Y10726D01*
X-6679Y10642D01*
X-6636Y10577D01*
X-6642Y10528D01*
X-6678Y10514D01*
X-6697Y10468D01*
Y10075D01*
X-6678Y10030D01*
X-6633Y10011D01*
X-6318D01*
X-6273Y10030D01*
X-6254Y10075D01*
Y10111D01*
X-5665D01*
X-5614Y10101D01*
X-5181D01*
X-5116Y10114D01*
X-5060Y10151D01*
X-5023Y10206D01*
X-5010Y10272D01*
X-5023Y10337D01*
X-5060Y10392D01*
X-5078Y10404D01*
Y10454D01*
X-5060Y10466D01*
X-5023Y10521D01*
X-5010Y10587D01*
X-5023Y10652D01*
X-5060Y10707D01*
X-5078Y10719D01*
Y10769D01*
X-5060Y10781D01*
X-5023Y10836D01*
X-5010Y10902D01*
X-5023Y10967D01*
X-5060Y11022D01*
X-5078Y11034D01*
Y11084D01*
X-5060Y11096D01*
X-5023Y11151D01*
X-5010Y11217D01*
X-5023Y11282D01*
X-5060Y11337D01*
X-5078Y11349D01*
Y11399D01*
X-5060Y11411D01*
X-5023Y11466D01*
X-5010Y11531D01*
X-5023Y11597D01*
X-5060Y11652D01*
X-5116Y11689D01*
X-5181Y11702D01*
X-5614D01*
X-5665Y11692D01*
X-6254D01*
Y11729D01*
X-6273Y11774D01*
X-6318Y11792D01*
D02*
G37*
G36*
X-33185Y11445D02*
X-33262Y11434D01*
X-33334Y11405D01*
X-33396Y11357D01*
X-33443Y11296D01*
X-33473Y11224D01*
X-33483Y11147D01*
Y10991D01*
X-33602D01*
Y11008D01*
X-33621Y11053D01*
X-33666Y11072D01*
X-34374D01*
X-34420Y11053D01*
X-34438Y11008D01*
Y10378D01*
X-34420Y10333D01*
X-34374Y10314D01*
X-33666D01*
X-33621Y10333D01*
X-33602Y10378D01*
Y10395D01*
X-33214D01*
X-33185Y10391D01*
X-33108Y10401D01*
X-33043Y10428D01*
X-33028D01*
X-32982Y10447D01*
X-32964Y10492D01*
Y10492D01*
X-32927Y10540D01*
X-32897Y10612D01*
X-32887Y10689D01*
Y11147D01*
X-32897Y11224D01*
X-32927Y11296D01*
X-32974Y11357D01*
X-33036Y11405D01*
X-33108Y11434D01*
X-33185Y11445D01*
D02*
G37*
G36*
X-8555Y11386D02*
X-9205D01*
X-9250Y11367D01*
X-9269Y11322D01*
Y10642D01*
X-10205D01*
X-10222Y10684D01*
X-10267Y10703D01*
X-10661D01*
X-10706Y10684D01*
X-10725Y10639D01*
Y10324D01*
X-10706Y10279D01*
X-10661Y10260D01*
X-10267D01*
X-10222Y10279D01*
X-10205Y10321D01*
X-9269D01*
Y9747D01*
X-9250Y9702D01*
X-9205Y9683D01*
X-8555D01*
X-8510Y9702D01*
X-8491Y9747D01*
Y9853D01*
X-8445Y9873D01*
X-7598Y9026D01*
X-7606Y8984D01*
X-7625Y8939D01*
Y8624D01*
X-7606Y8579D01*
X-7561Y8560D01*
X-7370D01*
X-7238Y8428D01*
X-7258Y8382D01*
X-7364D01*
X-7426Y8370D01*
X-7478Y8335D01*
X-7479Y8333D01*
X-7561D01*
X-7606Y8315D01*
X-7625Y8269D01*
Y7970D01*
X-8445Y7150D01*
X-8491Y7169D01*
Y7275D01*
X-8510Y7320D01*
X-8555Y7339D01*
X-9205D01*
X-9250Y7320D01*
X-9269Y7275D01*
Y6672D01*
X-10205D01*
X-10222Y6715D01*
X-10267Y6733D01*
X-10661D01*
X-10706Y6715D01*
X-10725Y6669D01*
Y6354D01*
X-10706Y6309D01*
X-10661Y6290D01*
X-10267D01*
X-10222Y6309D01*
X-10205Y6351D01*
X-9269D01*
Y5700D01*
X-9250Y5655D01*
X-9205Y5636D01*
X-8555D01*
X-8510Y5655D01*
X-8491Y5700D01*
Y6649D01*
X-7251Y7890D01*
X-7251Y7890D01*
X-7250Y7890D01*
X-7167D01*
X-7141Y7902D01*
X-7115Y7877D01*
X-7105Y7862D01*
X-7121Y7782D01*
X-7104Y7697D01*
X-7078Y7657D01*
X-7445Y7290D01*
X-7636D01*
X-7681Y7271D01*
X-7700Y7226D01*
Y6832D01*
X-7681Y6787D01*
X-7636Y6768D01*
X-7321D01*
X-7276Y6787D01*
X-7257Y6832D01*
Y7023D01*
X-7081Y7200D01*
X-7031Y7179D01*
Y6832D01*
X-7012Y6787D01*
X-7012Y6787D01*
X-6998Y6739D01*
X-7013Y6716D01*
X-7030Y6631D01*
X-7013Y6547D01*
X-6966Y6475D01*
X-6894Y6427D01*
X-6809Y6410D01*
X-6725Y6427D01*
X-6653Y6475D01*
X-6605Y6547D01*
X-6589Y6631D01*
X-6605Y6716D01*
X-6621Y6739D01*
X-6607Y6787D01*
X-6607Y6787D01*
X-6588Y6832D01*
Y6869D01*
X-5805D01*
Y6706D01*
X-5786Y6661D01*
X-5741Y6642D01*
X-5347D01*
X-5302Y6661D01*
X-5283Y6706D01*
Y7021D01*
X-5302Y7066D01*
X-5347Y7085D01*
X-5384D01*
Y7141D01*
X-4742Y7783D01*
X-4706Y7773D01*
X-4692Y7763D01*
Y7577D01*
X-4818Y7451D01*
X-4895Y7436D01*
X-4966Y7388D01*
X-5014Y7316D01*
X-5029Y7240D01*
X-5058Y7211D01*
X-5092Y7159D01*
X-5105Y7098D01*
X-5141Y7085D01*
X-5186Y7066D01*
X-5205Y7021D01*
Y6706D01*
X-5186Y6661D01*
X-5141Y6642D01*
X-4747D01*
X-4702Y6661D01*
X-4683Y6706D01*
Y7021D01*
X-4695Y7048D01*
X-4654Y7076D01*
X-4606Y7147D01*
X-4591Y7224D01*
X-4427Y7388D01*
X-4391Y7378D01*
X-4377Y7368D01*
Y7085D01*
X-4541D01*
X-4586Y7066D01*
X-4605Y7021D01*
Y6706D01*
X-4586Y6661D01*
X-4541Y6642D01*
X-4147D01*
X-4102Y6661D01*
X-4083Y6706D01*
Y6887D01*
X-4033Y6905D01*
X-4005Y6880D01*
Y6706D01*
X-3986Y6661D01*
X-3941Y6642D01*
X-3547D01*
X-3502Y6661D01*
X-3483Y6706D01*
Y7021D01*
X-3502Y7066D01*
X-3547Y7085D01*
X-3738D01*
X-3741Y7088D01*
Y8509D01*
X-3731Y8559D01*
Y8992D01*
X-3744Y9057D01*
X-3781Y9113D01*
X-3836Y9150D01*
X-3902Y9163D01*
X-3967Y9150D01*
X-4022Y9113D01*
X-4034Y9095D01*
X-4084D01*
X-4096Y9113D01*
X-4151Y9150D01*
X-4217Y9163D01*
X-4282Y9150D01*
X-4337Y9113D01*
X-4349Y9095D01*
X-4399D01*
X-4411Y9113D01*
X-4466Y9150D01*
X-4531Y9163D01*
X-4597Y9150D01*
X-4652Y9113D01*
X-4664Y9095D01*
X-4714D01*
X-4726Y9113D01*
X-4781Y9150D01*
X-4846Y9163D01*
X-4912Y9150D01*
X-4967Y9113D01*
X-5004Y9057D01*
X-5017Y8992D01*
Y8559D01*
X-5007Y8509D01*
Y7972D01*
X-5658Y7321D01*
X-5692Y7269D01*
X-5705Y7208D01*
X-5748Y7190D01*
X-6588D01*
Y7226D01*
X-6607Y7271D01*
X-6652Y7290D01*
X-6920D01*
X-6941Y7340D01*
X-6787Y7494D01*
X-6787Y7494D01*
X-6752Y7546D01*
X-6740Y7608D01*
Y7632D01*
X-6696Y7697D01*
X-6679Y7782D01*
X-6696Y7866D01*
X-6744Y7938D01*
X-6816Y7986D01*
X-6900Y8002D01*
X-6985Y7986D01*
X-7056Y7938D01*
X-7101Y7955D01*
X-7103Y7957D01*
Y8061D01*
X-6740D01*
X-6740Y8061D01*
X-6679Y8073D01*
X-6627Y8108D01*
X-5578Y9156D01*
X-5181D01*
X-5116Y9169D01*
X-5060Y9206D01*
X-5023Y9261D01*
X-5010Y9327D01*
X-5023Y9392D01*
X-5060Y9447D01*
X-5078Y9459D01*
Y9509D01*
X-5060Y9521D01*
X-5023Y9576D01*
X-5010Y9642D01*
X-5023Y9707D01*
X-5060Y9762D01*
X-5116Y9799D01*
X-5181Y9812D01*
X-5614D01*
X-5679Y9799D01*
X-5690Y9792D01*
X-5701Y9790D01*
X-5754Y9755D01*
X-5754Y9755D01*
X-6932Y8576D01*
X-7103Y8747D01*
Y8939D01*
X-7122Y8984D01*
X-7167Y9003D01*
X-7204Y9019D01*
X-7216Y9080D01*
X-7251Y9133D01*
X-8491Y10373D01*
Y11322D01*
X-8510Y11367D01*
X-8555Y11386D01*
D02*
G37*
G36*
X-33972Y5037D02*
X-33975Y5036D01*
X-33978Y5037D01*
X-34103Y5025D01*
X-34109Y5022D01*
X-34116Y5022D01*
X-34236Y4986D01*
X-34241Y4982D01*
X-34248Y4981D01*
X-34359Y4922D01*
X-34363Y4917D01*
X-34369Y4915D01*
X-34467Y4835D01*
X-34470Y4829D01*
X-34476Y4826D01*
X-34556Y4728D01*
X-34557Y4722D01*
X-34563Y4718D01*
X-34622Y4607D01*
X-34623Y4600D01*
X-34627Y4595D01*
X-34663Y4475D01*
X-34663Y4468D01*
X-34666Y4462D01*
X-34678Y4337D01*
X-34676Y4331D01*
X-34678Y4324D01*
X-34666Y4199D01*
X-34663Y4193D01*
X-34663Y4187D01*
X-34627Y4066D01*
X-34623Y4061D01*
X-34622Y4055D01*
X-34563Y3943D01*
X-34557Y3939D01*
X-34556Y3933D01*
X-34476Y3836D01*
X-34470Y3832D01*
X-34467Y3827D01*
X-34369Y3747D01*
X-34363Y3745D01*
X-34359Y3740D01*
X-34248Y3680D01*
X-34241Y3680D01*
X-34236Y3676D01*
X-34116Y3639D01*
X-34109Y3640D01*
X-34103Y3637D01*
X-33978Y3624D01*
X-33975Y3625D01*
X-33972Y3624D01*
X-33969Y3625D01*
X-33965Y3624D01*
X-33840Y3637D01*
X-33834Y3640D01*
X-33828Y3639D01*
X-33707Y3676D01*
X-33702Y3680D01*
X-33696Y3680D01*
X-33584Y3740D01*
X-33580Y3745D01*
X-33574Y3747D01*
X-33477Y3827D01*
X-33473Y3832D01*
X-33468Y3836D01*
X-33388Y3933D01*
X-33386Y3939D01*
X-33381Y3943D01*
X-33321Y4055D01*
X-33321Y4061D01*
X-33317Y4066D01*
X-33280Y4187D01*
X-33281Y4193D01*
X-33278Y4199D01*
X-33265Y4324D01*
X-33267Y4331D01*
X-33265Y4337D01*
X-33278Y4462D01*
X-33281Y4468D01*
X-33280Y4475D01*
X-33317Y4595D01*
X-33321Y4600D01*
X-33321Y4607D01*
X-33381Y4718D01*
X-33386Y4722D01*
X-33388Y4728D01*
X-33468Y4826D01*
X-33473Y4829D01*
X-33477Y4835D01*
X-33574Y4915D01*
X-33580Y4917D01*
X-33584Y4922D01*
X-33696Y4981D01*
X-33702Y4982D01*
X-33707Y4986D01*
X-33828Y5022D01*
X-33834Y5022D01*
X-33840Y5025D01*
X-33965Y5037D01*
X-33969Y5036D01*
X-33972Y5037D01*
D02*
G37*
G36*
X-34783Y6068D02*
X-34921Y6049D01*
X-35051Y5996D01*
X-35162Y5911D01*
X-35247Y5800D01*
X-35300Y5670D01*
X-35319Y5531D01*
X-35300Y5393D01*
X-35247Y5263D01*
X-35162Y5152D01*
X-35051Y5067D01*
X-34921Y5014D01*
X-34783Y4995D01*
X-34644Y5014D01*
X-34515Y5067D01*
X-34404Y5152D01*
X-34318Y5263D01*
X-34265Y5393D01*
X-34247Y5531D01*
X-34265Y5670D01*
X-34318Y5800D01*
X-34404Y5911D01*
X-34515Y5996D01*
X-34644Y6049D01*
X-34783Y6068D01*
D02*
G37*
G36*
X-29472Y5037D02*
X-29475Y5036D01*
X-29478Y5037D01*
X-29603Y5025D01*
X-29609Y5022D01*
X-29616Y5022D01*
X-29736Y4986D01*
X-29741Y4982D01*
X-29748Y4981D01*
X-29859Y4922D01*
X-29863Y4917D01*
X-29869Y4915D01*
X-29967Y4835D01*
X-29970Y4829D01*
X-29976Y4826D01*
X-30056Y4728D01*
X-30057Y4722D01*
X-30063Y4718D01*
X-30122Y4607D01*
X-30123Y4600D01*
X-30127Y4595D01*
X-30163Y4475D01*
X-30163Y4468D01*
X-30166Y4462D01*
X-30178Y4337D01*
X-30176Y4331D01*
X-30178Y4324D01*
X-30166Y4199D01*
X-30163Y4193D01*
X-30163Y4187D01*
X-30127Y4066D01*
X-30123Y4061D01*
X-30122Y4055D01*
X-30063Y3943D01*
X-30057Y3939D01*
X-30056Y3933D01*
X-29976Y3836D01*
X-29970Y3832D01*
X-29967Y3827D01*
X-29869Y3747D01*
X-29863Y3745D01*
X-29859Y3740D01*
X-29748Y3680D01*
X-29741Y3680D01*
X-29736Y3676D01*
X-29616Y3639D01*
X-29609Y3640D01*
X-29603Y3637D01*
X-29478Y3624D01*
X-29475Y3625D01*
X-29472Y3624D01*
X-29469Y3625D01*
X-29465Y3624D01*
X-29340Y3637D01*
X-29334Y3640D01*
X-29328Y3639D01*
X-29207Y3676D01*
X-29202Y3680D01*
X-29196Y3680D01*
X-29084Y3740D01*
X-29080Y3745D01*
X-29074Y3747D01*
X-28977Y3827D01*
X-28973Y3832D01*
X-28968Y3836D01*
X-28888Y3933D01*
X-28886Y3939D01*
X-28881Y3943D01*
X-28821Y4055D01*
X-28821Y4061D01*
X-28817Y4066D01*
X-28780Y4187D01*
X-28781Y4193D01*
X-28778Y4199D01*
X-28765Y4324D01*
X-28767Y4331D01*
X-28765Y4337D01*
X-28778Y4462D01*
X-28781Y4468D01*
X-28780Y4475D01*
X-28817Y4595D01*
X-28821Y4600D01*
X-28821Y4607D01*
X-28881Y4718D01*
X-28886Y4722D01*
X-28888Y4728D01*
X-28968Y4826D01*
X-28973Y4829D01*
X-28977Y4835D01*
X-29074Y4915D01*
X-29080Y4917D01*
X-29084Y4922D01*
X-29196Y4981D01*
X-29202Y4982D01*
X-29207Y4986D01*
X-29328Y5022D01*
X-29334Y5022D01*
X-29340Y5025D01*
X-29465Y5037D01*
X-29469Y5036D01*
X-29472Y5037D01*
D02*
G37*
G36*
X-32974Y7166D02*
X-33061Y7154D01*
X-33143Y7120D01*
X-33213Y7067D01*
X-33267Y6996D01*
X-33301Y6915D01*
X-33313Y6827D01*
X-33301Y6739D01*
X-33267Y6657D01*
X-33213Y6587D01*
X-33143Y6533D01*
X-33061Y6499D01*
X-32974Y6488D01*
X-32886Y6499D01*
X-32804Y6533D01*
X-32734Y6587D01*
X-32680Y6657D01*
X-32646Y6739D01*
X-32634Y6827D01*
X-32646Y6915D01*
X-32680Y6996D01*
X-32734Y7067D01*
X-32804Y7120D01*
X-32886Y7154D01*
X-32974Y7166D01*
D02*
G37*
G36*
X-3210Y6722D02*
X-3295Y6706D01*
X-3366Y6658D01*
X-3414Y6586D01*
X-3431Y6502D01*
X-3414Y6417D01*
X-3371Y6352D01*
Y5878D01*
X-4008Y5241D01*
X-4057Y5262D01*
X-4066Y5308D01*
X-4101Y5360D01*
X-4112Y5371D01*
X-4099Y5429D01*
X-4044Y5466D01*
X-3996Y5537D01*
X-3979Y5622D01*
X-3996Y5706D01*
X-4000Y5712D01*
X-3738Y5973D01*
X-3547D01*
X-3502Y5992D01*
X-3483Y6037D01*
Y6352D01*
X-3502Y6397D01*
X-3547Y6416D01*
X-3941D01*
X-3986Y6397D01*
X-4005Y6352D01*
Y6162D01*
X-4039Y6133D01*
X-4083Y6152D01*
Y6352D01*
X-4102Y6397D01*
X-4147Y6416D01*
X-4541D01*
X-4586Y6397D01*
X-4605Y6352D01*
Y6037D01*
X-4586Y5992D01*
X-4541Y5973D01*
X-4531D01*
X-4515Y5923D01*
X-4589Y5849D01*
X-4624Y5797D01*
X-4636Y5736D01*
X-4636Y5736D01*
Y5508D01*
X-4636Y5508D01*
X-4624Y5446D01*
X-4618Y5438D01*
X-4620Y5424D01*
X-4638Y5377D01*
X-4696Y5338D01*
X-4744Y5266D01*
X-4761Y5182D01*
X-4744Y5097D01*
X-4696Y5026D01*
X-4644Y4991D01*
Y4731D01*
X-4651Y4727D01*
X-4828D01*
X-4873Y4708D01*
X-4892Y4663D01*
Y4072D01*
X-4873Y4027D01*
X-4828Y4008D01*
X-4698D01*
X-4688Y3958D01*
X-4750Y3932D01*
X-4812Y3885D01*
X-4859Y3823D01*
X-4889Y3751D01*
X-4899Y3674D01*
X-4889Y3597D01*
X-4859Y3525D01*
X-4812Y3464D01*
X-4750Y3416D01*
X-4678Y3387D01*
X-4601Y3377D01*
X-4365D01*
X-4288Y3387D01*
X-4216Y3416D01*
X-4155Y3464D01*
X-4107Y3525D01*
X-4077Y3597D01*
X-4067Y3674D01*
X-4077Y3751D01*
X-4107Y3823D01*
X-4155Y3885D01*
X-4216Y3932D01*
X-4278Y3958D01*
X-4269Y4008D01*
X-4139D01*
X-4099Y4024D01*
X-4060Y4008D01*
X-3883D01*
X-3838Y4027D01*
X-3819Y4072D01*
Y4327D01*
X-3811Y4367D01*
Y4428D01*
X-3761Y4438D01*
X-3746Y4403D01*
X-3699Y4341D01*
X-3637Y4294D01*
X-3565Y4264D01*
X-3488Y4254D01*
X-3252D01*
X-3175Y4264D01*
X-3103Y4294D01*
X-3041Y4341D01*
X-2994Y4403D01*
X-2964Y4475D01*
X-2954Y4552D01*
X-2964Y4629D01*
X-2994Y4701D01*
X-3041Y4762D01*
X-3103Y4810D01*
X-3175Y4839D01*
X-3252Y4849D01*
X-3488D01*
X-3565Y4839D01*
X-3637Y4810D01*
X-3699Y4762D01*
X-3746Y4701D01*
X-3761Y4665D01*
X-3811Y4675D01*
Y4984D01*
X-3097Y5698D01*
X-3097Y5698D01*
X-3062Y5750D01*
X-3050Y5812D01*
X-3050Y5812D01*
Y6352D01*
X-3006Y6417D01*
X-2989Y6502D01*
X-3006Y6586D01*
X-3054Y6658D01*
X-3126Y6706D01*
X-3210Y6722D01*
D02*
G37*
G36*
X-9850Y31742D02*
X-9935Y31726D01*
X-10006Y31678D01*
X-10054Y31606D01*
X-10071Y31522D01*
X-10054Y31437D01*
X-10011Y31372D01*
Y23372D01*
X-10011Y23372D01*
X-9998Y23310D01*
X-9964Y23258D01*
X-9799Y23094D01*
X-9784Y23017D01*
X-9736Y22946D01*
X-9665Y22898D01*
X-9580Y22881D01*
X-9496Y22898D01*
X-9424Y22946D01*
X-9376Y23017D01*
X-9359Y23102D01*
X-9376Y23186D01*
X-9424Y23258D01*
X-9496Y23306D01*
X-9572Y23321D01*
X-9690Y23438D01*
Y31372D01*
X-9646Y31437D01*
X-9629Y31522D01*
X-9646Y31606D01*
X-9694Y31678D01*
X-9766Y31726D01*
X-9850Y31742D01*
D02*
G37*
G36*
X-4749Y41725D02*
X-5340D01*
X-5385Y41707D01*
X-5404Y41661D01*
Y41543D01*
X-5387Y41504D01*
X-5404Y41465D01*
Y41346D01*
X-5387Y41307D01*
X-5404Y41268D01*
Y41150D01*
X-5387Y41110D01*
X-5404Y41071D01*
Y40953D01*
X-5387Y40913D01*
X-5404Y40874D01*
Y40756D01*
X-5387Y40717D01*
X-5404Y40677D01*
Y40559D01*
X-5387Y40520D01*
X-5404Y40480D01*
Y40362D01*
X-5387Y40323D01*
X-5404Y40283D01*
Y40165D01*
X-5387Y40126D01*
X-5404Y40087D01*
Y39969D01*
X-5387Y39929D01*
X-5404Y39890D01*
Y39772D01*
X-5387Y39732D01*
X-5404Y39693D01*
Y39575D01*
X-5387Y39535D01*
X-5404Y39496D01*
Y39378D01*
X-5387Y39339D01*
X-5404Y39299D01*
Y39181D01*
X-5387Y39142D01*
X-5404Y39102D01*
Y38984D01*
X-5387Y38945D01*
X-5404Y38906D01*
Y38787D01*
X-5387Y38748D01*
X-5404Y38709D01*
Y38591D01*
X-5387Y38551D01*
X-5404Y38512D01*
Y38394D01*
X-5385Y38349D01*
X-5340Y38330D01*
X-4749D01*
X-4704Y38349D01*
X-4685Y38394D01*
Y38512D01*
X-4702Y38551D01*
X-4685Y38591D01*
Y38709D01*
X-4702Y38748D01*
X-4685Y38787D01*
Y38906D01*
X-4702Y38945D01*
X-4685Y38984D01*
Y39102D01*
X-4702Y39142D01*
X-4685Y39181D01*
Y39299D01*
X-4702Y39339D01*
X-4685Y39378D01*
Y39496D01*
X-4702Y39535D01*
X-4685Y39575D01*
Y39693D01*
X-4702Y39732D01*
X-4685Y39772D01*
Y39890D01*
X-4702Y39929D01*
X-4685Y39969D01*
Y40087D01*
X-4702Y40126D01*
X-4685Y40165D01*
Y40283D01*
X-4702Y40323D01*
X-4685Y40362D01*
Y40480D01*
X-4702Y40520D01*
X-4685Y40559D01*
Y40677D01*
X-4702Y40717D01*
X-4685Y40756D01*
Y40874D01*
X-4702Y40913D01*
X-4685Y40953D01*
Y41071D01*
X-4702Y41110D01*
X-4685Y41150D01*
Y41268D01*
X-4702Y41307D01*
X-4685Y41346D01*
Y41465D01*
X-4702Y41504D01*
X-4685Y41543D01*
Y41661D01*
X-4704Y41707D01*
X-4749Y41725D01*
D02*
G37*
G36*
X-34862Y38369D02*
X-34990Y38357D01*
X-35112Y38320D01*
X-35225Y38259D01*
X-35324Y38178D01*
X-35405Y38079D01*
X-35465Y37966D01*
X-35502Y37844D01*
X-35515Y37717D01*
X-35502Y37589D01*
X-35465Y37467D01*
X-35405Y37354D01*
X-35324Y37255D01*
X-35225Y37174D01*
X-35112Y37113D01*
X-34990Y37076D01*
X-34862Y37064D01*
X-34735Y37076D01*
X-34612Y37113D01*
X-34500Y37174D01*
X-34401Y37255D01*
X-34319Y37354D01*
X-34259Y37467D01*
X-34222Y37589D01*
X-34209Y37717D01*
X-34222Y37844D01*
X-34259Y37966D01*
X-34319Y38079D01*
X-34401Y38178D01*
X-34500Y38259D01*
X-34612Y38320D01*
X-34735Y38357D01*
X-34862Y38369D01*
D02*
G37*
G36*
Y41716D02*
X-34990Y41703D01*
X-35112Y41666D01*
X-35225Y41606D01*
X-35324Y41525D01*
X-35405Y41426D01*
X-35465Y41313D01*
X-35502Y41190D01*
X-35515Y41063D01*
X-35502Y40936D01*
X-35465Y40813D01*
X-35405Y40700D01*
X-35324Y40601D01*
X-35225Y40520D01*
X-35112Y40460D01*
X-34990Y40423D01*
X-34862Y40410D01*
X-34735Y40423D01*
X-34612Y40460D01*
X-34500Y40520D01*
X-34401Y40601D01*
X-34319Y40700D01*
X-34284Y40766D01*
X-32850D01*
X-32773Y40776D01*
X-32708Y40803D01*
X-32683D01*
X-32638Y40822D01*
X-32619Y40867D01*
Y40880D01*
X-32592Y40915D01*
X-32562Y40987D01*
X-32552Y41064D01*
X-32562Y41141D01*
X-32592Y41213D01*
X-32619Y41248D01*
Y41261D01*
X-32638Y41306D01*
X-32683Y41325D01*
X-32708D01*
X-32773Y41352D01*
X-32850Y41362D01*
X-34285D01*
X-34319Y41426D01*
X-34401Y41525D01*
X-34500Y41606D01*
X-34612Y41666D01*
X-34735Y41703D01*
X-34862Y41716D01*
D02*
G37*
G36*
X-32309Y40380D02*
X-32643D01*
X-32689Y40361D01*
X-32707Y40316D01*
Y39922D01*
X-32689Y39877D01*
X-32643Y39858D01*
X-32637D01*
Y39662D01*
X-32673D01*
X-32718Y39644D01*
X-32737Y39599D01*
Y39205D01*
X-32718Y39160D01*
X-32673Y39141D01*
X-32358D01*
X-32313Y39160D01*
X-32294Y39205D01*
Y39236D01*
X-31950D01*
X-31932Y39194D01*
X-31887Y39175D01*
X-31493D01*
X-31448Y39194D01*
X-31429Y39239D01*
Y39554D01*
X-31448Y39599D01*
X-31493Y39618D01*
X-31887D01*
X-31932Y39599D01*
X-31950Y39557D01*
X-32294D01*
Y39599D01*
X-32313Y39644D01*
X-32315Y39645D01*
Y39858D01*
X-32309D01*
X-32264Y39877D01*
X-32245Y39922D01*
Y40316D01*
X-32264Y40361D01*
X-32309Y40380D01*
D02*
G37*
G36*
X-3887Y38312D02*
X-4202D01*
X-4247Y38294D01*
X-4266Y38249D01*
Y38220D01*
X-5045D01*
X-5106Y38207D01*
X-5144Y38182D01*
X-5340D01*
X-5385Y38163D01*
X-5404Y38118D01*
Y38000D01*
X-5385Y37955D01*
X-5340Y37936D01*
X-5144D01*
X-5106Y37911D01*
X-5045Y37898D01*
X-4266D01*
Y37855D01*
X-4247Y37810D01*
X-4202Y37791D01*
X-4201D01*
Y37418D01*
X-4237D01*
X-4282Y37399D01*
X-4301Y37354D01*
Y37039D01*
X-4282Y36994D01*
X-4237Y36975D01*
X-3843D01*
X-3798Y36994D01*
X-3779Y37039D01*
Y37354D01*
X-3798Y37399D01*
X-3843Y37418D01*
X-3880D01*
Y37794D01*
X-3842Y37810D01*
X-3823Y37855D01*
Y38249D01*
X-3842Y38294D01*
X-3887Y38312D01*
D02*
G37*
G36*
X-31493Y38948D02*
X-31887D01*
X-31932Y38930D01*
X-31951Y38884D01*
Y38570D01*
X-31932Y38524D01*
X-31887Y38506D01*
X-31851D01*
Y36182D01*
X-31851Y36182D01*
X-31838Y36120D01*
X-31804Y36068D01*
X-29169Y33434D01*
X-29154Y33357D01*
X-29106Y33286D01*
X-29035Y33238D01*
X-28950Y33221D01*
X-28866Y33238D01*
X-28794Y33286D01*
X-28746Y33357D01*
X-28729Y33442D01*
X-28746Y33526D01*
X-28794Y33598D01*
X-28866Y33646D01*
X-28942Y33661D01*
X-31530Y36248D01*
Y38506D01*
X-31493D01*
X-31448Y38524D01*
X-31429Y38570D01*
Y38884D01*
X-31448Y38930D01*
X-31493Y38948D01*
D02*
G37*
G36*
X-6890Y32155D02*
X-6894Y32153D01*
X-6898Y32154D01*
X-7027Y32137D01*
X-7034Y32133D01*
X-7043D01*
X-7162Y32083D01*
X-7169Y32077D01*
X-7177Y32075D01*
X-7280Y31996D01*
X-7284Y31989D01*
X-7291Y31984D01*
X-7370Y31882D01*
X-7373Y31873D01*
X-7379Y31867D01*
X-7428Y31747D01*
Y31739D01*
X-7433Y31731D01*
X-7450Y31603D01*
X-7447Y31594D01*
X-7450Y31586D01*
X-7433Y31458D01*
X-7428Y31450D01*
Y31442D01*
X-7379Y31322D01*
X-7373Y31316D01*
X-7370Y31307D01*
X-7291Y31205D01*
X-7284Y31200D01*
X-7280Y31193D01*
X-7177Y31114D01*
X-7169Y31112D01*
X-7162Y31106D01*
X-7043Y31056D01*
X-7034D01*
X-7027Y31052D01*
X-6898Y31035D01*
X-6894Y31036D01*
X-6890Y31034D01*
X-6886Y31036D01*
X-6881Y31035D01*
X-6753Y31052D01*
X-6745Y31056D01*
X-6737D01*
X-6617Y31106D01*
X-6611Y31112D01*
X-6603Y31114D01*
X-6500Y31193D01*
X-6496Y31200D01*
X-6488Y31205D01*
X-6409Y31307D01*
X-6407Y31316D01*
X-6401Y31322D01*
X-6351Y31442D01*
Y31450D01*
X-6347Y31458D01*
X-6330Y31586D01*
X-6332Y31594D01*
X-6330Y31603D01*
X-6347Y31731D01*
X-6351Y31739D01*
Y31747D01*
X-6401Y31867D01*
X-6407Y31873D01*
X-6409Y31882D01*
X-6488Y31984D01*
X-6496Y31989D01*
X-6500Y31996D01*
X-6603Y32075D01*
X-6611Y32077D01*
X-6617Y32083D01*
X-6737Y32133D01*
X-6745D01*
X-6753Y32137D01*
X-6881Y32154D01*
X-6886Y32153D01*
X-6890Y32155D01*
D02*
G37*
G36*
X-11967Y36530D02*
X-12361D01*
X-12406Y36511D01*
X-12425Y36466D01*
Y36151D01*
X-12406Y36106D01*
X-12361Y36087D01*
X-11967D01*
X-11922Y36106D01*
X-11904Y36148D01*
X-11858D01*
X-11836Y36116D01*
X-11765Y36068D01*
X-11680Y36051D01*
X-11596Y36068D01*
X-11524Y36116D01*
X-11476Y36187D01*
X-11459Y36272D01*
X-11476Y36356D01*
X-11524Y36428D01*
X-11596Y36476D01*
X-11680Y36492D01*
X-11765Y36476D01*
X-11774Y36469D01*
X-11904D01*
X-11922Y36511D01*
X-11967Y36530D01*
D02*
G37*
G36*
X-12593Y35183D02*
X-12987D01*
X-13032Y35164D01*
X-13051Y35119D01*
Y34568D01*
X-13032Y34523D01*
X-12987Y34504D01*
X-12593D01*
X-12548Y34523D01*
X-12529Y34568D01*
Y34683D01*
X-12154D01*
Y34646D01*
X-12136Y34601D01*
X-12091Y34583D01*
X-11776D01*
X-11730Y34601D01*
X-11712Y34646D01*
Y35040D01*
X-11730Y35085D01*
X-11776Y35104D01*
X-12091D01*
X-12136Y35085D01*
X-12154Y35040D01*
Y35004D01*
X-12529D01*
Y35119D01*
X-12548Y35164D01*
X-12593Y35183D01*
D02*
G37*
G36*
X-37402Y47065D02*
X-37405Y47064D01*
X-37408Y47065D01*
X-37533Y47052D01*
X-37539Y47049D01*
X-37546Y47050D01*
X-37666Y47013D01*
X-37671Y47009D01*
X-37678Y47009D01*
X-37789Y46949D01*
X-37793Y46944D01*
X-37799Y46942D01*
X-37897Y46862D01*
X-37900Y46856D01*
X-37906Y46853D01*
X-37985Y46756D01*
X-37987Y46750D01*
X-37992Y46746D01*
X-38052Y46634D01*
X-38053Y46628D01*
X-38057Y46623D01*
X-38093Y46502D01*
X-38093Y46496D01*
X-38096Y46490D01*
X-38108Y46365D01*
X-38106Y46358D01*
X-38108Y46352D01*
X-38096Y46227D01*
X-38093Y46221D01*
X-38093Y46214D01*
X-38057Y46094D01*
X-38053Y46089D01*
X-38052Y46082D01*
X-37992Y45971D01*
X-37987Y45967D01*
X-37985Y45961D01*
X-37906Y45863D01*
X-37900Y45860D01*
X-37897Y45854D01*
X-37799Y45774D01*
X-37793Y45772D01*
X-37789Y45767D01*
X-37678Y45708D01*
X-37671Y45707D01*
X-37666Y45703D01*
X-37546Y45667D01*
X-37539Y45667D01*
X-37533Y45664D01*
X-37408Y45652D01*
X-37405Y45653D01*
X-37402Y45651D01*
X-37399Y45653D01*
X-37395Y45652D01*
X-37270Y45664D01*
X-37264Y45667D01*
X-37258Y45667D01*
X-37137Y45703D01*
X-37132Y45707D01*
X-37125Y45708D01*
X-37014Y45767D01*
X-37010Y45772D01*
X-37004Y45774D01*
X-36906Y45854D01*
X-36903Y45860D01*
X-36898Y45863D01*
X-36818Y45961D01*
X-36816Y45967D01*
X-36811Y45971D01*
X-36751Y46082D01*
X-36751Y46089D01*
X-36746Y46094D01*
X-36710Y46214D01*
X-36711Y46221D01*
X-36707Y46227D01*
X-36695Y46352D01*
X-36697Y46358D01*
X-36695Y46365D01*
X-36707Y46490D01*
X-36711Y46496D01*
X-36710Y46502D01*
X-36746Y46623D01*
X-36751Y46628D01*
X-36751Y46634D01*
X-36811Y46746D01*
X-36816Y46750D01*
X-36818Y46756D01*
X-36898Y46853D01*
X-36903Y46856D01*
X-36906Y46862D01*
X-37004Y46942D01*
X-37010Y46944D01*
X-37014Y46949D01*
X-37125Y47009D01*
X-37132Y47009D01*
X-37137Y47013D01*
X-37258Y47050D01*
X-37264Y47049D01*
X-37270Y47052D01*
X-37395Y47065D01*
X-37399Y47064D01*
X-37402Y47065D01*
D02*
G37*
G36*
X-4730Y46980D02*
X-4730Y46980D01*
X-12998D01*
X-12998Y46980D01*
X-13059Y46968D01*
X-13111Y46933D01*
X-13111Y46933D01*
X-13538Y46506D01*
X-19265D01*
X-19265Y46506D01*
X-19327Y46494D01*
X-19379Y46459D01*
X-22057Y43781D01*
X-27132D01*
X-27150Y43824D01*
X-27195Y43842D01*
X-27785D01*
X-27831Y43824D01*
X-27849Y43778D01*
Y43463D01*
X-27840Y43441D01*
X-27833Y43404D01*
X-27840Y43368D01*
X-27849Y43345D01*
Y43030D01*
X-27840Y43008D01*
X-27833Y42971D01*
X-27840Y42935D01*
X-27849Y42912D01*
Y42597D01*
X-27840Y42575D01*
X-27833Y42538D01*
X-27840Y42502D01*
X-27849Y42479D01*
Y42164D01*
X-27840Y42142D01*
X-27833Y42105D01*
X-27840Y42069D01*
X-27849Y42046D01*
Y41731D01*
X-27831Y41686D01*
X-27785Y41667D01*
X-27195D01*
X-27150Y41686D01*
X-27131Y41731D01*
Y42046D01*
X-27140Y42069D01*
X-27147Y42105D01*
X-27140Y42142D01*
X-27132Y42161D01*
X-21990D01*
X-21990Y42161D01*
X-21929Y42173D01*
X-21877Y42208D01*
X-19199Y44886D01*
X-12933D01*
X-12933Y44886D01*
X-12872Y44898D01*
X-12820Y44933D01*
X-12012Y45740D01*
X-5715D01*
X-2985Y43010D01*
Y36814D01*
X-3825Y35974D01*
X-3864Y36006D01*
X-3836Y36047D01*
X-3819Y36132D01*
X-3836Y36216D01*
X-3862Y36256D01*
X-3847Y36297D01*
X-3837Y36308D01*
X-3798Y36324D01*
X-3779Y36370D01*
Y36684D01*
X-3798Y36730D01*
X-3843Y36748D01*
X-4237D01*
X-4282Y36730D01*
X-4301Y36684D01*
Y36370D01*
X-4282Y36324D01*
X-4243Y36308D01*
X-4233Y36297D01*
X-4218Y36256D01*
X-4244Y36216D01*
X-4261Y36132D01*
X-4244Y36047D01*
X-4196Y35976D01*
X-4161Y35952D01*
X-4176Y35902D01*
X-4674D01*
X-5631Y36860D01*
Y37319D01*
X-5644Y37380D01*
X-5669Y37418D01*
Y37614D01*
X-5688Y37660D01*
X-5733Y37678D01*
X-5851D01*
X-5890Y37662D01*
X-5930Y37678D01*
X-6048D01*
X-6087Y37662D01*
X-6127Y37678D01*
X-6245D01*
X-6284Y37662D01*
X-6323Y37678D01*
X-6442D01*
X-6481Y37662D01*
X-6520Y37678D01*
X-6638D01*
X-6678Y37662D01*
X-6717Y37678D01*
X-6835D01*
X-6875Y37662D01*
X-6914Y37678D01*
X-7032D01*
X-7071Y37662D01*
X-7111Y37678D01*
X-7229D01*
X-7268Y37662D01*
X-7308Y37678D01*
X-7426D01*
X-7465Y37662D01*
X-7505Y37678D01*
X-7623D01*
X-7668Y37660D01*
X-7687Y37614D01*
Y37419D01*
X-7712Y37380D01*
X-7724Y37319D01*
X-7724Y37319D01*
Y36398D01*
X-7897D01*
X-7942Y36379D01*
X-7961Y36334D01*
Y36172D01*
X-8011Y36146D01*
X-8026Y36156D01*
X-8110Y36172D01*
X-8195Y36156D01*
X-8266Y36108D01*
X-8314Y36036D01*
X-8331Y35952D01*
X-8314Y35867D01*
X-8266Y35796D01*
X-8195Y35748D01*
X-8110Y35731D01*
X-8026Y35748D01*
X-7961Y35791D01*
X-7925D01*
X-7925Y35791D01*
X-7863Y35803D01*
X-7811Y35838D01*
X-7694Y35955D01*
X-7663D01*
X-7625Y35930D01*
X-7564Y35917D01*
X-7502Y35930D01*
X-7450Y35964D01*
X-7415Y36017D01*
X-7403Y36078D01*
Y36960D01*
X-7308D01*
X-7268Y36976D01*
X-7229Y36960D01*
X-7134D01*
Y35755D01*
X-7734Y35155D01*
X-7766Y35176D01*
X-7850Y35192D01*
X-7935Y35176D01*
X-8006Y35128D01*
X-8054Y35056D01*
X-8071Y34972D01*
X-8054Y34887D01*
X-8020Y34837D01*
X-8046Y34787D01*
X-8188D01*
X-9372Y35970D01*
Y36960D01*
X-9276D01*
X-9237Y36976D01*
X-9197Y36960D01*
X-9079D01*
X-9040Y36976D01*
X-9001Y36960D01*
X-8883D01*
X-8843Y36976D01*
X-8804Y36960D01*
X-8686D01*
X-8646Y36976D01*
X-8607Y36960D01*
X-8489D01*
X-8449Y36976D01*
X-8410Y36960D01*
X-8292D01*
X-8253Y36976D01*
X-8213Y36960D01*
X-8095D01*
X-8056Y36976D01*
X-8016Y36960D01*
X-7898D01*
X-7853Y36979D01*
X-7834Y37024D01*
Y37614D01*
X-7853Y37660D01*
X-7898Y37678D01*
X-8016D01*
X-8056Y37662D01*
X-8095Y37678D01*
X-8213D01*
X-8253Y37662D01*
X-8292Y37678D01*
X-8410D01*
X-8449Y37662D01*
X-8489Y37678D01*
X-8607D01*
X-8646Y37662D01*
X-8686Y37678D01*
X-8804D01*
X-8843Y37662D01*
X-8883Y37678D01*
X-9001D01*
X-9040Y37662D01*
X-9079Y37678D01*
X-9197D01*
X-9237Y37662D01*
X-9276Y37678D01*
X-9394D01*
X-9434Y37662D01*
X-9473Y37678D01*
X-9591D01*
X-9631Y37662D01*
X-9670Y37678D01*
X-9788D01*
X-9827Y37662D01*
X-9867Y37678D01*
X-9985D01*
X-10024Y37662D01*
X-10064Y37678D01*
X-10182D01*
X-10221Y37662D01*
X-10260Y37678D01*
X-10379D01*
X-10412Y37664D01*
X-10412Y37665D01*
X-10457Y37684D01*
X-10575D01*
X-10621Y37665D01*
X-10639Y37620D01*
Y37424D01*
X-10665Y37386D01*
X-10677Y37325D01*
Y37051D01*
X-10723Y37032D01*
X-11103Y37412D01*
Y37936D01*
X-10969D01*
X-10923Y37955D01*
X-10905Y38000D01*
Y38118D01*
X-10921Y38157D01*
X-10905Y38197D01*
Y38315D01*
X-10921Y38354D01*
X-10905Y38394D01*
Y38512D01*
X-10921Y38551D01*
X-10905Y38591D01*
Y38709D01*
X-10921Y38748D01*
X-10905Y38787D01*
Y38906D01*
X-10921Y38945D01*
X-10905Y38984D01*
Y39102D01*
X-10923Y39148D01*
X-10969Y39166D01*
X-11164D01*
X-11202Y39192D01*
X-11264Y39204D01*
X-12098D01*
X-12098Y39204D01*
X-12121Y39199D01*
X-12361D01*
X-12406Y39181D01*
X-12466Y39166D01*
X-12489Y39182D01*
X-12574Y39199D01*
X-12658Y39182D01*
X-12699Y39155D01*
X-12731Y39194D01*
X-12648Y39276D01*
X-11264D01*
X-11202Y39289D01*
X-11164Y39314D01*
X-10969D01*
X-10923Y39333D01*
X-10905Y39378D01*
Y39496D01*
X-10921Y39535D01*
X-10905Y39575D01*
Y39693D01*
X-10921Y39732D01*
X-10905Y39772D01*
Y39890D01*
X-10921Y39929D01*
X-10905Y39969D01*
Y40087D01*
X-10921Y40126D01*
X-10905Y40165D01*
Y40283D01*
X-10921Y40323D01*
X-10905Y40362D01*
Y40480D01*
X-10921Y40520D01*
X-10905Y40559D01*
Y40677D01*
X-10921Y40717D01*
X-10905Y40756D01*
Y40874D01*
X-10921Y40913D01*
X-10905Y40953D01*
Y41071D01*
X-10921Y41110D01*
X-10905Y41150D01*
Y41268D01*
X-10921Y41307D01*
X-10905Y41346D01*
Y41465D01*
X-10921Y41504D01*
X-10905Y41543D01*
Y41661D01*
X-10921Y41701D01*
X-10905Y41740D01*
Y41858D01*
X-10921Y41898D01*
X-10905Y41937D01*
Y42055D01*
X-10921Y42094D01*
X-10905Y42134D01*
Y42252D01*
X-10921Y42291D01*
X-10905Y42331D01*
Y42449D01*
X-10921Y42488D01*
X-10905Y42528D01*
Y42646D01*
X-10921Y42685D01*
X-10905Y42724D01*
Y42843D01*
X-10923Y42888D01*
X-10969Y42906D01*
X-11559D01*
X-11604Y42888D01*
X-11623Y42843D01*
Y42724D01*
X-11607Y42685D01*
X-11623Y42646D01*
Y42528D01*
X-11607Y42488D01*
X-11623Y42449D01*
Y42331D01*
X-11607Y42291D01*
X-11623Y42252D01*
Y42227D01*
X-11669Y42208D01*
X-11962Y42500D01*
X-11959Y42512D01*
X-11976Y42596D01*
X-12024Y42668D01*
X-12096Y42716D01*
X-12180Y42732D01*
X-12265Y42716D01*
X-12336Y42668D01*
X-12384Y42596D01*
X-12386Y42587D01*
X-12434Y42572D01*
X-13464Y43603D01*
X-13516Y43637D01*
X-13577Y43650D01*
X-13577Y43650D01*
X-17473D01*
X-17534Y43637D01*
X-17586Y43603D01*
X-17586Y43603D01*
X-30429Y30760D01*
X-30463Y30708D01*
X-30476Y30647D01*
X-30476Y30647D01*
Y27097D01*
X-30543Y27069D01*
X-30638Y26996D01*
X-30710Y26902D01*
X-30756Y26791D01*
X-30772Y26673D01*
X-30756Y26555D01*
X-30710Y26445D01*
X-30638Y26350D01*
X-30543Y26278D01*
X-30476Y26250D01*
Y25998D01*
X-31859D01*
X-31867Y26017D01*
X-31912Y26036D01*
X-32306D01*
X-32351Y26017D01*
X-32370Y25972D01*
Y25657D01*
X-32351Y25611D01*
X-32306Y25593D01*
X-31912D01*
X-31867Y25611D01*
X-31849Y25657D01*
Y25676D01*
X-30476D01*
Y25128D01*
X-30543Y25100D01*
X-30638Y25028D01*
X-30710Y24933D01*
X-30756Y24823D01*
X-30772Y24705D01*
X-30756Y24587D01*
X-30710Y24476D01*
X-30638Y24382D01*
X-30543Y24309D01*
X-30433Y24264D01*
X-30315Y24248D01*
X-30197Y24264D01*
X-30087Y24309D01*
X-30054Y24335D01*
X-29999Y24313D01*
X-29997Y24301D01*
X-30154Y24145D01*
X-30188Y24093D01*
X-30201Y24032D01*
X-30201Y24032D01*
Y22159D01*
X-30249Y22125D01*
X-30463D01*
Y22344D01*
X-30452Y22355D01*
X-30452Y22355D01*
X-30417Y22407D01*
X-30405Y22469D01*
X-30405Y22469D01*
Y22669D01*
Y23080D01*
X-30363Y23098D01*
X-30344Y23143D01*
Y23537D01*
X-30363Y23582D01*
X-30408Y23601D01*
X-30723D01*
X-30768Y23582D01*
X-30787Y23537D01*
Y23143D01*
X-30768Y23098D01*
X-30726Y23080D01*
Y22870D01*
X-30774Y22866D01*
X-30793Y22911D01*
X-30838Y22930D01*
X-31153D01*
X-31198Y22911D01*
X-31217Y22866D01*
Y22472D01*
X-31198Y22427D01*
X-31153Y22408D01*
X-30838D01*
X-30834Y22410D01*
X-30784Y22377D01*
Y22125D01*
X-30997D01*
X-31043Y22106D01*
X-31061Y22061D01*
Y21358D01*
X-31250Y21169D01*
X-31800Y21718D01*
Y22061D01*
X-31818Y22106D01*
X-31863Y22125D01*
X-32077D01*
Y22466D01*
X-32074Y22472D01*
Y22508D01*
X-31886D01*
Y22472D01*
X-31868Y22427D01*
X-31823Y22408D01*
X-31508D01*
X-31462Y22427D01*
X-31444Y22472D01*
Y22866D01*
X-31462Y22911D01*
X-31508Y22930D01*
X-31823D01*
X-31868Y22911D01*
X-31886Y22866D01*
Y22830D01*
X-32074D01*
Y22866D01*
X-32093Y22911D01*
X-32138Y22930D01*
X-32453D01*
X-32498Y22911D01*
X-32517Y22866D01*
Y22472D01*
X-32498Y22427D01*
X-32453Y22408D01*
X-32398D01*
Y22125D01*
X-32611D01*
X-32657Y22106D01*
X-32675Y22061D01*
Y21077D01*
X-32657Y21032D01*
X-32611Y21013D01*
X-31863D01*
X-31818Y21032D01*
X-31800Y21077D01*
Y21199D01*
X-31753Y21218D01*
X-31509Y20974D01*
Y19262D01*
X-31497Y19201D01*
X-31462Y19149D01*
X-31452Y19142D01*
Y19065D01*
X-31433Y19020D01*
X-31388Y19001D01*
X-31309D01*
X-31287Y19011D01*
X-31250Y19018D01*
X-31214Y19011D01*
X-31191Y19001D01*
X-31113D01*
X-31090Y19011D01*
X-31054Y19018D01*
X-31017Y19011D01*
X-30994Y19001D01*
X-30916D01*
X-30893Y19011D01*
X-30857Y19018D01*
X-30820Y19011D01*
X-30798Y19001D01*
X-30719D01*
X-30696Y19011D01*
X-30660Y19018D01*
X-30623Y19011D01*
X-30601Y19001D01*
X-30522D01*
X-30499Y19011D01*
X-30463Y19018D01*
X-30427Y19011D01*
X-30404Y19001D01*
X-30325D01*
X-30280Y19020D01*
X-30252Y19020D01*
X-30207Y19001D01*
X-30128D01*
X-30083Y19020D01*
X-30064Y19065D01*
Y19142D01*
X-30054Y19149D01*
X-29867Y19336D01*
X-29855Y19339D01*
X-29797Y19378D01*
X-29788Y19391D01*
X-29738Y19376D01*
Y18775D01*
X-29774D01*
X-29819Y18756D01*
X-29838Y18711D01*
Y18632D01*
X-29819Y18587D01*
X-29819Y18559D01*
X-29838Y18514D01*
Y18435D01*
X-29829Y18413D01*
X-29822Y18376D01*
X-29829Y18340D01*
X-29838Y18317D01*
Y18239D01*
X-29819Y18193D01*
X-29819Y18166D01*
X-29838Y18120D01*
Y18042D01*
X-29819Y17997D01*
X-29819Y17969D01*
X-29838Y17924D01*
Y17845D01*
X-29829Y17822D01*
X-29822Y17786D01*
X-29829Y17749D01*
X-29838Y17727D01*
Y17648D01*
X-29819Y17603D01*
X-29819Y17575D01*
X-29838Y17530D01*
Y17451D01*
X-29829Y17429D01*
X-29822Y17392D01*
X-29829Y17356D01*
X-29838Y17333D01*
Y17254D01*
X-29819Y17209D01*
X-29819Y17181D01*
X-29838Y17136D01*
Y17057D01*
X-29819Y17012D01*
X-29819Y16985D01*
X-29838Y16939D01*
Y16861D01*
X-29829Y16838D01*
X-29822Y16802D01*
X-29829Y16765D01*
X-29838Y16743D01*
Y16667D01*
X-30425D01*
X-30487Y16655D01*
X-30539Y16620D01*
X-30539Y16620D01*
X-30628Y16531D01*
X-30822D01*
X-30887Y16574D01*
X-30971Y16591D01*
X-31056Y16574D01*
X-31121Y16531D01*
X-31671D01*
X-31733Y16519D01*
X-31785Y16484D01*
X-31785Y16484D01*
X-31856Y16413D01*
X-31891Y16361D01*
X-31903Y16299D01*
X-31903Y16299D01*
Y16177D01*
X-31979D01*
X-32001Y16167D01*
X-32038Y16160D01*
X-32074Y16167D01*
X-32097Y16177D01*
X-32176D01*
X-32221Y16158D01*
X-32248Y16158D01*
X-32294Y16177D01*
X-32372D01*
X-32418Y16158D01*
X-32436Y16113D01*
Y15719D01*
X-32418Y15674D01*
X-32372Y15655D01*
X-32355D01*
X-32334Y15605D01*
X-32389Y15550D01*
X-32439Y15555D01*
X-32454Y15578D01*
X-32526Y15626D01*
X-32610Y15642D01*
X-32695Y15626D01*
X-32766Y15578D01*
X-32798Y15530D01*
X-32813Y15531D01*
X-32858Y15550D01*
X-33173D01*
X-33218Y15531D01*
X-33237Y15486D01*
Y15092D01*
X-33218Y15047D01*
X-33173Y15028D01*
X-32858D01*
X-32813Y15047D01*
X-32794Y15092D01*
Y15128D01*
X-32586D01*
X-32567Y15082D01*
X-32748Y14901D01*
X-32806Y14914D01*
X-32813Y14931D01*
X-32858Y14950D01*
X-33173D01*
X-33218Y14931D01*
X-33237Y14886D01*
Y14492D01*
X-33218Y14447D01*
X-33173Y14428D01*
X-32858D01*
X-32813Y14447D01*
X-32794Y14492D01*
Y14528D01*
X-32733D01*
X-32733Y14528D01*
X-32728Y14529D01*
X-32686Y14487D01*
X-32691Y14462D01*
X-32674Y14377D01*
X-32673Y14376D01*
X-32688Y14328D01*
X-32692Y14326D01*
X-32711Y14281D01*
Y13966D01*
X-32692Y13921D01*
X-32647Y13902D01*
X-32254D01*
X-32208Y13921D01*
X-32190Y13966D01*
Y14281D01*
X-32208Y14326D01*
X-32233Y14337D01*
X-32257Y14366D01*
X-32263Y14395D01*
X-32249Y14462D01*
X-32266Y14546D01*
X-32287Y14578D01*
X-31902Y14962D01*
X-31852Y14942D01*
Y14604D01*
X-31975Y14481D01*
X-32014Y14424D01*
X-32027Y14356D01*
Y14345D01*
X-32047D01*
X-32092Y14326D01*
X-32111Y14281D01*
Y13966D01*
X-32092Y13921D01*
X-32047Y13902D01*
X-31654D01*
X-31608Y13921D01*
X-31590Y13966D01*
Y14281D01*
X-31608Y14326D01*
X-31612Y14344D01*
X-31550Y14406D01*
X-31489Y14344D01*
X-31492Y14326D01*
X-31511Y14281D01*
Y13966D01*
X-31492Y13921D01*
X-31447Y13902D01*
X-31054D01*
X-31008Y13921D01*
X-30990Y13966D01*
Y14281D01*
X-31008Y14326D01*
X-31054Y14345D01*
X-31074D01*
Y14356D01*
X-31087Y14424D01*
X-31125Y14481D01*
X-31125Y14481D01*
X-31249Y14604D01*
Y14828D01*
X-30861Y15216D01*
X-30811Y15195D01*
Y14754D01*
X-30838Y14723D01*
X-30859Y14664D01*
X-30856Y14602D01*
X-30837Y14564D01*
X-30834Y14547D01*
X-30811Y14513D01*
Y14345D01*
X-30847D01*
X-30892Y14326D01*
X-30911Y14281D01*
Y13966D01*
X-30892Y13921D01*
X-30847Y13902D01*
X-30454D01*
X-30408Y13921D01*
X-30390Y13966D01*
Y14281D01*
X-30408Y14326D01*
X-30454Y14345D01*
X-30490D01*
Y14465D01*
X-30474Y14476D01*
X-30426Y14547D01*
X-30409Y14632D01*
X-30416Y14667D01*
X-30370Y14692D01*
X-30227Y14549D01*
Y14345D01*
X-30247D01*
X-30292Y14326D01*
X-30311Y14281D01*
Y13966D01*
X-30292Y13921D01*
X-30247Y13902D01*
X-29854D01*
X-29808Y13921D01*
X-29790Y13966D01*
Y14281D01*
X-29808Y14326D01*
X-29854Y14345D01*
X-29874D01*
Y14483D01*
X-29827Y14502D01*
X-29702Y14377D01*
Y14303D01*
X-29711Y14281D01*
Y13966D01*
X-29692Y13921D01*
X-29647Y13902D01*
X-29254D01*
X-29208Y13921D01*
X-29190Y13966D01*
Y14281D01*
X-29208Y14326D01*
X-29254Y14345D01*
X-29349D01*
Y14451D01*
X-29362Y14518D01*
X-29400Y14576D01*
X-29400Y14576D01*
X-29991Y15166D01*
Y15916D01*
X-30004Y15983D01*
X-30043Y16041D01*
X-30064Y16055D01*
Y16113D01*
X-30083Y16158D01*
X-30128Y16177D01*
X-30207D01*
X-30252Y16158D01*
X-30280Y16158D01*
X-30325Y16177D01*
X-30401D01*
Y16304D01*
X-30359Y16346D01*
X-29577D01*
X-29516Y16358D01*
X-29464Y16393D01*
X-29457Y16403D01*
X-29380D01*
X-29335Y16422D01*
X-29316Y16467D01*
Y16546D01*
X-29335Y16591D01*
X-29335Y16619D01*
X-29316Y16664D01*
Y16743D01*
X-29326Y16765D01*
X-29333Y16802D01*
X-29326Y16838D01*
X-29316Y16861D01*
Y16936D01*
X-29254D01*
X-29254Y16936D01*
X-29192Y16949D01*
X-29140Y16983D01*
X-28772Y17351D01*
X-28737Y17403D01*
X-28725Y17465D01*
X-28725Y17465D01*
Y19408D01*
X-28552Y19581D01*
X-28517Y19633D01*
X-28505Y19695D01*
X-28505Y19695D01*
Y23027D01*
X-28500Y23030D01*
X-28450Y23004D01*
X-28450Y6065D01*
X-28492Y6037D01*
X-28522Y6049D01*
X-28661Y6068D01*
X-28799Y6049D01*
X-28929Y5996D01*
X-29040Y5911D01*
X-29125Y5800D01*
X-29178Y5670D01*
X-29197Y5531D01*
X-29178Y5393D01*
X-29125Y5263D01*
X-29040Y5152D01*
X-28929Y5067D01*
X-28799Y5014D01*
X-28661Y4995D01*
X-28522Y5014D01*
X-28393Y5067D01*
X-28282Y5152D01*
X-28196Y5263D01*
X-28143Y5393D01*
X-28125Y5531D01*
X-28143Y5670D01*
X-28189Y5782D01*
X-28163Y5832D01*
X-22675D01*
X-22658Y5782D01*
X-22688Y5759D01*
X-22754Y5672D01*
X-22796Y5572D01*
X-22810Y5464D01*
X-22796Y5356D01*
X-22754Y5255D01*
X-22688Y5169D01*
X-22601Y5103D01*
X-22501Y5061D01*
X-22393Y5047D01*
X-22007D01*
X-19717Y2757D01*
Y1502D01*
X-19704Y1399D01*
X-19664Y1303D01*
X-19601Y1221D01*
X-18951Y571D01*
X-18869Y508D01*
X-18773Y468D01*
X-18670Y455D01*
X-16190D01*
X-16087Y468D01*
X-15992Y508D01*
X-15909Y571D01*
X-15551Y929D01*
X-15488Y1011D01*
X-15449Y1107D01*
X-15435Y1209D01*
Y1675D01*
Y1854D01*
X-15021D01*
X-14918Y1867D01*
X-14822Y1907D01*
X-14809Y1917D01*
X-14200D01*
X-14097Y1931D01*
X-14002Y1970D01*
X-13919Y2033D01*
X-13856Y2116D01*
X-13817Y2211D01*
X-13803Y2314D01*
X-13817Y2417D01*
X-13856Y2513D01*
Y2549D01*
X-13811Y2571D01*
X-13799Y2561D01*
X-13703Y2522D01*
X-13600Y2508D01*
X-13094D01*
X-13089Y2496D01*
X-13044Y2477D01*
X-11036D01*
X-10990Y2496D01*
X-10972Y2541D01*
Y3289D01*
X-10990Y3334D01*
X-11036Y3353D01*
X-13044D01*
X-13089Y3334D01*
X-13102Y3302D01*
X-13600D01*
X-13703Y3289D01*
X-13799Y3249D01*
X-13881Y3186D01*
X-13944Y3104D01*
X-13984Y3008D01*
X-13997Y2905D01*
X-13990Y2849D01*
X-14023Y2812D01*
X-14314D01*
X-14359Y2793D01*
X-14378Y2748D01*
Y2711D01*
X-14456D01*
Y2748D01*
X-14475Y2793D01*
X-14520Y2812D01*
X-14867D01*
X-14900Y2849D01*
X-14893Y2901D01*
X-14907Y3003D01*
X-14946Y3099D01*
X-15009Y3181D01*
X-15092Y3244D01*
X-15187Y3284D01*
X-15290Y3298D01*
X-15401D01*
X-15504Y3284D01*
X-15600Y3244D01*
X-15682Y3181D01*
X-15699Y3159D01*
X-15899D01*
X-15966Y3150D01*
X-16028Y3124D01*
X-16082Y3083D01*
X-16082Y3083D01*
X-16108D01*
X-16153Y3064D01*
X-16172Y3019D01*
Y2873D01*
X-16222Y2858D01*
X-16227Y2865D01*
X-16227Y2865D01*
X-16375Y3014D01*
X-16427Y3049D01*
X-16489Y3061D01*
X-16512Y3101D01*
Y3111D01*
X-16494Y3156D01*
Y3392D01*
X-16512Y3438D01*
X-16548Y3452D01*
X-16562Y3524D01*
X-16610Y3595D01*
X-16682Y3668D01*
X-16663Y3714D01*
X-16475D01*
X-16430Y3733D01*
X-16421Y3754D01*
X-16217D01*
X-16132Y3771D01*
X-16061Y3819D01*
X-16013Y3890D01*
X-15996Y3975D01*
X-16013Y4059D01*
X-16061Y4131D01*
X-16132Y4179D01*
X-16217Y4196D01*
X-16421D01*
X-16430Y4217D01*
X-16475Y4236D01*
X-16790D01*
X-16835Y4217D01*
X-16854Y4172D01*
Y3904D01*
X-16900Y3885D01*
X-17080Y4066D01*
Y4172D01*
X-17099Y4217D01*
X-17144Y4236D01*
X-17459D01*
X-17504Y4217D01*
X-17523Y4172D01*
Y3778D01*
X-17504Y3733D01*
X-17459Y3714D01*
X-17353D01*
X-17037Y3398D01*
X-17039Y3392D01*
Y3158D01*
X-17311D01*
Y3272D01*
X-17330Y3317D01*
X-17375Y3336D01*
X-17690D01*
X-17735Y3317D01*
X-17754Y3272D01*
Y2878D01*
X-17735Y2833D01*
X-17690Y2814D01*
X-17375D01*
X-17330Y2833D01*
X-17328Y2836D01*
X-17039D01*
Y2782D01*
X-17020Y2737D01*
X-17020Y2689D01*
X-17039Y2644D01*
Y2481D01*
X-17073Y2447D01*
X-17116Y2476D01*
X-17200Y2492D01*
X-17264Y2480D01*
X-17285Y2476D01*
X-17326Y2508D01*
X-17330Y2517D01*
X-17375Y2536D01*
X-17690D01*
X-17735Y2517D01*
X-17754Y2472D01*
Y2078D01*
X-17735Y2033D01*
X-17690Y2014D01*
X-17375D01*
X-17330Y2033D01*
X-17328Y2037D01*
X-17285Y2068D01*
X-17200Y2051D01*
X-17116Y2068D01*
X-17044Y2116D01*
X-17042Y2119D01*
X-17018Y2114D01*
X-16956Y2126D01*
X-16904Y2161D01*
X-16721Y2344D01*
X-16557D01*
X-16551Y2347D01*
X-16501Y2314D01*
Y2148D01*
X-16615Y2034D01*
X-16650Y1982D01*
X-16659Y1936D01*
X-16704Y1917D01*
X-16723Y1872D01*
Y1478D01*
X-16704Y1433D01*
X-16659Y1414D01*
X-16344D01*
X-16299Y1433D01*
X-16280Y1478D01*
Y1867D01*
X-16279Y1868D01*
X-16230Y1849D01*
X-16229Y1848D01*
Y1374D01*
X-16355Y1249D01*
X-18506D01*
X-18923Y1666D01*
Y2922D01*
X-18937Y3024D01*
X-18976Y3120D01*
X-19039Y3202D01*
X-21022Y5186D01*
X-20969Y5255D01*
X-20927Y5356D01*
X-20913Y5464D01*
X-20927Y5572D01*
X-20969Y5672D01*
X-21035Y5759D01*
X-21065Y5782D01*
X-21048Y5832D01*
X-16552D01*
X-16519Y5782D01*
X-16523Y5772D01*
Y5580D01*
X-17154Y4950D01*
X-17188Y4898D01*
X-17190Y4892D01*
X-17196Y4888D01*
X-17244Y4816D01*
X-17261Y4732D01*
X-17244Y4647D01*
X-17196Y4576D01*
X-17125Y4528D01*
X-17040Y4511D01*
X-16956Y4528D01*
X-16884Y4576D01*
X-16836Y4647D01*
X-16819Y4732D01*
X-16836Y4814D01*
X-16576Y5073D01*
X-16526Y5052D01*
Y4695D01*
X-16507Y4650D01*
X-16462Y4631D01*
X-16147D01*
X-16102Y4650D01*
X-16083Y4695D01*
Y5088D01*
X-16102Y5134D01*
X-16141Y5150D01*
Y5315D01*
X-16099Y5333D01*
X-16080Y5378D01*
Y5772D01*
X-16084Y5782D01*
X-16051Y5832D01*
X-15883D01*
X-15850Y5782D01*
X-15854Y5772D01*
Y5378D01*
X-15835Y5333D01*
X-15793Y5315D01*
Y5152D01*
X-15793D01*
X-15838Y5134D01*
X-15857Y5088D01*
Y4695D01*
X-15838Y4650D01*
X-15793Y4631D01*
X-15478D01*
X-15433Y4650D01*
X-15414Y4695D01*
Y5088D01*
X-15433Y5134D01*
X-15472Y5150D01*
Y5315D01*
X-15430Y5333D01*
X-15411Y5378D01*
Y5414D01*
X-15123D01*
Y5378D01*
X-15104Y5333D01*
X-15059Y5314D01*
X-14744D01*
X-14699Y5333D01*
X-14680Y5378D01*
Y5772D01*
X-14684Y5782D01*
X-14651Y5832D01*
X-14483D01*
X-14450Y5782D01*
X-14454Y5772D01*
Y5378D01*
X-14435Y5333D01*
X-14393Y5315D01*
Y5134D01*
X-14431Y5119D01*
X-14513Y5056D01*
X-14576Y4973D01*
X-14616Y4878D01*
X-14629Y4775D01*
Y4075D01*
X-14616Y3972D01*
X-14576Y3876D01*
X-14513Y3794D01*
X-14431Y3731D01*
X-14335Y3691D01*
X-14232Y3678D01*
X-14130Y3691D01*
X-14034Y3731D01*
X-13951Y3794D01*
X-13888Y3876D01*
X-13849Y3972D01*
X-13835Y4075D01*
Y4172D01*
X-13098D01*
X-13089Y4150D01*
X-13044Y4131D01*
X-11036D01*
X-10990Y4150D01*
X-10972Y4195D01*
Y4408D01*
X-10114D01*
Y4293D01*
X-10096Y4248D01*
X-10050Y4229D01*
X-9657D01*
X-9611Y4248D01*
X-9593Y4293D01*
Y4844D01*
X-9611Y4889D01*
X-9657Y4908D01*
X-10050D01*
X-10096Y4889D01*
X-10114Y4844D01*
Y4729D01*
X-10972D01*
Y4943D01*
X-10990Y4988D01*
X-11036Y5007D01*
X-13044D01*
X-13089Y4988D01*
X-13098Y4966D01*
X-13862D01*
X-13951Y5056D01*
X-14034Y5119D01*
X-14072Y5134D01*
Y5315D01*
X-14030Y5333D01*
X-14011Y5378D01*
Y5772D01*
X-14015Y5782D01*
X-13982Y5832D01*
X-10970D01*
X-10970Y23172D01*
X-28337Y23172D01*
X-28356Y23218D01*
X-22066Y29507D01*
X-22031Y29559D01*
X-22019Y29621D01*
X-22019Y29621D01*
Y30905D01*
X-21844Y31081D01*
X-17273D01*
X-17273Y31081D01*
X-17212Y31093D01*
X-17160Y31128D01*
X-15482Y32806D01*
X-15482Y32806D01*
X-15447Y32858D01*
X-15435Y32919D01*
X-15435Y32919D01*
Y35734D01*
X-15435Y35734D01*
X-15447Y35796D01*
X-15482Y35848D01*
X-15482Y35848D01*
X-16710Y37075D01*
Y38645D01*
X-16377Y38978D01*
X-16377Y38978D01*
X-16342Y39030D01*
X-16330Y39092D01*
Y39182D01*
X-16286Y39247D01*
X-16269Y39332D01*
X-16286Y39416D01*
X-16334Y39488D01*
X-16406Y39536D01*
X-16490Y39552D01*
X-16575Y39536D01*
X-16646Y39488D01*
X-16694Y39416D01*
X-16707Y39349D01*
X-16712Y39345D01*
X-16753Y39328D01*
X-16759Y39328D01*
X-16816Y39366D01*
X-16851Y39373D01*
X-16868Y39427D01*
X-14814Y41481D01*
X-13817D01*
X-13671Y41335D01*
Y40652D01*
X-13671Y40652D01*
X-13658Y40590D01*
X-13624Y40538D01*
X-13196Y40111D01*
X-13196Y40111D01*
X-13144Y40076D01*
X-13083Y40064D01*
X-11623D01*
Y39969D01*
X-11607Y39929D01*
X-11623Y39890D01*
Y39794D01*
X-12770D01*
X-12770Y39794D01*
X-12832Y39782D01*
X-12884Y39747D01*
X-13499Y39132D01*
X-13614D01*
X-13855Y39374D01*
X-13836Y39420D01*
X-13830D01*
X-13785Y39439D01*
X-13766Y39484D01*
Y41059D01*
X-13785Y41104D01*
X-13830Y41123D01*
X-14480D01*
X-14525Y41104D01*
X-14544Y41059D01*
Y40110D01*
X-15059Y39595D01*
X-15459D01*
X-15476Y39637D01*
X-15521Y39656D01*
X-15915D01*
X-15960Y39637D01*
X-15979Y39592D01*
Y39277D01*
X-15960Y39232D01*
X-15915Y39213D01*
X-15521D01*
X-15476Y39232D01*
X-15459Y39274D01*
X-14992D01*
X-14992Y39274D01*
X-14931Y39286D01*
X-14879Y39321D01*
X-14590Y39609D01*
X-14544Y39590D01*
Y39484D01*
X-14525Y39439D01*
X-14480Y39420D01*
X-14310D01*
X-14303Y39385D01*
X-14268Y39333D01*
X-13794Y38858D01*
X-13742Y38823D01*
X-13680Y38811D01*
X-13680Y38811D01*
X-13633D01*
X-13614Y38765D01*
X-14268Y38110D01*
X-14303Y38058D01*
X-14315Y37997D01*
X-14315Y37997D01*
Y37076D01*
X-14480D01*
X-14525Y37057D01*
X-14544Y37012D01*
Y36906D01*
X-14590Y36887D01*
X-14932Y37229D01*
X-14984Y37263D01*
X-15045Y37276D01*
X-15045Y37276D01*
X-15459D01*
X-15476Y37318D01*
X-15521Y37336D01*
X-15915D01*
X-15960Y37318D01*
X-15979Y37272D01*
Y36957D01*
X-15960Y36912D01*
X-15915Y36894D01*
X-15521D01*
X-15476Y36912D01*
X-15459Y36954D01*
X-15112D01*
X-14544Y36386D01*
Y35437D01*
X-14525Y35392D01*
X-14480Y35373D01*
X-13830D01*
X-13785Y35392D01*
X-13766Y35437D01*
Y37012D01*
X-13785Y37057D01*
X-13830Y37076D01*
X-13994D01*
Y37930D01*
X-12789Y39135D01*
X-12751Y39103D01*
X-12778Y39062D01*
X-12795Y38978D01*
X-12778Y38893D01*
X-12730Y38822D01*
X-12658Y38774D01*
X-12574Y38757D01*
X-12489Y38774D01*
X-12466Y38790D01*
X-12406Y38775D01*
X-12361Y38757D01*
X-11967D01*
X-11941Y38713D01*
Y37428D01*
X-12169Y37199D01*
X-12361D01*
X-12406Y37181D01*
X-12425Y37135D01*
Y36820D01*
X-12406Y36775D01*
X-12361Y36757D01*
X-11967D01*
X-11922Y36775D01*
X-11904Y36817D01*
X-11683D01*
X-11289Y36424D01*
X-11274Y36347D01*
X-11226Y36276D01*
X-11155Y36228D01*
X-11070Y36211D01*
X-10986Y36228D01*
X-10961Y36244D01*
X-10911Y36218D01*
Y35228D01*
X-11055Y35084D01*
X-11061Y35085D01*
X-11106Y35104D01*
X-11421D01*
X-11466Y35085D01*
X-11485Y35040D01*
Y34646D01*
X-11466Y34601D01*
X-11421Y34583D01*
X-11106D01*
X-11061Y34601D01*
X-11042Y34646D01*
Y34688D01*
X-11007Y34695D01*
X-10955Y34730D01*
X-10723Y34962D01*
X-10677Y34942D01*
Y34502D01*
X-11467Y33712D01*
X-12871D01*
X-12936Y33756D01*
X-13020Y33772D01*
X-13105Y33756D01*
X-13176Y33708D01*
X-13224Y33636D01*
X-13241Y33552D01*
X-13224Y33467D01*
X-13176Y33396D01*
X-13105Y33348D01*
X-13020Y33331D01*
X-12936Y33348D01*
X-12871Y33391D01*
X-11448D01*
X-11428Y33341D01*
X-11597Y33172D01*
X-12301D01*
X-12366Y33216D01*
X-12450Y33232D01*
X-12535Y33216D01*
X-12606Y33168D01*
X-12654Y33096D01*
X-12671Y33012D01*
X-12654Y32927D01*
X-12606Y32856D01*
X-12535Y32808D01*
X-12450Y32791D01*
X-12366Y32808D01*
X-12301Y32851D01*
X-11530D01*
X-11530Y32851D01*
X-11469Y32863D01*
X-11417Y32898D01*
X-10206Y34109D01*
X-10206Y34109D01*
X-10171Y34161D01*
X-10159Y34222D01*
X-10159Y34222D01*
Y36960D01*
X-10086D01*
Y35317D01*
X-10086Y35317D01*
X-10074Y35256D01*
X-10039Y35204D01*
X-8724Y33888D01*
X-8672Y33853D01*
X-8610Y33841D01*
X-8610Y33841D01*
X-4889D01*
Y33476D01*
X-4871Y33431D01*
X-4825Y33412D01*
X-4235D01*
X-4232Y33414D01*
X-4191Y33386D01*
Y33272D01*
X-4191Y33272D01*
X-4178Y33210D01*
X-4144Y33158D01*
X-3868Y32882D01*
X-3875Y32864D01*
X-3887Y32772D01*
X-3875Y32679D01*
X-3840Y32593D01*
X-3783Y32519D01*
X-3709Y32462D01*
X-3623Y32426D01*
X-3530Y32414D01*
X-3438Y32426D01*
X-3351Y32462D01*
X-3277Y32519D01*
X-3221Y32593D01*
X-3185Y32679D01*
X-3173Y32772D01*
X-3185Y32864D01*
X-3192Y32882D01*
X-2937Y33138D01*
X-2937Y33138D01*
X-2902Y33190D01*
X-2890Y33252D01*
X-2890Y33252D01*
Y33583D01*
X-2840Y33593D01*
X-2783Y33519D01*
X-2709Y33462D01*
X-2623Y33426D01*
X-2530Y33414D01*
X-2438Y33426D01*
X-2419Y33434D01*
X-2111Y33125D01*
Y29838D01*
X-3658Y28291D01*
X-3692Y28239D01*
X-3705Y28178D01*
X-3705Y28178D01*
Y18741D01*
X-3741D01*
X-3786Y18722D01*
X-3805Y18677D01*
Y18362D01*
X-3786Y18317D01*
X-3741Y18298D01*
X-3347D01*
X-3302Y18317D01*
X-3283Y18362D01*
Y18677D01*
X-3302Y18722D01*
X-3347Y18741D01*
X-3384D01*
Y28111D01*
X-1837Y29658D01*
X-1802Y29710D01*
X-1790Y29772D01*
X-1790Y29772D01*
Y33192D01*
X-1790Y33192D01*
X-1802Y33253D01*
X-1837Y33305D01*
X-2192Y33661D01*
X-2185Y33679D01*
X-2173Y33772D01*
X-2185Y33864D01*
X-2221Y33950D01*
X-2277Y34024D01*
X-2351Y34081D01*
X-2438Y34117D01*
X-2530Y34129D01*
X-2623Y34117D01*
X-2709Y34081D01*
X-2783Y34024D01*
X-2840Y33950D01*
X-2890Y33960D01*
Y34205D01*
X-2253Y34841D01*
X-2253Y34841D01*
X-2219Y34893D01*
X-2206Y34955D01*
Y43231D01*
X-2206Y43231D01*
X-2219Y43292D01*
X-2253Y43345D01*
X-2253Y43345D01*
X-5229Y46320D01*
X-5281Y46355D01*
X-5343Y46367D01*
X-5343Y46367D01*
X-12385D01*
X-12385Y46367D01*
X-12447Y46355D01*
X-12499Y46320D01*
X-12499Y46320D01*
X-13179Y45640D01*
X-19265D01*
X-19265Y45640D01*
X-19327Y45628D01*
X-19379Y45593D01*
X-22057Y42915D01*
X-27132D01*
X-27140Y42935D01*
X-27147Y42971D01*
X-27140Y43008D01*
X-27132Y43027D01*
X-24640D01*
X-24575Y42984D01*
X-24490Y42967D01*
X-24406Y42984D01*
X-24334Y43032D01*
X-24286Y43103D01*
X-24269Y43188D01*
X-24286Y43272D01*
X-24334Y43344D01*
X-24406Y43392D01*
X-24490Y43409D01*
X-24575Y43392D01*
X-24640Y43348D01*
X-27132D01*
X-27140Y43368D01*
X-27147Y43404D01*
X-27140Y43441D01*
X-27132Y43460D01*
X-21990D01*
X-21990Y43460D01*
X-21929Y43473D01*
X-21877Y43507D01*
X-19199Y46185D01*
X-13471D01*
X-13471Y46185D01*
X-13410Y46197D01*
X-13358Y46232D01*
X-12931Y46659D01*
X-4797D01*
X-1661Y43523D01*
Y36007D01*
X-1898Y35771D01*
X-1975Y35756D01*
X-2046Y35708D01*
X-2094Y35636D01*
X-2111Y35552D01*
X-2094Y35467D01*
X-2046Y35396D01*
X-1975Y35348D01*
X-1890Y35331D01*
X-1806Y35348D01*
X-1734Y35396D01*
X-1686Y35467D01*
X-1671Y35544D01*
X-1387Y35827D01*
X-1387Y35827D01*
X-1353Y35879D01*
X-1340Y35941D01*
Y43590D01*
X-1340Y43590D01*
X-1353Y43651D01*
X-1387Y43703D01*
X-1387Y43703D01*
X-4617Y46933D01*
X-4669Y46968D01*
X-4679Y46970D01*
X-4730Y46980D01*
D02*
G37*
G36*
X-4118Y47592D02*
X-4118Y47592D01*
X-13610D01*
X-13610Y47592D01*
X-13672Y47580D01*
X-13724Y47545D01*
X-13897Y47372D01*
X-19265D01*
X-19265Y47372D01*
X-19327Y47360D01*
X-19379Y47325D01*
X-22057Y44648D01*
X-27132D01*
X-27140Y44667D01*
X-27147Y44704D01*
X-27140Y44740D01*
X-27131Y44763D01*
Y45078D01*
X-27150Y45123D01*
X-27195Y45141D01*
X-27785D01*
X-27831Y45123D01*
X-27849Y45078D01*
Y44763D01*
X-27840Y44740D01*
X-27833Y44704D01*
X-27840Y44667D01*
X-27849Y44644D01*
Y44330D01*
X-27831Y44284D01*
X-27785Y44266D01*
X-27195D01*
X-27150Y44284D01*
X-27132Y44326D01*
X-21990D01*
X-21990Y44326D01*
X-21929Y44339D01*
X-21877Y44373D01*
X-19199Y47051D01*
X-13830D01*
X-13830Y47051D01*
X-13769Y47063D01*
X-13717Y47098D01*
X-13544Y47271D01*
X-4184D01*
X-795Y43882D01*
Y36562D01*
X-816Y36548D01*
X-864Y36476D01*
X-881Y36392D01*
X-864Y36307D01*
X-816Y36236D01*
X-745Y36188D01*
X-660Y36171D01*
X-576Y36188D01*
X-504Y36236D01*
X-456Y36307D01*
X-439Y36392D01*
X-456Y36476D01*
X-474Y36503D01*
Y43949D01*
X-486Y44010D01*
X-521Y44062D01*
X-521Y44062D01*
X-2070Y45611D01*
X-2047Y45659D01*
X-1975Y45652D01*
X-1972Y45653D01*
X-1969Y45651D01*
X-1965Y45653D01*
X-1962Y45652D01*
X-1837Y45664D01*
X-1831Y45667D01*
X-1825Y45667D01*
X-1704Y45703D01*
X-1699Y45707D01*
X-1692Y45708D01*
X-1581Y45767D01*
X-1577Y45772D01*
X-1571Y45774D01*
X-1473Y45854D01*
X-1470Y45860D01*
X-1465Y45863D01*
X-1385Y45961D01*
X-1383Y45967D01*
X-1378Y45971D01*
X-1318Y46082D01*
X-1318Y46089D01*
X-1313Y46094D01*
X-1277Y46214D01*
X-1277Y46221D01*
X-1274Y46227D01*
X-1262Y46352D01*
X-1264Y46358D01*
X-1262Y46365D01*
X-1274Y46490D01*
X-1277Y46496D01*
X-1277Y46502D01*
X-1313Y46623D01*
X-1318Y46628D01*
X-1318Y46634D01*
X-1378Y46746D01*
X-1383Y46750D01*
X-1385Y46756D01*
X-1465Y46853D01*
X-1470Y46856D01*
X-1473Y46862D01*
X-1571Y46942D01*
X-1577Y46944D01*
X-1581Y46949D01*
X-1692Y47009D01*
X-1699Y47009D01*
X-1704Y47013D01*
X-1825Y47050D01*
X-1831Y47049D01*
X-1837Y47052D01*
X-1962Y47065D01*
X-1965Y47064D01*
X-1969Y47065D01*
X-1972Y47064D01*
X-1975Y47065D01*
X-2100Y47052D01*
X-2106Y47049D01*
X-2112Y47050D01*
X-2233Y47013D01*
X-2238Y47009D01*
X-2245Y47009D01*
X-2356Y46949D01*
X-2360Y46944D01*
X-2366Y46942D01*
X-2464Y46862D01*
X-2467Y46856D01*
X-2472Y46853D01*
X-2552Y46756D01*
X-2554Y46750D01*
X-2559Y46746D01*
X-2619Y46634D01*
X-2619Y46628D01*
X-2624Y46623D01*
X-2660Y46502D01*
X-2660Y46496D01*
X-2663Y46490D01*
X-2675Y46365D01*
X-2673Y46358D01*
X-2675Y46352D01*
X-2668Y46279D01*
X-2716Y46257D01*
X-4004Y47545D01*
X-4056Y47580D01*
X-4067Y47582D01*
X-4118Y47592D01*
D02*
G37*
G36*
X-38544Y47929D02*
X-38583Y47929D01*
X-38583Y47929D01*
X-38621D01*
X-38696Y47914D01*
X-38767Y47885D01*
X-38831Y47842D01*
X-38886Y47788D01*
X-38928Y47724D01*
X-38958Y47653D01*
X-38973Y47578D01*
Y47539D01*
X-38973Y47501D01*
X-38958Y47426D01*
X-38928Y47355D01*
X-38886Y47291D01*
X-38831Y47236D01*
X-38767Y47194D01*
X-38696Y47164D01*
X-38632Y47151D01*
X-38621Y47149D01*
X-38583Y47149D01*
X-38583Y47149D01*
X-38583Y47149D01*
X-38544Y47149D01*
X-38534Y47152D01*
X-38469Y47164D01*
X-38398Y47194D01*
X-38334Y47236D01*
X-38280Y47291D01*
X-38237Y47355D01*
X-38208Y47426D01*
X-38193Y47501D01*
X-38193Y47539D01*
X-38193Y47539D01*
X-38193Y47578D01*
X-38208Y47653D01*
X-38237Y47724D01*
X-38280Y47788D01*
X-38334Y47842D01*
X-38398Y47885D01*
X-38469Y47914D01*
X-38544Y47929D01*
D02*
G37*
G36*
X-6890Y45186D02*
X-6894Y45185D01*
X-6898Y45186D01*
X-7027Y45169D01*
X-7034Y45164D01*
X-7043D01*
X-7162Y45115D01*
X-7169Y45109D01*
X-7177Y45107D01*
X-7280Y45028D01*
X-7284Y45020D01*
X-7291Y45016D01*
X-7370Y44913D01*
X-7373Y44905D01*
X-7379Y44899D01*
X-7428Y44779D01*
Y44770D01*
X-7433Y44763D01*
X-7450Y44634D01*
X-7447Y44626D01*
X-7450Y44618D01*
X-7433Y44489D01*
X-7428Y44482D01*
Y44473D01*
X-7379Y44353D01*
X-7373Y44347D01*
X-7370Y44339D01*
X-7291Y44236D01*
X-7284Y44232D01*
X-7280Y44224D01*
X-7177Y44145D01*
X-7169Y44143D01*
X-7162Y44137D01*
X-7043Y44087D01*
X-7034D01*
X-7027Y44083D01*
X-6898Y44066D01*
X-6894Y44067D01*
X-6890Y44066D01*
X-6886Y44067D01*
X-6881Y44066D01*
X-6753Y44083D01*
X-6745Y44087D01*
X-6737D01*
X-6617Y44137D01*
X-6611Y44143D01*
X-6603Y44145D01*
X-6500Y44224D01*
X-6496Y44232D01*
X-6488Y44236D01*
X-6409Y44339D01*
X-6407Y44347D01*
X-6401Y44353D01*
X-6351Y44473D01*
Y44482D01*
X-6347Y44489D01*
X-6330Y44618D01*
X-6332Y44626D01*
X-6330Y44634D01*
X-6347Y44763D01*
X-6351Y44770D01*
Y44779D01*
X-6401Y44899D01*
X-6407Y44905D01*
X-6409Y44913D01*
X-6488Y45016D01*
X-6496Y45020D01*
X-6500Y45028D01*
X-6603Y45107D01*
X-6611Y45109D01*
X-6617Y45115D01*
X-6737Y45164D01*
X-6745D01*
X-6753Y45169D01*
X-6881Y45186D01*
X-6886Y45185D01*
X-6890Y45186D01*
D02*
G37*
G36*
X-8353Y44928D02*
X-8747D01*
X-8792Y44910D01*
X-8811Y44864D01*
Y44550D01*
X-8792Y44504D01*
X-8758Y44490D01*
X-8739Y44453D01*
X-8734Y44436D01*
X-8754Y44406D01*
X-8771Y44322D01*
X-8754Y44237D01*
X-8711Y44172D01*
Y43883D01*
X-8804D01*
X-8843Y43866D01*
X-8883Y43883D01*
X-9001D01*
X-9040Y43866D01*
X-9079Y43883D01*
X-9197D01*
X-9237Y43866D01*
X-9276Y43883D01*
X-9394D01*
X-9434Y43866D01*
X-9473Y43883D01*
X-9591D01*
X-9631Y43866D01*
X-9670Y43883D01*
X-9788D01*
X-9827Y43866D01*
X-9867Y43883D01*
X-9985D01*
X-10024Y43866D01*
X-10064Y43883D01*
X-10182D01*
X-10221Y43866D01*
X-10260Y43883D01*
X-10379D01*
X-10418Y43866D01*
X-10457Y43883D01*
X-10575D01*
X-10621Y43864D01*
X-10639Y43819D01*
Y43228D01*
X-10621Y43183D01*
X-10575Y43164D01*
X-10457D01*
X-10418Y43181D01*
X-10379Y43164D01*
X-10260D01*
X-10221Y43181D01*
X-10182Y43164D01*
X-10064D01*
X-10024Y43181D01*
X-9985Y43164D01*
X-9867D01*
X-9827Y43181D01*
X-9788Y43164D01*
X-9670D01*
X-9631Y43181D01*
X-9591Y43164D01*
X-9473D01*
X-9434Y43181D01*
X-9394Y43164D01*
X-9276D01*
X-9237Y43181D01*
X-9197Y43164D01*
X-9079D01*
X-9040Y43181D01*
X-9001Y43164D01*
X-8883D01*
X-8843Y43181D01*
X-8804Y43164D01*
X-8686D01*
X-8646Y43181D01*
X-8607Y43164D01*
X-8489D01*
X-8444Y43183D01*
X-8425Y43228D01*
Y43424D01*
X-8400Y43462D01*
X-8387Y43523D01*
X-8390Y43535D01*
Y44172D01*
X-8346Y44237D01*
X-8329Y44322D01*
X-8346Y44406D01*
X-8366Y44436D01*
X-8362Y44453D01*
X-8342Y44490D01*
X-8308Y44504D01*
X-8289Y44550D01*
Y44864D01*
X-8308Y44910D01*
X-8353Y44928D01*
D02*
G37*
G36*
X-4749Y42906D02*
X-5340D01*
X-5385Y42888D01*
X-5404Y42843D01*
Y42724D01*
X-5387Y42685D01*
X-5404Y42646D01*
Y42528D01*
X-5387Y42488D01*
X-5404Y42449D01*
Y42331D01*
X-5387Y42291D01*
X-5404Y42252D01*
Y42134D01*
X-5387Y42094D01*
X-5404Y42055D01*
Y41937D01*
X-5385Y41892D01*
X-5340Y41873D01*
X-5144D01*
X-5106Y41848D01*
X-5045Y41835D01*
X-4500D01*
X-4435Y41792D01*
X-4350Y41775D01*
X-4266Y41792D01*
X-4206Y41832D01*
X-4156Y41819D01*
Y41795D01*
X-4137Y41750D01*
X-4092Y41731D01*
X-3777D01*
X-3732Y41750D01*
X-3713Y41795D01*
Y42189D01*
X-3732Y42234D01*
X-3777Y42252D01*
X-4092D01*
X-4137Y42234D01*
X-4156Y42189D01*
Y42173D01*
X-4206Y42160D01*
X-4266Y42200D01*
X-4350Y42217D01*
X-4435Y42200D01*
X-4500Y42157D01*
X-4685D01*
Y42252D01*
X-4702Y42291D01*
X-4685Y42331D01*
Y42449D01*
X-4702Y42488D01*
X-4685Y42528D01*
Y42646D01*
X-4702Y42685D01*
X-4685Y42724D01*
Y42843D01*
X-4704Y42888D01*
X-4749Y42906D01*
D02*
G37*
G36*
X-32480Y45186D02*
X-32484Y45185D01*
X-32489Y45186D01*
X-32617Y45169D01*
X-32625Y45164D01*
X-32633D01*
X-32753Y45115D01*
X-32759Y45109D01*
X-32767Y45107D01*
X-32870Y45028D01*
X-32875Y45020D01*
X-32882Y45016D01*
X-32961Y44913D01*
X-32963Y44905D01*
X-32969Y44899D01*
X-33019Y44779D01*
Y44770D01*
X-33023Y44763D01*
X-33040Y44634D01*
X-33038Y44626D01*
X-33040Y44618D01*
X-33023Y44489D01*
X-33019Y44482D01*
Y44473D01*
X-32969Y44353D01*
X-32963Y44347D01*
X-32961Y44339D01*
X-32882Y44236D01*
X-32875Y44232D01*
X-32870Y44224D01*
X-32767Y44145D01*
X-32759Y44143D01*
X-32753Y44137D01*
X-32633Y44087D01*
X-32625D01*
X-32617Y44083D01*
X-32489Y44066D01*
X-32484Y44067D01*
X-32480Y44066D01*
X-32476Y44067D01*
X-32472Y44066D01*
X-32343Y44083D01*
X-32336Y44087D01*
X-32327D01*
X-32208Y44137D01*
X-32202Y44143D01*
X-32193Y44145D01*
X-32090Y44224D01*
X-32086Y44232D01*
X-32079Y44236D01*
X-32000Y44339D01*
X-31997Y44347D01*
X-31991Y44353D01*
X-31942Y44473D01*
Y44482D01*
X-31937Y44489D01*
X-31921Y44618D01*
X-31923Y44626D01*
X-31921Y44634D01*
X-31937Y44763D01*
X-31942Y44770D01*
Y44779D01*
X-31991Y44899D01*
X-31997Y44905D01*
X-32000Y44913D01*
X-32079Y45016D01*
X-32086Y45020D01*
X-32090Y45028D01*
X-32193Y45107D01*
X-32202Y45109D01*
X-32208Y45115D01*
X-32327Y45164D01*
X-32336D01*
X-32343Y45169D01*
X-32472Y45186D01*
X-32476Y45185D01*
X-32480Y45186D01*
D02*
G37*
G36*
X-5733Y43883D02*
X-5851D01*
X-5890Y43866D01*
X-5930Y43883D01*
X-6048D01*
X-6087Y43866D01*
X-6127Y43883D01*
X-6245D01*
X-6284Y43866D01*
X-6323Y43883D01*
X-6442D01*
X-6481Y43866D01*
X-6520Y43883D01*
X-6638D01*
X-6678Y43866D01*
X-6717Y43883D01*
X-6835D01*
X-6875Y43866D01*
X-6914Y43883D01*
X-7032D01*
X-7071Y43866D01*
X-7111Y43883D01*
X-7229D01*
X-7268Y43866D01*
X-7308Y43883D01*
X-7426D01*
X-7465Y43866D01*
X-7505Y43883D01*
X-7623D01*
X-7662Y43866D01*
X-7701Y43883D01*
X-7820D01*
X-7859Y43866D01*
X-7898Y43883D01*
X-8016D01*
X-8056Y43866D01*
X-8095Y43883D01*
X-8213D01*
X-8258Y43864D01*
X-8277Y43819D01*
Y43228D01*
X-8258Y43183D01*
X-8213Y43164D01*
X-8095D01*
X-8056Y43181D01*
X-8016Y43164D01*
X-7898D01*
X-7859Y43181D01*
X-7820Y43164D01*
X-7701D01*
X-7662Y43181D01*
X-7623Y43164D01*
X-7505D01*
X-7465Y43181D01*
X-7426Y43164D01*
X-7308D01*
X-7268Y43181D01*
X-7229Y43164D01*
X-7111D01*
X-7071Y43181D01*
X-7032Y43164D01*
X-6914D01*
X-6875Y43181D01*
X-6835Y43164D01*
X-6717D01*
X-6678Y43181D01*
X-6638Y43164D01*
X-6520D01*
X-6481Y43181D01*
X-6442Y43164D01*
X-6323D01*
X-6284Y43181D01*
X-6245Y43164D01*
X-6127D01*
X-6087Y43181D01*
X-6048Y43164D01*
X-5930D01*
X-5890Y43181D01*
X-5851Y43164D01*
X-5733D01*
X-5688Y43183D01*
X-5669Y43228D01*
Y43819D01*
X-5688Y43864D01*
X-5733Y43883D01*
D02*
G37*
G36*
X-24409Y26297D02*
X-24413Y26296D01*
X-24416Y26297D01*
X-24541Y26285D01*
X-24547Y26282D01*
X-24553Y26282D01*
X-24674Y26246D01*
X-24679Y26241D01*
X-24686Y26241D01*
X-24797Y26181D01*
X-24801Y26176D01*
X-24807Y26174D01*
X-24905Y26095D01*
X-24908Y26089D01*
X-24913Y26086D01*
X-24993Y25988D01*
X-24995Y25982D01*
X-25000Y25978D01*
X-25060Y25867D01*
X-25060Y25860D01*
X-25065Y25855D01*
X-25101Y25735D01*
X-25100Y25728D01*
X-25104Y25722D01*
X-25116Y25597D01*
X-25114Y25591D01*
X-25116Y25584D01*
X-25104Y25459D01*
X-25100Y25453D01*
X-25101Y25447D01*
X-25065Y25326D01*
X-25060Y25321D01*
X-25060Y25314D01*
X-25000Y25203D01*
X-24995Y25199D01*
X-24993Y25193D01*
X-24913Y25095D01*
X-24908Y25092D01*
X-24905Y25087D01*
X-24807Y25007D01*
X-24801Y25005D01*
X-24797Y25000D01*
X-24686Y24940D01*
X-24679Y24940D01*
X-24674Y24935D01*
X-24553Y24899D01*
X-24547Y24900D01*
X-24541Y24896D01*
X-24416Y24884D01*
X-24413Y24885D01*
X-24409Y24884D01*
X-24406Y24885D01*
X-24403Y24884D01*
X-24278Y24896D01*
X-24272Y24900D01*
X-24265Y24899D01*
X-24145Y24935D01*
X-24140Y24940D01*
X-24133Y24940D01*
X-24022Y25000D01*
X-24018Y25005D01*
X-24012Y25007D01*
X-23914Y25087D01*
X-23911Y25092D01*
X-23905Y25095D01*
X-23826Y25193D01*
X-23824Y25199D01*
X-23819Y25203D01*
X-23759Y25314D01*
X-23759Y25321D01*
X-23754Y25326D01*
X-23718Y25447D01*
X-23718Y25453D01*
X-23715Y25459D01*
X-23703Y25584D01*
X-23705Y25591D01*
X-23703Y25597D01*
X-23715Y25722D01*
X-23718Y25728D01*
X-23718Y25735D01*
X-23754Y25855D01*
X-23759Y25860D01*
X-23759Y25867D01*
X-23819Y25978D01*
X-23824Y25982D01*
X-23826Y25988D01*
X-23905Y26086D01*
X-23911Y26089D01*
X-23914Y26095D01*
X-24012Y26174D01*
X-24018Y26176D01*
X-24022Y26181D01*
X-24133Y26241D01*
X-24140Y26241D01*
X-24145Y26246D01*
X-24265Y26282D01*
X-24272Y26282D01*
X-24278Y26285D01*
X-24403Y26297D01*
X-24406Y26296D01*
X-24409Y26297D01*
D02*
G37*
G36*
X-13400Y32332D02*
X-13485Y32316D01*
X-13556Y32268D01*
X-13604Y32196D01*
X-13619Y32120D01*
X-15087Y30652D01*
X-19650D01*
X-19650Y30652D01*
X-19712Y30640D01*
X-19764Y30605D01*
X-19764Y30605D01*
X-20777Y29591D01*
X-21063D01*
X-21108Y29573D01*
X-21127Y29528D01*
Y29213D01*
X-21108Y29167D01*
X-21063Y29149D01*
X-20669D01*
X-20624Y29167D01*
X-20605Y29213D01*
Y29309D01*
X-19584Y30331D01*
X-15020D01*
X-15020Y30331D01*
X-14959Y30343D01*
X-14907Y30378D01*
X-13392Y31892D01*
X-13316Y31908D01*
X-13244Y31956D01*
X-13196Y32027D01*
X-13179Y32112D01*
X-13196Y32196D01*
X-13244Y32268D01*
X-13316Y32316D01*
X-13400Y32332D01*
D02*
G37*
G36*
X-14320Y34212D02*
X-14405Y34196D01*
X-14476Y34148D01*
X-14524Y34076D01*
X-14541Y33992D01*
X-14524Y33907D01*
X-14476Y33836D01*
X-14405Y33788D01*
X-14328Y33772D01*
X-11184Y30629D01*
Y27097D01*
X-11252Y27069D01*
X-11347Y26996D01*
X-11419Y26902D01*
X-11465Y26791D01*
X-11480Y26673D01*
X-11465Y26555D01*
X-11419Y26445D01*
X-11347Y26350D01*
X-11291Y26308D01*
X-11308Y26258D01*
X-12641D01*
X-12658Y26300D01*
X-12703Y26318D01*
X-13097D01*
X-13142Y26300D01*
X-13161Y26254D01*
Y25940D01*
X-13142Y25894D01*
X-13097Y25876D01*
X-12703D01*
X-12658Y25894D01*
X-12641Y25936D01*
X-11184D01*
Y25128D01*
X-11252Y25100D01*
X-11347Y25028D01*
X-11419Y24933D01*
X-11465Y24823D01*
X-11480Y24705D01*
X-11465Y24587D01*
X-11419Y24476D01*
X-11347Y24382D01*
X-11252Y24309D01*
X-11142Y24264D01*
X-11024Y24248D01*
X-10905Y24264D01*
X-10795Y24309D01*
X-10701Y24382D01*
X-10628Y24476D01*
X-10583Y24587D01*
X-10567Y24705D01*
X-10583Y24823D01*
X-10628Y24933D01*
X-10701Y25028D01*
X-10795Y25100D01*
X-10863Y25128D01*
Y26082D01*
Y26250D01*
X-10795Y26278D01*
X-10701Y26350D01*
X-10628Y26445D01*
X-10583Y26555D01*
X-10567Y26673D01*
X-10583Y26791D01*
X-10628Y26902D01*
X-10701Y26996D01*
X-10795Y27069D01*
X-10863Y27097D01*
Y30695D01*
X-10863Y30695D01*
X-10875Y30757D01*
X-10910Y30809D01*
X-10910Y30809D01*
X-14101Y34000D01*
X-14116Y34076D01*
X-14164Y34148D01*
X-14236Y34196D01*
X-14320Y34212D01*
D02*
G37*
G36*
X-19843Y29496D02*
X-20158D01*
X-20203Y29477D01*
X-20222Y29432D01*
Y29039D01*
X-20203Y28993D01*
X-20201Y28992D01*
Y28869D01*
X-20207D01*
X-20225Y28861D01*
X-20607D01*
X-20624Y28903D01*
X-20669Y28922D01*
X-21063D01*
X-21108Y28903D01*
X-21127Y28858D01*
Y28543D01*
X-21108Y28498D01*
X-21063Y28479D01*
X-20669D01*
X-20624Y28498D01*
X-20607Y28540D01*
X-20271D01*
Y28411D01*
X-20253Y28366D01*
X-20207Y28347D01*
X-19873D01*
X-19828Y28366D01*
X-19809Y28411D01*
Y28805D01*
X-19828Y28850D01*
X-19873Y28869D01*
X-19880D01*
Y28975D01*
X-19843D01*
X-19798Y28993D01*
X-19779Y29039D01*
Y29432D01*
X-19798Y29477D01*
X-19843Y29496D01*
D02*
G37*
G36*
X-19499Y27924D02*
X-19833D01*
X-19879Y27905D01*
X-19897Y27860D01*
Y27466D01*
X-19879Y27421D01*
X-19833Y27402D01*
X-19827D01*
Y27280D01*
X-19888Y27219D01*
X-19951D01*
X-19996Y27201D01*
X-20015Y27156D01*
Y26978D01*
X-19996Y26933D01*
X-19951Y26914D01*
X-19854D01*
X-19813Y26906D01*
X-19813Y26906D01*
X-17915D01*
X-17850Y26863D01*
X-17765Y26846D01*
X-17681Y26863D01*
X-17609Y26911D01*
X-17561Y26982D01*
X-17545Y27067D01*
X-17561Y27151D01*
X-17609Y27223D01*
X-17681Y27271D01*
X-17765Y27288D01*
X-17850Y27271D01*
X-17915Y27227D01*
X-19506D01*
Y27402D01*
X-19499D01*
X-19454Y27421D01*
X-19435Y27466D01*
Y27860D01*
X-19454Y27905D01*
X-19499Y27924D01*
D02*
G37*
G36*
X-14961Y26297D02*
X-14964Y26296D01*
X-14967Y26297D01*
X-15092Y26285D01*
X-15098Y26282D01*
X-15105Y26282D01*
X-15225Y26246D01*
X-15230Y26241D01*
X-15237Y26241D01*
X-15348Y26181D01*
X-15352Y26176D01*
X-15358Y26174D01*
X-15456Y26095D01*
X-15459Y26089D01*
X-15465Y26086D01*
X-15545Y25988D01*
X-15546Y25982D01*
X-15552Y25978D01*
X-15611Y25867D01*
X-15612Y25860D01*
X-15616Y25855D01*
X-15652Y25735D01*
X-15652Y25728D01*
X-15655Y25722D01*
X-15667Y25597D01*
X-15665Y25591D01*
X-15667Y25584D01*
X-15655Y25459D01*
X-15652Y25453D01*
X-15652Y25447D01*
X-15616Y25326D01*
X-15612Y25321D01*
X-15611Y25314D01*
X-15552Y25203D01*
X-15546Y25199D01*
X-15545Y25193D01*
X-15465Y25095D01*
X-15459Y25092D01*
X-15456Y25087D01*
X-15358Y25007D01*
X-15352Y25005D01*
X-15348Y25000D01*
X-15237Y24940D01*
X-15230Y24940D01*
X-15225Y24935D01*
X-15105Y24899D01*
X-15098Y24900D01*
X-15092Y24896D01*
X-14967Y24884D01*
X-14964Y24885D01*
X-14961Y24884D01*
X-14958Y24885D01*
X-14954Y24884D01*
X-14829Y24896D01*
X-14823Y24900D01*
X-14817Y24899D01*
X-14696Y24935D01*
X-14691Y24940D01*
X-14684Y24940D01*
X-14573Y25000D01*
X-14569Y25005D01*
X-14563Y25007D01*
X-14466Y25087D01*
X-14462Y25092D01*
X-14457Y25095D01*
X-14377Y25193D01*
X-14375Y25199D01*
X-14370Y25203D01*
X-14310Y25314D01*
X-14310Y25321D01*
X-14306Y25326D01*
X-14269Y25447D01*
X-14270Y25453D01*
X-14267Y25459D01*
X-14254Y25584D01*
X-14256Y25591D01*
X-14254Y25597D01*
X-14267Y25722D01*
X-14270Y25728D01*
X-14269Y25735D01*
X-14306Y25855D01*
X-14310Y25860D01*
X-14310Y25867D01*
X-14370Y25978D01*
X-14375Y25982D01*
X-14377Y25988D01*
X-14457Y26086D01*
X-14462Y26089D01*
X-14466Y26095D01*
X-14563Y26174D01*
X-14569Y26176D01*
X-14573Y26181D01*
X-14684Y26241D01*
X-14691Y26241D01*
X-14696Y26246D01*
X-14817Y26282D01*
X-14823Y26282D01*
X-14829Y26285D01*
X-14954Y26297D01*
X-14958Y26296D01*
X-14961Y26297D01*
D02*
G37*
G36*
X-9055Y27130D02*
X-9173Y27114D01*
X-9283Y27069D01*
X-9378Y26996D01*
X-9451Y26902D01*
X-9496Y26791D01*
X-9512Y26673D01*
X-9496Y26555D01*
X-9451Y26445D01*
X-9378Y26350D01*
X-9283Y26278D01*
X-9173Y26232D01*
X-9055Y26217D01*
X-8937Y26232D01*
X-8827Y26278D01*
X-8732Y26350D01*
X-8660Y26445D01*
X-8614Y26555D01*
X-8598Y26673D01*
X-8614Y26791D01*
X-8660Y26902D01*
X-8732Y26996D01*
X-8827Y27069D01*
X-8937Y27114D01*
X-9055Y27130D01*
D02*
G37*
G36*
X-32480Y32155D02*
X-32484Y32153D01*
X-32489Y32154D01*
X-32617Y32137D01*
X-32625Y32133D01*
X-32633D01*
X-32753Y32083D01*
X-32759Y32077D01*
X-32767Y32075D01*
X-32870Y31996D01*
X-32875Y31989D01*
X-32882Y31984D01*
X-32961Y31882D01*
X-32963Y31873D01*
X-32969Y31867D01*
X-33019Y31747D01*
Y31739D01*
X-33023Y31731D01*
X-33040Y31603D01*
X-33038Y31594D01*
X-33040Y31586D01*
X-33023Y31458D01*
X-33019Y31450D01*
Y31442D01*
X-32969Y31322D01*
X-32963Y31316D01*
X-32961Y31307D01*
X-32882Y31205D01*
X-32875Y31200D01*
X-32870Y31193D01*
X-32767Y31114D01*
X-32759Y31112D01*
X-32753Y31106D01*
X-32633Y31056D01*
X-32625D01*
X-32617Y31052D01*
X-32489Y31035D01*
X-32484Y31036D01*
X-32480Y31034D01*
X-32476Y31036D01*
X-32472Y31035D01*
X-32343Y31052D01*
X-32336Y31056D01*
X-32327D01*
X-32208Y31106D01*
X-32202Y31112D01*
X-32193Y31114D01*
X-32090Y31193D01*
X-32086Y31200D01*
X-32079Y31205D01*
X-32000Y31307D01*
X-31997Y31316D01*
X-31991Y31322D01*
X-31942Y31442D01*
Y31450D01*
X-31937Y31458D01*
X-31921Y31586D01*
X-31923Y31594D01*
X-31921Y31603D01*
X-31937Y31731D01*
X-31942Y31739D01*
Y31747D01*
X-31991Y31867D01*
X-31997Y31873D01*
X-32000Y31882D01*
X-32079Y31984D01*
X-32086Y31989D01*
X-32090Y31996D01*
X-32193Y32075D01*
X-32202Y32077D01*
X-32208Y32083D01*
X-32327Y32133D01*
X-32336D01*
X-32343Y32137D01*
X-32472Y32154D01*
X-32476Y32153D01*
X-32480Y32155D01*
D02*
G37*
G36*
X-9055Y25161D02*
X-9173Y25146D01*
X-9283Y25100D01*
X-9378Y25028D01*
X-9451Y24933D01*
X-9496Y24823D01*
X-9512Y24705D01*
X-9496Y24587D01*
X-9451Y24476D01*
X-9378Y24382D01*
X-9283Y24309D01*
X-9173Y24264D01*
X-9055Y24248D01*
X-8937Y24264D01*
X-8827Y24309D01*
X-8732Y24382D01*
X-8660Y24476D01*
X-8614Y24587D01*
X-8598Y24705D01*
X-8614Y24823D01*
X-8660Y24933D01*
X-8732Y25028D01*
X-8827Y25100D01*
X-8937Y25146D01*
X-9055Y25161D01*
D02*
G37*
G36*
X-21185Y27227D02*
X-21246Y27215D01*
X-21298Y27180D01*
X-21828Y26651D01*
X-21905Y26636D01*
X-21976Y26588D01*
X-22024Y26516D01*
X-22041Y26432D01*
X-22024Y26347D01*
X-21976Y26276D01*
X-21905Y26228D01*
X-21820Y26211D01*
X-21736Y26228D01*
X-21664Y26276D01*
X-21616Y26347D01*
X-21601Y26424D01*
X-21118Y26906D01*
X-20344D01*
X-20304Y26914D01*
X-20207D01*
X-20161Y26933D01*
X-20143Y26978D01*
Y27156D01*
X-20161Y27201D01*
X-20207Y27219D01*
X-20304D01*
X-20344Y27227D01*
X-21185D01*
X-21185Y27227D01*
D02*
G37*
G36*
X-4530Y33129D02*
X-4623Y33117D01*
X-4709Y33081D01*
X-4783Y33024D01*
X-4840Y32950D01*
X-4875Y32864D01*
X-4887Y32772D01*
X-4875Y32679D01*
X-4840Y32593D01*
X-4783Y32519D01*
X-4709Y32462D01*
X-4691Y32455D01*
Y25172D01*
X-4735Y25148D01*
X-4746Y25156D01*
X-4830Y25172D01*
X-4915Y25156D01*
X-4986Y25108D01*
X-5034Y25036D01*
X-5049Y24960D01*
X-5247Y24762D01*
X-5921D01*
X-5986Y24806D01*
X-6070Y24822D01*
X-6155Y24806D01*
X-6226Y24758D01*
X-6274Y24686D01*
X-6291Y24602D01*
X-6274Y24517D01*
X-6226Y24446D01*
X-6155Y24398D01*
X-6070Y24381D01*
X-5986Y24398D01*
X-5921Y24441D01*
X-5180D01*
X-5180Y24441D01*
X-5119Y24453D01*
X-5067Y24488D01*
X-4822Y24732D01*
X-4746Y24748D01*
X-4735Y24755D01*
X-4691Y24731D01*
Y23371D01*
X-4741Y23349D01*
X-4796Y23386D01*
X-4880Y23402D01*
X-4965Y23386D01*
X-5036Y23338D01*
X-5084Y23266D01*
X-5099Y23190D01*
X-5527Y22762D01*
X-5951D01*
X-6016Y22806D01*
X-6092Y22821D01*
X-6264Y22993D01*
Y23237D01*
X-6221Y23302D01*
X-6204Y23387D01*
X-6221Y23471D01*
X-6269Y23543D01*
X-6341Y23591D01*
X-6425Y23608D01*
X-6509Y23591D01*
X-6581Y23543D01*
X-6629Y23471D01*
X-6646Y23387D01*
X-6629Y23302D01*
X-6586Y23237D01*
Y22927D01*
X-6586Y22927D01*
X-6573Y22865D01*
X-6539Y22813D01*
X-6319Y22594D01*
X-6304Y22517D01*
X-6256Y22446D01*
X-6185Y22398D01*
X-6100Y22381D01*
X-6016Y22398D01*
X-5951Y22441D01*
X-5460D01*
X-5460Y22441D01*
X-5399Y22453D01*
X-5347Y22488D01*
X-4872Y22962D01*
X-4796Y22978D01*
X-4741Y23014D01*
X-4691Y22992D01*
Y21112D01*
X-4691Y21112D01*
X-4678Y21050D01*
X-4644Y20998D01*
X-4469Y20824D01*
X-4454Y20747D01*
X-4406Y20676D01*
X-4335Y20628D01*
X-4250Y20611D01*
X-4166Y20628D01*
X-4094Y20676D01*
X-4046Y20747D01*
X-4029Y20832D01*
X-4046Y20916D01*
X-4094Y20988D01*
X-4166Y21036D01*
X-4242Y21051D01*
X-4370Y21178D01*
Y32455D01*
X-4351Y32462D01*
X-4277Y32519D01*
X-4221Y32593D01*
X-4185Y32679D01*
X-4173Y32772D01*
X-4185Y32864D01*
X-4221Y32950D01*
X-4277Y33024D01*
X-4351Y33081D01*
X-4438Y33117D01*
X-4530Y33129D01*
D02*
G37*
%LPD*%
G36*
X-1563Y13129D02*
X-1489Y13072D01*
X-1403Y13036D01*
X-1310Y13024D01*
X-1218Y13036D01*
X-1199Y13044D01*
X-1001Y12845D01*
Y9032D01*
X-1063D01*
X-1471Y9440D01*
X-1524Y9475D01*
X-1585Y9487D01*
X-1585Y9487D01*
X-1721D01*
X-1743Y9537D01*
X-1716Y9576D01*
X-1703Y9642D01*
X-1716Y9707D01*
X-1753Y9762D01*
X-1771Y9774D01*
Y9824D01*
X-1753Y9836D01*
X-1716Y9891D01*
X-1703Y9957D01*
X-1716Y10022D01*
X-1753Y10077D01*
X-1771Y10089D01*
Y10139D01*
X-1753Y10151D01*
X-1716Y10206D01*
X-1703Y10272D01*
X-1716Y10337D01*
X-1753Y10392D01*
X-1771Y10404D01*
Y10454D01*
X-1753Y10466D01*
X-1716Y10521D01*
X-1703Y10587D01*
X-1716Y10652D01*
X-1753Y10707D01*
X-1771Y10719D01*
Y10769D01*
X-1753Y10781D01*
X-1716Y10836D01*
X-1703Y10902D01*
X-1716Y10967D01*
X-1753Y11022D01*
X-1771Y11034D01*
Y11084D01*
X-1753Y11096D01*
X-1716Y11151D01*
X-1703Y11217D01*
X-1716Y11282D01*
X-1753Y11337D01*
X-1771Y11349D01*
Y11399D01*
X-1753Y11411D01*
X-1716Y11466D01*
X-1703Y11531D01*
X-1716Y11597D01*
X-1749Y11646D01*
X-1677Y11718D01*
X-1677Y11718D01*
X-1642Y11771D01*
X-1630Y11832D01*
X-1630Y11832D01*
Y13134D01*
X-1580Y13151D01*
X-1563Y13129D01*
D02*
G37*
G36*
X-7131Y29165D02*
Y21908D01*
X-8683Y20355D01*
X-8730Y20375D01*
Y20615D01*
X-7557Y21788D01*
X-7557Y21788D01*
X-7522Y21840D01*
X-7510Y21902D01*
X-7510Y21902D01*
Y29432D01*
X-7520Y29484D01*
X-7492Y29507D01*
X-7479Y29513D01*
X-7131Y29165D01*
D02*
G37*
G36*
X-28777Y26817D02*
X-28788Y26791D01*
X-28803Y26673D01*
X-28788Y26555D01*
X-28742Y26445D01*
X-28669Y26350D01*
X-28575Y26278D01*
X-28465Y26232D01*
X-28346Y26217D01*
X-28228Y26232D01*
X-28193Y26247D01*
X-28164Y26205D01*
X-29596Y24772D01*
X-29643Y24792D01*
Y24917D01*
X-29643Y24917D01*
X-29650Y24952D01*
Y26015D01*
X-28819Y26845D01*
X-28777Y26817D01*
D02*
G37*
G36*
X-16378Y42751D02*
X-16588Y42541D01*
X-16665Y42526D01*
X-16736Y42478D01*
X-16784Y42406D01*
X-16801Y42322D01*
X-16784Y42237D01*
X-16736Y42166D01*
X-16665Y42118D01*
X-16580Y42101D01*
X-16496Y42118D01*
X-16424Y42166D01*
X-16376Y42237D01*
X-16361Y42314D01*
X-16055Y42620D01*
X-15841D01*
X-15818Y42570D01*
X-15854Y42516D01*
X-15871Y42432D01*
X-15854Y42347D01*
X-15806Y42276D01*
X-15735Y42228D01*
X-15650Y42211D01*
X-15566Y42228D01*
X-15494Y42276D01*
X-15446Y42347D01*
X-15431Y42424D01*
X-15412Y42443D01*
X-14415D01*
X-14410Y42393D01*
X-14445Y42386D01*
X-14516Y42338D01*
X-14564Y42266D01*
X-14581Y42182D01*
X-14564Y42097D01*
X-14521Y42032D01*
X-14534Y41982D01*
X-14691D01*
X-14696Y42006D01*
X-14744Y42078D01*
X-14816Y42126D01*
X-14900Y42142D01*
X-14985Y42126D01*
X-15056Y42078D01*
X-15104Y42006D01*
X-15121Y41922D01*
X-15104Y41837D01*
X-15056Y41766D01*
X-15045Y41758D01*
X-15040Y41708D01*
X-17377Y39371D01*
X-17412Y39319D01*
X-17424Y39258D01*
X-17424Y39258D01*
Y36845D01*
X-17424Y36845D01*
X-17412Y36784D01*
X-17377Y36732D01*
X-16111Y35465D01*
Y33188D01*
X-17503Y31796D01*
X-22017D01*
X-22079Y31784D01*
X-22131Y31749D01*
X-22131Y31749D01*
X-22667Y31213D01*
X-22702Y31161D01*
X-22714Y31099D01*
X-22714Y31099D01*
Y29814D01*
X-27846Y24683D01*
X-27869Y24695D01*
X-27890Y24709D01*
X-27905Y24823D01*
X-27951Y24933D01*
X-28024Y25028D01*
X-28118Y25100D01*
X-28228Y25146D01*
X-28346Y25161D01*
X-28445Y25148D01*
X-28468Y25196D01*
X-26403Y27261D01*
X-26090D01*
X-26025Y27218D01*
X-25940Y27201D01*
X-25856Y27218D01*
X-25784Y27266D01*
X-25736Y27337D01*
X-25719Y27422D01*
X-25736Y27506D01*
X-25784Y27578D01*
X-25856Y27626D01*
X-25940Y27642D01*
X-26025Y27626D01*
X-26090Y27582D01*
X-26267D01*
X-26286Y27628D01*
X-25587Y28327D01*
X-25536Y28338D01*
X-25464Y28386D01*
X-25416Y28457D01*
X-25406Y28509D01*
X-23047Y30868D01*
X-23012Y30920D01*
X-23000Y30982D01*
X-23000Y30982D01*
Y34855D01*
X-19682Y38172D01*
X-19606Y38188D01*
X-19534Y38236D01*
X-19486Y38307D01*
X-19471Y38385D01*
X-19421Y38380D01*
Y34682D01*
X-19421Y34682D01*
X-19408Y34620D01*
X-19374Y34568D01*
X-18846Y34040D01*
X-18846Y34040D01*
X-18793Y34005D01*
X-18765Y33999D01*
Y33996D01*
X-18746Y33951D01*
X-18701Y33932D01*
X-18664D01*
Y33447D01*
X-18683Y33439D01*
X-18757Y33383D01*
X-18813Y33309D01*
X-18849Y33222D01*
X-18861Y33130D01*
X-18849Y33037D01*
X-18813Y32951D01*
X-18757Y32877D01*
X-18683Y32820D01*
X-18596Y32785D01*
X-18504Y32773D01*
X-18411Y32785D01*
X-18325Y32820D01*
X-18251Y32877D01*
X-18194Y32951D01*
X-18159Y33037D01*
X-18147Y33130D01*
X-18159Y33222D01*
X-18194Y33309D01*
X-18251Y33383D01*
X-18325Y33439D01*
X-18343Y33447D01*
Y33932D01*
X-18307D01*
X-18262Y33951D01*
X-18243Y33996D01*
Y34311D01*
X-18262Y34356D01*
X-18307Y34375D01*
X-18701D01*
X-18719Y34367D01*
X-19100Y34748D01*
Y41245D01*
X-18869Y41476D01*
X-18821Y41453D01*
Y36682D01*
X-18821Y36682D01*
X-18808Y36620D01*
X-18774Y36568D01*
X-17171Y34965D01*
Y34578D01*
X-17412Y34337D01*
X-17471Y34347D01*
X-17474Y34356D01*
X-17520Y34375D01*
X-17913D01*
X-17959Y34356D01*
X-17977Y34311D01*
Y33996D01*
X-17959Y33951D01*
X-17913Y33932D01*
X-17877D01*
Y33447D01*
X-17895Y33439D01*
X-17969Y33383D01*
X-18026Y33309D01*
X-18062Y33222D01*
X-18074Y33130D01*
X-18062Y33037D01*
X-18026Y32951D01*
X-17969Y32877D01*
X-17895Y32820D01*
X-17809Y32785D01*
X-17717Y32773D01*
X-17624Y32785D01*
X-17538Y32820D01*
X-17464Y32877D01*
X-17407Y32951D01*
X-17371Y33037D01*
X-17359Y33130D01*
X-17371Y33222D01*
X-17407Y33309D01*
X-17464Y33383D01*
X-17538Y33439D01*
X-17556Y33447D01*
Y33932D01*
X-17520D01*
X-17474Y33951D01*
X-17457Y33993D01*
X-17368D01*
X-17368Y33993D01*
X-17307Y34005D01*
X-17255Y34040D01*
X-16897Y34398D01*
X-16871Y34437D01*
X-16821Y34422D01*
Y33519D01*
X-16871Y33480D01*
X-16929Y33487D01*
X-17022Y33475D01*
X-17108Y33439D01*
X-17182Y33383D01*
X-17239Y33309D01*
X-17274Y33222D01*
X-17287Y33130D01*
X-17274Y33037D01*
X-17239Y32951D01*
X-17182Y32877D01*
X-17108Y32820D01*
X-17022Y32785D01*
X-16929Y32773D01*
X-16837Y32785D01*
X-16750Y32820D01*
X-16676Y32877D01*
X-16620Y32951D01*
X-16584Y33037D01*
X-16572Y33130D01*
X-16584Y33222D01*
X-16591Y33241D01*
X-16547Y33285D01*
X-16547Y33285D01*
X-16512Y33338D01*
X-16500Y33399D01*
X-16500Y33399D01*
Y35472D01*
X-16500Y35472D01*
X-16512Y35533D01*
X-16547Y35585D01*
X-17970Y37008D01*
Y41555D01*
X-16728Y42797D01*
X-16397D01*
X-16378Y42751D01*
D02*
G37*
G36*
X-2528Y43165D02*
Y36126D01*
X-2578Y36107D01*
X-2636Y36146D01*
X-2720Y36162D01*
X-2805Y36146D01*
X-2870Y36102D01*
X-3100D01*
X-3162Y36090D01*
X-3214Y36055D01*
X-3214Y36055D01*
X-4087Y35182D01*
X-4201D01*
X-4266Y35226D01*
X-4350Y35242D01*
X-4435Y35226D01*
X-4506Y35178D01*
X-4554Y35106D01*
X-4571Y35022D01*
X-4554Y34937D01*
X-4506Y34866D01*
X-4463Y34837D01*
X-4478Y34787D01*
X-5848D01*
X-5863Y34837D01*
X-5833Y34857D01*
X-5785Y34928D01*
X-5768Y35013D01*
X-5785Y35097D01*
X-5828Y35162D01*
Y36537D01*
X-5782Y36557D01*
X-4854Y35628D01*
X-4854Y35628D01*
X-4802Y35593D01*
X-4740Y35581D01*
X-4740Y35581D01*
X-3830D01*
X-3830Y35581D01*
X-3769Y35593D01*
X-3717Y35628D01*
X-2711Y36634D01*
X-2711Y36634D01*
X-2676Y36686D01*
X-2664Y36747D01*
Y43076D01*
X-2664Y43076D01*
X-2676Y43138D01*
X-2711Y43190D01*
X-2711Y43190D01*
X-5518Y45996D01*
X-5497Y46046D01*
X-5409D01*
X-2528Y43165D01*
D02*
G37*
G36*
X-19421Y41243D02*
Y38403D01*
X-19471Y38398D01*
X-19486Y38476D01*
X-19534Y38548D01*
X-19606Y38596D01*
X-19690Y38612D01*
X-19775Y38596D01*
X-19846Y38548D01*
X-19894Y38476D01*
X-19909Y38400D01*
X-23274Y35035D01*
X-23308Y34983D01*
X-23321Y34922D01*
X-23321Y34922D01*
Y31048D01*
X-25609Y28760D01*
X-25620Y28762D01*
X-25705Y28746D01*
X-25776Y28698D01*
X-25824Y28626D01*
X-25841Y28542D01*
X-25839Y28530D01*
X-27878Y26491D01*
X-27920Y26519D01*
X-27905Y26555D01*
X-27890Y26673D01*
X-27905Y26791D01*
X-27951Y26902D01*
X-28024Y26996D01*
X-28118Y27069D01*
X-28228Y27114D01*
X-28346Y27130D01*
X-28465Y27114D01*
X-28490Y27104D01*
X-28519Y27146D01*
X-23667Y31998D01*
X-23667Y31998D01*
X-23632Y32050D01*
X-23620Y32112D01*
X-23620Y32112D01*
Y34852D01*
X-23576Y34917D01*
X-23559Y35002D01*
X-23576Y35086D01*
X-23624Y35158D01*
X-23696Y35206D01*
X-23780Y35222D01*
X-23865Y35206D01*
X-23936Y35158D01*
X-23984Y35086D01*
X-24001Y35002D01*
X-23984Y34917D01*
X-23941Y34852D01*
Y32178D01*
X-27580Y28539D01*
X-27639Y28598D01*
X-27691Y28633D01*
X-27753Y28645D01*
X-27753Y28645D01*
X-28564D01*
Y28681D01*
X-28582Y28726D01*
X-28628Y28745D01*
X-28943D01*
X-28988Y28726D01*
X-29007Y28681D01*
Y28287D01*
X-28988Y28242D01*
X-28943Y28224D01*
X-28628D01*
X-28582Y28242D01*
X-28564Y28287D01*
Y28324D01*
X-27866D01*
X-27845Y28274D01*
X-29924Y26195D01*
X-29958Y26143D01*
X-29971Y26082D01*
X-29971Y26082D01*
Y25074D01*
X-30021Y25050D01*
X-30087Y25100D01*
X-30154Y25128D01*
Y25792D01*
X-30154Y25792D01*
X-30154Y25792D01*
Y26250D01*
X-30087Y26278D01*
X-29992Y26350D01*
X-29919Y26445D01*
X-29874Y26555D01*
X-29858Y26673D01*
X-29874Y26791D01*
X-29919Y26902D01*
X-29992Y26996D01*
X-30087Y27069D01*
X-30154Y27097D01*
Y30580D01*
X-19471Y41264D01*
X-19421Y41243D01*
D02*
G37*
%LPC*%
G36*
X-22441Y33487D02*
X-22533Y33475D01*
X-22620Y33439D01*
X-22694Y33383D01*
X-22750Y33309D01*
X-22786Y33222D01*
X-22798Y33130D01*
X-22786Y33037D01*
X-22750Y32951D01*
X-22694Y32877D01*
X-22620Y32820D01*
X-22565Y32798D01*
Y32431D01*
X-22607Y32414D01*
X-22626Y32369D01*
Y31975D01*
X-22607Y31930D01*
X-22562Y31911D01*
X-22247D01*
X-22202Y31930D01*
X-22183Y31975D01*
Y32369D01*
X-22202Y32414D01*
X-22244Y32431D01*
Y32834D01*
X-22188Y32877D01*
X-22131Y32951D01*
X-22096Y33037D01*
X-22084Y33130D01*
X-22096Y33222D01*
X-22131Y33309D01*
X-22188Y33383D01*
X-22262Y33439D01*
X-22348Y33475D01*
X-22441Y33487D01*
D02*
G37*
G36*
X-21654D02*
X-21746Y33475D01*
X-21832Y33439D01*
X-21906Y33383D01*
X-21963Y33309D01*
X-21999Y33222D01*
X-22011Y33130D01*
X-21999Y33037D01*
X-21963Y32951D01*
X-21906Y32877D01*
X-21896Y32869D01*
Y32431D01*
X-21938Y32414D01*
X-21957Y32369D01*
Y31975D01*
X-21938Y31930D01*
X-21893Y31911D01*
X-21578D01*
X-21533Y31930D01*
X-21514Y31975D01*
Y32369D01*
X-21533Y32414D01*
X-21575Y32431D01*
Y32783D01*
X-21561Y32785D01*
X-21475Y32820D01*
X-21401Y32877D01*
X-21344Y32951D01*
X-21308Y33037D01*
X-21296Y33130D01*
X-21308Y33222D01*
X-21344Y33309D01*
X-21401Y33383D01*
X-21475Y33439D01*
X-21561Y33475D01*
X-21654Y33487D01*
D02*
G37*
G36*
X-20669Y34434D02*
X-21063D01*
X-21108Y34415D01*
X-21127Y34370D01*
Y34055D01*
X-21108Y34010D01*
X-21063Y33991D01*
X-21027D01*
Y33447D01*
X-21045Y33439D01*
X-21119Y33383D01*
X-21176Y33309D01*
X-21211Y33222D01*
X-21224Y33130D01*
X-21211Y33037D01*
X-21176Y32951D01*
X-21119Y32877D01*
X-21045Y32820D01*
X-20959Y32785D01*
X-20866Y32773D01*
X-20774Y32785D01*
X-20687Y32820D01*
X-20613Y32877D01*
X-20557Y32951D01*
X-20521Y33037D01*
X-20509Y33130D01*
X-20521Y33222D01*
X-20557Y33309D01*
X-20613Y33383D01*
X-20687Y33439D01*
X-20706Y33447D01*
Y33991D01*
X-20669D01*
X-20624Y34010D01*
X-20605Y34055D01*
Y34370D01*
X-20624Y34415D01*
X-20669Y34434D01*
D02*
G37*
G36*
X-20079Y33487D02*
X-20171Y33475D01*
X-20257Y33439D01*
X-20331Y33383D01*
X-20388Y33309D01*
X-20424Y33222D01*
X-20436Y33130D01*
X-20424Y33037D01*
X-20388Y32951D01*
X-20331Y32877D01*
X-20257Y32820D01*
X-20171Y32785D01*
X-20079Y32773D01*
X-19986Y32785D01*
X-19900Y32820D01*
X-19826Y32877D01*
X-19769Y32951D01*
X-19734Y33037D01*
X-19721Y33130D01*
X-19734Y33222D01*
X-19769Y33309D01*
X-19826Y33383D01*
X-19900Y33439D01*
X-19986Y33475D01*
X-20079Y33487D01*
D02*
G37*
G36*
X-17520Y35044D02*
X-17913D01*
X-17959Y35026D01*
X-18003Y35012D01*
X-18026Y35027D01*
X-18110Y35044D01*
X-18195Y35027D01*
X-18217Y35012D01*
X-18262Y35026D01*
X-18307Y35044D01*
X-18701D01*
X-18746Y35026D01*
X-18765Y34980D01*
Y34665D01*
X-18746Y34620D01*
X-18701Y34601D01*
X-18307D01*
X-18262Y34620D01*
X-18217Y34634D01*
X-18195Y34619D01*
X-18110Y34602D01*
X-18026Y34619D01*
X-18003Y34634D01*
X-17959Y34620D01*
X-17913Y34601D01*
X-17520D01*
X-17474Y34620D01*
X-17456Y34665D01*
Y34980D01*
X-17474Y35026D01*
X-17520Y35044D01*
D02*
G37*
G36*
X-28628Y30145D02*
X-28943D01*
X-28988Y30126D01*
X-29007Y30081D01*
Y29687D01*
X-28988Y29642D01*
X-28943Y29624D01*
X-28628D01*
X-28582Y29642D01*
X-28564Y29687D01*
Y29724D01*
X-27053D01*
X-27044Y29677D01*
X-26996Y29606D01*
X-26925Y29558D01*
X-26840Y29541D01*
X-26756Y29558D01*
X-26684Y29606D01*
X-26636Y29677D01*
X-26619Y29762D01*
X-26636Y29846D01*
X-26684Y29918D01*
X-26756Y29966D01*
X-26832Y29981D01*
X-26849Y29998D01*
X-26901Y30033D01*
X-26963Y30045D01*
X-26963Y30045D01*
X-28564D01*
Y30081D01*
X-28582Y30126D01*
X-28628Y30145D01*
D02*
G37*
G36*
X-29297Y30145D02*
X-29612D01*
X-29657Y30126D01*
X-29676Y30081D01*
Y29687D01*
X-29657Y29642D01*
X-29615Y29625D01*
Y29444D01*
X-29657Y29426D01*
X-29688Y29388D01*
X-29720Y29395D01*
X-29773Y29405D01*
X-29857Y29388D01*
X-29929Y29340D01*
X-29977Y29269D01*
X-29994Y29184D01*
X-29977Y29100D01*
X-29929Y29028D01*
X-29857Y28980D01*
X-29773Y28964D01*
X-29720Y28974D01*
X-29688Y28980D01*
X-29657Y28942D01*
X-29615Y28925D01*
Y28744D01*
X-29657Y28726D01*
X-29676Y28681D01*
Y28287D01*
X-29657Y28242D01*
X-29612Y28224D01*
X-29297D01*
X-29252Y28242D01*
X-29233Y28287D01*
Y28681D01*
X-29252Y28726D01*
X-29294Y28744D01*
Y28925D01*
X-29252Y28942D01*
X-29233Y28987D01*
Y29381D01*
X-29252Y29426D01*
X-29294Y29444D01*
Y29625D01*
X-29252Y29642D01*
X-29233Y29687D01*
Y30081D01*
X-29252Y30126D01*
X-29297Y30145D01*
D02*
G37*
G36*
X-28628Y29445D02*
X-28943D01*
X-28988Y29426D01*
X-29007Y29381D01*
Y28987D01*
X-28988Y28942D01*
X-28943Y28924D01*
X-28628D01*
X-28582Y28942D01*
X-28564Y28987D01*
Y29024D01*
X-27482D01*
X-27417Y28980D01*
X-27333Y28964D01*
X-27248Y28980D01*
X-27177Y29028D01*
X-27129Y29100D01*
X-27112Y29184D01*
X-27129Y29269D01*
X-27177Y29340D01*
X-27248Y29388D01*
X-27333Y29405D01*
X-27417Y29388D01*
X-27482Y29345D01*
X-28564D01*
Y29381D01*
X-28582Y29426D01*
X-28628Y29445D01*
D02*
G37*
%LPD*%
D10*
X-4944Y6194D02*
D03*
Y6864D02*
D03*
X-2890Y7866D02*
D03*
Y7197D02*
D03*
X-10464Y7181D02*
D03*
Y6512D02*
D03*
Y9812D02*
D03*
Y10481D02*
D03*
X-14117Y3259D02*
D03*
Y2590D02*
D03*
X-14717Y3259D02*
D03*
Y2590D02*
D03*
X-30650Y13454D02*
D03*
Y14124D02*
D03*
X-32450Y13454D02*
D03*
Y14124D02*
D03*
X-30640Y10824D02*
D03*
Y10154D02*
D03*
X-31850Y10824D02*
D03*
Y10154D02*
D03*
X-31250Y10824D02*
D03*
Y10154D02*
D03*
X-20866Y34213D02*
D03*
Y34882D02*
D03*
X-4644Y19720D02*
D03*
X-4644Y19050D02*
D03*
X-5644Y19720D02*
D03*
X-5644Y19050D02*
D03*
X-30040Y10154D02*
D03*
X-30040Y10824D02*
D03*
X-35759Y3237D02*
D03*
X-35759Y3906D02*
D03*
X-29450Y14124D02*
D03*
X-29450Y13454D02*
D03*
X-30050Y14124D02*
D03*
X-30050Y13454D02*
D03*
X-31250Y14124D02*
D03*
X-31250Y13454D02*
D03*
X-31850Y14124D02*
D03*
X-31850Y13454D02*
D03*
X-36432Y3237D02*
D03*
X-36432Y3906D02*
D03*
X-18504Y34823D02*
D03*
X-18504Y34154D02*
D03*
X-17717Y34823D02*
D03*
X-17717Y34154D02*
D03*
X-31690Y39396D02*
D03*
X-31690Y38727D02*
D03*
X-32109Y26483D02*
D03*
X-32109Y25814D02*
D03*
X-12900Y26766D02*
D03*
X-12900Y26097D02*
D03*
X-20866Y28701D02*
D03*
X-20866Y29370D02*
D03*
X-8550Y45376D02*
D03*
Y44707D02*
D03*
X-4040Y36527D02*
D03*
X-4040Y37196D02*
D03*
X-7700Y35507D02*
D03*
Y36176D02*
D03*
X-12164Y38309D02*
D03*
Y38978D02*
D03*
X-15718Y38765D02*
D03*
Y39434D02*
D03*
Y37784D02*
D03*
Y37115D02*
D03*
X-12164Y36978D02*
D03*
X-12164Y36309D02*
D03*
X-7364Y8112D02*
D03*
X-7364Y8781D02*
D03*
X-3744Y6194D02*
D03*
X-3744Y6864D02*
D03*
X-4344Y6194D02*
D03*
X-4344Y6864D02*
D03*
X-5544Y6194D02*
D03*
Y6864D02*
D03*
X-2323Y16899D02*
D03*
X-2323Y16230D02*
D03*
X-2216Y7863D02*
D03*
X-2216Y7194D02*
D03*
X-3544Y18520D02*
D03*
Y17850D02*
D03*
D11*
X-16632Y3975D02*
D03*
X-17302D02*
D03*
X-14902Y4075D02*
D03*
X-14232D02*
D03*
X-14902Y4775D02*
D03*
X-14232D02*
D03*
X-16305Y4892D02*
D03*
X-15635D02*
D03*
X-34785Y20289D02*
D03*
X-34116D02*
D03*
X-34785Y20989D02*
D03*
X-34116D02*
D03*
X-33685Y15289D02*
D03*
X-33016D02*
D03*
X-34885Y16689D02*
D03*
X-34216D02*
D03*
X-34885Y17289D02*
D03*
X-34216D02*
D03*
X-34885Y18489D02*
D03*
X-34216D02*
D03*
X-34885Y17889D02*
D03*
X-34216D02*
D03*
X-33185Y10689D02*
D03*
X-32516D02*
D03*
X-34885Y19089D02*
D03*
X-34216D02*
D03*
X-30565Y23340D02*
D03*
X-31235D02*
D03*
X-32296Y22669D02*
D03*
X-32965D02*
D03*
X-21735Y32172D02*
D03*
X-22405D02*
D03*
X-11264Y34843D02*
D03*
X-11933Y34843D02*
D03*
X-16502Y1675D02*
D03*
X-15832Y1675D02*
D03*
X-18202Y3075D02*
D03*
X-17532Y3075D02*
D03*
X-14902Y5575D02*
D03*
X-14232Y5575D02*
D03*
X-9105Y5312D02*
D03*
X-9775Y5312D02*
D03*
X-16302Y5575D02*
D03*
X-15632Y5575D02*
D03*
X-17532Y2275D02*
D03*
X-18202Y2275D02*
D03*
X-30020Y12432D02*
D03*
X-30689Y12432D02*
D03*
X-29485Y12432D02*
D03*
X-28815Y12432D02*
D03*
X-28785Y29884D02*
D03*
X-29454Y29884D02*
D03*
X-28785Y29184D02*
D03*
X-29454Y29184D02*
D03*
X-28785Y28484D02*
D03*
X-29454Y28484D02*
D03*
X-32505Y11792D02*
D03*
X-31835Y11792D02*
D03*
X-30605Y11792D02*
D03*
X-31275Y11792D02*
D03*
X-33016Y14689D02*
D03*
X-33685Y14689D02*
D03*
X-30996Y22669D02*
D03*
X-31665Y22669D02*
D03*
X-33185Y39402D02*
D03*
X-32515Y39402D02*
D03*
X-19332Y29235D02*
D03*
X-20001Y29235D02*
D03*
X-3265Y41992D02*
D03*
X-3935D02*
D03*
X-3375Y38052D02*
D03*
X-4045D02*
D03*
X-36535Y15892D02*
D03*
X-35865Y15892D02*
D03*
X-36535Y15152D02*
D03*
X-35865Y15152D02*
D03*
X-6809Y7029D02*
D03*
X-7479Y7029D02*
D03*
X-7145Y10272D02*
D03*
X-6475D02*
D03*
X-7145Y11532D02*
D03*
X-6475Y11532D02*
D03*
X-7145Y12202D02*
D03*
X-6475Y12202D02*
D03*
X-3544Y16785D02*
D03*
X-2875Y16785D02*
D03*
D12*
X-787Y787D02*
D03*
X-38583Y47539D02*
D03*
X-38583Y787D02*
D03*
D19*
X-7564Y36078D02*
Y37319D01*
X-32505Y11382D02*
Y11792D01*
X-32255Y6927D02*
X-31974D01*
X-32970Y7642D02*
X-32276Y6948D01*
X-33312Y2402D02*
X-33212Y2502D01*
X-35731Y2402D02*
X-33312D01*
X-35731D02*
Y3210D01*
X-30231Y3000D02*
Y3100D01*
X-31350Y1882D02*
X-30231Y3000D01*
X-36150Y1882D02*
X-31350D01*
X-12190Y42502D02*
X-11684Y41996D01*
X-29577Y17313D02*
X-29288D01*
X-32237Y21929D02*
X-31349Y21040D01*
X-17532Y2997D02*
X-16863D01*
X-17532Y2275D02*
X-17200D01*
X-32490Y16745D02*
Y17162D01*
X-30480Y19632D02*
Y20102D01*
X-635Y36392D02*
Y43949D01*
X-29577Y24565D02*
X-23160Y30982D01*
X-33016Y15289D02*
X-32610D01*
X-32423D01*
X-34216Y17289D02*
X-33830D01*
X-33855Y16900D02*
X-32924D01*
X-30690Y12432D02*
X-30630Y12492D01*
X-32450Y14124D02*
Y14462D01*
X-30650Y14124D02*
Y14632D01*
X-1685Y7863D02*
X-1306Y8242D01*
X-7364Y8222D02*
X-6740D01*
X-35759Y3237D02*
X-35731Y3210D01*
X-36432Y3237D02*
X-36431Y3237D01*
Y2163D02*
Y3237D01*
X-36432Y3906D02*
Y4103D01*
X-32109Y25814D02*
X-32086Y25837D01*
X-29773Y29184D02*
X-29454D01*
Y29884D01*
Y28484D02*
Y29184D01*
X-29810Y26082D02*
X-23780Y32112D01*
X-23160Y30982D02*
Y34922D01*
X-26963Y29884D02*
X-26840Y29762D01*
X-28785Y29884D02*
X-26963D01*
X-28785Y29184D02*
X-27333D01*
X-27753Y28484D02*
X-27590Y28322D01*
X-28785Y28484D02*
X-27753D01*
X-29577Y18672D02*
Y24565D01*
X-29810Y24924D02*
Y26082D01*
X-30040Y24032D02*
X-29803Y24269D01*
Y24917D01*
X-29810Y24924D02*
X-29803Y24917D01*
X-29310Y20402D02*
Y24581D01*
X-28886Y17465D02*
Y19475D01*
X-29254Y17097D02*
X-28886Y17465D01*
X-29577Y17097D02*
X-29254D01*
X-28666Y23135D02*
X-22180Y29621D01*
X-28666Y19695D02*
Y23135D01*
X-28886Y19475D02*
X-28666Y19695D01*
X-22180Y29621D02*
Y30972D01*
X-28843Y19768D02*
Y23208D01*
X-29063Y19548D02*
X-28843Y19768D01*
X-29063Y17538D02*
Y19548D01*
X-29288Y17313D02*
X-29063Y17538D01*
X-29577Y17294D02*
Y17313D01*
X-29020Y23282D02*
X-22554Y29748D01*
X-29020Y19842D02*
Y23282D01*
X-29240Y19622D02*
X-29020Y19842D01*
X-29240Y17612D02*
Y19622D01*
X-29361Y17491D02*
X-29240Y17612D01*
X-29577Y17491D02*
X-29361D01*
X-22357Y29694D02*
Y31045D01*
X-28843Y23208D02*
X-22357Y29694D01*
X-22554Y29748D02*
Y31099D01*
X-29310Y24581D02*
X-26470Y27422D01*
X-25940D01*
X-30040Y21119D02*
Y24032D01*
X-5180Y24602D02*
X-4830Y24952D01*
X-6070Y24602D02*
X-5180D01*
X-30168Y19262D02*
X-29924Y19505D01*
X-30200Y19662D02*
Y19752D01*
X-30996Y22669D02*
X-30565D01*
Y23340D01*
Y22469D02*
Y22669D01*
X-30623Y22411D02*
X-30565Y22469D01*
X-23780Y32112D02*
Y35002D01*
X-16305Y4892D02*
X-16302Y4895D01*
Y5575D01*
X-15635Y4892D02*
X-15632Y4895D01*
Y5575D01*
X-3530Y34602D02*
Y34752D01*
X-3554Y34626D02*
X-3530Y34602D01*
Y33772D02*
Y34602D01*
X-8254Y34626D02*
X-3554D01*
X-4020Y35022D02*
X-3100Y35942D01*
X-4350Y35022D02*
X-4020D01*
X-3100Y35942D02*
X-2720D01*
X-2824Y36747D02*
Y43076D01*
X-3830Y35742D02*
X-2824Y36747D01*
X-4740Y35742D02*
X-3830D01*
X-5792Y36794D02*
X-4740Y35742D01*
X-5649Y45901D02*
X-2824Y43076D01*
X-9532Y35904D02*
X-8254Y34626D01*
X-3530Y34752D02*
X-2890Y35392D01*
X-1890Y35552D02*
X-1501Y35941D01*
X-3530Y32772D02*
X-3050Y33252D01*
Y34272D01*
X-2367Y34955D01*
X-30561Y19262D02*
Y19551D01*
X-30480Y19632D01*
X-9532Y35904D02*
Y37319D01*
X-12164Y38978D02*
X-12098Y39043D01*
X-11264D01*
X-12574Y38978D02*
X-12164D01*
X-4030Y33272D02*
X-3530Y32772D01*
X-4160Y34322D02*
X-4030Y34192D01*
Y33272D02*
Y34192D01*
X-8320Y34322D02*
X-4160D01*
X-9729Y35731D02*
X-8320Y34322D01*
X-9729Y35731D02*
Y37319D01*
X-5792Y36794D02*
Y37319D01*
X-1950Y29772D02*
Y33192D01*
X-2530Y33772D02*
X-1950Y33192D01*
X-3544Y28178D02*
X-1950Y29772D01*
X-4118Y47432D02*
X-635Y43949D01*
X-1501Y35941D02*
Y43590D01*
X-4730Y46819D02*
X-1501Y43590D01*
X-2367Y34955D02*
Y43231D01*
X-5343Y46207D02*
X-2367Y43231D01*
X-5045Y41996D02*
X-4350D01*
X-3939D01*
X-13610Y47432D02*
X-4118D01*
X-12998Y46819D02*
X-4730D01*
X-12385Y46207D02*
X-5343D01*
X-12079Y45901D02*
X-5649D01*
X-12933Y45046D02*
X-12079Y45901D01*
X-19265Y45046D02*
X-12933D01*
X-13113Y45479D02*
X-12385Y46207D01*
X-19265Y45479D02*
X-13113D01*
X-13471Y46346D02*
X-12998Y46819D01*
X-19265Y46346D02*
X-13471D01*
X-13830Y47212D02*
X-13610Y47432D01*
X-21990Y42322D02*
X-19265Y45046D01*
X-21990Y42755D02*
X-19265Y45479D01*
X-21990Y43621D02*
X-19265Y46346D01*
Y47212D02*
X-13830D01*
X-21990Y44487D02*
X-19265Y47212D01*
X-13577Y43489D02*
X-11888Y41799D01*
X-12270Y41722D02*
Y41915D01*
X-13666Y43312D02*
X-12270Y41915D01*
X-12447Y41459D02*
Y41842D01*
X-13740Y43135D02*
X-12447Y41842D01*
X-12624Y41306D02*
Y41769D01*
X-13813Y42957D02*
X-12624Y41769D01*
X-12801Y41143D02*
Y41695D01*
X-13887Y42780D02*
X-12801Y41695D01*
X-12979Y40990D02*
Y41622D01*
X-13960Y42603D02*
X-12979Y41622D01*
X-13156Y40798D02*
Y41548D01*
X-13870Y42262D02*
X-13156Y41548D01*
X-13333Y40725D02*
Y41475D01*
X-13680Y41822D02*
X-13333Y41475D01*
X-14800Y41822D02*
X-13680D01*
X-13510Y40652D02*
Y41402D01*
X-13750Y41642D02*
X-13510Y41402D01*
X-14880Y41642D02*
X-13750D01*
X-11888Y41799D02*
X-11264D01*
X-12270Y41722D02*
X-12151Y41602D01*
X-27490Y44487D02*
X-21990D01*
X-27490Y43621D02*
X-21990D01*
X-27490Y42322D02*
X-21990D01*
X-27490Y42755D02*
X-21990D01*
X-27490Y43188D02*
X-24490D01*
X-840Y8872D02*
Y12912D01*
Y8532D02*
Y8872D01*
X-1130D02*
X-840D01*
X-1585Y9327D02*
X-1130Y8872D01*
X-1310Y13382D02*
X-840Y12912D01*
X-1130Y8242D02*
X-840Y8532D01*
X-2091Y11531D02*
X-1790Y11832D01*
Y14902D01*
X-1310Y15382D01*
X-2957Y12083D02*
Y12704D01*
X-3180Y12928D02*
X-2957Y12704D01*
X-3180Y12928D02*
Y12962D01*
X-2323Y16230D02*
X-2310Y16217D01*
Y15382D02*
Y16217D01*
X-2620Y14382D02*
X-2310D01*
X-2873Y14128D02*
X-2620Y14382D01*
X-2873Y12872D02*
Y14128D01*
Y12872D02*
X-2642Y12640D01*
X-3587Y16743D02*
X-3544Y16785D01*
X-3587Y12083D02*
Y16743D01*
X-4965Y12202D02*
X-4846Y12083D01*
X-6475Y12202D02*
X-4965D01*
X-4217Y12083D02*
Y12758D01*
X-7240Y20762D02*
X-6860Y20382D01*
X-5490D01*
X-7030Y21272D02*
X-6790Y21032D01*
X-5450D01*
X-4930Y13142D02*
Y16612D01*
X-5644Y17326D02*
X-4930Y16612D01*
X-5644Y17326D02*
Y17511D01*
X-4644Y13186D02*
Y17511D01*
X-6858Y12890D02*
X-6432D01*
X-8140Y14172D02*
X-6858Y12890D01*
X-8140Y14172D02*
Y15892D01*
X-7200Y14252D02*
X-7190Y14242D01*
X-7200Y14252D02*
Y15282D01*
X-8450Y12202D02*
X-7145D01*
X-8670Y12422D02*
X-8450Y12202D01*
X-8670Y12422D02*
Y20142D01*
X-8370Y11532D02*
X-7145D01*
X-8890Y12052D02*
X-8370Y11532D01*
X-8890Y12052D02*
Y20682D01*
X-17717Y33130D02*
Y34154D01*
X-18504Y33130D02*
Y34154D01*
X-18504Y34154D01*
X-20866Y33130D02*
Y34213D01*
X-20866Y34213D01*
X-17532Y2997D02*
Y3075D01*
X-16863Y2997D02*
X-16766Y2901D01*
X-17018Y2275D02*
X-16766Y2526D01*
X-14232Y4775D02*
Y5575D01*
X-16766Y2901D02*
X-16489D01*
X-16340Y2752D01*
Y2082D02*
Y2752D01*
X-16502Y1920D02*
X-16340Y2082D01*
X-16502Y1675D02*
Y1920D01*
X-15632Y5575D02*
X-14902D01*
X-15632Y5575D02*
X-15632Y5575D01*
X-17040Y4836D02*
X-16302Y5575D01*
X-17040Y4732D02*
Y4836D01*
X-21714Y5464D02*
X-21586D01*
X-21458D01*
X-21330D01*
X-12039Y4569D02*
X-9854D01*
X-12040Y4569D02*
X-12039Y4569D01*
X-9106D02*
Y5312D01*
X-9105Y5312D01*
X-30747Y15629D02*
Y15904D01*
Y15629D02*
X-30650Y15532D01*
X-31474Y7827D02*
X-30640Y8660D01*
Y10154D01*
X-30040D01*
X-32970Y7642D02*
Y9222D01*
X-32516Y9676D01*
Y10689D01*
X-32505Y10700D01*
Y11382D02*
X-32500Y11386D01*
X-32505Y10700D02*
Y11382D01*
X-34211Y17884D02*
X-32924D01*
X-34216Y17889D02*
X-34211Y17884D01*
X-33405Y18278D02*
X-32924D01*
X-34216Y19089D02*
X-33405Y18278D01*
X-30623Y21569D02*
Y22411D01*
X-32296Y22669D02*
X-32237Y22611D01*
X-32296Y22669D02*
X-31665D01*
X-31665Y22669D01*
X-31152Y21040D02*
X-30623Y21569D01*
X-32237D02*
Y21929D01*
Y22611D01*
X-34116Y20289D02*
X-32287D01*
X-31743Y19744D01*
Y19262D02*
Y19744D01*
X-32971Y19262D02*
X-32333D01*
X-33270Y19562D02*
X-32971Y19262D01*
X-35230Y19562D02*
X-33270D01*
X-37570Y17222D02*
X-35230Y19562D01*
X-37570Y13372D02*
Y17222D01*
Y13372D02*
X-37440Y13242D01*
Y5682D02*
Y13242D01*
Y5682D02*
X-35731Y3973D01*
X-31939Y19262D02*
Y19501D01*
X-32240Y19802D02*
X-31939Y19501D01*
X-35360Y19802D02*
X-32240D01*
X-37840Y17322D02*
X-35360Y19802D01*
X-37840Y5512D02*
Y17322D01*
Y5512D02*
X-36432Y4103D01*
X-36431Y2163D02*
X-36150Y1882D01*
X-28815Y12432D02*
Y12876D01*
X-30690Y12432D02*
X-30689Y12432D01*
X-30700Y14642D02*
X-30630Y14632D01*
X-30650Y14642D02*
Y15532D01*
X-20040Y28608D02*
Y29196D01*
X-20001Y29235D01*
X-19292Y28608D02*
Y29196D01*
X-19332Y29235D02*
X-19292Y29196D01*
X-20866Y28701D02*
X-20133D01*
X-20040Y28608D01*
X-21185Y27067D02*
X-20344D01*
X-21820Y26432D02*
X-21185Y27067D01*
X-14155Y39446D02*
Y40272D01*
Y39446D02*
X-13680Y38972D01*
X-15718Y39434D02*
X-14992D01*
X-14155Y40272D01*
X-15045Y37115D02*
X-14155Y36224D01*
X-11695Y38846D02*
X-11264D01*
X-11780Y38762D02*
X-11695Y38846D01*
X-11780Y37362D02*
Y38762D01*
X-12164Y36978D02*
X-11780Y37362D01*
X-7564Y37319D02*
X-7564Y37319D01*
X-8550Y43526D02*
X-8548Y43523D01*
X-3939Y41996D02*
X-3935Y41992D01*
X-5045Y38059D02*
X-4052D01*
X-4045Y38052D01*
X-4040Y37196D02*
Y38047D01*
X-4045Y38052D02*
X-4040Y38047D01*
X-12164Y36978D02*
X-11616D01*
X-11070Y36432D01*
X-3902Y7021D02*
Y8776D01*
Y7021D02*
X-3744Y6864D01*
X-4217Y6991D02*
Y8776D01*
X-4344Y6864D02*
X-4217Y6991D01*
X-4531Y7510D02*
Y8776D01*
X-4944Y6864D02*
Y7098D01*
X-3272Y8248D02*
Y8776D01*
Y8248D02*
X-2890Y7866D01*
X-4846Y7905D02*
Y8776D01*
X-5544Y7208D02*
X-4846Y7905D01*
X-5544Y6864D02*
Y7208D01*
X-6809Y7029D02*
X-5709D01*
X-5544Y6864D01*
X-6475Y11531D02*
X-5398D01*
X-6475Y11532D02*
X-6475Y11531D01*
X-7364Y8112D02*
X-7319Y8157D01*
X-7364Y8781D02*
Y9019D01*
X-8880Y10535D02*
X-7364Y9019D01*
X-8880Y6487D02*
X-7364Y8003D01*
X-10464Y6512D02*
X-8904D01*
X-8880Y6487D01*
X-10464Y10481D02*
X-8933D01*
X-8880Y10535D01*
X-6475Y10272D02*
X-5398D01*
X-5398Y10272D01*
X-4531Y12083D02*
Y12743D01*
X-4644Y13186D02*
X-4217Y12758D01*
X-3544Y16785D02*
Y17850D01*
X-2642Y12083D02*
Y12640D01*
X-2091Y9327D02*
X-1585D01*
X-2216Y7863D02*
X-1685D01*
X-2216Y7194D02*
X-2147Y7263D01*
X-1306Y8242D02*
X-1130D01*
X-4644Y18259D02*
Y19050D01*
X-4644Y18259D02*
X-4644Y18259D01*
X-5644D02*
Y19050D01*
X-5644Y18259D02*
X-5644Y18259D01*
X-9926Y35317D02*
Y37319D01*
X-6970Y21842D02*
Y29232D01*
X-7790Y30052D02*
X-6970Y29232D01*
X-5989Y35013D02*
Y37319D01*
X-6186Y35286D02*
Y37319D01*
X-8120Y29882D02*
X-7670Y29432D01*
Y21902D02*
Y29432D01*
X-3544Y18520D02*
Y28178D01*
X-9926Y35317D02*
X-8610Y34002D01*
X-4760D01*
X-4530Y33772D01*
X-7790Y32302D02*
X-7270Y32822D01*
X-7790Y30052D02*
Y32302D01*
X-6360Y35112D02*
X-6186Y35286D01*
X-6370Y35112D02*
X-6360D01*
X-8120Y32622D02*
X-7180Y33562D01*
X-8120Y29882D02*
Y32622D01*
X-6790Y35002D02*
Y35132D01*
X-6579Y35342D01*
Y37319D01*
X-7190Y34982D02*
Y35072D01*
X-6776Y35486D01*
Y37319D01*
X-6973Y35689D02*
Y37319D01*
X-7690Y34972D02*
X-6973Y35689D01*
X-7850Y34972D02*
X-7690D01*
X-13680Y38972D02*
X-13432D01*
X-12770Y39634D01*
X-11264D01*
X-12714Y39437D02*
X-11264D01*
X-14155Y36224D02*
Y37997D01*
X-12714Y39437D01*
X-15479Y42603D02*
X-13960D01*
X-16794Y42957D02*
X-13813D01*
X-12979Y40990D02*
X-12803Y40815D01*
X-11264D01*
X-12801Y41143D02*
X-12670Y41012D01*
X-11264D01*
X-12624Y41306D02*
X-12527Y41209D01*
X-11264D01*
X-12447Y41459D02*
X-12394Y41406D01*
X-11264D01*
X-12151Y41602D02*
X-11264D01*
X-17473Y43489D02*
X-13577D01*
X-11684Y41996D02*
X-11264D01*
X-30315Y30647D02*
X-17473Y43489D01*
X-30315Y26673D02*
Y30647D01*
X-32086Y25837D02*
X-30360D01*
X-30315Y25792D01*
Y24705D02*
Y25792D01*
Y26673D01*
X-17260Y43312D02*
X-13666D01*
X-19260Y41312D02*
X-17260Y43312D01*
X-19260Y34682D02*
Y41312D01*
Y34682D02*
X-18732Y34154D01*
X-18504D01*
X-16997Y43135D02*
X-13740D01*
X-18660Y41472D02*
X-16997Y43135D01*
X-18660Y36682D02*
Y41472D01*
Y36682D02*
X-17010Y35032D01*
Y34512D02*
Y35032D01*
X-17368Y34154D02*
X-17010Y34512D01*
X-17717Y34154D02*
X-17368D01*
X-18130Y41622D02*
X-16794Y42957D01*
X-16660Y33399D02*
Y35472D01*
X-16929Y33130D02*
X-16660Y33399D01*
X-19813Y27067D02*
X-19666Y27214D01*
Y27663D01*
X-19813Y27067D02*
X-17765D01*
X-18130Y36942D02*
Y41622D01*
Y36942D02*
X-16660Y35472D01*
X-16580Y42322D02*
X-16121Y42780D01*
X-13887D01*
X-15650Y42432D02*
X-15479Y42603D01*
X-23160Y34922D02*
X-19690Y38392D01*
X-22180Y30972D02*
X-21910Y31242D01*
X-22357Y31045D02*
X-21964Y31439D01*
X-22554Y31099D02*
X-22017Y31635D01*
X-17436D01*
X-15950Y33122D01*
X-21964Y31439D02*
X-17355D01*
X-21910Y31242D02*
X-17273D01*
X-15718Y37115D02*
X-15045D01*
X-15950Y33122D02*
Y35532D01*
X-17264Y36845D02*
X-15950Y35532D01*
X-17355Y31439D02*
X-15773Y33020D01*
Y35633D01*
X-17067Y36927D02*
X-15773Y35633D01*
X-17273Y31242D02*
X-15596Y32919D01*
Y35734D01*
X-16870Y37008D02*
X-15596Y35734D01*
X-16870Y37008D02*
Y38712D01*
X-17067Y36927D02*
Y38995D01*
X-13156Y40798D02*
X-12975Y40618D01*
X-11264D01*
X-13333Y40725D02*
X-13029Y40421D01*
X-11264D01*
X-13510Y40652D02*
X-13083Y40224D01*
X-11264D01*
X-17264Y36845D02*
Y39258D01*
X-17067Y38995D02*
X-16900Y39162D01*
X-17264Y39258D02*
X-14880Y41642D01*
X-14900Y41922D02*
X-14800Y41822D01*
X-16870Y38712D02*
X-16490Y39092D01*
Y39332D01*
X-14360Y42182D02*
X-14280Y42262D01*
X-13870D01*
X-12900Y26097D02*
X-11039D01*
X-11024Y26082D01*
Y24705D02*
Y26082D01*
Y26673D01*
X-34862Y41063D02*
X-34861Y41064D01*
X-33224Y39441D02*
Y40119D01*
Y39441D02*
X-33185Y39402D01*
X-32476Y39441D02*
Y40119D01*
X-32515Y39402D02*
X-32476Y39441D01*
X-32510Y39396D02*
X-31690D01*
X-32515Y39402D02*
X-32510Y39396D01*
X-10516Y34435D02*
Y37325D01*
X-11400Y33552D02*
X-10516Y34435D01*
X-13020Y33552D02*
X-11400D01*
X-10320Y34222D02*
Y37319D01*
X-11530Y33012D02*
X-10320Y34222D01*
X-12430Y33012D02*
X-11530D01*
X-14320Y33992D02*
X-11024Y30695D01*
Y26673D02*
Y30695D01*
X-11264Y37345D02*
Y38059D01*
Y37345D02*
X-10750Y36832D01*
Y35162D02*
Y36832D01*
X-11068Y34843D02*
X-10750Y35162D01*
X-11264Y34843D02*
X-11068D01*
X-12790Y34843D02*
X-11933D01*
X-12790Y34843D02*
X-12790Y34843D01*
X-31690Y36182D02*
Y38727D01*
Y36182D02*
X-28950Y33442D01*
X-20866Y29370D02*
X-20772D01*
X-19650Y30492D01*
X-15020D01*
X-13400Y32112D01*
X-33670Y18081D02*
X-32924D01*
X-34216Y18489D02*
X-34077D01*
X-34216Y16689D02*
X-34005Y16900D01*
X-34077Y18489D02*
X-33855Y18267D01*
X-33670Y18081D01*
X-33830Y17289D02*
X-32928D01*
X-32423Y15289D02*
X-32136Y15576D01*
Y15916D01*
X-31546Y15546D02*
Y15916D01*
X-31939Y15482D02*
Y15916D01*
X-33016Y14689D02*
X-32733D01*
X-32450Y14641D02*
X-31546Y15546D01*
X-32733Y14689D02*
X-31939Y15482D01*
X-30630Y12492D02*
Y12872D01*
X-31050Y12932D02*
X-30650Y13331D01*
X-31050Y12882D02*
Y12932D01*
X-30650Y13331D02*
Y13454D01*
X-30970Y11427D02*
X-30605Y11792D01*
X-33822Y15152D02*
X-33685Y15289D01*
X-32924Y17687D02*
X-32516D01*
X-32490Y17662D01*
Y17162D02*
Y17662D01*
X-32924Y17097D02*
X-32555D01*
X-32924Y16703D02*
X-32532D01*
X-32490Y16745D01*
X-32555Y17097D02*
X-32490Y17162D01*
X-30425Y16506D02*
X-29577D01*
X-30561Y16370D02*
X-30425Y16506D01*
X-30561Y15916D02*
Y16370D01*
X-31743Y16299D02*
X-31671Y16370D01*
X-31743Y15916D02*
Y16299D01*
X-31671Y16370D02*
X-30971D01*
X-30561D01*
X-33189Y10693D02*
X-33185Y10689D01*
X-4227Y4367D02*
X-4214Y4380D01*
X-3971Y4367D02*
Y5050D01*
X-3210Y5812D01*
Y6502D01*
X-4944Y7098D02*
X-4810Y7232D01*
X-4531Y7510D01*
X-4200Y5622D02*
Y5739D01*
X-4476Y5736D02*
X-4344Y5867D01*
Y6194D01*
X-4200Y5739D02*
X-3744Y6194D01*
X-4476Y5508D02*
Y5736D01*
X-4540Y5182D02*
X-4483Y5125D01*
Y4367D02*
Y5125D01*
X-4476Y5508D02*
X-4214Y5246D01*
Y4380D02*
Y5246D01*
X-5640Y9642D02*
X-5398D01*
X-7364Y8781D02*
X-6995Y8412D01*
X-6870D01*
X-5640Y9642D01*
X-7364Y8003D02*
Y8112D01*
Y8222D01*
X-6740D02*
X-5635Y9327D01*
X-5398D01*
X-8890Y20682D02*
X-7670Y21902D01*
X-8670Y20142D02*
X-6970Y21842D01*
X-33185Y38937D02*
Y39402D01*
X-9005Y45376D02*
X-8550D01*
Y43526D02*
Y44322D01*
Y44707D01*
X-4040Y36132D02*
Y36527D01*
X-7925Y35952D02*
X-7700Y36176D01*
X-8110Y35952D02*
X-7925D01*
X-12164Y36309D02*
X-11717D01*
X-11680Y36272D01*
X-18504Y34823D02*
X-18110D01*
X-17717D01*
X-21735Y32172D02*
Y33048D01*
X-21654Y33130D01*
X-22405Y32172D02*
Y33094D01*
X-22441Y33130D02*
X-22405Y33094D01*
X-4530Y21112D02*
Y32772D01*
Y21112D02*
X-4250Y20832D01*
X-6900Y7608D02*
Y7782D01*
X-7479Y7029D02*
X-6900Y7608D01*
X-6809Y6631D02*
Y7029D01*
X-30955Y20697D02*
X-30820Y20832D01*
X-30327D01*
X-30040Y21119D01*
X-31349Y19262D02*
Y21040D01*
X-31152Y19262D02*
Y21040D01*
X-30955Y19262D02*
Y20697D01*
X-6100Y22602D02*
X-5460D01*
X-4880Y23182D01*
X-30365Y19262D02*
Y19497D01*
X-30200Y19662D01*
X-30758Y19262D02*
Y20283D01*
X-30530Y20512D01*
X-6425Y22927D02*
Y23387D01*
Y22927D02*
X-6100Y22602D01*
X-34116Y20289D02*
Y20642D01*
X-4930Y13142D02*
X-4531Y12743D01*
X-9850Y23372D02*
X-9580Y23102D01*
X-9850Y23372D02*
Y31522D01*
X-8130Y22722D02*
Y28912D01*
X-9160Y29942D02*
X-8130Y28912D01*
X-9160Y29942D02*
Y33692D01*
X-5644Y19720D02*
X-5150D01*
X-4644D01*
X-1870Y6752D02*
Y7263D01*
X-1616D01*
X-2147D02*
X-1870D01*
X-2323Y16899D02*
Y17274D01*
X-6475Y10272D02*
Y10726D01*
X-36535Y15892D02*
Y16327D01*
D20*
X-12480Y14193D02*
X-12205Y14468D01*
X-27441Y14705D02*
X-27165Y14429D01*
X-26890Y14705D02*
X-26614Y14429D01*
Y14154D02*
Y14429D01*
X-12480Y14193D02*
Y14193D01*
X-12205Y14468D02*
Y14705D01*
X-27165Y14154D02*
Y14429D01*
D21*
X-29625Y11547D02*
Y13047D01*
X-29714Y7864D02*
X-29310Y8268D01*
X-29875Y11443D02*
Y13047D01*
X-30019Y7707D02*
X-29970Y7658D01*
X-30019Y7707D02*
Y8013D01*
X-29560Y8472D01*
X-29625Y11547D02*
X-29310Y11232D01*
Y8268D02*
Y11232D01*
X-31145Y6927D02*
X-30970D01*
X-29970D02*
Y7658D01*
X-31425Y10742D02*
Y13047D01*
X-31675Y10742D02*
Y13047D01*
X-31850Y14124D02*
Y14356D01*
X-31675Y14531D01*
X-31250Y14124D02*
Y14356D01*
X-30940Y15387D02*
Y15582D01*
X-30050Y14124D02*
Y14622D01*
X-30418Y14989D02*
X-30050Y14622D01*
X-29525Y14199D02*
X-29450Y14124D01*
X-29525Y14199D02*
Y14451D01*
X-30168Y15093D02*
X-29525Y14451D01*
X-30168Y15093D02*
Y15916D01*
X-30418Y14989D02*
Y15634D01*
X-31190Y15491D02*
Y15582D01*
X-31850Y13222D02*
Y13454D01*
Y13222D02*
X-31675Y13047D01*
X-29875Y11443D02*
X-29560Y11128D01*
Y8472D02*
Y11128D01*
X-30050Y13222D02*
X-29875Y13047D01*
X-30050Y13222D02*
Y13454D01*
X-29625Y13047D02*
X-29450Y13222D01*
Y13454D01*
X-31850Y9922D02*
Y10154D01*
Y9922D02*
X-31675Y9747D01*
Y8832D02*
Y9747D01*
X-31250Y9922D02*
Y10154D01*
X-31425Y9747D02*
X-31250Y9922D01*
X-31950Y7632D02*
X-31145Y6827D01*
X-31425Y8728D02*
Y9747D01*
X-31620Y8533D02*
X-31425Y8728D01*
X-31950Y7632D02*
Y8557D01*
X-31620Y8472D02*
Y8533D01*
X-31425Y14531D02*
X-31250Y14356D01*
X-31425Y14531D02*
Y14902D01*
X-30940Y15387D01*
X-31675Y14531D02*
Y15005D01*
X-31190Y15491D01*
X-31425Y13047D02*
X-31250Y13222D01*
Y13454D01*
X-31950Y8557D02*
X-31675Y8832D01*
D22*
X-14026Y4569D02*
X-12040D01*
X-14232Y4075D02*
Y4775D01*
X-13600Y2905D02*
X-12050D01*
X-21766Y5368D02*
X-19320Y2922D01*
X-14958Y2314D02*
X-14200D01*
X-19320Y1502D02*
Y2922D01*
X-15401Y2901D02*
X-15290D01*
X-15832Y1675D02*
Y2314D01*
X-15734D01*
X-15670Y2251D01*
X-15021D01*
X-14958Y2314D01*
X-14232Y4775D02*
X-14026Y4569D01*
X-19320Y1502D02*
X-18670Y852D01*
X-16190D01*
X-15832Y1209D01*
Y1675D01*
D23*
X-16766Y3274D02*
Y3439D01*
X-17302Y3975D02*
X-16766Y3439D01*
X-16632Y3975D02*
X-16217D01*
D24*
X-14961Y25591D02*
D03*
X-24409D02*
D03*
X-1969Y46358D02*
D03*
X-37402D02*
D03*
Y1969D02*
D03*
X-1969D02*
D03*
X-29472Y4331D02*
D03*
X-33972D02*
D03*
D25*
X-21861Y3102D02*
D03*
D26*
Y5464D02*
D03*
D27*
X-34862Y37717D02*
D03*
Y41063D02*
D03*
D28*
X-16929Y33130D02*
D03*
X-17717D02*
D03*
X-18504D02*
D03*
X-19291D02*
D03*
X-20079D02*
D03*
X-20866D02*
D03*
X-21654D02*
D03*
X-22441D02*
D03*
X-4530Y32772D02*
D03*
X-3530Y33772D02*
D03*
Y32772D02*
D03*
X-2530Y33772D02*
D03*
Y32772D02*
D03*
X-2310Y15382D02*
D03*
X-1310Y14382D02*
D03*
X-2310D02*
D03*
X-1310Y13382D02*
D03*
X-2310D02*
D03*
D29*
X-32480Y44626D02*
D03*
X-6890D02*
D03*
Y31594D02*
D03*
X-32480D02*
D03*
D30*
X-28346Y26673D02*
D03*
Y24705D02*
D03*
X-30315D02*
D03*
Y26673D02*
D03*
X-9055D02*
D03*
Y24705D02*
D03*
X-11024D02*
D03*
Y26673D02*
D03*
D31*
X-29970Y6827D02*
D03*
D32*
X-30470Y7827D02*
D03*
X-30970Y6827D02*
D03*
X-31474Y7827D02*
D03*
X-31974Y6827D02*
D03*
X-32474Y7827D02*
D03*
X-32974Y6827D02*
D03*
X-33474Y7827D02*
D03*
D33*
X-28661Y5531D02*
D03*
X-34783D02*
D03*
D34*
X-30231Y3000D02*
D03*
X-29231Y2402D02*
D03*
X-34212Y3000D02*
D03*
X-33212Y2402D02*
D03*
D35*
X-5586Y4552D02*
D03*
X-4483Y3674D02*
D03*
X-3370Y4552D02*
D03*
D36*
X-4530Y33772D02*
D03*
D37*
X-1310Y15382D02*
D03*
D38*
X-29200Y25700D02*
D03*
X-5200Y35300D02*
D03*
X-7300Y22800D02*
D03*
Y28300D02*
D03*
Y25700D02*
D03*
X-1300Y11500D02*
D03*
Y10500D02*
D03*
X-25591Y29528D02*
D03*
X-20866Y38976D02*
D03*
X-25197Y34646D02*
D03*
X-25591Y31890D02*
D03*
X-27165D02*
D03*
X-10870Y23372D02*
D03*
X-11870D02*
D03*
X-12870D02*
D03*
X-13870D02*
D03*
X-14870D02*
D03*
X-15870D02*
D03*
X-16870D02*
D03*
X-17870D02*
D03*
X-18870D02*
D03*
X-19870D02*
D03*
X-20870D02*
D03*
X-21870D02*
D03*
X-22870D02*
D03*
X-23870D02*
D03*
X-24870D02*
D03*
X-25870D02*
D03*
X-26870D02*
D03*
X-27870D02*
D03*
X-28870Y16772D02*
D03*
Y15772D02*
D03*
Y14772D02*
D03*
Y13772D02*
D03*
Y11772D02*
D03*
Y10772D02*
D03*
Y9772D02*
D03*
Y8772D02*
D03*
Y7772D02*
D03*
Y6772D02*
D03*
X-27390Y5132D02*
D03*
X-26220Y5272D02*
D03*
X-25370D02*
D03*
X-23370D02*
D03*
X-24370D02*
D03*
X-18370D02*
D03*
X-17370D02*
D03*
X-13370D02*
D03*
X-12370D02*
D03*
X-11370D02*
D03*
X-10370D02*
D03*
Y8272D02*
D03*
Y9272D02*
D03*
Y11272D02*
D03*
Y23272D02*
D03*
Y22272D02*
D03*
Y21272D02*
D03*
Y20272D02*
D03*
Y19272D02*
D03*
Y18272D02*
D03*
X-29773Y29184D02*
D03*
X-25620Y28542D02*
D03*
X-26840Y29762D02*
D03*
X-27333Y29184D02*
D03*
X-25940Y27422D02*
D03*
X-6070Y24602D02*
D03*
X-30200Y19752D02*
D03*
X-8270Y13002D02*
D03*
X-7080Y16942D02*
D03*
X-4350Y35022D02*
D03*
X-660Y36392D02*
D03*
X-2720Y35942D02*
D03*
X-2890Y35392D02*
D03*
X-1890Y35552D02*
D03*
X-24490Y43188D02*
D03*
X-30400Y20102D02*
D03*
X-12574Y38978D02*
D03*
X-4350Y41996D02*
D03*
X-3180Y12962D02*
D03*
X-5490Y20382D02*
D03*
X-5450Y21032D02*
D03*
X-15470Y2773D02*
D03*
X-15220Y3023D02*
D03*
Y2773D02*
D03*
X-15470Y3023D02*
D03*
X-13670Y3033D02*
D03*
X-13420Y2783D02*
D03*
Y3033D02*
D03*
X-13670Y2783D02*
D03*
X-16217Y3975D02*
D03*
X-17040Y4732D02*
D03*
X-17200Y2272D02*
D03*
X-32500Y11386D02*
D03*
X-28815Y12876D02*
D03*
X-30630Y12872D02*
D03*
Y14632D02*
D03*
X-17765Y27067D02*
D03*
X-21820Y26432D02*
D03*
X-11070Y36432D02*
D03*
X-5989Y35013D02*
D03*
X-7270Y32822D02*
D03*
X-6370Y35112D02*
D03*
X-7180Y33562D02*
D03*
X-6790Y35002D02*
D03*
X-7190Y34982D02*
D03*
X-7850Y34972D02*
D03*
X-23780Y35002D02*
D03*
X-16580Y42322D02*
D03*
X-19690Y38392D02*
D03*
X-15650Y42432D02*
D03*
X-16900Y39162D02*
D03*
X-14900Y41922D02*
D03*
X-16490Y39332D02*
D03*
X-14360Y42182D02*
D03*
X-14320Y33992D02*
D03*
X-12180Y42512D02*
D03*
X-13020Y33552D02*
D03*
X-28950Y33442D02*
D03*
X-13400Y32112D02*
D03*
X-12450Y33012D02*
D03*
X-33855Y18267D02*
D03*
Y17314D02*
D03*
Y16937D02*
D03*
X-32610Y15422D02*
D03*
X-32470Y14462D02*
D03*
X-30040Y11122D02*
D03*
X-31050Y12882D02*
D03*
X-33070Y13452D02*
D03*
X-30970Y11427D02*
D03*
X-30640Y11181D02*
D03*
X-33185Y11147D02*
D03*
X-34795Y15816D02*
D03*
X-35263Y16689D02*
D03*
X-34630Y15142D02*
D03*
X-32555Y17097D02*
D03*
X-30971Y16370D02*
D03*
X-13830Y4452D02*
D03*
X-13580Y4702D02*
D03*
Y4452D02*
D03*
X-13830Y4702D02*
D03*
X-13330Y4452D02*
D03*
Y4702D02*
D03*
X-3210Y6502D02*
D03*
X-4810Y7232D02*
D03*
X-4200Y5622D02*
D03*
X-4540Y5182D02*
D03*
X-33185Y38937D02*
D03*
X-9005Y45376D02*
D03*
X-8550Y44322D02*
D03*
X-4040Y36132D02*
D03*
X-8110Y35952D02*
D03*
X-11680Y36272D02*
D03*
X-18110Y34823D02*
D03*
X-4250Y20832D02*
D03*
X-6900Y7782D02*
D03*
X-6809Y6631D02*
D03*
X-30530Y20512D02*
D03*
X-6100Y22602D02*
D03*
X-4880Y23182D02*
D03*
X-4830Y24952D02*
D03*
X-6425Y23387D02*
D03*
X-34116Y20642D02*
D03*
X-9580Y23102D02*
D03*
X-9850Y31522D02*
D03*
X-7240Y20762D02*
D03*
X-7030Y21272D02*
D03*
X-8130Y22722D02*
D03*
X-9160Y33692D02*
D03*
X-5150Y19720D02*
D03*
X-1870Y6752D02*
D03*
X-2323Y17274D02*
D03*
X-6475Y10726D02*
D03*
X-36535Y16327D02*
D03*
X-5301Y14537D02*
D03*
X-5695D02*
D03*
X-6088D02*
D03*
Y14143D02*
D03*
Y13750D02*
D03*
X-5695D02*
D03*
X-5301D02*
D03*
Y14143D02*
D03*
X-5695D02*
D03*
D39*
X-29700Y7850D02*
D03*
X-29310Y20402D02*
D03*
X-29924Y19505D02*
D03*
X-5720Y16067D02*
D03*
X-7121Y13651D02*
D03*
X-7200Y15282D02*
D03*
X-6432Y12890D02*
D03*
X-8140Y15892D02*
D03*
X-7190Y14242D02*
D03*
X-10709Y14468D02*
D03*
X-12756D02*
D03*
X-27441Y14705D02*
D03*
X-26890D02*
D03*
X-26614Y14154D02*
D03*
X-12480Y14193D02*
D03*
X-12205Y14705D02*
D03*
X-27165Y14154D02*
D03*
X-31620Y8472D02*
D03*
D40*
X-30388Y15663D02*
Y15916D01*
X-30955Y15597D02*
Y15916D01*
X-31152Y15597D02*
Y15916D01*
X-33855Y17314D02*
X-33830Y17289D01*
X-32610Y15289D02*
Y15422D01*
X-32470Y14462D02*
X-32450D01*
D41*
X-33713Y7963D02*
X-33610D01*
X-34020Y8270D02*
X-33713Y7963D01*
X-34020Y8270D02*
Y9590D01*
X-33610Y7963D02*
X-33474Y7827D01*
X-33163Y13454D02*
X-33070D01*
X-32450D01*
X-35865Y15152D02*
X-33822D01*
X-34861Y41064D02*
X-32850D01*
X-33685Y13977D02*
Y14689D01*
Y15289D01*
X-33070Y13452D02*
Y13454D01*
X-33685Y13977D02*
X-33163Y13454D01*
X-33185Y10689D02*
Y11147D01*
X-35220Y15816D02*
X-34795D01*
X-35295Y15892D02*
X-35220Y15816D01*
X-35865Y15892D02*
X-35295D01*
X-34020Y10693D02*
X-33189D01*
D42*
X-15899Y2901D02*
X-15401D01*
X-30040Y10824D02*
Y11122D01*
X-30640Y10824D02*
Y11181D01*
X-34885Y16689D02*
Y17289D01*
Y17889D01*
Y18489D01*
Y19089D01*
X-35263Y16689D02*
X-34885D01*
D43*
X-26466Y45855D02*
D03*
X-29734D02*
D03*
Y40442D02*
D03*
X-26466D02*
D03*
D44*
X-27490Y44920D02*
D03*
Y44487D02*
D03*
Y44054D02*
D03*
Y43621D02*
D03*
Y43188D02*
D03*
Y42755D02*
D03*
Y42322D02*
D03*
Y41889D02*
D03*
D45*
X-21861Y3102D02*
D03*
D46*
Y5464D02*
D03*
D47*
X-5045Y38059D02*
D03*
Y38256D02*
D03*
Y38453D02*
D03*
Y38650D02*
D03*
Y38846D02*
D03*
Y39043D02*
D03*
Y39240D02*
D03*
Y39437D02*
D03*
Y39634D02*
D03*
Y39831D02*
D03*
Y40028D02*
D03*
Y40224D02*
D03*
Y40421D02*
D03*
Y40618D02*
D03*
Y40815D02*
D03*
Y41012D02*
D03*
Y41209D02*
D03*
Y41406D02*
D03*
Y41602D02*
D03*
Y41799D02*
D03*
Y41996D02*
D03*
Y42193D02*
D03*
Y42390D02*
D03*
Y42587D02*
D03*
Y42783D02*
D03*
X-11264D02*
D03*
Y42587D02*
D03*
Y42390D02*
D03*
Y42193D02*
D03*
Y41996D02*
D03*
Y41799D02*
D03*
Y41602D02*
D03*
Y41406D02*
D03*
Y41209D02*
D03*
Y41012D02*
D03*
Y40815D02*
D03*
Y40618D02*
D03*
Y40421D02*
D03*
Y40224D02*
D03*
Y40028D02*
D03*
Y39831D02*
D03*
Y39634D02*
D03*
Y39437D02*
D03*
Y39240D02*
D03*
Y39043D02*
D03*
Y38846D02*
D03*
Y38650D02*
D03*
Y38453D02*
D03*
Y38256D02*
D03*
Y38059D02*
D03*
D48*
X-5792Y43523D02*
D03*
X-5989D02*
D03*
X-6186D02*
D03*
X-6383D02*
D03*
X-6579D02*
D03*
X-6776D02*
D03*
X-6973D02*
D03*
X-7170D02*
D03*
X-7367D02*
D03*
X-7564D02*
D03*
X-7760D02*
D03*
X-7957D02*
D03*
X-8154D02*
D03*
X-8351D02*
D03*
X-8548D02*
D03*
X-8745D02*
D03*
X-8942D02*
D03*
X-9138D02*
D03*
X-9335D02*
D03*
X-9532D02*
D03*
X-9729D02*
D03*
X-9926D02*
D03*
X-10123D02*
D03*
X-10320D02*
D03*
X-10516D02*
D03*
X-10516Y37325D02*
D03*
X-10320Y37319D02*
D03*
X-10123D02*
D03*
X-9926D02*
D03*
X-9729D02*
D03*
X-9532D02*
D03*
X-9335D02*
D03*
X-9138D02*
D03*
X-8942D02*
D03*
X-8745D02*
D03*
X-8548D02*
D03*
X-8351D02*
D03*
X-8154D02*
D03*
X-7957D02*
D03*
X-7760D02*
D03*
X-7564D02*
D03*
X-7367D02*
D03*
X-7170D02*
D03*
X-6973D02*
D03*
X-6776D02*
D03*
X-6579D02*
D03*
X-6383D02*
D03*
X-6186D02*
D03*
X-5989D02*
D03*
X-5792D02*
D03*
D49*
X-14155Y40272D02*
D03*
Y36224D02*
D03*
X-8880Y6487D02*
D03*
Y10535D02*
D03*
D50*
X-12790Y34843D02*
D03*
X-13538D02*
D03*
X-9854Y4569D02*
D03*
X-9106D02*
D03*
D51*
X-32476Y40119D02*
D03*
X-32850Y41064D02*
D03*
X-20040Y28608D02*
D03*
X-19666Y27663D02*
D03*
D52*
X-33224Y40119D02*
D03*
X-19292Y28608D02*
D03*
D53*
X-19813Y27067D02*
D03*
X-20344D02*
D03*
D54*
X-30623Y21569D02*
D03*
X-32237D02*
D03*
D55*
X-29577Y16506D02*
D03*
Y16703D02*
D03*
Y16900D02*
D03*
Y17097D02*
D03*
Y17294D02*
D03*
Y17491D02*
D03*
Y17687D02*
D03*
Y17884D02*
D03*
Y18081D02*
D03*
Y18278D02*
D03*
Y18475D02*
D03*
Y18672D02*
D03*
X-32924D02*
D03*
Y18475D02*
D03*
Y18278D02*
D03*
Y18081D02*
D03*
Y17884D02*
D03*
Y17687D02*
D03*
Y17491D02*
D03*
Y17294D02*
D03*
Y17097D02*
D03*
Y16900D02*
D03*
Y16703D02*
D03*
Y16506D02*
D03*
D56*
X-30168Y19262D02*
D03*
X-30365D02*
D03*
X-30561D02*
D03*
X-30758D02*
D03*
X-30955D02*
D03*
X-31152D02*
D03*
X-31349D02*
D03*
X-31546D02*
D03*
X-31743D02*
D03*
X-31939D02*
D03*
X-32136D02*
D03*
X-32333D02*
D03*
Y15916D02*
D03*
X-32136D02*
D03*
X-31939D02*
D03*
X-31743D02*
D03*
X-31546D02*
D03*
X-31349D02*
D03*
X-31152D02*
D03*
X-30955D02*
D03*
X-30758D02*
D03*
X-30561D02*
D03*
X-30365D02*
D03*
X-30168D02*
D03*
D57*
X-34020Y9590D02*
D03*
Y10693D02*
D03*
D58*
X-15899Y2901D02*
D03*
Y3274D02*
D03*
X-16766Y2526D02*
D03*
Y3274D02*
D03*
X-15899Y2526D02*
D03*
X-16766Y2901D02*
D03*
D59*
X-12040Y4569D02*
D03*
Y2915D02*
D03*
D60*
X-4995Y4367D02*
D03*
X-4739D02*
D03*
X-4483D02*
D03*
X-4227D02*
D03*
X-3971D02*
D03*
D61*
X-5398Y9327D02*
D03*
Y9642D02*
D03*
Y9957D02*
D03*
Y10272D02*
D03*
Y10587D02*
D03*
Y10902D02*
D03*
Y11217D02*
D03*
Y11531D02*
D03*
X-2091D02*
D03*
Y11217D02*
D03*
Y10902D02*
D03*
Y10587D02*
D03*
Y10272D02*
D03*
Y9957D02*
D03*
Y9642D02*
D03*
Y9327D02*
D03*
D62*
X-4846Y12083D02*
D03*
X-4531D02*
D03*
X-4217D02*
D03*
X-3902D02*
D03*
X-3587D02*
D03*
X-3272D02*
D03*
X-2957D02*
D03*
X-2642D02*
D03*
Y8776D02*
D03*
X-2957D02*
D03*
X-3272D02*
D03*
X-3587D02*
D03*
X-3902D02*
D03*
X-4217D02*
D03*
X-4531D02*
D03*
X-4846D02*
D03*
D63*
X-1616Y7794D02*
D03*
Y7263D02*
D03*
D64*
X-5644Y18259D02*
D03*
Y17511D02*
D03*
X-4644Y18259D02*
D03*
Y17511D02*
D03*
M02*
