G04 Layer_Color=8421504*
%FSLAX24Y24*%
%MOIN*%
G70*
G01*
G75*
%ADD10R,0.0394X0.0315*%
%ADD11R,0.0315X0.0394*%
%ADD12C,0.0394*%
%ADD13R,0.0512X0.1339*%
%ADD14R,0.0610X0.0610*%
%ADD15R,0.1280X0.1280*%
%ADD16R,0.0331X0.0102*%
%ADD17R,0.0102X0.0331*%
%ADD18R,0.1575X0.0650*%
G36*
X-5102Y13551D02*
X-5444D01*
Y13892D01*
X-5102D01*
Y13551D01*
D02*
G37*
G36*
X-5945Y13972D02*
X-6289D01*
Y14315D01*
X-5945D01*
Y13972D01*
D02*
G37*
G36*
Y13551D02*
X-6289D01*
Y13892D01*
X-5945D01*
Y13551D01*
D02*
G37*
G36*
X-5523D02*
X-5866D01*
Y13892D01*
X-5523D01*
Y13551D01*
D02*
G37*
G36*
Y13972D02*
X-5866D01*
Y14315D01*
X-5523D01*
Y13972D01*
D02*
G37*
G36*
Y14393D02*
X-5866D01*
Y14737D01*
X-5523D01*
Y14393D01*
D02*
G37*
G36*
X-5102D02*
X-5444D01*
Y14737D01*
X-5102D01*
Y14393D01*
D02*
G37*
G36*
Y13972D02*
X-5444D01*
Y14315D01*
X-5102D01*
Y13972D01*
D02*
G37*
G36*
X-5945Y14393D02*
X-6289D01*
Y14738D01*
X-5945D01*
Y14393D01*
D02*
G37*
D10*
X-8991Y14747D02*
D03*
Y15417D02*
D03*
Y13527D02*
D03*
Y14197D02*
D03*
X-7080Y16416D02*
D03*
Y15747D02*
D03*
X-7740Y16586D02*
D03*
X-7740Y15917D02*
D03*
X-10276Y14193D02*
D03*
Y13524D02*
D03*
X-9661Y14197D02*
D03*
Y13527D02*
D03*
X-8400Y14196D02*
D03*
Y13527D02*
D03*
X-10276Y15413D02*
D03*
Y14744D02*
D03*
X-9661Y15417D02*
D03*
Y14747D02*
D03*
X-8400Y15416D02*
D03*
Y14747D02*
D03*
X-5400Y16416D02*
D03*
Y15747D02*
D03*
X-6060Y15742D02*
D03*
X-6060Y16411D02*
D03*
X-7760Y14602D02*
D03*
X-7760Y15271D02*
D03*
X-7770Y14051D02*
D03*
X-7770Y13382D02*
D03*
D11*
X-10846Y13760D02*
D03*
X-11516Y13760D02*
D03*
X-10846Y15138D02*
D03*
X-11516Y15138D02*
D03*
X-6175Y12682D02*
D03*
X-6845Y12682D02*
D03*
X-5565Y9902D02*
D03*
X-6235D02*
D03*
X-4855Y9892D02*
D03*
X-4185D02*
D03*
X-9661Y12967D02*
D03*
X-8992D02*
D03*
X-9666Y15982D02*
D03*
X-8997D02*
D03*
X-8995Y16582D02*
D03*
X-8325D02*
D03*
X-8105Y12682D02*
D03*
X-7435D02*
D03*
D12*
X-787Y787D02*
D03*
X-38583Y47539D02*
D03*
X-38583Y787D02*
D03*
D13*
X-21398Y25799D02*
D03*
X-17972D02*
D03*
D14*
X-36919Y9563D02*
D03*
Y11433D02*
D03*
X-33789D02*
D03*
Y9563D02*
D03*
D15*
X-5695Y14143D02*
D03*
D16*
X-4730Y14832D02*
D03*
Y14635D02*
D03*
Y14439D02*
D03*
Y14242D02*
D03*
Y14045D02*
D03*
Y13848D02*
D03*
Y13651D02*
D03*
Y13454D02*
D03*
X-6659D02*
D03*
Y13651D02*
D03*
Y13848D02*
D03*
Y14045D02*
D03*
Y14242D02*
D03*
Y14439D02*
D03*
Y14635D02*
D03*
Y14832D02*
D03*
D17*
X-5006Y13179D02*
D03*
X-5203D02*
D03*
X-5399D02*
D03*
X-5596D02*
D03*
X-5793D02*
D03*
X-5990D02*
D03*
X-6187D02*
D03*
X-6384D02*
D03*
Y15108D02*
D03*
X-6187D02*
D03*
X-5990D02*
D03*
X-5793D02*
D03*
X-5596D02*
D03*
X-5399D02*
D03*
X-5203D02*
D03*
X-5006D02*
D03*
D18*
X-3281Y11377D02*
D03*
X-7328D02*
D03*
M02*
